<?xml version="1.0" standalone="no"?>
<!DOCTYPE svg PUBLIC "-//W3C//DTD SVG 1.1//EN" "http://www.w3.org/Graphics/SVG/1.1/DTD/svg11.dtd" >
<svg xmlns="http://www.w3.org/2000/svg">
<metadata></metadata>
<defs>
<font id="core_sans_d_17_cn_thinregular" horiz-adv-x="328" >
<font-face units-per-em="1000" ascent="800" descent="-200" />
<missing-glyph horiz-adv-x="182" />
<glyph unicode="&#xfb01;" horiz-adv-x="338" d="M255 0v482h-153v-482h-20v482h-57v18h57v109q0 55 18.5 79t60.5 24h17v-18h-19q-30 0 -43.5 -19t-13.5 -66v-109h173v-500h-20zM255 635v77h20v-77h-20z" />
<glyph unicode="&#xfb02;" horiz-adv-x="363" d="M250 103v574q-37 17 -84 17q-32 0 -48 -17.5t-16 -67.5v-109h76v-18h-76v-482h-20v482h-57v18h57v109q0 57 20 80t64 23q48 0 84 -17v17h20v-609q0 -47 13.5 -66t43.5 -19h14v-18h-12q-42 0 -60.5 24t-18.5 79z" />
<glyph unicode="&#xfb03;" horiz-adv-x="511" d="M255 500v109q0 55 18.5 79t60.5 24h17v-18h-19q-30 0 -43.5 -19t-13.5 -66v-109h173v-500h-20v482h-153v-482h-20v482h-153v-482h-20v482h-57v18h57v109q0 55 18.5 79t61.5 24q26 0 43 -6l-5 -17q-14 5 -38 5q-32 0 -46 -18t-14 -67v-109h153zM428 635v77h20v-77h-20z " />
<glyph unicode="&#xfb04;" horiz-adv-x="536" d="M423 103v574q-37 17 -84 17q-32 0 -48 -17.5t-16 -67.5v-109h76v-18h-76v-482h-20v482h-153v-482h-20v482h-57v18h57v109q0 55 18.5 79t61.5 24q26 0 43 -6l-5 -17q-14 5 -38 5q-32 0 -46 -18t-14 -67v-109h153v109q0 57 20 80t64 23q48 0 84 -17v17h20v-609 q0 -47 13.5 -66t43.5 -19h14v-18h-12q-42 0 -60.5 24t-18.5 79z" />
<glyph horiz-adv-x="333" />
<glyph horiz-adv-x="0" />
<glyph horiz-adv-x="0" />
<glyph unicode="&#xd;" horiz-adv-x="116" />
<glyph unicode=" "  horiz-adv-x="182" />
<glyph unicode="&#x09;" horiz-adv-x="182" />
<glyph unicode="&#xa0;" horiz-adv-x="182" />
<glyph unicode="!" horiz-adv-x="162" d="M71 169v531h20v-531h-20zM91 65v-65h-20v65h20z" />
<glyph unicode="&#x22;" horiz-adv-x="244" d="M67 540v160h20v-160h-20zM157 540v160h20v-160h-20z" />
<glyph unicode="#" horiz-adv-x="431" d="M34 234h73l36 233h-85v18h88l33 216h20l-33 -216h140l33 216h20l-33 -216h71v-18h-74l-36 -233h86v-18h-88l-33 -216h-20l33 216h-140l-33 -216h-20l33 216h-71v18zM163 467l-36 -233h140l36 233h-140z" />
<glyph unicode="$" horiz-adv-x="362" d="M40 157v14l20 1v-12q0 -70 29.5 -109.5t81.5 -44.5v347l-13 5q-65 25 -93.5 63.5t-28.5 115.5v16q0 72 34 115.5t101 44.5v69h20v-70q58 -7 87.5 -49.5t29.5 -109.5v-17l-20 -1v15q0 62 -24.5 99.5t-72.5 44.5v-328l13 -5q65 -25 93.5 -63.5t28.5 -115.5v-25 q0 -75 -35.5 -120.5t-99.5 -48.5v-69h-20v70q-62 4 -96.5 49t-34.5 119zM306 160v20q0 69 -25.5 104.5t-89.5 60.5v-339q54 3 84.5 43t30.5 111zM56 550v-11q0 -70 25.5 -105.5t89.5 -60.5v322q-57 -1 -86 -39t-29 -106z" />
<glyph unicode="%" horiz-adv-x="487" d="M133 0l201 700h20l-201 -700h-20zM200 605v-163q0 -107 -73 -107t-73 107v163q0 107 73 107t73 -107zM74 607v-167q0 -88 53 -88t53 88v167q0 88 -53 88t-53 -88zM287 95v163q0 107 73 107t73 -107v-163q0 -107 -73 -107t-73 107zM413 93v167q0 88 -53 88t-53 -88v-167 q0 -88 53 -88t53 88z" />
<glyph unicode="&#x26;" horiz-adv-x="406" d="M40 170q0 56 17 95.5t66 94.5l23 26l-20 35q-53 89 -53 144v17q0 62 25.5 95.5t68.5 33.5t68.5 -33.5t25.5 -95.5v-17q0 -78 -74 -161l-17 -19l147 -244q23 86 28 229l20 -1q-5 -162 -35 -251l72 -118h-23l-57 95q-44 -107 -139 -107q-68 0 -105.5 44.5t-37.5 122.5v15z M185 6q86 0 124 109l-153 255l-19 -22q-48 -54 -62.5 -89.5t-14.5 -90.5v-12q0 -72 31.5 -111t93.5 -39zM93 582v-17q0 -50 53 -139l14 -24l10 11q71 80 71 152v17q0 54 -19.5 82.5t-54.5 28.5t-54.5 -28.5t-19.5 -82.5z" />
<glyph unicode="'" horiz-adv-x="154" d="M67 540v160h20v-160h-20z" />
<glyph unicode="(" horiz-adv-x="249" d="M125 561v-431q0 -95 18.5 -144t69.5 -74l-6 -20q-61 30 -81.5 83.5t-20.5 150.5v439q0 97 20.5 150.5t81.5 83.5l6 -20q-51 -25 -69.5 -74t-18.5 -144z" />
<glyph unicode=")" horiz-adv-x="249" d="M124 130v431q0 95 -18.5 144t-69.5 74l6 20q61 -30 81.5 -83.5t20.5 -150.5v-439q0 -97 -20.5 -150.5t-81.5 -83.5l-6 20q51 25 69.5 74t18.5 144z" />
<glyph unicode="*" horiz-adv-x="360" d="M170 165v143l-124 -71l-10 17l124 72l-124 72l10 17l124 -72v144h20v-144l124 72l10 -17l-125 -72l125 -72l-10 -17l-124 71v-143h-20z" />
<glyph unicode="+" horiz-adv-x="384" d="M41 317v18h141v152h20v-152h141v-18h-141v-152h-20v152h-141z" />
<glyph unicode="," horiz-adv-x="174" d="M97 65v-78q0 -56 -41 -70v23q21 10 21 47v78h20z" />
<glyph unicode="-" horiz-adv-x="243" d="M41 317v18h161v-18h-161z" />
<glyph unicode="." horiz-adv-x="174" d="M97 65v-65h-20v65h20z" />
<glyph unicode="/" horiz-adv-x="244" d="M244 783l-224 -876h-20l224 876h20z" />
<glyph unicode="0" horiz-adv-x="348" d="M174 -12q-63 0 -96 48t-33 139v350q0 91 33 139t96 48t96 -48t33 -139v-350q0 -91 -33 -139t-96 -48zM174 6q109 0 109 174v340q0 174 -109 174t-109 -174v-340q0 -174 109 -174z" />
<glyph unicode="1" horiz-adv-x="348" d="M301 0h-217v18h99v663l-99 -47v19l100 47h19v-682h98v-18z" />
<glyph unicode="2" horiz-adv-x="348" d="M174 712q125 0 125 -176v-27q0 -49 -9.5 -85.5t-37.5 -86.5l-180 -319h227v-18h-250v17l184 327q46 81 46 165v27q0 158 -105 158t-105 -158v-25l-20 1v24q0 176 125 176z" />
<glyph unicode="3" horiz-adv-x="348" d="M280 164v79q0 158 -104 158q-29 0 -49 -17l-13 12l147 286h-199v18h220v-17l-141 -274q15 10 37 10q122 0 122 -176v-79q0 -176 -126 -176t-126 176v24l20 1v-25q0 -158 106 -158t106 158z" />
<glyph unicode="4" horiz-adv-x="348" d="M314 193v-18h-55v-175h-20v175h-204v17l204 508h20v-507h55zM56 193h183v457z" />
<glyph unicode="5" horiz-adv-x="348" d="M89 682v-293q31 49 89 49q122 0 122 -173v-101q0 -176 -126 -176t-126 176v24l20 1v-25q0 -158 106 -158t106 158v101q0 155 -102 155q-58 0 -89 -63h-20v343h211v-18h-191z" />
<glyph unicode="6" horiz-adv-x="348" d="M174 -12q-63 0 -96 48t-33 139v38q0 60 15 105l135 382h20l-116 -328q26 28 75 28q63 0 96 -48t33 -139v-38q0 -91 -33 -139t-96 -48zM174 6q109 0 109 174v28q0 174 -109 174t-109 -174v-28q0 -174 109 -174z" />
<glyph unicode="7" horiz-adv-x="348" d="M48 682v18h248v-17l-177 -683h-21l177 682h-227z" />
<glyph unicode="8" horiz-adv-x="348" d="M174 712q56 0 86 -41t30 -117v-21q0 -121 -72 -149q89 -28 89 -178v-31q0 -187 -133 -187t-133 187v31q0 150 89 178q-72 28 -72 149v21q0 76 30 117t86 41zM174 6q113 0 113 174v21q0 174 -113 174t-113 -174v-21q0 -174 113 -174zM174 393q96 0 96 145v11 q0 145 -96 145t-96 -145v-11q0 -145 96 -145z" />
<glyph unicode="9" horiz-adv-x="348" d="M174 712q63 0 96 -48t33 -139v-38q0 -60 -15 -105l-135 -382h-20l116 328q-26 -28 -75 -28q-63 0 -96 48t-33 139v38q0 91 33 139t96 48zM174 694q-109 0 -109 -174v-28q0 -174 109 -174t109 174v28q0 174 -109 174z" />
<glyph unicode=":" horiz-adv-x="174" d="M97 65v-65h-20v65h20zM97 549v-65h-20v65h20z" />
<glyph unicode=";" horiz-adv-x="174" d="M97 -13v78h-20v-78q0 -37 -21 -47v-23q41 14 41 70zM97 549v-65h-20v65h20z" />
<glyph unicode="&#x3c;" horiz-adv-x="384" d="M333 162l-282 156v16l282 156v-21l-257 -143l257 -143v-21z" />
<glyph unicode="=" horiz-adv-x="384" d="M41 394v18h302v-18h-302zM41 240v18h302v-18h-302z" />
<glyph unicode="&#x3e;" horiz-adv-x="384" d="M333 318l-282 -156v21l257 143l-257 143v21l282 -156v-16z" />
<glyph unicode="?" horiz-adv-x="329" d="M166 65v-65h-20v65h20zM156 712q119 0 119 -160v-39q0 -42 -14.5 -76.5t-52.5 -81.5q-27 -33 -34.5 -59t-7.5 -83v-32h-20v32q0 64 8 89t39 65q34 42 48 74.5t14 71.5v39q0 142 -99 142t-99 -142v-40l-20 1v39q0 160 119 160z" />
<glyph unicode="@" horiz-adv-x="498" d="M321 471q65 0 94 -50v47q0 116 -41 171t-125 55t-125 -55t-41 -171v-413q0 -116 41 -171t125 -55q55 0 91 27l9 -17q-37 -28 -100 -28q-186 0 -186 243v415q0 243 186 243t186 -241v-314q0 -149 -111 -149q-112 0 -112 149v165q0 82 32 115.5t77 33.5zM324 26 q91 0 91 132v231q-33 64 -94 64q-37 0 -63 -29t-26 -103v-163q0 -132 92 -132z" />
<glyph unicode="A" horiz-adv-x="358" d="M328 0l-45 197h-209l-44 -197h-20l159 700h20l159 -700h-20zM179 660l-101 -445h201z" />
<glyph unicode="B" horiz-adv-x="379" d="M183 0h-120v700h104q83 0 122 -43t39 -131q0 -133 -71 -164q85 -31 85 -174q0 -100 -40.5 -144t-118.5 -44zM205 352h-122v-334h97q72 0 107 40t35 129q0 165 -117 165zM83 370h121q104 0 104 156q0 78 -34.5 117t-109.5 39h-81v-312z" />
<glyph unicode="C" horiz-adv-x="386" d="M45 188v324q0 100 40 150t111 50t111 -50t40 -150v-9l-20 -1v6q0 95 -35 140.5t-96 45.5t-96 -45.5t-35 -140.5v-316q0 -95 35 -140.5t96 -45.5t96 45.5t35 140.5v6l20 -1v-9q0 -100 -40 -150t-111 -50t-111 50t-40 150z" />
<glyph unicode="D" horiz-adv-x="396" d="M63 0v700h137q71 0 111 -50t40 -150v-301q0 -100 -40 -149.5t-111 -49.5h-137zM83 18h117q131 0 131 185v293q0 95 -35 140.5t-96 45.5h-117v-664z" />
<glyph unicode="E" horiz-adv-x="345" d="M63 0v700h250v-18h-230v-311h198v-18h-198v-335h230v-18h-250z" />
<glyph unicode="F" horiz-adv-x="335" d="M63 0v700h250v-18h-230v-319h206v-18h-206v-345h-20z" />
<glyph unicode="G" horiz-adv-x="389" d="M210 313v20h137v-145q0 -100 -40 -150t-111 -50t-111 50t-40 150v324q0 100 40 150t111 50t111 -50t40 -150v-9l-20 -1v6q0 95 -35 140.5t-96 45.5t-96 -45.5t-35 -140.5v-316q0 -95 35 -140.5t96 -45.5t96 45.5t35 140.5v121h-117z" />
<glyph unicode="H" horiz-adv-x="410" d="M327 0v352h-244v-352h-20v700h20v-330h244v330h20v-700h-20z" />
<glyph unicode="I" horiz-adv-x="146" d="M83 700v-700h-20v700h20z" />
<glyph unicode="J" horiz-adv-x="321" d="M142 -12q-116 0 -126 147l20 1q9 -130 106 -130q53 0 78.5 38t25.5 120v536h20v-537q0 -175 -124 -175z" />
<glyph unicode="K" horiz-adv-x="376" d="M301 700h20v-41q0 -94 -21.5 -148t-75.5 -109l142 -402h-21l-136 388l-126 -121v-267h-20v700h20v-406l109 104q63 61 86 113.5t23 146.5v42z" />
<glyph unicode="L" horiz-adv-x="322" d="M63 0v700h20v-682h225v-18h-245z" />
<glyph unicode="M" horiz-adv-x="506" d="M263 184h-20l-160 456v-640h-20v700h20l170 -492l170 492h20v-700h-20v640z" />
<glyph unicode="N" horiz-adv-x="434" d="M351 0l-268 653v-653h-20v700h20l268 -653v653h20v-700h-20z" />
<glyph unicode="O" horiz-adv-x="392" d="M45 188v324q0 100 40 150t111 50t111 -50t40 -150v-324q0 -100 -40 -150t-111 -50t-111 50t-40 150zM327 192v316q0 95 -35 140.5t-96 45.5t-96 -45.5t-35 -140.5v-316q0 -95 35 -140.5t96 -45.5t96 45.5t35 140.5z" />
<glyph unicode="P" horiz-adv-x="372" d="M83 326h84q79 0 117 43.5t38 134.5t-38 134.5t-117 43.5h-84v-356zM170 308h-87v-308h-20v700h107q172 0 172 -196t-172 -196z" />
<glyph unicode="Q" horiz-adv-x="392" d="M367 -29l-68 58q-38 -41 -103 -41q-71 0 -111 49.5t-40 149.5v325q0 100 40 150t111 50t111 -50t40 -150v-325q0 -93 -36 -143l68 -59zM327 191v317q0 95 -35 140.5t-96 45.5t-96 -45.5t-35 -140.5v-317q0 -185 131 -185q56 0 89 36l-75 65l13 14l73 -64q31 47 31 134z " />
<glyph unicode="R" horiz-adv-x="381" d="M170 318h-87v-318h-20v700h107q84 0 128 -48t44 -143q0 -145 -102 -181l111 -328h-21l-109 323q-27 -5 -51 -5zM83 682v-346h84q155 0 155 173t-155 173h-84z" />
<glyph unicode="S" horiz-adv-x="362" d="M40 157v14l20 1v-12q0 -74 32.5 -114t90.5 -40t90.5 40t32.5 114v20q0 70 -26 105.5t-90 60.5l-32 12q-65 25 -93.5 63.5t-28.5 115.5v16q0 73 34.5 116.5t101.5 43.5t101.5 -43.5t34.5 -116.5v-17l-20 -1v15q0 68 -29.5 106.5t-86.5 38.5t-86.5 -38.5t-29.5 -106.5v-11 q0 -70 26 -105.5t90 -60.5l32 -12q65 -25 93.5 -63.5t28.5 -115.5v-25q0 -77 -38 -123t-105 -46t-105 46t-38 123z" />
<glyph unicode="T" horiz-adv-x="322" d="M14 682v18h294v-18h-137v-682h-20v682h-137z" />
<glyph unicode="U" horiz-adv-x="404" d="M329 192v508h20v-512q0 -100 -39.5 -150t-107.5 -50t-107.5 50t-39.5 150v512h20v-508q0 -95 34 -140.5t93 -45.5t93 45.5t34 140.5z" />
<glyph unicode="V" horiz-adv-x="350" d="M30 700l145 -646l145 646h21l-156 -700h-20l-156 700h21z" />
<glyph unicode="W" horiz-adv-x="614" d="M297 700h20l130 -654l130 654h21l-141 -700h-20l-130 658l-130 -658h-20l-141 700h21l130 -654z" />
<glyph unicode="X" horiz-adv-x="352" d="M324 700l-135 -338l145 -362h-21l-137 340l-137 -340h-21l144 362l-134 338h21l127 -316l127 316h21z" />
<glyph unicode="Y" horiz-adv-x="326" d="M173 0h-20v330l-140 370h20l130 -343l130 343h20l-140 -370v-330z" />
<glyph unicode="Z" horiz-adv-x="326" d="M36 17l232 665h-224v18h246v-17l-232 -665h232v-18h-254v17z" />
<glyph unicode="[" horiz-adv-x="220" d="M72 -93v876h112v-18h-92v-840h92v-18h-112z" />
<glyph unicode="\" horiz-adv-x="245" d="M224 -93l-224 876h21l224 -876h-21z" />
<glyph unicode="]" horiz-adv-x="220" d="M148 783v-876h-112v18h92v840h-92v18h112z" />
<glyph unicode="^" horiz-adv-x="306" d="M258 488l-105 186l-105 -186h-21l120 212h12l120 -212h-21z" />
<glyph unicode="_" horiz-adv-x="350" d="M0 -146v18h350v-18h-350z" />
<glyph unicode="`" horiz-adv-x="230" d="M158 569l-75 161h20l75 -161h-20z" />
<glyph unicode="a" horiz-adv-x="336" d="M150 5q37 0 67 23.5t48 63.5v165h-93q-53 0 -84.5 -34t-31.5 -92v-18q0 -54 25 -81t69 -27zM73 400l-20 1q23 111 118 111q52 0 83 -35t31 -105v-372h-20v59q-39 -71 -118 -71q-51 0 -81 31t-30 94v18q0 68 37.5 106t103.5 38h88v96q0 123 -94 123q-40 0 -63.5 -22.5 t-34.5 -71.5z" />
<glyph unicode="b" horiz-adv-x="332" d="M74 403v-306q12 -46 39 -68.5t62 -22.5q48 0 72.5 37.5t24.5 98.5v216q0 61 -24.5 98.5t-72.5 37.5q-35 0 -62 -22.5t-39 -68.5zM74 53v-53h-20v712h20v-265q30 65 101 65q56 0 86.5 -41.5t30.5 -109.5v-222q0 -68 -30.5 -109.5t-86.5 -41.5q-71 0 -101 65z" />
<glyph unicode="c" horiz-adv-x="324" d="M40 139v222q0 70 34 110.5t90 40.5t90 -40.5t34 -110.5v-6l-20 -1v4q0 64 -29 100t-75 36t-75 -36t-29 -100v-216q0 -64 29 -100t75 -36t75 36t29 100v4l20 -1v-6q0 -70 -34 -110.5t-90 -40.5t-90 40.5t-34 110.5z" />
<glyph unicode="d" horiz-adv-x="332" d="M258 97v306q-12 46 -39 68.5t-62 22.5q-48 0 -72.5 -37.5t-24.5 -98.5v-216q0 -61 24.5 -98.5t72.5 -37.5q35 0 62 22.5t39 68.5zM258 0v53q-30 -65 -101 -65q-56 0 -86.5 41.5t-30.5 109.5v222q0 68 30.5 109.5t86.5 41.5q71 0 101 -65v265h20v-712h-20z" />
<glyph unicode="e" d="M264 129l20 -2q-5 -67 -37.5 -103t-83.5 -36q-56 0 -89.5 39.5t-33.5 111.5v222q0 70 34 110.5t90 40.5t90 -40.5t34 -110.5v-117h-228v-102q0 -66 28.5 -101t74.5 -35q40 0 68 31t33 92zM268 262v96q0 64 -29 100t-75 36t-75 -36t-29 -100v-96h208z" />
<glyph unicode="f" horiz-adv-x="200" d="M82 500v109q0 55 18.5 79t60.5 24h19v-18h-21q-30 0 -43.5 -19t-13.5 -66v-109h78v-18h-78v-482h-20v482h-57v18h57z" />
<glyph unicode="g" horiz-adv-x="332" d="M258 -84v137q-30 -65 -101 -65q-56 0 -86.5 41.5t-30.5 109.5v222q0 68 30.5 109.5t86.5 41.5q71 0 101 -65v53h20v-585q0 -147 -112 -147q-97 0 -112 115l20 2q7 -50 31.5 -74.5t60.5 -24.5q92 0 92 130zM258 97v306q-12 46 -39 68.5t-62 22.5q-48 0 -72.5 -37.5 t-24.5 -98.5v-216q0 -61 24.5 -98.5t72.5 -37.5q35 0 62 22.5t39 68.5z" />
<glyph unicode="h" horiz-adv-x="343" d="M272 0v364q0 63 -25.5 96.5t-71.5 33.5q-36 0 -62 -27t-39 -79v-388h-20v712h20v-274q14 35 41 54.5t61 19.5q54 0 85 -38t31 -107v-367h-20z" />
<glyph unicode="i" horiz-adv-x="146" d="M63 0v500h20v-500h-20zM63 635v77h20v-77h-20z" />
<glyph unicode="j" horiz-adv-x="136" d="M53 635v77h20v-77h-20zM53 -109v609h20v-609q0 -55 -18.5 -79t-60.5 -24h-11v18h13q30 0 43.5 19t13.5 66z" />
<glyph unicode="k" horiz-adv-x="316" d="M178 265l-104 -100v-165h-20v712h20v-521l86 83q51 48 71.5 97.5t20.5 116.5v12h20v-12q0 -126 -79 -208l111 -280h-21z" />
<glyph unicode="l" horiz-adv-x="172" d="M59 103v609h20v-609q0 -47 13.5 -66t43.5 -19h14v-18h-12q-42 0 -60.5 24t-18.5 79z" />
<glyph unicode="m" horiz-adv-x="561" d="M272 0v364q0 63 -25.5 96.5t-71.5 33.5q-36 0 -62 -27t-39 -79v-388h-20v500h20v-62q14 35 41 54.5t61 19.5q81 0 106 -79q37 79 112 79q54 0 85 -38t31 -107v-367h-20v364q0 63 -25.5 96.5t-71.5 33.5q-72 0 -103 -93q2 -22 2 -34v-367h-20z" />
<glyph unicode="n" horiz-adv-x="343" d="M272 0v364q0 63 -25.5 96.5t-71.5 33.5q-36 0 -62 -27t-39 -79v-388h-20v500h20v-62q14 35 41 54.5t61 19.5q54 0 85 -38t31 -107v-367h-20z" />
<glyph unicode="o" d="M268 142v216q0 64 -29 100t-75 36t-75 -36t-29 -100v-216q0 -64 29 -100t75 -36t75 36t29 100zM288 361v-222q0 -70 -34 -110.5t-90 -40.5t-90 40.5t-34 110.5v222q0 70 34 110.5t90 40.5t90 -40.5t34 -110.5z" />
<glyph unicode="p" horiz-adv-x="332" d="M74 403v-306q12 -46 39 -68.5t62 -22.5q48 0 72.5 37.5t24.5 98.5v216q0 61 -24.5 98.5t-72.5 37.5q-35 0 -62 -22.5t-39 -68.5zM74 500v-53q30 65 101 65q56 0 86.5 -41.5t30.5 -109.5v-222q0 -68 -30.5 -109.5t-86.5 -41.5q-71 0 -101 65v-271h-20v718h20z" />
<glyph unicode="q" horiz-adv-x="332" d="M258 97v306q-12 46 -39 68.5t-62 22.5q-48 0 -72.5 -37.5t-24.5 -98.5v-216q0 -61 24.5 -98.5t72.5 -37.5q35 0 62 22.5t39 68.5zM258 447v53h20v-718h-20v271q-30 -65 -101 -65q-56 0 -86.5 41.5t-30.5 109.5v222q0 68 30.5 109.5t86.5 41.5q71 0 101 -65z" />
<glyph unicode="r" horiz-adv-x="225" d="M74 394v-394h-20v500h20v-69q33 76 106 76q20 0 33 -6v-19q-14 7 -33 7q-71 0 -106 -95z" />
<glyph unicode="s" horiz-adv-x="298" d="M66 125v-20q0 -46 23.5 -72.5t64.5 -26.5t64.5 26.5t23.5 72.5v16q0 57 -17 83t-63 41l-31 10q-49 16 -69 47t-20 94v4q0 52 29 82t76 30t76 -30t29 -82v-13l-20 -1v14q0 44 -23.5 69t-61.5 25t-61.5 -25t-23.5 -69v-6q0 -57 17 -82.5t63 -40.5l31 -10q49 -16 69 -47.5 t20 -94.5v-14q0 -52 -28 -84.5t-81 -32.5q-52 0 -79.5 32.5t-27.5 84.5v19z" />
<glyph unicode="t" horiz-adv-x="213" d="M75 103v379h-57v18h57v142h20v-142h89v-18h-89v-379q0 -47 13.5 -66t43.5 -19h34v-18h-32q-42 0 -60.5 24t-18.5 79z" />
<glyph unicode="u" horiz-adv-x="343" d="M71 500v-364q0 -63 25.5 -96.5t71.5 -33.5q36 0 62 27t39 79v388h20v-500h-20v62q-14 -35 -41 -54.5t-61 -19.5q-54 0 -85 38t-31 107v367h20z" />
<glyph unicode="v" horiz-adv-x="302" d="M161 0h-20l-126 500h21l115 -454l115 454h21z" />
<glyph unicode="w" horiz-adv-x="542" d="M271 460l-112 -460h-20l-123 500h21l112 -454l112 454h20l112 -454l112 454h21l-123 -500h-20z" />
<glyph unicode="x" horiz-adv-x="286" d="M130 259l-109 241h21l101 -222l101 222h21l-110 -241l119 -259h-21l-110 241l-110 -241h-21z" />
<glyph unicode="y" horiz-adv-x="302" d="M104 -143l36 143l-125 500h21l114 -458l116 458h21l-162 -643q-11 -43 -22.5 -55.5t-39.5 -12.5h-7v18h9q16 0 23.5 9.5t15.5 40.5z" />
<glyph unicode="z" horiz-adv-x="300" d="M260 500v-17l-207 -465h215v-18h-236v17l207 465h-198v18h219z" />
<glyph unicode="{" horiz-adv-x="219" d="M36 336v18q53 0 53 64v270q0 47 24 71t61 24h9v-18h-9q-28 0 -46.5 -19.5t-18.5 -60.5v-264q0 -63 -40 -76q40 -13 40 -76v-264q0 -41 18.5 -60.5t46.5 -19.5h9v-18h-9q-37 0 -61 24t-24 71v270q0 64 -53 64z" />
<glyph unicode="|" horiz-adv-x="200" d="M90 -93v876h20v-876h-20z" />
<glyph unicode="}" horiz-adv-x="219" d="M183 354v-18q-53 0 -53 -64v-270q0 -47 -24 -71t-61 -24h-9v18h9q28 0 46.5 19.5t18.5 60.5v264q0 63 40 76q-40 13 -40 76v264q0 41 -18.5 60.5t-46.5 19.5h-9v18h9q37 0 61 -24t24 -71v-270q0 -64 53 -64z" />
<glyph unicode="~" horiz-adv-x="384" d="M275 292q26 0 42.5 21t18.5 58l20 -1q-1 -45 -23.5 -70.5t-57.5 -25.5q-25 0 -48.5 13.5t-39.5 29.5t-37 29.5t-41 13.5q-26 0 -42.5 -21t-18.5 -58l-20 1q1 45 23.5 70.5t57.5 25.5q25 0 48.5 -13.5t39.5 -29.5t37 -29.5t41 -13.5z" />
<glyph unicode="&#xa1;" horiz-adv-x="162" d="M91 331v-531h-20v531h20zM71 435v65h20v-65h-20z" />
<glyph unicode="&#xa2;" horiz-adv-x="324" d="M152 -89v78q-51 5 -81.5 44.5t-30.5 105.5v222q0 66 30.5 105.5t81.5 44.5v78h20v-78q51 -3 82.5 -40.5t33.5 -101.5l-20 -1q-2 57 -28.5 90t-67.5 36v-488q41 3 67.5 36t28.5 90l20 -1q-2 -64 -33.5 -102t-82.5 -41v-77h-20zM60 142q0 -60 25.5 -95t66.5 -40v486 q-41 -5 -66.5 -40t-25.5 -95v-216z" />
<glyph unicode="&#xa3;" horiz-adv-x="386" d="M40 335h46v214q0 80 32 121.5t93 41.5t93 -41.5t32 -121.5v-45l-20 -1v45q0 146 -105 146t-105 -146v-213h146v-18h-146v-149q0 -104 -32 -150h276v-18h-302v13q38 50 38 138v166h-46v18z" />
<glyph unicode="&#xa4;" horiz-adv-x="516" d="M258 499q62 0 112 -40l78 79l15 -14l-78 -78q48 -50 48 -120t-48 -120l78 -78l-15 -14l-78 78q-48 -39 -112 -39q-65 0 -113 39l-77 -78l-15 14l78 78q-48 48 -48 120t48 120l-78 78l15 14l77 -79q50 40 113 40zM258 171q63 0 109 44t46 111t-46 111t-109 44t-109 -44 t-46 -111t46 -111t109 -44z" />
<glyph unicode="&#xa5;" horiz-adv-x="326" d="M64 329v18h82l-133 353h20l130 -343l130 343h20l-134 -353h83v-18h-89v-67h89v-18h-89v-244h-20v244h-89v18h89v67h-89z" />
<glyph unicode="&#xa6;" horiz-adv-x="200" d="M110 395h-20v388h20v-388zM90 295h20v-388h-20v388z" />
<glyph unicode="&#xa7;" horiz-adv-x="330" d="M276 -4v-36q0 -54 -27 -82t-76 -28t-76 28t-27 82v10l20 1v-11q0 -92 83 -92t83 92v38q0 55 -15.5 80t-57.5 40l-39 14q-58 21 -80.5 50.5t-22.5 90.5v30q0 52 16.5 80t64.5 50q-37 17 -52.5 47t-15.5 86v36q0 54 27 82t76 28t76 -28t27 -82v-10l-20 -1v11q0 92 -83 92 t-83 -92v-38q0 -54 16 -79.5t57 -40.5l39 -14q58 -21 80.5 -50.5t22.5 -90.5v-30q0 -52 -16.5 -80.5t-64.5 -50.5q37 -17 52.5 -47t15.5 -85zM61 303v-32q0 -56 20 -80t74 -43l29 -11q51 21 68 45.5t17 76.5v32q0 56 -20 80t-74 43l-29 10q-51 -21 -68 -45.5t-17 -75.5z" />
<glyph unicode="&#xa8;" horiz-adv-x="230" d="M56 696v-93h-20v93h20zM194 696v-93h-20v93h20z" />
<glyph unicode="&#xa9;" horiz-adv-x="494" d="M433 268v164q0 262 -186 262t-186 -262v-164q0 -262 186 -262t186 262zM454 433v-166q0 -279 -207 -279t-207 279v166q0 279 207 279t207 -279zM162 252v196q0 58 23 88.5t64 30.5t64 -30.5t23 -88.5v-23l-20 -1v22q0 103 -67 103t-67 -103v-192q0 -103 67 -103t67 103 v22l20 -1v-23q0 -58 -23 -88.5t-64 -30.5t-64 30.5t-23 88.5z" />
<glyph unicode="&#xaa;" horiz-adv-x="264" d="M120 342q25 0 47 18t32 48v104h-55q-44 0 -66 -21t-22 -58v-18q0 -35 17 -54t47 -19zM132 708q41 0 64 -24.5t23 -73.5v-277h-20v42q-25 -51 -79 -51q-39 0 -61.5 24.5t-22.5 66.5v18q0 46 29 71.5t77 25.5h57v79q0 81 -67 81t-67 -81v-14l-20 2v13q0 49 23 73.5t64 24.5 z" />
<glyph unicode="&#xab;" horiz-adv-x="357" d="M189 424l-139 -112l139 -112v-20l-153 125v14l153 125v-20zM321 424l-139 -112l139 -112v-20l-153 125v14l153 125v-20z" />
<glyph unicode="&#xac;" horiz-adv-x="384" d="M36 317v18h302v-150h-20v132h-282z" />
<glyph unicode="&#xad;" horiz-adv-x="243" d="M41 317v18h161v-18h-161z" />
<glyph unicode="&#xae;" horiz-adv-x="494" d="M454 433v-166q0 -279 -207 -279t-207 279v166q0 279 207 279t207 -279zM433 268v164q0 262 -186 262t-186 -262v-164q0 -262 186 -262t186 262zM225 329h-35v-188h-20v418h55q58 0 87.5 -26.5t29.5 -88.5q0 -82 -54 -105l67 -197h-21l-64 191q-19 -4 -45 -4zM190 347h34 q51 0 74.5 21t23.5 76t-23.5 76t-74.5 21h-34v-194z" />
<glyph unicode="&#xaf;" horiz-adv-x="230" d="M33 639v18h164v-18h-164z" />
<glyph unicode="&#xb0;" horiz-adv-x="268" d="M230 610q0 -41 -26.5 -69.5t-69.5 -28.5t-69.5 28.5t-26.5 69.5t26.5 69.5t69.5 28.5t69.5 -28.5t26.5 -69.5zM210 610q0 35 -21.5 57.5t-54.5 22.5t-54.5 -22.5t-21.5 -57.5t21.5 -57.5t54.5 -22.5t54.5 22.5t21.5 57.5z" />
<glyph unicode="&#xb1;" horiz-adv-x="384" d="M41 278v18h141v152h20v-152h141v-18h-141v-152h-20v152h-141zM41 0v18h302v-18h-302z" />
<glyph unicode="&#xb2;" horiz-adv-x="254" d="M201 572v25q0 50 -22 71.5t-54 21.5t-54 -21.5t-22 -71.5v-40l-20 1v40q0 56 28 83t68 27t68 -27t28 -83v-26q0 -60 -32 -112l-129 -205h167v-18h-192v14l136 217q30 49 30 104z" />
<glyph unicode="&#xb3;" horiz-adv-x="254" d="M127 229q-95 0 -95 140v13l20 1v-12q0 -68 19 -96t56 -28t56 28t19 96v26q0 96 -64 96q-22 0 -42 -15l-14 10l105 194h-146v18h169v-15l-99 -183q13 8 30 8q39 0 60 -28.5t21 -81.5v-31q0 -140 -95 -140z" />
<glyph unicode="&#xb4;" horiz-adv-x="230" d="M147 730l-75 -161h-20l75 161h20z" />
<glyph unicode="&#xb5;" horiz-adv-x="346" d="M74 500v-364q0 -63 25.5 -96.5t71.5 -33.5q36 0 62 27t39 79v388h20v-500h-20v62q-14 -35 -41 -54.5t-61 -19.5q-71 0 -96 61v-267h-20v718h20z" />
<glyph unicode="&#xb6;" horiz-adv-x="360" d="M199 267h-15q-69 0 -104 46t-35 147v47q0 101 35 147t104 46h86v-831h-20v813h-31v-813h-20v398z" />
<glyph unicode="&#xb7;" horiz-adv-x="174" d="M97 359v-65h-20v65h20z" />
<glyph unicode="&#xb8;" horiz-adv-x="230" d="M39 -214l13 16q24 -22 56 -22q30 0 46.5 15t16.5 43v4q0 27 -19 47.5t-57 29.5l-6 7l22 74h19l-20 -68q39 -10 60 -34.5t21 -53.5v-7q0 -33 -22 -54t-60 -21q-43 0 -70 24z" />
<glyph unicode="&#xb9;" horiz-adv-x="254" d="M220 237h-166v18h73v425l-73 -34v19l73 35h20v-445h73v-18z" />
<glyph unicode="&#xba;" horiz-adv-x="264" d="M132 324q-45 0 -69.5 31.5t-24.5 92.5v136q0 61 24.5 92.5t69.5 31.5t69.5 -31.5t24.5 -92.5v-136q0 -61 -24.5 -92.5t-69.5 -31.5zM132 342q74 0 74 110v128q0 110 -74 110t-74 -110v-128q0 -110 74 -110z" />
<glyph unicode="&#xbb;" horiz-adv-x="357" d="M307 312l-139 112v20l153 -125v-14l-153 -125v20zM175 312l-139 112v20l153 -125v-14l-153 -125v20z" />
<glyph unicode="&#xbc;" horiz-adv-x="617" d="M598 113v18h-37v332h-29l-150 -336v-14h159v-113h20v113h37zM541 131h-137l137 307v-307zM438 700l-240 -700h-19l240 700h19zM220 237h-166v18h73v425l-73 -34v19l73 35h20v-445h73v-18z" />
<glyph unicode="&#xbd;" horiz-adv-x="617" d="M564 335v25q0 50 -22 71.5t-54 21.5t-54 -21.5t-22 -71.5v-40l-20 1v40q0 56 28 83t68 27t68 -27t28 -83v-26q0 -60 -32 -112l-129 -205h167v-18h-192v14l136 217q30 49 30 104zM438 700l-240 -700h-19l240 700h19zM220 237h-166v18h73v425l-73 -34v19l73 35h20v-445h73 v-18z" />
<glyph unicode="&#xbe;" horiz-adv-x="617" d="M438 700l-240 -700h-19l240 700h19zM598 113v18h-37v332h-29l-150 -336v-14h159v-113h20v113h37zM541 131h-137l137 307v-307zM127 229q-95 0 -95 140v13l20 1v-12q0 -68 19 -96t56 -28t56 28t19 96v26q0 96 -64 96q-22 0 -42 -15l-14 10l105 194h-146v18h169v-15 l-99 -183q13 8 30 8q39 0 60 -28.5t21 -81.5v-31q0 -140 -95 -140z" />
<glyph unicode="&#xbf;" horiz-adv-x="329" d="M163 435v65h20v-65h-20zM173 -212q-119 0 -119 160v39q0 42 14.5 76.5t52.5 81.5q27 33 34.5 59t7.5 83v32h20v-32q0 -64 -8 -89t-39 -65q-34 -42 -48 -74.5t-14 -71.5v-39q0 -142 99 -142t99 142v40l20 -1v-39q0 -160 -119 -160z" />
<glyph unicode="&#xc0;" horiz-adv-x="358" d="M328 0l-45 197h-209l-44 -197h-20l159 700h20l159 -700h-20zM179 660l-101 -445h201zM178 763l-75 161h20l75 -161h-20z" />
<glyph unicode="&#xc1;" horiz-adv-x="358" d="M328 0l-45 197h-209l-44 -197h-20l159 700h20l159 -700h-20zM179 660l-101 -445h201zM255 924l-75 -161h-20l75 161h20z" />
<glyph unicode="&#xc2;" horiz-adv-x="358" d="M328 0l-45 197h-209l-44 -197h-20l159 700h20l159 -700h-20zM179 660l-101 -445h201zM170 924h18l92 -161h-20l-81 141l-81 -141h-20z" />
<glyph unicode="&#xc3;" horiz-adv-x="358" d="M328 0l-45 197h-209l-44 -197h-20l159 700h20l159 -700h-20zM179 660l-101 -445h201zM186 849q27 -28 45 -28q27 0 33 56l20 -2q-7 -72 -54 -72q-26 0 -57 32q-27 28 -45 28q-27 0 -33 -56l-20 2q7 72 54 72q26 0 57 -32z" />
<glyph unicode="&#xc4;" horiz-adv-x="358" d="M328 0l-45 197h-209l-44 -197h-20l159 700h20l159 -700h-20zM179 660l-101 -445h201zM120 890v-93h-20v93h20zM258 890v-93h-20v93h20z" />
<glyph unicode="&#xc5;" horiz-adv-x="358" d="M328 0l-45 197h-209l-44 -197h-20l159 700h20l159 -700h-20zM179 660l-101 -445h201zM120 843q0 -27 17.5 -44t41.5 -17t41.5 17t17.5 44t-17.5 44t-41.5 17t-41.5 -17t-17.5 -44zM100 843q0 35 23 57t56 22t56 -22t23 -57t-23 -57t-56 -22t-56 22t-23 57z" />
<glyph unicode="&#xc6;" horiz-adv-x="537" d="M260 0v197h-173l-70 -197h-22l250 700h260v-18h-225v-312h193v-18h-193v-334h225v-18h-245zM94 215h166v465z" />
<glyph unicode="&#xc7;" horiz-adv-x="386" d="M45 188v324q0 100 40 150t111 50t111 -50t40 -150v-9l-20 -1v6q0 95 -35 140.5t-96 45.5t-96 -45.5t-35 -140.5v-316q0 -95 35 -140.5t96 -45.5t96 45.5t35 140.5v6l20 -1v-9q0 -93 -35 -143t-98 -56l-16 -57q39 -10 60 -34.5t21 -53.5v-7q0 -33 -22 -54t-60 -21 q-43 0 -70 24l13 16q24 -22 56 -22q30 0 46.5 15t16.5 43v4q0 27 -19 47.5t-57 29.5l-6 7l18 62q-70 0 -110 50t-40 150z" />
<glyph unicode="&#xc8;" horiz-adv-x="345" d="M63 0v700h250v-18h-230v-311h198v-18h-198v-335h230v-18h-250zM197 763l-75 161h20l75 -161h-20z" />
<glyph unicode="&#xc9;" horiz-adv-x="345" d="M63 0v700h250v-18h-230v-311h198v-18h-198v-335h230v-18h-250zM243 924l-75 -161h-20l75 161h20z" />
<glyph unicode="&#xca;" horiz-adv-x="345" d="M63 0v700h250v-18h-230v-311h198v-18h-198v-335h230v-18h-250zM175 924h18l92 -161h-20l-81 141l-81 -141h-20z" />
<glyph unicode="&#xcb;" horiz-adv-x="345" d="M63 0v700h250v-18h-230v-311h198v-18h-198v-335h230v-18h-250zM125 890v-93h-20v93h20zM263 890v-93h-20v93h20z" />
<glyph unicode="&#xcc;" horiz-adv-x="146" d="M83 700v-700h-20v700h20zM81 763l-75 161h20l75 -161h-20z" />
<glyph unicode="&#xcd;" horiz-adv-x="146" d="M83 700v-700h-20v700h20zM141 924l-75 -161h-20l75 161h20z" />
<glyph unicode="&#xce;" horiz-adv-x="146" d="M83 700v-700h-20v700h20zM64 924h18l92 -161h-20l-81 141l-81 -141h-20z" />
<glyph unicode="&#xcf;" horiz-adv-x="146" d="M83 700v-700h-20v700h20zM14 890v-93h-20v93h20zM152 890v-93h-20v93h20z" />
<glyph unicode="&#xd0;" horiz-adv-x="396" d="M16 341v18h47v341h137q71 0 111 -50t40 -150v-301q0 -100 -40 -149.5t-111 -49.5h-137v341h-47zM83 18h117q131 0 131 185v293q0 95 -35 140.5t-96 45.5h-117v-323h98v-18h-98v-323z" />
<glyph unicode="&#xd1;" horiz-adv-x="434" d="M351 0l-268 653v-653h-20v700h20l268 -653v653h20v-700h-20zM234 849q27 -28 45 -28q27 0 33 56l20 -2q-7 -72 -54 -72q-26 0 -57 32q-27 28 -45 28q-27 0 -33 -56l-20 2q7 72 54 72q26 0 57 -32z" />
<glyph unicode="&#xd2;" horiz-adv-x="392" d="M45 188v324q0 100 40 150t111 50t111 -50t40 -150v-324q0 -100 -40 -150t-111 -50t-111 50t-40 150zM327 192v316q0 95 -35 140.5t-96 45.5t-96 -45.5t-35 -140.5v-316q0 -95 35 -140.5t96 -45.5t96 45.5t35 140.5zM213 763l-75 161h20l75 -161h-20z" />
<glyph unicode="&#xd3;" horiz-adv-x="392" d="M45 188v324q0 100 40 150t111 50t111 -50t40 -150v-324q0 -100 -40 -150t-111 -50t-111 50t-40 150zM327 192v316q0 95 -35 140.5t-96 45.5t-96 -45.5t-35 -140.5v-316q0 -95 35 -140.5t96 -45.5t96 45.5t35 140.5zM254 924l-75 -161h-20l75 161h20z" />
<glyph unicode="&#xd4;" horiz-adv-x="392" d="M45 188v324q0 100 40 150t111 50t111 -50t40 -150v-324q0 -100 -40 -150t-111 -50t-111 50t-40 150zM327 192v316q0 95 -35 140.5t-96 45.5t-96 -45.5t-35 -140.5v-316q0 -95 35 -140.5t96 -45.5t96 45.5t35 140.5zM187 924h18l92 -161h-20l-81 141l-81 -141h-20z" />
<glyph unicode="&#xd5;" horiz-adv-x="392" d="M45 188v324q0 100 40 150t111 50t111 -50t40 -150v-324q0 -100 -40 -150t-111 -50t-111 50t-40 150zM327 192v316q0 95 -35 140.5t-96 45.5t-96 -45.5t-35 -140.5v-316q0 -95 35 -140.5t96 -45.5t96 45.5t35 140.5zM203 849q27 -28 45 -28q27 0 33 56l20 -2 q-7 -72 -54 -72q-26 0 -57 32q-27 28 -45 28q-27 0 -33 -56l-20 2q7 72 54 72q26 0 57 -32z" />
<glyph unicode="&#xd6;" horiz-adv-x="392" d="M45 188v324q0 100 40 150t111 50t111 -50t40 -150v-324q0 -100 -40 -150t-111 -50t-111 50t-40 150zM327 192v316q0 95 -35 140.5t-96 45.5t-96 -45.5t-35 -140.5v-316q0 -95 35 -140.5t96 -45.5t96 45.5t35 140.5zM137 890v-93h-20v93h20zM275 890v-93h-20v93h20z" />
<glyph unicode="&#xd7;" horiz-adv-x="384" d="M57 447l14 14l121 -121l121 121l14 -14l-121 -121l121 -121l-14 -14l-121 121l-121 -121l-14 14l121 121z" />
<glyph unicode="&#xd8;" horiz-adv-x="392" d="M45 188v324q0 100 40 150t111 50q66 0 105 -44l24 64h20l-30 -82q32 -53 32 -138v-324q0 -100 -40 -150t-111 -50q-68 0 -106 44l-23 -65h-20l30 83q-32 49 -32 138zM65 192q0 -73 21 -117l208 571q-33 48 -98 48q-61 0 -96 -45.5t-35 -140.5v-316zM327 192v316 q0 70 -21 117l-208 -572q33 -47 98 -47q61 0 96 45.5t35 140.5z" />
<glyph unicode="&#xd9;" horiz-adv-x="404" d="M329 192v508h20v-512q0 -100 -39.5 -150t-107.5 -50t-107.5 50t-39.5 150v512h20v-508q0 -95 34 -140.5t93 -45.5t93 45.5t34 140.5zM209 763l-75 161h20l75 -161h-20z" />
<glyph unicode="&#xda;" horiz-adv-x="404" d="M329 192v508h20v-512q0 -100 -39.5 -150t-107.5 -50t-107.5 50t-39.5 150v512h20v-508q0 -95 34 -140.5t93 -45.5t93 45.5t34 140.5zM270 924l-75 -161h-20l75 161h20z" />
<glyph unicode="&#xdb;" horiz-adv-x="404" d="M329 192v508h20v-512q0 -100 -39.5 -150t-107.5 -50t-107.5 50t-39.5 150v512h20v-508q0 -95 34 -140.5t93 -45.5t93 45.5t34 140.5zM193 924h18l92 -161h-20l-81 141l-81 -141h-20z" />
<glyph unicode="&#xdc;" horiz-adv-x="404" d="M329 192v508h20v-512q0 -100 -39.5 -150t-107.5 -50t-107.5 50t-39.5 150v512h20v-508q0 -95 34 -140.5t93 -45.5t93 45.5t34 140.5zM143 890v-93h-20v93h20zM281 890v-93h-20v93h20z" />
<glyph unicode="&#xdd;" horiz-adv-x="326" d="M173 0h-20v330l-140 370h20l130 -343l130 343h20l-140 -370v-330zM234 924l-75 -161h-20l75 161h20z" />
<glyph unicode="&#xde;" horiz-adv-x="372" d="M170 151h-87v-151h-20v700h20v-151h87q84 0 128 -50.5t44 -148.5t-44 -148.5t-128 -50.5zM83 169h84q155 0 155 181t-155 181h-84v-362z" />
<glyph unicode="&#xdf;" horiz-adv-x="362" d="M303 550v-33q0 -65 -18.5 -99t-64.5 -57q67 -27 93 -65t26 -102v-44q0 -84 -30 -123t-96 -39q-44 0 -79 27l10 16q32 -25 69 -25q55 0 80.5 34.5t25.5 109.5v41q0 64 -26 99t-97 59l-3 18q51 22 70.5 56t19.5 94v31q0 146 -102 146t-102 -146v-548h-20v550q0 162 122 162 t122 -162z" />
<glyph unicode="&#xe0;" horiz-adv-x="336" d="M150 5q37 0 67 23.5t48 63.5v165h-93q-53 0 -84.5 -34t-31.5 -92v-18q0 -54 25 -81t69 -27zM73 400l-20 1q23 111 118 111q52 0 83 -35t31 -105v-372h-20v59q-39 -71 -118 -71q-51 0 -81 31t-30 94v18q0 68 37.5 106t103.5 38h88v96q0 123 -94 123q-40 0 -63.5 -22.5 t-34.5 -71.5zM184 564l-75 161h20l75 -161h-20z" />
<glyph unicode="&#xe1;" horiz-adv-x="336" d="M150 5q37 0 67 23.5t48 63.5v165h-93q-53 0 -84.5 -34t-31.5 -92v-18q0 -54 25 -81t69 -27zM73 400l-20 1q23 111 118 111q52 0 83 -35t31 -105v-372h-20v59q-39 -71 -118 -71q-51 0 -81 31t-30 94v18q0 68 37.5 106t103.5 38h88v96q0 123 -94 123q-40 0 -63.5 -22.5 t-34.5 -71.5zM230 725l-75 -161h-20l75 161h20z" />
<glyph unicode="&#xe2;" horiz-adv-x="336" d="M150 5q37 0 67 23.5t48 63.5v165h-93q-53 0 -84.5 -34t-31.5 -92v-18q0 -54 25 -81t69 -27zM73 400l-20 1q23 111 118 111q52 0 83 -35t31 -105v-372h-20v59q-39 -71 -118 -71q-51 0 -81 31t-30 94v18q0 68 37.5 106t103.5 38h88v96q0 123 -94 123q-40 0 -63.5 -22.5 t-34.5 -71.5zM164 725h18l92 -161h-20l-81 141l-81 -141h-20z" />
<glyph unicode="&#xe3;" horiz-adv-x="336" d="M150 5q37 0 67 23.5t48 63.5v165h-93q-53 0 -84.5 -34t-31.5 -92v-18q0 -54 25 -81t69 -27zM73 400l-20 1q23 111 118 111q52 0 83 -35t31 -105v-372h-20v59q-39 -71 -118 -71q-51 0 -81 31t-30 94v18q0 68 37.5 106t103.5 38h88v96q0 123 -94 123q-40 0 -63.5 -22.5 t-34.5 -71.5zM180 650q27 -28 45 -28q27 0 33 56l20 -2q-7 -72 -54 -72q-26 0 -57 32q-27 28 -45 28q-27 0 -33 -56l-20 2q7 72 54 72q26 0 57 -32z" />
<glyph unicode="&#xe4;" horiz-adv-x="336" d="M150 5q37 0 67 23.5t48 63.5v165h-93q-53 0 -84.5 -34t-31.5 -92v-18q0 -54 25 -81t69 -27zM73 400l-20 1q23 111 118 111q52 0 83 -35t31 -105v-372h-20v59q-39 -71 -118 -71q-51 0 -81 31t-30 94v18q0 68 37.5 106t103.5 38h88v96q0 123 -94 123q-40 0 -63.5 -22.5 t-34.5 -71.5zM114 691v-93h-20v93h20zM252 691v-93h-20v93h20z" />
<glyph unicode="&#xe5;" horiz-adv-x="336" d="M150 5q37 0 67 23.5t48 63.5v165h-93q-53 0 -84.5 -34t-31.5 -92v-18q0 -54 25 -81t69 -27zM73 400l-20 1q23 111 118 111q52 0 83 -35t31 -105v-372h-20v59q-39 -71 -118 -71q-51 0 -81 31t-30 94v18q0 68 37.5 106t103.5 38h88v96q0 123 -94 123q-40 0 -63.5 -22.5 t-34.5 -71.5zM114 644q0 -27 17.5 -44t41.5 -17t41.5 17t17.5 44t-17.5 44t-41.5 17t-41.5 -17t-17.5 -44zM94 644q0 35 23 57t56 22t56 -22t23 -57t-23 -57t-56 -22t-56 22t-23 57z" />
<glyph unicode="&#xe6;" horiz-adv-x="553" d="M56 131v-18q0 -54 25 -81t69 -27q80 0 117 98q-2 22 -2 36v118h-93q-53 0 -84.5 -34t-31.5 -92zM389 494q-46 0 -75 -36t-29 -100v-95h208v95q0 64 -29 100t-75 36zM36 113v18q0 68 37.5 106t103.5 38h88v96q0 123 -94 123q-81 0 -98 -102l-21 1q19 119 119 119 q39 0 68 -20.5t38 -61.5q26 82 112 82q56 0 90 -40.5t34 -110.5v-116h-228v-103q0 -66 28.5 -101t74.5 -35q40 0 68 31t33 92l20 -2q-5 -67 -37.5 -103t-83.5 -36q-88 0 -114 86q-17 -38 -50 -62t-77 -24q-51 0 -81 31t-30 94z" />
<glyph unicode="&#xe7;" horiz-adv-x="321" d="M92 -214l13 16q24 -22 56 -22q30 0 46.5 15t16.5 43v4q0 27 -19 47.5t-57 29.5l-6 7l18 62q-54 2 -87 42t-33 109v222q0 70 34 110.5t90 40.5t90 -40.5t34 -110.5v-6l-20 -1v4q0 64 -29 100t-75 36t-75 -36t-29 -100v-216q0 -64 29 -100t75 -36t75 36t29 100v4l20 -1v-6 q0 -65 -29.5 -104.5t-78.5 -45.5l-17 -57q39 -10 60 -34.5t21 -53.5v-7q0 -33 -22 -54t-60 -21q-43 0 -70 24z" />
<glyph unicode="&#xe8;" d="M264 129l20 -2q-5 -67 -37.5 -103t-83.5 -36q-56 0 -89.5 39.5t-33.5 111.5v222q0 70 34 110.5t90 40.5t90 -40.5t34 -110.5v-117h-228v-102q0 -66 28.5 -101t74.5 -35q40 0 68 31t33 92zM268 262v96q0 64 -29 100t-75 36t-75 -36t-29 -100v-96h208zM177 564l-75 161h20 l75 -161h-20z" />
<glyph unicode="&#xe9;" d="M264 129l20 -2q-5 -67 -37.5 -103t-83.5 -36q-56 0 -89.5 39.5t-33.5 111.5v222q0 70 34 110.5t90 40.5t90 -40.5t34 -110.5v-117h-228v-102q0 -66 28.5 -101t74.5 -35q40 0 68 31t33 92zM268 262v96q0 64 -29 100t-75 36t-75 -36t-29 -100v-96h208zM221 725l-75 -161 h-20l75 161h20z" />
<glyph unicode="&#xea;" d="M264 129l20 -2q-5 -67 -37.5 -103t-83.5 -36q-56 0 -89.5 39.5t-33.5 111.5v222q0 70 34 110.5t90 40.5t90 -40.5t34 -110.5v-117h-228v-102q0 -66 28.5 -101t74.5 -35q40 0 68 31t33 92zM268 262v96q0 64 -29 100t-75 36t-75 -36t-29 -100v-96h208zM152 725h18l92 -161 h-20l-81 141l-81 -141h-20z" />
<glyph unicode="&#xeb;" d="M264 129l20 -2q-5 -67 -37.5 -103t-83.5 -36q-56 0 -89.5 39.5t-33.5 111.5v222q0 70 34 110.5t90 40.5t90 -40.5t34 -110.5v-117h-228v-102q0 -66 28.5 -101t74.5 -35q40 0 68 31t33 92zM268 262v96q0 64 -29 100t-75 36t-75 -36t-29 -100v-96h208zM102 691v-93h-20v93 h20zM240 691v-93h-20v93h20z" />
<glyph unicode="&#xec;" horiz-adv-x="146" d="M63 0v500h20v-500h-20zM81 564l-75 161h20l75 -161h-20z" />
<glyph unicode="&#xed;" horiz-adv-x="146" d="M63 0v500h20v-500h-20zM140 725l-75 -161h-20l75 161h20z" />
<glyph unicode="&#xee;" horiz-adv-x="146" d="M63 0v500h20v-500h-20zM64 725h18l92 -161h-20l-81 141l-81 -141h-20z" />
<glyph unicode="&#xef;" horiz-adv-x="146" d="M63 0v500h20v-500h-20zM14 691v-93h-20v93h20zM152 691v-93h-20v93h20z" />
<glyph unicode="&#xf0;" d="M207 628l60 19l3 -18l-57 -18l64 -181q11 -31 11 -69v-222q0 -70 -34 -110.5t-90 -40.5t-90 40.5t-34 110.5v222q0 70 34 110.5t90 40.5q49 0 74 -28l-43 121l-82 -25l-3 18l79 24l-32 90h21zM268 142v216q0 64 -29 100t-75 36t-75 -36t-29 -100v-216q0 -64 29 -100 t75 -36t75 36t29 100z" />
<glyph unicode="&#xf1;" horiz-adv-x="343" d="M272 0v364q0 63 -25.5 96.5t-71.5 33.5q-36 0 -62 -27t-39 -79v-388h-20v500h20v-62q14 35 41 54.5t61 19.5q54 0 85 -38t31 -107v-367h-20zM178 650q27 -28 45 -28q27 0 33 56l20 -2q-7 -72 -54 -72q-26 0 -57 32q-27 28 -45 28q-27 0 -33 -56l-20 2q7 72 54 72 q26 0 57 -32z" />
<glyph unicode="&#xf2;" d="M268 142v216q0 64 -29 100t-75 36t-75 -36t-29 -100v-216q0 -64 29 -100t75 -36t75 36t29 100zM288 361v-222q0 -70 -34 -110.5t-90 -40.5t-90 40.5t-34 110.5v222q0 70 34 110.5t90 40.5t90 -40.5t34 -110.5zM180 564l-75 161h20l75 -161h-20z" />
<glyph unicode="&#xf3;" d="M268 142v216q0 64 -29 100t-75 36t-75 -36t-29 -100v-216q0 -64 29 -100t75 -36t75 36t29 100zM288 361v-222q0 -70 -34 -110.5t-90 -40.5t-90 40.5t-34 110.5v222q0 70 34 110.5t90 40.5t90 -40.5t34 -110.5zM223 725l-75 -161h-20l75 161h20z" />
<glyph unicode="&#xf4;" d="M268 142v216q0 64 -29 100t-75 36t-75 -36t-29 -100v-216q0 -64 29 -100t75 -36t75 36t29 100zM288 361v-222q0 -70 -34 -110.5t-90 -40.5t-90 40.5t-34 110.5v222q0 70 34 110.5t90 40.5t90 -40.5t34 -110.5zM155 725h18l92 -161h-20l-81 141l-81 -141h-20z" />
<glyph unicode="&#xf5;" d="M268 142v216q0 64 -29 100t-75 36t-75 -36t-29 -100v-216q0 -64 29 -100t75 -36t75 36t29 100zM288 361v-222q0 -70 -34 -110.5t-90 -40.5t-90 40.5t-34 110.5v222q0 70 34 110.5t90 40.5t90 -40.5t34 -110.5zM171 650q27 -28 45 -28q27 0 33 56l20 -2q-7 -72 -54 -72 q-26 0 -57 32q-27 28 -45 28q-27 0 -33 -56l-20 2q7 72 54 72q26 0 57 -32z" />
<glyph unicode="&#xf6;" d="M268 358v-216q0 -64 -29 -100t-75 -36t-75 36t-29 100v216q0 64 29 100t75 36t75 -36t29 -100zM288 139v222q0 70 -34 110.5t-90 40.5t-90 -40.5t-34 -110.5v-222q0 -70 34 -110.5t90 -40.5t90 40.5t34 110.5zM105 691v-93h-20v93h20zM243 691v-93h-20v93h20z" />
<glyph unicode="&#xf7;" horiz-adv-x="384" d="M41 317v18h302v-18h-302zM202 220v-65h-20v65h20zM202 497v-65h-20v65h20z" />
<glyph unicode="&#xf8;" d="M71 -38h-20l23 66q-34 40 -34 111v222q0 70 34 110.5t90 40.5q43 0 74 -26l19 52h20l-24 -66q35 -41 35 -111v-222q0 -70 -34 -110.5t-90 -40.5q-44 0 -75 25zM268 142v216q0 53 -23 91l-149 -416q27 -27 68 -27q46 0 75 36t29 100zM164 494q-46 0 -75 -36t-29 -100v-216 q0 -56 22 -91l149 415q-28 28 -67 28z" />
<glyph unicode="&#xf9;" horiz-adv-x="343" d="M71 500v-364q0 -63 25.5 -96.5t71.5 -33.5q36 0 62 27t39 79v388h20v-500h-20v62q-14 -35 -41 -54.5t-61 -19.5q-54 0 -85 38t-31 107v367h20zM182 564l-75 161h20l75 -161h-20z" />
<glyph unicode="&#xfa;" horiz-adv-x="343" d="M71 500v-364q0 -63 25.5 -96.5t71.5 -33.5q36 0 62 27t39 79v388h20v-500h-20v62q-14 -35 -41 -54.5t-61 -19.5q-54 0 -85 38t-31 107v367h20zM233 725l-75 -161h-20l75 161h20z" />
<glyph unicode="&#xfb;" horiz-adv-x="343" d="M71 500v-364q0 -63 25.5 -96.5t71.5 -33.5q36 0 62 27t39 79v388h20v-500h-20v62q-14 -35 -41 -54.5t-61 -19.5q-54 0 -85 38t-31 107v367h20zM161 725h18l92 -161h-20l-81 141l-81 -141h-20z" />
<glyph unicode="&#xfc;" horiz-adv-x="343" d="M71 500v-364q0 -63 25.5 -96.5t71.5 -33.5q36 0 62 27t39 79v388h20v-500h-20v62q-14 -35 -41 -54.5t-61 -19.5q-54 0 -85 38t-31 107v367h20zM111 691v-93h-20v93h20zM249 691v-93h-20v93h20z" />
<glyph unicode="&#xfd;" horiz-adv-x="302" d="M104 -143l36 143l-125 500h21l114 -458l116 458h21l-162 -643q-11 -43 -22.5 -55.5t-39.5 -12.5h-7v18h9q16 0 23.5 9.5t15.5 40.5zM217 725l-75 -161h-20l75 161h20z" />
<glyph unicode="&#xfe;" horiz-adv-x="332" d="M74 403v-306q12 -46 39 -68.5t62 -22.5q48 0 72.5 37.5t24.5 98.5v216q0 61 -24.5 98.5t-72.5 37.5q-35 0 -62 -22.5t-39 -68.5zM74 53v-271h-20v930h20v-265q30 65 101 65q56 0 86.5 -41.5t30.5 -109.5v-222q0 -68 -30.5 -109.5t-86.5 -41.5q-71 0 -101 65z" />
<glyph unicode="&#xff;" horiz-adv-x="302" d="M104 -143l36 143l-125 500h21l114 -458l116 458h21l-162 -643q-11 -43 -22.5 -55.5t-39.5 -12.5h-7v18h9q16 0 23.5 9.5t15.5 40.5zM92 691v-93h-20v93h20zM230 691v-93h-20v93h20z" />
<glyph unicode="&#x152;" horiz-adv-x="580" d="M196 0q-71 0 -111 49.5t-40 149.5v301q0 100 40 150t111 50h352v-18h-225v-312h193v-18h-193v-334h225v-18h-352zM196 18h107v664h-107q-61 0 -96 -45.5t-35 -140.5v-293q0 -185 131 -185z" />
<glyph unicode="&#x153;" horiz-adv-x="556" d="M278 78q-10 -42 -41.5 -66t-72.5 -24q-56 0 -90 40.5t-34 110.5v222q0 70 34 110.5t90 40.5q41 0 72.5 -24t41.5 -66q10 42 41.5 66t72.5 24q56 0 90 -40.5t34 -110.5v-116h-228v-103q0 -66 28.5 -101t74.5 -35q40 0 68 31t33 92l20 -2q-5 -67 -37.5 -103t-83.5 -36 q-41 0 -72 24t-41 66zM496 263v95q0 64 -29 100t-75 36t-75 -36t-29 -100v-95h208zM268 142v216q0 64 -29 100t-75 36t-75 -36t-29 -100v-216q0 -64 29 -100t75 -36t75 36t29 100z" />
<glyph unicode="&#x178;" horiz-adv-x="326" d="M173 0h-20v330l-140 370h20l130 -343l130 343h20l-140 -370v-330zM104 890v-93h-20v93h20zM242 890v-93h-20v93h20z" />
<glyph unicode="&#x2c6;" horiz-adv-x="230" d="M106 730h18l92 -161h-20l-81 141l-81 -141h-20z" />
<glyph unicode="&#x2dc;" horiz-adv-x="230" d="M122 656q27 -28 45 -28q27 0 33 56l20 -2q-7 -72 -54 -72q-26 0 -57 32q-27 28 -45 28q-27 0 -33 -56l-20 2q7 72 54 72q26 0 57 -32z" />
<glyph unicode="&#x2000;" horiz-adv-x="462" />
<glyph unicode="&#x2001;" horiz-adv-x="924" />
<glyph unicode="&#x2002;" horiz-adv-x="462" />
<glyph unicode="&#x2003;" horiz-adv-x="924" />
<glyph unicode="&#x2004;" horiz-adv-x="308" />
<glyph unicode="&#x2005;" horiz-adv-x="231" />
<glyph unicode="&#x2006;" horiz-adv-x="154" />
<glyph unicode="&#x2007;" horiz-adv-x="154" />
<glyph unicode="&#x2008;" horiz-adv-x="115" />
<glyph unicode="&#x2009;" horiz-adv-x="184" />
<glyph unicode="&#x200a;" horiz-adv-x="51" />
<glyph unicode="&#x2010;" horiz-adv-x="243" d="M41 317v18h161v-18h-161z" />
<glyph unicode="&#x2011;" horiz-adv-x="243" d="M41 317v18h161v-18h-161z" />
<glyph unicode="&#x2012;" horiz-adv-x="243" d="M41 317v18h161v-18h-161z" />
<glyph unicode="&#x2013;" horiz-adv-x="350" d="M350 317h-350v18h350v-18z" />
<glyph unicode="&#x2014;" horiz-adv-x="700" d="M700 317h-700v18h700v-18z" />
<glyph unicode="&#x2018;" horiz-adv-x="174" d="M77 596v78q0 56 41 70v-23q-21 -10 -21 -47v-78h-20z" />
<glyph unicode="&#x2019;" horiz-adv-x="174" d="M97 744v-78q0 -56 -41 -70v23q21 10 21 47v78h20z" />
<glyph unicode="&#x201a;" horiz-adv-x="174" d="M97 65v-78q0 -56 -41 -70v23q21 10 21 47v78h20z" />
<glyph unicode="&#x201c;" horiz-adv-x="254" d="M77 596v78q0 56 41 70v-23q-21 -10 -21 -47v-78h-20zM157 596v78q0 56 41 70v-23q-21 -10 -21 -47v-78h-20z" />
<glyph unicode="&#x201d;" horiz-adv-x="254" d="M97 744v-78q0 -56 -41 -70v23q21 10 21 47v78h20zM177 744v-78q0 -56 -41 -70v23q21 10 21 47v78h20z" />
<glyph unicode="&#x201e;" horiz-adv-x="254" d="M97 65v-78q0 -56 -41 -70v23q21 10 21 47v78h20zM177 65v-78q0 -56 -41 -70v23q21 10 21 47v78h20z" />
<glyph unicode="&#x2022;" horiz-adv-x="272" d="M237 326q0 -42 -29.5 -71.5t-71.5 -29.5t-71.5 29.5t-29.5 71.5t29.5 71.5t71.5 29.5t71.5 -29.5t29.5 -71.5z" />
<glyph unicode="&#x2026;" horiz-adv-x="522" d="M97 65v-65h-20v65h20zM271 65v-65h-20v65h20zM445 65v-65h-20v65h20z" />
<glyph unicode="&#x202f;" horiz-adv-x="184" />
<glyph unicode="&#x2039;" horiz-adv-x="225" d="M189 424l-139 -112l139 -112v-20l-153 125v14l153 125v-20z" />
<glyph unicode="&#x203a;" horiz-adv-x="225" d="M175 312l-139 112v20l153 -125v-14l-153 -125v20z" />
<glyph unicode="&#x205f;" horiz-adv-x="231" />
<glyph unicode="&#x20ac;" horiz-adv-x="394" d="M229 385h-156v-71h146l-2 -18h-144v-104q0 -95 35 -140.5t96 -45.5t96 45.5t35 140.5v6l20 -1v-9q0 -100 -40 -150t-111 -50t-111 50t-40 150v108h-35v18h35v71h-35v18h35v109q0 100 40 150t111 50t111 -50t40 -150v-9l-20 -1v6q0 95 -35 140.5t-96 45.5t-96 -45.5 t-35 -140.5v-105h158z" />
<glyph unicode="&#x2122;" horiz-adv-x="384" d="M5 682v18h152v-18h-66v-316h-20v316h-66zM274 460h-14l-63 181v-275h-20v334h17l73 -205l73 205h17v-334h-20v275z" />
<glyph unicode="&#x25fc;" horiz-adv-x="500" d="M0 500h500v-500h-500v500z" />
</font>
</defs>
</svg>
