<svg xmlns="http://www.w3.org/2000/svg" xmlns:xlink="http://www.w3.org/1999/xlink" viewBox="0 0 1599.19 343"><defs><linearGradient id="linear-gradient" x1="1034.23" y1="-1317.13" x2="1089.16" y2="-1490.15" gradientTransform="matrix(1, 0, 0, -1, 0, -1274)" gradientUnits="userSpaceOnUse"><stop offset="0" stop-color="#bfdd99"/><stop offset="1" stop-color="#4bbd98"/></linearGradient><linearGradient id="linear-gradient-2" x1="962.43" y1="-1339.92" x2="1017.36" y2="-1512.94" xlink:href="#linear-gradient"/><linearGradient id="linear-gradient-3" x1="1056.11" y1="-1310.18" x2="1111.04" y2="-1483.2" xlink:href="#linear-gradient"/><linearGradient id="linear-gradient-4" x1="949.16" y1="-1344.14" x2="1004.09" y2="-1517.15" xlink:href="#linear-gradient"/></defs><title>tagline-logo</title><g id="Layer_2" data-name="Layer 2"><g id="Layer_1-2" data-name="Layer 1"><path d="M1383.49,72.19v7.1h-20v62.9h-7.9V79.3h-20V72.2Z" style="fill:#f2f2f2"/><path d="M1423.89,142.2v-29c0-10.4-3.1-15.5-11.6-15.5a14.89,14.89,0,0,0-13.3,9v35.5h-7.5V71h7.5V98.6c3.2-4.6,8.5-7.6,15.4-7.6,11,0,17,7.8,17,20.6v30.6Z" style="fill:#f2f2f2"/><path d="M1444.89,71h7.5v9.2h-7.5Zm0,21.2h7.5v50h-7.5Z" style="fill:#f2f2f2"/><path d="M1482.59,91c9.9,0,16.9,5.2,19.5,13.9l-7.7,1.3c-1.3-5.2-5.5-8.5-11.7-8.5s-9.7,3-9.7,7.4c0,4.6,3.5,7,9.9,8l4.9.8c11.3,1.8,15.4,6.8,15.4,14.7,0,8.7-6.8,14.8-18,14.8-10.6,0-18.2-5.3-21-15.1l7.6-1.4c2,6.6,7.2,9.8,13.4,9.8,6.6,0,10.5-3.4,10.5-8.1,0-4.9-3.5-7.2-9.9-8.2l-4.9-.8c-11.6-1.9-15.4-7.1-15.4-14.6C1465.49,96.6,1472.39,91,1482.59,91Z" style="fill:#f2f2f2"/><path d="M1540.88,71h7.5v9.2h-7.5Zm0,21.2h7.5v50h-7.5Z" style="fill:#f2f2f2"/><path d="M1578.59,91c9.9,0,16.9,5.2,19.5,13.9l-7.7,1.3c-1.3-5.2-5.5-8.5-11.7-8.5s-9.7,3-9.7,7.4c0,4.6,3.5,7,9.9,8l4.9.8c11.3,1.8,15.4,6.8,15.4,14.7,0,8.7-6.8,14.8-18,14.8-10.6,0-18.2-5.3-21-15.1l7.6-1.4c2,6.6,7.2,9.8,13.4,9.8,6.6,0,10.5-3.4,10.5-8.1,0-4.9-3.5-7.2-9.9-8.2l-4.9-.8c-11.6-1.9-15.4-7.1-15.4-14.6C1561.48,96.6,1568.38,91,1578.59,91Z" style="fill:#f2f2f2"/><path d="M1388,262.2V230.4l-22.4-38.2h8.7l17.7,30.4,17.7-30.4h8.7l-22.5,38.2v31.8Z" style="fill:#f2f2f2"/><path d="M1415.79,232c0-11.5,8.3-21,20.7-21s20.7,9.5,20.7,21v10.4c0,11.5-8.3,21-20.7,21s-20.7-9.5-20.7-21Zm33.9,1.4c0-9.9-5.7-15.7-13.2-15.7s-13.2,5.8-13.2,15.7V241c0,9.9,5.7,15.7,13.2,15.7s13.2-5.8,13.2-15.7Z" style="fill:#f2f2f2"/><path d="M1475.49,212.2v29c0,10.4,3.1,15.5,11.6,15.5a14.89,14.89,0,0,0,13.3-9V212.2h7.5v50h-7.5v-6.4c-3.2,4.6-8.5,7.6-15.4,7.6-11,0-17-7.8-17-20.6V212.2Z" style="fill:#f2f2f2"/><polygon points="287.19 32.29 250.7 184.13 223.13 86.91 141.33 86.75 116.62 186.45 76.39 32.29 0 32.29 58.95 295.92 150.48 295.92 183.69 184.6 213.23 295.92 305.09 295.92 364.04 32.29 287.19 32.29" style="fill:#f2f2f2"/><polygon points="502.56 32.29 502.56 295.92 675.58 295.92 675.58 221.78 579.15 221.78 579.15 32.29 502.56 32.29" style="fill:#f2f2f2"/><polygon points="708.53 32.29 708.53 295.92 879.89 295.92 879.89 221.78 785.12 221.78 785.12 32.29 708.53 32.29" style="fill:#f2f2f2"/><polygon points="401.67 32.29 384.78 115.37 384.78 295.92 461.37 295.92 461.37 32.29 401.67 32.29" style="fill:#f2f2f2"/><path d="M1047.23,136.62l37-24L1012.31,62.1l22.35,70C1036.52,137.88,1042.16,139.9,1047.23,136.62Z" style="fill:url(#linear-gradient)"/><path d="M1017.9,155.62a15.2,15.2,0,0,0,5.87-16.43L995.36,50.24,980.18,39.59c-8.94-6.28-16.25-2.48-16.25,8.45V190.58Z" style="fill:url(#linear-gradient-2)"/><path d="M1141.28,152.69l-46-32.27L1051.19,149a15.2,15.2,0,0,0-5.87,16.43l20.21,63.27,75.77-53.19C1150.22,169.25,1150.22,159,1141.28,152.69Z" style="fill:url(#linear-gradient-3)"/><path d="M1034.41,172.5c-1.84-5.75-7.51-7.77-12.55-4.49l-57.93,37.55v74.62c0,10.92,7.32,14.73,16.26,8.45l74.59-52.37Z" style="fill:url(#linear-gradient-4)"/><path d="M1521.23,186.68h24.6v4.85h-9.6v30.15h-5.4V191.53h-9.6Z" style="fill:#f2f2f2"/><path d="M1555.48,198v23.65h-5.4v-35h4.65l10.85,19.9,10.85-19.9h4.65v35h-5.4V198l-7.85,14.45h-4.5Z" style="fill:#f2f2f2"/><line x1="1241.99" x2="1241.99" y2="343" style="fill:none;stroke:#f2f2f2;stroke-miterlimit:10;stroke-width:6px"/></g></g></svg>