<svg xmlns="http://www.w3.org/2000/svg" xmlns:xlink="http://www.w3.org/1999/xlink" viewBox="0 0 1773 426"><defs><linearGradient id="linear-gradient" x1="1151.64" y1="1709.63" x2="1206.57" y2="1882.65" gradientTransform="translate(0 -1618)" gradientUnits="userSpaceOnUse"><stop offset="0" stop-color="#bfdd99"/><stop offset="1" stop-color="#4bbd98"/></linearGradient><linearGradient id="linear-gradient-2" x1="1079.84" y1="1732.42" x2="1134.77" y2="1905.44" xlink:href="#linear-gradient"/><linearGradient id="linear-gradient-3" x1="1173.52" y1="1702.68" x2="1228.45" y2="1875.7" xlink:href="#linear-gradient"/><linearGradient id="linear-gradient-4" x1="1066.57" y1="1736.64" x2="1121.5" y2="1909.65" xlink:href="#linear-gradient"/></defs><title>light-tagline</title><g id="dark"><polygon points="404.6 80.79 368.11 232.63 340.54 135.41 258.74 135.25 234.03 234.95 193.8 80.79 117.41 80.79 176.36 344.42 267.89 344.42 301.1 233.1 330.64 344.42 422.5 344.42 481.45 80.79 404.6 80.79" style="fill:#fff"/><polygon points="619.97 80.79 619.97 344.42 792.99 344.42 792.99 270.28 696.56 270.28 696.56 80.79 619.97 80.79" style="fill:#fff"/><polygon points="825.94 80.79 825.94 344.42 997.3 344.42 997.3 270.28 902.53 270.28 902.53 80.79 825.94 80.79" style="fill:#fff"/><polygon points="519.08 80.79 502.19 163.87 502.19 344.42 578.78 344.42 578.78 80.79 519.08 80.79" style="fill:#fff"/><path d="M1164.64,185.12l37-24-71.92-50.51,22.35,70C1153.93,186.38,1159.57,188.4,1164.64,185.12Z" style="fill:url(#linear-gradient)"/><path d="M1135.31,204.12a15.2,15.2,0,0,0,5.87-16.43l-28.41-88.95-15.18-10.65c-8.93-6.28-16.25-2.48-16.25,8.45V239.08Z" style="fill:url(#linear-gradient-2)"/><path d="M1258.69,201.19l-46-32.27-44.13,28.59a15.19,15.19,0,0,0-5.87,16.43l20.2,63.28,75.78-53.2C1267.63,217.75,1267.63,207.46,1258.69,201.19Z" style="fill:url(#linear-gradient-3)"/><path d="M1151.82,221c-1.83-5.75-7.51-7.77-12.55-4.49l-57.93,37.54v74.62c0,10.93,7.32,14.74,16.26,8.46l74.59-52.38Z" style="fill:url(#linear-gradient-4)"/><line x1="1349.4" y1="48.5" x2="1349.4" y2="391.5" style="fill:#fff;stroke:#fff;stroke-miterlimit:10;stroke-width:2px"/><path d="M1480.79,120.55v7.1h-20v62.9h-7.9v-62.9h-20v-7.1Z" style="fill:#f5f5f5"/><path d="M1521.19,190.55v-29c0-10.4-3.1-15.5-11.6-15.5a14.89,14.89,0,0,0-13.3,9v35.5h-7.5v-71.2h7.5V147c3.2-4.6,8.5-7.6,15.4-7.6,11,0,17,7.8,17,20.6v30.6Z" style="fill:#f5f5f5"/><path d="M1542.19,119.35h7.5v9.2h-7.5Zm0,21.2h7.5v50h-7.5Z" style="fill:#f5f5f5"/><path d="M1579.89,139.35c9.9,0,16.9,5.2,19.5,13.9l-7.7,1.3c-1.3-5.2-5.5-8.5-11.7-8.5s-9.7,3-9.7,7.4c0,4.6,3.5,7,9.9,8l4.9.8c11.3,1.8,15.4,6.8,15.4,14.7,0,8.7-6.8,14.8-18,14.8-10.6,0-18.2-5.3-21-15.1l7.6-1.4c2,6.6,7.2,9.8,13.4,9.8,6.6,0,10.5-3.4,10.5-8.1,0-4.9-3.5-7.2-9.9-8.2l-4.9-.8c-11.6-1.9-15.4-7.1-15.4-14.6C1562.79,145,1569.69,139.35,1579.89,139.35Z" style="fill:#f5f5f5"/><path d="M1638.19,119.35h7.5v9.2h-7.5Zm0,21.2h7.5v50h-7.5Z" style="fill:#f5f5f5"/><path d="M1675.89,139.35c9.9,0,16.9,5.2,19.5,13.9l-7.7,1.3c-1.3-5.2-5.5-8.5-11.7-8.5s-9.7,3-9.7,7.4c0,4.6,3.5,7,9.9,8l4.9.8c11.3,1.8,15.4,6.8,15.4,14.7,0,8.7-6.8,14.8-18,14.8-10.6,0-18.2-5.3-21-15.1l7.6-1.4c2,6.6,7.2,9.8,13.4,9.8,6.6,0,10.5-3.4,10.5-8.1,0-4.9-3.5-7.2-9.9-8.2l-4.9-.8c-11.6-1.9-15.4-7.1-15.4-14.6C1658.79,145,1665.69,139.35,1675.89,139.35Z" style="fill:#f5f5f5"/><path d="M1491.9,310.55v-31.8l-22.41-38.2h8.7L1495.9,271l17.7-30.4h8.7l-22.5,38.2v31.8Z" style="fill:#f5f5f5"/><path d="M1519.69,280.35c0-11.5,8.31-21,20.71-21s20.7,9.5,20.7,21v10.4c0,11.5-8.3,21-20.7,21s-20.71-9.5-20.71-21Zm33.91,1.4c0-9.9-5.7-15.7-13.2-15.7s-13.21,5.8-13.21,15.7v7.6c0,9.9,5.71,15.7,13.21,15.7s13.2-5.8,13.2-15.7Z" style="fill:#f5f5f5"/><path d="M1579.39,260.55v29c0,10.4,3.11,15.5,11.61,15.5a14.89,14.89,0,0,0,13.3-9v-35.5h7.5v50h-7.5v-6.4c-3.2,4.6-8.5,7.6-15.4,7.6-11,0-17-7.8-17-20.6v-30.6Z" style="fill:#f5f5f5"/><path d="M1627.79,259.2v-1.93c0-10.35,6.57-16.54,16-16.54s16.05,6.19,16.05,16.54v1.93c0,10.35-6.58,16.53-16.05,16.53S1627.79,269.55,1627.79,259.2Zm2.71-1.55v1.16c0,8.95,5,14.41,13.34,14.41s13.34-5.46,13.34-14.41v-1.16c0-8.94-5-14.4-13.34-14.4S1630.5,248.71,1630.5,257.65Zm13.24,2.86h-2.66v7.83H1637V248.13h8c3.14,0,6.62,2.08,6.62,6.24a5.89,5.89,0,0,1-4.06,5.7l4.79,8.27h-4.26Zm.48-3.68c2,0,3.29-.87,3.29-2.56s-1.26-2.61-3.29-2.61H1641v5.17Z" style="fill:#f5f5f5"/></g></svg>