<?xml version="1.0" encoding="utf-8"?>
<!-- Generator: Adobe Illustrator 21.1.0, SVG Export Plug-In . SVG Version: 6.00 Build 0)  -->
<svg version="1.1" id="Layer_1" xmlns="http://www.w3.org/2000/svg" xmlns:xlink="http://www.w3.org/1999/xlink" x="0px" y="0px"
	 viewBox="0 0 1773 426" style="enable-background:new 0 0 1773 426;" xml:space="preserve">
<style type="text/css">
	.st0{fill:#696868;}
	.st1{fill:#F5F5F5;}
	.st2{fill:url(#SVGID_1_);}
	.st3{fill:url(#SVGID_2_);}
	.st4{fill:url(#SVGID_3_);}
	.st5{fill:url(#SVGID_4_);}
	.st6{fill:#F5F5F5;stroke:#F5F5F5;stroke-width:2;stroke-miterlimit:10;}
</style>
<title>tagline</title>
<g id="dark">
	<rect x="0.5" y="0" class="st0" width="1773.1" height="426"/>
	<path class="st1" d="M1480.9,120.7v7.1h-20v62.9h-7.9v-62.9h-20v-7.1L1480.9,120.7z"/>
	<path class="st1" d="M1521.3,190.7v-29c0-10.4-3.1-15.5-11.6-15.5c-5.8,0.1-11,3.7-13.3,9v35.5h-7.5v-71.2h7.5v27.6
		c3.2-4.6,8.5-7.6,15.4-7.6c11,0,17,7.8,17,20.6v30.6L1521.3,190.7z"/>
	<path class="st1" d="M1542.3,119.5h7.5v9.2h-7.5V119.5z M1542.3,140.7h7.5v50h-7.5V140.7z"/>
	<path class="st1" d="M1580,139.5c9.9,0,16.9,5.2,19.5,13.9l-7.7,1.3c-1.3-5.2-5.5-8.5-11.7-8.5s-9.7,3-9.7,7.4c0,4.6,3.5,7,9.9,8
		l4.9,0.8c11.3,1.8,15.4,6.8,15.4,14.7c0,8.7-6.8,14.8-18,14.8c-10.6,0-18.2-5.3-21-15.1l7.6-1.4c2,6.6,7.2,9.8,13.4,9.8
		c6.6,0,10.5-3.4,10.5-8.1c0-4.9-3.5-7.2-9.9-8.2l-4.9-0.8c-11.6-1.9-15.4-7.1-15.4-14.6C1562.9,145.1,1569.8,139.5,1580,139.5z"/>
	<path class="st1" d="M1638.3,119.5h7.5v9.2h-7.5V119.5z M1638.3,140.7h7.5v50h-7.5V140.7z"/>
	<path class="st1" d="M1676,139.5c9.9,0,16.9,5.2,19.5,13.9l-7.7,1.3c-1.3-5.2-5.5-8.5-11.7-8.5s-9.7,3-9.7,7.4c0,4.6,3.5,7,9.9,8
		l4.9,0.8c11.3,1.8,15.4,6.8,15.4,14.7c0,8.7-6.8,14.8-18,14.8c-10.6,0-18.2-5.3-21-15.1l7.6-1.4c2,6.6,7.2,9.8,13.4,9.8
		c6.6,0,10.5-3.4,10.5-8.1c0-4.9-3.5-7.2-9.9-8.2l-4.9-0.8c-11.6-1.9-15.4-7.1-15.4-14.6C1658.9,145.1,1665.8,139.5,1676,139.5z"/>
	<path class="st1" d="M1485.4,310.7v-31.8l-22.4-38.2h8.7l17.7,30.4l17.7-30.4h8.7l-22.5,38.2v31.8H1485.4z"/>
	<path class="st1" d="M1513.2,280.5c0-11.5,8.3-21,20.7-21s20.7,9.5,20.7,21v10.4c0,11.5-8.3,21-20.7,21s-20.7-9.5-20.7-21V280.5z
		 M1547.1,281.9c0-9.9-5.7-15.7-13.2-15.7s-13.2,5.8-13.2,15.7v7.6c0,9.9,5.7,15.7,13.2,15.7s13.2-5.8,13.2-15.7V281.9z"/>
	<path class="st1" d="M1572.9,260.7v29c0,10.4,3.1,15.5,11.6,15.5c5.8-0.1,11-3.7,13.3-9v-35.5h7.5v50h-7.5v-6.4
		c-3.2,4.6-8.5,7.6-15.4,7.6c-11,0-17-7.8-17-20.6v-30.6H1572.9z"/>
	<polygon class="st1" points="404.6,80.8 368.1,232.6 340.5,135.4 258.7,135.2 234,234.9 193.8,80.8 117.4,80.8 176.4,344.4 
		267.9,344.4 301.1,233.1 330.6,344.4 422.5,344.4 481.5,80.8 	"/>
	<polygon class="st1" points="620,80.8 620,344.4 793,344.4 793,270.3 696.6,270.3 696.6,80.8 	"/>
	<polygon class="st1" points="825.9,80.8 825.9,344.4 997.3,344.4 997.3,270.3 902.5,270.3 902.5,80.8 	"/>
	<polygon class="st1" points="519.1,80.8 502.2,163.9 502.2,344.4 578.8,344.4 578.8,80.8 	"/>
	
		<linearGradient id="SVGID_1_" gradientUnits="userSpaceOnUse" x1="1151.6382" y1="-1283.6306" x2="1206.5681" y2="-1456.6506" gradientTransform="matrix(1 0 0 -1 0 -1192)">
		<stop  offset="0" style="stop-color:#BFDD99"/>
		<stop  offset="1" style="stop-color:#4BBD98"/>
	</linearGradient>
	<path class="st2" d="M1164.6,185.1l37-24l-71.9-50.5l22.3,70C1153.9,186.4,1159.6,188.4,1164.6,185.1z"/>
	
		<linearGradient id="SVGID_2_" gradientUnits="userSpaceOnUse" x1="1079.8407" y1="-1306.4198" x2="1134.7708" y2="-1479.4397" gradientTransform="matrix(1 0 0 -1 0 -1192)">
		<stop  offset="0" style="stop-color:#BFDD99"/>
		<stop  offset="1" style="stop-color:#4BBD98"/>
	</linearGradient>
	<path class="st3" d="M1135.3,204.1c5.2-3.7,7.6-10.3,5.9-16.4l-28.4-88.9l-15.2-10.7c-8.9-6.3-16.2-2.5-16.2,8.4v142.5
		L1135.3,204.1z"/>
	
		<linearGradient id="SVGID_3_" gradientUnits="userSpaceOnUse" x1="1173.5052" y1="-1276.6847" x2="1228.4352" y2="-1449.7046" gradientTransform="matrix(1 0 0 -1 0 -1192)">
		<stop  offset="0" style="stop-color:#BFDD99"/>
		<stop  offset="1" style="stop-color:#4BBD98"/>
	</linearGradient>
	<path class="st4" d="M1258.7,201.2l-46-32.3l-44.1,28.6c-5.2,3.7-7.6,10.3-5.9,16.4l20.2,63.3l75.8-53.2
		C1267.6,217.8,1267.6,207.5,1258.7,201.2z"/>
	
		<linearGradient id="SVGID_4_" gradientUnits="userSpaceOnUse" x1="1066.5648" y1="-1310.6416" x2="1121.4949" y2="-1483.6516" gradientTransform="matrix(1 0 0 -1 0 -1192)">
		<stop  offset="0" style="stop-color:#BFDD99"/>
		<stop  offset="1" style="stop-color:#4BBD98"/>
	</linearGradient>
	<path class="st5" d="M1151.8,221c-1.8-5.8-7.5-7.8-12.6-4.5l-57.9,37.6v74.6c0,10.9,7.3,14.7,16.3,8.5l74.6-52.4L1151.8,221z"/>
	<path class="st1" d="M1618.6,235.2h24.6v4.8h-9.6v30.1h-5.4V240h-9.6V235.2z"/>
	<path class="st1" d="M1652.9,246.5v23.6h-5.4v-35h4.7l10.8,19.9l10.8-19.9h4.7v35h-5.4v-23.6l-7.8,14.5h-4.5L1652.9,246.5z"/>
	<line class="st6" x1="1349.4" y1="48.5" x2="1349.4" y2="391.5"/>
</g>
</svg>
