<svg id="light" xmlns="http://www.w3.org/2000/svg" xmlns:xlink="http://www.w3.org/1999/xlink" viewBox="0 0 1773 426"><defs><linearGradient id="linear-gradient" x1="1151.64" y1="1709.63" x2="1206.57" y2="1882.65" gradientTransform="translate(0 -1618)" gradientUnits="userSpaceOnUse"><stop offset="0" stop-color="#bfdd99"/><stop offset="1" stop-color="#4bbd98"/></linearGradient><linearGradient id="linear-gradient-2" x1="1079.84" y1="1732.42" x2="1134.77" y2="1905.44" xlink:href="#linear-gradient"/><linearGradient id="linear-gradient-3" x1="1173.52" y1="1702.68" x2="1228.45" y2="1875.7" xlink:href="#linear-gradient"/><linearGradient id="linear-gradient-4" x1="1066.57" y1="1736.64" x2="1121.5" y2="1909.65" xlink:href="#linear-gradient"/></defs><title>tagline</title><path d="M1480.9,120.69v7.1h-20v62.9H1453V127.8h-20v-7.1Z" style="fill:#696868"/><path d="M1521.3,190.7v-29c0-10.4-3.1-15.5-11.6-15.5a14.89,14.89,0,0,0-13.3,9v35.5h-7.5V119.5h7.5v27.6c3.2-4.6,8.5-7.6,15.4-7.6,11,0,17,7.8,17,20.6v30.6Z" style="fill:#696868"/><path d="M1542.3,119.5h7.5v9.2h-7.5Zm0,21.2h7.5v50h-7.5Z" style="fill:#696868"/><path d="M1580,139.5c9.9,0,16.9,5.2,19.5,13.9l-7.7,1.3c-1.3-5.2-5.5-8.5-11.7-8.5s-9.7,3-9.7,7.4c0,4.6,3.5,7,9.9,8l4.9.8c11.3,1.8,15.4,6.8,15.4,14.7,0,8.7-6.8,14.8-18,14.8-10.6,0-18.2-5.3-21-15.1l7.6-1.4c2,6.6,7.2,9.8,13.4,9.8,6.6,0,10.5-3.4,10.5-8.1,0-4.9-3.5-7.2-9.9-8.2l-4.9-.8c-11.6-1.9-15.4-7.1-15.4-14.6C1562.9,145.1,1569.8,139.5,1580,139.5Z" style="fill:#696868"/><path d="M1638.29,119.5h7.5v9.2h-7.5Zm0,21.2h7.5v50h-7.5Z" style="fill:#696868"/><path d="M1676,139.5c9.9,0,16.9,5.2,19.5,13.9l-7.7,1.3c-1.3-5.2-5.5-8.5-11.7-8.5s-9.7,3-9.7,7.4c0,4.6,3.5,7,9.9,8l4.9.8c11.3,1.8,15.4,6.8,15.4,14.7,0,8.7-6.8,14.8-18,14.8-10.6,0-18.2-5.3-21-15.1l7.6-1.4c2,6.6,7.2,9.8,13.4,9.8,6.6,0,10.5-3.4,10.5-8.1,0-4.9-3.5-7.2-9.9-8.2l-4.9-.8c-11.6-1.9-15.4-7.1-15.4-14.6C1658.89,145.1,1665.79,139.5,1676,139.5Z" style="fill:#696868"/><path d="M1485.4,310.7V278.9l-22.4-38.2h8.7l17.7,30.4,17.7-30.4h8.7l-22.5,38.2v31.8Z" style="fill:#696868"/><path d="M1513.2,280.5c0-11.5,8.3-21,20.7-21s20.7,9.5,20.7,21v10.4c0,11.5-8.3,21-20.7,21s-20.7-9.5-20.7-21Zm33.9,1.4c0-9.9-5.7-15.7-13.2-15.7s-13.2,5.8-13.2,15.7v7.6c0,9.9,5.7,15.7,13.2,15.7s13.2-5.8,13.2-15.7Z" style="fill:#696868"/><path d="M1572.9,260.7v29c0,10.4,3.1,15.5,11.6,15.5a14.89,14.89,0,0,0,13.3-9V260.7h7.5v50h-7.5v-6.4c-3.2,4.6-8.5,7.6-15.4,7.6-11,0-17-7.8-17-20.6V260.7Z" style="fill:#696868"/><polygon points="404.6 80.79 368.11 232.63 340.54 135.41 258.74 135.25 234.03 234.95 193.8 80.79 117.41 80.79 176.36 344.42 267.89 344.42 301.1 233.1 330.64 344.42 422.5 344.42 481.45 80.79 404.6 80.79" style="fill:#696868"/><polygon points="619.97 80.79 619.97 344.42 792.99 344.42 792.99 270.28 696.56 270.28 696.56 80.79 619.97 80.79" style="fill:#696868"/><polygon points="825.94 80.79 825.94 344.42 997.3 344.42 997.3 270.28 902.53 270.28 902.53 80.79 825.94 80.79" style="fill:#696868"/><polygon points="519.08 80.79 502.19 163.87 502.19 344.42 578.78 344.42 578.78 80.79 519.08 80.79" style="fill:#696868"/><path d="M1164.64,185.12l37-24-71.92-50.52,22.35,70C1153.93,186.38,1159.57,188.4,1164.64,185.12Z" style="fill:url(#linear-gradient)"/><path d="M1135.31,204.12a15.2,15.2,0,0,0,5.87-16.43l-28.41-88.95-15.18-10.65c-8.94-6.28-16.25-2.48-16.25,8.45V239.08Z" style="fill:url(#linear-gradient-2)"/><path d="M1258.69,201.19l-46-32.27-44.13,28.59a15.2,15.2,0,0,0-5.87,16.43l20.21,63.27L1258.71,224C1267.63,217.75,1267.63,207.46,1258.69,201.19Z" style="fill:url(#linear-gradient-3)"/><path d="M1151.82,221c-1.84-5.75-7.51-7.77-12.55-4.49l-57.93,37.55v74.62c0,10.92,7.32,14.73,16.26,8.45l74.59-52.37Z" style="fill:url(#linear-gradient-4)"/><path d="M1618.64,235.18h24.6V240h-9.6v30.15h-5.4V240h-9.6Z" style="fill:#696868"/><path d="M1652.89,246.53v23.65h-5.4v-35h4.65l10.85,19.9,10.85-19.9h4.65v35h-5.4V246.53L1665.24,261h-4.5Z" style="fill:#696868"/><line x1="1349.4" y1="48.5" x2="1349.4" y2="391.5" style="fill:none;stroke:#696868;stroke-miterlimit:10;stroke-width:2px"/></svg>