<svg viewBox="0 0 1773 426" xmlns="http://www.w3.org/2000/svg" xmlns:xlink="http://www.w3.org/1999/xlink"><linearGradient id="a" gradientTransform="translate(0 -1618)" gradientUnits="userSpaceOnUse" x1="1151.64" x2="1206.57" y1="1709.63" y2="1882.65"><stop offset="0" stop-color="#bfdd99"/><stop offset="1" stop-color="#4bbd98"/></linearGradient><linearGradient id="b" x1="1079.84" x2="1134.77" xlink:href="#a" y1="1732.42" y2="1905.44"/><linearGradient id="c" x1="1173.52" x2="1228.45" xlink:href="#a" y1="1702.68" y2="1875.7"/><linearGradient id="d" x1="1066.57" x2="1121.5" xlink:href="#a" y1="1736.64" y2="1909.65"/><path d="m404.6 80.79-36.49 151.84-27.57-97.22-81.8-.16-24.71 99.7-40.23-154.16h-76.39l58.95 263.63h91.53l33.21-111.32 29.54 111.32h91.86l58.95-263.63z" fill="#fff"/><path d="m619.97 80.79v263.63h173.02v-74.14h-96.43v-189.49z" fill="#fff"/><path d="m825.94 80.79v263.63h171.36v-74.14h-94.77v-189.49z" fill="#fff"/><path d="m519.08 80.79-16.89 83.08v180.55h76.59v-263.63z" fill="#fff"/><path d="m1164.64 185.12 37-24-71.92-50.51 22.35 70c1.86 5.77 7.5 7.79 12.57 4.51z" fill="url(#a)"/><path d="m1135.31 204.12a15.2 15.2 0 0 0 5.87-16.43l-28.41-88.95-15.18-10.65c-8.93-6.28-16.25-2.48-16.25 8.45v142.54z" fill="url(#b)"/><path d="m1258.69 201.19-46-32.27-44.13 28.59a15.19 15.19 0 0 0 -5.87 16.43l20.2 63.28 75.78-53.2c8.96-6.27 8.96-16.56.02-22.83z" fill="url(#c)"/><path d="m1151.82 221c-1.83-5.75-7.51-7.77-12.55-4.49l-57.93 37.54v74.62c0 10.93 7.32 14.74 16.26 8.46l74.59-52.38z" fill="url(#d)"/><path d="m1349.4 48.5v343" fill="#fff" stroke="#fff" stroke-miterlimit="10" stroke-width="2"/><g fill="#f5f5f5"><path d="m1480.79 120.55v7.1h-20v62.9h-7.9v-62.9h-20v-7.1z"/><path d="m1521.19 190.55v-29c0-10.4-3.1-15.5-11.6-15.5a14.89 14.89 0 0 0 -13.3 9v35.5h-7.5v-71.2h7.5v27.65c3.2-4.6 8.5-7.6 15.4-7.6 11 0 17 7.8 17 20.6v30.6z"/><path d="m1542.19 119.35h7.5v9.2h-7.5zm0 21.2h7.5v50h-7.5z"/><path d="m1579.89 139.35c9.9 0 16.9 5.2 19.5 13.9l-7.7 1.3c-1.3-5.2-5.5-8.5-11.7-8.5s-9.7 3-9.7 7.4c0 4.6 3.5 7 9.9 8l4.9.8c11.3 1.8 15.4 6.8 15.4 14.7 0 8.7-6.8 14.8-18 14.8-10.6 0-18.2-5.3-21-15.1l7.6-1.4c2 6.6 7.2 9.8 13.4 9.8 6.6 0 10.5-3.4 10.5-8.1 0-4.9-3.5-7.2-9.9-8.2l-4.9-.8c-11.6-1.9-15.4-7.1-15.4-14.6 0-8.35 6.9-14 17.1-14z"/><path d="m1638.19 119.35h7.5v9.2h-7.5zm0 21.2h7.5v50h-7.5z"/><path d="m1675.89 139.35c9.9 0 16.9 5.2 19.5 13.9l-7.7 1.3c-1.3-5.2-5.5-8.5-11.7-8.5s-9.7 3-9.7 7.4c0 4.6 3.5 7 9.9 8l4.9.8c11.3 1.8 15.4 6.8 15.4 14.7 0 8.7-6.8 14.8-18 14.8-10.6 0-18.2-5.3-21-15.1l7.6-1.4c2 6.6 7.2 9.8 13.4 9.8 6.6 0 10.5-3.4 10.5-8.1 0-4.9-3.5-7.2-9.9-8.2l-4.9-.8c-11.6-1.9-15.4-7.1-15.4-14.6 0-8.35 6.9-14 17.1-14z"/><path d="m1491.9 310.55v-31.8l-22.41-38.2h8.7l17.71 30.45 17.7-30.4h8.7l-22.5 38.2v31.8z"/><path d="m1519.69 280.35c0-11.5 8.31-21 20.71-21s20.7 9.5 20.7 21v10.4c0 11.5-8.3 21-20.7 21s-20.71-9.5-20.71-21zm33.91 1.4c0-9.9-5.7-15.7-13.2-15.7s-13.21 5.8-13.21 15.7v7.6c0 9.9 5.71 15.7 13.21 15.7s13.2-5.8 13.2-15.7z"/><path d="m1579.39 260.55v29c0 10.4 3.11 15.5 11.61 15.5a14.89 14.89 0 0 0 13.3-9v-35.5h7.5v50h-7.5v-6.4c-3.2 4.6-8.5 7.6-15.4 7.6-11 0-17-7.8-17-20.6v-30.6z"/><path d="m1627.79 259.2v-1.93c0-10.35 6.57-16.54 16-16.54s16.05 6.19 16.05 16.54v1.93c0 10.35-6.58 16.53-16.05 16.53s-16-6.18-16-16.53zm2.71-1.55v1.16c0 8.95 5 14.41 13.34 14.41s13.34-5.46 13.34-14.41v-1.16c0-8.94-5-14.4-13.34-14.4s-13.34 5.46-13.34 14.4zm13.24 2.86h-2.66v7.83h-4.08v-20.21h8c3.14 0 6.62 2.08 6.62 6.24a5.89 5.89 0 0 1 -4.06 5.7l4.79 8.27h-4.26zm.48-3.68c2 0 3.29-.87 3.29-2.56s-1.26-2.61-3.29-2.61h-3.22v5.17z"/></g></svg>