<svg viewBox="0 0 400 400" xmlns="http://www.w3.org/2000/svg"><path d="m399 100v200.17h-56.21a9.4 9.4 0 0 1 -.94-.08v-125.42h-.17l-30.91 125.33h-50l-30.77-125.34h-.26v124.1c0 1.31 0 1.31-1.28 1.31h-56v-38.24a2.55 2.55 0 0 0 -.58 1 49 49 0 0 1 -5.42 10.17c-6.57 9.44-15.41 16.17-25.64 21.16-12.2 5.95-25.19 8.9-38.64 9.92a155.55 155.55 0 0 1 -34-1 94.2 94.2 0 0 1 -25.47-7.08 65.8 65.8 0 0 1 -27.35-22.27c-8.83-12.57-12.73-26.8-13.93-41.91-.17-2-.29-4-.43-6v-4.82h58.09v2.69a53.93 53.93 0 0 0 2.39 15.46c2.51 7.64 7.14 13.43 14.8 16.39a33.07 33.07 0 0 0 21.27 1.08c5.32-1.5 9.75-4.31 12.66-9.14a23.41 23.41 0 0 0 3.06-12.87 17.66 17.66 0 0 0 -8-15 27.81 27.81 0 0 0 -15.95-4.75c-5.24 0-10.48 0-15.72 0h-1.06v-38.81h18.46a45 45 0 0 0 14.13-1.83c6.87-2.22 10.87-7.09 11.31-13.87a16.68 16.68 0 0 0 -10.19-17 35.3 35.3 0 0 0 -22.7-1.79c-10.12 2.46-16.37 9-18.4 19.29-.32 1.6-.38 3.26-.56 4.9h-55.87c.28-3.08.49-6.09.84-9.08a70.65 70.65 0 0 1 5.9-21.36c6.74-14.6 17.83-24.74 32.33-31.31 13.26-6 27.3-8.35 41.75-8.57a148.12 148.12 0 0 1 23.9 1.57 96.44 96.44 0 0 1 24.72 6.82c16.69 7.31 28.08 19.45 33.47 37l.57 1.84h.2v-42.61h84.5l28.74 116.55h.26l28.64-116.6h83.18zm-226.46 67.3-.25-.14c-3.71 12-10.5 21.34-22.76 26.23a38 38 0 0 1 13.63 9.53 63.88 63.88 0 0 1 9.37 13.4z" fill="#f5f5f5"/></svg>