<svg viewBox="0 0 400 400" xmlns="http://www.w3.org/2000/svg"><g fill="#f5f5f5"><path d="m269.19 106h31.58v115.29h67.86v27.56h-99.55v-142.85z"/><path d="m259.66 197c0 34.22-22.39 51.79-57.07 51.79h-56.72v-142.79h57.07c34.21 0 56.72 17.57 56.72 51.79zm-31.58-39.16c0-16.07-10-24.23-25.14-24.23h-25.5v87.73h25c15.5 0 25.49-8.15 25.49-24.23z"/><path d="m127.14 203.82 11.49-1.82v-28.25l-20.28 3.25-23.24-71h-38.81l-27.88 85.22-27.42 4.35v28.25l17.67-2.82-9.11 27.85h31.12l9.19-30.2.82-2.71 44.6-7.07 3 9.67 9.18 30.2h34.34zm-53.14-64.17 12.92 42.35-27.19 4.31z"/><path d="m9.1 293.64v-21.82h13.9v3.9h-9.42v6.43h7.69v3.91h-7.8v7.69z"/><path d="m25.64 293.64v-21.82h4.48v21.82z"/><path d="m43.32 285.83v-3.91h6.32v11.37a40.08 40.08 0 0 1 -7.47.69c-3.44 0-5.74-.92-7-2.76s-2-4.7-2-8.61.69-6.77 2-8.49 3.56-2.65 6.77-2.65a29.67 29.67 0 0 1 6.43.69l1.15.23-.11 3.45c-2.07-.23-4.14-.35-6.32-.46a7 7 0 0 0 -3.44.57 3.8 3.8 0 0 0 -1.5 2.18 20.58 20.58 0 0 0 -.45 5.29 12 12 0 0 0 .91 5.28c.58 1 1.84 1.49 3.79 1.49l2.64-.11v-4.25z"/><path d="m65.94 293.64v-9.08h-8.15v9.08h-4.36v-21.82h4.36v9h8.15v-8.85h4.48v21.82z"/><path d="m72.6 275.72v-3.9h16v3.9h-5.78v17.92h-4.47v-17.92z"/><path d="m91 293.64v-21.82h4.47v21.82z"/><path d="m99.59 293.64v-21.82h7.46l5.28 17.91h.35v-17.91h4.48v21.82h-7.24l-5.39-17.92h-.35v17.92z"/><path d="m130.36 285.83v-3.91h6.32v11.37a40.08 40.08 0 0 1 -7.47.69c-3.44 0-5.74-.92-7-2.76s-1.95-4.7-1.95-8.61.69-6.77 1.95-8.49 3.56-2.65 6.78-2.65a29.8 29.8 0 0 1 6.43.69l1.14.23-.11 3.45c-2.07-.23-4.13-.35-6.32-.46a7 7 0 0 0 -3.44.57 3.78 3.78 0 0 0 -1.49 2.18 20.16 20.16 0 0 0 -.46 5.29 11.87 11.87 0 0 0 .92 5.28c.57 1 1.83 1.49 3.78 1.49l2.65-.11v-4.25z"/><path d="m160.91 293.64v-9.08h-8v9.08h-4.48v-21.82h4.48v9h8v-8.85h4.48v21.82z"/><path d="m167.8 293.64 4.94-21.82h8.38l4.94 21.82h-4.48l-.92-3.91h-7.58l-.92 3.91zm8.38-18.15-2.18 10.34h6l-2.18-10.34z"/><path d="m185.25 275.72v-3.9h16.08v3.9h-5.74v17.92h-4.48v-17.92z"/><path d="m203.62 293.64v-21.82h14.13v3.9h-9.65v5.06h7.81v3.78h-7.81v5.29h9.65v3.9z"/><path d="m228.89 293.64v-21.82h13.89v3.9h-9.53v6.43h7.81v3.91h-7.81v7.69z"/><path d="m260.12 291.34c-1.38 1.84-3.67 2.76-7 2.76s-5.63-.92-7-2.76-2.07-4.59-2.07-8.5.69-6.66 2.07-8.61 3.68-2.76 7-2.76 5.62.92 7 2.76 2.07 4.71 2.07 8.61-.69 6.66-2.07 8.5zm-10.56-2.87a4.55 4.55 0 0 0 6.44.53c.23-.23.46-.34.57-.57a12 12 0 0 0 .92-5.63 14.1 14.1 0 0 0 -.92-5.74 4.38 4.38 0 0 0 -7.12 0 12.47 12.47 0 0 0 -.92 5.74 15.3 15.3 0 0 0 1.03 5.67z"/><path d="m269.88 286.29v7.35h-4.48v-21.82h8.5c5.17 0 7.69 2.41 7.69 7.12a7 7 0 0 1 -3.21 6.31l3.1 8.39h-4.82l-2.53-7.35zm6.43-4.71a4.34 4.34 0 0 0 0-5.05 2.68 2.68 0 0 0 -2.41-.92h-4v6.89h4.1a2.61 2.61 0 0 0 2.31-.92z"/><path d="m301.92 285.83v-3.91h6.31v11.37a40 40 0 0 1 -7.46.69c-3.44 0-5.74-.92-7-2.76s-2-4.7-2-8.61.69-6.77 2-8.49 3.56-2.65 6.77-2.65a29.8 29.8 0 0 1 6.43.69l1.15.23-.12 3.45c-2.06-.23-4.13-.35-6.31-.46a7 7 0 0 0 -3.45.57 3.83 3.83 0 0 0 -1.49 2.18 21 21 0 0 0 -.46 5.29 12 12 0 0 0 .92 5.28c.57 1 2 1.49 3.91 1.49l2.64-.11v-4.25z"/><path d="m327 291.34c-1.38 1.84-3.67 2.76-7 2.76s-5.63-.92-7-2.76-2.06-4.59-2.06-8.5.68-6.66 2.06-8.61 3.68-2.76 7-2.76 5.62.92 7 2.76 2.07 4.71 2.07 8.61-.74 6.66-2.07 8.5zm-10.56-2.87a4.55 4.55 0 0 0 6.43.57c.23-.23.46-.34.57-.57a11.54 11.54 0 0 0 .92-5.63 13.94 13.94 0 0 0 -.92-5.74 4.27 4.27 0 0 0 -6.08-.92 3.5 3.5 0 0 0 -.92.92 12.21 12.21 0 0 0 -.92 5.74 13.12 13.12 0 0 0 .87 5.63z"/><path d="m347.39 291.34c-1.38 1.84-3.67 2.76-7 2.76s-5.63-.92-7-2.76-2.06-4.59-2.06-8.5.68-6.66 2.06-8.61 3.68-2.76 7-2.76 5.62.92 7 2.76 2.07 4.71 2.07 8.61-.69 6.66-2.07 8.5zm-10.56-2.87a4.55 4.55 0 0 0 6.43.57c.23-.23.46-.34.57-.57a11.54 11.54 0 0 0 .92-5.63 13.94 13.94 0 0 0 -.92-5.74 4.27 4.27 0 0 0 -6.08-.92 3.5 3.5 0 0 0 -.92.92 12.21 12.21 0 0 0 -.92 5.74 11.54 11.54 0 0 0 .92 5.63z"/><path d="m360 293.64h-7.35v-21.82h7.35a15.32 15.32 0 0 1 4.6.57 6.31 6.31 0 0 1 2.87 1.95 8 8 0 0 1 1.37 3.22 23.07 23.07 0 0 1 .35 4.82 34.12 34.12 0 0 1 -.35 4.83 11 11 0 0 1 -1.26 3.44 5.39 5.39 0 0 1 -2.87 2.18 13 13 0 0 1 -4.71.81zm4.6-8.62v-2.87a23 23 0 0 0 -.12-2.87 5.45 5.45 0 0 0 -.57-1.95 3 3 0 0 0 -1.38-1.26 9.53 9.53 0 0 0 -2.53-.35h-2.87v14.13h2.87a4.35 4.35 0 0 0 3.45-1.27 5.74 5.74 0 0 0 1.15-3.56z"/><path d="m388 247.36a10.71 10.71 0 0 1 -8-3.33 12.17 12.17 0 0 1 0-16.42 11.1 11.1 0 0 1 15.85 0 12.43 12.43 0 0 1 0 16.42 10 10 0 0 1 -7.85 3.33zm-.11-21.24a8.7 8.7 0 0 0 -6.66 2.87 10.07 10.07 0 0 0 0 13.66 9.1 9.1 0 0 0 13 .23l.23-.23a10.31 10.31 0 0 0 0-13.78 9 9 0 0 0 -6.53-2.75zm-2.19 11.59v4.48h-2.41v-12.74h4.6a5.53 5.53 0 0 1 3.56.92 3.19 3.19 0 0 1 1.14 2.75 5.61 5.61 0 0 1 -.45 2.76 3.17 3.17 0 0 1 -1.73 1.49l2.3 4.82h-2.53l-2-4.48zm0-6.31v4.25h2.53a2.68 2.68 0 0 0 1.61-.46 2.11 2.11 0 0 0 .46-1.61c0-1.38-.92-2.18-2.64-2.18z"/></g></svg>