<svg viewBox="0 0 400 400" xmlns="http://www.w3.org/2000/svg"><g fill="#f5f5f5"><path d="m399.93 97c0-3.84-.84-5-4.88-5q-195 .18-390 0c-4.05 0-4.86 1.23-4.85 5q.16 103.11 0 206.2c0 3.9 1 4.91 4.88 4.9q97.5-.19 195-.1t195 .1c4 0 4.86-1.08 4.85-4.93q-.18-103.09 0-206.17zm-19.52 196.47q-90.17-.2-180.35-.09-90.39 0-180.78.1c-3.86 0-4.67-1-4.66-4.74q.18-88.45 0-176.9c0-3.82.94-4.72 4.72-4.71q180.57.15 361.13 0c4.05 0 4.84 1.19 4.83 5q-.18 88.25 0 176.48c.01 3.88-.96 4.87-4.89 4.86z"/><path d="m334 174.55c-7.74-10.46-17.44-17.15-30.17-19.32-24.15-4.11-46.15 11.25-50.37 35.52-3.14 18.14.63 34.22 15.1 46.6 17.58 15 48.9 14.28 61-11.17 4.93-10.37 4.95-10.37-6.43-10.37-6 0-12.05-.06-18.07.12-2.51.08-3.24-.83-3.14-3.22.16-3.72.16-7.46 0-11.19-.09-2.29.78-2.92 3-2.91 14.92.08 29.84 0 44.76 0 1.41 0 2.84-.3 2.85 2 .06 19.54-4.73 37.15-20.07 50.51-9.74 8.49-21.14 12.59-34.14 13-13.25.4-25.73-1.83-36.74-9.43-20.1-13.86-29.67-33.08-28.23-57.57 1.41-23.9 12.32-42.11 33.68-53.12 26.11-13.46 59.09-6.57 77.84 15.39 1.8 2.1 2 3.28-.18 5.15-3.69 3.13-7 6.46-10.69 10.01z"/><path d="m189 202.06c0-18.5.12-37-.1-55.49-.05-3.93 1.14-5 4.84-4.67a60.48 60.48 0 0 0 9.89 0c2.93-.21 3.62.94 3.58 3.69-.14 10.32-.06 20.65-.06 31 0 27.11-.06 54.21.08 81.31 0 3.41-.56 5-4.37 4.55-4.48-.57-10.55 1.94-13.11-1-2.23-2.58-.73-8.46-.74-12.88q-.01-23.27-.01-46.51z"/><path d="m166.56 260.08q-26.17-58.37-52.31-116.74c-.92-2-2-3.09-4.41-3.17-2.82-.09-3.57 1.55-4.53 3.6q-23.43 49.77-46.94 99.49c-2.93 6.23-5.76 12.5-8.82 19.12 6 0 11.35-.18 16.63.08 2.48.12 3.54-.79 4.46-2.89 3.48-8 7.18-15.85 10.65-23.83.85-2 1.87-2.74 4.09-2.72q23.24.14 46.47 0c2.37 0 3.54.72 4.45 2.89 3.29 7.9 6.78 15.72 10.2 23.58.6 1.38.75 3.05 3 3 5.84-.09 11.69 0 17.31 0 .58-1.2.03-1.78-.25-2.41zm-75.78-46 18.45-40.25 17.77 40.28z"/></g></svg>