<svg viewBox="0 0 400 400" xmlns="http://www.w3.org/2000/svg"><g fill="#f5f5f5"><path d="m86.68 45c-.17.4.14.68.28 1q8 16.59 15.94 33.16 6 12.45 11.95 24.87c.86 1.77 1.69 3.54 2.55 5.31a1.26 1.26 0 0 1 .24 1.11c-1.4-1-2.77-2-4.12-2.92q-4.33-3.13-8.63-6.27-7.77-5.64-15.54-11.32-8.89-6.47-17.8-12.94c-.34-.24-.36-.34-.16-.74 1.33-2.7 2.61-5.48 3.92-8.26 1.43-3 2.9-5.92 4.35-8.91 1.67-3.44 3.36-6.86 4.94-10.34.55-1.25 1.47-2.39 1.71-3.78z"/><path d="m399 354.13q-14.62 0-29.22 0c-.82 0-1.13-.1-1.11-1 0-8.77 0-17.57 0-26.34 0-.79.15-1.07 1-1q14 .06 27.93 0c.73 0 1.05.12 1 .95a43.73 43.73 0 0 0 0 4.58c0 .79-.26.89-1 .89-5.91 0-11.8 0-17.71 0-.93 0-1.19.28-1.11 1.16a12.84 12.84 0 0 1 0 2.48c-.06.8.16 1.08 1 1.06h16.12c.89 0 1.21.2 1.15 1.13a40 40 0 0 0 0 4.38c0 .81-.26 1-1 1-5.43 0-10.86 0-16.32 0-.81 0-1.11.18-1 1a13.9 13.9 0 0 1 0 2.58c-.06.74.18 1 .94 1h15.41c1.29 0 2.59 0 3.88.06z"/><path d="m1.15 325.69h9.25c.78 0 .92.22.92.95v15.8c0 4.07 2.42 6.2 6.18 6.34 2.25.08 4.28-.36 5.81-2.17a5.06 5.06 0 0 0 1.17-3c.4-5.75.08-11.5.16-17.25 0-.55.22-.65.7-.65h8.75c.58 0 .72.18.72.73 0 5.61 0 11.2-.06 16.79a12.14 12.14 0 0 1 -1.75 6.77c-1.63 2.42-4.12 3.58-6.84 4.31-3.57.94-7.23.86-10.87.8a25.08 25.08 0 0 1 -6.76-1c-3.84-1.13-6.5-3.4-7.2-7.54 0-.08-.12-.12-.2-.18z"/><path d="m68.23 81.9c9.36 6.82 18.47 13.48 27.62 20.1s18.09 13.11 27.14 19.65q13 9.44 26 18.92 12.48 9.08 25 18.1c7.52 5.45 15 10.94 22.58 16.35.83.6.65 1.09.39 1.85-2.34 7.12-4.67 14.26-6.94 21.42-.3 1-.58 1-1.27.44-3.52-2.64-7.12-5.15-10.62-7.8s-7.38-5.29-11.06-8q-6.07-4.28-12.07-8.7c-3.7-2.7-7.38-5.43-11.08-8.11s-7.18-5.15-10.76-7.76l-21.16-15.36q-7.11-5.17-14.25-10.33c-2.42-1.77-4.87-3.52-7.3-5.29a3.59 3.59 0 0 1 -1-1.23c-1.77-3.72-3.56-7.42-5.33-11.14l-5-10.35c-1.65-3.44-3.27-6.9-5-10.32-1.87-3.74-3.5-7.58-5.51-11.26a6.57 6.57 0 0 1 -.38-1.18z"/><path d="m331.93 82.14c-1.34 2.76-2.65 5.53-4 8.29q-6.36 13.21-12.73 26.46c-1.45 3-2.93 6-4.36 9a3.29 3.29 0 0 1 -1 1.29q-10.77 7.81-21.53 15.62l-24 17.48-23.31 16.94-23.25 16.89c-2.15 1.57-4.34 3.1-6.45 4.69-.71.54-.85.34-1.07-.4-1.07-3.44-2.19-6.86-3.3-10.3-1.29-4-2.57-7.94-3.9-11.88-.16-.43-.14-.51.22-.81 1.95-1.61 4.08-3 6.09-4.5s4.33-3.16 6.5-4.73l12.29-8.91 10.92-7.94q7.26-5.28 14.52-10.54c3.66-2.67 7.34-5.33 11-8l14.52-10.54 10.91-7.96 12.36-9 10.92-7.94 14.52-10.54 3.97-2.81z"/><path d="m304.79 138.21a1.71 1.71 0 0 1 -.37 1.19q-4.34 9-8.7 18.07c-3.89 8.11-7.83 16.21-11.67 24.36a7.08 7.08 0 0 1 -2.63 2.69c-9.05 6.58-18.14 13.11-27.15 19.73a5.28 5.28 0 0 1 -3.42 1.11c-12.33 0-24.67 0-37 0h-1.37c1.49-1.11 2.78-2.08 4.08-3 2.6-1.89 5.23-3.8 7.85-5.67 2.33-1.67 4.7-3.32 7-5 2.51-1.83 5-3.68 7.5-5.51l7.84-5.67c2.94-2.15 5.89-4.32 8.83-6.44l7.92-5.73 8.19-6q7.31-5.34 14.55-10.58l10.92-7.94z"/><path d="m187.34 205.32h-31.23c-2.29 0-4.58-.07-6.87 0a5.21 5.21 0 0 1 -3.56-1.15c-3.58-2.66-7.2-5.25-10.8-7.88-5.17-3.78-10.36-7.53-15.53-11.31-.72-.52-1.46-1-2.17-1.58a2.07 2.07 0 0 1 -.68-.89c-1.77-3.74-3.58-7.48-5.39-11.22q-2.89-5.94-5.77-11.87c-1.51-3.13-3-6.27-4.45-9.39-1.79-3.74-3.62-7.44-5.43-11.16-.06-.14-.26-.24 0-.6l92 66.84z"/><path d="m282.28 110.36 31.49-65.28c1.21 2.53 2.38 4.93 3.54 7.36q5.7 11.85 11.41 23.71c.42.84-.31.93-.67 1.19-3.21 2.35-6.45 4.64-9.65 7q-8.08 5.86-16.15 11.75-9.44 6.87-18.88 13.71c-.32.22-.64.43-.95.67z"/><path d="m225.31 261.88-24.67 18a.86.86 0 0 1 -1.21 0c-4.32-3.16-8.65-6.29-13-9.43-3.72-2.71-7.4-5.47-11.16-8.14-.52-.35-.4-.47-.08-.69 2.81-1.93 5.47-4 8.28-5.93s5.51-4 8.27-6.07l7.5-5.49a1.1 1.1 0 0 1 1.53 0q10.44 7.68 20.93 15.3c1.18.74 2.35 1.57 3.61 2.45z"/><path d="m164.76 218.1a.84.84 0 0 1 .66.27c4.67 3.41 9.32 6.83 14 10.19.58.42.46.75.3 1.21l-6.39 19.63c-.91 2.79-1.83 5.57-2.72 8.38-.22.69-.38.83-1.06.36-4.29-3.15-8.61-6.25-12.93-9.37q-8.32-6-16.63-12.08c-.31-.24-.51-.45 0-.79q6.36-4.54 12.69-9.11c3.86-2.79 7.7-5.57 11.56-8.38.18-.14.28-.41.52-.31z"/><path d="m260.54 236.3c-2.51 1.83-5 3.62-7.44 5.43l-18.86 13.68c-1.21.9-2.47 1.73-3.64 2.69-.68.53-.86.33-1.07-.4-1.4-4.42-2.81-8.79-4.24-13.19-1.49-4.59-3-9.21-4.52-13.8a11.69 11.69 0 0 0 -.43-1.38c-.2-.37-.1-.49.19-.69 3.47-2.47 6.93-4.9 10.35-7.42 1.25-.94 2.54-1.83 3.78-2.79a.88.88 0 0 1 1.27 0q6.84 5 13.71 10c3.6 2.57 7.22 5.18 10.9 7.87z"/><path d="m316.33 342.68 7.2 11.45h-10.34c-.84 0-1.83.16-1.65-1.23-1.32-.94-.94-2.94-2.45-3.82-.38-.22-.28-1.11-.58-1.63s-.47-1.06-1.07-1.35-.28-1-.64-1.52a1.63 1.63 0 0 0 -1.51-.79c-1.13 0-2.25 0-3.38 0-.7 0-.9.16-.9.87v8.56c0 .71-.13 1-.91.95-2.79-.06-5.57 0-8.35 0-.7 0-1-.12-1-.91q.06-13.33 0-26.64c0-.67.14-.91.88-.89h20a18.35 18.35 0 0 1 5.84.75c3.19 1.1 4.64 3.52 5.32 6.63a9.82 9.82 0 0 1 -.64 5.55 6 6 0 0 1 -2.35 2.68 4.75 4.75 0 0 1 -3.47 1.34zm-10.5-10.45v-.06h-4.18c-.36 0-.66 0-.66.5v4.28c0 .33.18.45.5.45 2.95-.08 5.89.18 8.83-.14 1.64-.17 2.49-1.07 2.47-2.44a2.48 2.48 0 0 0 -2.61-2.55c-1.43-.1-2.9 0-4.35 0z"/><path d="m266.09 355.11a23.13 23.13 0 0 1 -10.09-1.63 13.38 13.38 0 0 1 -7.12-6.53 14.26 14.26 0 0 1 -1.47-5.81 15.56 15.56 0 0 1 2.27-9.41c2.3-3.7 5.84-5.56 10-6.4a31.48 31.48 0 0 1 6.7-.62c3.94 0 7.78.48 11.36 2.33a12.82 12.82 0 0 1 5 4.58 15.55 15.55 0 0 1 2.29 9.6 14.89 14.89 0 0 1 -1.39 5.37 12.34 12.34 0 0 1 -3.28 4.22 18.27 18.27 0 0 1 -9.79 4.12 42.72 42.72 0 0 1 -4.48.18zm.37-6.31c4.3 0 6.93-2.05 7.92-6.18a12.68 12.68 0 0 0 .3-3.37c-.22-6.2-5.79-9.92-11.64-7.73-3.14 1.17-5.05 4.13-5.17 8.09-.18 5.57 3.22 9.19 8.59 9.19z"/><path d="m200.48 354.13h-10.8c-.49 0-.57-.38-.75-.67-1.63-2.89-3.31-5.77-4.9-8.7a1.59 1.59 0 0 0 -1.71-1 22.44 22.44 0 0 1 -3.28 0c-.79-.06-1.07.16-1 1 .06 2.83 0 5.63 0 8.46 0 .63-.1.93-.84.91-2.84 0-5.71 0-8.55 0-.68 0-.82-.22-.82-.83q0-13.36 0-26.74c0-.71.22-.87.9-.87h19.77a19 19 0 0 1 5.95.73c3.26 1.12 4.79 3.58 5.39 6.77a8.38 8.38 0 0 1 -1.55 6.7 7.12 7.12 0 0 1 -4 2.63c-.72.17-.8.33-.38 1 2.17 3.36 4.26 6.76 6.38 10.14a1.68 1.68 0 0 1 .19.47zm-17.62-21.9v-.06h-4.18c-.42 0-.69.06-.67.58v4.08c0 .43.18.57.59.55 2.91-.08 5.83.18 8.74-.14 1.65-.17 2.48-1 2.48-2.42a2.48 2.48 0 0 0 -2.58-2.57c-1.46-.08-2.91 0-4.38 0z"/><path d="m200.05 236.38a13.8 13.8 0 0 1 -13.87-12.14c-1-10 6.61-15.93 13.93-15.85a14 14 0 1 1 -.06 28z"/><path d="m81.61 332.85-7.64.4a5.56 5.56 0 0 0 -1.15.14c-.62.15-1.23.15-1.53-.74a2.56 2.56 0 0 0 -2-1.55 9.75 9.75 0 0 0 -5.61.12 1.89 1.89 0 0 0 -1.47 1.63 1.71 1.71 0 0 0 1.21 1.81 30.34 30.34 0 0 0 5.65 1.55c2.57.62 5.21.94 7.72 1.81 4.16 1.45 5.69 4.44 5.25 8-.48 3.72-2.76 6.16-6.21 7.5-4.09 1.59-8.39 1.55-12.67 1.39a15.65 15.65 0 0 1 -8.29-2.39 9.3 9.3 0 0 1 -3.8-5.79c-.34-1.33.32-1.07 1-1.09 2.71-.08 5.43-.16 8.16-.22.28 0 .64-.22.83.28a4.41 4.41 0 0 0 3.88 2.76 9.62 9.62 0 0 0 5.69-.45 2.57 2.57 0 0 0 1.18-1 2.06 2.06 0 0 0 -1.2-3.22 27.09 27.09 0 0 0 -4.61-1.08 47 47 0 0 1 -8.48-2c-2.72-1-4.61-2.85-5.07-5.91a7.66 7.66 0 0 1 2.63-7.14c2.23-2.11 5-2.61 7.81-3a32.34 32.34 0 0 1 12 .76 8.53 8.53 0 0 1 6.72 7.43z"/><path d="m364.17 345a12.43 12.43 0 0 1 -4.65 6.73 18.33 18.33 0 0 1 -6.59 2.74 33.81 33.81 0 0 1 -7.9.56 23 23 0 0 1 -6.48-.94 16.53 16.53 0 0 1 -6.41-3.52 14.53 14.53 0 0 1 -4.37-7.95 11 11 0 0 1 -.2-4 19.37 19.37 0 0 1 1.43-5.13 14.48 14.48 0 0 1 2.35-3.66 13.61 13.61 0 0 1 3.8-2.93 22.34 22.34 0 0 1 8.35-2.23 35 35 0 0 1 9.85.44c.79.14 1.55.5 2.35.62 2.1.32 3.64 1.73 5.21 2.9a8.19 8.19 0 0 1 2.25 3.5 1.82 1.82 0 0 0 .25.64c.84.79-.06 1-.45 1a17.86 17.86 0 0 0 -3.44.64c-1 .24-2.15.16-3.21.38a1.65 1.65 0 0 0 -.79.34 1.15 1.15 0 0 1 -1.61-.1 1 1 0 0 1 -.24-.46 3 3 0 0 0 -1.65-2c-2.47-1.23-5-2-7.72-1.15a7.62 7.62 0 0 0 -3.34 2.09 7.81 7.81 0 0 0 -2.11 3.06c0 .06-.08.12-.08.18-.06 1.77-1 3.58-.16 5.27.48 1 .24 2.39 1.45 3.06.36.2.14.78.5 1.06 1.35 1.07 2.64 2.24 4.47 2.42 1.1.1 2.21.54 3.21-.32 1.51.44 2.54-.53 3.7-1.21a6.35 6.35 0 0 0 2.2-2.54c.1-.16.06-.56.4-.48.94.24 1.91-.3 2.85.16.3.16.73.39 1.05-.08a.42.42 0 0 1 .36-.1c.6.59 1.33.38 2.05.44s1.11.47 1.69 0c0 0 .24.08.32.15.3.42.79.36 1.31.42z"/><path d="m146.32 354.13c-3.58 0-7 0-10.4 0a.74.74 0 0 1 -.84-.59c-.34-1.12-.74-2.19-1.05-3.31a.86.86 0 0 0 -1-.73c-3.14 0-6.28 0-9.45 0a.83.83 0 0 0 -1 .71c-.32 1.12-.74 2.19-1.08 3.31-.12.37-.21.63-.71.61-3.54 0-7.08 0-10.72 0 1-2.21 1.89-4.31 2.82-6.44 1.12-2.57 2.21-5.13 3.32-7.7 1.18-2.75 2.35-5.47 3.52-8.22.78-1.83 1.6-3.64 2.35-5.47a.84.84 0 0 1 1-.57q5.07 0 10.14 0a1 1 0 0 1 1.11.71q5.4 12.51 10.81 25zm-14.7-10.94-3.32-9.57-3.24 9.57z"/><path d="m215.76 340c0-4.44 0-8.87 0-13.33 0-.73.18-.93.94-.93q13 0 26 0c.68 0 .94.14.92.85-.06 1.53-.06 3 0 4.58 0 .77-.2 1-1 1-5.23 0-10.46 0-15.71 0-.84 0-1.07.22-1 1a35.62 35.62 0 0 1 0 3.58c0 .69.18.87.88.87h14.32c.82 0 1.1.18 1.06 1-.08 1.49-.06 3 0 4.47 0 .72-.22.9-.92.88-4.77 0-9.55 0-14.32 0-.84 0-1 .22-1 1 .06 2.83 0 5.63 0 8.46 0 .63-.17.77-.77.75-2.85 0-5.71 0-8.55 0-.7 0-.88-.18-.88-.87.05-4.47.03-8.92.03-13.31z"/><path d="m160.3 340v13.33c0 .69-.18.87-.87.87-2.85 0-5.71 0-8.56 0-.61 0-.77-.16-.77-.77q0-13.42 0-26.84c0-.63.16-.83.81-.83h8.56c.65 0 .81.2.81.83 0 4.41.02 8.9.02 13.41z"/><path d="m42.21 354.13c-1.34 0-2.65 0-4 0-.54 0-.76-.12-.74-.69 0-2 0-4 0-6 0-.54.12-.76.7-.74h7.86c.49 0 .69.12.67.66v6.07c0 .61-.24.69-.75.67-1.22.01-2.49.03-3.74.03z"/><path d="m90 354.13c-1.3 0-2.59 0-3.88 0-.54 0-.68-.16-.66-.67 0-2 0-4 0-6.07 0-.54.16-.68.68-.68h7.86c.57 0 .71.18.71.74q0 3 0 6c0 .57-.18.73-.73.71-1.33-.05-2.66-.03-3.98-.03z"/></g></svg>