<svg viewBox="0 0 400 400" xmlns="http://www.w3.org/2000/svg"><g fill="#f5f5f5"><path d="m.13 187.67c1.26-9.27 3.87-16.45 7.18-24.31 9.69-22.96 26.02-32.36 50.69-29.15 10.39 1.34 20.42 5.14 31.16 4.15a51 51 0 0 0 20-5.58c11.79-6.31 24.16-11.09 38-10 11.34.93 20.15 6.34 27 15.68-18-10.84-34.15-3.89-50.27 4.36-11.85 6.07-24.42 7-37.28 4.07a110.52 110.52 0 0 0 -22.26-3.09c-14.56-.22-24.89 6.34-31.35 19.2a77 77 0 0 0 -5.41 57.64c7.79 27.21 23.45 49.09 45.75 66.18 9.24 7.07 19.89 6.94 29.82 1.74 12.19-6.39 24.56-8.21 37.72-4.47 7.93 2.25 15.15-.91 22.71-2.43-9.12 10.56-20.65 15.73-34.3 12.67-13.39-3-25.36-1.15-37.88 4.19-14.71 6.28-29 4.86-42-6.36-24.5-21.16-41.08-46.88-47.71-78.76a133.23 133.23 0 0 1 -1.57-25.73z"/><path d="m134.92 200c-3.93.64-7.28-1.31-10.87-2.33-6.71-1.92-13.57-2.48-19.19 2.52s-4.65 11.75-2.94 18.19c4.39 16.46 14.48 30.12 22.29 44.89.92 1.72 2 3.37 3.54 6.06-7.77-1.54-11.45-6.69-15.13-11.44-4.28-5.52-7.78-11.64-11.89-17.31-2.66-3.67-5.77-7.31-11-6.45s-6.79 5.42-8.28 9.69c-2.23 6.37-4 12.89-6.55 19.13a23.25 23.25 0 0 1 -10.09 12c-.83-4.84-.19-9.15.62-13.4 3.52-18.43 6.86-36.89 10.83-55.22 2.28-10.55 0-18.2-9.63-24.09-7.83-4.77-14.84-11-17.52-22.32 27.16 18.94 58.43 24.44 86.64 37.25.77 1.22.33 2.12-.83 2.83z"/><path d="m134.92 200c.27-1 .53-1.9.8-2.85 18-7.63 37.47-11.66 55.63-23.74-2.59 8.26-7.42 12.18-12.53 15.49-5.36 3.47-7.18 7.79-5.92 14 2.51 12.23 4.82 24.49 7.09 36.77.58 3.14.67 6.38 1.1 10.68-4.5-2.16-6.17-5.42-7.6-8.67s-2.3-6.59-3.39-9.91c-1.17-3.52-1.71-7.76-6.26-8.44s-6.47 3.14-8.64 6.11c-4.48 6.12-7.58 13.46-16.87 17.91 4.09-7.34 7.26-13.08 10.49-18.79 3.09-5.46 6-11 7.31-17.18 2-9.29-3.08-14.47-12.51-13.24-2.97.32-5.55 2.4-8.7 1.86z"/><path d="m121.55 105c-.5 7.23-1.87 15.48-8.37 22-3.11 3.12-7.46 5.63-10.57 3.08-3.61-3-9.44-4.89-9.17-11.6.32-7.81 5-14.42 12.66-16.57a67.2 67.2 0 0 0 8.56-2.61c7.02-3.12 7.01-3.2 6.89 5.7z"/><path d="m233.48 201.29c0 3.49.07 7 0 10.47-.05 2-.08 4.28-2.87 4.37s-3.43-2.13-3.11-4.13c1.38-8.48-3.83-8.17-9.77-8.24-5.24-.05-7.23 1.67-6.76 6.87.2 2.26.66 5.6-3.19 5.43-3.15-.14-2.78-3-2.81-5.18-.07-6.49 0-13 0-19.45 0-2.32.2-4.89 3.26-4.87 2.71 0 2.53 2.46 2.83 4.44.38 2.53-1.38 6.16 2 7.28a20.07 20.07 0 0 0 12.52 0c3.24-1.1 1.42-4.81 1.78-7.35.29-2.08.48-4.24 3.06-4.33 2.75-.1 3 2.2 3 4.22.11 3.49.05 6.98.06 10.47z"/><path d="m399.94 201.53v10.5c0 2.09-.29 4.24-3.1 4.11-2.21-.1-2.51-1.86-2.84-3.71-.49-2.75 1.77-6.89-1.84-8s-8-.75-11.88-.28c-4.18.5-2.24 4.26-2.64 6.68-.35 2.12.44 5.09-2.75 5.25-3.74.19-3.3-3-3.32-5.42-.06-6.5 0-13 0-19.5 0-2.07.13-4.29 2.73-4.55s3.05 1.8 3.33 3.94c.34 2.59-1.44 6.23 1.56 7.53 3.9 1.7 8.41 1.13 12.56.37 3.59-.66 1.93-4 2.26-6.25s-.52-5.74 3.17-5.57 2.67 3.55 2.77 5.88c.05 3.02.05 6.03-.01 9.02z"/><path d="m254.79 216.31c-14.46-.11-13 1.92-13.08-13.3-.05-16.66 0-16.66 16.62-16.62a18.76 18.76 0 0 1 2.25 0c2.29.29 6.08-1 6.07 2.38s-3.83 2-6.11 2.31c-1.48.18-3-.22-4.48.08-3 .61-7.85-2.2-8.09 3.64-.24 6 4.73 3.5 7.7 4 2 .33 4 .06 6 .23 1.52.13 3.14.55 2.89 2.59-.19 1.46-1.52 1.91-2.79 2-3.24.13-6.49.17-9.74.18-2.64 0-4.2.86-4.18 3.88s1.24 4 4.06 4c4-.06 8 0 12 .1 1.6 0 3.28.59 3.25 2.33s-1.77 2.21-3.36 2.23c-3.01 0-6.01-.03-9.01-.03z"/><path d="m293.58 167c0 3 .09 6 0 9-.09 2.14.37 5-2.94 5-2.59 0-3-2.46-2.81-4.47.71-6.25-2.49-7.49-8-7.45s-8.83.95-7.95 7.37c.27 2 0 4.43-2.63 4.58-3.25.2-3.15-2.57-3.17-4.8q-.1-9.36 0-18.73c0-2.19-.25-5 3.07-4.87 2.69.08 3 2.48 2.73 4.47-.86 6.54 2.85 7.29 8.08 7.24 4.89 0 8.46-.63 7.83-6.82-.23-2.22.08-5.07 3.2-4.83s2.52 3.19 2.59 5.33c.09 2.98.01 5.98 0 8.98z"/><path d="m95.32 177.64c-5.71-.19-9.76-5.2-9.64-11.91s4.9-11.3 11.34-11.15c6.65.15 11.49 5 11.31 11.26s-6.47 12.02-13.01 11.8z"/><path d="m216.49 151.79a15.5 15.5 0 0 1 3.71.54c2.59.93 7.28.94 6.12 4.74s-4.58.22-7 0a28.15 28.15 0 0 0 -4.42-.52c-2 .13-4.15.7-4.35 3.23-.16 2.1 1.51 3 3.23 3.57 3.32 1.06 6.86 1.62 10 3.06 5.94 2.72 6.36 9.38 1.09 13.15-4.51 3.22-15.85 2.53-20-1.16-1-.89-1.9-1.86-1.13-3.14a2.61 2.61 0 0 1 3.32-.93c3.22 1.33 6.33 3.07 10 2.77 2.32-.18 4.78-.7 5.07-3.44.25-2.45-2-3.19-3.93-3.8-1.67-.52-3.39-.86-5.08-1.31-4.79-1.28-9.38-2.86-8.76-9.2.46-4.53 5.1-7.51 12.13-7.56z"/><path d="m248.92 181.68c-8 0-14.34-3.92-16.44-10.45s-.07-11.83 5.09-15.94c5.42-4.33 16-4.74 21.24-1.09 1.21.84 2.77 1.6 2 3.44s-2.27 1.78-3.79 1.26a51.63 51.63 0 0 0 -5.58-2.09 10.78 10.78 0 0 0 -11.81 4.5 8.85 8.85 0 0 0 -.26 10.53c2.69 4.24 6.81 5.56 11.65 5a3.31 3.31 0 0 1 .73-.13c3.18.34 7.69-6.12 8.89-.27.76 3.68-6 4.68-10.23 5.22a12.33 12.33 0 0 1 -1.49.02z"/><path d="m236 139.06c0-9 4.42-12.15 13.58-9.83 3 .75 5.27 1.34 8.33.11 3.34-1.35 7.43-1 9 2.91a17.9 17.9 0 0 1 0 13.8c-.87 2-3.16.89-3.54-1.25a38.29 38.29 0 0 1 -.28-6.7c0-2.86-1.08-5.08-4.09-5.25s-4.15 1.86-4.7 4.7c-.61 3.14 2 8.8-2.2 8.91-4.49.11-1.93-5.55-2.49-8.61-.5-2.78-1.35-5-4.43-4.95s-4.29 2.1-4.38 5a3.61 3.61 0 0 1 0 .74c-.81 2.79 1.88 8.08-2.61 7.9-4.08-.19-1.07-5.54-2.19-7.48z"/><path d="m352.2 186.42c3.24 0 6.48-.06 9.71 0 1.79 0 3.74.33 3.7 2.67 0 2-1.89 2.37-3.3 2.16-7.81-1.18-7.59 3.8-7.34 9.11.19 4 0 8 0 12 0 1.85-.44 3.65-2.66 3.83-2.71.21-3.27-1.76-3.3-3.93-.05-4.49-.3-9 0-13.45.38-5.11-.69-8.28-6.74-7.55-1.59.19-3.91.12-3.79-2.37.11-2.27 2.21-2.38 4-2.42 3.24-.09 6.52-.05 9.72-.05z"/><path d="m322.81 216.38c-11.81 0-11.82 0-11.82-11.65q0-7.14.06-14.27c0-1.85.42-3.73 2.66-3.83 2.59-.12 3.32 1.76 3.33 4 0 4.75.34 9.54 0 14.26-.42 5.25 1.46 7 6.75 6.85 3.65-.1 10.61-2 10.45 1.95-.21 5.34-6.95 1.55-10.65 2.68a2.68 2.68 0 0 1 -.78.01z"/><path d="m376.33 166.18c0-3.5-.1-7 0-10.49.07-2 1.26-3.44 3.35-3.19 1.69.21 2.29 1.74 2.31 3.38.05 4.49.38 9 0 13.48-.42 5.45 1.4 7.7 7.14 7.54 3.34-.1 9.56-2.06 9.58 2.15s-6.2 1.66-9.61 2.38a7.4 7.4 0 0 1 -1.49 0c-11.49 0-11.49 0-11.51-11.51v-3.75z"/><path d="m380.5 138.11c1.93-3-2.27-8.41 4.3-8.6 14.36-.41 15 .08 15.17 9.08 0 1.24.08 2.49 0 3.73-.17 1.86.45 4.62-2.42 4.53s-2.11-2.84-2.27-4.68 0-3.5-.17-5.22c-.3-2.56-1.85-4.09-4.46-4s-4.12 1.48-4.35 4.14a10.43 10.43 0 0 1 -.13 1.48c-.69 2.86 1.6 8.21-2.54 8-4.84-.19-1.21-5.81-3.13-8.46z"/><path d="m91.79 128.89c-.15 1.22.31 2.68-1.33 3.13a2.58 2.58 0 0 1 -3.11-1.39c-2.87-5.22-6.2-10.27-8.38-15.77-1.97-4.86 3.23-6.53 6.03-7.86 3.75-1.81 3 2.58 3.47 4.41 1.36 5.77 2.26 11.67 3.32 17.48z"/><path d="m166.87 176.8c-.59 4.59-1.93 8.43-7 8.34-4.76-.09-8-2.83-8.2-7.79s2.89-7.31 7.35-7.51c4.79-.22 6.98 3 7.85 6.96z"/><path d="m342.82 128.91a14.26 14.26 0 0 1 3.29.58c1.59.56 3.8 1.3 2.84 3.55-.75 1.75-2.6.94-4 .32-3.86-1.74-6.85-.81-8.84 2.91a4.63 4.63 0 0 0 1 5.55 6.31 6.31 0 0 0 7.54 1.59c1.54-.62 3.64-2 4.38.36.62 2-1.67 2.88-3.34 3.29-4.61 1.14-9 .85-12.49-2.89-2.42-2.61-3.26-5.82-1.78-9 1.96-4.26 5.5-6.44 11.4-6.26z"/><path d="m399.67 234.63c-.58 1.9 1.26 5.72-2.3 5.73-2.9 0-1.66-3.56-1.83-5.59-.22-2.52 0-5.46-3.37-5.63-3.66-.18-4.13 2.63-4.3 5.63-.12 2 1.11 5.56-1.82 5.59-3.59 0-2.21-3.74-2.3-5.91-.36-8.74.18-9.25 9.49-9 5.83.21 6.49 4.37 6.43 9.18z"/><path d="m242 227.93c-3.45 2.45-6.1-.82-8.46 1.67 1.25 4 12 2.29 7 9.54-2.87 4.14-7.82 2.59-12.19-.36 3-3.2 6.28 1.58 8.82-1.87-.93-3.86-11.23-1.74-7.1-8.79 2.6-4.4 7.08-3.12 11.93-.19z"/><path d="m301.82 237.62c-4.56 5.31-9.13 4.71-13.25 1.38s-4-7.61-.12-10.95c4.11-3.55 8.64-4.15 13.27 1.09-4.41 1.33-11.6-3.23-11.29 4.61.28 7.15 6.91 2.8 11.39 3.87z"/><path d="m245.41 238.49c3.71-2.36 6.38 1.43 9.13-1.12-.79-4.29-11.79-2.45-6.77-9.78 2.55-3.73 6.92-2.57 10.65-.24-1.6 4.06-5.49-.92-7 2.65 1.66 3.37 10.71 2.23 6.87 8.65-2.97 4.98-7.98 3.07-12.88-.16z"/><path d="m300.88 137.77c0-8.86.82-9.57 9.8-8.67 1.06.1 1.92.34 2.14 1.55a2 2 0 0 1 -1.5 2.25c-4.1 1.5-5.5 4.54-5.62 8.66-.06 2 .88 5.27-2.38 5.22s-2.19-3.25-2.41-5.3c-.13-1.23-.02-2.48-.03-3.71z"/><path d="m318.79 138.28c1.22-2.88-1.8-8.53 2.85-8.55s2.56 5.59 2.51 8.63 2.21 8.43-2.86 8.28c-3.89-.11-1.55-5.38-2.5-8.36z"/><path d="m346.38 240.09c-5.37 1.92-9 1.19-8.5-4 .39-4.21-4-8.24-.12-12.47 1.59-1.71 3.2-2.27 3.66.17.44 2.29 6.47 1.62 3 4.68-5.42 4.81-2.73 7.73 1.96 11.62z"/><path d="m306.4 232.88c.72-2.23-1.18-6.31 2-6.24 4.31.1 2.33 4.56 2.45 7.09.11 2.36 1.34 6.84-2.21 6.55s-1.41-4.88-2.24-7.4z"/><path d="m355.48 233.65c-.79 2.16 1 6.43-2.1 6-3.36-.48-1.62-4.89-1.77-7.55-.1-1.89-1-5.64 1.83-5.25 3.56.48 1.14 4.52 2.04 6.8z"/><path d="m324 124.4a2.17 2.17 0 0 1 -2.94 1.7c-.75-.23-1.8-1.2-1.8-1.84 0-1.36 1.16-2.07 2.52-2a2.23 2.23 0 0 1 2.22 2.14z"/><path d="m315.82 151.78c-10.13 0-17.66 6.83-17.32 15.64.33 8.38 7.87 14.41 17.85 14.27 9.75-.14 17.22-6.8 17-15.2s-7.81-14.74-17.53-14.71zm.35 25.23c-6.39.09-11.41-4.5-11.37-10.41 0-5.53 4.88-10.1 10.83-10.18 6.21-.1 11.46 4.71 11.43 10.45-.06 5.53-4.89 10.05-10.89 10.13z"/><path d="m354.17 151.76c-10.12 0-17.73 6.74-17.43 15.51.3 8.53 7.66 14.56 17.65 14.44 9.8-.11 17.15-6.61 17.06-15.09s-7.45-14.82-17.28-14.86zm11.14 15.66c-.4 5.76-6 10.11-12.24 9.53-6.05-.55-10.53-5.35-10.19-10.9s6.06-10.14 12.24-9.56c6 .56 10.56 5.51 10.19 10.93z"/><path d="m304.75 212.25c-4.3-7.81-8.73-16.74-14.09-25.09-1.75-2.71-5.05-.85-6.55 2-3.95 7.49-7.83 15-11.71 22.55-.7 1.37-1.28 3 .21 4.06 1.69 1.18 3.09.32 4.46-1.19 7.09-7.77 15.36-7.77 22.25-.08 1.08 1.2 2.11 2.14 3.78 1.65 1.35-.41 2.03-1.35 1.65-3.9zm-12.24-9.25c-1.4 3.22-5.89 1.11-9.71 1 .69-1.69 1.08-2.82 1.61-3.88 1-2 2.07-3.91 3.39-6.38 3 2.75 5.87 6.56 4.71 9.26z"/><path d="m228.53 142.89c-2.91-5.77-5.8-11.54-8.91-17.2-1.93-3.52-4.82-3.86-6.88-.37-3.4 5.76-6.31 11.82-9.31 17.82-.79 1.58-1.27 3.42 1.58 3.91a20.14 20.14 0 0 0 1.75-1.15c7.66-6.24 11.29-6.29 18.27 0 1 .92 2 1.67 3.23.94 1.79-1.11.91-2.68.27-3.95zm-9.68-5.6c-1 1.45-4.4 1.35-5.49.09-2.66-3.06 1-5.07 2.3-9 2.1 3.76 5.26 5.81 3.19 8.91z"/><path d="m291.93 131.77c-3.73-4-10.87-4-14.83-.06a8.87 8.87 0 0 0 .22 13.24c4.5 4.05 11.18 3.46 15.39-1.62-4-1.45-9.46 4-13.08-3.63 3.79 0 6.51.08 9.22 0 1.9-.07 4.31.58 5.17-1.88s-.53-4.38-2.09-6.05zm-7.34 5.33c-1.81-.59-4.44.59-4.23-2.14.14-1.76 2.05-2.77 4-2.65s4.44.55 4.21 3.08-2.96.76-3.98 1.71z"/><path d="m372 131.76c-3.24-4.11-8.1-3-12.54-2.29-1.15.19-2.61.86-2.09 2.45s1.88 1.26 3.15 1c2.87-.55 5.74-1 8.17 2.89-3.36.29-6 .29-8.56.79-3.67.72-5.89 3-4.92 6.92a5.29 5.29 0 0 0 5.76 3.9c4.2-.26 10 1.2 12.11-2.21 2.29-3.64 2.09-9.44-1.08-13.45zm-7.84 12.66c-2 0-4.49-.12-4.17-2.83.27-2.32 2.68-2.65 4.71-2.55 1.61.09 3.65-.25 3.9 2.23-.53 2.46-2.37 3.14-4.44 3.15z"/><path d="m224.06 237.58c-2.61-5.07-5.15-10.18-8-15.13-1.21-2.14-3.58-2.42-4.89-.35-3.6 5.68-6.76 11.64-8.4 18.72 6.65-5.56 12.78-8.24 19-.41.25.31 1.48.18 2-.16 1.07-.68.73-1.8.29-2.67zm-11.16-4.82c-1.3 0-2.58-.47-2.05-2.21.41-1.37.84-3.29 2.41-3.35 2.17-.07 2.18 2.3 3 3.72-.2 2.39-2.02 1.85-3.36 1.84z"/><path d="m272.33 225.35c-4.56.55-8.7 2.5-8.87 8s4 7.9 8.94 8 9.12-2.06 9.24-7.68-4.03-7.6-9.31-8.32zm.2 12.88c-2.91-.34-5.11-1.75-4.94-5.11.15-2.94 2.22-4.45 5-4.4 3.08.06 5.28 1.73 5.14 5.05-.12 2.96-2.31 4.14-5.2 4.46z"/><path d="m328.81 227.2c-3.56-2.77-7.58-2.38-11.58.28 2.5 3.07 5.95-.3 7.95 2.5-.2 2.31-2.19 1.16-3.36 1.5-2.89.81-6.14 1.22-6.13 5.25a4.21 4.21 0 0 0 4.31 4.33c3.7.06 8.87 1.34 10.6-2.15 1.65-3.34 2.16-8.65-1.79-11.71zm-6.08 11.42c-1.55-.15-3-.78-2.58-2.64.52-2.22 2.55-1.79 4.18-1.76 1.27 0 2.37.41 2.39 2a3.55 3.55 0 0 1 -3.99 2.4z"/><path d="m369.79 225.37c-4.8.78-9.12 2.3-9.09 8.07s4.07 7.82 9.05 7.82 9-2.27 9.08-7.85-4.23-7.34-9.04-8.04zm.13 12.72c-3.05 0-5.34-1.58-5.28-4.88 0-2.88 2.09-4.48 4.86-4.54 3.15-.07 5 1.74 5.31 4.84-.32 3.03-2.1 4.59-4.89 4.58z"/></g></svg>