<svg viewBox="0 0 400 400" xmlns="http://www.w3.org/2000/svg"><g fill="#f5f5f5"><path d="m199.19 2h129.1a20.42 20.42 0 0 1 6.51.85 17.81 17.81 0 0 1 12.2 16.83v1.5q0 122.58 0 245.15a24.67 24.67 0 0 1 -.61 5.94 17.57 17.57 0 0 1 -16.9 13.22h-259.14a24.6 24.6 0 0 1 -5.35-.49 17.66 17.66 0 0 1 -13.8-17.2c0-.49 0-1 0-1.5v-245.15a21.74 21.74 0 0 1 1-7.38 17.65 17.65 0 0 1 16.23-11.77h2.55zm-.35 7.05h-108.84c-5.81 0-11.6-.09-17.4 0-6.13.15-10.6 3.1-13.49 8.5a16.83 16.83 0 0 0 -1.65 8.13q0 117.17 0 234.34v1.65a15.25 15.25 0 0 0 11.38 14.48 20.11 20.11 0 0 0 4.89.56q125 0 250.08 0h1.05a15.4 15.4 0 0 0 14.43-10.71 21.45 21.45 0 0 0 .76-6.52v-233.14a26.4 26.4 0 0 0 -.16-3.45c-.78-6.48-4.32-10.8-10.4-13.08a16.16 16.16 0 0 0 -5.75-.76z"/><path d="m198.81 294.79q64.17 0 128.35 0c8 0 13.34 3.65 17 10.4a25.63 25.63 0 0 1 2.84 12.39q0 10 0 19.95v37.63a27.43 27.43 0 0 1 -2 10.84 21.13 21.13 0 0 1 -6.2 8.5 16.2 16.2 0 0 1 -10.08 3.71h-1.8q-128.25 0-256.52 0c-8 0-13.46-3.69-17.11-10.5a24.32 24.32 0 0 1 -2.76-11.71v-33.26c0-8.69 0-17.39 0-26.09a24.41 24.41 0 0 1 3.38-12.58c2.53-4.27 6-7.45 10.94-8.75a21.88 21.88 0 0 1 3.69-.53c.9-.07 1.8 0 2.7 0zm.44 7.56h-125.06a20.64 20.64 0 0 0 -3.43.16 15.29 15.29 0 0 0 -13 15.45v23.54c0 11.1-.09 22.19 0 33.29.08 6.49 3.27 11.18 9.13 14a16.7 16.7 0 0 0 7.31 1.32q125 0 250 0h1.35a14.74 14.74 0 0 0 9-3.1 15 15 0 0 0 6.09-12.3c.06-10.24 0-20.49 0-30.74 0-8.74.05-17.5 0-26.24a15 15 0 0 0 -6.36-12.46 15.6 15.6 0 0 0 -9.56-2.91q-62.72.02-125.47-.01z"/><path d="m198.48 268.17q-58.09 0-116.21 0a15.73 15.73 0 0 1 -11.2-4.17 15.45 15.45 0 0 1 -5-11.45c0-.5 0-1 0-1.5q0-108 0-215.92a18.27 18.27 0 0 1 1-6.61 15.83 15.83 0 0 1 14.57-10.22h1.65q115.32 0 230.61 0a22.62 22.62 0 0 1 4.92.42 15.65 15.65 0 0 1 12.4 15.13v1.5q0 107.87 0 215.76a23 23 0 0 1 -.39 4.62 15.6 15.6 0 0 1 -15.52 12.46h-79zm.41-72.2c.58.39 1.09.71 1.57 1.05q17.29 12.15 34.61 24.28l32.27 22.64a2.33 2.33 0 0 0 1.44.71l-.23-.69-22.44-69.7c-1.08-3.37-2.15-6.75-3.27-10.12-.27-.79-.2-1.35.55-1.77.21-.13.42-.28.62-.43l64.39-46.29c.46-.33.93-.71 1.38-1.05l-.06-.24h-81.65c-.5 0-1 0-1.5 0a.94.94 0 0 1 -1-.72c-.1-.33-.22-.66-.33-1q-12.59-39.12-25.24-78.25c-.16-.53-.37-1-.64-1.83-.21.58-.32.85-.41 1.14q-9.56 30.68-19.13 61.3l-5.4 17.29c-.53 1.65-.53 1.65-2.28 1.68h-.75l-40.34.19q-21.14.09-42.28.18c-.51 0-1 0-1.53 0a3.51 3.51 0 0 0 1.06 1l67.1 46.33c2.1 1.46 1.89 1.07 1.17 3.33q-12.31 38.81-24.69 77.6c-.17.51-.29 1-.51 1.81z"/><path d="m198.8 383.62h-123.24a14.52 14.52 0 0 1 -3.84-.45 9.44 9.44 0 0 1 -6.83-8.88c0-.41 0-.8 0-1.2q0-26.44 0-52.92a15 15 0 0 1 .38-3.55 9.32 9.32 0 0 1 8.14-6.93c.8-.07 1.61-.1 2.4-.1h245.72a15.9 15.9 0 0 1 3.72.32 9.37 9.37 0 0 1 7.21 9.32v26.69c0 9.41.05 18.79 0 28.19a9 9 0 0 1 -5.87 8.78 14.49 14.49 0 0 1 -3.48.75 12.69 12.69 0 0 1 -1.95 0zm64.06-59.41c-.42 2.46-.81 4.81-1.22 7.17s-.78 4.83-1.2 7.24a36.54 36.54 0 0 1 -1.45 6.84l-3.66-21.11h-12c-.33 1.71-.39 45.18-.06 46.31h9.29v-27.36h.3l4.19 27.4a18.41 18.41 0 0 0 4.14-.12l4.23-27.49h.36v27.5h9.58l-.3-46.4zm-173.4-.06c0 .48-.08 1-.08 1.44v6.15 31a3.06 3.06 0 0 0 1.06 2.47c1.66 1.52 3.27 3.09 4.87 4.67a2.54 2.54 0 0 0 2 .82q4.95-.08 9.9 0a2.21 2.21 0 0 0 1.79-.7c1.59-1.72 3.21-3.43 4.87-5.08a2.83 2.83 0 0 0 .87-2.25q0-18.51 0-37v-1.54h-10.62v37.71a16.17 16.17 0 0 1 -4.12-.11v-37.56zm142 23.35c1.44-1.31 2.75-2.54 4.1-3.71a1.86 1.86 0 0 0 .7-1.54c0-3.55 0-7.09 0-10.65a2.11 2.11 0 0 0 -.73-1.69c-1.73-1.61-3.44-3.21-5.09-4.87a2.79 2.79 0 0 0 -2.25-.9c-4.94 0-9.89 0-14.84 0-.48 0-1 .05-1.46.06v46.48h10.25v-18.68a24.22 24.22 0 0 1 4.48.21v18.5h9.63v-1.49c0-5.3 0-10.59 0-15.9a2.69 2.69 0 0 0 -1-2.32c-1.26-1.1-2.46-2.3-3.78-3.54zm-39.69 14.69h5.77l.89 8.31a55.94 55.94 0 0 0 10.29-.15l-6.62-46.29h-15.22l-6.23 46.49h10.46zm-54.87-6.41v7.78a2.29 2.29 0 0 0 .69 1.23c1.71 1.75 3.48 3.45 5.18 5.22a2.23 2.23 0 0 0 1.86.71h9.44a2.24 2.24 0 0 0 1.85-.73c1.74-1.8 3.49-3.57 5.29-5.31a2.3 2.3 0 0 0 .77-1.84q0-6.07 0-12.15a2.33 2.33 0 0 0 -.78-1.84c-1.65-1.61-3.32-3.2-4.88-4.89a3.56 3.56 0 0 0 -3.13-1.29c-1.83.09-3.67 0-5.61 0v-9.67h3.67l.23 5.88h9.87a3 3 0 0 0 .13-.49c0-2.36 0-4.7 0-7.05a1.73 1.73 0 0 0 -.72-1.4c-1.87-1.72-3.76-3.43-5.62-5.17a2.16 2.16 0 0 0 -1.61-.64c-3.1 0-6.19 0-9.29 0a2 2 0 0 0 -1.58.66c-1.63 1.67-3.3 3.34-5 5a2 2 0 0 0 -.63 1.59q0 6.3 0 12.6a2.28 2.28 0 0 0 .69 1.72q2.69 2.61 5.3 5.31a2.12 2.12 0 0 0 1.72.69h5.1c.52 0 1 .06 1.57.08v9.92c-1.42 0-2.74.09-4.06-.06-.15-2 .08-3.94-.15-5.83zm156.1-16.24h-.34l-3.5-15.32c-2.5-.32-9.1-.21-10.21.16.15.51.27 1 .44 1.56q3.78 11.85 7.54 23.69a10.13 10.13 0 0 1 .43 2.78c.09 5.5.14 11 .2 16.49 0 .54 0 1.08.07 1.7h10.44v-1.65c0-5.51 0-11 0-16.5a10 10 0 0 1 .48-3.07q3.78-11.78 7.63-23.51c.17-.51.3-1 .45-1.56a49.69 49.69 0 0 0 -10.13 0zm-125.5 22.37v8.61h10.07v-8.61zm-36.6 8.74c0-1.56 0-2.94 0-4.33s.08-2.85-.07-4.26h-10.11v8.59z"/><path d="m119.73 123.38 61.84.44 17.11-63.29c.81.22.72.88.84 1.33q2.31 8.2 4.57 16.45l12.12 43.69c.15.57.37 1.13.6 1.8h63.83c-.19.86-.81 1.07-1.24 1.4q-9.21 6.8-18.4 13.43l-29.71 21.61-1.42 1.08 22.13 59.55a1.64 1.64 0 0 1 -.25.19.27.27 0 0 1 -.15 0 .22.22 0 0 1 -.14-.05 2.92 2.92 0 0 1 -.37-.24l-52.82-37.73a1.63 1.63 0 0 0 -.39-.13c-7.93 6-15.94 12.25-24 18.41l-24 18.48c-.41-.72-.05-1.2.1-1.68l10.34-33.12q3.78-12.07 7.57-24.14c.06-.19.11-.39.17-.57.39-1.3.39-1.32-.69-2.1-2.85-2-5.68-4.09-8.53-6.12q-19.05-13.67-38.12-27.33c-.39-.29-.75-.6-1.12-.9zm118.51 79.39.3-.2-16.48-44.31c12.68-9.23 25.28-18.35 37.83-27.51l-.14-.35h-47.46l-13.06-47.11h-.23l-12.74 47.13c-15.45 0-30.74-.36-46-.28l-.07.3 36.38 26.07-14.13 45.11.23.16 35.82-27.53z"/><path d="m226.25 343.07h-4a54.14 54.14 0 0 1 -.12-9.85 15.57 15.57 0 0 1 4-.12 50.84 50.84 0 0 1 .12 9.97z"/><path d="m192.56 353.11 1.7-17.61h.31l2.22 17.62z"/></g></svg>