<svg viewBox="0 0 400 400" xmlns="http://www.w3.org/2000/svg"><g fill="#f5f5f5"><path d="m164.46 150.43c21.71.5 38.21 8.68 48 28.16 1.86 3.6 2.11 5.46-2.85 5.83-4.34.25-8.56 1.49-12.78 2.11-7.44.87-14.26 3.35-21.58-3.35s-20.47-3.1-26.3 5.09c-6.33 8.93-5 21.71 3 28.78 7.57 6.82 20 6.45 27.54-1.12 2.11-2.11 3.85-2.85 6.95-2.23 7.69 1.61 15.39 2.85 23.2 3.72 4.71.5 4.59 2.11 3 5.83-8.69 18.73-29.28 29.9-52.23 28-26.55-2.11-45.65-21.34-47.14-47.14-1.49-26.3 14.76-47.27 40.94-52.48 3.55-.95 7.28-.95 10.25-1.2z"/><path d="m103.09 186c-4.83-20.34-24.19-36.59-45.52-35.48a60.68 60.68 0 0 0 -24 6.21c-.12-3.73-.25-6.7-.37-9.8.12-13.4 0-26.8.25-40.2 0-3-1-4-4-3.84-8.07.12-16 .24-24.07.12-3.1 0-3.84 1.36-3.84 4.09.12 14.77.24 29.65.37 44.42-1.37 11.9-.5 23.94-.62 35.85-.13 18.61 0 37.22 0 55.82 0 2.61-.75 5.71 3.6 5.59 8.06-.13 16.12 0 24.19 0 .74 0 2.23-.25 2.23-.5 1.61-6.95 5.09-2 7.44-1 16.63 7.56 38.46 4.09 51.24-8.81 14.72-14.72 17.82-32.59 13.1-52.47zm-50.36 35.51c-11.66 0-19.73-8.31-19.73-20.59 0-12.53 7.45-20.47 19.48-20.59 12.52-.13 20.52 7.81 20.52 20.34.07 12.33-8.24 20.84-20.27 20.84z"/><path d="m374.62 155.89c-13.28-6.45-26.8-7.32-40.82-2.36-2.85 1-6.33 6.58-8.93-.62-.12-.37-1.86-.37-3-.37h-9.87c-16.87 0-16.87 0-16.5 16.62 0 20.84.12 41.68.12 62.53s-.12 41.68-.37 62.52c0 3.72 1.24 4.59 4.71 4.47 5.59-.25 11.17 0 16.75 0 10.55 0 10.55 0 10.55-10.8v-42.88c16.37 7.94 31.88 9.06 47.39.25 31.35-16.67 33.59-70.75-.03-89.36zm-27.3 24.44c11.54.12 20 8.8 20 20.59s-8.94 20.72-20.84 20.59c-11.67-.12-20.35-9.3-20-21.33.25-11.67 9.06-19.98 20.84-19.85z"/><path d="m269 152.54c-8.8 0-8.8 0-8.43-9.06.37-9.8 5.08-15.63 13.64-14.51 7.94 1.11 8.44-2.24 7.7-8.07a8.9 8.9 0 0 1 0-1.86c0-18.36 0-18.36-18.36-18.11-20.35.25-32.26 11.29-34 31.63-1.36 15.88-.62 31.76-.49 47.64a386.52 386.52 0 0 0 0 41.69c0 7.69.12 15.25 0 23-.13 3.1.87 4.34 4.22 4.34 7.81-.25 15.75-.13 23.57 0 2.85 0 4.09-.62 4-3.72-.25-6.58-.25-13.15-.38-19.85.13-10.3.25-20.6.25-30.89 0-13.9 0-13.9 13.77-13.9 7.82 0 7.82 0 7.07-7.81.13-2.48.5-5 .5-7.32-.06-13.2-.06-13.2-13.06-13.2z"/></g></svg>