<svg viewBox="0 0 400 400" xmlns="http://www.w3.org/2000/svg"><g fill="#f5f5f5"><path d="m397 111.65v176.89h-394.92c0-.37-.06-.72-.06-1.07q0-87.33 0-174.66c0-.88.2-1.31 1.14-1.17a5.34 5.34 0 0 0 .8 0h393.04zm-6.47 6.5h-382.01v164h382z"/><path d="m11.3 120.89h376.46v158.44h-376.46zm295 25.86v1.78a10.89 10.89 0 0 1 1.51.16c1.27.33 2.53.7 3.79 1.09.79.24 1 .77 1 1.64q0 17.82 0 35.66v1.19a3.77 3.77 0 0 1 -3.57 3.92c-.94.15-1.89.2-2.86.31v1.65h17.83v-1.66c-1.26-.11-2.45-.16-3.63-.3-2.38-.28-3.39-1.25-3.74-3.63a19.83 19.83 0 0 1 -.16-2.67q0-15.39 0-30.8c0-.28 0-.55.05-.83l.23-.12a10.59 10.59 0 0 0 .66.84l37 38.73a3.13 3.13 0 0 0 3.25.95v-41.93c0-2.82.8-3.71 3.63-4 .82-.09 1.65-.09 2.47-.15q.36 0 .72-.12c.2-1.71.2-1.71-1.35-1.71h-16.6v1.79c.69 0 1.34.07 2 .15a25.51 25.51 0 0 1 2.74.41 2.92 2.92 0 0 1 2.43 2.66 20.52 20.52 0 0 1 .18 2.47q0 14.11 0 28.22c0 .31 0 .62-.05.93l-.25.13a7.84 7.84 0 0 0 -.66-.86l-33.76-35.15a2.16 2.16 0 0 0 -1.8-.78c-1.49.05-3 0-4.47 0zm-271.6 47.4h.46 28.51a16.81 16.81 0 0 0 7.91-2c6.29-3.35 9.23-11.3 6.4-17.4-1.67-3.61-4.69-5.72-8.25-7.2-.43-.18-.88-.35-1.51-.59l1.22-.4c5-1.73 7.76-6.19 6.74-11.14-.83-4-3.58-6.39-7.28-7.71a30.78 30.78 0 0 0 -10.76-1.58c-7.16.09-14.31.37-21.45.57-1.52 0-1.68.29-1.18 1.8 1.45.06 2.9.07 4.35.2 2.35.19 3.43 1.26 3.78 3.59a16.17 16.17 0 0 1 .15 2q0 15.9 0 31.8v1.59c-.18 3-1.26 4.22-4.27 4.55-1.57.17-3.16.2-4.79.28zm237.17-48.66c-2.19.26-4.43.37-6.58.83-9.14 1.93-16.07 6.82-19.46 15.74-4.61 12.14-.27 24.5 12.11 30.36a29.86 29.86 0 0 0 18.57 2.58c10.6-2 18-8 21.16-18.45a22.44 22.44 0 0 0 -8.88-25.72 30.25 30.25 0 0 0 -16.91-5.3zm-155.14-.05c-2.48.35-5 .49-7.44 1.08-9.3 2.24-16.05 7.57-19 16.86-3.75 11.69.56 22.85 11.69 28.6a29.78 29.78 0 0 0 19.47 3c10.15-1.87 17.38-7.51 20.83-17.41s.56-19.63-7.38-25.87c-5.29-4.16-11.4-6-18.12-6.23zm95.36 4.45v37.33c0 3.75-1.35 5.07-5.09 5.17h-3.6v1.74h24v-1.73c-.41 0-.77 0-1.12 0-1.45-.06-2.92 0-4.35-.24a3.34 3.34 0 0 1 -3.09-3.23 15.89 15.89 0 0 1 -.16-2.28q0-17.84 0-35.66v-1.12h12.05c3.25 0 4.27.73 5.27 3.82.21.66.37 1.34.53 2 .2.83.36 1.67.54 2.48h1.69l-1.24-12.56c-.65 0-1.47-.12-1.64.15-.84 1.29-2.1 1-3.23 1q-17.38 0-34.77 0a10.52 10.52 0 0 1 -1.59-.08c-.35 0-.84-.15-1-.39-.54-.95-1.31-.6-2.11-.55l-1.18 12.42c1.69.2 1.62.19 2-1.28a41.82 41.82 0 0 1 1.45-4.82 3.15 3.15 0 0 1 3-2.14c4.51-.06 9 0 13.66 0zm-30.21 6.74a5.61 5.61 0 0 0 0-.82l-1.11-8.16a1 1 0 0 0 -1.66-.7 2.35 2.35 0 0 1 -2.4.42c-.71-.15-1.39-.44-2.08-.65a19.34 19.34 0 0 0 -13.31.12c-7.52 3-9.63 10.9-4.55 17.15a20.56 20.56 0 0 0 3.71 3.57c2.58 1.9 5.28 3.63 8 5.41a38.19 38.19 0 0 1 7.38 5.66c4.2 4.59 2.85 10.89-2.85 13.37-7 3.05-15-.85-17.26-8.43-.42-1.41-.56-1.48-2.1-1l1.63 11.82a5.71 5.71 0 0 0 1.76-.48 2.16 2.16 0 0 1 1.95-.36c1.85.48 3.7 1 5.57 1.4 5.18 1.1 10.1.48 14.51-2.61a11.8 11.8 0 0 0 2.55-17.43 22.62 22.62 0 0 0 -4.35-4.17c-3.34-2.38-6.89-4.44-10.24-6.83a35.65 35.65 0 0 1 -5.22-4.52 6.46 6.46 0 0 1 -1.57-6.1c.68-3 3.37-5.09 6.85-5.35a12.75 12.75 0 0 1 12.81 7.72 1.48 1.48 0 0 0 1.98.97zm-65.14 64.37h-11.9v1.19l1.27.13c3.12.29 3.5.7 3.51 3.88q0 8.88 0 17.78c0 .31 0 .61-.08 1.22-.42-.48-.64-.76-.89-1q-10.8-11.27-21.58-22.54a2.09 2.09 0 0 0 -1.72-.73c-2 .05-4 0-6.06 0-.35 0-.7 0-1.09.06l.06 1.06c1.15.29 2.18.53 3.19.82.73.2 1 .67 1 1.47v16.69 7.35a2.39 2.39 0 0 1 -2.52 2.62l-1.72.19v1.16h11.85v-1.19l-1.72-.16c-2.46-.16-3.19-.79-3.22-3.29-.06-7 0-14-.05-21.07a4.46 4.46 0 0 1 .18-.72c.38.48.6.81.87 1.1q11.94 12.49 23.87 25a2 2 0 0 0 2.26.59v-27c0-.37 0-.73 0-1.09.11-1.44.56-1.94 2-2.13.82-.11 1.64-.16 2.49-.24zm103.37 18.31c.74 0 1.37.09 2 .1a7.68 7.68 0 0 0 2-.1c1.9-.52 3 .35 4.1 1.81 2.21 2.92 4.6 5.72 7 8.52 2.73 3.21 6.46 3.38 10.31 3.25 0-.58.37-1.21-.56-1.32a8.67 8.67 0 0 1 -5.86-3.57q-4-5.07-8-10.14c.67-.37 1.35-.69 2-1.1a8.1 8.1 0 0 0 -.4-14.07 17 17 0 0 0 -4.85-1.62c-4.24-.8-8.52-.31-12.78-.14l-4.3.21v1.33h2c1.76.1 2.64.81 2.66 2.56q.09 11.72 0 23.45c0 1.73-.9 2.44-2.65 2.6l-2 .16v1.15h14.33v-1.14c-.91-.07-1.77-.12-2.62-.2-1.43-.16-2.3-.85-2.34-2.25-.12-3.1 0-6.2 0-9.42zm-146.77-18.31h-12v1.19l1.51.18c2.19.2 3.17 1.07 3.2 3.27.07 5.23.18 10.47 0 15.7a8.42 8.42 0 0 1 -5.79 8 15.82 15.82 0 0 1 -7 .79c-5.86-.49-9.22-3.87-9.46-9.74-.18-4.33-.07-8.67-.08-13 0-.86 0-1.72.09-2.58a2.32 2.32 0 0 1 2.32-2.47c.65-.09 1.29-.15 1.92-.22v-1.11h-13.17l.06 1.11.39.09c3 .24 3.91 0 3.88 4.34v3c0 3.84-.09 7.68 0 11.52.18 5.06 2.58 8.8 7.3 10.74a19.09 19.09 0 0 0 14.62 0 11.25 11.25 0 0 0 7.13-8.09 17.87 17.87 0 0 0 .51-4.12c.07-4.43 0-8.87 0-13.31 0-2.72.92-3.69 3.57-4.05l.9-.14zm114.35 16.29c3.21 0 6.31-.05 9.41 0 .49 0 1.08.6 1.39 1.07a4.09 4.09 0 0 1 .49 1.7c.09.89.44 1.26 1.39.9v-9.69h-1.18c-.08.49-.15.94-.24 1.39-.33 1.72-1 2.3-2.78 2.33-1 0-2 0-3 0h-5.44v-12h9c3.15 0 3.9.61 4.57 3.7a4.17 4.17 0 0 1 .08.49c.07.87.5 1.15 1.43.8l-.42-7.08h-24.27v1.16c.71 0 1.37.06 2 .12 2.25.23 3 .91 3 3.14q0 11.26 0 22.54c0 2-.86 2.85-2.91 3-1 .08-2 .13-3.07.2v1.16h26.86l.82-7.61c-.86-.28-1.31-.11-1.53.75a12.64 12.64 0 0 1 -.88 2.31 3.76 3.76 0 0 1 -3.57 2.39q-4.58.06-9.14 0c-1.33 0-1.92-.55-1.94-1.88-.06-3.63 0-7.27 0-11zm-47-15.13c.4 0 .76.1 1.12.12a3.2 3.2 0 0 1 3 2.15c.29.66.6 1.32.87 2q5.16 12.89 10.34 25.77c.13.33.3.87.51.9a7.81 7.81 0 0 0 2.46 0c.27 0 .47-.72.63-1.14q5.06-13 10.08-26c.85-2.21 2.21-3.74 4.77-3.81.05 0 .1-.07.15-.11v-1.04h-11.78v1.12c1.09.15 2.15.22 3.17.46a1.56 1.56 0 0 1 1.34 2.13 12.88 12.88 0 0 1 -.67 2.19q-3.56 9.36-7.15 18.71l-.63 1.63a2 2 0 0 1 -.25-.32q-4.36-10.86-8.71-21.72c-.56-1.4-.12-2.21 1.39-2.56 1.08-.25 2.21-.33 3.36-.5v-1.14h-14zm189-.17a13 13 0 0 1 3.49 1.06 10.51 10.51 0 0 1 2.82 2.95c3.1 4.69 6.11 9.45 9.14 14.19a1.51 1.51 0 0 1 .32.71c0 2.58 0 5.16-.09 7.75-.08 1.51-.94 2.18-2.47 2.35-.77.09-1.55.14-2.31.2v1.14h14v-1.15l-1.83-.16c-1.84-.17-2.63-.92-2.69-2.78-.08-2.59-.05-5.17-.05-7.75a1.74 1.74 0 0 1 .24-.84c2.82-4.75 5.63-9.51 8.48-14.24a6.07 6.07 0 0 1 4.85-3.06 5.69 5.69 0 0 0 .91-.2v-1.16h-11.63v1.15c.67.08 1.3.13 1.91.24 1.2.21 1.59.85 1.17 2a9.81 9.81 0 0 1 -.79 1.59q-3.06 5.23-6.14 10.44c-.15.27-.33.52-.54.85-.24-.36-.43-.62-.61-.9l-7-10.83a11 11 0 0 1 -.75-1.28c-.51-1.08-.23-1.63.93-1.84.74-.13 1.49-.18 2.28-.27l-.05-1.12h-13.55zm-20.18 1.17v12.62 12.21c0 2.23-.73 2.87-2.92 3-.91.06-1.83.09-2.78.14v1.18h16v-1.24c-.71 0-1.34 0-2 0-3.13-.16-3.74-.8-3.74-3.92v-24h9.14a2.06 2.06 0 0 1 1.84 1.59 15.06 15.06 0 0 1 .84 2.95c.15 1 .59 1.11 1.43.78l-.84-8.39a8.72 8.72 0 0 0 -1.26.21c-.54.17-1.05.59-1.57.59q-11.87.06-23.73 0a4.7 4.7 0 0 1 -1.33-.32c-.46-.15-.9-.36-1.47-.6l-.83 8.5c.94.34 1.27 0 1.43-.75a21.59 21.59 0 0 1 .86-3.05 2 2 0 0 1 1.78-1.52c3-.06 6 0 9.17 0zm-60.07 29.21c.41 0 .82.12 1 0 1-.88 1.93-.26 2.89 0 .51.11 1 .26 1.53.39a12.38 12.38 0 0 0 10-1.31 7.89 7.89 0 0 0 2-12 19.45 19.45 0 0 0 -3.51-3.2c-1.72-1.27-3.64-2.29-5.38-3.55a22.51 22.51 0 0 1 -4.14-3.5c-2.29-2.74-1-6.33 2.48-7.21 3.73-.95 7.54 1 9.41 4.89.35.71.72 1 1.52.6l-.89-6.56-1.13.15a12.07 12.07 0 0 1 -1.77.18 7.18 7.18 0 0 1 -1.32-.41c-3.4-1-6.76-1.05-9.9.79a6.77 6.77 0 0 0 -2.23 10.1 14.66 14.66 0 0 0 3 3.12c1.81 1.39 3.8 2.54 5.65 3.86a31.52 31.52 0 0 1 4.43 3.49c2.78 2.89 1.84 7-1.84 8.64a8.32 8.32 0 0 1 -11.24-5.43c-.27-.85-.59-1.16-1.55-.81zm28.08-30.2 1.28.2a2.4 2.4 0 0 1 2.4 2.53v1.19 20.55a15.86 15.86 0 0 1 -.14 2.18 2.18 2.18 0 0 1 -2.19 2.14c-.45.06-.9.12-1.36.2v1.19h12.49v-1.15c-.19 0-.34-.09-.5-.11-3.34-.43-3.67-.8-3.69-4.18v-20.11c0-.63 0-1.26.06-1.89a2.4 2.4 0 0 1 2.44-2.49l1.66-.2v-1.17h-12.4zm-141.52-1.17h-12.38v1.19l1.37.2a2.32 2.32 0 0 1 2.27 2.52v1.59 12.42c0 3.11 0 6.22-.06 9.34 0 1.86-.76 2.54-2.59 2.73-1.19.13-1.21.16-.94 1.36h12.33c0-.21 0-.42.05-.62a3.7 3.7 0 0 0 -.1-.58c-.34 0-.63-.09-.92-.11-2.46-.2-3.13-.91-3.18-3.36v-21.33a10 10 0 0 1 .17-2 2.19 2.19 0 0 1 2.15-2l1.85-.23z"/><path d="m291.23 171c0 5.61-1.06 10.31-3.83 14.5-3.81 5.76-9.29 8.11-16.09 7.55-9.36-.75-17.23-7.75-19.22-18.43-1.27-6.83-.34-13.34 3.59-19.19s9.59-8.08 16.47-7.44c9.47.87 16.36 7.69 18.42 17.34a21 21 0 0 1 .4 2.35c.15 1.32.21 2.66.26 3.32z"/><path d="m136.17 170.65c-.14 6.52-1.33 11.74-4.84 16.2-3.82 4.85-8.94 6.72-15 6.24-10.08-.8-17.66-8.46-19.45-18.89a26.3 26.3 0 0 1 1.28-14.2c4.65-12.07 15.56-14.2 24.59-10.64 7.08 2.79 10.94 8.41 12.62 15.63a55.32 55.32 0 0 1 .8 5.66z"/><path d="m220.08 238v-16c3.15-.12 6.29-.28 9.07 1.58 2.19 1.46 2.7 3.74 2.77 6.16.11 4.77-2.12 7.49-6.81 8.14a38.22 38.22 0 0 1 -5.03.12z"/><path d="m50.45 177.4c0-2.72 0-5.43 0-8.15 0-.74.14-1.07 1-1 3.43.14 6.94-.16 10.29.41 9.56 1.64 12.07 11.29 8.09 18.2-1.64 2.84-4.38 4.14-7.5 4.68a17.93 17.93 0 0 1 -7-.06c-3-.65-4.56-2.32-4.7-5.42-.13-2.88 0-5.76 0-8.64z"/><path d="m50.52 166.27v-18.14c3.85-.14 7.65-.62 11.41.36a9.5 9.5 0 0 1 6.82 12.67 7.05 7.05 0 0 1 -6.42 4.89c-3.84.37-7.73.25-11.59.34-.06.01-.11-.05-.22-.12z"/></g></svg>