<svg viewBox="0 0 400 400" xmlns="http://www.w3.org/2000/svg"><g fill="#f5f5f5"><path d="m90.47 212a29.46 29.46 0 1 0 29.45 29.45 29.63 29.63 0 0 0 -29.45-29.45zm0 53.3a23.5 23.5 0 1 1 23.53-23.5 23.5 23.5 0 0 1 -23.53 23.5z"/><path d="m344.35 241.8c-1.76-.7-11.22-5.61-12.63-6.66-4.91-2.45-6.66-4.91-6.66-8.77 0-5.26 4.56-8.76 11.22-8.76 3.86 0 7.72 1.75 10.17 3.15a2.1 2.1 0 0 0 1.4.35 2.76 2.76 0 0 0 2.81-2.8 3 3 0 0 0 -1.4-2.46 25.92 25.92 0 0 0 -13-3.85c-10.17 0-17.18 6-17.18 14.72 0 7.72 4.91 11.23 10.17 14 1.4.7 11.22 5.61 12.62 6.66 3.86 2.11 6 4.91 6 8.42 0 4.56-3.85 9.47-11.22 9.47-7 0-12.62-4.91-14-6.32l-.35-.35-4.21 3.86.35.35c1.75 1.76 8.76 8.07 18.23 8.07 10.52 0 17.18-7.72 17.18-15.43-.39-5.58-3.54-10.45-9.5-13.65z"/><path d="m30.15 218a23.61 23.61 0 0 1 16.85 7 3.19 3.19 0 0 0 4.2 0 2.55 2.55 0 0 0 .71-2.1 4.9 4.9 0 0 0 -.71-2.11l-.35-.35a29.55 29.55 0 0 0 -20.34-8.44 29.46 29.46 0 1 0 21.74 49.44l-4.25-4.21a22.8 22.8 0 0 1 -17.49 7.77 23.5 23.5 0 0 1 -23.51-23.55c-.69-12.97 9.83-23.45 23.15-23.45z"/><path d="m229.68 218a23.61 23.61 0 0 1 16.83 7 3.21 3.21 0 0 0 4.21 0 2.57 2.57 0 0 0 .7-2.1 5 5 0 0 0 -.7-2.11l-.35-.35a29.27 29.27 0 1 0 1.4 41l-4.21-4.21a22.78 22.78 0 0 1 -17.56 7.77 23.5 23.5 0 0 1 -23.49-23.5 23 23 0 0 1 23.17-23.5z"/><path d="m179.89 212a2.64 2.64 0 0 0 -2.46 1.75c-.35 1.05-17.18 42.43-17.18 42.43s-16.83-41.73-17.18-42.43a2.54 2.54 0 0 0 -4.91.35c-.35 1.05-9.82 53.65-9.82 53.65v.35a2.4 2.4 0 0 0 2.45 2.46 2.35 2.35 0 0 0 2.46-2.11l8.06-44.88s15.78 39.27 16.49 40.32a2.59 2.59 0 0 0 4.9 0c.36-1.05 16.49-40.32 16.49-40.32l8.41 46.64h5.26s-10.17-55.41-10.52-56.46a3.27 3.27 0 0 0 -2.45-1.75z"/><path d="m284.38 212a2.63 2.63 0 0 0 -2.45 1.75c-.35 1.05-21.74 53.65-21.74 53.65 0 .35-.35.7-.35 1.05a2.39 2.39 0 0 0 2.45 2.46 2.64 2.64 0 0 0 2.46-1.76l8.41-20.33h22.09l8.75 21.74h5.61s-22.79-56.11-23.14-56.81c.02-1.05-.68-1.75-2.09-1.75zm-8.76 31.2 8.76-21.39 8.77 21.39z"/><path d="m399.05 215.5a2.76 2.76 0 0 0 -2.81-2.8h-33a2.81 2.81 0 0 0 0 5.61h13.76v52.6h5.26v-52.6h13.67a2.87 2.87 0 0 0 3.12-2.81z"/><path d="m253.88 175.88c-1.41-5.26-6.67-9.12-11.93-9.47l-.35-.35a14.61 14.61 0 0 0 3.86-5.61 13.29 13.29 0 0 0 -1.75-13 14 14 0 0 0 -15.43-4.9c-1.05.35-1.76 1.05-2.81 1.05a13.55 13.55 0 0 0 -4.56-13c-3.5-3.5-9.81-4.21-14.72-2.1a13.86 13.86 0 0 0 -6.67 6c-1.05-1.75-2.45-3.86-4.2-4.56a13.86 13.86 0 0 0 -15.08-.35 13.44 13.44 0 0 0 -6.31 14 15.63 15.63 0 0 0 -11.93-.7 13.26 13.26 0 0 0 -8.41 9.81 14.28 14.28 0 0 0 4.56 13.68c-3.51.7-6.67 1.75-9.12 4.21a14.1 14.1 0 0 0 -2.81 15.08c2.46 5.61 7.72 8.41 14 8.41h78.9a13.53 13.53 0 0 0 11.22-3.85 13.88 13.88 0 0 0 3.54-14.35zm-97.14-23.15a10.54 10.54 0 0 1 6.32-7 11 11 0 0 1 13 4.56l15.78 35.07-31.59-21.76a10.63 10.63 0 0 1 -3.51-10.87zm2.81 37.17a9.25 9.25 0 0 1 -8.42-3.85c-2.45-2.46-2.8-7-1.4-10.17 1.05-2.11 3.16-4.56 5.26-5.26 2.81-1.4 6.66-1.05 9.82.35 0 0 21.39 14.73 27.35 18.93zm38.57-47.33s-4.91 30.15-5.61 35.06l-1-2.1s-13.68-30.86-14-31.21a11.25 11.25 0 0 1 2.81-10.87 10.16 10.16 0 0 1 11.22-2.11 13.21 13.21 0 0 1 5.26 4.56 9 9 0 0 1 1.32 6.67zm36.12 2.43a10.85 10.85 0 0 1 7.71 5.61c1.76 3.16 1.41 7.72-.35 10.87-1 1.75-2.45 2.46-3.85 3.51-.35.35-1.06.7-1.41 1.05 0 0-24.19 16.48-28.4 19.29v-.33l15.43-34.72a10.36 10.36 0 0 1 10.87-5.28zm-28.75-2.45a5 5 0 0 0 1.4-1.06v-.35a.75.75 0 0 0 -.7-.7h-4.91a11.54 11.54 0 0 1 5.61-8.77 10.62 10.62 0 0 1 11.92 1.41 10.06 10.06 0 0 1 2.81 3.85c1.75 3.51.7 7.72-1.06 10.17l-13.32 30.16-4.91-30.16c-.33-2.1 1.4-3.48 3.16-4.53zm43.51 44.2a11.15 11.15 0 0 1 -8.8 4.25h-33.31l28.05-19.64a10.87 10.87 0 0 1 9.82-.7 9.21 9.21 0 0 1 5.61 5.26 11.19 11.19 0 0 1 -1.37 10.83z"/></g></svg>