<svg viewBox="0 0 400 400" xmlns="http://www.w3.org/2000/svg"><g fill="#f5f5f5"><path d="m41.82 114.2a2.14 2.14 0 0 0 .47.15 128.41 128.41 0 0 1 29.87 5.29 177.09 177.09 0 0 1 29.2 11.23 154 154 0 0 1 25.31 15.49 120.42 120.42 0 0 1 18.9 17.48 67.49 67.49 0 0 1 8.55 11.94 95.51 95.51 0 0 1 4.33 9.08 31.08 31.08 0 0 1 2.28 12.8 35.33 35.33 0 0 1 -4.53 16.53 43 43 0 0 1 -18.26 17.81 79.17 79.17 0 0 1 -20.41 7 87.9 87.9 0 0 1 -15.6 1.67 91.82 91.82 0 0 1 -22.78-2.36l-2.68-.58c0 .52-.13 1-.13 1.42a11.06 11.06 0 0 1 -.62 3.65 4 4 0 0 1 -2.92 2.78 11.7 11.7 0 0 1 -4.29.35 6.31 6.31 0 0 1 -5.29-4 19.27 19.27 0 0 1 -1.22-5.17c-.18-1.33-.36-2.66-.44-4a1.34 1.34 0 0 0 -.91-1.27c-2.38-1.17-4.77-2.33-7.09-3.61a92.89 92.89 0 0 1 -21.74-16.52 32.23 32.23 0 0 1 -5.82-7.81 14.31 14.31 0 0 1 -1.28-3.55 9.14 9.14 0 0 1 2.1-7.8 18.27 18.27 0 0 1 4.32-3.76 48 48 0 0 1 11-5.32 108 108 0 0 1 12.35-3.65c2.06-.45 4.16-.75 6.24-1.12.2 0 .4-.08.59-.12a.71.71 0 0 0 .63-.78c0-1.17.18-2.35.15-3.52a73.25 73.25 0 0 1 .74-10.14c.32-2.73.69-5.46 1.15-8.17.24-1.49.71-2.94 1.09-4.4a6.84 6.84 0 0 1 .4-1 1.88 1.88 0 0 1 3-.94 7.53 7.53 0 0 1 2.33 2.2 18.84 18.84 0 0 1 2.66 5.73 45.47 45.47 0 0 1 1.81 10.09c.2 2.94.28 5.9.42 8.85a5.29 5.29 0 0 0 .06.57h2.62a75.93 75.93 0 0 1 15.36.86 98.78 98.78 0 0 1 15.48 3.6 26.37 26.37 0 0 1 9.79 5.43 13.86 13.86 0 0 1 4.76 8.41 8.4 8.4 0 0 1 -.48 4.36 12.72 12.72 0 0 1 -9 8.11 11.41 11.41 0 0 1 -5.29-.19 21.47 21.47 0 0 1 -2.59-.79 1.23 1.23 0 0 1 -.91-1.1 1.3 1.3 0 0 1 .81-1.27l2.75-1.49a8.44 8.44 0 0 0 2.75-2.32 2.21 2.21 0 0 0 -.39-3.37 9.34 9.34 0 0 0 -2.27-1.26 65.94 65.94 0 0 0 -10.86-3 120.53 120.53 0 0 0 -13.59-2.2c-2.77-.26-5.56-.33-8.34-.48a2.75 2.75 0 0 0 -.52.07c.26 12.13.52 24.23.78 36.44.53.12 1 .24 1.55.34a94.27 94.27 0 0 0 23.18 1.29 80.35 80.35 0 0 0 16.4-2.47 49.38 49.38 0 0 0 17.19-8.14 25.13 25.13 0 0 0 10-16.43 25.86 25.86 0 0 0 -1.43-13.57 60.38 60.38 0 0 0 -10.08-17.11 93.41 93.41 0 0 0 -18-16.47 151.8 151.8 0 0 0 -38.58-19.8 160.52 160.52 0 0 0 -23.39-6.39c-4.48-.85-9-1.48-13.55-1.93a122.11 122.11 0 0 0 -17.21-.51 60.79 60.79 0 0 0 -11.79 1.35c-1.07.26-2.14.55-3.2.88a13.28 13.28 0 0 0 -1.57.7 2.78 2.78 0 0 0 1.67.65c1 .14 2.07.24 3.09.41a4.16 4.16 0 0 1 2.42 1.15c1.16 1.2.89 2.62-.67 3.18a9.17 9.17 0 0 1 -2.26.46 19.46 19.46 0 0 1 -6.49-.59 9.32 9.32 0 0 1 -1.69-.64 2.9 2.9 0 0 1 -1.54-1.52 1.92 1.92 0 0 0 -.38-.43v-2.22a4.08 4.08 0 0 0 .39-.66 17 17 0 0 1 3.19-5.66 14.56 14.56 0 0 1 7.13-4.4 96.42 96.42 0 0 1 18.14-3.42c1.22-.12 2.44-.26 3.66-.4zm19.63 76.4-2.27.18a120.59 120.59 0 0 0 -17 2.26 50.88 50.88 0 0 0 -9.48 2.64 17.66 17.66 0 0 0 -3 1.65 2.36 2.36 0 0 0 -.86 2.87 4.37 4.37 0 0 0 .57 1.17 13.47 13.47 0 0 0 1.21 1.63 60 60 0 0 0 11.45 9.63 82 82 0 0 0 18.43 9.37l1 .29z"/><path d="m347.47 284.16c-1-.6-2.1-1.17-3.12-1.82a10 10 0 0 1 -4.83-6.65 29.48 29.48 0 0 1 -.5-4.09 36.28 36.28 0 0 1 .42-7.13c.61-4.52 1.32-9 2.29-13.5a133.4 133.4 0 0 1 5.42-17.7c.63-1.7 1.25-3.4 1.93-5.08a2.05 2.05 0 0 0 -.05-1.73 28.61 28.61 0 0 1 -2.45-12.46 39.05 39.05 0 0 1 3.42-14.2 72.31 72.31 0 0 1 10.25-16.58c1.13-1.41 2.39-2.72 3.64-4a8.67 8.67 0 0 1 1.83-1.41 1.74 1.74 0 0 1 2.75 1.25 6.71 6.71 0 0 1 -.11 2.89 26.48 26.48 0 0 1 -2.93 7.48c-1.65 3-3.41 5.86-5.06 8.83a41 41 0 0 0 -4.76 13.74 10.16 10.16 0 0 0 .24 3.64c.29-.37.5-.62.69-.87 2.67-3.62 5.33-7.26 8-10.86a89.06 89.06 0 0 1 8-9c2.24-2.27 4.53-4.5 6.84-6.69a24.68 24.68 0 0 1 6.28-4.16 7.59 7.59 0 0 1 6.23-.54 9.51 9.51 0 0 1 3.52 2.46 18.49 18.49 0 0 1 4.26 8.56c.21.87.29 1.78.45 2.67a2.45 2.45 0 0 0 .17.45v7.86c-.09.59-.17 1.17-.27 1.76a32.63 32.63 0 0 1 -9 17.65 43.5 43.5 0 0 1 -13.02 9.13 30.81 30.81 0 0 1 -15.51 3.17 2.62 2.62 0 0 0 -.53.05c-.13.36-.27.7-.39 1.05a227.06 227.06 0 0 0 -6.48 23.47c-1.48 6.58-2.83 13.19-4.19 19.8a3.3 3.3 0 0 1 -1.66 2.56zm21.82-61.58a1.77 1.77 0 0 0 .34.12h.71a19.19 19.19 0 0 0 7.28-1.81 24.52 24.52 0 0 0 11.51-9.43 21 21 0 0 0 3.6-12.07 10 10 0 0 0 -.92-4.29 1.4 1.4 0 0 0 -2.38-.46c-.5.54-1.09 1-1.6 1.53a79.1 79.1 0 0 0 -8.91 11.17c-2.44 3.63-4.78 7.31-7.15 11-.73 1.13-1.41 2.29-2.1 3.44a6.78 6.78 0 0 0 -.38.8z"/><path d="m221.31 176.89c6 .07 11.05.4 15.92 1.85 1.6.47 3.14 1.18 4.69 1.8a5.08 5.08 0 0 1 1 .55 1.91 1.91 0 0 1 .87 2.27 6.05 6.05 0 0 1 -3.2 4.06 12.59 12.59 0 0 1 -4.46 1.17c-4.63.58-9.3.69-14 .85a135.9 135.9 0 0 0 -16.26 1.21c-2.22.35-4.4.91-6.59 1.41a4.7 4.7 0 0 0 -1.48.62c-.68.44-.66 1 .06 1.39a6 6 0 0 0 1.71.57c2.42.37 4.85.7 7.28 1 3.76.46 7.53.87 11.29 1.35 3 .39 6.07.76 9.07 1.3a45.14 45.14 0 0 1 5.72 1.55 12.91 12.91 0 0 1 8.41 8.48 18.51 18.51 0 0 1 -.06 12.73 15.69 15.69 0 0 1 -5.57 7.12 23.76 23.76 0 0 1 -9.49 4.25 37.34 37.34 0 0 1 -27.24-4 23.41 23.41 0 0 1 -6.53-5.31 10.43 10.43 0 0 1 -2.64-5.25 8.46 8.46 0 0 1 3.76-8.64 16 16 0 0 1 6.43-2.48 31.75 31.75 0 0 1 9.73-.17 53.42 53.42 0 0 1 10 2c2.06.67 4.05 1.58 6.07 2.4a2.47 2.47 0 0 1 .61.35 1.77 1.77 0 0 1 .42 2.78 4.81 4.81 0 0 1 -1.45 1.21c-3.47 1.76-7.12 2.87-11.05 2.31a18.72 18.72 0 0 1 -3.86-1.12c-1.94-.73-3.83-1.63-5.78-2.35a27 27 0 0 0 -3.87-1.05 6.5 6.5 0 0 0 -3.57.32 5.37 5.37 0 0 0 -1.48.83 2.57 2.57 0 0 0 0 4.23 7.53 7.53 0 0 0 1.88 1.15 18.94 18.94 0 0 0 7.11 1.64 56.64 56.64 0 0 0 15.3-1.43 31.4 31.4 0 0 0 10.75-4.65 8.46 8.46 0 0 0 1.73-1.65 2.36 2.36 0 0 0 .27-2.49 1.09 1.09 0 0 0 -.23-.44 14.7 14.7 0 0 0 -3-2.26 36.16 36.16 0 0 0 -8.4-2.4c-4.66-.86-9.37-1.25-14.09-1.65q-5.93-.51-11.82-1.21a17.11 17.11 0 0 1 -3.79-1 6.51 6.51 0 0 1 -4.49-6.4 13.46 13.46 0 0 1 5.76-11.4 29.59 29.59 0 0 1 9.47-4.58 61.44 61.44 0 0 1 13-2.47c2.3-.16 4.69-.24 6.09-.35z"/><path d="m310.75 188.49c-1.38-.38-2.68-.7-3.95-1.12a18.39 18.39 0 0 1 -2.79-1.15 5.9 5.9 0 0 1 -2.95-3.42 2.07 2.07 0 0 1 1.24-3 19.54 19.54 0 0 1 3.29-.91 156 156 0 0 1 16.22-2.45c3.87-.4 7.75-.78 11.63-1a11.49 11.49 0 0 1 10 4 22.24 22.24 0 0 1 2.08 2.84 7.75 7.75 0 0 1 .94 2.31 2.45 2.45 0 0 1 -1.47 3 14.22 14.22 0 0 1 -4.34 1.24 75.44 75.44 0 0 1 -11.34.84c-2.35 0-4.7 0-7.05 0h-1.06c-.74 2.46-1.46 4.85-2.24 7.41h3.29 10.68a5.29 5.29 0 0 1 1.67.3 3.3 3.3 0 0 1 2.19 2.32 9.33 9.33 0 0 1 .27 4.39 2.58 2.58 0 0 1 -2.57 2.5c-1.53.17-3.08.17-4.63.21-4 .13-8.05.22-12.08.36-.76 0-1.52.19-2.32.29a93.53 93.53 0 0 0 -3.38 10.4 9.47 9.47 0 0 0 3.28 0c5.54-.87 11.07-1.77 16.61-2.65.63-.1 1.27-.11 1.9-.15a3.17 3.17 0 0 1 2.8 1.31 8.46 8.46 0 0 1 2 4.42 3.62 3.62 0 0 1 -.88 3 12.33 12.33 0 0 1 -1.85 1.69 51 51 0 0 1 -19.16 9.06 16 16 0 0 1 -8.06-.06 12.15 12.15 0 0 1 -8.08-6.86 17 17 0 0 1 -1.1-10.92 18.8 18.8 0 0 1 1.35-4.21c.54-1.19 1-2.41 1.54-3.61a3.32 3.32 0 0 0 .17-2c-.29-1.55-.58-3.11-.82-4.66a3.12 3.12 0 0 1 1.75-3.43 6.82 6.82 0 0 1 2.19-.65 2.19 2.19 0 0 0 1.85-1.2 8 8 0 0 0 .35-.72c.19-.43.37-.86.53-1.3.78-2.14 1.55-4.22 2.3-6.42z"/><path d="m259.71 199.21a5 5 0 0 0 -.52 2.41c-.24 5-.43 9.93-.67 14.89-.17 3.39-.34 6.77-.59 10.15a20.67 20.67 0 0 1 -.71 3.55 5.88 5.88 0 0 1 -.73 1.64 3.56 3.56 0 0 1 -3.75 1.56 6.22 6.22 0 0 1 -4.68-3.59 18.06 18.06 0 0 1 -1.6-6.11 61.9 61.9 0 0 1 .35-13.26 103.5 103.5 0 0 1 4.13-19.45c.7-2.2 1.57-4.36 2.43-6.5a7.18 7.18 0 0 1 1.19-1.86 3.14 3.14 0 0 1 4.07-.93 8 8 0 0 1 2 1.43 13.52 13.52 0 0 1 1.66 2c5.26 7.39 10.25 15 15.13 22.61 1 1.5 1.94 3 3 4.44a4.45 4.45 0 0 0 1 1.08c.47.33.86.12.88-.47s0-1.47 0-2.21a90.73 90.73 0 0 0 -2.71-18.4c-1.27-5-2.68-10-4-15-.44-1.71-.73-3.47-1-5.22a4.07 4.07 0 0 1 .06-1.39 2 2 0 0 1 2.52-1.66 5.7 5.7 0 0 1 2.5 1.26 25.4 25.4 0 0 1 4.34 4.74c4.41 5.8 7 12.41 8.81 19.39a55 55 0 0 1 1.73 13 39.59 39.59 0 0 1 -1.71 13.11 17.41 17.41 0 0 1 -3.8 6.47 9.41 9.41 0 0 1 -7.38 3.1 4.76 4.76 0 0 1 -3.39-1.34 32.47 32.47 0 0 1 -2.88-3.22 89.3 89.3 0 0 1 -7.55-12.13c-2.27-4.23-4.51-8.48-6.77-12.72-.29-.58-.55-1.19-1.36-1.37z"/><path d="m167.72 166.66-.73 1.2a22.08 22.08 0 0 1 -1.19 2 4.43 4.43 0 0 1 -1.18 1.06 2.2 2.2 0 0 1 -2.72-.15 7.35 7.35 0 0 1 -2.71-4.47 14 14 0 0 1 -.2-3.1 5 5 0 0 0 -.88-3c-.2-.27-.38-.55-.57-.83a14 14 0 0 1 -1.91-12.93 21.4 21.4 0 0 1 5-8.29 38.65 38.65 0 0 1 20.93-11.88 21.64 21.64 0 0 1 10.09.09 12.39 12.39 0 0 1 6.66 4.28 2.21 2.21 0 0 0 1.44.8 12 12 0 0 1 7.8 4.76 10.36 10.36 0 0 1 1.45 9 17.94 17.94 0 0 1 -4.59 8.16 52.54 52.54 0 0 1 -13.68 10.64 36.27 36.27 0 0 1 -13.26 4.18 23.05 23.05 0 0 1 -5.81-.39 11.86 11.86 0 0 1 -3.94-1.13zm5.1-9a10.4 10.4 0 0 0 1.25.24 34.18 34.18 0 0 0 11.48-1 30 30 0 0 0 13.32-7.59 9.63 9.63 0 0 0 2.95-5.39 4.39 4.39 0 0 0 -1.52-4.34 5.06 5.06 0 0 0 -4.35-1.09 19.51 19.51 0 0 0 -7 2.95 67 67 0 0 0 -9.16 7.55 60.17 60.17 0 0 0 -6.62 8 4.5 4.5 0 0 0 -.35.68zm4.71-20.18a11.12 11.12 0 0 0 -4.5 1 26.47 26.47 0 0 0 -5.94 3.92 17.54 17.54 0 0 0 -3.47 4 7.82 7.82 0 0 0 -1.3 3.76 5 5 0 0 0 .94 3.26 71 71 0 0 1 14.27-15.93z"/><path d="m181.52 212.67c.14 3.69.34 7.38.39 11.07a35 35 0 0 1 -.4 5.51 4.21 4.21 0 0 1 -4.4 3.89 15.08 15.08 0 0 1 -3.49-.23 5.55 5.55 0 0 1 -4.28-3.87 20.43 20.43 0 0 1 -.88-4.84 148.68 148.68 0 0 1 -.37-18.52c.13-4.23.42-8.45.79-12.66a65.13 65.13 0 0 1 1.8-10.92 16.14 16.14 0 0 1 .92-2.55 5.18 5.18 0 0 1 .88-1.34 1.71 1.71 0 0 1 1.91-.54 5.71 5.71 0 0 1 3.31 2.48 11.42 11.42 0 0 1 1.58 4.53c.47 3.26 1 6.52 1.22 9.79.43 5.56.68 11.13 1 16.69v1.51z"/></g></svg>