<svg viewBox="0 0 400 400" xmlns="http://www.w3.org/2000/svg"><g fill="#f5f5f5"><path d="m327.74 192v2h-6.68v40.22h6.54c.5 1.32.08 1.72-1.1 1.72-6.73 0-13.46 0-20.18-.06-.53 0-1-.59-1.56-.9l.27-.7h6.97v-38.7l-.3-.08c-.45 1.25-.92 2.5-1.35 3.76-2.16 6.34-4.28 12.68-6.45 19q-2.9 8.33-5.9 16.61a1.7 1.7 0 0 1 -1.24 1c-.61 0-1.54-.41-1.73-.87-1.15-2.91-2.14-5.88-3.15-8.84q-3.28-9.58-6.54-19.19c-1-2.9-1.94-5.8-2.92-8.71a3.42 3.42 0 0 0 -1-1.61v37.54h6.58l.35.67c-.45.36-.9 1-1.36 1q-7 .12-14 0c-.46 0-.92-.66-1.38-1l.36-.58h6.67v-40.28c-1.79 0-3.54-.06-5.27 0-1.53.07-1.91-.55-1.39-2.06 5.77 0 11.54 0 17.31.05.39 0 1 .64 1.13 1.09q4.42 13.46 8.78 26.94c.11.34.3.65.64 1.37 1-2.73 1.93-5.08 2.75-7.46 2.4-7 4.76-14 7.18-21 .15-.42.69-1 1.05-1 5.67.07 11.26.07 16.92.07z"/><path d="m65.82 236.1a35 35 0 0 1 0-3.55 5.57 5.57 0 0 0 -2.16-4.94 5.2 5.2 0 0 1 -1.27-2.49 18.38 18.38 0 0 0 -5.39-9.12c-.46-.43-.94-.82-1.51-1.32a5.73 5.73 0 0 0 -.18-6.42c4.09-1.82 7-4.7 8-9.1a14 14 0 0 0 -2.18-11.16c-3-4.33-10.06-8.47-17.68-3-2-3.87-5.49-5.19-9.52-5.69a3 3 0 0 1 -1.91-1 4.44 4.44 0 0 0 -4.22-1.92c-.5 0-1.4-.36-1.51-.73-1.92-6.66-11.17-6.81-14.62-1.92-1.55 2.16-3.67 2.03-5.67 2.17-1.81.13-3.28.37-4.39 2 0-2.38.07-4.64 0-6.9-.07-1.51.5-1.94 2-1.93 7.54.06 15.09 0 22.63 0h38.46c1.84 0 2.33.56 2.32 2.35v62.79a11.53 11.53 0 0 1 -.41 2.14z"/><path d="m89.81 194.07h-6.69l-.09-2h39.2v13.33c-1 .39-1.63.08-2-1.28a36.34 36.34 0 0 0 -1.84-5.09c-1.18-2.64-3.23-4.48-6.11-4.64-4.3-.25-8.63-.07-13.09-.07v18a11.93 11.93 0 0 0 7.47-1.14c2.62-1.4 2.54-4.25 3.3-6.67h1.81v18.22h-1.83c-.81-7.77-4.6-8.62-10.73-8.44v19.89h6.65l.35.64c-.45.37-.9 1-1.36 1-7.16.07-14.33 0-21.64 0l-.21-1.54h6.8z"/><path d="m21.36 192 .19 2.79 16.6-6.19c3.9 8.12 7.77 16.2 11.68 24.36-1.65.64-2.67.25-3.38-1.31-2.88-6.29-5.82-12.57-8.75-18.84 0-.1-.18-.15-.48-.36-1.77 2.77-3.53 5.52-5.28 8.28-1.86 3-3.65 6-5.61 8.86a3.63 3.63 0 0 1 -2.33 1.41c-7.11.69-14.23 1.25-21.36 1.83-.16 0-.33-.12-.67-.25 1.83-3.17 3.75-6.21 5.39-9.4 1.51-2.94 3.53-5 6.85-5.79.51-.12 1.05-1.09 1.15-1.74a23.14 23.14 0 0 0 .04-3.65z"/><path d="m218.65 234.2h4.2c.56 1.17.33 1.73-.95 1.73-4.72 0-9.43 0-14.14-.05-.47 0-.92-.62-1.38-1l.3-.65h4.4c0-4.81 0-9.38 0-14a42.5 42.5 0 0 0 -.11-4.52c-.49-4.49-4.13-4.59-6.74-2.89a10 10 0 0 0 -4.71 8.51c-.06 4.2 0 8.39 0 12.77h4.16c.4 1.1.33 1.73-.9 1.73-4.84 0-9.68 0-14.51 0-.44 0-.87-.68-1.3-1.05l.31-.53h4.42v-22.63h-4.22l-.4-.49c.33-.34.65-1 1-1 3.69-.07 7.38 0 11.31 0v5.16a8.13 8.13 0 0 0 1.33-1.23c2.9-4.66 9.41-5.44 14.2-3.7 2.38.87 3.41 3 3.54 5.35.23 4 .17 8 .21 12.06 0 2.05-.02 4.12-.02 6.43z"/><path d="m154.15 211.74c-4.54-.71-4.54-.71-4.57-1.73h12.21v5.16a12.07 12.07 0 0 1 11.26-5.65c2.52.1 5.24.38 6.58 2.88a12.67 12.67 0 0 1 1.36 5.32c.18 4.83.06 9.68.07 14.52 0 .62.05 1.23.08 2h4c.42 1.07.33 1.7-.89 1.7h-15l-.21-1.64h4.1a5.82 5.82 0 0 0 .2-1q0-8.31 0-16.61c0-4.68-3.08-5.57-6.35-4a7.66 7.66 0 0 0 -2.2 1.73 8.42 8.42 0 0 0 -2.6 5.67v14.12h3.81l.36.63c-.45.37-.9 1-1.36 1q-7.16.12-14.33 0c-.47 0-.93-.66-1.4-1l.36-.62h4.56z"/><path d="m34.66 219.47v-6.9c1.38.38 2.56.65 3.7 1.06a1.29 1.29 0 0 1 .64 1c.06 2.19 0 4.37 0 6.93l-2.74-1.26c-2.26 3.57-6 3.43-9.51 3.55-4 .14-8-.14-12 .17-5.56.42-6.64 3.29-4.91 7.89.56 1.49 1.32 2.92 2.05 4.5-.52 0-.88.05-1.24.05h-9.2v-21.08c11.28-1.52 22.29-.71 33.21 4.09z"/><path d="m347.15 221.35c0-2.76.14-5.22-.07-7.64-.07-.78-1-2-1.66-2.11a24.9 24.9 0 0 0 -6.28 0c-1.12.14-2 .9-1 2.45s1.11 3.11-.35 4.48a4.41 4.41 0 0 1 -4.77.41c-2-1.09-1.85-4.39.24-6.36a12 12 0 0 1 8.86-3 51.15 51.15 0 0 1 9.88 1.78 2.91 2.91 0 0 1 2.3 3.05c.05 5.46.11 10.92.26 16.38 0 1 .37 2.71.72 2.75 1.07.12 2.21-.41 3.67-.78 0 .28.14 1.09-.18 1.43-2.17 2.32-6.21 3.83-9.17 1.78a17.5 17.5 0 0 1 -2.76-3.06 14.65 14.65 0 0 1 -10.91 3.92c-3.63-.27-5.77-2.25-6.26-5.8-.36-2.62 1.53-5.77 4.2-7.19a22.6 22.6 0 0 1 10.84-2.53zm0 1.09c-2.46.52-4.63.81-6.69 1.45-3.11 1-4.42 5.36-2.52 8s5.82 2.27 7.84-.51c1.9-2.64 1.22-5.54 1.39-8.94z"/><path d="m135.85 221c0-2.4 0-4.9 0-7.4a2.38 2.38 0 0 0 -.79-1.4c-1.52-1.46-6.5-1.57-8-.09a2.15 2.15 0 0 0 -.06 1.89c.78 1.6 1.18 3.09-.3 4.45a3.93 3.93 0 0 1 -4.39.59c-1.74-.66-1.84-2.09-1.62-3.56.46-3.07 2.83-4.34 5.41-5.1a20.66 20.66 0 0 1 14.15.84 4.09 4.09 0 0 1 2.82 4.18c0 5.16-.05 10.31 0 15.47 0 1 .33 2.6.78 2.7 1 .21 2.1-.38 3.54-.74 0 .09.29.77.06 1.09-2 2.83-6.43 3.93-9.23 2.13-1.16-.75-1.91-2.13-2.88-3.26a12.39 12.39 0 0 1 -10.58 4.07c-5.38-.38-8.16-5.62-5.23-10.08a10.89 10.89 0 0 1 7.32-4.51c2.86-.55 5.78-.85 9-1.27zm-.07 1.54c-2.19.45-4.2.79-6.16 1.29a4.75 4.75 0 0 0 -3.57 3.68 5.48 5.48 0 0 0 2.42 5.81c1.73.92 4.07.2 5.58-1.65 2.14-2.67 1.84-5.67 1.73-9.17z"/><path d="m269.61 221.36h-17.91c.18 3.58.16 7 .59 10.4.33 2.59 3.28 4.07 6.48 3.7 4.88-.58 7.89-3.43 9.59-7.94.31 0 .62-.05.93 0a4.73 4.73 0 0 1 .73.1c-1.18 5.18-5.13 8.53-10.79 9.21-8.54 1-15.52-4.42-16-13-.31-5.9 3.22-11.11 9.13-13.31a14 14 0 0 1 13.87 2c2.3 1.67 4.38 5.87 3.38 8.84zm-7.67-1.44c0-1.8.05-3.36 0-4.91-.07-1.84-.81-3.26-2.76-3.76-2.58-.66-5.66 0-6.64 1.5a1.72 1.72 0 0 0 -.24.7c-.23 1.73-.53 3.46-.6 5.2a1.7 1.7 0 0 0 1.13 1.21c2.92.14 5.86.06 9.11.06z"/><path d="m385.43 227.57h1.95c-1.51 5.42-5.53 8.62-11.1 9.26-8.14.95-14.56-4.31-15.73-12.34-.65-4.48 2.4-10.3 6.79-12.93a14.3 14.3 0 0 1 16.18 1 10.09 10.09 0 0 1 3.78 7.1c.15 1.34-.44 1.73-1.73 1.72-4.78-.06-9.55 0-14.33 0h-2.57c.35 3.77.51 7.38 1.07 10.93.34 2.13 2.3 2.85 4.24 3.11 4.7.58 9.69-2.11 11.45-7.85zm-6.15-7.72c-.29-3 1.17-6.29-1.93-8.2a5.79 5.79 0 0 0 -6.45.19c-2.57 2-1.89 5.12-1.9 8z"/><path d="m52 236.43c-7.95 0-15.91 0-23.87 0-1.89 0-5.79-4.33-5.59-6.18s1.83-2.66 3.43-3c3.37-.67 6.79-1 10.17-1.7 1.74-.34 3.4-1.06 5.11-1.56a1.55 1.55 0 0 1 1.15 0c4.15 3.24 7.66 7.01 9.6 12.01.06.05 0 .19 0 .43z"/><path d="m242.21 234.94c-.46.32-.92.93-1.38.94q-7.82.1-15.63 0c-.48 0-.95-.65-1.42-1l.33-.58h4.8v-22.77c-1.27 0-2.62.05-4 0-.34 0-.66-.48-1-.74.3-.21.61-.62.92-.62h11.86v24.11h5z"/><path d="m228.6 197.71c0-2.16 1.58-3.49 4-3.45s4 1.55 4 3.6a4 4 0 0 1 -4.29 3.8 3.91 3.91 0 0 1 -3.71-3.95z"/><path d="m399.45 232.38a4.37 4.37 0 0 1 -4.45 4.52 4.58 4.58 0 0 1 -4.85-4.59 5 5 0 0 1 4.73-4.84 4.76 4.76 0 0 1 4.57 4.91zm-6.3-3.07a2.65 2.65 0 0 0 -1.88 3.36 5.35 5.35 0 0 0 2.23 2.86 2.36 2.36 0 0 0 3.41-.57 3.41 3.41 0 0 0 1.1-4.59c-.92-1.71-3.01-2.16-4.86-1.06z"/><path d="m35.4 208.73c-3.71-.92-3.44.27-3.19-5.39l3.19.84z"/><path d="m393.15 229.31a7.63 7.63 0 0 0 .91.17c2.88.14 3.38 1.1 1.79 3.68l1.09 1.83-2.86-1.72-.41 1.56h-.52z"/></g></svg>