<svg viewBox="0 0 400 400" xmlns="http://www.w3.org/2000/svg"><g fill="#f5f5f5"><path d="m202.79 400h-8.79a9.26 9.26 0 0 0 -1-.32c-2.91-.63-5.89-1-8.71-1.93a9.42 9.42 0 0 0 -6.31-.16 10.42 10.42 0 0 1 -8.53-.33 1.66 1.66 0 0 0 -1.2-.11c-4.26 1.36-8.44.73-12.57-.53-2.12-.65-3.92-1.77-3.84-4.57-.76 0-1.43.05-2.08 0-2.91-.26-5.85-.33-8.71-.86a42.31 42.31 0 0 1 -25.4-14.72c-.91-1.07-1.63-2.33-3.17-2.85l5.91-1.65c-.85-.27-1.3-.42-1.75-.55-5.88-1.79-11.77-3.55-17.64-5.35a41.86 41.86 0 0 1 -21.28-15.07c-.71-.91-1.5-1.77-2.14-2.73-3.14-4.64-6.24-9.31-9.35-14-.36-.54-.7-1.11-1-1.65-4 2.32-7.32 2.12-9.76-.52s-2.34-5.54.32-9.51c-.41-.63-.84-1.29-1.26-2q-5.91-9.24-11.8-18.49a27.26 27.26 0 0 1 -3.76-9.25c-.74-3.58-1.5-7.15-2.18-10.74a71 71 0 0 0 -3-12 3.81 3.81 0 0 0 -2.2-2.43 6.12 6.12 0 0 1 -3.87-6.09 6.44 6.44 0 0 1 4.09-6c.43-.2.89-.35 1.46-.58-.42-.57-.79-1-1.13-1.52-1.33-2-2.7-3.91-4-5.92a12.48 12.48 0 0 1 -1.88-5.86c-.26-2.83-.26-5.71-.26-8.71a4.15 4.15 0 0 0 -.75-2.68c-1.85-2.6-3.19-5.56-2.6-8.72a11.25 11.25 0 0 0 -1-6.72 10.93 10.93 0 0 1 -.07-9.06 3.1 3.1 0 0 0 .11-2.42c-.9-3-1.78-6.08-2.62-9.13a24.6 24.6 0 0 1 -.39-12.27c.91-3.85 1.8-7.71 2.8-11.54a3.48 3.48 0 0 0 -.21-3 .48.48 0 0 1 -.08-.16c-1.36-3.31-2.35-6.62.13-9.47a31 31 0 0 1 -.57-4.08 14.48 14.48 0 0 1 1.4-6.2c1.13-2.39 2.63-4.24 5.73-3.73 1.07.18 1.45-.41 1.31-1.58-.1-.78-.18-1.57-.33-2.35a20.68 20.68 0 0 1 2.44-15c1.63-2.72 3.13-5.53 4.95-8.11q4.94-7 10.25-13.78a6.35 6.35 0 0 0 1.66-4 18.47 18.47 0 0 1 4.22-11.26c.93-1.14 1.78-2.32 2.73-3.43a189.5 189.5 0 0 1 18.11-17.95c.22-.21.44-.5.71-.56 1-.21 1.09-1 1.36-1.75 1.12-3 2.24-6 3.43-9a17.09 17.09 0 0 1 5-6.84c1.13-.94 2.26-1.87 3.44-2.73a125.36 125.36 0 0 1 15.34-9.21 15.7 15.7 0 0 0 2.83-2c4.95-4.24 9.86-8.54 14.81-12.78a24.71 24.71 0 0 1 9.35-4.8c7.26-2.11 14.64-3.69 22.06-5.07 3.76-.7 7.6-1.1 10.83-3.45a3 3 0 0 1 .66-.3c3.39-1.39 6.8-2.43 10.3-.23 1-1.54 2.55-1.51 4-1.45a8.87 8.87 0 0 0 3.71-.69 64.66 64.66 0 0 1 15.38-3.83c1.5-.18 3-.44 4.49-.66h4a5.62 5.62 0 0 0 1 .3 37.86 37.86 0 0 1 17.32 5.84 4.59 4.59 0 0 0 1.87.57c1.5.15 3 .14 4.08 1.48a7.66 7.66 0 0 1 6.42-1 20.89 20.89 0 0 1 6.8 2.8 9.89 9.89 0 0 0 3.59 1.34 182.79 182.79 0 0 1 23.33 6 23.32 23.32 0 0 1 10.87 7.66 11.63 11.63 0 0 1 1.25 1.57 8.29 8.29 0 0 0 4.55 3.43 119.88 119.88 0 0 1 17.41 8.43 35.45 35.45 0 0 1 8.22 6.35 65.28 65.28 0 0 1 11.79 17.74 14.46 14.46 0 0 0 4.57 5.7c6.51 5.12 12.88 10.43 19.33 15.64a13.38 13.38 0 0 1 4.74 8.14 56.17 56.17 0 0 1 1.08 11.26 9.26 9.26 0 0 0 1.4 5c4.21 7.14 8.35 14.32 12.36 21.57a65.73 65.73 0 0 1 6.17 15 10.69 10.69 0 0 0 .48 1.2c2.28-.51 4.14-.09 5.32 2-1.51-1.21-3.24-.89-4.85-1a49.18 49.18 0 0 1 .16 5.47 14.89 14.89 0 0 1 -3 7.75 58.71 58.71 0 0 1 -5.55 6.53c-8.71 8.52-17.53 16.94-26.3 25.42a28.55 28.55 0 0 0 -3.36 3.6 11.66 11.66 0 0 0 -1.69 3.58 2.7 2.7 0 0 0 1.26 3.26c.66-.56 1.33-1.07 1.94-1.65 8.65-8.23 17.26-16.52 26-24.69 5.92-5.54 11.84-11.06 16.58-17.71a6.27 6.27 0 0 0 .57 1.16 6.56 6.56 0 0 1 .94 5.59 18.27 18.27 0 0 1 -1 3.12 3.17 3.17 0 0 0 -.13 2.29 62.21 62.21 0 0 1 2.44 18.76 45.53 45.53 0 0 1 -4.41 19.8 2.61 2.61 0 0 0 0 2.73 9.65 9.65 0 0 1 1.14 6.52 20.91 20.91 0 0 1 -1.86 5.9 2.7 2.7 0 0 0 -.3 1.69c1.19 4.09 0 7.69-2.17 11.1-.3.47-.93.73-1.56 1.2-.64 2.53-1.23 5.33-2.09 8.06s-2 5.4-3.05 8.23c.47 0 .76-.05 1.06-.05 4.21.11 7.27 3.34 6.9 7.3s-4.13 6.62-8.33 5.82a6.62 6.62 0 0 0 -1.1 0 30 30 0 0 1 .47 10.82 43.74 43.74 0 0 1 -6.58 17.53 164.35 164.35 0 0 1 -15.56 21l-1.6 1.8c.28.3.47.53.69.72a6.64 6.64 0 0 1 1.06 8.36 6.84 6.84 0 0 1 -8 2.69l-1.39-.42a8.16 8.16 0 0 0 -.21.8 39.71 39.71 0 0 1 -11.34 23.43 77.49 77.49 0 0 1 -31.59 20.15 6.3 6.3 0 0 0 -2.05 1.12 51.06 51.06 0 0 1 -14 8.23 66.08 66.08 0 0 1 -16.01 4.1 6.52 6.52 0 0 0 -2.6.65 20.88 20.88 0 0 1 -11.23 3.3c-1.45 0-2.93-.45-4.33-.25a32.17 32.17 0 0 0 -4.29 1.5 18.7 18.7 0 0 1 -10.81.4 4.08 4.08 0 0 0 -2.8.11 77.39 77.39 0 0 1 -18 4.53c-1.41.18-2.78.44-4.15.62zm154-126.17c-.11 0-.27 0-.35.05l-9.93 7.76a2.2 2.2 0 0 0 -.79 2.15l10.82-9.52c.12-.11.15-.32.22-.48 1.42-1.11 2.87-2.18 4.24-3.36 3.42-3 3.41-3 3.37-4.05-1.64 1.51-3.17 2.87-4.63 4.29-1.04 1.05-1.98 2.14-2.96 3.2zm-186.07-256.32a8.44 8.44 0 0 1 -.84.85l-23.17 17.77c-.6.46-1.15 1-2.06 1.77h1.87q6.18-.37 12.38-.77c1.57-.1 1.57-.12 2.09-1.72a49.07 49.07 0 0 1 8.87-16.23 8.49 8.49 0 0 0 .86-1.67c1.06 1.21 2.11 2.43 3.34 3.83.22-.62.57-1.18.44-1.32a15.92 15.92 0 0 0 -2.32-2.25c-.35-.26-.97-.18-1.46-.26zm-91.72 242.37c1.12 2.87 2.22 5.44 3.12 8.08q1.78 5.27 3.31 10.63a13.77 13.77 0 0 0 8.23 9.41c2.13.9 4.27 1.8 6.46 2.56a17 17 0 0 1 6.14 3.49c1.22 1.11 2.48 2.17 3.62 3.36 5 5.29 10 10.68 15.09 15.91 2.85 2.92 5.86 5.7 8.94 8.36 5.65 4.86 12.53 6.67 19.75 7.25a87.5 87.5 0 0 0 21-.87c6.44-1 12.84-2.26 19.28-3.25a33.47 33.47 0 0 1 8.15-.59c6.12.57 12.21 1.48 18.29 2.39 7.11 1.05 14.19 2.28 21.29 3.35a21.34 21.34 0 0 0 9.93-.79 54.91 54.91 0 0 0 13.56-6.7 92.13 92.13 0 0 0 18.33-16.94c6.5-7.57 14.26-13.22 23.87-16.21 2.32-.72 4.53-1.77 6.8-2.65a2.61 2.61 0 0 0 1.64-2.67c.25-4.13.55-8.27 1.08-12.37.6-4.76 1.87-9.33 5.1-13.09.08-.09 0-.3 0-.54-.38.14-.67.22-.95.34a73.54 73.54 0 0 1 -15.54 4.66 129.89 129.89 0 0 0 -25.29 7.74 38.21 38.21 0 0 0 -16.15 12.18c-1.82 2.37-3.72 4.67-5.58 7a40.62 40.62 0 0 1 -13.68 11.33 21 21 0 0 1 -9.84 2.41 33.64 33.64 0 0 1 -8.31-1.07c-3.47-.93-6.89-2.07-10.35-3a73.21 73.21 0 0 0 -34.57-.54c-3.57.76-7.06 1.89-10.56 2.93-8.93 2.66-17.14 1.48-24.34-4.66a59.5 59.5 0 0 1 -5.9-6c-2.17-2.46-4.13-5.12-6.26-7.63-9.34-10.94-21.49-16.71-35.46-19-2.82-.47-5.7-.58-8.52-1-3.97-.69-7.93-1.43-11.68-3.81zm120.15-135.5h-50.64a11.84 11.84 0 0 1 -1.46 0 2.23 2.23 0 0 0 -2.6 1.76c-.64 2-1.42 3.9-1.89 5.9a117.38 117.38 0 0 0 -2.94 25.73c-.06 5.53-.46 11.07.43 16.59.31 2 .12 4 .38 6a113.89 113.89 0 0 0 4.54 20.3 141.46 141.46 0 0 0 12.19 26.52 128.79 128.79 0 0 0 14.2 20.14c1.26 1.47 2.57 2.89 3.82 4.38s2.43 3.13 3.75 4.61c1.78 2 3.64 3.92 5.52 5.82 1.5 1.52 3.14 2.9 4.6 4.44s3.67 2.36 4.78 4.32a.55.55 0 0 0 .14.12c1.3 1.07 2.62 2.1 3.88 3.21 1.65 1.44 2.42 1.53 4.13.12s3.61-3.07 5.39-4.62c2.29-2 4.59-3.95 6.82-6 1-.95 1.86-2.09 2.83-3.1 2.48-2.56 5.06-5 7.47-7.65 1.76-1.91 3.29-4 5-6a131 131 0 0 0 10.94-15 141.07 141.07 0 0 0 11.07-21 114.86 114.86 0 0 0 7.84-26.38c.77-4.59 1.64-9.19 1.39-13.9a5.09 5.09 0 0 1 .18-1.07 17.35 17.35 0 0 0 .29-2.15 117.24 117.24 0 0 0 -1.47-24 58.09 58.09 0 0 0 -5.23-16.49 4.07 4.07 0 0 0 -4.13-2.53c-17.07-.03-34.14-.07-51.21-.07zm-130.3 74.37a5.55 5.55 0 0 1 -.43-.53 2.17 2.17 0 0 1 -.3-.66c-.39-2.72-2.11-4.6-4-6.38-2.52-2.4-5.06-4.77-7.58-7.16q-10.81-10.25-21.63-20.5a29.12 29.12 0 0 1 -5.8-7.48 14.22 14.22 0 0 1 -1.64-10 4.52 4.52 0 0 0 0-1 2.16 2.16 0 0 0 -2.45.38 9.89 9.89 0 0 0 -2.56 3c-1.46 3.77-2 7.59 1.13 10.93 3.46 3.69 6.78 7.51 10.45 11 10.19 9.62 20.53 19.08 30.79 28.64 1 1 2 1.9 3.64 1.19l-1.18 1.44c1.73 2.18 1.18 4.46.06 6.66a23.43 23.43 0 0 1 -2.31 3.49 2.5 2.5 0 0 0 -.64 2.15 27.67 27.67 0 0 1 .46 4.35q.23 8.69.32 17.36a4 4 0 0 0 1 3 33.18 33.18 0 0 1 2.24 3.11 11.18 11.18 0 0 0 .89 1c0-.5.1-.74.1-1a17.74 17.74 0 0 1 7.59-14.99 44.26 44.26 0 0 1 7-4 142 142 0 0 0 21-12.18 40.42 40.42 0 0 0 14-18.02 29.31 29.31 0 0 0 2.17-17c-2.39-12.56-9.08-22.06-20.71-27.73a66 66 0 0 0 -8.37-3.08 21.48 21.48 0 0 1 -8-4.54c.53-1.79 1-3.48 1.53-5.16 1.5-5 3-9.92 4.55-14.84a2.12 2.12 0 0 0 -.87-2.79c-.34-.22-.67-.46-1.14-.8-.19.73-.39 1.28-.49 1.86-.4 2.4-.88 4.8-1.14 7.22a26.64 26.64 0 0 1 -4.24 12.11q-3.63 5.49-7.28 11c-.36.55-.76 1.07-1.11 1.56 1 1.85 1.06 2.35.43 4.11a11 11 0 0 1 -1 2.13c-.6 1-1.69 1.84-1.86 2.88s.48 2.32.71 3.51a6.71 6.71 0 0 1 -1.22 5.86c-1.8 2.22-3.49 4.54-5.21 6.82-.31.41-.57.86-.89 1.33 4.06 1.24 6 3.13 6.22 6.23.24 4.12-2.21 6.3-6 7.39 2.06 2.38 4.3 4.51 3.77 8.13zm264.63 46.3a40.85 40.85 0 0 1 .87-11.71c1.08-5.56 2.3-11.09 3.55-16.61a2.76 2.76 0 0 0 -.52-2.66 20.33 20.33 0 0 1 -2.27-3.52c-1-1.89-1.51-3.88-.39-5.91-1.88-2.45-1.86-3.53.16-8.48-4.21-1-6.38-3.08-6.59-6.43s1.77-5.68 6.32-7.23c-1.24-1.69-2.37-3.43-3.7-5a7.66 7.66 0 0 1 -1.43-7.7 6.41 6.41 0 0 1 .3-1.06 2 2 0 0 0 -.37-2.33c-1.74-2.18-3.1-4.53-2.54-7.46l-18.27-14.4a6.79 6.79 0 0 1 -1.28 1 15.77 15.77 0 0 1 -2.58.9 34.67 34.67 0 0 0 -14.61 8c-7.84 7.16-12.35 16.08-12.34 26.74s4.83 19.61 12.44 26.94a66.26 66.26 0 0 0 14.2 9.94c4.15 2.29 8.43 4.37 12.72 6.4 7.85 3.78 12.22 9.84 12.85 18.53.09 1.25.24 2.5.39 4zm-189.13-122.43c.19-.08.33-.09.41-.17 1.61-1.49 3.19-3 4.82-4.47a90.61 90.61 0 0 1 25.85-16.65c14.22-6 28.77-7.14 43.61-2.68 13.09 3.94 23.82 11.52 32.65 21.87.58.68 1.14 1.38 1.75 2.13.44-.31.76-.48 1-.72 1.36-1.21 2.67-2.5 4.08-3.66 4.42-3.64 8.89-7.23 13.33-10.84 1.29-1.05 1.3-1.15.42-2.53-.13-.21-.27-.41-.41-.61-8.84-12.63-20.56-21.68-34.63-27.77a87.29 87.29 0 0 0 -28.23-6.79 99.65 99.65 0 0 0 -21.7.61 91.44 91.44 0 0 0 -32.15 11 100.42 100.42 0 0 0 -28.86 24.14c-1.24 1.52-1.23 1.55.23 2.73l17.15 14a4.56 4.56 0 0 0 .68.41zm13.91-69.27-1.77.86a36.31 36.31 0 0 1 -12.06 4c-3.26.38-6.56.39-9.84.5a2.41 2.41 0 0 0 -2.05.88 72.37 72.37 0 0 1 -26.09 20.13 60.59 60.59 0 0 0 -11 6.53c-.61.45-1.18 1-1.87 1.54a7 7 0 0 0 .89.46 43.54 43.54 0 0 1 11 5.68c5.63 3.85 11.17 7.82 16.75 11.74l1.56 1.07a2.77 2.77 0 0 0 .44-.32c.21-.22.41-.46.6-.7a101.31 101.31 0 0 1 31.26-26 3 3 0 0 0 1.92-3.03c0-6.76.18-13.52.29-20.28-.02-.95-.03-1.9-.03-3.06zm83.05 298.15c2.75-.78 5.36-1.65 8-2.25 5.88-1.33 11.79-2.53 17.68-3.78a3.19 3.19 0 0 0 2.46-1.28 65 65 0 0 1 9.87-11.72c3.33-3.23 6.7-6.41 10-9.64a41 41 0 0 1 8.93-6.61 54.92 54.92 0 0 1 13.29-5 10.91 10.91 0 0 0 1.14-.4c.19-4.21.37-8.22.53-12.24 0-.39 0-1-.28-1.15-1.33-1-1.73-2.43-2.09-4.1-2.56 1.07-3.87-.31-4.72-2.49-.74.25-1.32.42-1.88.64a40.55 40.55 0 0 0 -13.39 8.05c-3 2.77-5.69 5.85-8.57 8.74-3.44 3.45-6.8 7-10.44 10.23a55.77 55.77 0 0 1 -17.35 10.66c-3.49 1.31-7 2.41-11 2.08-.29 2.6-2.27 2.71-4.38 3 .37.56.9.79 1.24 1.18a7 7 0 0 1 1.28 2c.65 1.62 0 2.84-1.64 3.45l-1.47.48a12.66 12.66 0 0 1 1.47 1.32 11.27 11.27 0 0 1 1.76 2.51c.74 1.69.11 2.91-1.62 3.62-.26.11-.53.2-1 .37zm-.6-295.2c-.05.45-.1.68-.1.91.08 5.79.24 11.58.2 17.37a3.46 3.46 0 0 0 2.19 3.65 79.9 79.9 0 0 1 30.36 26.55c.23.33.52.62.88 1 8.76-6.78 17.27-13.71 26.85-19.23a17.48 17.48 0 0 1 -1-1.78 4.67 4.67 0 0 0 -3.26-2.6 54.86 54.86 0 0 1 -20.22-11.17c-3.14-2.78-6-5.84-8.94-8.88a3.76 3.76 0 0 0 -3.23-1.55c-1.52.12-3.05 0-4.57 0a40.77 40.77 0 0 1 -15-2.74c-1.31-.52-2.63-.97-4.16-1.53zm-82.89 274c-1.95-.18-3.83-.31-5.69-.52-7.55-.86-14.49-3.2-20.2-8.45-1.12-1-2.32-2-3.38-3.07-4.86-5-9.66-10.14-14.53-15.18q-3.93-4.07-8-8a14.87 14.87 0 0 0 -6.09-3.56c-1.57-.48-3.08-1.14-4.63-1.71-.43-.16-.87-.27-1.4-.42-.57 3-1.66 5.2-5.47 4.51a22.79 22.79 0 0 0 .86 2.25 14.17 14.17 0 0 1 1.8 6.85c0 2.13-.07 4.26-.1 6.39v2.52c5.27 3.13 10.43 6.14 15.52 9.24 8.26 5 16.14 10.5 22.31 18.09a3.18 3.18 0 0 0 2.18 1.15c1.27.18 2.53.38 3.77.67a67.77 67.77 0 0 1 21.43 9.49l1.78 1.1c.55-1.2 2.19-.79 2.75-2.13-.51-.14-.85-.22-1.19-.33-1.8-.57-2.52-1.94-1.72-3.69a13.54 13.54 0 0 1 1.89-2.63 10.57 10.57 0 0 1 1.23-1.13c-3.44-.83-5.14-2.51-1.43-7.11-1.64-1.63-1.64-1.63-1.69-4.36zm-4.82 62.17c-.3 1.62.73 2.37 1.86 2.78 5.35 2 10.76 3 15.87-.57 4.53-3.2 9.06-6.4 13.34-9.91 9.71-7.95 19.25-16.1 28.88-24.15a3.71 3.71 0 0 0 1.25-2.12c.85-3.51 1.82-7 5.41-8.86 0 0 0-.11.1-.3-.52-.31-1.08-.63-1.63-1a5.76 5.76 0 0 1 -2.59-3.19 2.52 2.52 0 0 1 1.62-3.37c.42-.16.86-.28 1.19-.39-.54-.64-1-1.23-1.54-1.83-1.71-2.12-1.39-3.83 1-5.17a.34.34 0 0 0 .13-.2c-.53-.6-1.07-1.16-1.56-1.77-1.59-2-1.24-3.64 1-4.86.07 0 .07-.19.16-.41-.54-.12-1.05-.27-1.58-.35-2.16-.35-4.32-.73-6.5-1-4.28-.5-8.56-1.27-12.91-.49-1.61.29-3.25.49-4.86.78-2.63.47-5.24 1-7.9 1.48 1.1 2.31 1.73 3.5-1.83 6.9a1.59 1.59 0 0 0 .36.37c1.89 1.16 2.29 2.33 1.21 4.22a10.35 10.35 0 0 1 -1.79 2 14.76 14.76 0 0 1 -1.43 1.11h2a2.55 2.55 0 0 1 2.62 3 5.42 5.42 0 0 1 -2.53 4c-.47.34-1 .65-1.26.86 1 1.33 1.78 2.52 2.65 3.66a4 4 0 0 0 1.17 1.07c2.47 1.32 5 2.6 7.45 3.87a10 10 0 0 0 1.15.42c-.38-4.33 1.66-7.43 5.23-8.15a6.77 6.77 0 0 1 4.94.78 7.11 7.11 0 0 1 3.4 5.9c2.37-1.67 4.4-3.47 7.14-3.95a7.87 7.87 0 0 1 -1.52 1.32c-2.06 1.5-4.22 2.89-6.19 4.51q-15.16 12.54-30.22 25.01a41.63 41.63 0 0 1 -8.39 5.53 23.16 23.16 0 0 1 -12.18 2.53c-.89-.13-1.79-.06-2.72-.06zm-4.5-179.68a133.31 133.31 0 0 1 -6.5-18.33.29.29 0 0 0 -.11-.14.59.59 0 0 0 -.16-.07h-.27c-.27.56-.52 1.17-.83 1.76-1.69 3.3-3.29 6.66-5.14 9.87a30.6 30.6 0 0 1 -7.93 8.74 70.43 70.43 0 0 1 -26.27 12.74 47.58 47.58 0 0 0 -5.73 1.8 14.29 14.29 0 0 0 -8.95 9 15.57 15.57 0 0 0 -.6 6.5c.52 5.79 3.64 10.16 7.66 14.09a8.82 8.82 0 0 1 1.8-1.16 7.75 7.75 0 0 1 1.9-.22 22.15 22.15 0 0 1 1.83-3.28c.9-1.12 2.21-.63 3.2-.38a22.71 22.71 0 0 1 1.87-3.23c.88-1.07 2.18-.74 3.27-.37l1.8-3.71-4.07-5.26-4.1-5.29a42.89 42.89 0 0 1 7.73-6.56l7.72 10zm93.14 88.88c1-.5 2.25-1.06 3.43-1.67a38.74 38.74 0 0 0 12.17-10.06c3.4-4.13 6.86-8.22 10.29-12.34a2.74 2.74 0 0 0 .2-.54l-6.73-5.45 8.44-11.08a8 8 0 0 0 -.75-.77q-13.59-10.76-27.23-21.51a.27.27 0 0 0 -.18 0 1.62 1.62 0 0 0 -.28.15 9.75 9.75 0 0 0 -.14 1.31q0 18.27 0 36.55c0 .58.12 1.16.2 1.95h11.73c.48 2 .41 9.92-.08 11.31-4.55 0-9.14 0-13.86.3.23.48.63.65.9.95a8.42 8.42 0 0 1 1.34 1.71c1.09 2 .26 3.79-2 4.3-.43.1-.87.15-1.22.22zm-82.13-6.5c-1.21-.53-2.21-1.25-2-2.59a23.28 23.28 0 0 1 1.06-3.41h-12.74v-11.3h11.84c.45-2.34.34-38.65-.15-40.14l-25.59 21.59 9.07 11.93c-2.55 2.06-5 4-7.57 6.08l-8.3-10.58c-.71 1.09-1.12 2.24-1.94 2.82s-2 .58-3.24.87c.49.32.91.64 1.36.9a51.58 51.58 0 0 1 13.11 10.66c1.86 2.1 3.55 4.34 5.39 6.45 2.12 2.43 4.2 4.91 6.52 7.15a23.38 23.38 0 0 0 11.57 6.27c.56.11 1.14.14 2.07.25-3.2-2.21-3.25-3.33-.46-6.95zm133.78-65.76 7.71 6.59-4.32 5.61c-1.43 1.86-2.88 3.72-4.24 5.47l2.06 2.92c1.12-.51 2.33-.87 3.26.09a22 22 0 0 1 2.05 2.88c3.22-1.44 4.32-.61 5.59 4.19a7.18 7.18 0 0 1 2.29-.13 1.68 1.68 0 0 0 2-.76 18.1 18.1 0 0 0 4.13-10.53c.29-5.74-1.75-10.36-6.48-13.7a20.71 20.71 0 0 0 -7.32-3.18 71.6 71.6 0 0 1 -28.52-13.46 30 30 0 0 1 -7.48-8.18c-1.85-3.14-3.45-6.43-5.16-9.65-.23-.44-.48-.86-.91-1.63-.57 1.82-.95 3.21-1.45 4.57-1.45 3.94-2.91 7.88-4.45 11.78-.37 1-.39 1.61.51 2.18a7.7 7.7 0 0 1 .71.57l29.61 24.42c.51.42 1 .79 1.69 1.29zm-153.72-90.8a4.06 4.06 0 0 0 .32-.61 92.88 92.88 0 0 1 3.38-13.45 1.82 1.82 0 0 0 -.31-1.3 4.42 4.42 0 0 0 -1.07-1c-5.72-4.55-11.38-9.17-17.19-13.61a249 249 0 0 0 -22.92-16 39.83 39.83 0 0 0 -23.26-5.61 25.35 25.35 0 0 0 -2.62.44zm184.33-54.36-.23-.41a32 32 0 0 0 -8.53-.17 35.63 35.63 0 0 0 -14.92 4.49c-3.71 2.21-7.32 4.62-10.82 7.14-10.89 7.84-21 16.58-31.34 25.17-1.25 1-2.43 2.17-3.5 3.13 1.77 4.17 3.43 8.12 5.21 12.32zm-16.81 33.12c-1.43 1.17-2.66 2.25-4 3.21a2.17 2.17 0 0 0 -.9 2.78c1.72 5.71 3.33 11.46 4.94 17.21a4.69 4.69 0 0 0 1.6 2.56q9.06 7.26 18.09 14.55c.27.22.69.55.93.47 1.14-.36 1.68.49 2.33 1.07q8.32 7.42 16.61 14.88c1.54 1.38 3 2.86 4.49 4.3.32.32.63.67 1 1l4-3.95c-.41-.57-.76-1.06-1.13-1.53-3.11-3.91-6.27-7.78-9.32-11.74-4.39-5.69-8.57-11.55-13.09-17.13a315.61 315.61 0 0 0 -21.8-24.15c-1.12-1.13-2.35-2.22-3.75-3.53zm.86-.73a5.1 5.1 0 0 0 .44.57 281.19 281.19 0 0 1 30.12 34c5.68 7.75 11.85 15.15 17.8 22.71a10.32 10.32 0 0 1 .63 1.05l3.3-3.31c-.58-1.2-1.09-2.17-1.54-3.16-3.27-7.27-6.55-14.53-9.78-21.81a13.67 13.67 0 0 1 -1.24-6.76 2.86 2.86 0 0 0 -.8-2.32c-3.8-4.11-7.46-8.35-11.37-12.36a47.06 47.06 0 0 0 -18.51-11.71 20.61 20.61 0 0 0 -3.34-.9 2.33 2.33 0 0 0 -1.65.4c-1.37 1.1-2.64 2.32-4.01 3.6zm15.91 195.07c-.73.46-1.19.72-1.61 1q-17.85 13.06-35.7 26.13a54.17 54.17 0 0 0 -8 7.22 228.86 228.86 0 0 0 -14.85 18.32c-.23.32-.39.7-.68 1.22.8-.07 1.4-.16 2-.17 2.68-.05 5.36-.16 8-.05a3.67 3.67 0 0 0 2.54-.62c4-2.94 8.19-5.74 12.14-8.8 5.14-4 10.36-8 15.13-12.38 9.27-8.58 15.71-19.17 20.58-30.76.16-.24.24-.51.45-1.11zm-139.38-188.59c3.62.4 28.6.23 30-.2a5.63 5.63 0 0 0 .11-.85q0-11.14 0-22.28c0-.12 0-.24 0-.36a1.07 1.07 0 0 0 -1-1.24c-.36 0-.71-.17-1.07-.24a63.18 63.18 0 0 0 -26.26.75c-1.82.44-1.83.46-1.83 2.28q0 10.23 0 20.46c-.07.56 0 1.06.05 1.68zm138.64 187.66-.11-.34a14.66 14.66 0 0 0 -2 .11c-3.77.68-7.6 1.17-11.29 2.15a43.33 43.33 0 0 0 -21 12.06c-1.92 2-4 3.88-6.08 5.8-5.24 5-10.17 10.17-13.92 16.4a27.24 27.24 0 0 1 -2.53 3.35 152.49 152.49 0 0 1 -16.34 16.21l-1.85 1.72c.87-.09 1.28-.11 1.68-.19 3.28-.65 6.55-1.42 9.86-1.9a4.39 4.39 0 0 0 3.07-1.91c4.19-5.38 8.4-10.76 12.73-16a64.47 64.47 0 0 1 12.12-11.32c11.41-8.25 22.74-16.6 34.1-24.91.52-.43 1.04-.84 1.56-1.23zm9.72 15.9-1.35 1.58q-7.2 8.39-14.4 16.77a23.16 23.16 0 0 1 -6.26 5.28 13 13 0 0 0 -3.57 3.07 47.13 47.13 0 0 1 -20.76 14.12 5.53 5.53 0 0 0 -.95.54l10.47 3.6-1.76 2.2a3.7 3.7 0 0 0 1.92-.29 80.1 80.1 0 0 0 25.65-16.55 44.65 44.65 0 0 0 9-11.66 37.82 37.82 0 0 0 4.22-13.34 3.65 3.65 0 0 0 -.19-1.92 38.34 38.34 0 0 0 -2.02-3.4zm-199.7 42.37a8.26 8.26 0 0 0 -3.55-3.61 43.37 43.37 0 0 0 -15.23-4.85 46.92 46.92 0 0 1 -20.39-8 113 113 0 0 1 -9-6.89 137.07 137.07 0 0 1 -16.15-16.88c-.4-.48-.82-.94-1.24-1.42-.5 1.43-.86 2.64-1.37 3.79a1.49 1.49 0 0 0 .17 1.52c4.5 7.55 9.3 14.87 15.26 21.38a37 37 0 0 0 13.65 9.55 177 177 0 0 0 24.76 7.61 2.59 2.59 0 0 0 1.07.08c3.96-.72 7.88-1.48 12.02-2.28zm32.14-357.11a10.18 10.18 0 0 0 -5.57-.75 238.25 238.25 0 0 0 -30.34 6.55 23 23 0 0 0 -8.52 4.44c-4.2 3.53-8.35 7.11-12.51 10.68-.32.27-.81.66-.78 1 .17 1.68-.84 3.11-.85 4.76s-.26 3.46-.42 5.26c4.18-1.45 55.45-29.17 58.99-31.94zm-49.75 362.8c.64.84 1 1.38 1.44 1.87a41.91 41.91 0 0 0 23.29 13.51c7.56 1.61 15.14 1.17 22.73.21a13.8 13.8 0 0 0 6-2.11c2.74-1.81 5.38-3.77 8.05-5.68.15-.11.21-.35.4-.67-10.45-.79-20.74-1.25-30.94-2.42s-20.35-3.06-30.97-4.71zm51.62-361.48c-1-.84-1.63 0-2.23.32-13.52 7.38-27 14.82-40.55 22.17-5.61 3-11.34 5.91-17 8.87-.51.27-1.24.64-1.34 1.09a34.51 34.51 0 0 0 -.54 4.13 3.14 3.14 0 0 0 .71 0c9.38-2.15 18.74-4.3 27.93-7.18a26.19 26.19 0 0 0 9.35-5.17 217 217 0 0 0 23.08-23.4 10.12 10.12 0 0 0 .59-.83zm-8.15 64.47c.74-.27 1.13-.41 1.52-.57 2.7-1.12 5.39-2.26 8.1-3.35 1.8-.74 1.84-.71 1.84-2.62q0-24.66 0-49.33c0-.45-.1-.89-.15-1.39a3.44 3.44 0 0 0 -.48.22 3.51 3.51 0 0 0 -.37.4 43.84 43.84 0 0 0 -8.35 17.5c-1.49 6.93-1.85 14-2.14 21-.22 5.36-.09 10.72-.1 16.08.02.63.13 1.21.13 2.06zm25.45 200.18h11.79v11.32h-4.12c-1.28 0-2.56 0-3.84 0s-2.64-.24-4 .23c.32 1.73-.6 3-1.4 4.39 1.79.47 2.37 1.82 2.61 3.35a6.07 6.07 0 0 0 .86 0 72.53 72.53 0 0 1 26 .5 5.67 5.67 0 0 0 3.94-.65 20.26 20.26 0 0 1 -1.7-3.62c-.42-1.61 1.26-2.07 2.16-2.85a2.6 2.6 0 0 0 -2.48-1.08c-3.29 0-6.58 0-9.87 0-.6 0-1.19-.05-2-.09 0-3.77-.16-7.43.13-11.17 4.08-.2 8 .09 11.78-.17.43-2.61.31-11.33-.21-12.73a153.86 153.86 0 0 1 -14.1 11.92c-.61-.45-1.13-.77-1.58-1.16l-12.32-10.9c-.46-.41-.78-1.1-1.6-1.05zm99.3-36.58-32.33-26.66-5.58 11c1.77 1.89 29.8 24 31.15 24.52zm9.39 132.16-.21-.29c-10.51 1.19-21 2.66-31.55 3.51s-21.17 1.09-31.76 1.6c3.28 1.82 6.62 3.43 10 5 5.39 2.53 11.25 3.56 16.91 5.18a3.54 3.54 0 0 0 1.45 0c2.89-.42 5.81-.74 8.66-1.34a53.88 53.88 0 0 0 23.17-10.65c1.19-.94 2.24-2 3.36-3.01zm-108.63-303.64a101.17 101.17 0 0 1 29.88-.55c.23-6.09.46-11.94.69-17.9-.57.1-1 .15-1.39.24-2.19.5-4.37 1.08-6.58 1.49-6.53 1.19-13.06 1.45-19.54-.42a6.89 6.89 0 0 0 -3.69.32c.21 5.62.41 11.07.63 16.82zm-110.72 0h-.37a11.7 11.7 0 0 0 -.56 1.12c-2 4.92-4 9.81-5.8 14.78-5 13.84-9.43 27.88-13.66 42a11.18 11.18 0 0 0 .26 5.94c.57-1 1.09-1.86 1.59-2.75 4.66-8.22 9.47-16.34 15.48-23.66a34.68 34.68 0 0 0 4.52-7.67 3.4 3.4 0 0 0 .15-2.47 36.27 36.27 0 0 1 -1.11-4.8c-.29-1.84-.72-3.63-.29-5.44l2.25-.68a125.92 125.92 0 0 0 -2.46-16.42zm246.67 12.22.24-.29c-.85-1.18-1.69-2.38-2.55-3.55a171.89 171.89 0 0 0 -13.89-17 21.82 21.82 0 0 0 -12.14-6.56 198.77 198.77 0 0 0 -28-2.86 6.5 6.5 0 0 0 -1 .18zm-273.24 92a8.34 8.34 0 0 0 .69-.53c7.86-8.25 16.17-16 24.77-23.5a5.16 5.16 0 0 0 .74-.81 119.22 119.22 0 0 0 9.73-15 17.28 17.28 0 0 0 1.85-5.69c.44-3 1-6 1.43-9 .14-.86.27-1.71.4-2.57a5 5 0 0 0 -1.54 1.39c-8.07 10.04-16.11 20.14-24.29 30.13a61.49 61.49 0 0 0 -6.34 9.35c-2.36 4.26-4.82 8.46-7.25 12.68-.42.73-.92 1.41-1.46 2.25zm204.87 105h-47.22c-1.45.06-1.57.15-1.6 1.57v5.48c0 2.4 0 2.41 2.46 2.41h43.87 1.46a1 1 0 0 0 1-1c.03-2.75.03-5.42.03-8.47zm-56.67 9.2v-6.62c0-2.72 0-2.73-2.7-2.73h-43.49c-.43 0-.86 0-1.28 0-1.15.09-1.35.26-1.37 1.46v6.58c0 1.2.19 1.32 1.4 1.39h.92 44.22c.65.01 1.31-.05 2.3-.09zm-13.31 90.17c-.23-.24-.32-.41-.46-.49-3.16-1.72-6.31-3.44-9.48-5.12a3.32 3.32 0 0 0 -1.41-.28 12 12 0 0 1 -7.28-2.54 4.39 4.39 0 0 0 -2.51-.94c-2.19-.14-4.38-.34-6.57-.38a135.43 135.43 0 0 0 -30.11 3.07c-2.46.51-4.9 1.1-7.34 1.64a1.31 1.31 0 0 0 .86.57c5.1.86 10.19 1.77 15.31 2.55 5.29.82 10.59 1.72 15.92 2.21 9.58.86 19.19 1.45 28.79 2.13a2.92 2.92 0 0 0 1.7-.37 28.6 28.6 0 0 0 2.58-2.06zm106.4-333.39.31-.49a11.48 11.48 0 0 0 -1.41-1.46c-2.07-1.5-4.15-3-6.28-4.41-13.13-8.69-26.79-16.61-40.62-24.17a18.82 18.82 0 0 0 -1.94-1 6.3 6.3 0 0 0 -1.5-.15c.26.52.33.75.46.94a157.89 157.89 0 0 0 19.55 22.87 20.16 20.16 0 0 0 8.71 4.77 93 93 0 0 0 15.28 2.54c2.48.23 4.93.37 7.44.56zm-197.2 74.95c-.26.65-.47 1.08-.61 1.53q-2.53 8.38-5.06 16.78c-.53 1.74-.49 1.71 1 2.8a20.9 20.9 0 0 0 11.89 3.57 142.35 142.35 0 0 0 20.22-1.18 15.06 15.06 0 0 0 1.85-.44zm-44.48-15.79c-.58.67-1 1.1-1.33 1.57-2.71 3.68-5.55 7.27-8.08 11.07-2.22 3.34-4.16 6.88-6.14 10.37a16.76 16.76 0 0 0 -1.72 10.46 155.05 155.05 0 0 0 4.66 22.89 5.76 5.76 0 0 0 3.18 3.43c2.48-19.91 5.05-39.83 9.43-59.79zm26.08-36.21c-.59.47-1 .72-1.3 1-3.85 3.73-7.79 7.37-11.48 11.24-2.72 2.86-5.17 6-7.64 9.08a15.82 15.82 0 0 0 -3.3 9.13c0 .6-.17 1.2-.19 1.81-.15 2.91-.42 5.79.25 8.72 1.12 4.91 2 9.89 3 14.84.12.59.27 1.17.5 2.18 6.25-19.66 12.09-39 20.16-58zm142.34-18.3c.17-1.45.25-2.71.5-3.94a2.13 2.13 0 0 0 -1-2.28q-6.5-5.34-12.9-10.76-13.49-11.36-26.85-22.79a9.24 9.24 0 0 0 -10.7-1.55c-.56.25-1.13.47-1.67.75-.39.2-.74.49-1.44.95a10.84 10.84 0 0 1 7.7 3.28c3.69 3.46 7.54 6.74 11.29 10.12 3 2.69 5.92 5.43 8.87 8.16 2.54 2.36 5 4.82 7.62 7.09a55.73 55.73 0 0 0 15.45 9.92c.94.35 1.88.67 3.13 1.09zm-151.42 161.93a15.37 15.37 0 0 0 3.19-5 4.27 4.27 0 0 0 -.83-4.9c-.55-.57-1-1.27-1.54-1.8-8.35-7.82-16.65-15.68-25.09-23.46-6-5.51-11.92-11-17-17.35a2.2 2.2 0 0 0 -.56-.38 4.64 4.64 0 0 0 -1.09 4.35 32.55 32.55 0 0 0 1.56 4.65 31.57 31.57 0 0 0 5 7.41 85.74 85.74 0 0 0 10 9.67c4.46 3.79 8.94 7.55 13.36 11.38 3.31 2.88 6.49 5.91 9.84 8.74a8 8 0 0 1 3.16 6.69zm162.63-140.23c.19-.21.32-.29.34-.39a5.69 5.69 0 0 0 .13-1.08q0-24.21-.09-48.43s-.06-.09-.11-.12-.11 0-.26-.05c-.25.28-.55.57-.8.91a42.89 42.89 0 0 0 -8.14 17.76c-1.66 9.07-2 18.26-2.19 27.46v.19c.07 1.36.1 1.41 1.41 1.69s2.51.44 3.77.7c2.01.47 4.01.96 5.94 1.36zm-148.68 253-.19.16c.15.3.27.62.44.91a131.31 131.31 0 0 0 11.86 17.53 31 31 0 0 0 13.7 10.27c7.31 2.7 14.52 5.65 21.83 8.36a17 17 0 0 1 8.3 6.29c.88 1.27.95 1.25 2.58.55-.31-.39-.59-.78-.92-1.12-2-2.08-3.92-4.17-5.94-6.21-5.64-5.68-11.62-11-18.87-14.56a27.68 27.68 0 0 1 -3.13-1.89q-14.11-9.69-28.21-19.33zm270.2-50 .28.17a6 6 0 0 0 .74-.57c2.76-2.39 5.57-4.74 8.26-7.22a38.37 38.37 0 0 0 6.74-7.88 7.57 7.57 0 0 1 2.17-2.16 4.41 4.41 0 0 0 1.6-1.91 69 69 0 0 0 4.49-13.3 11.61 11.61 0 0 0 -.73-8.27c-1.51-3.12-2.67-6.41-4.74-9.25-.22-.3-.5-.57-.9-1-1.1 3.69-2.12 7.13-3.16 10.56s-2.05 7-3.19 10.48-2.36 6.79-3.62 10.15-2.64 6.82-4 10.22-2.63 6.58-3.92 9.93zm-242.07-236.78a5.49 5.49 0 0 0 -.8.49c-1.1 1.31-2.23 2.58-3.27 3.93-8.95 11.59-16.84 23.87-24.72 36.22a2.28 2.28 0 0 0 -.49 1.15c.12 1.71.33 3.41.53 5.22a6.69 6.69 0 0 0 .76-.34 163.5 163.5 0 0 0 18.18-14.4 20 20 0 0 0 6-10c.94-3.9 1.81-7.83 2.49-11.78.61-3.37.88-6.78 1.32-10.49zm191.59 41.51a12.7 12.7 0 0 1 2.35.68 46.19 46.19 0 0 1 4.86 2.86 5.66 5.66 0 0 0 4.79 1c1.36-.32 2.74-.56 4.13-.75s3.06-.33 4.73-.5c-1.63-1.3-55.08-29.25-56.57-29.56 9 13.33 20.17 23.77 36 28.64-.11-.77-.17-1.34-.29-2.37zm-157.69 192-31.15-40.74a75.4 75.4 0 0 0 -6.26 5.36c1.61 2.78 30.21 39.32 31.44 40.17zm20.94-35.45c-1.71.74-1.89 2-1.88 3.41q0 18 0 36v.73c.07 1.42.18 1.59 1.59 1.6h8.23c1.6 0 1.77-.18 1.77-1.81q0-12.79 0-25.58a3.87 3.87 0 0 0 -.86-2.52c-2.68-3.54-5.31-7.13-8-10.7-.21-.4-.53-.76-.85-1.17zm107.69 40.82 31.3-40.26a73.4 73.4 0 0 0 -6.4-5.51l-31 40.59c1.86 2 4 3.36 6.1 5.18zm32.56-153.58-25.35 19.25c-.43.33-.84.7-1.26 1.05a.23.23 0 0 0 -.05.17 2.33 2.33 0 0 0 .09.23 6.18 6.18 0 0 0 .8.28c4.23.84 8.44 1.83 12.71 2.48a37.75 37.75 0 0 0 14.52-.3c1.24-.29 2.46-.68 3.68-1.06a1.08 1.08 0 0 0 .81-1.41c-.08-.36-.18-.71-.28-1.06q-2.53-9-5.08-17.91c-.18-.52-.38-1.02-.59-1.72zm51.64-15.23-.34.21c.07.58.12 1.17.23 1.75 1.21 6.28 2.35 12.57 3.67 18.83a123.89 123.89 0 0 0 5.35 19.52c1.93 5 3.72 10.05 5.58 15.07.12.32.27.62.52 1.18a23 23 0 0 0 5.18-8.92 12.43 12.43 0 0 0 .1-6 61.23 61.23 0 0 0 -4.57-13.46 296.36 296.36 0 0 0 -15.56-27.72 2.72 2.72 0 0 1 -.19-.46zm-290.64 148.96a11.35 11.35 0 0 0 .32-1.15c.59-4.95 1.38-9.9 1.71-14.87a132.77 132.77 0 0 0 0-21c-.19-2 .57-4.34-1.38-6-.08-.08 0-.35 0-.54 0-.54.07-1.09.1-1.64a6 6 0 0 0 -2.34-5.28c-1.84-1.5-3.55-3.16-5.33-4.73a8.65 8.65 0 0 0 -1.13-.69c.06.92.1 1.58.14 2.25.44 6.63 1 13.25 1.29 19.88a179.46 179.46 0 0 1 -.85 22.83 3 3 0 0 0 .65 2.35c.93 1.12 1.77 2.32 2.68 3.47 1.29 1.63 2.59 3.22 4.14 5.12zm61.89-8.17 5.32-4.59 22.87-19.89c1-.91 1.06-1.07.44-2.33q-1.61-3.27-3.25-6.54a11.2 11.2 0 0 0 -.76-1.15c-.85.67-1.61 1.25-2.36 1.86l-12.35 10.3q-7.59 6.3-15.17 12.6c-1.17 1-1.19 1.15-.27 2.38 1.54 2 3.11 4.07 4.66 6.1.25.34.48.7.85 1.26zm152.34 117.18c7 2.06 8 2 14.26-.8l.49-.24a47.27 47.27 0 0 0 16-12.48c7.19-8.32 12.66-17.57 15.48-28.27.14-.57.23-1.15.35-1.72l-.32-.17c-1.89 2.09-4.27 3.68-5.81 6.17a79.13 79.13 0 0 1 -17 19.72q-10.59 8.72-21.82 16.58c-.46.34-.94.71-1.63 1.21zm103.39-204.34c-.95 1.2-1.82 2.36-2.77 3.46a208 208 0 0 1 -15.42 15.58c-8.48 8-16.84 16.07-25.25 24.12a3.23 3.23 0 0 0 -1.05 2.62c.16 2.61 1.57 4.58 3.1 6.56.24-.22.31-.25.32-.3a2.05 2.05 0 0 0 .13-.53 7.15 7.15 0 0 1 2.78-5.14c2.71-2.36 5.29-4.86 8-7.25 4.32-3.85 8.63-7.72 13-11.46a103 103 0 0 0 11.34-10.86 32.78 32.78 0 0 0 5.37-8 27.9 27.9 0 0 0 1.53-4.85 4.06 4.06 0 0 0 -1.08-3.95zm-18.52 9.48c1.61-1.55 3.11-3 4.66-4.47a1.94 1.94 0 0 0 .51-2.42c-1.1-3-2.06-6-3.16-8.95-2.13-5.7-4.5-11.32-5.8-17.29-1.69-7.72-3.3-15.46-4.94-23.19-.35-1.64-.69-3.28-1-4.92a21.7 21.7 0 0 0 -.71 4.29c-.58 7.22-1.11 14.44-1.75 21.66a25.63 25.63 0 0 0 2.06 13.7c3.29 6.85 6.4 13.79 9.6 20.7a8.24 8.24 0 0 0 .53.89zm-202.19-123.8c-1 .18-1.78.28-2.52.45-1.54.36-3 .84-4.6 1.14-5.25 1-10.56.64-15.86.58-3.76-.05-7.54.06-11.31.26a18.57 18.57 0 0 0 -7.24 1.72c-4.27 2.07-8.5 4.23-12.72 6.4a2.3 2.3 0 0 0 -1.06 1.14c-.59 1.58-1 3.2-1.66 5.13l3.78-1.82c4.16-2.09 8.42-3.89 13.14-4.13 3-.15 6-.19 9-.21 4.44 0 8.89.15 13.33 0 6-.19 11.41-2.33 16.59-5.16a1.55 1.55 0 0 0 .77-.91c.15-1.45.22-2.89.36-4.59zm-110 223.1.14-.11c-3.2-8.58-6.53-17.11-9.59-25.74s-4.16-17.79-6.36-27.11a23.54 23.54 0 0 0 -1.43 2.37c-1.45 3.21-2.89 6.44-4.27 9.69a5.89 5.89 0 0 0 -.41 2.13c-.06 2.8-.13 5.6 0 8.39a15.24 15.24 0 0 0 1.64 6.87c3.12 5.72 7.42 10.54 11.88 15.21 2.1 2.2 4.39 4.2 6.58 6.32.62.62 1.2 1.32 1.82 1.98zm243.79 101.54c-.43-.18-.85-.4-1.29-.54-3.31-1-6.6-2.14-9.94-3.07a44.54 44.54 0 0 0 -17.16-1.54 143.47 143.47 0 0 0 -36.92 9.81 5.6 5.6 0 0 0 -.94.7 379.85 379.85 0 0 0 66.25-5.36zm-253-205.11a4.56 4.56 0 0 0 .32-.37 153.08 153.08 0 0 0 11.19-25.34 22.84 22.84 0 0 0 1-8.47 127.29 127.29 0 0 0 -2.9-18.73c-.5-2.31-1-4.61-1.57-6.91a2.84 2.84 0 0 0 -.67 1.33c-.52 2.44-1.06 4.87-1.5 7.32-3 16.16-5.19 32.43-7.1 48.75a2.1 2.1 0 0 0 1.24 2.42zm177 201.15-2.95-6.31c-.27.18-.48.3-.67.45-7.38 6.17-14.8 12.31-22.13 18.54a186.82 186.82 0 0 1 -19.95 15.39 8 8 0 0 0 -.83.73 6.55 6.55 0 0 0 4.9.78 41.1 41.1 0 0 0 18.84-9.17c8.02-6.27 14.99-13.73 22.79-20.41zm111.11-46.22a30.08 30.08 0 0 0 8.82-1.88 6.58 6.58 0 0 1 4.78-.61 2.31 2.31 0 0 0 2.82-.86 158.86 158.86 0 0 0 16.39-22.11 40.92 40.92 0 0 0 6.2-18.53 25.75 25.75 0 0 0 -1-9.36c-.72 1.73-1.29 3.11-1.87 4.49a144.46 144.46 0 0 1 -12.3 22.17 5 5 0 0 0 -.8 2.89 44.32 44.32 0 0 1 -.38 5.27c-.76 6.13-8 10.63-12.9 9.6a2.09 2.09 0 0 0 -2.19.84c-2.16 2.31-4.36 4.59-6.54 6.89-.27.25-.52.58-1.03 1.2zm19.06-117.35c-2.18 2-4 3.75-5.87 5.48a1.63 1.63 0 0 0 -.33.64c-.57 2-1.45 3.91-.7 6.12-1.18-.09-1.22.75-1.38 1.47-1.08 5-2.17 10-3.22 15a45.26 45.26 0 0 0 .71 21.33c.13.5.34 1 .56 1.57 1.3-.76 2.43-1.47 3.61-2.07a2.13 2.13 0 0 0 1.25-1.83c.31-2.23.67-4.46 1.09-6.67 2.5-12.87 3.31-25.94 4.28-39 .04-.52 0-1.04 0-2.04zm-301.75-31.92c.69-1 1.17-1.67 1.55-2.35 2.78-4.87 5.51-9.76 8.31-14.61a37.61 37.61 0 0 1 3.2-4.88c7-8.73 14.11-17.41 21.17-26.11a13 13 0 0 0 .72-1.11c-3.5 1.86-6.66 3.69-9.95 5.25a25.88 25.88 0 0 0 -8.24 6.23c-.78.86-1.57 1.7-2.3 2.6-6 7.37-11.87 14.83-15.66 23.68-.74 1.73-1.72 3.36-2.58 5l-.65 1.35zm277.88-107.4a72.24 72.24 0 0 0 -9.75-15.74 37.89 37.89 0 0 0 -10.35-8.86 125 125 0 0 0 -16.07-7.85 9.92 9.92 0 0 0 -1-.21l36.92 42.24a1.15 1.15 0 0 0 .15-.85c-.44-2.27-.92-4.53-1.31-6.81-.24-1.38-.17-1.39 1.41-1.92zm19.49 187.41a3.87 3.87 0 0 0 3.48-3.1 21.22 21.22 0 0 1 1.11-2.89c3-7.41 6.52-14.55 10.16-21.65a5.38 5.38 0 0 0 .76-2.56c-.18-3.4-.49-6.79-.86-10.18a4.41 4.41 0 0 0 -.9-2.11c-1.85-2.42-3.77-4.79-5.68-7.16a9 9 0 0 0 -.89-.85c-.86.64-1.58 1.17-1.66 2.34-.3 4.68-.74 9.35-1 14a237.47 237.47 0 0 1 -3.16 25.96c-.48 2.66-.85 5.36-1.36 8.2zm-291.68-54.39a3 3 0 0 0 -.37.61c-2.49 7.18-5 14.35-6.85 21.75a15 15 0 0 0 0 7.22 64.23 64.23 0 0 0 5 12.9c.05.1.17.16.26.24l.52-.42c.6.91 1.15 1.84 1.8 2.7a12.81 12.81 0 0 0 2.36 2.77c.25-3.85.49-7.37.68-10.89.61-11.22-.46-22.38-1.28-33.56a3.68 3.68 0 0 0 -2.12-3.32zm28.27 126.1c.38.29.74.61 1.13.88 5.79 4.07 11.51 8.21 17.38 12.15q7.57 5.1 15.44 9.77a63 63 0 0 1 10 7q4.2 3.79 8.21 7.81c2 2 3.84 4.08 5.71 6.17.65.71 1.26 1.13 2.13.46 0-.16 0-.3 0-.38-.21-.37-.44-.73-.68-1.08a180.36 180.36 0 0 0 -13.74-17.78 59.17 59.17 0 0 0 -14.12-11.78 127.61 127.61 0 0 0 -16.17-8.07 105.89 105.89 0 0 0 -15.29-5.15zm208.05-282.39a3 3 0 0 0 -.07-.69q-1.63-4.15-3.31-8.3a6 6 0 0 0 -.82-1.41c-1.13-1.51-2.29-3-3.45-4.49a22.09 22.09 0 0 0 -10.48-7.34 174.05 174.05 0 0 0 -25.81-6.48 17.66 17.66 0 0 0 -3 0c15.93 9.13 31.71 18.31 46.94 28.71zm-204.93 273.33c.43 2.5.79 4.83 1.27 7.14a2 2 0 0 0 .94 1.19c2.59 1.36 5.14 2.81 7.83 3.92a143.07 143.07 0 0 1 18.21 8.9 60.89 60.89 0 0 1 15 12.41 187.18 187.18 0 0 1 12.5 16c.91 1.28 1.89 2.52 2.84 3.77 1.57-.1 3.15-.2 4.72-.32.09 0 .18-.13.35-.27-.24-.32-.46-.67-.73-1-8-8.9-16.07-17.83-24.17-26.68a39 39 0 0 0 -5.66-5.16 218.14 218.14 0 0 0 -31.64-19.27c-.41-.25-.86-.39-1.46-.63zm242.41-247-.21.2c.29.53.55 1.07.85 1.6 2.85 5 5.65 10 8.56 14.89 4.64 7.87 9.43 15.65 14.76 23.08.37.51.77 1 1.4 1.82.19-1.6.3-2.73.46-3.86.19-1.32.39-1.41 2-.77-.32-3.37-.61-6.63-.95-9.89a14 14 0 0 0 -5.85-10.32c-.2-.14-.36-.32-.55-.47l-19.82-15.9c-.26-.18-.44-.29-.65-.42zm-192.75-9c-1.49-.08-2.69-.09-3.88-.24a6.34 6.34 0 0 0 -4 .83c-5.85 3.27-11.73 6.48-17.6 9.69a35.63 35.63 0 0 0 -8.86 6.69c-2.9 3-5.63 6.24-8.41 9.38a12.75 12.75 0 0 0 -1 1.41c1.42.3 2.63.62 3.87.79a1.71 1.71 0 0 0 1.11-.47c4.52-3.79 9.69-6.51 15-9.06a69.94 69.94 0 0 0 22.41-17.28c.42-.49.79-1.02 1.36-1.75zm50.88 337.38c.41.2.67.36.95.46a40.8 40.8 0 0 0 10.88 2.22c9.94.6 19.51-1.23 28.85-4.48.38-.13.73-.33 1.21-.55a3.86 3.86 0 0 0 -.52-.44c-3.54-1.89-7.08-3.8-10.65-5.63a5 5 0 0 0 -2.27-.46q-7 .07-14.06.3a3.69 3.69 0 0 0 -1.79.68c-2.85 1.86-5.64 3.81-8.51 5.66-1.26.81-2.64 1.44-4.09 2.23zm-102.68-88-.22.33c.48 1.24 1 2.47 1.41 3.74a2.54 2.54 0 0 0 1.51 1.67 208.93 208.93 0 0 1 31.65 18.88 50.79 50.79 0 0 1 6.62 5.72c4 4.15 7.9 8.45 11.79 12.73 4.58 5.06 9.1 10.17 13.67 15.24.43.47 1 1.1 1.53 1.16a33.24 33.24 0 0 0 4.38-.08c-.87-.73-1.39-1.14-1.87-1.57-3.13-2.8-6.48-5.4-9.33-8.46-4.64-5-9-10.28-13.39-15.47a8.77 8.77 0 0 1 -1-1.86l1.16-.39c-.27-.32-.45-.56-.64-.79a65.41 65.41 0 0 0 -14.82-12.9c-3.15-2-6.23-4-9.4-6a166.75 166.75 0 0 0 -19.08-10.38c-1.26-.61-2.63-1.08-3.97-1.6zm-3.76-230.73c9.4-14.32 18.28-28.48 29-41.43-1.31.56-2.59 1.2-3.86 1.86a111 111 0 0 0 -15.34 9.51 19.83 19.83 0 0 0 -7 9.14c-1.38 3.84-2.71 7.68-4 11.53a3.2 3.2 0 0 0 -.19 1.43c.36 2.51.84 5.01 1.39 7.96zm300.86 133.2a44.26 44.26 0 0 0 4.79-19c.24-7.53-1.14-17.14-2.73-19.26a59.36 59.36 0 0 1 -8.07 10.13 2.7 2.7 0 0 0 -.62 1.62c-.32 5.41-.59 10.82-.85 16.23a7 7 0 0 0 .19 1.27l.38.07c.54-.84 1.09-1.68 1.7-2.64a4.1 4.1 0 0 1 .58 1c.27 1.61.47 3.24.75 4.85a3.72 3.72 0 0 0 .56 1.51c1.01 1.36 2.09 2.67 3.32 4.22zm-43.45 68.92c5.29-9.62 10.45-19.12 15.69-28.72a2.72 2.72 0 0 0 -.58 0c-.41.12-.81.26-1.21.42a55.68 55.68 0 0 0 -17.18 10.57 43.52 43.52 0 0 0 -7.22 8.46 2.51 2.51 0 0 0 -.54 1.46 24 24 0 0 0 .76 3.12c3.06-.45 4 .2 4.84 3.26a6.64 6.64 0 0 0 .43.95c2.36-1.55 2.77-1.51 5.01.48zm-111.32-271.62a2.31 2.31 0 0 0 -.3-.4 5.81 5.81 0 0 0 -.61-.4 35 35 0 0 0 -17-5 61.14 61.14 0 0 0 -22.7 4.05 3 3 0 0 0 -.59.36c1.64 1.16 3.21 2.2 4.7 3.34s2.62 2.19 4 3.24a2.78 2.78 0 0 0 1.44.63c1.44.09 2.89 0 4.18 0 3.71-6.26 9.33-6.2 13.38-.05 1.17.09 2.38.23 3.59.25a2.5 2.5 0 0 0 1.51-.42c2.58-2.16 5.13-4.41 8.4-5.6zm94.72 100.3c1.12 1.51 2.3 3 3.41 4.63a6.43 6.43 0 0 0 2.62 2.17 38.72 38.72 0 0 1 9.71 6.42 97.73 97.73 0 0 1 7.6 7.35 12.39 12.39 0 0 0 6.31 3.7 6.23 6.23 0 0 0 1.31.1c.13-1.83.18-3.53.4-5.21a2.44 2.44 0 0 0 -1.06-2.47c-2.41-1.94-4.85-3.88-7.07-6-5.65-5.53-11.19-11.18-16.78-16.77l-1.42-1.43zm5.89-40.59a4.59 4.59 0 0 0 -.08.83 228 228 0 0 0 6.77 26.11c3.14 9.26 9.64 15.12 18.76 18.27a10.82 10.82 0 0 0 1.16.23c.35-2 .34-2-.71-3.46-1.31-1.83-2.64-3.65-3.9-5.51-7.48-11.05-14.13-22.59-20.68-34.2-.43-.68-.83-1.34-1.32-2.27zm-287.7 202.72-.32.23c.49 1.75 1.07 3.47 1.44 5.25.9 4.28 1.69 8.59 2.56 12.88s1.88 8.8 4.39 12.68c4.3 6.65 8.53 13.33 12.79 20 .13.21.25.42.36.61a8.72 8.72 0 0 1 6.39-.76c-.33-.61-.55-1-.79-1.44-1.23-2-2.54-4-3.7-6.08-.84-1.51-1.67-2.89-3.43-3.54a12.22 12.22 0 0 1 -2.41-1.64 9.21 9.21 0 0 1 -3.68-5.08 19.6 19.6 0 0 1 -.47-9.56 3.26 3.26 0 0 0 -.25-2.43c-3.13-5.49-6.18-11-9.38-16.5a45.59 45.59 0 0 0 -3.5-4.62zm124.75-232.29c-5.48.32-10.65.6-15.81 1a3.83 3.83 0 0 0 -2 .73 19.33 19.33 0 0 1 -6.47 3.29c-6 1.73-12.06 3.43-18.11 5.06-3.4.92-6.86 1.67-10.29 2.49-1 .25-2.08.59-2.4 1.71-.36 1.27-.53 2.58-.84 4.15l1.86-.94c3-1.52 5.95-3.08 9-4.53a25.19 25.19 0 0 1 9.26-2.63c2.37-.16 4.74-.34 7.11-.35 4.81 0 9.63.1 14.44.1a36.34 36.34 0 0 0 11.11-1.94c1.66-.53 2.58-1.3 2.54-3.17a20.31 20.31 0 0 1 .49-3.24c.06-.57.06-1.09.11-1.73zm14.18-29.65c.49.35 1.11.74 1.66 1.2q12 10.25 24 20.51 6.8 5.82 13.59 11.64c.68.58 1.43 1.09 2.39 1.82.42-2.24.78-4.17 1.15-6.12-.28-.25-.49-.47-.72-.66q-15.17-12.88-30.38-25.69a17.57 17.57 0 0 0 -8.87-4.36c-1.48-.22-1.7-.21-2.82 1.66zm-137.99 204.51c-1.65 1.55-2.43 3-1.81 5s.8 4.19 1.27 6.26c1.3 5.83 2.39 11.74 4.06 17.44 2.66 9.13 6.66 17.78 10.32 26.55a5.17 5.17 0 0 0 .57.67c-.12-.82-.15-1.33-.28-1.82a67.26 67.26 0 0 1 -2-19 20.17 20.17 0 0 0 -2-10.27 39.75 39.75 0 0 1 -2.48-6.08c-.7-2.07-1-4.31-1.81-6.31-1.8-4.16-3.82-8.19-5.84-12.44zm315.21 35.1a164 164 0 0 1 -1.74 18.71c.86-1.83 1.55-3.71 2.33-5.55 5.28-12.42 8.94-25.37 12.71-38.29a2.49 2.49 0 0 0 0-1.7c-.69-1.19-1.57-2.26-2.57-3.65-5.91 10.77-11.45 21.34-15.69 32.89 2.01-.6 3.71-.91 4.96-2.44zm-135.89-148.97a11.63 11.63 0 0 0 -.21 1.54q0 10.33 0 20.66c0 1.54.16 1.69 1.68 1.7q4.13 0 8.23 0c1.52 0 1.67-.15 1.67-1.7 0-5.61 0-11.22 0-16.82a2 2 0 0 0 -1.44-2.22c-2.82-1-5.63-2-8.45-3a9.47 9.47 0 0 0 -1.48-.16zm-165.56 144.95a58.82 58.82 0 0 0 .1 16.92 47.92 47.92 0 0 0 9.9 22.62 2.42 2.42 0 0 0 1.06.91c1.26.38 2.57.63 3.8.92.54-2.12 1.08-4.19 1.67-6.48a4.42 4.42 0 0 0 -.5-.61c-2.86-2.62-4.55-6-6-9.49q-4.69-11.6-9.37-23.18c-.23-.54-.47-1.07-.66-1.61zm300.54-43.28c.51.65.93 1.18 1.33 1.71l12.77 16.69a54.26 54.26 0 0 1 7.94 14.12c.52 1.41 1.18 2.78 1.81 4.23a10.24 10.24 0 0 0 1.1-11.82c-5.43-9-11.46-17.54-17.67-26-.78-1.07-1.73-2-2.67-3.1zm-141.54 175.2c.55.31.81.48 1.08.61 10.4 5.07 20.89 9.93 31.59 14.34a15.15 15.15 0 0 0 8.4 1 17 17 0 0 0 6.53-2.3c-1.28-.35-2.26-.64-3.24-.89-6-1.56-12-3.2-17.56-6.08-6.65-3.44-13.36-6.78-20-10.16l-1.8-.92zm-165.52-184.87c-.51.63-.95 1.13-1.34 1.67-2.43 3.35-4.92 6.66-7.27 10.07-3.29 4.77-6.48 9.59-9.67 14.42a8.72 8.72 0 0 0 -1.48 2.91 11.8 11.8 0 0 0 2.28 9.5c.69-1.55 1.34-2.92 1.89-4.32a51.8 51.8 0 0 1 7.17-12.88c4-5.1 7.89-10.23 11.83-15.34l1.42-1.81zm-20.82 12.35c2.09-2.61 4-5 5.93-7.45a2.42 2.42 0 0 0 .35-1.37q.06-7.57 0-15.17a2.55 2.55 0 0 0 -.44-1.51c-1.95-2.48-4-4.9-6-7.4a5.52 5.52 0 0 0 -.39.93c-.83 3.37-1.72 6.72-2.44 10.11a24.46 24.46 0 0 0 -.43 9.26 85.16 85.16 0 0 0 3.42 12.6zm311.34 82.94c.62-.1 1.08-.16 1.54-.26a14 14 0 0 1 6.15-.28c1.75.39 1.92.28 2.48-1.45a139.23 139.23 0 0 0 6-30.59 12 12 0 0 0 -.08-1.64c-.39.56-.58.79-.72 1.05-4.67 8.55-9.27 17.15-14 25.65-1.37 2.39-1.15 4.87-1.37 7.52zm-8.84-203.53c-.4-1.63-.68-3.07-1.12-4.45a5.81 5.81 0 0 0 -1.12-2q-18.06-20.88-36.18-41.71c-.33-.38-.71-.71-1.22-1.22a3.14 3.14 0 0 0 0 .81 104 104 0 0 0 9.48 19.31 2.78 2.78 0 0 0 1.69 1.27 13.53 13.53 0 0 1 5.63 3.28c1.65 1.54 3.3 3.08 4.82 4.74a178.52 178.52 0 0 1 14.58 18.52 3.34 3.34 0 0 0 3.44 1.45zm-88.7 286.74.15.28c.77-.45 1.57-.86 2.32-1.34 9.72-6.21 18.7-13.43 27.68-20.63a9.7 9.7 0 0 0 1.16-1.31 149.7 149.7 0 0 0 -25.7 5.74c-.19.95-.09 1.94-.54 2.43-1 1.15-.76 2.3-.57 3.56a10.91 10.91 0 0 1 -3.31 10.15zm113.07-255.23c-.83-.29-1.52-.51-2.2-.76-9.26-3.49-15.74-9.72-18.85-19.24-.46-1.39-.86-2.79-1.34-4.17a15.75 15.75 0 0 0 -.88-1.7l-3.59 11.14c.23.25.49.58.78.89 2.74 2.85 5.47 5.72 8.23 8.56a181 181 0 0 0 15.1 14.07c.54.44 1.12.84 1.9 1.42.32-3.61.57-6.87.85-10.21zm-108.44-102.73c-2.31-1.84-6.23-3.06-8.59-2.72a5.11 5.11 0 0 0 -1.89.6 31.61 31.61 0 0 0 -3.77 2.56c-6 5-12 10.11-18.06 15.16a15.7 15.7 0 0 1 -1.34.88l6 5c1.71-1.57 3.29-3.06 4.93-4.51 2.59-2.3 5.24-4.53 7.09-7.54a16.73 16.73 0 0 1 1.76-2.1 2.25 2.25 0 0 1 .41-.34l1 .74c1.21-1.07 2.38-2.05 3.49-3.09 2.5-2.39 4.98-4.75 8.97-4.64zm114.91 184.24c.36.45.57.75.82 1a69 69 0 0 1 8.67 11.26l10.18 15.38c.32.49.68 1 1.23 1.74.57-1.62 1.12-2.9 1.47-4.23a10 10 0 0 0 -1.49-8.86c-1-1.37-1.94-2.81-3-4.12-4.26-5.16-8.57-10.29-12.87-15.42a5.47 5.47 0 0 0 -.73-.58zm-129 57.25-.41-.15a8.6 8.6 0 0 0 -.8.67c-3.2 3.35-6.38 6.72-9.59 10.05a2.83 2.83 0 0 0 -.81 2.14v9.87a12.83 12.83 0 0 0 .23 1.72h10.18a1 1 0 0 0 1.15-1.11c0-.43 0-.86 0-1.28v-21.91zm-23.24 127.78c.61.39 1 .66 1.4.89 3.75 2.15 7.48 4.33 11.27 6.41q4.47 2.44 9.1 4.63a16.69 16.69 0 0 0 4.15 1.3c3.58.65 7-.14 10.38-1.32a9.38 9.38 0 0 0 1.18-.65c-.74-.35-1.28-.62-1.83-.87-2.56-1.12-5.15-2.19-7.68-3.37-7.78-3.59-15.88-6.49-23.26-10.93a2.25 2.25 0 0 0 -.57-.11zm-127.66-106.48c-1.44-1.72-2.54-3.16-3.76-4.49-1.47-1.62-3.17-3-4.56-4.72-4.78-5.83-9.48-11.74-14.21-17.62l-1.21-1.49a1.2 1.2 0 0 0 0 1c3.16 7.78 6.37 15.53 9.5 23.32a22.53 22.53 0 0 0 5.14 7.42 2.53 2.53 0 0 0 1 .71c1.12.3 2.27.49 3.43.73.57-2.2 1-4.68 4.67-4.86zm-52.32-57.41 1.15-1.65c4.24-6.25 8.44-12.52 12.73-18.73 1.31-1.9 2.85-3.63 4.28-5.45.21-.26.38-.56.64-.94l-4.58-3.64c-4.22 5-8.3 9.85-12.34 14.72a32.43 32.43 0 0 0 -2.66 3.73 11.31 11.31 0 0 0 .78 11.96zm62.72-102.05-4.78-4.38a58.14 58.14 0 0 0 -10.83 7.83 10.78 10.78 0 0 0 -.82 1q-9.63 13.09-19.22 26.2a12 12 0 0 0 -1 2.17 3.74 3.74 0 0 0 1.35-1.33 106.2 106.2 0 0 1 11.53-14.19 23 23 0 0 1 6.19-4.45c3.16-1.57 6.19-3.39 9.35-5a20.63 20.63 0 0 0 8.23-7.85zm-34.13 26.8c.39-.5.79-1 1.16-1.51 4.12-5.67 8.34-11.25 12.3-17a42.06 42.06 0 0 1 12.66-11.99c.61-.39 1.23-.79 1.83-1.21.29-.2.56-.44.9-.71l-4.22-7.38a21.89 21.89 0 0 0 -1.86 1.75c-2.42 2.89-5 5.71-7.17 8.75a212.91 212.91 0 0 0 -13.61 22c-1.26 2.29-1.56 4.73-1.99 7.25zm65.63 218.2-2.14-.87-15.58-6.25a21.85 21.85 0 0 1 -7.3-5.05 75.22 75.22 0 0 1 -8.75-10.76c-2.13-3.11-4.17-6.29-6.16-9.49a2.29 2.29 0 0 0 -2.55-1.27c-1.14.17-2.3.19-3.45.32s-2.09.27-3.44.45c2.22 2.56 4.17 4.88 6.19 7.14a108.67 108.67 0 0 0 18.33 16.68 48.6 48.6 0 0 0 24.85 9.1zm147.17-300.58c-1.47-2.11-2.87-4-4.13-6a3.12 3.12 0 0 0 -2.16-1.42 73.44 73.44 0 0 1 -15.94-5.66c-.58-.28-1.18-.54-1.9-.86-.11 1.74-1.45 2.92-1 4.67a36 36 0 0 1 .54 4.84c5.52 3.3 17.59 5.52 24.59 4.43zm-142.54-.42a24.56 24.56 0 0 0 -11.84 1.8c-3 1.37-5.92 2.85-8.87 4.32a4.48 4.48 0 0 0 -1.24 1c-1.91 2-3.67 4.24-5.71 6.14a148.39 148.39 0 0 1 -15.97 12.52c-.48.35-1.18.54-1.31 1.21 2.63.09 5.18.13 7.72.31a2.57 2.57 0 0 0 2.43-1.16c2-2.52 4.1-5 6.27-7.38a47.39 47.39 0 0 1 12.89-10.18c4.74-2.51 9.4-5.15 14.1-7.73zm169.37-8.14c-.64-1.24-1.29-2.39-1.84-3.6a1.94 1.94 0 0 0 -2-1.26 124.53 124.53 0 0 1 -16.68-1.8c-4.08-.75-8.12-1.59-11.8-3.65a4.09 4.09 0 0 0 -1.93-.28c-2.74 0-5.48.08-8.22 0-3-.08-6-.3-8.93-.42-.54 0-1.19-.33-1.68.27 3.27 2.42 45.49 10.95 53.08 10.74zm-134.27 301.87c-7.4-5.71-22.35-11.91-27.61-11.28l28.27 21.44c.2-2 .41-3.91.58-5.82a1.94 1.94 0 0 0 -.14-.7c-.32-1.08-.65-2.15-1.1-3.64zm12.65-247.45a3 3 0 0 0 -.64.08c-3.33 2-6.65 4-10 6a2 2 0 0 0 -.88 1.87v8c0 1.6.16 1.72 1.83 1.73h7.66c2.05 0 2.1-.06 2.11-2.2q0-6.93 0-13.86c.02-.46-.04-.98-.08-1.62zm-117.54 73.86c.5-.53.89-.9 1.25-1.31 2.62-3 5.28-5.89 7.85-8.89 3.19-3.75 6.36-7.53 9.44-11.37a16.21 16.21 0 0 0 2-3.64 2.21 2.21 0 0 0 -.5-2.83c-8.52 7.59-16.85 15.27-24.76 23.66zm311.52 85.86c.63.68 1 1.11 1.38 1.47a5.93 5.93 0 0 0 8.49-.47 5.65 5.65 0 0 0 -.89-8.12 5.87 5.87 0 0 0 -8.49 1.46 11.17 11.17 0 0 1 -1 1.73c-2.39 2.59-4.75 5.23-7.29 7.67s-5 4.5-7.59 6.59a6 6 0 0 0 -2.23 4.68c6.56-4.23 11.87-9.77 17.62-15.01zm-297.28-23.68-.26.11a3.53 3.53 0 0 0 0 .65q2.58 12.69 5.18 25.38a4 4 0 0 0 .8 1.57c1.19 1.53 2.45 3 3.68 4.52.33.41.64.82 1.1 1.41.54-2.53 1.25-4.66 4-5.25a10.55 10.55 0 0 0 -.31-1.33 102.3 102.3 0 0 0 -7.78-15.87c-1.25-2.07-2.3-4.27-3.49-6.39-1-1.62-2-3.2-2.92-4.8zm-8.08 43.17a9.67 9.67 0 0 0 -.52-.91 154.36 154.36 0 0 0 -16.68-19.36c-2.37-2.27-4.61-4.67-6.88-7-1-1.09-1.35-1.26-2.67-.66a7.17 7.17 0 0 0 -2.1 1.41 5.15 5.15 0 0 0 -1.27 5.57c.67 1.93 1.8 3.6 4.28 3.45.15 0 .3.23.47.25a4 4 0 0 0 1.73.16c1.24-.42 2.42-1 4-1.73 6.78 5.14 11.12 12.71 16.38 19.65zm269.43-125.42c-.85 1.37-1 1.87-.32 3.22a26.9 26.9 0 0 0 3 4.76c4.76 5.78 9.62 11.47 14.45 17.19a8 8 0 0 0 .83.74l4.47-4.24c-7.24-7.62-14.69-14.68-22.43-21.67zm-70.84-119.77a4.7 4.7 0 0 0 -.43-.69c-1.82-1.79-3.62-3.6-5.49-5.34a5.06 5.06 0 0 0 -1.86-1.06q-5.2-1.66-10.45-3.23c-1.54-.46-3.12-.79-4.88-1.23l4.29 10.9a135.93 135.93 0 0 0 18.82.65zm106.34 230.27c-4.92 3.5-18.76 15.89-19.53 17.34a16.1 16.1 0 0 1 6.1 7.44 116.72 116.72 0 0 0 13.43-24.78zm-42 .69c1.25-1.64 2.47-3.4 3.86-5s3.06-3.13 4.58-4.71a4 4 0 0 0 .64-.88c1.07-2.12 2.13-4.24 3.17-6.38a2.25 2.25 0 0 0 .33-1.2c-.27-1.89-.63-3.76-1-5.89a29.58 29.58 0 0 0 -2.63 1.78 3.7 3.7 0 0 0 -1.13 1.56 15.05 15.05 0 0 1 -3.17 5.28c-1.46 1.64-2.87 3.32-4.27 5a19.8 19.8 0 0 0 -3.92 9.13 2.87 2.87 0 0 0 .05.84zm-28.14-216.26c-.75-1.65-.74-1.68-2.18-1.92-2.76-.45-5.53-.84-8.3-1.28-6.6-1-13.26-1.85-19.8-3.2-7.45-1.6-14.79-3.6-22.18-5.37l-1.91-.43c-.06 1.5-.08 1.52 1 2.08a81.18 81.18 0 0 0 15.88 6.4c.92.25 1.85.43 2.75.64l.24-.7a14.05 14.05 0 0 0 2.17.46c4.25.28 8.51.47 12.76.78a135 135 0 0 1 18.45 2.4 9 9 0 0 0 1.12.14zm-133 314 .24-.42a26.59 26.59 0 0 0 -3-3.32c-9-6.94-18-13.8-27-20.68a4.75 4.75 0 0 0 -.82-.39c2.06 2.89 4.29 5.54 6.53 8.19a95.44 95.44 0 0 0 16.33 15.36 4 4 0 0 0 1.74.91c2.04.19 4.04.23 6.03.35zm42.21-343.6c1.66 1.09 2.68 2.57 4.28 3.34 6.64-5.65 13.17-11.22 19.69-16.8a10.56 10.56 0 0 0 1.17-1.4 3.66 3.66 0 0 0 -2.5-.9 9.54 9.54 0 0 0 -5.22 1.42 41.58 41.58 0 0 0 -4 2.89c-4 3.31-7.91 6.68-11.85 10-.49.42-.94.83-1.57 1.45zm131 299.78a20.51 20.51 0 0 0 .51 3.12 5.78 5.78 0 0 0 7.57 3.49 5.68 5.68 0 0 0 3.28-7.49 5.91 5.91 0 0 0 -8-2.92 9 9 0 0 1 -2.2.8c-2.81.53-5.63 1-8.45 1.46-.94.16-1.9.24-2.92.36l-.49 2.28zm-84.95-293.33.12-.27c-1.68-2-3.38-4-5-6-2.1-2.61-4.13-5.27-6.19-7.9-.8-1-2.84-1.55-3.73-.83-1.74 1.39-3.36 2.91-5 4.35 1.32 1.89 2.54 3.55 3.65 5.28a2.76 2.76 0 0 0 1.85 1.29c2.3.56 4.6 1.14 6.87 1.8 2.48.71 4.95 1.52 7.43 2.28zm-199.95 260.21 5.46-5.48a51.13 51.13 0 0 0 -10.75-12.47 21.42 21.42 0 0 0 -6.31-3.61 13.31 13.31 0 0 0 -1.41-.26 159.48 159.48 0 0 1 13.01 21.82zm21.61-130.13-.43-.07-16.58 19.06 4.06 3.85c.43-.46.73-.75 1-1.08 2.6-3.22 5.21-6.44 7.77-9.69 1.39-1.77 2.77-3.57 4-5.45a5.28 5.28 0 0 0 .82-2.72 24 24 0 0 0 -.64-3.9zm6 164.26c-.5-1.65-.5-1.71-1.83-1.6q-4 .32-8 .76a2.87 2.87 0 0 1 -2.58-.83 5.53 5.53 0 0 0 -6.13-1 5.62 5.62 0 0 0 -3.41 6.48 5.9 5.9 0 0 0 6.17 4.38 5.83 5.83 0 0 0 5.33-5.38c0-.54 0-1.09 0-1.83zm264.76-135.64 3.92-3.85-14.53-17.08c-1.07 3.11-1.29 5.75.82 8.32 2.75 3.34 5.29 6.85 7.93 10.28.59.78 1.2 1.51 1.86 2.33zm-146.08-150.55-1.5 1.18c-2.77 2.19-5.52 4.4-8.31 6.56-2.25 1.73-2.28 1.7-1.88 4.46a2.15 2.15 0 0 0 .21.46c3.9.3 13.55-4.13 17.29-8zm-6.25 13c6 2.13 19.25.7 24.23-1.5l-11.15-5.85c-2 1.28-4.1 2.69-6.26 3.91s-4.43 2.25-6.82 3.44zm18.8-36.15a5.71 5.71 0 0 0 -5.74-5.64 5.82 5.82 0 0 0 -5.88 5.79 5.74 5.74 0 0 0 5.8 5.61 5.63 5.63 0 0 0 5.82-5.75zm103.58 332.39.38.33a31.1 31.1 0 0 0 3-2.65q8.08-9.29 16.08-18.66a22.22 22.22 0 0 0 1.29-1.94c-2.84.33-5.25.59-7.65.92a1.55 1.55 0 0 0 -1 .68 30.59 30.59 0 0 0 -2.39 4.29 74.73 74.73 0 0 1 -8.68 15.58c-.38.47-.7.96-1.03 1.45zm-252.85-36.34s0 .05 0 .09c2.18 3.58 4.36 7.16 6.58 10.71a1.42 1.42 0 0 0 1 .6c1.69-.07 3.37-.24 5.19-.39a65.23 65.23 0 0 0 -4.71-12.85zm269.78-5.9h-.45c-.62.95-1.74 1.92-1.72 2.85a2.16 2.16 0 0 1 -.69 1.7 4.21 4.21 0 0 0 -.49 1q-1.79 4-3.56 8c-.15.35-.29.71-.6 1.46l3.33-1.53v2.26a2.5 2.5 0 0 0 2.64-.89c2.1-2.28 4.26-4.5 6.4-6.74l1.9-2c-3.35-1.11-5.88-2.68-6.76-6.11zm-127.88 57.11c1.59-1.31 3.07-2.57 4.59-3.77a2.37 2.37 0 0 0 .82-2.28 5.89 5.89 0 0 0 -6.71-5.19 5.77 5.77 0 0 0 -4.81 6.8 2.53 2.53 0 0 0 1.44 2c1.53.7 3 1.55 4.67 2.44zm140.14-172.82c-1.6-2-3.19-4-4.75-6a1.54 1.54 0 0 0 -1.62-.54 5.69 5.69 0 0 0 .54 11.35 2.4 2.4 0 0 0 1.5-.47c1.47-1.4 2.84-2.85 4.33-4.34zm-282.11-5.78c1.62 1.54 3.08 2.91 4.51 4.31a2.14 2.14 0 0 0 1.83.59 5.66 5.66 0 0 0 -.22-11.28 2 2 0 0 0 -1.39.62c-1.59 1.84-3.09 3.74-4.73 5.76zm18.29 137.2a2.43 2.43 0 0 0 .09-.6 37.24 37.24 0 0 0 -3.98-13.22 2.1 2.1 0 0 0 -.73-.75c-.71-.42-1.46-.77-2.23-1.16l-2.25 3.3c1.65 4.56 3.26 9 4.91 13.52.7-.11 1.68 0 1.94-.36.65-.9 1.43-.76 2.25-.73zm-11.34-81.07c-.31.56-.46.7-.48.86-.52 5.38-1.06 10.77-1.52 16.16a2.55 2.55 0 0 0 .57 1.62c1.67 2.1 3.4 4.14 5.13 6.18.38.44.85.81 1.27 1.21l.34-.15zm-28.75-28.82 5.2 10.83c1.31-5.46 3-10.49 2.41-15.87-.11-1 0-2.07 0-3.11 0-.38-.07-.77-.11-1.16l-.35-.12c-2.41 3.14-4.78 6.27-7.15 9.43zm204.45-88.56c3.61 0 7.26 0 11-.19a55.91 55.91 0 0 0 -10.92-11.44c-.62 1.55-.65 9.83-.08 11.63zm-41.5 240.56-14.75-7.82.79 6.24 9.28 5.44zm-117.34-41.12a42.06 42.06 0 0 0 -6.23-18.79l-2.39 3.24a42.7 42.7 0 0 1 4.45 15.07c1.39.36 2.6 1.47 4.17.48zm108.25-287.93c-2.6 2.09-5.07 4.07-7.52 6.08a1.26 1.26 0 0 0 -.46.9c.18 1.86.44 3.71.68 5.62 2-.92 9.16-6.59 11.34-9zm-32.91 88.39a47.6 47.6 0 0 0 -.12-10.28c-2.52 1.12-10.63 8.3-11.63 10.28zm164.16 178.24c-.27.18-.5.34-.75.49-1.78 1.13-3.41.72-4.33-1.18a10.64 10.64 0 0 1 -.63-2.26c-.09-.38-.11-.78-.18-1.31l-1.72.71a72.75 72.75 0 0 0 -.3 12.64c1.55-.23 2.92-.46 4.29-.62a1.85 1.85 0 0 0 1.61-1.23c.63-1.38 1.29-2.75 2-4.07a3 3 0 0 0 .01-3.17zm47.55-117.15-8.25 7.13c2.47 2.85 4.61 5.83 7.48 8.68.31-5.43.9-10.41.77-15.81zm-134.08 187.93c3.18-1 6.37-1.92 9.55-2.91a3 3 0 0 0 1.07-.68c4.1-3.72 8.22-7.42 12.27-11.2a38.55 38.55 0 0 0 3-3.51l-.28-.25c-.48.34-1 .67-1.43 1-2.38 1.8-4.72 3.65-7.13 5.41-5.64 4.11-10.91 8.67-17.05 12.14zm-158.38-69.3c1 2.25 1.67 4.56 4.62 4.91a12 12 0 0 1 2.55 1c.48.18 1 .33 1.6.54a22.22 22.22 0 0 0 .39-6.46c-.16-2.5-1.69-4-3.64-5.57a7.73 7.73 0 0 1 -.2 1.43 16.64 16.64 0 0 1 -1.41 3.27c-.74 1.07-1.58 1.15-3.91.88zm105.29 65.65 6.65 4.26 5.19-4.36c-3-1.87-5.91-3.57-8.83-5.19zm-152.19-174.16 7.17-8.28-7.17-6.46zm55.63 104.37c2.46 3.57 1.33 7.45 1.3 11.32l3 1.26a73.21 73.21 0 0 0 -.07-10.5 8.34 8.34 0 0 0 -1.75-4.26zm129.1 72.09c1.69.92 3.07 1.69 4.47 2.41s2.81 1.87 4.26 2 3-.9 4.46-1.45c1-.37 1.94-.81 2.91-1.22l-.07-.35c-4.89.36-9.49-.36-13.41-3.64zm-27-339-5.58-5.19-3.75 2 2.26 5.22zm.2 341.59c-1.76-1.14-3.51-2.34-5.34-3.39a2.51 2.51 0 0 0 -1.9-.14 22.78 22.78 0 0 0 -2.92 1.59 3.64 3.64 0 0 0 3 2.95 6.63 6.63 0 0 1 1.74.54c2.13 1.1 3.81.51 5.23-1.27.04-.08.06-.14.16-.31zm-31.51-346.77.16.22 14-10.43-2.64-2.35zm25.95 13.47 7.3-6c-.5-.86-.94-1.51-1.91-1.24-2.21.6-4.41 1.24-6.75 1.9.44 1.75.89 3.31 1.36 5.34zm-124.38 261.25v-.07h.55c1.87-.09 2.51-1.08 1.77-2.78a3.74 3.74 0 0 0 -.7-1.27c-.45-.43-1.09-1-1.58-1a14.07 14.07 0 0 0 -3.45 1 1.42 1.42 0 0 0 -.61 1 2.51 2.51 0 0 0 1.93 2.75 17.07 17.07 0 0 0 2.09.37zm140.38 84.34.19.54 10.58-.39.1-.45c-1.59-.93-3.21-1.81-4.77-2.8a2.23 2.23 0 0 0 -2.71.13c-1.19.91-2.26 1.97-3.39 2.97zm-166.01-226.51c.11-.27.2-.38.18-.46q-1.41-6.31-2.87-12.63c-.11-.49-.16-1.1-.93-1.17-1.66 5.48.27 9.98 3.62 14.26zm13 49.39.41.11c1.29-3.77 2.59-7.53 3.87-11.3.2-.58 0-.93-.8-1.16-1 1.3-2.14 2.66-3.19 4a1.87 1.87 0 0 0 -.28 1c-.05 2.5-.04 4.93-.04 7.35zm129.64 155a24.62 24.62 0 0 0 2.37-.83 1.26 1.26 0 0 0 .66-1.68c-.39-1.32-3.31-2.44-4.45-1.69a1.41 1.41 0 0 0 -.39.38 2.45 2.45 0 0 0 -.25 2.42 2.35 2.35 0 0 0 2.03 1.38zm49.6-4.62a11.85 11.85 0 0 0 -2.24.67 1.6 1.6 0 0 0 -.06 2.92 5.66 5.66 0 0 0 2.62.5 1.94 1.94 0 0 0 1.88-2.06c-.07-1.28-.79-1.92-2.23-2zm-46.57-331.4 3.08-1.57c-2.33-2.53-3.7-3.85-6.19-3.95.09 1.09 1.1 2.95 3.11 5.52zm144.87 277.1c-.82 1.67-1.55 3.15-2.39 4.84 1.3-.08 2.26-.11 3.2-.22a1.5 1.5 0 0 0 .93-.43c.84-1.13 1.61-2.31 2.41-3.48-1.52.69-2.73.27-4.15-.71zm-17.53-219.95c-2.12-2.15-4.86-3.73-6.57-3.76l3.1 5.14zm-33.47 188.66.28.3 6.44-3.44-1.84-3.13zm63.81 22.77a1.86 1.86 0 0 0 -2 2 2.85 2.85 0 0 0 2.27 2.24c.9 0 1.58-1.12 1.52-2.51s-.6-1.75-1.81-1.73zm23-83.14-.33.12c.21 2.43.42 4.87.64 7.3h.33c.68-1.26 1.37-2.51 2.08-3.8zm-139.88-180.86c-2.16-1.07-2.69-.84-4.46 1.82l2.9 2.39zm-174 240.19c-2-2.25-3.59-4.24-5.83-5.61l-2.1 1.27zm271.47-163.34c-1.6 1.1-1.92 1.46-2.4 2.67l5.65 1.72zm31.08 27.76.37-.19v-2.61l-3.12-.94-.15.33c.97 1.09 1.93 2.23 2.9 3.37zm-154.94-121.76-.21.36 3.18 2.64-.2-3zm-14.3 359.81a10.33 10.33 0 0 0 -1.65-3l-2.33.48v.35zm154.82-116.97.29.23 2.31-1.62-.73-2.36c-.74 1.47-1.3 2.61-1.87 3.75zm-112.33-229.49-.33-.23-2.57 2.38 1.61.45zm-11.73-10.49 1.64-1.52c-1.06-.11-1.89-.02-1.64 1.52zm-133.67 83.93c1.4-.83 1.4-.83.72-1.58zm108 275.68.16-.52-1.42-.31-.08.3z"/><path d="m208.78 311.21a10.43 10.43 0 0 1 -10.42 10.5 10.55 10.55 0 0 1 -10.69-10.64 10.73 10.73 0 0 1 10.56-10.47 10.6 10.6 0 0 1 10.55 10.61zm-3.43 0a7.11 7.11 0 1 0 -14.21-.25 7.11 7.11 0 1 0 14.21.25z"/><path d="m120.7 277.15 2.51 2.24-5 5.72c1.9 1.95 4 3.54 6 5.47l5.24-5.68 2.22 2c-.68 1.44-11.78 14-13.33 15.06l-2.3-2 6-7-6.04-5.37-6.15 6.82-2.48-2.24z"/><path d="m271.35 310.93c-1-1.44-6.13-20.56-6-22.07 1.41.22 19.08 8.71 20.59 9.95l-1.53 1.45a1.47 1.47 0 0 1 -1.84.26c-.87-.44-1.77-.82-2.62-1.28a1.7 1.7 0 0 0 -2.16.21c-1.47 1.28-3 2.52-4.49 3.72a1.43 1.43 0 0 0 -.57 1.74c.27.87.43 1.78.73 2.63a1.88 1.88 0 0 1 -.84 2.49c-.42.28-.84.6-1.27.9zm-1.14-16.49-.3.36 1.61 5.55a18.58 18.58 0 0 0 4-3.29z"/><path d="m137.4 303.22 5.78 4.93c-.66.83-1.2 1.52-1.86 2.34-2.17-1.38-3.84-3.17-5.95-4.68a39.29 39.29 0 0 0 -4 4.75l5.91 5-2 2.46-8.67-7.24c4.36-5.22 8.55-10.24 12.9-15.47 3 2.28 5.72 4.68 8.67 7.13l-2 2.44-6.09-5z"/><path d="m172.92 310.05-2.33 1.41c-1-.94-1.89-2-3.36-1.7a4.19 4.19 0 0 0 -1.37.41 1.82 1.82 0 0 0 -.23 3.17 9.31 9.31 0 0 0 1.76 1c1 .46 2 .81 3 1.35a5.76 5.76 0 0 1 3.19 5.9 6.17 6.17 0 0 1 -4.53 5.6 6.45 6.45 0 0 1 -8.08-3.8c-.69-1.74-.48-2.13 1.31-2.49.4-.08.81-.12 1.34-.2.2.56.36 1.07.55 1.56a3 3 0 0 0 3.16 2 3.1 3.1 0 0 0 2.75-2.3 2.76 2.76 0 0 0 -1.33-3.3c-.71-.45-1.53-.73-2.29-1.12a23.84 23.84 0 0 1 -3.17-1.77 4.79 4.79 0 0 1 -.91-6.83c2.92-3.94 9.1-2.94 10.54 1.11z"/><path d="m248 307.16c-.67.62-1.31 1.23-2 1.84a5.6 5.6 0 0 0 -1.28-.68 8 8 0 0 0 -2.47-.23 2.53 2.53 0 0 0 -1.95 2.17c0 .84.67 1.64 1.88 1.93s2.77.43 4.12.77a6.18 6.18 0 0 1 4.23 9.1 6.29 6.29 0 0 1 -6.35 3.46c-2.76-.18-4.55-1.79-5.63-4.32a4.42 4.42 0 0 1 2.87-1.57c.27.44.49.87.76 1.26a3 3 0 0 0 3.51 1.24 2.77 2.77 0 0 0 2.12-2.83 2.62 2.62 0 0 0 -2.12-3c-1-.3-2-.4-3-.65a15.57 15.57 0 0 1 -3-.89 4.88 4.88 0 0 1 -2.4-6.34 6.41 6.41 0 0 1 9.81-2.39 10.06 10.06 0 0 1 .9 1.13z"/><path d="m112.89 277c-1.37-2.59-3-4.42-5.61-5a6.83 6.83 0 0 0 -4.28.44 7.34 7.34 0 0 0 -4.39 8 6.71 6.71 0 0 0 3.33 5c1.8 1.16 3.84.77 6.19.82a17.94 17.94 0 0 1 -1.6 2.93 2.24 2.24 0 0 1 -1.65.45 10.7 10.7 0 0 1 -9.72-9.36 10.61 10.61 0 0 1 18.37-8.21c1.26 1.28 1.26 1.61.42 3.2-.25.46-.56.91-1.06 1.73z"/><path d="m151.61 307.06-1.55 3.88 3.15 1.32c.93.4 1.85.82 2.92 1.3l-1.13 2.79-6.14-2.35-3.57 8.61-2.77-1.06c.11-1.5 6.14-16.84 7.23-18.54a36.53 36.53 0 0 1 9.31 3.74l-.91 2.4c-2.33-.23-4.15-1.66-6.54-2.09z"/><path d="m213.93 302.5a37.93 37.93 0 0 1 10 1 5.48 5.48 0 0 1 .12 1c-.11 1.66-.36 1.86-2 1.68-1.21-.13-2.41-.3-3.62-.41s-1.5.07-1.64 1.31c-.09.78-.17 1.57-.24 2.35a1.55 1.55 0 0 0 .08.38c1.89.86 4.22.27 6.39 1.28-.12.86-.24 1.72-.38 2.75l-3.26-.27-3.23-.23c-.41 3.11-.79 6-1.21 9.19l-3.2-.41c.56-6.65 1.46-13.12 2.19-19.62z"/><path d="m291 269.85 9.61-3.29 1 2.86c-.93.37-1.7.68-2.48 1s-1.5.51-2.24.78c-1.66.59-1.69.65-1.12 2.36.25.74.54 1.47.88 2.36l6.22-2 1 2.9-6.04 2.18c.59 3 2 5.71 2.76 8.89l-3.06 1.09c-2.25-6.43-4.4-12.65-6.53-19.13z"/><path d="m284.38 274.82 1.79 2.36-5.39 4.2c.91 1.2 1.74 2.28 2.64 3.45l5.27-3.88 1.85 2.25c-1.44 1.72-3.46 2.6-5.06 4.33l5.52 7.35-2.31 1.86c-1.22-.82-11.24-13.79-12.21-15.72.75-1.02 5.37-4.73 7.9-6.2z"/><path d="m250.28 305.61-1.7-2.53c3.47-2.29 6.85-4.41 10.43-6.67l1.72 2.52-3.7 2.62 4.53 7.14 4.51 7.11-2.8 1.85-9.12-14.25z"/><path d="m123.19 306.17-2.3-2.13 14.64-14.39 2 2.24c-.53 1.16-11.93 12.56-14.34 14.28z"/><path d="m257.45 172.1h-10.77c0 .75-.11 1.34-.11 1.93v36.57a10.67 10.67 0 0 1 -1.12 4.88 87.29 87.29 0 0 1 -6.91 12.25c-.27.39-.56.76-.81 1.1a1 1 0 0 1 -.29-.06.22.22 0 0 1 -.12-.11.34.34 0 0 1 -.05-.17c0-.19 0-.37 0-.55v-55a1.51 1.51 0 0 0 -.06-.36s0-.1-.19-.42c-2.27-.07-4.66-.1-7.29 0v2.44q0 31.83.08 63.64a4 4 0 0 1 -1 2.8c-2.33 2.74-4.58 5.54-6.87 8.32a4.54 4.54 0 0 1 -1.62 1.35c0-.69-.07-1.39-.07-2.08q0-36.94 0-73.88v-2.57h-7.85c0 .7-.1 1.29-.1 1.88q.1 42.24.24 84.48a2 2 0 0 1 -.5 1.66c-2.31 2.26-4.59 4.55-6.88 6.82a1.93 1.93 0 0 1 -.49.17 9.1 9.1 0 0 1 -.24-1.13c0-.54 0-1.09 0-1.64v-92.22h-7.88c-.1 5.3 0 10.58 0 15.85s0 10.61 0 15.91v64a7.85 7.85 0 0 1 -1.11-.69c-2.06-1.9-4.09-3.84-6.15-5.73a2.43 2.43 0 0 1 -.82-2.06c.06-6.64 0-13.29 0-19.93q-.09-32.55-.17-65.1v-2.27h-8.16c-.22 4.38-.07 8.75-.09 13.11s0 8.65 0 13v52.64a4.07 4.07 0 0 1 -.81-.39 65.4 65.4 0 0 1 -8-9.47 3.44 3.44 0 0 1 -.47-1.86q0-32.28 0-64.55v-2.46h-7.31c-.06 9.66 0 19.27 0 28.88s0 19.13 0 29.06a14.85 14.85 0 0 1 -1-1.1 84.94 84.94 0 0 1 -8.22-16.29 4.26 4.26 0 0 1 -.23-1.6q0-18.74 0-37.48c0-.42-.06-.84-.1-1.52-3.45-.21-6.89 0-10.54-.14-.12-1.07-.31-2.07-.34-3.08-.37-13.4.54-26.67 4-39.68.09-.36.2-.71.28-1.06a1.19 1.19 0 0 1 1.3-1h1.46 98.74a3.37 3.37 0 0 0 .55 0c1.47-.25 2.17.52 2.72 1.8a73.46 73.46 0 0 1 4.24 13.4c1.87 8.77 2.11 17.65 1.76 26.56 0 .73-.15 1.46-.24 2.18a9.58 9.58 0 0 1 -.39.97z"/><path d="m218.93 96.7-11.15-16.42c-1.09 4.43-1.44 8.69-2.39 12.86a4 4 0 0 1 -3.22-.43c1-6.85 2.22-13.68 3.43-20.52l.42-.12c.39.5.82 1 1.18 1.49q4.45 6.57 8.91 13.16c.32.48.69.93 1.31 1.77.79-4.54 1.5-8.63 2.22-12.71 1.2-.5 2.12 0 3.3.35-1 6.87-2.24 13.64-3.42 20.41z"/><path d="m181.24 75.12a10.54 10.54 0 1 1 -10.58 10.61 10.66 10.66 0 0 1 10.58-10.61zm7.17 10.55a7.19 7.19 0 1 0 -7.12 7.17 7 7 0 0 0 7.12-7.17z"/><path d="m231 82.32-4-1.83 1-2.88 11.53 4.54-1.04 2.85-4.27-1.43-6.22 15.7-3.08-1.16c1.89-5.34 4.08-10.38 6.08-15.79z"/><path d="m163.88 102.69.12-2.77c.42-.11.7-.21 1-.26 2.07-.38 2.67-1.35 1.95-3.36a24.56 24.56 0 0 0 -1.27-2.82c-1.48-2.93-3-5.85-4.46-8.78-.27-.53-.49-1.08-.8-1.79l2.71-1.44a12.2 12.2 0 0 1 .89 1.28c1.75 3.41 3.53 6.8 5.18 10.25a15.64 15.64 0 0 1 1.36 4.13c.55 3.4-2.99 6.43-6.68 5.56z"/><path d="m199 93.32h-3.1c-.5-2.74-.94-18.37-.56-19.92h3c.49 6.6.54 13.14.66 19.92z"/></g></svg>