<svg viewBox="0 0 400 400" xmlns="http://www.w3.org/2000/svg"><g fill="#f5f5f5"><path d="m0 210v-19c.3-1.8.6-3.6.9-5.3 2.5-14.2 3.4-28.9 7.8-42.6 23.5-72.6 72.4-118.8 146.4-138 9.4-2.4 19.2-3.4 28.9-5.1h33a19.81 19.81 0 0 0 3.3.8 188.81 188.81 0 0 1 71.4 21c51.2 27 85.3 68.1 101.5 123.7 2.8 9.7 4.5 19.7 6.8 29.5v50c-.4 1.2-.7 2.5-1 3.8-4.5 29.9-14.8 57.7-31.9 82.7-27.9 40.9-65.6 68.5-113.4 81.7-10.7 2.9-21.8 4.5-32.7 6.7h-41c-.9-.3-1.9-.6-2.8-.8-12.8-2.8-26.1-4.2-38.4-8.6-75.2-26.6-120.7-79.3-135.8-157.8-1.5-7.5-2-15.1-3-22.7zm200.5-200.7c-105.4.1-190.6 85.5-190.6 191a190.75 190.75 0 0 0 381.5-.3c0-105.5-85.7-190.8-190.9-190.7z"/><path d="m200.7 60.5c77.2.2 139.7 62.7 139.6 139.6a139.85 139.85 0 0 1 -140 139.8h-.5c-76.9-.4-139.2-63.5-138.8-140.5.3-76.8 63-139.1 139.7-138.9zm-.3 271c72.5.2 131.3-58.5 131.6-131.1a131.36 131.36 0 0 0 -131.1-131.7c-72.6-.2-131.5 58.6-131.7 131.1a131.43 131.43 0 0 0 131.1 131.7c0 .1.1.1.1 0z"/><path d="m309.6 304.1c4-9.2 12.4-16.6 19.2-15.8-2.5-5.5-1.4-10.3 1.8-14.9 3.8-5.5 4.8-5.6 10.1.2-5.5-1.6-9 .2-9.9 5.2-.3 1.9.7 4.9 2.1 5.8s4.2-.1 6-1c1.4-.6 2.3-2.3 3.4-3.6 2.6-3.3 5.6-5.4 9.9-3.5s6.8 5.4 6.5 10.2c-.3 6.2-3.8 10.5-8.8 14.2l-6-4.1c5.5 1.1 8.9-1 11.2-5.6 1.6-3.2.7-6.4-2.2-7.7-1.8-.8-4.7.5-7 1.3-1.1.4-1.8 1.9-2.7 2.9-3.1 4-7 5.5-12.1 2.6 2.8 7.4 2.1 10.7-3.6 15.2 2.5-5.4 1.9-9.3-3.2-11.3-3.5-1.4-5.7.5-7.6 4.3 6.5 5.1 12.9 10.5 19.7 15.5.8.6 2.9-.5 5.5-1l-8.3 10.4c-1.6-2.3-2.7-4.8-4.5-6.5a165.38 165.38 0 0 0 -13.1-10.7c-1.7-1.2-4.1-1.3-6.4-2.1z"/><path d="m129 331.9c6.6 3.2 12.4 5.9 18 9 1.4.8 2.1 2.9 2.8 4.5 3.1 7.1 6.1 14.3 9.9 21.4 1.6-7 7.1-13.2 3.6-21.4l7.3 2.2c-1.6 2.6-3.5 4.8-4.3 7.3-2.3 7.2-4.2 14.6-6.7 23.5-2-2.3-3.8-3.7-4.6-5.4-3.8-8.1-7.3-16.3-11.5-24.5-1.6 7.4-7.2 14-4.1 22.7l-7.1-2.1c1.6-2.7 3.4-5.1 4.4-7.8 1.7-4.8 3-9.9 4.3-14.8 1.2-4.5 1.1-4.5-3.1-7.3-6.5 7-12.8 22.3-9.8 27.2l-13-6.4c6.7-2.1 16.8-22.1 13.9-28.1z"/><path d="m55.3 292.9c6.8-.9 12.2-1.6 17.6-2.4 8.5-1.3 8.7-1.2 12.2 7.3-6-2.2-25.2 10.3-25 17.9l-7.8-11.7c9.2.7 13.7-7 20.6-9.6l-.4-1.3-26.8 3.5 14.3-23.4-1-.9c-5.4 5.3-14.3 6.4-17.6 14.8l-4.9-7.4c6.8 1.9 25.8-10.5 26-16.4 6.3 6 6.5 7.4 2.4 14-2.9 4.7-5.9 9.5-9.6 15.6z"/><path d="m318.4 337.7-9.7 8.1c1-6.9-13.5-24.2-19.9-24.4 5.4-4.3 10.6-9.1 16.4-12.8 4-2.5 8.9 1.6 8.8 6.9a38.39 38.39 0 0 1 -1.1 5.9l18 5.3c-2.8 3.5-5.5 5.8-10.4 3.4-4-1.9-8.4-3-12.9-4.5 3-3.7 3.6-7.3 0-10.6-2.8-2.6-5.5-1.7-8 .5s-.1 3.8 1.1 5.4c3.7 4.5 7.3 9.1 11.3 13.3 1.5 1.4 3.9 2.1 6.4 3.5z"/><path d="m112.2 339.1v18.9c-4.2-1.2-7-3.4-6.4-8.9.5-4.2.1-8.6.1-13.3 1.8.2 3.4.9 4.5.4 2.1-1 4.5-2.4 5.5-4.2.8-1.4.1-4.3-1-5.8-1.8-2.5-4.1-3.1-6.1.4-3.1 5.3-6.6 10.4-9.6 15.7-1 1.9-1 4.4-1.5 7l-10.7-6.6c6.9-1 18.9-20.4 17-26.5 5.9 4 12.2 7.5 17.7 12 3.4 2.8.4 9-4.5 10.3a22 22 0 0 1 -5 .6z"/><path d="m285.4 326.1c8.2.2 15.5 8.9 15.1 18.1-.3 8.4-9.5 16.5-18.4 16.5-8.2-.1-15.8-8.9-15.7-18.2.2-8.4 9.7-16.6 19-16.4zm10.1 23.2c-1-8.2-3.7-13.6-8.8-17.5-3.4-2.6-7.1-2.5-10.7-.3s-5.7 6-4 9.8a49.19 49.19 0 0 0 9.2 13.7c1.6 1.6 6.5 1.5 9.1.3s4-4.5 5.2-6z"/><path d="m157.1 24.2c5.1-.9 10.7-2.1 16.4-2.9 4.8-.7 8.5 1.4 10.7 5.7a26.62 26.62 0 0 1 2.1 20.3 13.28 13.28 0 0 1 -10.7 10c-3.6.7-7.2 1.2-10.7 1.8-2.2-11.6-1.8-23.6-7.8-34.9zm25.8 18.2c-1.2-4.3-2-8.7-3.8-12.8-2.1-4.8-6.3-6.4-11.1-4.7a4.8 4.8 0 0 0 -2.5 3.7c1.1 7.9 2.7 15.7 3.9 23.6.5 2.9 2.1 3.3 4.6 2.8 5.7-1.1 8.3-5 8.9-12.6z"/><path d="m92.3 87c-6.6-4.5-10.5-12.6-19.7-14.8l4.4-4.6c1.7 2.5 2.8 5.1 4.7 6.9 6.6 6.5 13.5 12.8 20 20-11 1-21.4-3.4-32.3-4.6 4.2 7 15.7 16.1 20.9 15.8l-5.8 6.3c-1.6-7.2-19.7-23.9-26-24.2 2.5-4.2 5.1-6.2 10.4-4.5 7.4 2.3 15.1 3.4 22.7 5z"/><path d="m47 104.3 3.4-6a84.51 84.51 0 0 0 7.5 5.9c4.9 3.1 10.2 5.7 14.9 9 5.7 4 6.6 8.9 3.4 14.2-3.4 5.6-8 6.7-14.6 3.3-5.6-2.9-11.1-6.1-16.7-8.9-1.7-.9-3.9-.8-6.8-1.4l4.5-8.3c2.4 2.2 4.3 4.4 6.7 5.8 4.8 2.9 9.9 5.4 14.9 8.1 3.6 1.9 6.8 1.7 9.1-2s1.4-7.2-2.2-9.5q-8.7-5.4-17.7-10.2c-1.6-.7-3.7 0-6.4 0z"/><path d="m84.8 339.5-9.4-8.8c4 0 8-3.7 6.4-5.9a19.75 19.75 0 0 0 -9-7.4c-1.9-.7-6.2 1.6-4.6 6.6l-5.9-5.4c6.4-2.8 12.9-5.6 19.4-8.5 3-1.4 6-2.9 9-4.2a14.87 14.87 0 0 1 3.6-.5c.1 1.4.5 2.9.1 4.1-2.5 7.2-5.3 14.3-7.8 21.6a63 63 0 0 0 -1.8 8.4zm2.4-28.3-.9-.9-10 5.1 7.1 6.1z"/><path d="m193.2 361.8-.4 6.5-9.2-3.9-1.7 1.4c.6 4 0 8.8 2 11.8 1.9 2.7 8.9.2 12-3.6a12.19 12.19 0 0 1 0 2.7c-.2 1.3-.4 2.6-.8 4.5l-20.3-1.5c.7-10.4 4.1-20.6.6-31.3l21.2 1.3-.8 5.8a7.05 7.05 0 0 0 -9.1-4 5.36 5.36 0 0 0 -1.1.5c-2.3 1.4-2.3 6.3-3.4 9.7l1.3 1.4z"/><path d="m288.4 84.5-9.5-6.3c6.1-.5 7.4-4.8 6.4-7.9-.8-2.3-5.2-5.1-7.6-4.8-2.7.4-6.8 3.1-4.9 8.5l-5.6-3.9 29.7-23.6 1.2.8a27.61 27.61 0 0 1 -.6 4c-2.2 7.7-4.7 15.3-6.9 22.9-.9 3.3-1.4 6.6-2.2 10.3zm2.2-29.2-1-.5-9.2 7.7 6.7 4.3z"/><path d="m327.2 95.9 7.6 4.9-5.6 4.7-2.3-9.2-11.5 9.3c2.8 6.6 5 7.9 10.4 6.7l-6.2 4.6-10.7-13.3c5-3.8 10.1-7.2 14.4-11.3 4.1-3.8 10.9-5.4 11.2-13.8l12.7 15.2-5.5 4c.2-2.1.9-4 .3-5.3-2.2-4.9-3.9-5.2-8.1-1.8-1.8 1.3-3.6 2.8-6.7 5.3z"/><path d="m156.6 53.6 2.4 7.1-16.7 6.4c-1-9.9-10-30.4-14.9-32.6l18-7.1 2.3 6.5c-3.6-4.5-6.9-1.6-11.1.1l4.7 12.7 7.2-5.3 3 7.6c-3.1-3.6-5.9-2.2-9.2 0l4.7 12.4c7.5-.9 8.9-2.2 9.6-7.8z"/><path d="m227.2 46.8a27.38 27.38 0 0 1 0 2.9c-.4 3.8 1.6 6 5.1 6.8s5.6-1.3 6.8-4.4c1.3-3.4.8-6.4-2.8-7.9-8.3-3.4-8.1-8.7-5.5-15a10 10 0 0 1 13-5.7 15.57 15.57 0 0 1 2.8 1.6c4 3.1.2 5.7-.7 9.7-.5-3-.2-5.2-1.2-6.2-1.3-1.4-3.7-2.7-5.4-2.4a6.59 6.59 0 0 0 -4.3 4c-.5 1.7.1 4.1 1 5.9.6 1.1 2.4 1.7 3.7 2.4 5.5 3.1 6.7 6.5 4.5 12.9-2 5.8-7 9.3-12.1 8-8.5-2.2-9.8-4.1-4.9-12.6z"/><path d="m354 121.6c1.1-1.6 2.9-3 3-4.6.1-1.9-.8-4.6-2.2-5.5a7.35 7.35 0 0 0 -6-.1c-1.7.8-2.6 3.1-3.4 5-.4.9.4 2.2.6 3.4 1.9 7.4-.9 11.7-8.9 13.5-6.8 1.6-12.2-2.2-13.5-9.1-1.2-6.3 4.2-5.4 7.5-7a10.59 10.59 0 0 1 -1 1.2c-3.5 2.3-4.4 5.3-2.3 9 1.9 3.3 4.9 3 7.9 1.9 4.1-1.5 4.8-4.4 3.8-8.4-1.9-7.2.2-10.9 7.2-13.3 5.7-2 10.3.2 12.9 6 2.5 5 1.7 6.2-5.6 8z"/><path d="m264.5 345.5c-4.4-4.3-8.2-4.9-13.2-2.2-4.4 2.3-6.3 6.7-5.3 12.3 2 11.9 12.2 16.5 22.3 10 .9-.6 1.8-1.2 2.8-1.9.3.6.6 1 .5 1.1-3.2 5.3-12.4 8.9-19.3 7.5-6.1-1.2-11.3-7-12.5-14-1.2-6.6 1.7-12.6 8.2-16.1a33.69 33.69 0 0 1 9.4-3.2c6.6-1.3 7.1-.6 7.1 6.5z"/><path d="m122.9 45.6-2.5-4-6.5 3.8c6.4 8.9 9.3 19.7 18.1 27.3l-7.8 4.6c-.9-3-1.3-5.8-2.6-8.2-3.8-7-7.9-13.8-11.8-20.6-6 2-6.1 2.2-5.2 8.8l-4.6-7.3 20.4-11.9 3.6 6.6z"/><path d="m280.4 37.5-2.8 6.6c-.2-4.1-1.9-6.7-6.3-6.7-5.4 7.3-11.6 26.1-9.7 31l-9.7-3.8c1.9-3 4-5.6 5.4-8.6 3-6.8 5.6-13.8 8.3-20.6-5.2-3.6-5.5-3.6-9.6.4l2.5-7.3z"/><path d="m329.7 73.6-5.2 5.1c2.1-4.2.3-6.7-3.2-8.6-8 5.5-20.2 20.4-20.3 25.6l-7.9-7.3c2.6-1.6 5.1-2.6 6.9-4.3 5.7-5.8 11.2-11.8 17-18-2.7-3.1-4.8-6.3-9.4-2.9l4.8-5.7z"/><path d="m115.6 82.2-8.6 7.4c-.8-7.3-17.5-26.4-24-26.4l9-8.1c.4 7.2 16.8 26.1 23.6 27.1z"/><path d="m120.5 128.7c3.7-1.2 6.7-4.3 11.6-2 2.4 1.1 6.4-1.2 9.6-2l-.5-2.2-9.8 2.1-.4-.8c9.4-4.2 18.7-8.5 28-12.7 5-2.2 9.8-5 15-6.3 9.1-2.2 12.2.9 11.8 10.2-.1 2 1.1 4 2.6 5.8 3.4-7.1 3.6-13.8-1.8-20.1-7.6-.7-10.7-2.7-12.2-8.4-1.4-5.1.1-9.3 5.1-10.9 4-1.2 8.4-1.3 12.6-1.3 7.4 0 14.8.9 22.2.8 6.7-.1 13.5-2.5 20.1.7.8.4 2.1-.3 3.4-.5.5 5.5-3.9 7.6-7 11.4-2.8-5.4-7-4.6-11.4-3.7a74.91 74.91 0 0 1 -30.2-.1c-2.5-.5-5.4.9-8.1 1.5 1.4 2.4 2.4 5.3 4.3 7.2 2.6 2.6 5.7 3.2 9.5 1.3 7.2-3.8 12.2-1.2 14.1 6.7.6 2.8 1.3 5.5 2.1 8.2 1.7 4.8 4.3 8.4 10.6 7.3l-5.3 2.9-.1 1.4c1.7 0 4 .7 5-.1 2.6-2.1 5.6-4.5 6.7-7.5 1.8-4.8 3.4-9 10-9.3-8.2-4.1-11.9-2.2-15 6.4-2.7-6.5.1-11.2 7-10.5 4.8.5 9.4 2.6 14 4.2a106.63 106.63 0 0 1 10.9 4.9c.9.4 1.4 1.5 2.1 2.3-1 .7-2 1.3-4.2 2.8l13 3.7.5-1.6-9.4-4.9 24.8 9.6-.5 2.4-21.6-2.1-.2 2.2 30.1 4.2.5-1.4-5.8-2.6.4-.8 10.9 4.5-.1 2c-3.7 1.6-7.3 3.6-11.1 4.9-4.8 1.6-9.8 2.7-14.7 3.9a10.77 10.77 0 0 1 -4 .1c-6-1-11.9-2.1-17.9-3.2a4.13 4.13 0 0 0 -1.9.2c-8.3 2.7-16.7 5.4-25 8.2-.6.2-1 .8-1.8 1.5 2.7 2.7 5.4 5.1 7.7 7.8 4.8 5.7 3.1 11.7-3.9 14.4l1.9 6.6c-3.6-.7-7.3-4.1-8 2.6l29.2 10.7c-2.2-6.4-3.7-11.3-5.6-16.1-2.1-5.4 2.7-5.4 5.1-7.4s4.5-2.2 6.7.8c4.3 6 8.8 11.8 13.4 17.9a5.78 5.78 0 0 0 .6-1.7c.6-2.9.4-7.8 1.8-8.3 7-2.5 14.4-7.1 22-1.3 4.4 3.4 6.9 7.7 6.3 13.3s-4.1 9.4-9.2 12.2c-3 1.6-5.5 4.4-7.9 6.9-.5.5.1 2.4.6 3.5.8 2 1.9 3.8 2.8 5.8 1.5 3.4 3 6.7-1.6 9.2-5.8 3.2-8.2 3.1-11.9-1.2-2.8-3.2-5.5-6.5-8-10-.6-.9-.2-2.4-.4-4.6l-3.7 4.8-8.2-12.5c13.3 30.4 8.1 55-19.9 71.9-21.2 12.8-42.2 7.9-66.3-13.7-3 1.6-5.2 3-2.3 7 2 2.9 3.1 6.6 3.9 10.1.6 2.8.1 5.8.1 10l11.4 4.5-.8-8.9 35.7 3.2c-.7 9.5-19.2 25.9-31 26.5l-1-9.4c-10 2.2-19-4.8-29.5-2.1-7.2 1.9-13.2-3.5-19.4-6.6-3.5-1.7-6.5-4.9-9.1-7.9-2.4-2.7-3.9-6.4-7-5.2-.7-4.1-1.3-7.7-2-11.4-.3-1.6-1.1-3.1-1.3-4.6-.7-5.9-2.4-11.6-4-17.3-2.3-8-3.5-16.6 2-23.9 2.8-3.7 6.7-6.5 10.2-9.7l-2.1-.9c5.1-13.3 28.4-23.5 39.2-17.9l-14.3 31.2c-.2-.1-1.1-.9-2-1.7s-1.5-1.4-3-2.7c3.3 7.2 3.2 13.1-1.5 18.7-2.8 3.3-.7 6.8 6.2 9.6.1-1.7.3-3.1.3-4.5 0-5.4-.6-11 3.9-15 1.8-1.6 4.4-2.3 7.3-3.7 2.3-24.2 15.9-40.3 39.8-47.7-1-4.4-1-4.4-7.7-2.8l1.8-6c-7.5-3.2-8.8-8.9-3.2-15.4 1.9-2.1 3.9-4.1 7-7.4-13.3-1.2-23.4-12.1-37.2-7.7l16-6.2-5.4 4.5h6.3c3.1 3.3 5.2 2.8 10.5-3.4-2.8.6-4.3.8-5.8 1.3a52.73 52.73 0 0 0 -4.9 2.2l4.4-3.6-.7-1.5-4.6.7c-1.4-.6-2.9-1.8-4.2-1.6-1.7.2-3.3 1.4-5 2.2-4.6 2.3-9.2 4.4-14.7 2.9-2-.6-4.4.4-6.6.7l.1 1.7 9.6-.5c-6.3 4.4-24.5.7-35.8-7.6l8.4-3.9-3.2 2.8.3 1 29.9-4-.1-2.2a45.1 45.1 0 0 0 -5.2 0c-7.2.3-14.4 1.2-21.7 2zm40.3-1.7c3.1 4.1 5.6 3.7 10.8-2.4a15.19 15.19 0 0 0 -6 .6 41.92 41.92 0 0 0 -4.9 2l5.3-4.6-.4-1.5-6.6 1.2c2.1-3.8-1.5-3.2-3.1-3.4-1.3-.2-2.8.8-4.2 1.2 1.9-2.4.5-3.6-1.6-3-3.3.8-6.3 2.5-9.4 3.9l.5 1.6 8.9-1.6-3.4 2.9.4 1.5 8.5-1.4c.3 1.1.4 2.8 1 3.1 1.2.4 2.8 0 4.2-.1zm86.7-6.8-6.1.9a20.11 20.11 0 0 0 7.2 5.4c2.7 1.1 3.8-.1 3.5-3l8.3 1.1.3-1.8c-2.5-1.4-4.9-3.3-7.6-4.1-1.6-.3-3.7 1-5.6 1.5zm-5-4.5c7 1.3 7 1.3 9.5-1.4-9.1-4.4-9.1-4.4-14.4-1.7l5 3.2-8.2-1.1-.3 2.1 9.6 2 .3-1.4zm-3.6 18.4a11.54 11.54 0 0 1 3.3 1c7.8 5.9 17.1 3.6 25.8 5 .4.1.9-.6 2.5-1.6-3.5-.4-5.9-1.4-7.9-.8-4.6 1.3-8.5.1-12.4-1.9a58.62 58.62 0 0 0 -6.7-3.2c-1.7-.6-4.1-1.9-4.3 1.6l-5-.7-.2 1.4c2.7 1.9 4.8 5.4 9.3 2.7zm-83.3 97.4c-1.3 9.3-.2 10.6 8.4 10.6h41.5c1.6 0 3.1-.2 5.5-.3-3.4-3.9-3.4-7.3.5-10.4zm2.1 13c1.9 9 3.4 10.3 11.4 10.3 13.3 0 26.6-.3 39.9.3 5.6.2 5.9-2.9 6-6.6.2-4.4-3.2-3.9-6-3.9-15 0-29.9-.1-44.9-.1zm93.4-28.1c-1.4-9.8-3-11.3-12.1-11.3h-25.4c-8.8 0-10.7 2.7-8.1 11.3zm-37.8 40.9h-49.9c4.9 5.9 8.3 11.7 16.7 10.6 4.7-.6 9.6-.1 14.4-.1h19.5zm-7.9-28.6.5-.9c-1.9-1.4-3.6-3.2-5.7-4.1-4.4-1.8-9.1-3-13.6-4.4a13.17 13.17 0 0 0 -3.4-.4c-7.8 0-15.6.1-23.5-.1-3.3-.1-4.5 1.2-4.5 4.3v5.6zm5.2-8-12.4-2.3c3.6 2.5 6.4 4.7 9.5 6.6a5.69 5.69 0 0 0 4.2.7c5.3-2.1 9.9-1.9 13.8 2.8a2.51 2.51 0 0 0 1.9.5h25.2c1.3-8.9.5-10-7.4-10.1q-15-.15-30 0c-1.4 0-2.8 1-4.8 1.8zm34.4-17.5c-4-7-7.9-10.4-12-10.4-11.1 0-22.2 0-33.4.1-1.4 0-2.8 1.1-4.2 1.7.4 1 .6 2.7 1.3 2.9 1.6.5 3.8.9 5.1.2 1.6-.9 2.5-2.9 3.7-4.5l9.2 6.1-6 3.1.3.8zm-32.8-27.3-6.5.8c.8-1.5 1.1-2.5 1.5-2.5 4.2-.8 5.2-3.7 5.2-7.4a2.5 2.5 0 0 1 .8-1.8c6.1-4.6 4.2-11.4 4.2-17.4 0-1.6-2.7-4.3-4.4-4.6-3.1-.6-4.3 2.2-3.7 5 1.2 6.2-1.9 12.5.5 18.7.2.4-.7 1.2-1.5 2.7l-2.2-8.6c-1.6 6.6-2.2 8.9-3.4 8.9v-5.9l-2.5 5.2-1.4-.5 2.5-8.4-1.8-.4a86.25 86.25 0 0 1 -2.1 9.1c-1.6 5 5.3 3.1 5.4 7.5l-5.6-.8-2.9 3.8h20.6zm43.6-44.4c-3.8.9-7.1-4.4-10.7-.2 5.6 3.9 29 7.8 33.2 5.2l-4.2-2.3 12.3 1.3.3-2.4-33.7-5.2-.4 1.4zm-134.7 2.2.4 2.8 20.5-3.5v.3l-12.7 3.3.6 2.4c10.7-3.3 22.5-.6 32.7-6.6l-.4-2-11.9 2.3 4.8-2.6-.4-1.4zm109 136.5h-53.5c16 11.2 41.6 11 53.5 0zm-73-53.9h21.1l-6.6-10.3c-11.3-.8-11-2.2-14.4 10.3zm68.4 39.3h12.8c8.8 0 10.3-1.2 12.2-11.1-5.5 0-11.3-1.2-16.2.4-3.2 1.1-5.2 6.2-8.7 10.6zm18.6 1.8c-6.7 0-12.8-.2-18.9.1-4.1.2-8.4 5.9-8 10.1 10.2.3 21 3 27-10.2zm-87.2 35 .6-.6c-5.3-6-10.6-12-15.8-18.2-2.4-2.9-4.6-6.1-1.6-8.9l-9.1-2.7-2.7 11c4.7-4.6 7.3-1.7 10.8 2.3 5.4 6.2 11.8 11.4 17.9 17.1zm96.3-60.8h-20.2c1.7 3.6 7.2 5.3 3.6 10.7 3.6 0 6.6-.4 9.5.1 5.3.8 7.3-1.5 7.3-6.5v-4.3zm-62-74.6c0 .9-.3 1.9.1 2.5 1.2 1.8 2.6 3.4 3.9 5.1 1.1-1.6 2.8-3 3.2-4.8a52.57 52.57 0 0 0 .7-8.9c.1-3.4.2-7.4-4.6-7.2s-4.1 4.3-3.8 7.6a5.64 5.64 0 0 0 .4 1.2l6.3 1.5-.1 1.4zm1-33.2c-8-.1-7.8-5.5-8.9-10.4-1.5-6.9-7.5-8.9-13.2-4.7 6.4 1.9 6.2 2 8.6 8.2a19 19 0 0 0 4.8 7.3c2 1.7 4.8 3.6 8.7-.4zm21.4 9.2 1-1.2c-1-1-1.9-2.8-2.9-2.9-6.2-.6-12.4-.7-18.7-1 .3 5.1.3 5.1 5.1 5.1zm4.6 49.7-2.7 8h16.5l.4-1.1zm-34-14.3c3.6-.1 7.3.9 6.9-3.7-.3-3.4-2-6.8-3-10.2-3.3 2-3.3 2-5.3 10.3l3.6-.2zm41.7-3.7c-.7-4.2-.2-8.9-5.6-10.5l-3.3 12.1 7.2 2.7-1.8-4zm-26.4 131.3.8.5 6.3-7-27.7-2-.2 1.3 22 3.7zm-36.2-92.5c3.6 0 6.7.3 9.7-.2 1.1-.2 2.5-2.3 2.5-3.6a4.22 4.22 0 0 0 -2.8-3c-4.3-.5-7.4 1.7-9.4 6.8zm122.5-9.6c4.2-4.9 4.3-8.7 1.4-12.4-2.1-2.6-4.8-3.1-6.9-2.1zm-81.8-51.8v-.3a44.17 44.17 0 0 0 6.3-.1c.9-.1 1.6-1 2.4-1.5-.7-.6-1.3-1.6-2-1.7-4.3-.2-8.6-.3-13-.3-.6 0-1.2 1-1.9 1.6.6.6 1.1 1.6 1.8 1.8 2.2.3 4.3.4 6.4.5zm71.9 55.5c5 3.1 10.9 2.1 14.8-2.5 3.5-4.1 3.7-7.8.8-11.1-.9 10.8-2.4 12-15.6 13.6zm-153.9 35.4h1.2l8-19.7c-1.4.2-3.7 0-3.9.6-1.9 6.3-3.6 12.7-5.3 19.1zm23.9-28.4-.8-.5-6.1 9.4-5.5-2.1 6.9 9zm9.6-89.5c4.6 3.1 8.7 2.3 13.8-2-5.5-4.3-9.3.8-13.8 2zm52.4 66.5h-6.5c1.9 8 3.6 9.7 10 8.8l-5.6-4.4zm-91 65.9-.7-16.5c-4.1 6.4-3.9 13.9.7 16.5zm2.3-37.7 1.1 1.6 19.8-13.1-.7-1.1zm115.6-84.8c3.9 2.1 6.5 6.2 11.8 2.6-3.9-1.8-6.2-6.7-11.8-2.6zm-28.4-3 5-3.5-.4-1.2-5.6 1.8-1.4-3.1-.8 1.6-7.2.4 4.2 3.3 3.9-2.4zm-3.3 94.3.9-1.5c-1.6-.9-3.1-2.4-4.6-2.5s-3 1.6-4.6 2.4l.7 1.5zm-51.5 31c4.1-1.8 4.2-3.4 0-10.9zm48.6-101 1 4.6 5.4.3c1.2-5 .7-5.4-6.4-4.9zm-46.7 120-.8-6.2c-6.1 4.1 0 6.9 1.2 10.4l2.7-5.8zm-23.4 16.1-.9 1.8 12.6 7.3 1-1.8zm136.1-157.9 10.4 2 .4-1.8c-3.7.2-6.4-4.5-10.8-.2zm-29.9 16.7.9-2.5c-3.2.1-4.6-5.5-10.1-1.5zm38.7 44.1-2.4 1.1 3.7 7.5 2.3-1.1zm-97.3-57.2c-4.2-2.7-6.1.9-9.1 2.3 4.3 2.7 6.4-.2 9.1-2.3zm-3.1 3.8.9 2.4 7.5-3.1-.9-2.3zm50.9-3.7-.9 2.7 7.4 2.5.7-2.1zm-52.3-10.7-.4-2.4-9.2 2.6.5 1.9z"/><path d="m245.7 224.1 3-3.9c.8 1.6 1.9 3.1 2.2 4.7.1.9-1.3 2-2 3z"/><path d="m185.4 272.1h39c-9.6 6.4-29.5 6.3-39 0z"/><path d="m247.6 247.2c-1.8 7.1-2.1 7.3-10.5 6.2 2.3-7.1 3.8-8 10.5-6.2z"/><path d="m223.6 266.3c4.9-4.6 8.9-9.2 15.8-6.8-1.7 5.9-6 7.9-15.8 6.8z"/><path d="m250.7 233.1c.6 7.6 0 8.3-6.4 7.2.5-6.9 1.4-8 6.4-7.2z"/></g></svg>