<svg viewBox="0 0 400 400" xmlns="http://www.w3.org/2000/svg"><g fill="#f5f5f5"><path d="m108.29 178.48c6.52-1.66 13.11-3 19.62-4.75a284.44 284.44 0 0 0 62-25.18 5.24 5.24 0 0 1 2.71-.79q9.39.06 18.79 0c1.41 0 1.92.33 1.92 1.84q-.08 19.28 0 38.61c0 1.17-.21 1.71-1.59 1.71q-51.4-.06-102.86 0a3.4 3.4 0 0 1 -.63-.08 3.49 3.49 0 0 1 -.54-2.55c.29-3-.5-5.97.58-8.81z"/><path d="m108.29 164.67v-16.78c3.3 0 6.52-.09 9.81-.09h48.76a42.87 42.87 0 0 1 -6.64 3 229.73 229.73 0 0 1 -51.51 13.94 1.33 1.33 0 0 0 -.42-.07z"/><path d="m108.34 173.6v-4.55a264 264 0 0 0 50.47-14.15 107.62 107.62 0 0 0 11.32-4.8c4.17-2.26 8.47-2.71 13.48-2.13-2.5 1.25-4.68 2.42-6.89 3.46a272 272 0 0 1 -66.71 22 9 9 0 0 1 -1.67.17z"/><path d="m108.29 164.67a134.23 134.23 0 0 1 -18.2 2.13 233.51 233.51 0 0 1 -42.87-.8 239.79 239.79 0 0 1 -43-8.85c-1-.29-1.46-.71-1.41-1.84.08-2 .08-4 0-6.05-.05-1.21.41-1.63 1.54-1.5h101.65c.75 0 1.5.08 2.29.12.8.59.76 1.47.8 2.3v12.23a2.78 2.78 0 0 1 -.8 2.26z"/><path d="m108.29 178.48v11.28c-.75 0-1.5.16-2.25.16q-50.34 0-100.73 0c-2 0-2.63-.5-2.46-2.5s.12-4.17 0-6.26c0-1.25.08-1.8 1.67-1.5a265.41 265.41 0 0 0 35.48 3.79 287.42 287.42 0 0 0 47.21-1.83c6.56-.84 13.07-1.84 19.54-3.05.42-.04 1-.09 1.54-.09z"/><path d="m26.27 238.64c3.88-8.77 7.59-17.12 11.23-25.51.58-1.29 1.16-1.88 2.75-1.71 2.34.25 4.72 0 7.1.08.5 0 1.17-.37 1.29.55.08.67-.37.87-.88 1-4.13.67-4.38 3.59-4.3 7 .17 6.76 0 13.48 0 20.25 0 3.67.5 4.38 4 5.59l1.17.37c.5.21.42.67.38 1.05s-.42.42-.79.42a111.5 111.5 0 0 0 -14.16 0c-.33 0-.71.16-.83-.34s-.17-.83.29-1.13a1.54 1.54 0 0 1 .48-.26c4.3-1 4.51-4.09 4.42-7.68-.17-6.31 0-12.61-.42-19-1.71 3.84-3.42 7.64-5.09 11.48q-3.37 7.71-6.8 15.41c-.25.58-.3 1.54-1.17 1.58s-.92-1-1.17-1.54q-5.64-13-11.27-26c-.13-.29-.17-.71-.71-.83v22.37a3.29 3.29 0 0 0 2.21 3.28c.75.33 1.5.67 2.3 1a.87.87 0 0 1 .5 1c-.09.59-.54.5-1 .5a91.2 91.2 0 0 0 -11.69 0c-.42 0-.88.13-.88-.5 0-.41 0-.83.55-1a2.23 2.23 0 0 0 .58-.21c4.3-1.62 4.51-1.92 4.51-6.51v-20.79c0-3.63-.29-4-3.68-5.39-.58-.25-1.54-.2-1.41-1.21.16-1.21 1.12-.5 1.67-.5 2.37-.08 4.71.09 7.09-.08a2.11 2.11 0 0 1 2.46 1.5c3.43 8 6.93 15.91 10.4 23.84a13.75 13.75 0 0 0 .87 1.92z"/><path d="m108.34 173.6c-5.6 1.5-11.32 2.05-17 2.76a267.55 267.55 0 0 1 -37.86 1.83 265.13 265.13 0 0 1 -49-5.42c-1.12-.21-1.75-.55-1.62-1.8.16-1.79-.76-4.26.33-5.22s3.38.42 5.13.8a260.68 260.68 0 0 0 45.8 5.84 259.71 259.71 0 0 0 53.3-3.39 2.89 2.89 0 0 1 .83 0 3.65 3.65 0 0 1 .09 4.6z"/><path d="m246.76 229.91c-2.38 0-4.72.09-7.1 0-1.5-.08-1.67.59-1.67 1.8.09 3 .13 6 0 9-.12 2.42.84 4 3.14 4.72.54.17 1 .42 1.54.63s1.09.33 1 1.12-.79.59-1.29.55c-3.43 0-6.81-.13-10.23-.13-1.25 0-2.51.08-3.76.13-.46 0-1 .29-1.13-.51-.12-.62.09-.91.67-1 4.72-.88 5.1-4.17 4.93-8.14-.21-6.39 0-12.77 0-19.2 0-3.63-.55-4.34-4-5.6-.59-.2-1.59-.08-1.5-1.08.12-1.29 1.21-.63 1.83-.63q6.59-.06 13.15 0c.5 0 1.17-.46 1.38.42s-.54 1-1.08 1.21c-4.43 1.67-4.51 1.84-4.51 6.43v6.68c0 1.13.29 1.59 1.5 1.59 4.88 0 9.73-.09 14.61 0 1.34 0 1.63-.46 1.59-1.72-.09-2.5 0-5-.05-7.51 0-3.3-.75-4.22-3.88-5.3a12.27 12.27 0 0 0 -1.17-.38.71.71 0 0 1 -.62-.83v-.16c.08-.58.46-.54.92-.54h14.61c.37 0 .71 0 .83.42a.72.72 0 0 1 -.37 1c-.05 0-.05 0-.09 0-.21.08-.37.17-.58.25-4.51 1.88-4.51 1.88-4.51 6.68v20c0 3.92.25 4.34 4 5.88a8.49 8.49 0 0 0 1.16.46c.5.17.55.59.5 1-.08.59-.45.55-.91.51a118 118 0 0 0 -14.57 0c-.34 0-.75.08-.84-.38s-.12-.83.34-1.09a6.12 6.12 0 0 1 .75-.33c3.84-.88 5-3.46 4.59-7.14a37.75 37.75 0 0 1 0-6.89c.13-1.75-.54-2.08-2.09-2-2.5.17-4.79.08-7.09.08z"/><path d="m375.21 206v16.69a37.3 37.3 0 0 1 8.47-2.21c6.56-.54 9.48 2 9.48 8.64 0 4.05.08 8.06 0 12.11a3.85 3.85 0 0 0 3.17 4.22c.46.12.88.41 1.34.54a.92.92 0 0 1 .79 1.21c-.16.75-.79.37-1.21.37-4.26-.2-8.47-.2-12.69 0-.42 0-1 .38-1.21-.33s.13-1 .79-1.21c3.93-.84 4.56-3.59 4.3-7.06-.2-3.25.17-6.51-.2-9.76-.51-4.26-2.63-6.1-6.93-6.1-.34 0-.71 0-1.05 0-4.76.3-5.05.59-5.05 5.35 0 4.09.09 8.22 0 12.31-.08 2.51.71 4.13 3.13 4.93.67.21 1.67.37 1.38 1.42s-1.21.41-1.76.37c-4-.16-7.93-.16-11.85 0-.46 0-1.17.5-1.34-.42-.12-.7.34-1 .92-1.16 4.39-.92 4.89-3.93 4.76-7.81-.25-7.64-.08-15.28-.08-22.92 0-3.71-.5-4.3-4.09-5-.67-.12-1.8.13-1.8-.92s1.17-.75 1.84-.91a82.62 82.62 0 0 0 8.89-2.35z"/><path d="m113.39 241.73v-3.34c0-.38-.13-.88.46-1a.93.93 0 0 1 1.15.61c.46 1.09.88 2.22 1.38 3.26a8.2 8.2 0 0 0 11.61 3 5.38 5.38 0 0 0 .5-8.85c-3.3-2.63-6.89-4.88-10.36-7.34a8.5 8.5 0 0 1 -3.54-8c.29-5.13 3.88-8.51 9.22-9 3.3-.29 6.47.83 9.73.92.62 0 .79.46.79 1 0 2.09.08 4.17.13 6.26 0 .38.16.88-.42 1s-.88-.17-1.09-.67a33.16 33.16 0 0 0 -1.62-3.13 7.2 7.2 0 0 0 -10-2.08 5.48 5.48 0 0 0 -.5 8.76c2.17 1.71 4.55 3.17 6.84 4.72 1.17.79 2.3 1.54 3.43 2.34 3.38 2.42 5.21 5.63 4.13 9.89s-4.22 6.35-8.27 7.31c-3 .71-5.93.16-8.85-.42-4.47-.82-4.47-.82-4.72-5.24z"/><path d="m335.09 206.12v34.27c0 3.93.38 4.47 4.05 5.68.63.21 1.55.12 1.34 1.17s-1.05.42-1.55.42c-4.3-.17-8.6-.21-12.9 0-.45 0-1.16.46-1.33-.42s.5-1 1.08-1.25l1.76-.67a3.84 3.84 0 0 0 2.67-4c0-9 0-17.91 0-26.88 0-2.17-.84-3.43-3-3.8-.55-.09-1.09-.25-1.63-.38s-1.26 0-1.3-.71.71-.75 1.17-.87a80.47 80.47 0 0 0 9.64-2.56z"/><path d="m198.88 223.65c3.05-1.71 5.84-3.21 9.23-3 1.67.12 3 .71 3.34 2.55a2.62 2.62 0 0 1 -1.51 3.13c-1.38.54-2.84.46-3.71-1a3.05 3.05 0 0 0 -3.63-1.63c-3.3.75-3.51 1-3.51 4.38v13.02c0 3 .37 3.47 3.17 4.26.92.25 1.88.54 2.8.75.58.13.88.46.79 1s-.5.5-1 .5q-7.69-.37-15.4 0c-.42 0-.88.17-.92-.5 0-.46 0-.83.54-1a2.78 2.78 0 0 0 .59-.21c4.59-1.46 4.46-1.79 4.46-6.59v-11.02c0-3.34-.41-3.72-3.67-4.39-.67-.12-1.84.13-1.88-.83-.08-1.3 1.25-.79 1.92-1 2-.59 4.09-.84 6.05-1.46 1.67-.55 2.51-.34 2.17 1.62.09.5.09.96.17 1.42z"/><path d="m143.07 233.55c0-2.84-.13-5.72 0-8.56.08-1.63-.46-2.05-2-1.92-.63 0-1.71.54-2-.5s.87-1.09 1.5-1.42a10.8 10.8 0 0 0 5.17-6c.25-.67.46-1.38 1.38-1.21s.54 1 .59 1.54c.16 1.71-.75 4 .37 5s3.43.29 5.22.38h2.71s1.13.2 1.13 1-.25 1.21-1.17 1.21c-2.29 0-4.59 0-6.89 0-.91 0-1.37.17-1.37 1.25 0 5.43-.09 10.85.12 16.24.13 4.09 1.88 5.34 6 4.72a19.06 19.06 0 0 0 2.59-.71c.58-.21.75.16.92.5.25.5 0 .79-.42 1-3.26 1.29-6.6 2.29-10.14 1.67-2.38-.42-3.84-2.51-3.89-5.26.11-2.96.18-5.93.18-8.93z"/><path d="m347 233.75c0-3.29-.08-6 0-8.72.09-1.63-.46-2.09-2-1.92-.63 0-1.59.46-1.84-.42-.33-1 .79-1.17 1.38-1.46a10.92 10.92 0 0 0 5.26-5.93c.25-.58.33-1.46 1.33-1.29 1.17.17.51 1.09.71 1.63v.21c.05 5.09.05 5.09 5.06 5.09h3.13c.75 0 1.17.21 1.17 1s-.34 1.21-1.22 1.21c-2.17 0-4.3.05-6.47 0-1.21 0-1.71.25-1.67 1.59.09 5 0 10 .05 15s2.25 6.63 7.09 5.38c.46-.12.92-.25 1.38-.42s.88-.29 1.17.38 0 .88-.54 1.08c-3 1.17-6.18 2.09-9.52 1.72a4.79 4.79 0 0 1 -4.26-4.47c-.47-3.41-.09-6.82-.21-9.66z"/><path d="m108.42 244.57c-3.51-.8-3.72-1-3.72-4.55v-31.73c0-2.34 0-2.3-2.33-1.67-2.09.59-4.18 1-6.22 1.63-.75.25-2.22-.21-2.22 1s1.38.79 2.17 1c1.51.51 3.43.59 3.51 2.68.17 2.75 0 5.51 0 8.3-12.4-3.38-20 4.51-19.83 14.49.22 9.68 7.6 14.52 16.83 11.28 1-.38 1.92-.84 3-1.3.29 2.67.29 2.67 2.8 2 2-.5 4-1 6.09-1.46.59-.13 1.46.12 1.5-.75.05-1.05-1-.8-1.58-.92zm-9.94-.3c-1 .21-2 .59-3 .8-4.59.87-8.27-1.17-9.48-5.6a16.52 16.52 0 0 1 1-12.35 8.86 8.86 0 0 1 11.77-3.84 1.87 1.87 0 0 1 1 2v8.52s0 5.67 0 8.51c.13 1.13-.2 1.76-1.29 1.96z"/><path d="m186.52 244.07c-.29-.63-.79-.3-1.25-.21-2.88.58-4.21-.38-4.38-3.34-.13-2.42 0-4.84 0-7.31 0-2.17 0-4.3 0-6.47 0-3.42-1.79-5.51-5.13-6a20.68 20.68 0 0 0 -8.89.46 6.48 6.48 0 0 0 -2.92 1.5c-1.3 1.21-1.51 2.76-.5 3.88a2.71 2.71 0 0 0 4-.16 24.07 24.07 0 0 0 1.84-2.76c1.17-1.83 3-1.54 4.68-1.25s2 1.54 2 3c0 2-.08 3.89 0 5.85.09 1.42-.46 1.88-1.79 2.09a36.23 36.23 0 0 0 -10.06 2.46 6.11 6.11 0 0 0 -3.52 7.19 6.33 6.33 0 0 0 6.14 5c3.09.17 5.8-1 8.43-2.59.5-.29 1-1 1.59.17 1.29 2.59 2.71 3.09 5.34 1.88a34.35 34.35 0 0 0 3.76-2.26c.37-.3 1-.47.66-1.13zm-11-.55c-1.92.84-3.88 1.59-6 1.26a4 4 0 0 1 -3.5-3.34 4.35 4.35 0 0 1 2.38-4.85 31.37 31.37 0 0 1 7.59-2v7.68c.05.54.09 1-.46 1.29z"/><path d="m322.49 244c-.21-.33-.59-.25-.92-.21-3.68.46-4.59-.33-4.64-4v-12.55c0-2.17-.45-4.13-2.42-5.42-3.13-2-11.48-1.59-14.4.75-1.42 1.17-1.75 2.84-.75 4a2.9 2.9 0 0 0 4.26-.2 22.29 22.29 0 0 0 1.71-2.59c1.13-1.88 2.92-1.63 4.63-1.34s2.09 1.63 2.13 3.13c0 1.8-.08 3.63 0 5.43.13 1.54-.37 2.17-2 2.38a36.71 36.71 0 0 0 -9.68 2.34c-3.13 1.37-4.47 4.05-3.72 7.51a6.34 6.34 0 0 0 6.05 4.8c3.64.25 6.56-1.46 9.69-3.3.63 2.13 1.54 3.68 4 3.3s4-1.79 5.85-3.05a.61.61 0 0 0 .29-.79.48.48 0 0 0 -.08-.19zm-10.4-7.93c-.08 1 0 1.92 0 2.92v.42c0 4.17-1.29 5.47-5.55 5.47a4.31 4.31 0 0 1 -4.38-3.13 4.41 4.41 0 0 1 2.42-5.22 29.33 29.33 0 0 1 6-1.71c1.12-.21 1.67 0 1.54 1.25z"/><path d="m276 232.34h7.73c2.42 0 4.88-.09 7.3 0 1.46.08 1.76-.5 1.71-1.8a9.7 9.7 0 0 0 -7.84-9.68 12.13 12.13 0 0 0 -13.32 6.3 17.3 17.3 0 0 0 -1.17 13.36 9.81 9.81 0 0 0 7.93 7.18c4.76.88 9.23-.25 13.49-2.42.62-.34.71-.67.41-1.34s-.66-.67-1.29-.46a38.6 38.6 0 0 1 -4.18 1.26c-4.92 1.12-8.85-.63-10.81-4.81a16.49 16.49 0 0 1 -1.21-6.51c-.02-.92.44-1.13 1.25-1.08zm-1-4a6.91 6.91 0 0 1 4.47-5.3c1.88-.63 3.84-.75 5.47.71s1.88 3.75 2.08 5.88c.09.8-.58.63-1 .63-1.71 0-3.46 0-5.17 0a35.74 35.74 0 0 0 -4.14 0c-1.71.21-2-.46-1.71-2z"/><path d="m68.43 221.11a12 12 0 0 0 -13.69 5.34 16.86 16.86 0 0 0 -1.42 14.44 9.51 9.51 0 0 0 7.34 6.68c4.89 1.09 9.48-.08 13.86-2.29.63-.3.71-.71.5-1.34s-.66-.67-1.29-.46a36.88 36.88 0 0 1 -4.17 1.25c-5.68 1.27-10.15-1.29-11.56-6.73-.33-1.42-.37-2.88-.58-4.34-.17-1.08.25-1.46 1.38-1.42 2.5.09 5 0 7.51 0h7.72c.84 0 1.38 0 1.46-1.17a9.7 9.7 0 0 0 -7.06-9.96zm1.33 8.76c-.25.67-.79.42-1.21.42-1.67 0-3.34 0-5 0h-3.72c-2.55 0-2.55 0-1.88-2.5a6.76 6.76 0 0 1 7.76-5c2.51.46 5 4.8 4.05 7.09z"/></g></svg>