<svg viewBox="0 0 400 400" xmlns="http://www.w3.org/2000/svg"><g fill="#f5f5f5"><path d="m2 200.31c-.06-109.56 89.74-200.31 202.33-198.31 107.89 1.94 196.5 90.77 194.67 202-1.81 108.3-90.54 195.62-199.74 195s-197.41-89.48-197.26-198.69zm353.63 38.37a57.38 57.38 0 0 0 8-5.78c1.85-1.52 3.09-1.41 4.85 0 2.54 2.13 5.32 4 8.45 6.26-.86-2.73-1.54-4.87-2.22-7s-2.28-4.25-1.61-5.94 3.13-2.68 4.82-4l5.78-4.36c-4.24 0-7.89-.08-11.54 0-1.55 0-2.29-.31-2.72-1.94-.92-3.45-2.14-6.83-3.41-10.8-1.32 4.05-2.53 7.53-3.56 11.07a2 2 0 0 1 -2.35 1.67c-3.75-.11-7.5 0-11.78 0 2.24 1.68 4.09 3 5.9 4.42s4.32 2.17 4.75 4-1.06 4-1.61 6-1.8 4.08-1.75 6.38h-.26l.05.23zm-155.19 101.19a139.39 139.39 0 1 0 -139.32-142.23 139.28 139.28 0 0 0 139.32 142.23zm158.91-196.12c3.07 2.82 5 3.49 8.33 2.73a19 19 0 0 0 6.39-2.65c4.05-2.7 5.52-6.37 4-11-2.18-6.74-5.34-13.1-8-19.65-.15-.35-.29-1-.7-.82-2.24.93-4.84 1.34-6.55 3.08a10.47 10.47 0 0 1 -3.42 2.52c-5.43 2.28-10.83 4.63-16.28 6.84-2.26.92-4.4 2.65-7.13 1.59-.18-.07-.49.17-.73.27-1.65.69-3.29 1.41-5 2-.86.33-1 .67-.62 1.59 1.63 3.69 3.2 7.42 4.71 11.16.41 1 .76 1.35 1.85.79 2.35-1.21 4.9-1.84 6.85-4 1.57-1.78 4.37-2.05 6.57-3.13.54-.26.82 0 1.08.49a3.38 3.38 0 0 1 -1 4.59 16 16 0 0 1 -2.64 1.34 84.52 84.52 0 0 0 -9.35 4.37c-.95.57-1.09 1.07-.64 2.05 1.09 2.42 2.06 4.88 3.09 7.32 1.45 3.42 1.48 3.48 4.82 2 1.22-.55 2.82-.58 3.54-1.95a5.27 5.27 0 0 1 2.81-2.37c1.63-.72 3.27-1.43 4.86-2.25a5.22 5.22 0 0 0 2.92-5.42c.01-.45-.2-.92.24-1.49zm-216.7-100.14a2.22 2.22 0 0 1 1.59 1.08c1.38 1.7 2.74 3.41 4.12 5.12 2.51 3.13 5 6.24 7.52 9.39a1.45 1.45 0 0 0 2 .64c2.8-1.06 5.74-1.67 8.55-2.74 1.37-.52 1.27-1.1.93-2.13-2.79-8.48-5.6-16.95-8.29-25.46-.84-2.64-2.55-5.19-1.35-8.2.1-.25-.11-.64-.21-.95-.52-1.57-1.1-3.13-1.57-4.71-.26-.85-.58-1.21-1.53-.88q-4.69 1.62-9.42 3.1c-.89.28-1.2.67-.82 1.57 1.05 2.41 1.58 4.91 3.35 7.17 2.24 2.85 2.57 6.8 3.82 10.34-1.13.06-1.28-.74-1.64-1.21-3.69-4.78-7.38-9.56-11-14.39a1.68 1.68 0 0 0 -2.28-.71c-2.86 1-5.79 1.87-8.67 2.85-2.49.84-2.54.9-1.63 3.36.58 1.59.55 3.54 1.92 4.68a5.93 5.93 0 0 1 2.07 3.26c2 8.38 6.77 16 6.81 25 0 1.7 1 3.39 1.56 5.1.27.9.6 1.19 1.63.82 2.9-1.06 5.84-2 8.82-2.87 1.29-.37 1.26-1 .88-2a32.74 32.74 0 0 0 -3.55-7.32c-1.86-2.72-2.4-6.34-3.61-9.91zm-107.93 131.28v-.54a30.68 30.68 0 0 0 3.61-.69c1.8-.57 3.71 0 5.48-.66a22.26 22.26 0 0 1 8.19-1.38c2.32.11 3.61-.76 4.07-3.07.56-2.79 1.06-5.59 1.62-8.39.13-.68.13-1-.74-1.21-8.39-1.56-16.78-3.13-25.15-4.79-2.78-.55-5.95-.32-8.22-2s-5.05-1.65-7.6-2.37c-.7-.2-1.05 0-1.2.83-.59 3.33-1.27 6.64-1.89 10-.07.39-.38 1 .3 1.16 2.33.44 4.72 1.66 7 1 4.46-1.2 8.27 1.1 12.66 1.29a1.93 1.93 0 0 1 -1.73.87c-6.09.93-12.19 1.88-18.29 2.75-.94.14-1.39.43-1.57 1.39q-.91 5.19-2 10.35c-.22 1.07 0 1.62 1.16 1.72 2.58.22 5.08 1.62 7.75.32a3.23 3.23 0 0 1 1.75.11c5.48 1 11 2 16.41 3.1 2.4.46 5.19.21 7.07 1.69 2.29 1.8 4.91 1.68 7.37 2.44 1.12.34 1.5-.17 1.69-1.18.53-3 1.08-6 1.71-9 .25-1.17-.23-1.55-1.26-1.67-2.64-.29-5.14-.79-8-.41-3.29.45-6.78-.95-10.19-1.66zm354.44 1.73a62.76 62.76 0 0 0 -1.13-8.11c-.44-2.81-.92-5.62-1.32-8.44-.63-4.54-.62-4.59-5.15-3.75-1 .18-2.27-.16-2.94.82-.94 1.38-2.33 1.63-3.77 1.86-4.64.75-9.26 1.71-13.93 2.19-3.76.39-7.55 2.52-11.38.22-.13-.08-.38 0-.58.07-1.64.26-3.27.52-4.91.76-.9.14-1.39.39-1.19 1.52 1.1 6.33 1.93 12.7 3.21 19 1.19 5.8 5.32 8.81 11.21 8.46a78.07 78.07 0 0 0 8.85-1.21c5.28-.93 10.66-1.32 15.83-2.8s7.5-5.05 7.2-10.59zm-274.58-96.62c3.86-.29 8.18-2.88 11.94-6.29 5.11-4.63 5.67-9 2.25-15-1.67-2.94-3.48-5.79-5.31-8.64-2.44-3.78-4.47-7.84-7.35-11.32-3.42-4.14-7.4-5.18-12.44-3.37a28.8 28.8 0 0 0 -9.3 5.62c-4.37 3.85-5.37 8.4-2.62 13.57a219.5 219.5 0 0 0 12.87 20.77c1.97 2.87 4.76 4.81 9.96 4.66zm189.2 13.85a12 12 0 0 0 9.09-4.31c4.37-5 8.65-10 13-15 1.28-1.47 2.31-3.32 4.68-3.35.33 0 .67-.57 1-.91 1-1.11 1.82-2.3 2.85-3.32s1-1.56-.14-2.45c-2.45-1.92-4.79-4-7.16-6s-2.3-2-4.17.31c-1 1.21-2.57 2.14-2.74 3.77a7 7 0 0 1 -1.81 3.87q-6.48 7.67-13 15.33a7.15 7.15 0 0 1 -1.31 1.21 2.7 2.7 0 0 1 -4.07-3.35 7.21 7.21 0 0 1 1.14-1.65c3.81-4.5 7.61-9 11.47-13.49 1.48-1.7 2.58-3.94 5.25-4.23.25 0 .47-.43.69-.68 1.07-1.26 2.09-2.58 3.24-3.78.77-.8.75-1.25-.15-2-2.78-2.26-5.48-4.62-8.21-6.94-2-1.68-2-1.71-3.63.27-1.09 1.31-2.78 2.38-3.05 4a7.78 7.78 0 0 1 -2 4c-2 2.37-4.07 4.72-6 7.13-2.9 3.54-6.19 6.77-8.56 10.71s-2.5 7.82-.06 11.64a22.43 22.43 0 0 0 9.66 8.37 10.28 10.28 0 0 0 3.99.88zm-26.35-19.85c2.7.14 4.5-.66 5.72-3.42 2.19-5 4.86-9.7 7.38-14.5.47-.88.48-1.31-.5-1.79-3.27-1.6-6.52-3.24-9.72-5-1.19-.65-1.66-.33-2.13.79-.54 1.27-1.23 2.49-1.89 3.71-.57 1-1.52 2.06.39 2.73.41.14.41.46.21.79-1 1.71-1.54 3.69-3 5.12a2.33 2.33 0 0 1 -2.89.57 2.6 2.6 0 0 1 -1.56-2.74 5.4 5.4 0 0 1 .77-2.23l8.52-16.6a8.67 8.67 0 0 1 1.93-2.75 2.46 2.46 0 0 1 2.95-.28 2.3 2.3 0 0 1 1.22 2.66 8.26 8.26 0 0 1 -1.21 3.12c-.6.95-.71 1.5.54 2.08 2.7 1.25 5.32 2.68 7.93 4.1.87.47 1.23.27 1.64-.56 1.16-2.38 2.36-4.74 3.63-7.06a2.85 2.85 0 0 0 -.09-3.12 24.85 24.85 0 0 0 -14.76-11.38c-5.67-1.68-9.84 0-12.92 5a71.75 71.75 0 0 0 -3.47 6.47c-2.58 5.36-5.82 10.41-7.84 16-1.4 3.93-1 7.74 2.06 10.7 4.73 4.68 10.59 6.94 17.09 7.59zm70.57 6.55c-.33.14-.63.26-.93.41-3.9 2-7.79 4-11.69 5.92-5.85 2.94-11.58 6.19-17.63 8.66a37.59 37.59 0 0 0 -7.91 4.18c-1.14.81-1 1.34-.27 2.28 1.55 2 3 4 4.51 6.07 2.47 3.33 2.49 3.34 5.72.9 1.27-1 2.59-1.7 2.91-3.68s2.27-2 3.39-.51a23.35 23.35 0 0 1 1.63 2.25c.35.64 1.42 1.08.9 2a2.63 2.63 0 0 1 -2.67 1.41 3.28 3.28 0 0 0 -2.68 1c-1.09.85-2.19 1.72-3.36 2.47-.87.56-.95 1-.3 1.82 2.19 2.84 4.28 5.74 6.4 8.63 2 2.66 2 2.7 4.59.69 1.12-.87 2.75-1.37 3.17-2.8a10 10 0 0 1 2.49-4q10.63-11.31 21.25-22.64c.55-.59 1.14-1 .41-2-3.12-4.13-6.16-8.32-9.23-12.47-.16-.26-.27-.64-.7-.59zm-291.72 59.71c-2.1.06-2.9-1.06-2.1-2.84.36-.78.66-1.59 1.09-2.34s.28-2 1.39-1.89a2.71 2.71 0 0 1 2.63 1.81c.26.94.9 1.22 1.6 1.55 1.39.63 2.8 1.2 4.15 1.9.91.47 1.33.32 1.75-.65 1.34-3.09 2.79-6.13 4.19-9.2 1.6-3.54 1.61-3.57-2-5.18-1.1-.49-2.1-1.55-3.44-1.15a8.06 8.06 0 0 1 -4.49-.22c-10-2.52-20-5-30-7.61-1.32-.34-1.85 0-2.36 1.22q-2.82 6.45-5.85 12.81c-.52 1.09-.45 1.67.63 2.38 5.2 3.44 10.33 7 15.47 10.48 3.94 2.69 8.17 5.07 11.67 8.25a29.69 29.69 0 0 0 7.39 4.65c.88.42 1.2.31 1.6-.6 1.49-3.39 3.07-6.74 4.64-10.09.31-.66.3-1.11-.48-1.33-2.54-.72-4.55-3.21-7.48-1.95zm115.5-90.06c.16 1.67.32 2.79.35 3.92s.3 1.38 1.41 1.27c3.56-.35 7.14-.56 10.7-.85.42 0 .93.18 1.19-.41.46-1.05-.56-6.65-1.38-7.47a3 3 0 0 1 -.83-3.11c.32-1.08 1.36-.51 2.07-.65a10.46 10.46 0 0 1 2.37-.22c.78 0 1.77-.68 2.3.39a2.56 2.56 0 0 1 -.18 2.84 3.73 3.73 0 0 0 -.7 3.14c.09 1.32.3 2.64.31 4 0 1 .42 1.18 1.32 1.1 3.5-.3 7-.58 10.51-.79s3.47-.18 3.3-3.54c-.07-1.43.3-3.13-.68-4.2a10.1 10.1 0 0 1 -2.15-4.62c-2.54-9.67-5.13-19.32-7.57-29-.46-1.84-1.24-2.19-3-2q-6.52.7-13.08 1c-1.55.08-2.08.49-2.21 2.12-.8 9.58-1.89 19.13-2.54 28.72-.18 3.07-1.94 5.79-1.51 8.36zm-134.2 48.35c4.86 3.72 9.66 7.37 14.42 11.08.83.64 1.25.59 1.83-.25a29.13 29.13 0 0 1 3-3.93c1.35-1.36 1-2.18-.48-3a6.59 6.59 0 0 1 -1-.72c-1.44-1.17-2.93-2.28-4.3-3.53a1.84 1.84 0 0 1 -.05-2.68c.73-.79 1.24.27 1.71.63q8.73 6.6 17.38 13.3c.63.48 1.47 1 1.67 1.64.9 3 3.8 3.89 5.76 5.75.56.53.92.41 1.38-.21 2.74-3.64 5.53-7.25 8.33-10.91l-5.14-4c-.37-.28-.7-.61-1.23-.53-1.46.21-2.52-.6-3.58-1.42q-8.61-6.58-17.28-13.24c-.46-.35-1.42-.56-1-1.44a1.84 1.84 0 0 1 2-.77 4 4 0 0 1 2.13 1c1.63 1.23 3.27 2.45 4.85 3.74.65.53 1 .57 1.55-.17q1.8-2.51 3.75-4.89c.58-.69.48-1-.21-1.54-4.86-3.68-9.7-7.41-14.59-11.16zm185.74-51.75c-.43-.61-2.22.59-1.89-1.51 1.13-7.27 2.15-14.56 3.22-21.84a11 11 0 0 1 1.68-4.12c1.2-2 .95-4.59 1.27-6.93.09-.69-.67-.48-1.06-.54-3.65-.55-7.35-.9-10.95-1.66-2.09-.44-2.88 0-2.85 2.11 0 1.76-1.1 3.53-.33 5.25a6.73 6.73 0 0 1 .42 3.87c-.89 6.17-1.76 12.33-2.73 18.49-.26 1.68 0 3.64-1.22 4.94a6.65 6.65 0 0 0 -1.49 4.14c-.15 1.38-1 3-.33 4s2.59.65 3.95.86c7.53 1.15 15.07 2.25 22.62 3.35.88.13 1.78.44 2-1.08.82-6.15 1.74-12.3 2.68-18.44.15-1-.22-1.06-1-1.16-2.5-.33-5-.68-7.47-1.15-1.43-.27-2 .16-2.13 1.63-.25 2.43-.7 4.85-1.12 7.26-.33 1.73-1.43 2.51-3.27 2.53zm-146.1 7.47-.52.44-9.59 8.67c-.28.26-.73.55-.35 1 1.59 1.76 2.81 4.09 4.95 5a11.25 11.25 0 0 1 3.93 2.81c2.22 2.46 4.58 4.82 6.62 7.42 3 3.89 7.71 6.58 8.9 11.87 0 .17.26.29.4.44 1.06 1.18 2.19 2.31 3.17 3.56.75 1 1.26 1 2.17.13 2.55-2.41 5.19-4.73 7.8-7.08 2-1.82 2.08-1.86.19-3.79-1.18-1.21-1.89-3-3.65-3.48a6 6 0 0 1 -3-1.87l-14.48-16.09a4.63 4.63 0 0 1 -1.4-2.36c-.46-3-3.17-4.25-4.71-6.4-.07-.1-.22-.14-.43-.27zm-26.17 163.73c-4.36 0-8.12-.07-11.88 0a2 2 0 0 1 -2.34-1.67c-1-3.57-2.21-7.08-3.48-11.09-1.23 3.78-2.46 7-3.3 10.33-.51 2-1.44 2.54-3.42 2.44-3.47-.18-7-.05-11-.05 3.6 2.67 6.68 5 9.85 7.28a1.8 1.8 0 0 1 .77 2.45c-.95 2.68-1.83 5.39-2.7 8.11a6.58 6.58 0 0 0 -.67 3.13c3.07-2.26 6-4.31 8.79-6.54a2.24 2.24 0 0 1 3.35 0c2.82 2.25 5.78 4.31 8.69 6.45a93.34 93.34 0 0 0 -3.2-11.15 1.84 1.84 0 0 1 .79-2.47c3.12-2.22 6.18-4.6 9.75-7.22zm15.14 77c0 .65-.51.9-.88 1.23-2.07 1.87-4.15 3.72-6.22 5.6-3.48 3.16-3.43 3.14-.76 7 .68 1 1.15 1.07 2.19.57 4.42-2.1 8.9-4.09 13.36-6.11 3.32-1.51 3.28-1.46 1.26-4.47-.67-1-1.14-1.08-2.17-.5-3.47 1.94-7 3.76-10.52 5.6-.42.22-.8.76-1.46.38 0-.71.58-1 1-1.34q3.59-3.17 7.19-6.29c2.85-2.47 2.82-2.44.65-5.63-.61-.89-1-1.08-2-.54-3.55 1.94-7.14 3.78-10.73 5.63-.58.29-1.11.94-2.2.42l9.1-7.79c2.73-2.32 2.68-2.29.59-5.29-.7-1-1.08-1-1.89-.14q-4.77 4.8-9.69 9.47c-3.67 3.48-3.67 3.43-.62 7.48.65.87 1.17.69 2 .29 3.31-1.69 6.63-3.33 10-5 .51-.23 1-.8 1.8-.57zm184 74.9c-1.15-.46-1.17-1.14-1.4-1.64-1.39-3.08-2.73-6.18-4.09-9.26-1.44-3.25-1.42-3.17-4.9-2.05-1.26.4-1.16.81-.65 1.76 2.13 4 4.18 8 6.27 11.95 2.35 4.46 2.34 4.43 7.05 2.73.92-.32 1-.68.84-1.58-.61-3-1.16-6-1.6-9-.19-1.27-.82-2.56-.23-4.45 1.61 3.35 3 6.24 4.38 9.13 2 4.27 2 4.22 6.5 2.74a1.41 1.41 0 0 0 1.15-1.86c-.86-6-1.67-12-2.51-18.18-1.34.44-2.51.9-3.73 1.19-.85.2-1.07.59-.9 1.4.64 3 1.34 6.08 1.85 9.16.24 1.45 1 2.9.45 4.89-.52-1.05-.87-1.68-1.17-2.33-1.58-3.42-3.16-6.84-4.7-10.28-.37-.83-.62-1.23-1.72-.89-3.8 1.16-3.82 1.09-3.1 5.05.08.39.15.78.23 1.17.67 3.45 1.32 6.76 2.01 10.39zm-82.65 7.5a11.85 11.85 0 0 0 2.83-.29c4.53-1.34 7.51-7.28 6.42-12.69a6.86 6.86 0 0 0 -4.75-5.62c-2.51-.79-5.16-1.18-7.75-1.74-.71-.16-1 .08-1.2.86q-1.62 8.6-3.34 17.17c-.13.65-.13.95.62 1.07 2.52.41 4.94 1.17 7.2 1.28zm-43.63-14.22c.14-1.47.28-2.65.38-3.84s.13-2.52.23-3.77c0-.62-.09-1.23.94-1.41a5.7 5.7 0 0 0 5.2-5.12c.46-2.74-1-4.59-3.16-5.91s-4.32-2.31-6.4-3.59c-1.12-.68-1.54-.31-2.07.69-2.26 4.27-4.58 8.5-6.88 12.75-1.67 3.08-1.65 3 1.45 4.72 1 .55 1.58.63 2.08-.6a25 25 0 0 1 2-3.67c.27-.45.26-1.47 1.32-1a1.53 1.53 0 0 1 1.12 1.8c-.24 1.77-.32 3.57-.52 5.34-.08.71-.1 1.32.63 1.7zm236.94-81c-2.38-.19-4.54-.38-6.7-.54-1.43-.1-2.79-.16-2.54-2.25.1-.8-.53-1.48-1.08-2.06-2.81-2.94-7.12-2.75-9.4.61-1.59 2.34-2.82 4.92-4.28 7.36-.48.81 0 1 .54 1.28q7.56 4.19 15.08 8.4c.44.24.79.59 1.33 0 2.31-2.71 2.15-3.79-.91-5.49a18.4 18.4 0 0 1 -1.9-1.05c-.45-.33-1.46-.33-1-1.35.35-.78.73-1.29 1.77-1.12 1.83.3 3.69.38 5.53.61a1.31 1.31 0 0 0 1.6-.78c.61-1.17 1.28-2.29 1.99-3.58zm-21.76 33.33a28.9 28.9 0 0 1 2.17-2.53c1.08-1 .82-1.59-.23-2.44-3.81-3.09-7.55-6.27-11.3-9.44-2.31-2-2.23-1.92-4.22.29-1.08 1.19-1.46 2 .2 3 1.12.67 2 1.72 3.08 2.5s1.09 1.32.19 2.32c-1.76 2-1.69 2-3.69.32l-1.23-1c-2.71-2.26-2.68-2.24-4.91.48-.72.87-.84 1.32.17 2.13 3.82 3.08 7.53 6.29 11.29 9.45 2.51 2.11 2.45 2.06 4.64-.39.91-1 1-1.65-.15-2.46-1-.68-1.85-1.51-2.77-2.27-2.31-1.91-2.27-1.87-.24-4.15.73-.83 1.18-.68 1.89-.05 1.67 1.44 3.38 2.81 5.14 4.28zm-298.31-35.72c5.24-3.64 10.34-7.19 15.47-10.71.66-.45.84-.81.46-1.6a40.08 40.08 0 0 1 -2.06-4.93c-.47-1.43-1.2-1.74-2.63-1.44-4.59 1-9.21 1.86-13.82 2.75-4.21.81-4.19.78-2.23 4.68.33.64.67 1.06 1.33.73 2.08-1 2.8 0 3.55 1.83.64 1.56.67 2.49-1 3.2-.48.2-1.35.39-.82 1.42.65 1.28 1.14 2.64 1.75 4.07zm184.48 99.5a17.72 17.72 0 0 1 2.58-.29c1.4 0 1.67-.39 1.19-1.76-1.85-5.37-3.61-10.78-5.32-16.2-.31-1-.77-1.2-1.69-1.06-1.84.26-3.68.56-5.53.64-1.19.06-1.52.44-1.61 1.62q-.56 7.14-1.36 14.25c-.5 4.36-.34 4.55 4 3.68.64-.13 1.08-.37.95-1-.55-2.65 1.2-2.76 3.06-3 1.41-.16 2.24.09 2.41 1.69.06.69.06 1.82 1.32 1.43zm-156.47-62.71c1.09.58 1.63 1.77 2.53 2.6.67.61.82 1.25.06 1.81-1.8 1.34-1 2.48.19 3.64a7.44 7.44 0 0 1 1.06 1.18c.54.78 1 .68 1.48 0q5.28-7.11 10.6-14.17c.38-.51.62-.91.05-1.51-1.5-1.59-2.93-3.25-4.36-4.9a.91.91 0 0 0 -1.34-.27c-5.22 3-10.46 6-15.69 8.95-.27.16-.93.28-.5.81a17.36 17.36 0 0 0 2.93 3.22c.83.6 1.54-.68 2.35-1 .19-.12.36-.22.64-.36zm87.09 58.51c.66-6.38 1.27-12.5 1.93-18.62.1-.9-.17-1.26-1.06-1.5a55.22 55.22 0 0 1 -5.47-1.75c-1.13-.43-1.61 0-2.14.94-2.46 4.53-5 9-7.53 13.52-1.39 2.48-1.35 2.39 1.43 3.41 1.53.56 2.61.68 3.08-1.18.29-1.13 1-1.2 2-.83a12.81 12.81 0 0 0 2.07.67c.91.17 1.32.62 1 1.51-.72 2.12.46 2.78 2.25 3.08a23.29 23.29 0 0 1 2.44.75zm127.84-14.23c-2.68-3.59-5.22-7.07-7.84-10.49-1.36-1.77-2.32-4.74-4.2-5s-4.17 1.62-6.28 2.56l-.37.14c-.62.23-.7.65-.56 1.26 1.46 6.12 2.89 12.25 4.35 18.46a22 22 0 0 1 3-1.35c1.57-.46 2-1.31 1.26-2.73-.54-1.07-.24-1.69.91-2a10.77 10.77 0 0 0 2-.94c.76-.44 1.38-.47 1.75.44.82 2 2.09 1.88 3.64.84a19.62 19.62 0 0 1 2.34-1.19zm-177.9-25.35c3.17-3.86 3-4.77-1.09-7.46a10.74 10.74 0 0 0 -1.93-1 5.69 5.69 0 0 0 -7.25 7.95c.38.77.84 1.5 1.21 2.27s.8 1.8-.06 2.56-1.87.37-2.73-.21a8.88 8.88 0 0 1 -2.74-3.7 29.19 29.19 0 0 1 -1.92 2.38c-1 1-.87 1.89 0 2.88 1.81 2 3.83 3.68 6.59 4.12a5.55 5.55 0 0 0 5.54-2.32 4.91 4.91 0 0 0 .46-5.75c-.49-.93-1.08-1.81-1.58-2.74a1.66 1.66 0 0 1 .14-2 1.79 1.79 0 0 1 2.19-.28c1.56.49 2.35 1.84 3.17 3.3zm195.57-3.25c-.74-1-1.39-1.87-2-2.75a1.21 1.21 0 0 0 -1.67-.57 11.49 11.49 0 0 0 -5.75 4.39 5.64 5.64 0 0 0 5.06 8.7c1.18-.12 2.35-.42 3.53-.57.93-.12 1.95-.22 2.36.92s-.28 1.75-1 2.4c-1.18 1.06-2.76 1.15-4.35 1.68.77 1.07 1.49 2 2.15 3a1.1 1.1 0 0 0 1.49.51 11.23 11.23 0 0 0 6.54-5.19 5.49 5.49 0 0 0 -.75-6.48 4.93 4.93 0 0 0 -5.71-1.67c-.76.22-1.53.4-2.31.56s-1.77.14-2.23-.82.11-1.66.69-2.31c1.02-1.12 2.43-1.36 3.95-1.8zm33.77-43.86a3.41 3.41 0 0 0 -.58.54c-1.67 2.39-3.3 4.8-5 7.18-.52.73.07.92.48 1.2 4.73 3.28 9.48 6.53 14.21 9.83.69.49 1.07.48 1.55-.25 1.51-2.26 3.06-4.49 4.62-6.71.4-.57.51-.9-.15-1.45-2.32-1.9-2.36-1.93-4.09.58-.3.44-.59.88-.91 1.3s-.42.75-.9.42a8.65 8.65 0 0 1 -2.51-1.88c-.4-.58.64-1.27 1-1.93a11.69 11.69 0 0 1 .9-1.31c.26-.33.16-.53-.08-.83-1.57-1.91-2.89-1.88-4.28.14a6.88 6.88 0 0 0 -.44.66c-.43.84-.87.8-1.7.35-1.7-.91-2.2-1.86-.67-3.34a2.72 2.72 0 0 0 .56-.82c.25-.56 1.26-1 .72-1.64a16.05 16.05 0 0 0 -2.73-2.04zm13.6-26.93-.25.59-3.58 8.19c-.28.66.28.81.66 1 5.34 2.34 10.69 4.64 16 7 .74.32 1 .22 1.32-.5 1.08-2.56 2.24-5.09 3.34-7.64.18-.4.34-.75-.23-1.16-2.06-1.52-3-1.32-4 .95-.23.54-.51 1.08-.72 1.63-.16.39-.31.7-.82.7-2 0-3.18-1.61-2.25-3.36.83-1.55.89-2.43-1.08-3.12-1.4-.49-1.92-.35-2.43 1-.3.81-.25 2.19-1.53 2.23-1.93.05-2.75-1.35-2-3.1a2.66 2.66 0 0 0 .36-.91c0-.76 1.6-1.51.08-2.27-.81-.41-1.69-.7-2.87-1.23zm-204.41 90.13c.15-.87-.36-.9-.68-1-2.49-1.07-5-2.06-7.47-3.2-1.07-.5-1.24.13-1.53.83-2.21 5.23-4.4 10.47-6.66 15.68-.34.8-.23 1.13.55 1.45 2.5 1 5 2.11 7.48 3.15.45.19.88.46 1.33-.21 1.48-2.18 1.3-3-1.05-4-.48-.21-.95-.45-1.45-.62-.76-.25-1-.55-.69-1.44 1-2.68.92-2.71 3.5-1.61.37.16.74.29 1.1.46s.63.23 1-.21c1.55-2 1.31-3.25-1.09-4.12-1.46-.53-1.71-1.13-1.11-2.59s1.28-1.57 2.46-.81a3.61 3.61 0 0 0 1.09.46c.67.18 1.54 1 1.91.55a10.63 10.63 0 0 0 1.31-2.77zm130.87-8c2.13 1.65 4.24 3.44 6.51 5a17 17 0 0 1 5.52 6.34c1.56 3 1.63 2.84 4.6 1.19 1.29-.72 1.26-1.33.52-2.4a18.86 18.86 0 0 1 -3.71-9.66c-.14-2.18-.56-4.33-.87-6.5-.06-.43-.14-1.29-.44-1.17a29.67 29.67 0 0 0 -3.49 1.82c-.73.42-.37 1.07-.25 1.6.49 2 1 4 1.62 6.26-1.58-.39-2.17-1.52-3-2.3-3.26-3-3.24-3-6.9-.53-.04.08-.04.17-.11.4zm-177.22-20.19c-2.85-3.73-2.83-3.7-6.74-1.43-1.07.61-2 1.69-3.6 1.59 1-2 2-3.91 2.94-5.78.21-.39.69-.82.31-1.24-1-1.07-1.89-2.4-3.23-2.77-.48-.13-.86 1.69-1.25 2.63-.7 1.71-1.47 3.41-2 5.17a15.63 15.63 0 0 1 -4.32 6.74c-2.52 2.46-2.42 2.47.18 4.87.87.8 1.4 1 2.17 0a21.64 21.64 0 0 1 10.14-7.29c1.85-.69 3.6-1.65 5.4-2.49zm82 36.91c.3 1 .61 2 .88 3 1.22 4.55 3.35 8.89 2.29 13.89-.57 2.68-.24 2.61 2.5 3 1.95.25 2.56-.44 2.52-2.27a17.18 17.18 0 0 1 2.6-9.59c1.14-1.86 2-3.87 3-5.83.18-.37.89-1-.08-1.19a11.94 11.94 0 0 0 -3.94-.22c-.83.14-.75 1.43-1.13 2.17-.78 1.51-.93 3.34-2.32 4.93-.32-1.47-.59-2.62-.81-3.78-.82-4.3-.81-4.3-5.17-4.19zm133.59-39.61c.27.29.53.58.8.86 2.61 2.64 5.21 5.28 7.83 7.91 2.09 2.11 2 2 4.2.07 1.37-1.2 1.2-1.9 0-3-2.87-2.75-5.61-5.64-8.42-8.44-.64-.64-1-1.06-.15-1.9 1.78-1.83 1.61-2.51-.52-4.1-.53-.4-.74-.23-1.1.13-2.48 2.48-5 4.89-7.46 7.43-1.36 1.42.62 1.74 1.08 2.54s1 1.22 1.77.23a4.62 4.62 0 0 1 1.95-1.73zm-70.64 54.44c-.14-3.11-.47-3.38-3.37-2.74a.7.7 0 0 0 -.19.06c-1.67.68-2.26-.07-2.54-1.69-.52-3.06-1.19-6.1-1.85-9.14-.83-3.86-.85-3.83-4.65-2.94-.85.2-1 .45-.84 1.33 1.2 5.56 2.33 11.14 3.47 16.72.17.79.41 1.3 1.43 1.06 2.57-.6 5.17-1.11 7.77-1.62.59-.13 1-.32.75-1.04zm-195.16-83.33a11 11 0 0 0 2.88-1.7c.62-.66-.52-1.4-.76-2.16a1 1 0 0 0 -.17-.35c-1.14-1.39-.9-2.27.79-3.07 2.86-1.36 5.61-3 8.4-4.46 3.44-1.85 3.4-1.83 1.32-5.21-.48-.77-.8-.79-1.54-.39q-7.56 4.14-15.18 8.17c-.77.4-.87.76-.45 1.51 1.3 2.3 2.51 4.65 3.8 7 .12.23.12.84.91.66z"/><path d="m355.63 238.68-.18.24-.05-.23h.26z"/><path d="m216.07 119.32c1.21-.39 1.83.67 2.3 1.29 1.43 1.9 3.39 3.11 5.23 4.5a4.73 4.73 0 0 1 2 4.17c-.92-1-1.26-2.45-2.73-3.16.45 3 .75 5.95 1.37 8.81.58 2.7.36 5.09-1.51 7.22a3 3 0 0 0 -.59 3c.64 2 1.44 3.9 2.35 6.3 1-2.09 3-3 3.11-5.12.27-5.78-1.21-11.36-2-17a3.65 3.65 0 0 1 2.06 3.22c.45 4 1.68 7.87 1.33 12l.48.15c2-2.37 3.95-4.73 5.9-7.11q15.16-18.46 30.33-36.94c1-1.24 2-2.34.23-4.23 1.76.53 3-1 4.3.27.64.63 2.19.93.92 2.32 1.54 2.91-1.23 4.21-2.45 5.88-11.75 16.07-24.31 31.53-36.47 47.3-1.29 1.67-2.55 3.22-.72 5.35.4.46.27 1.4.33 2.13.59 7.8 1.79 15.56 1.74 23.41a8.57 8.57 0 0 0 .45 2.94c2.4 6.79 2 13.89 1.82 20.87-.08 2.62-1.06 5.89-4.39 7.05-.62.21-.93.48-.77 1.12s.79.52 1.29.44a6.81 6.81 0 0 1 6.36 1.64c1.65 1.52 1.6 3 1.46 4.8s-1.47 2.43-3 2.76c-4.69 1.07-8.83 2.55-8.8 8.59a10 10 0 0 1 -1.44 5.1c-2.32 3.5-1.11 7.82-3.19 11.3-.58 1-.61 2 1.11 2.44 2.22.62 4.47 1.37 5.5 4 .64 1.66 1.7.31 2.13-.39 2.06-3.43 5.18-5 8.89-6.21a40.61 40.61 0 0 1 9.52-1.6 6.21 6.21 0 0 1 4.23 1.25 2.08 2.08 0 0 1 .92 2.42 2 2 0 0 1 -1.87 1.52 42.62 42.62 0 0 1 -4.36.24c-3.63-.28-6.69 1.45-9.87 2.69a5.42 5.42 0 0 0 -3.43 3.64 1.66 1.66 0 0 1 -.34.72c-3.22 3.33-2.33 6.88-.84 10.65s1.23 8.06 1.72 12.1c.23 1.87-1 3.14-2.88 3.77-3.58 1.24-3.52 1.27-3 5a73.31 73.31 0 0 0 2.9 12.58 24.86 24.86 0 0 1 1.33 8 21.61 21.61 0 0 0 1.77 8.88 16.93 16.93 0 0 1 1.07 4.41c.29 2.28 1.11 4.37 3.7 5.15a4.16 4.16 0 0 1 2.07 1.13 4.58 4.58 0 0 1 -4 .34c-4.56-1.33-9.13-2.58-13.71-3.87-.45 1.48.37 1.91 1.51 2.17 3.68.84 7.35 1.71 11.05 2.58-.07.61-.58.62-1 .72-3.8.9-7.61 1.76-11.41 2.68-1.09.27-1.39-.05-1.34-1.14.07-1.52-.05-3 0-4.57 0-1-.27-1.37-1.34-1.37q-19.42.1-38.84.08c-1 0-1.41.3-1.35 1.34.11 1.92.08 3.85.19 5.77.06 1-.25 1.25-1.24 1.1a106.34 106.34 0 0 1 -17.91-4l8.85-2q3.87-.85 7.76-1.66c.84-.18 1.59-.41 1.25-1.52s-1.14-.37-1.59-.26c-5.73 1.39-11.45 2.8-17.14 4.32-2.34.62-4.1-.07-6.22-1.17-2.91-1.51-6-3.19-9.48-3.14-.17-3.68 2.29-6.47 3.57-9.91-1.77.53-2.09 1.88-2.6 3s-1.11 1.26-2.41 1.26c-5 0-7.83-2.41-9-7.2a28.5 28.5 0 0 0 -1.86-4.61c-.67-1.52-.49-2.41 1.38-2.82 4.27-.94 8.5-2.09 12.76-3.08 1.24-.28 2-.86 1.69-2.13-.62-2.56 1.19-3.14 2.93-3.74a10.45 10.45 0 0 1 2.91-.63c1.44-.08 1.78-.82 1.6-2.07a12.37 12.37 0 0 1 1.79-8c1.19-2.15 1.22-4.62 1.12-7a34.58 34.58 0 0 1 1-8.06c.24-1.21.44-2.53 2.27-2.33.55.06.87-.53 1.1-1 1.12-2.36 2.94-4.42 2.73-7.33-.06-.76.57-1.59.92-2.37 1.39-3.15 1.74-6.59 2.7-9.82 1.1-3.68.61-7.63 2.74-11.2 1.25-2.07.85-5.13 1.18-7.74 0-.25-.23-.69-.39-.54-1.24 1.13-3.19-.08-4.39 1.81-3.65 5.69-5.88 12-8.53 18.12-2.56 6-5.63 11.71-7.47 18a5 5 0 0 1 -.95 1.73c-.78 1-1.52 1.1-2.46.12a30.31 30.31 0 0 0 -6.33-5c-1.35-.82-.7-2.2-.16-3.21 1.26-2.34 2.76-4.54 4-6.87 4.86-9.09 11-17.37 16.37-26.11 1.84-3 2.63-6.55 4.66-9.51.45-.66.54-1.68-.86-1.84a1.71 1.71 0 0 1 -1.3-1.09c.57-.54 1.29.62 1.87-.31-.62-.81-1.31-1.4-2.5-.86-.39.18-1 .43-1.28 0a1.15 1.15 0 0 1 .14-1.1c1.8-1.89 2.73-5 6.15-4.68 1 .09 1.46-.6 1.88-1.21.59-.87-.43-1.13-.85-1.46-2.58-2-3-4.64-.88-7.81 1.59-2.4 2.65-5.17 4.56-7.41.62-.71.17-1.25-.39-1.66a120.37 120.37 0 0 1 -10-8.21c-4.05-3.63-8.25-7-10.22-12.42-.71-1.95-1.8-3.77-2.38-5.83-.5-1.77-2.17-2.79-3.44-4.06 2.36-1.11 2.92-3.45 3.06-6.24.07-1.52.1-3.9 2.09-4.92a4.68 4.68 0 0 0 2.36-3.41 91 91 0 0 1 4.54-13.36c1.26-2.85 3.35-5.22 4.74-8 1.5-3 3.05-6.11 5.72-8.4.64-.55 1.07-1.4 2.12-1.19-4.09 4-5.62 9.53-8.5 14.25a31.69 31.69 0 0 0 -3.48 9.85c-.64 3-.31 6.33-2.48 8.92a.62.62 0 0 0 -.11.17c-.34.94-.44 1.69 1 1.56 1-.08 2 0 3 0 .7 0 1.42 0 1.82.9-3 .71-6 .33-9.34 1 3.58.79 6.53 1.63 9.7.37a4.37 4.37 0 0 1 4.67.78 1.23 1.23 0 0 0 1.6.23 2.35 2.35 0 0 0 -1.8-1.91c-1.47-.47-2.3-1.2-.52-2.48-.87-.29-1.36.24-1.94.52s-.86.76-1.39.15c-.3-.34-.75-.61-.68-1.15.11-.79.83-.83 1.36-.91 1.24-.21 2.5-.28 3.75-.43.43-.05 1 .24 1.25-.3.66-1.64 1.84-3 2.12-4.88.63-4.27.89-8.57 1.29-13.35.25 1.08.48 1.51 1.26 1.38a1.22 1.22 0 0 0 1.06-1.25 17.65 17.65 0 0 0 .2-3.76c-.24-2.43 1.16-3.93 2.77-5.43.07 6.87-2.89 13.26-3.08 20.06-.13-1.29-.19-2.57-.33-3.84-.06-.51.4-1.39-.52-1.44s-.73.92-.81 1.49c-.21 1.45-.32 2.9-.49 4.35-.45 4-.94 8-1.35 12.06 0 .46-.35 1.3.63 1.38a1.22 1.22 0 0 0 1.47-.91c1.52-4.16 3.25-8.32 3.42-12.76.18-4.69 1.64-9.24 1.27-14 0-.43-.32-1.22.55-1.18.64 0 .46.69.49 1.12.07 1.13.12 2.27.18 3.4a10.23 10.23 0 0 0 .7-2.27c.14-.59-.17-1.59.68-1.64 1.13-.08 1-.92 1.17-1.5.51-2.31-1.11-5.81-3.16-7.08-.38-.23-.89-.44-.88-1s.63-.54 1-.76c.76-.43 1.64-.22 2.56-.48-.49-.45-.67-1.35-1.4-.6a2.8 2.8 0 0 1 -2.18.71 39.54 39.54 0 0 0 -6.52.61c.17-1.08.94-1.49 1.89-1.7l5.43-1.21c1.32-.29 2.44-.75 2.32-2.42a1.55 1.55 0 0 1 .17-.57c.52-1.45 1.53-2.68-.23-4.33-1-.93-.62-3.07-.16-4.59.4-1.3.18-1.9-1.13-2.37-4-1.44-5.54-4.43-5.2-8.77.39-5 2.85-9.16 5.32-13.09a20.46 20.46 0 0 1 13.9-9.67 24.78 24.78 0 0 1 13.12.9c1.65.6 3.38 1 5.07 1.5a7.72 7.72 0 0 1 4.75 3.34 60.81 60.81 0 0 0 4.74 6.26c2 2.52 1.65 5.45 1.18 8.32a8.7 8.7 0 0 1 -6.37 7.37c-2.74.86-4.12 2.46-3.32 5.49a11.68 11.68 0 0 1 .1 2.78c0 2.9-1.42 4.71-4.36 5.12-1.88.26-2.62 1.86-3.64 3a2.11 2.11 0 0 0 .81 2.95c1.29.7 2.29 1.84 3.56 2.46a4 4 0 0 1 2.44 3.86c-.53-.11-.9-1-1.5-.51s-.27 1.06-.12 1.65c.57 2.3 1.13 4.6 1.62 6.92a1.32 1.32 0 0 0 .94 1.11c.65.22.76-.39 1-.71.53-.68.95-1.44 1.51-2.08.75-.87.77-1.47-.2-2.24a11.48 11.48 0 0 1 -3.26-4.17zm-26.29-28.55c-2.09.27-3.38 2.43-2.88 5.2a11.94 11.94 0 0 1 2.84-5.24c1.55.4 2.22-.52 3.06-2.2a9.7 9.7 0 0 0 -3.02 2.24zm-38.08 227.4 4.83-8.1a35.74 35.74 0 0 1 1-4c.57-1.56.35-3.14.41-4.71 0-.52-.08-.81-.73-.89-2.5-.34-3.52.44-3.66 2.92-.16 3-.26 3.15-3.22 3.61a114.09 114.09 0 0 0 -11.86 2.36c-1 .26-1.28.57-1.12 1.74.42 3.24 2.73 5.5 3.93 8.33.32.77 1 .85 1.58.2a24.87 24.87 0 0 0 2.4-2.64 22.13 22.13 0 0 1 8.9-7c.45-.22.83-.42 1.23.05-1.36 2.62-3.43 4.87-4.11 7.85-.14.22-.26.47 0 .64.08-.03.28-.26.42-.36zm42-222.3.43.29c.64 1 1.17.26 1.68-.12a1.25 1.25 0 0 0 .64-1.33c0-.1-.32-.21-.46-.18-.95.22-1.08-.27-1-1.06s-.42-.44-.79-.32c-1.59.5-4.33 4.15-4.44 5.91 1.46-.83 1.99-2.88 3.92-3.19zm8.82 215.29c-.92.35-1.85.68-2.75 1.07s-1.32 1.12-.76 1.71c.72.75.2 1.42.34 2.1.2 1-.71 2.86 1.67 2.3.36-.09.49.2.45.46-.19 1.48 0 3.05-.87 4.39-.23-.38.25-1.1-.63-1.18a1.35 1.35 0 0 0 -1.32.61 3.69 3.69 0 0 0 -.46 2.44c0 .48 0 .91.68.89s.77-.31.86-.83c.12-.7-.17-1.6.85-1.92.31.09.38.29.31.59-.15.66-.86 1.56-.1 1.95a2.43 2.43 0 0 0 2.65-.33c-1.53-1.16-1.57-2.68-1.45-4.31.25-3.32.86-6.63.51-10 .15.11.29.2.31-.1zm8.42-36.6-5.26-2.28c-1.2-.52-1.77.41-2.51 1a1.45 1.45 0 0 0 -.53 1.76c.3.64 1.33 1 1.72.66 2.08-1.6 3.8.25 5.67.43a6.14 6.14 0 0 0 2.93-.43c.37-.15.7-.22.7-.77 0-2.48-.2-2.71-2.82-3.06-.63-.09-1.28-.1-1.92-.15l-.05.21 3.45 1.15c-.22.67-1.28 0-1.11.89zm-35.73-8.64c.69-.14 1.64 2.32 2.15-.2a3.78 3.78 0 0 1 .91.09c.48.11.88.58 1.42.24l-1.95-2.12.2-.45c1-.07 1.88.55 3.11.13l-2.92-1.48c1.13-1.57-1.53-1.09-1.18-2.3h1.17l1.41-.06a7.69 7.69 0 0 0 -4.4-2.08c-1.4.05-.57 1.46-1.24 1.92a4 4 0 0 1 -.84.44c-.43.15-.83.44-.61.85.51 1-.18 1.59-.5 2.33-1.28 2.95-.58 4.83 2.36 6.12.34.15.78.68 1.19 0 .26-.4.52-.77 0-1.19s-.44-1.21-.56-1.84zm45.49-73.92-.29-.47c.75-1.68 1.53-3.35 2.25-5.05.16-.39 1-.84.22-1.27s-1.08.14-1.38.73c-.68 1.28-1.41 2.53-2.06 3.83-.76 1.54-1.46 3.11-2.19 4.66a1.67 1.67 0 0 1 -.35-1.32c.71-3.15 1.19-6.4 3.65-8.82.43-.42 1-.93.64-1.51s-1.25-.39-1.8-.22c-1.65.51-2.3 2-2.66 3.44-.89 3.59-1.77 7.19-2.4 10.83-.47 2.76-1 5.6.19 8.35-.39 1.19-1.2 2.26-1.07 3.66a8.76 8.76 0 0 0 2.2-.43c1.79-.41 3-2 4.77-2.35l.22.45a45.12 45.12 0 0 1 -7.41 6.17c-2 1.45-2.47 3.58-.77 5.1.46.41.51.76-.17 1-.06 0-.14 0-.2 0a3.07 3.07 0 0 0 -2.47 3.05c-.25 2.9-1.6 5.65-1.39 8.64-.07-.17-.13-.37-.33-.1l.33.08a123.17 123.17 0 0 1 9.59-7.85 2.48 2.48 0 0 1 -1.14 2.72c-1.84 1.61-3.63 3.27-5.63 4.71s-3.28 3.13-2.78 5.79c2.87-1.17 4.95-3.5 8-4.12 2.51-.51 5-.21 7.52-.3.78 0 1.33 0 1.49-1 .76-5 1.6-10 1.3-15.24-1 .13-1.93.78-3.24.13l2.46-2.13c1.45-1.27 1.45-1.27 1.11-2.7l-2.67 1.7-.63-.35a20.31 20.31 0 0 1 2.54-2.21c1.36-.86 1.3-2 1-3.26-.28-1.06-.63-1.4-1.49-.37-1.31 1.59-2.86 3-4 4.66-1.44 2.09-3.82 2-5.74 3a7.32 7.32 0 0 1 1.81-1.71 39.91 39.91 0 0 0 6-5.49c4.53-5 3.57-7.49 1.14-13.1a12 12 0 0 0 -1 1.72c-1.77 4.41-5.4 7.22-8.76 10.25-.19.17-.32.12-.46 0-.05-.93.74-1.33 1.25-1.86a66.22 66.22 0 0 0 7.64-10.05 5.25 5.25 0 0 0 .05-6.29 30.57 30.57 0 0 1 -2.89 4.9zm-8.11-118.67a16.2 16.2 0 0 0 5.41 1.76 1.75 1.75 0 0 1 1 .53c2 1.83 4.07 3.62 6.14 5.44.25-.66-.12-1.08-.31-1.57-.94-2.54-3.05-4-4.88-5.86a19.31 19.31 0 0 0 -15.18-6c-1.65.08-3.31.07-5 .14a14.94 14.94 0 0 0 -7 2.33c-1.52.88-2.3 2.58-3.78 3.38-2.62 1.4-2.73 4.18-4.38 6.67a5.36 5.36 0 0 0 3.09-1.82c2.16-3 5.29-3.64 9-3.49-1.06-1.2-2.52-.9-3.48-2 7.45-2.85 14 0 21.06 3.16-.77-1.28-1.74-1.43-2-2.27zm0 94.39a4.9 4.9 0 0 1 -.47.84q-5.7 7-11.42 14.06c-1.29 1.6-2.55 3.24-3.93 4.76-.81.9-.51 1.56.19 2.18.9.79 1-.35 1.37-.7.94-1 1.77-2.15 2.64-3.24l62.43-77.52c.55-.69 1-1.48 2.17-.92-.58-.67-1.15-1.35-1.76-2.07-.4.47-.71.81-1 1.17q-24.25 29.81-48.52 59.59c-.33.41-.38 1.34-1.32 1-.28-.13-.31-.36-.29-.64a7.66 7.66 0 0 1 .78-2.94c.53-1.15-.15-2.86-.3-4.32a26.91 26.91 0 0 0 -1.81 8.3c-.11.89.84.13 1.21.45zm5.34 3.82c-5 6.31-9.91 12.64-15 18.89-1.23 1.52-2 3-1.6 5 .12.56.54 1.6-.49 1.85s-1.15-.85-1.5-1.49a12 12 0 0 1 -.69-1.65c-.21-.62-.6-.61-1.16-.33.45 1.16 1.81 2.39.88 3.55s0 1 .43 1.23a65.88 65.88 0 0 0 7.63 2.81c1.18.43 1.54 0 2.11-.95 3.29-5.33 5.07-11.28 7.21-17.09 1.39-3.76 1.21-7.83 2.36-11.64.33-.1.42-.45.23-.57s-.27.27-.44.39zm-13-91.9c.19-1.67-.62-2-2.2-2.18-2.3-.19-4.16 1.13-6.29 1.39a4.64 4.64 0 0 0 -3.17 2.07 6.56 6.56 0 0 1 4.69.24c2.48 1.18 5.29 1.81 7-1.53a1.19 1.19 0 0 1 -.05 1.39c-.7 1.15-.06 1.43 1.16 1.51-1.37 1.15-2.12 2.69-4.27 2.29.81.5 1.79.52 1.51 1.53s-.91 2.53-2 2.52c-2.5 0-2.42 1-1.1 3-1.66-.53-2.68-.93-2.74-2.42 0-.42.17-1-.56-1-.46 0-1-.11-1.35.13-.52.41 0 .93.14 1.41.35 1.24 1.62 1.72 2.25 2.74s1.09 1.74 2.33.8c.7-.53.68.26.85.6 2 3.87 3.53 7.9 8.8 8.6 2.61.35 4.48.31 6.39-1.83a3.63 3.63 0 0 0 -2.1-.46c-.58 0-1.51.52-1.63-.47s.79-1.29 1.54-1.55 1.61.22 2.21-.61c-1-.74-2-1-3 0a2.17 2.17 0 0 1 -1.84.57 1.21 1.21 0 0 1 -.65-.34.46.46 0 0 1 .19-.68c1.33-.37 2.1-2.26 3.91-1.41a.92.92 0 0 0 1.2-.26c-1.09-1.17-3.62-1.38-2.51-4 .5.37.94 1 1.28.91 1.15-.18 2.17-.6 3.44-.15.78.28 1-.64.54-1.36s-1.15-1.61-1.64-2.47c-1-1.81-2.1-2-3.5-.41-.73.84-1.55 1-2.23.57-1.69-1.13-4-1.48-4.89-3.71 2.43-1.43 4.55-4.39 7.88-1.27-.16-1.63-2.26-4.06-3.48-4.6a5.8 5.8 0 0 0 -6.04.44zm-2.89 228.9c-1.28-.09-.71-1-.69-1.62 0-.43 0-.81-.53-.94s-.55.36-.72.69a3.81 3.81 0 0 0 0 2.89c.34 1.29 1 1.31 1.8.5s1.8-1.3 1.6-2.68a.81.81 0 0 1 .95-1c1 .1.63.88.59 1.36-.09 1.06-.86 1.81-1.72 2.89 3.59-.07 5.53-3 8.44-3.82v2.23s.1 1.26-.79 1.34c-2 .2-3.72 1.36-5.61 1.91a2.48 2.48 0 0 0 -1.84 2.19c-.33 1.33.44 2.19 1 3.27.8-.68 1.49-1.28 2.2-1.86a2.39 2.39 0 0 1 2.09-.27c.39.07.31.55.21.85a1.91 1.91 0 0 1 -1.47 1.46 7.62 7.62 0 0 0 -1.18.16 3.76 3.76 0 0 0 -2.91 3.55c-.15 2.07 1.57 2.7 2.49 4.09.68-1.05 2-1.56 1.92-2.81s.65-2.05 1.51-2.77a15.09 15.09 0 0 1 4.62-2.44c-.05-.68-1.09-.53-1-1.28.5-.2 1.07.21 1.51-.27-.32-1-1.56-1.62-1.54-2.71.06-4-1.09-8.06.66-12a13.26 13.26 0 0 0 .57-3.3c.52-3.24.64-6.6 2.17-9.63a3.27 3.27 0 0 0 .59-1.87c-.33-2.93.69-5.79.36-8.72a7.91 7.91 0 0 1 1.39-5.83 3 3 0 0 0 -.18-4.08c.34 2.32-.66 3.61-2.68 4 0 .81 1.64.17.92 1.14-1.52 2.06-.63 4.09-.2 6.25-3.13 0-6.18.32-9.13-1.26-1.81-1-4-.61-6.05-.51-.94 0-.94.57-.44 1.17.69.84 1 2.3.6 2.76-1.37 1.46-.63 3.17-1 4.72a2.62 2.62 0 0 0 1.07 2.68 26.67 26.67 0 0 0 1.11-8.06c-.07-1 .26-1.36 1.22-1.23a11.29 11.29 0 0 1 1.77.18c3 .94 5.9 1.92 8.84 2.91.13 0 .2.26.3.41-3.08 1.45-6.18-.6-9.25.29 1.56.84 3.54.73 5 2.19-5.15.37-5.15.37-6.83 1.69.18.19.32.45.53.56 1.8.93 3.83.77 5.93 1.14a7.32 7.32 0 0 1 -3.08.55c-1.5.19-3.66-.55-4.35.45s-.16 3.06-.15 4.64a1.26 1.26 0 0 0 .19.39l9.79-1.52c-1.56-2.26 1-3.75 1-5.72-.67-.32-1.52.15-2.19-.33.71-1.71 2.36-1.82 3.63-2.68-.17 5-1 9.09-2.39 11.93a3.43 3.43 0 0 0 -2.24-.64c-2 .17-4.1.3-6.15.49-.49 0-1.29-.08-1.36.49a2.3 2.3 0 0 0 .77 2c.23.2.65.17.92.34.67.43 1.48.93 1.45 1.75s-1 .63-1.58.89c-.3.14-.65.18-.54.8h2.04 2.39c.39 0 .89 0 1 .45 0 .24-.28.54-.44.81-.72 1.31-2 1-3.17 1.12-2.58.29-3.32 1-3.33 3.12zm-21.54-53.31a22.1 22.1 0 0 0 -5.79-.1 41.15 41.15 0 0 0 10.29 3.35c-.22-2.27-1.22-4.2-1.6-6.31.89.62 1.36 1.72 2.68 1.71.43-2.38 2.11-4.56 1.88-7-.28-2.89.55-5.46 1.24-8.74.58 2.47 1 4.37 1.55 6.6 1.64-7.47 3.95-14.4 5.24-21.57.51-2.82.3-3.43-2.11-4.77-.93-.51-1.8-1.11-2.68-1.7a3.75 3.75 0 0 0 -5.6 1.08 35.5 35.5 0 0 1 -3.59 4.49c-.37.44-.88.73-1 1.43-.34 2.47-.89 4.93-1.1 7.41-.11 1.33-1.48 2.82-.67 3.68s2.56.81 3.9 1.11a1.46 1.46 0 0 1 1.18 1.6c0 .8-.83.36-1.27.51a9.25 9.25 0 0 1 -1 .23c1.47 1.58 1.69 3.72 3 5.3a.71.71 0 0 1 -.3 1c-.41.19-.55-.26-.77-.47-.72-.69-1.46-1.35-2.13-2.09a6.51 6.51 0 0 0 -2.49-1.91c-.67-.26-1.3-.34-1.68.44s.46.82.81 1.08c1.27.95 2.61 1.81 3.89 2.75 1 .76 1 .79.86 2.2-3.49-2.89-4.07-3.08-7.17-2 4.42.78 7.56 2.84 9.41 7.19-3.28-1.57-6.46-1-9.62-1.23 1.82 1.33 3.95 2.21 4.89 4.41zm15.82-121.48c.45.48.9.95 1.34 1.44 1.71 1.88 2.45 4.4 4.52 6.14 2.55 2.14 3.54 5.69 6.28 7.78h.06-.09c.48-.8-.2-1.38-.45-2-1-2.39-2.06-4.73-3.1-7.09-.15-.34-.52-1-.22-1 1.39-.11.56-.63.29-1.09-2.36-4.15-5.52-7.74-8.24-11.64a10.3 10.3 0 0 1 -1.69-3c8.67 6.4 14.06 15.16 19.2 24.43v-12.65c1.63 2.52 2 5.22 3.48 7.45-.24-2.83.67-5.76-.88-8.47-.51.32-.5 1-1.53 1 0-1.63-.1-3.27 0-4.89.16-2.19-.24-3.88-2.64-4.61a11.35 11.35 0 0 1 -2-1.3c-2.79-1.62-4.45-4.91-8-5.41-.19 0-.41-.36-.48-.59-.42-1.52-1.31-1.17-2.24-.57a4 4 0 0 1 -4.69-.11 25.08 25.08 0 0 0 -7.62-2.87c2.09 3 3.76 5.79 3.38 9.27a56.55 56.55 0 0 1 -1.05 7.87 77 77 0 0 0 -2.41 11.26c-.43 4.54-1.39 9-.38 13.64a2.64 2.64 0 0 0 1.91 2.19c2.1.74 4.14 1.65 6.2 2.49l-.12.35-8 .43c1.2 2.76 2 5.52 4.64 7.34-3.65.71-3.65.71-3.63 4.4v4.66c3.53-4.24 6.6-8 9.8-11.72a2.41 2.41 0 0 0 .45-3 74.37 74.37 0 0 1 -4.91-14.45c-.93-3.9-.74-7.85-.46-11.85 1.31 8.74 5.84 16.12 9.63 24.18l5.54-7.06c1.2-1.54 1.11-2.12-.63-2.94a4.87 4.87 0 0 1 -3.12-3.33 2.28 2.28 0 0 0 -.68-.92c-3.8-3.88-7-8.09-8-13.61zm5.77 95.61a57.92 57.92 0 0 1 -2 5.55c-2.35 5.06-2.54 11-6.53 15.4-.26.29-.19.88-.27 1.33a26.91 26.91 0 0 1 -2.06 7c-1.21 2.67-4.39 4.44-3.79 7.95 0 .15-.16.36-.3.5-2.61 2.47-2.59 6.14-4.13 9.11-.22.41-.23 1.34 0 1.52 1.81 1.26.2 2.09-.26 3.09a7.94 7.94 0 0 0 -.58 1.89 14.18 14.18 0 0 1 -1.68 4.43c-2.16 3.79-4.25 7.63-6.37 11.44a1.74 1.74 0 0 0 -.22 1.7c.31.52 1 .19 1.48.14a87.84 87.84 0 0 0 20.1-4.58c1-.36 1.56-.7 1.58-1.86.08-3.84.23-7.68.39-11.53.11-2.77 0-5.61 2.27-7.77.58-.56.41-1.36.51-2.07.36-2.56-.07-5.24.88-7.67.61-1.55 1.17-2.9.3-4.52a2 2 0 0 1 .2-1.92 8.86 8.86 0 0 0 .94-3.82c1.1-8.44.16-16.83-.46-25.31zm-42.41-65c2 .32 3.59-.18 5.12.51.41.18.68.41.64.87s-.43.48-.73.47c-2.44-.05-1.6 1.22-.89 2.3 2.38 3.64 5.67 6.54 8.85 9.34 4.24 3.74 9.23 6.62 13.91 9.86 1.1.76 2 1.54 1.3 3.06a.69.69 0 0 0 .27 1c2.11.82 3.12 2.77 4.6 4.24.65.65 1.57.86 2.09.17s-.05-1.39-.75-1.81c-1.64-1-2.66-2.55-3.82-4-.29-.35-.72-.8-.23-1.2.64-.53.84.13 1.15.56a13.74 13.74 0 0 0 3.83 3.11 1.34 1.34 0 0 0 1.67-.1c.65-.52 0-1.06-.29-1.33-1.57-1.7-2.48-4.49-5.71-3.65-.19.06-.5-.15-.7-.31a97 97 0 0 1 -7.66-6c-4.05-3.81-6.75-8.63-9.37-13.48-.36-.67-1.33-1.5-1.16-1.89.87-2-.62-1.83-1.69-2.1a36.17 36.17 0 0 0 -4.06-1c-2.05-.13-4.29-.52-6.37 1.39zm9.47 65.64c-.31.38-.66.76-1 1.18-4.57 6.41-9.51 12.54-13.36 19.46-2.18 3.92-5.06 7.43-7.16 11.42a1.83 1.83 0 0 0 .53 2.72 31.55 31.55 0 0 1 3.48 2.95c1.12 1.13 1.45.64 1.9-.55.69-1.85 1.55-3.64 2.35-5.45 3.38-7.6 5.8-15.61 9.79-22.94 1.29-2.38 2.52-4.8 3.78-7.2.34-.54.78-1.13-.31-1.59zm34.65 32c1.83 1.49 3.36.51 4.91-.19 3.16-1.44 6.3-2.94 9.82-3.34.66-.07 1.32.1 1.32-.95s-.6-1-1.28-1.12a5.42 5.42 0 0 0 -1.77-.15c-3 .75-5.86-.29-8.84-.17 3.48-2.14 7.8-2.85 10.15-6.73a23.17 23.17 0 0 1 3.67-3.89 1.36 1.36 0 0 0 .19-1.78c-1.28.86-2.47 1.79-3.77 2.52s-2.71 1.56-4.57 1.18a37.18 37.18 0 0 1 5.37-4.6 10.71 10.71 0 0 0 -6.82.05c-3.74 1.28-4.74 4.34-5 7.85 2.39-.22 4.52-3.23 7.18-.67-.12.15-.22.4-.37.45-2 .61-4.06 1.18-6.09 1.8-.59.18-1.21.2-1.51 1-1 3-.72 3.62 2.22 4.51.5.16 1 .39 1.61.64-1.21.63-2.21 1.12-3.18 1.66s-2.04 1.28-3.24 1.93zm24.82-103.77c-2.08.35-1.73 1.74-1.68 2.95.47 12 .86 23.95 2.82 35.8.62 3.76.94 7.6 2.85 11.06 1.71-3.72.49-7.51.62-11.24 0-.6-.38-.76-.84-.91-1.06-.33-1.66-.83-.72-1.92a2.14 2.14 0 0 0 .36-1.5c0-6.63-1.14-13.15-1.76-19.73-.26 2 .06 4-1 5.95-.2-6.69-.42-13.5-.65-20.42zm-5 149.23a42.26 42.26 0 0 1 .39 4.74c0 1.71.8 1.74 2 1.29 1.9-.75 3.76-1.61 5.65-2.4.55-.23.85-.51.74-1.17-.86-5.21-1.53-10.47-3.17-15.52-.25-.76-.35-1.66-1.63-1.6a1.89 1.89 0 0 0 -1.8 1.77c-.8 4.33-2.37 8.48-2.18 12.93zm-.69-171.56c0-2.68-.91-5.07-1.3-7.55-.1-.62-.28-1.56-1.14-1.24s-.33 1-.17 1.71c1.12 4.6 1.33 9.34-.5 13.66a47 47 0 0 1 -9.14 13.38c-7.35 7.92-14.82 15.76-21.29 24.45-.43.58-.83 1.19-1.24 1.79-.21.29-.32.55 0 .85a.63.63 0 0 0 1 0l.81-.88q13-14.38 25.28-29.43a42 42 0 0 0 7.25-13.92 5.1 5.1 0 0 0 .44-2.78zm-14.57-19.42c-4.19-3-7.92-5.88-11.79-8.49-1.12-.76-2.63-1.92-4-1.07-2 1.18-4.37 2-5.43 4.66a18 18 0 0 1 9.17 4.39c.59.49 1.07.18 1.63-.07 1.41-.62 2.65-1.63 4.21-2 .44 3.56.44 3.57 3.92 3 .57-.03 1.15-.16 2.29-.38zm-59.36 209.65a11.07 11.07 0 0 0 4.43 2.85c3 1 5.95 2.48 9.2.94.59-.28 1.47-.49 1.42-1.15s-1-.81-1.58-1c-1.2-.31-2.54-.3-3.36-1.48-.23-.32-.6-.59-.36-1s.66-.39 1.05-.35c1 .12 2 .65 3.06 0-1.59-1.6-3.58-2.43-5.4-3.46-1-.57-2.28-.79-3 .94-.36.92-1.8 2.35-2.05 2.21-1.93-1.07-2.17 1.06-3.41 1.5zm61.5-164-10.46 11.64-9 10.05c-.25.28-.7.52-.5 1s.67.29 1.06.34c1.34.18 2-.84 2.83-1.56a102.33 102.33 0 0 0 14.68-16.37 7 7 0 0 0 1.42-5.06zm-13.86-58.83c-.62 2.3.24 3.84 2.61 4.52a4.48 4.48 0 0 1 1.95 1.66 12 12 0 0 0 3.45 2.3c.26.14.6.49 1 0 .94-1 1.16-3.44.18-4.36a17.72 17.72 0 0 1 -4.92-7.32c-.45-1.39-1.08-1.43-2.49-.79-1.89.96-2.18 2.19-1.75 4.03zm35.66 166.77v9.57c0 .5.42 1.29-.51 1.45s-1.16-.42-1.32-1.14c-.46-2.2-1.12-4.4-.35-6.66a1 1 0 0 0 -.34-1.3c-1.92 3.15-1.84 6.6-1.67 10.05.1 2.1 1.12 2.86 3.65 2.81 2.17-.05 3.33-1.22 3.47-3.12.31-4.17-1.64-7.73-2.9-11.62zm4.49 59.68c.27-4.25-1.78-8-2.55-12-.1-.52-.42-.56-.86-.28a45.87 45.87 0 0 1 -6.1 3c-.46.21-1.13.48-1.07 1a1.61 1.61 0 0 0 1 1.13c1.78.4 3.14 1.62 4.79 2.26a3.52 3.52 0 0 1 2.51 3c.14 1.41.92 1.9 2.31 1.93zm12.23-80.36c-4.45-.52-8.23 1.59-12.09 3.23a11.25 11.25 0 0 0 -4.23 3.51c-.38.47-.59 1 .09 1.29s1.17 1.39 1.81.65c1.07-1.24 2.8-1.66 3.66-3a6.47 6.47 0 0 1 4.25-2.57c2.94-.76 6.06-.5 9-1.56.52-.2 1.31 0 1.24-.9-.07-1.07-.92-.67-1.5-.69s-1.48.08-2.2.08zm-40.94 76.19c5.09.16 9.2-3.26 14.13-3a59.34 59.34 0 0 1 -5.85-3c-1.72-.83-5.94.39-6.91 1.94a.86.86 0 0 0 -.14.56c.22 1.33-.58 2.28-1.2 3.54zm-3.87-55.81c3.76-.41 7.24.88 10.82.65.78 0 1.69.19 1.82-1s-.59-1.36-1.42-1.58c-3.44-.9-6.88-1.83-10.34-2.71-.48-.13-1.21-.63-1.45.33a1.25 1.25 0 0 0 1.05 1.74c.63.14 1.49-.16 1.86.74-.53.33-.92-.09-1.36-.13s-1-.37-1.46-.06c0 3.46 0 3.46 2 3.32-.19-.67-1.16-.47-1.49-1.26zm-37.4-116.28c1.67 1.43 3.92 1.29 5.72 2.37a9.33 9.33 0 0 1 -7.1-1.09c-2.17-1.31-4.35-1.34-6.64-1.24.27.45.9 1.27.09 1.39-1.64.24-1.88 2-3.19 2.52-.77.31-.68 1.05-.49 2l.75-.79c2.56-2.84 3.28-3 6.81-1.72.22.08.64.31.64.05 0-2 1.35-.77 1.95-.75a21.55 21.55 0 0 1 6.29.7 7 7 0 0 0 2.21-2c0-.34-.37-.3-.57-.43a7.66 7.66 0 0 0 -6.47-1.01zm54.53 162.59v3.19c0 .47.17.72.69.7s.69-.18.66-.71c-.11-1.65.15-3.4-.3-4.94-1.57-5.46-2.09-10.89-.49-16.44.16-.53.69-1.69-.76-1.76-1.27-.05-1.79.51-1.71 1.8.15 2.78.22 5.56.34 8.34.07 1.72-.2 3.57.61 5.08a7.62 7.62 0 0 1 .96 4.74zm-31.06-7.34c2.7 0 3.72-.22 3.93-1.1.76-3.18 1.45-6.38 2.19-9.63-2 .12-3.05.82-3.52 2.7-.66 2.67-1.68 5.29-2.6 8.03zm43.16 19.44c-2.95-3.93-12.41-5.16-15.83-2 5.45.58 10.7.76 15.83 2zm-54.44-53.44c-1.46-1.37-3.22-2-4.58-3.31a11.4 11.4 0 0 0 -5-2.41c-.09 2.38 2.79 2.5 3.29 4.78l-4.53-2.73a7.1 7.1 0 0 0 6.37 4.53c1.24.1 2.85-.84 4.45-.86zm16.63 38.66c-1.72 2.91-2.2 6.13-3 9.23a8.56 8.56 0 0 0 -.5 2.91c.13 1.53 1.29.74 2 .76s1.76.55 1.55-.75a37 37 0 0 1 -.07-12.15zm-13.23-103.53a4.09 4.09 0 0 0 .35-.33c1.37-1.71 2.77-3.39 4.07-5.15.39-.52 1.56-1.09.55-1.89s-2-1.44-3 0a14.06 14.06 0 0 1 -1.63 1.74c-2.4 2.55-2.4 2.55-.34 5.63zm4-14.9c1.78 1.3 3.44 2.44 5 3.71.42.35.61.68 1 .15.24-.29.39-.39 0-.86-1.52-1.81-3.91-2.71-5.06-4.88a.74.74 0 0 0 -.69-.15c-1.06.66-2.1.3-3.28-.2.29 1.32 2.18 1.34 1.68 2.85a4.33 4.33 0 0 0 0 1.38c0 .95.1 2 1.36 1.05 1.11-.78-.24-1.75-.02-3.02zm-10 87.18-.08-.26c-1.69-.29-3.36-.7-5.06-.83a7 7 0 0 1 -5.56-3c-.63-.93-1.38-.85-1.95-.25s-.22 1.35.4 1.88a25.21 25.21 0 0 0 4.89 3.35c.53.26 1.38.61 1.53-.06.31-1.29 1.19-.82 1.87-.85 1.34-.03 2.67.02 3.99.02zm41.71-106.15c1 1.05 2.49 1 3.82 1.3 1.07.24 2.59 1 3.12.45.75-.82-.33-2.18-.5-3.33-.14-1-.54-1-1.49-.85a9.21 9.21 0 0 0 -4.95 2.43zm-45.24 114.25c-2.91-.22-6 1.25-8.05-2-.25-.42-1-1.14-1.67-.66s-.5 1.44-.56 2.21c-.08.94.76.85 1.31 1.16.77.43 1.73-.29 2.39.57.85 1.11 2.12 1.11 3.44 1.27-1-1.73-1-1.7.71-1.89.75-.07 1.56.27 2.43-.66zm64.47-69.42c.56-2.07-1.27-2.84-2.61-3.52-1-.52-.72 1.33-1.53 1.72a17.45 17.45 0 0 0 -1.41 1.07c-.43.26-1.13.28-.9 1s.9.27 1.35.29c1.17.06 2.37-.14 3.41.69.37.29.83.89 1.35.52s.53-1 .34-1.77zm-74.34 92.75c-1.68-.52-3.1-1-4.54-1.37-.49-.12-1.18-.38-1.4.56-.34 1.44 1.74 4.64 3.11 4.33a15.1 15.1 0 0 0 5.44-2.38.37.37 0 0 0 0-.65c-5 2-5.64 2-7.31-.57 1.57-.37 2.93 1.14 4.7.08zm52.34-46.69c.44.07.89.18 1.34.21 3.09.21 4.2-.85 4.21-4 0-.63-.26-1.31.25-1.91a4.91 4.91 0 0 0 .75-4.6c-.52 1.32-1.6 3-1.72 4.69-.16 2.18-1.06 3-3 3.05-.06.77 1.07.81.75 1.32-.51.91-1.54 1.05-2.54 1.24zm-36 11.69a12.15 12.15 0 0 1 -8.32-2c-1.23-.76-2.42-1.59-3.65-2.36-.45-.29-1.05-.56-1.4 0s.31.77.6 1.09a12.9 12.9 0 0 0 8.21 3.9 6.44 6.44 0 0 0 4.63-.63zm44.3-.53c-.79 2.36-1.6 4.72-2.38 7.09-.29.89-1 2 .66 2.27 1.46.26 1.79-.72 1.9-1.89a27.53 27.53 0 0 0 -.11-7.47zm-2.43-27.17c-2.05 2-4.57 2.06-6.68 3.11-.57.28-1.34.53-.7 1.41s1 0 1.41-.26c1.43-1.09 2.78-1.42 4 .24.52.68 1.21.56 1.2-.18.09-1.35.8-2.53.84-4.32zm-5.21-88.79c2.17-2.69 1-5.74 1.28-8.93-3.07 2.84-3.05 5.77-1.28 8.93zm9.38 97.45a49.14 49.14 0 0 1 3.76 10c.86-4.76-.38-8.24-3.8-10zm-56 40.63a8.8 8.8 0 0 1 -4.8-1c-.63-.29-1.37-.5-1.1-1.46a15.65 15.65 0 0 0 -2.57.11c-.57.11-.42 1.09-.25 1.05 1.35-.25 1.54 1.18 2.32 1.5a8.24 8.24 0 0 0 6.34-.2zm31.69-216.45c-9.43-1-9.43-1-9.87.63a9.89 9.89 0 0 1 6.76.28c1.04.37 2.33.84 3.11-.91zm5 180.11c2.78 1 5.53 2.15 8.55 1.66.38-.06 1 .16 1.06-.55s-.69-.65-1.15-.68c-2.84-.16-5.66-.26-8.48-.43zm-37.53 42.36c-1.66.13-3.16 1.43-4.74 1s-2.73-1.48-4.37-2.42c1.88 4.52 6.74 4.36 9.09 1.42zm-4.83-25a16.67 16.67 0 0 0 -.13 2c0 .58-.41 1.51.6 1.6.66.06 1.66 1.56 2.07-.34.09-.39.58-.1.86 0 .69.21 1.36.47 2.36.82a28.43 28.43 0 0 0 -5.78-4.04zm55.57-144.14c1.49-2.37.12-4.71.05-7.28-3.02 2.63-.06 4.96-.07 7.32zm-17.41 165.95c-.46.92-1.55.06-1.68 1.05a.59.59 0 0 0 .51.72c.62.09 1.31.91 1.8.27a3 3 0 0 0 .11-3.31 1.79 1.79 0 0 0 -1.91-.74c-.28 0-.55.07-.59.4-.12.94.83.85 1.26 1.28a3.94 3.94 0 0 0 .5.33zm-41.11-134.54c1.16 2.36 2.38 4.67 5 5.73-1.62-1.94-2.9-4.19-5-5.73zm1.31 124.16a1.63 1.63 0 0 0 .16 2.5c1 .89 2 1.86 3.74 1.09-1.09-1.54-2.65-2.39-3.9-3.59zm26.33-94.07c-.55 0-.69.33-.56.66.48 1.15 1.06 2.33 2.35 2.67.57.15.8-.67.67-1.16-.34-1.29-1.61-1.56-2.46-2.17zm32.16-18.62c-2.87-1.62-3-1.54-3.46 2.47zm-20 116.55c1-.92 1.55-4.13 1-5.1a.57.57 0 0 0 -.64-.32c-.47.08-.37.48-.37.77.01 1.51.02 3.02.02 4.65zm-37.7 6.71c2 .08 3.5 1.8 5.2 0-1.67.72-3.06-2.19-5.19 0zm13.52-76.67c-.72-.86-.5-2.35-1.85-2.46-.58-.05-1.58.9-1.22 1.44a2.7 2.7 0 0 0 3.08 1.02zm17.07-140.93-.28-.42c-1.69.51-3.23 1.2-3.55 3.43zm-8.71 105.21a12.28 12.28 0 0 0 -3.41-3c.87 1.2 1.07 3.2 3.41 3zm15.26 108.74c2.53.13 2.53.13 1.68-2.27a4.87 4.87 0 0 0 -1.68 2.27zm-32.22 18.65c-1.41 1.21-.84 2.64-.84 3.95.53-1.14 1.19-2.33.83-3.95zm46.95-55.59c-1.08-.34-2.16-.9-3.42-.07a3.92 3.92 0 0 0 3.41.07zm-49.93 48.82c-.56-.26-1-.49-1.48-.68s-.56-.83-1.13-.51c-.11.07-.15.36-.14.54.06.65.53.88 1.1.91s.98.5 1.64-.26zm58.04-138.42a4.94 4.94 0 0 0 -.13-2.9c-.94 1.11-.98 1.9.13 2.9zm-62.68 146.58c-.82-.49-1.64-2.06-2.51 0zm62.7-139.42 1.55 1.76c.13-1.24.41-2.34-1.55-1.76zm-51.79 38.52a1.16 1.16 0 0 0 1.61-.59.6.6 0 0 0 -.17-.48 1.55 1.55 0 0 0 -1.44 1.07zm46.93-75.27v-.16s-.13 0-.14.05 0 .1 0 .16z"/><path d="m186.81 338.25h22.4a89.78 89.78 0 0 1 -22.4 0z"/><path d="m362.26 135.46a4.22 4.22 0 0 1 -4.06-3.46c-.05-.63.39-.64.67-.76 2.36-1 4.74-2 7.08-3 .78-.34 1.1-.17 1.46.61 1.15 2.46.67 4.17-1.72 5.44a9.42 9.42 0 0 1 -3.43 1.17z"/><path d="m357.78 179.18c-1.7 0-2.82-.27-3.52-1.46-1.26-2.12-.83-3.16 1.53-3.54 7.38-1.17 14.76-2.3 22.13-3.52.95-.15 1.24 0 1.42 1 .46 2.38-.22 4-2.45 4.42-6.5 1.12-13.04 2.11-19.11 3.1z"/><path d="m104.68 45.13a3.41 3.41 0 0 1 2.63 1.69c3.74 6 7.51 12 11.2 18.07 1.08 1.78.72 3.38-.68 4.18s-3 .36-4-1.38c-3.75-5.94-7.44-11.91-11.12-17.88a3.12 3.12 0 0 1 -.24-3.39 2.66 2.66 0 0 1 2.21-1.29z"/><path d="m344.36 92.59c.24 1-.42 1.33-.8 1.71-2.5 2.57-5.05 5.09-7.53 7.67-.79.81-1.22 1.14-2.07 0-2-2.81-2.1-2.75 1-4.39s6.21-3.3 9.4-4.99z"/><path d="m34.83 127.16c1.07-.33 2 .26 2.88.5 3.13.82 6.22 1.77 9.36 2.56 1.16.3 1.28.7.8 1.74-1.46 3.16-1.41 3.17-4.31 1.27-2.54-1.67-5.1-3.32-7.64-5-.42-.23-.99-.41-1.09-1.07z"/><path d="m184.81 21c.83 1.68 1 3.53 1.43 5.27s.8 3.21 1.17 4.82c.88 3.8.79 3.87-3.09 3.78-.7 0-1-.21-.92-.89q.51-6.34 1-12.67c.02-.08.2-.14.41-.31z"/><path d="m171.59 365.88a10.16 10.16 0 0 1 -1.13 5 3.52 3.52 0 0 1 -2.71 2.09c-1.83.24-2.34-.31-2-2.08.52-2.66 1.12-5.3 1.54-8 .19-1.27.77-1.35 1.73-1a3.55 3.55 0 0 1 2.57 3.99z"/><path d="m125.33 348a2.41 2.41 0 0 1 -2.55 2.28 2.46 2.46 0 0 1 -2.55-1.42c-.19-.48 2.19-4 2.55-3.95 1.04.02 2.57 1.77 2.55 3.09z"/><path d="m347.78 283.38c-.06 2.18-1 2.7-2.92 1.63-.17-.1-.4-.15-.51-.3-.53-.67-2.32-.32-1.69-1.85.51-1.25 1.38-2.38 3-2.12a2.31 2.31 0 0 1 2.12 2.64z"/><path d="m52.61 266.25c-2.41 1.51-4.75 3.17-7.28 4.44-1 .51-.86-1.1-1.28-1.7-.27-.38-.82-1.15.15-1.4 2.7-.7 5.42-1.32 8.13-2z"/><path d="m219.85 363.49c.76 2.74 1.7 5.45 2.21 8.23.22 1.16-1.28.65-2 .85-.47.13-1.31.4-1.25-.64.19-2.79.03-5.59 1.04-8.44z"/><path d="m80.41 310c-1.78 2.17-3.46 4.44-5.36 6.49-1 1.07-1.28-.52-1.82-.94s-1.39-.93-.25-1.65l7-4.38z"/><path d="m153.23 357.25a82.51 82.51 0 0 1 -1.33 8.45c-.29 1.13-1.48-.07-2.25-.15-.61-.06-1.26-.22-.8-1.11l3.75-7.34z"/><path d="m269.68 349.4 5.11 7.46c-3.12 2.06-3.14 2.07-4.05-1.24-.52-1.9-1-3.83-1.47-5.74-.02-.07.15-.19.41-.48z"/><path d="m212.45 73.73-.27-.35h.42z"/></g></svg>