<svg viewBox="0 0 400 400" xmlns="http://www.w3.org/2000/svg"><g fill="#f5f5f5"><path d="m339.33 399.68a31.34 31.34 0 0 0 -4.53-.57 67.75 67.75 0 0 1 -36.63-16.36c-13.42-11.69-21.28-26.57-24.62-43.94a71.67 71.67 0 0 1 -1.45-15.25 66.3 66.3 0 0 1 10.2-33.76c10.25-16.62 24.7-28 43.45-33.56a70.42 70.42 0 0 1 42.08.63c1.7.54 3.35 1.2 5 1.78a.84.84 0 0 1 .69.94q0 13 0 26a3.11 3.11 0 0 1 -.05.34 2.57 2.57 0 0 1 -1.17-.6 45.52 45.52 0 0 0 -52.67 2.87c-9.74 7.71-15.8 17.73-17.53 30-2 14 .81 27.08 9.7 38.42a42.86 42.86 0 0 0 25.4 15.65 48.65 48.65 0 0 0 34.27-5c.34-.18.65-.38 1-.57l1.07-.6v1q0 12.95 0 25.88a1.15 1.15 0 0 1 -.88 1.33 84 84 0 0 1 -24.14 5.22c-.19 0-.42-.07-.55.16z"/><path d="m244.45 321.05a46.13 46.13 0 0 1 9.25 6c8.06 6.89 12.42 15.64 13.52 26.18 1.81 17.31-8.86 31.66-22.19 37.85a29.74 29.74 0 0 1 -12.74 2.92q-32.31 0-64.63 0c-1 0-1.19-.29-1.19-1.24q0-67.2 0-134.41c0-1.12.34-1.31 1.36-1.3 18.86 0 37.73-.2 56.59.1 12.13.19 22.29 5.05 29.67 15a30.64 30.64 0 0 1 5.58 14.75 35.42 35.42 0 0 1 -2.21 18.58 34.88 34.88 0 0 1 -12.55 15.31zm-49.45 32.08v16.69c0 .85.18 1.09 1.05 1.09h23a9.46 9.46 0 0 0 1.84-.15c10.25-2.05 16.21-10.3 15-20.65-1-7.8-8.52-14.51-16.41-14.52s-15.6 0-23.4 0c-.76 0-1 .14-1 1-.03 5.47-.08 11-.08 16.54zm-.38-56.9v15c0 .79.15 1 1 1h20.09a6 6 0 0 0 1.13-.06c11-2.05 15-11.79 13.49-19.89-1.45-7.65-8.75-12.07-15.5-12.19-6.42-.12-12.84 0-19.27-.05-.81 0-.95.25-.94 1 .04 5.09.03 10.14.03 15.19z"/><path d="m174.93 199.49c-.42-.26-.45-.66-.59-1-19.56-46.09-39.34-92.09-58.56-138.35-11.45-27.6 5.22-50.89 26.51-57.38 18.83-5.74 39 2 48.47 18.78 4.27 7.57 5.76 15.78 5.53 24.38a127.05 127.05 0 0 1 -1.59 13.91c-1 7.55-2.13 15.09-3.2 22.63s-2.12 15-3.19 22.53-2.13 15.09-3.2 22.63-2.15 15.09-3.22 22.63-2.11 14.95-3.17 22.43-2.15 15.15-3.23 22.73c-.19 1.34-.37 2.69-.56 4.08z"/><path d="m227.15 199.56c-.43-2.84-.81-5.41-1.19-8q-1.62-10.79-3.23-21.57t-3.16-21.27q-1.62-10.83-3.23-21.67-1.69-11.4-3.38-22.8c-1.2-8.08-2.43-16.15-3.62-24.22-.6-4.11-1.36-8.19-1.15-12.38.35-6.93 3.28-12.14 9.66-15.21 1.51-.73 3-1.51 4.47-2.32 1-.53 1-.86.2-1.64a5.66 5.66 0 0 0 -2.83-1.4 16.77 16.77 0 0 0 -3.87-.44c-3.3 0-6.6 0-9.9 0-.49 0-.82 0-.84-.67-.22-8.93 1.36-17.44 6-25.19 6.31-10.53 15.72-16.76 27.63-19.22 26.27-5.44 46.16 14.13 49.83 33.7a42.17 42.17 0 0 1 -2.66 24.51q-29.13 69.54-58.36 139c-.08.23-.16.37-.37.79z"/><path d="m174.18 214.74a62.52 62.52 0 0 1 -5.3-3.53q-57-39.12-114.07-78.27c-9.05-6.23-15.81-14.38-18.38-25.24-3.89-16.3.19-30.63 12.24-42.27 6.4-6.19 14.45-9.66 23.33-10.9 17.67-2.46 33.56 6.64 42 22.38 2.9 5.42 5 11.18 7.51 16.81q26.22 60 52.36 120c.15.33.41.64.32 1.05z"/><path d="m150.68 399.15-85.92-83.9a2.33 2.33 0 0 0 -.14 1.25q0 38.08 0 76.18c0 1-.24 1.29-1.28 1.28q-13.35-.06-26.7 0c-.75 0-1-.11-1-1q0-70.35 0-140.71v-.8l86 82.29c.28-.39.15-.78.15-1.13q0-37.15 0-74.32c0-1 .17-1.31 1.25-1.3q13.3.08 26.6 0c.8 0 1.1.11 1.1 1q0 70.05 0 140.1z"/><path d="m228.16 214.24 4-9.34q26.16-61 52.34-121.93a51 51 0 0 1 14-19.48 37 37 0 0 1 21.13-8.79c11.71-.94 22.33 2.06 31.36 9.62a41.39 41.39 0 0 1 14.76 26.47c2.18 14.93-2.83 27.32-13.64 37.57a86 86 0 0 1 -10.78 8.1l-112.15 77.4c-.28.19-.57.37-.86.55z"/><path d="m180.43 229.16h-135.12a42.74 42.74 0 0 1 -42.16-33.91c-1.69-7.77-1.66-15.69 1.08-23.09 5.52-14.92 15.77-25.03 31.85-28.16 10.71-2.06 20.72.38 30.12 5.63 5 2.76 9.42 6.28 14.07 9.51q28.28 19.69 56.5 39.45l42.73 29.85z"/><path d="m221.92 229.18 13.59-9.5 67.28-47q14.91-10.41 29.82-20.81a43.1 43.1 0 0 1 21.75-8 39.52 39.52 0 0 1 28.42 9.13 41.89 41.89 0 0 1 15.61 26.31c3 18-5.35 36.69-21.1 45.3a37.53 37.53 0 0 1 -18.29 4.57q-67.84 0-135.67 0z"/><path d="m174.19 214.72.14.08-.05.09-.1-.15z"/></g></svg>