<svg viewBox="0 0 400 400" xmlns="http://www.w3.org/2000/svg"><g fill="#f5f5f5"><path d="m254.43 102.67c0 .18 0 .35-.26.22l.13-.43z"/><path d="m277.14 102.72c.13-.17.21-.17.3 0s0 .13 0 .21l-.26-.26z"/><path d="m122.63 103.32h-.3c.18-.34.22 0 .3 0z"/><path d="m122.42 149.33v.3h-.21l.21-.25z"/><path d="m138.14 262.32v-8.48c0-17.48 0-35 0-52.49 0-1.59-.3-2.61-1.88-3.34-2.1-1-4.76-1.84-5.91-3.6s-.3-4.71-.39-7.11c0-2.7 0-5.45 0-8.14 0-1.08.3-1.5 1.45-1.5h34.28c1.16 0 1.46.38 1.46 1.45q-.06 7.08 0 14.14c0 1-.22 1.67-1.2 2-.09 0-.13 0-.17.08-2.1 1.29-5.06 2.14-6.13 4s-.3 4.88-.3 7.37v122.3c0 2.44 0 2.44-2.31 1.76-5.1-1.54-10.24-3.09-15.39-4.54a3.74 3.74 0 0 1 -2.87-2.66q-13.43-40-27-79.91a3.75 3.75 0 0 0 -.94-1.71v1.58q0 25.71 0 51.42a3.24 3.24 0 0 0 1.49 3c2.58 1.88 6 3.47 7.29 6s.34 6.3.34 9.51c0 1.93-.08 3.86 0 5.79.09 1.5-.42 1.62-1.71 1.28-9-2.31-18-4.58-26.91-6.9-3.17-.77-6.34-1.63-9.51-2.35-1.16-.3-1.8-.65-1.76-2.1.13-3.86.09-7.72 0-11.57a1.81 1.81 0 0 1 1.42-2c2.1-.72 4.11-1.62 6.17-2.35a2.15 2.15 0 0 0 1.67-2.49c0-10.19 0-20.43 0-30.63q0-29.56 0-59.13a2.88 2.88 0 0 0 -1.93-3c-2.48-1.2-5.91-1.76-7.15-3.94s-.3-5.27-.35-8c0-2.35 0-4.71 0-7.07 0-1.07.26-1.5 1.41-1.5 9.13.05 18.3.09 27.43 0 1.62 0 1.62 1.08 2 2q12.08 37.08 24.12 74.12l2.83 8.7z"/><path d="m214.8 349.6c-5.19-1.93-10.12-3.82-15-5.66-7.59-2.83-15.21-5.7-22.84-8.48a2.09 2.09 0 0 1 -1.67-2.44c.08-3.56.08-7.16 0-10.72a2.2 2.2 0 0 1 1.71-2.48c2-.73 3.94-1.67 6-2.4a1.53 1.53 0 0 0 1.16-1.76 10.93 10.93 0 0 1 0-1.28q0-56.43 0-112.86c0-2.06-.6-3.13-2.44-3.81-1.08-.39-2-1.2-3.05-1.5-2.87-.82-3.47-2.66-3.3-5.44.26-3.86.13-7.72 0-11.57 0-1.29.3-1.72 1.67-1.72q32.77.08 65.55 0c1.37 0 1.63.48 1.63 1.72q-.06 15.42 0 30.85c0 1.45-.43 1.8-1.8 1.75-3.94-.08-7.84-.08-11.78 0-1.29 0-1.71-.47-2.06-1.58-1.11-3.69-2.4-7.33-3.51-11-.34-1.07-.69-1.63-2-1.63-4.8.09-9.56.09-14.36 0-1.28 0-1.71.3-1.67 1.63q.06 18.19 0 36.42c0 1.37.43 1.71 1.71 1.67 3.35-.09 6.73 0 10.07 0a2 2 0 0 0 2.1-1.11c.05 0 .09-.13.13-.17 1.54-2.06 2.36-5.23 4.54-6 2.75-.95 6-.22 9.13-.3 1 0 1.11.51 1.11 1.28v32.57c0 1.15-.38 1.54-1.45 1.41a7 7 0 0 0 -1.29 0c-2.48 0-5.27.64-7.41-.21s-3-3.78-4.5-5.79a2.17 2.17 0 0 0 -2.1-1.07c-3.51 0-7 .09-10.5 0-1.24 0-1.54.39-1.54 1.59q.06 31.29 0 62.55a2.79 2.79 0 0 0 .82 2.1c.55.56.94 1.29 1.54 1.8 4.88 4.11 6.42 9.38 5.61 15.6-.51 2.64-.21 5.21-.21 8.04z"/><path d="m250.57 329.72v-16.37a2.08 2.08 0 0 1 1-1.71c2.53-2.06 5.06-4.2 7.63-6.22a3 3 0 0 0 1.2-2.52q-.07-51.1 0-102.19a2.13 2.13 0 0 0 -1.42-2.27c-2-.95-3.9-2.1-5.87-3.05a1.85 1.85 0 0 1 -1.2-2q.08-7.06 0-14.14c0-1.2.3-1.62 1.55-1.62h36.42c1.41 0 1.62.51 1.62 1.75v13.93a2.09 2.09 0 0 1 -1.24 2.18c-1.63.86-3.21 1.89-4.88 2.66a2.8 2.8 0 0 0 -1.72 3q.07 29.88.05 59.77c0 11.7 0 23.44-.05 35.13 0 1.93.47 2.23 2.27 1.72 4.29-1.29 8.62-2.49 13-3.52a2.34 2.34 0 0 0 2.05-2.44c.86-7.28 1.85-14.57 2.66-21.89.17-1.55.6-2.23 2.31-2.15 4.16.13 8.27.09 12.43 0 1.33 0 1.88.22 1.88 1.76v40.06c0 1.54-.81 1.76-1.84 2l-55.12 14.74z"/><path d="m199.8 399a88.26 88.26 0 0 0 -12.51-15.08c-11.61-11.23-25.67-18-41-22.5-9.89-2.87-20.09-4.15-30.16-6-12.6-2.28-24.85-5.83-36.16-12-12.08-6.6-21.9-15.43-27-28.62a40.25 40.25 0 0 1 -2.87-15v-260.37a94.7 94.7 0 0 0 14.57 8.1 94.1 94.1 0 0 0 66.63 4.37c25.92-7.63 47.34-21.85 63.54-43.66 1.62-2.24 3.16-4.71 4.83-7.24a106.15 106.15 0 0 0 8.27 11.7 119.34 119.34 0 0 0 63.88 40.19c27.34 6.94 53.05 2.74 76.83-12.56.3-.17.6-.34.9-.55.6.55.3 1.24.3 1.8q0 128.66 0 257.29c-.05 15-7 26.95-18.3 36.5-10.58 8.92-23.09 13.89-36.29 17.48-9.6 2.62-19.45 3.65-29.18 5.62-18.12 3.64-35.09 9.89-49.49 21.93a84 84 0 0 0 -14.86 16.24 6.52 6.52 0 0 1 -1.93 2.36zm-77.38-249.67c.77.43 1.11-.34 1.54-.64 2.83-1.93 5.66-3.85 8.4-5.91a2.19 2.19 0 0 1 3.13 0c3.25 2.4 6.6 4.67 10.32 7.28-.94-3.09-1.75-5.74-2.61-8.36-1.8-5.65-1.8-5.65 3-9.25 2.23-1.67 4.41-3.39 7.11-5.4-4.71 0-8.78 0-12.85 0a1.91 1.91 0 0 1 -2.27-1.58c-.9-3-2-6-3.09-8.87-.38-1-.38-2.14-1.37-3-1.33 4-2.74 7.8-4 11.65a2.17 2.17 0 0 1 -2.57 1.8c-4-.08-8.06 0-12.64 0 3.85 2.87 7.15 5.44 10.54 7.88a2 2 0 0 1 .85 2.62c-1.2 3.94-2.74 7.75-3.51 11.82l-.21.26h.21zm.21-46c3.3-2.36 6.64-4.67 9.86-7.12a2.06 2.06 0 0 1 2.95 0c3.26 2.4 6.6 4.67 10.37 7.33-1.24-4-2.18-7.58-3.47-11-.85-2.23-.55-3.51 1.5-4.88 3.17-2.06 6.09-4.55 9.6-7.2h-6.6c-2.61 0-5.87.85-7.75-.35s-2-4.79-3-7.32c-.73-1.84-1.12-3.9-2.27-5.79-1.29 3.73-2.62 7.2-3.69 10.76-.6 2-1.45 3-3.81 2.78-3.73-.25-7.46-.08-11.83-.08 3.86 2.87 7.16 5.44 10.54 7.88a2.1 2.1 0 0 1 .9 2.83c-1.15 3.34-2.14 6.77-3.21 10.2-.17.64-.64 1.24-.09 2-.08 0-.17-.35-.3 0zm154.51-.69.25.26c0-.09.05-.17 0-.22s-.21-.17-.3 0c.43-.72-.08-1.32-.25-2-1-3.34-2-6.68-3.13-10a1.82 1.82 0 0 1 .77-2.48c3.47-2.49 6.86-5.1 10.76-8.1-4.63 0-8.66-.09-12.69 0a2.21 2.21 0 0 1 -2.55-1.76c-1.28-3.9-2.65-7.76-4.15-12-1.46 4.24-2.87 8-4.12 11.91-.47 1.46-1.11 2.06-2.7 2-2.7-.17-5.44-.09-8.14 0a12.52 12.52 0 0 0 -4.11.25c3.51 2.66 6.77 5.23 10.11 7.59a2.22 2.22 0 0 1 .9 3c-1.24 3.77-2.31 7.62-3.47 11.44l-.13.43c.26.12.26-.09.26-.22 3.51-2 6.68-4.5 10-6.81a2 2 0 0 1 2.74 0 119.5 119.5 0 0 0 9.95 6.7zm-77.14 61.22q-64.9 0-129.82 0c-2 0-2.45.51-2.45 2.44q.08 67 0 133.89a22.21 22.21 0 0 0 .6 5.32c1.93 8.09 7 13.92 13.49 18.63 10.67 7.76 23 11.53 35.69 14.19 10.2 2.1 20.53 3.38 30.55 6.34 19 5.61 36.77 13.58 50.95 28 .81.85 1.28.51 1.88-.17a56 56 0 0 1 6.6-6.09c17.14-13.54 37-20.82 58.14-25 9.65-1.93 19.41-3.13 28.84-6 9.86-3.09 19.32-7 27.12-14 6.81-6.09 10.5-13.46 10.46-22.93-.17-43.91-.09-87.83-.05-131.75 0-2.14-.38-2.78-2.7-2.78q-64.63-.01-129.3-.09zm-34.45-17.78a1.24 1.24 0 0 0 .6-1.2 148.15 148.15 0 0 1 11-39.81c1.72-4 1.72-3.94-2.44-5.14-.43-.13-1.28 0-1.24-.51a11.83 11.83 0 0 1 1.63-3.69c.47-.9 1.33-.38 1.93-.25a37.27 37.27 0 0 1 13.24 5.74c3.72 2.61 3.12 1.37 1 5.18-.51.94-1 1.2-1.92.43s-2.23-1.5-3.35-2.31c-.77-.56-1.24-.6-1.8.38a160.33 160.33 0 0 0 -16 41.52c-.3 1.37.21 1.67 1.33 1.71a15.75 15.75 0 0 0 1.93-.12 116.85 116.85 0 0 0 22.83-5.49c15.13-5.44 27.85-14.05 36.38-28s10.63-29 8.57-44.9a63 63 0 0 0 -4.07-15.51c-1.16-2.92-1.76-3.09-4.33-1.46a74.88 74.88 0 0 0 -11 8.83c-1.8 1.71-1.76 1.62.3 3.08 4 2.87 3.77 1.63.13 5.19a1 1 0 0 1 -1.59.12 40.15 40.15 0 0 0 -14.78-7.41c3.17-3.21 4-3.51 7.67-2.14a2.67 2.67 0 0 0 2.91-.56 85.29 85.29 0 0 1 15.26-9c.34-.17.85-.17.81-1h-3.81a70.69 70.69 0 0 0 -22.67 4c-18.71 6.58-32.42 18.58-39.75 37.24-5.52 14-5.65 28.53-2.61 43.14a45.34 45.34 0 0 0 3.81 12zm164.15-42.89c-1.12-3.6-2.06-6.64-3-9.68-1.33-4.29-1.37-4.29 2.18-7l7.84-6a62.83 62.83 0 0 0 -11.05-.34c-2.27.12-3.39-.56-4-2.83-1-3.56-2.4-7-3.81-11.06-1.2 3.39-2.14 6.22-3.13 9-1.67 4.8-1.67 4.8-6.81 4.8h-8.78a102.56 102.56 0 0 0 9.64 7.76c1.2.85 1.62 1.62 1.07 3.12-1.07 3-1.89 6-2.79 9a6.11 6.11 0 0 0 -.6 3c3.52-2.48 6.86-4.75 10.16-7.15a1.91 1.91 0 0 1 2.74 0c3.19 2.41 6.54 4.68 10.31 7.38zm-82.7 23.48-.12.43c3.29 2.48 6.55 5.05 9.89 7.41 1.29.9 1.42 1.76.95 3.17-1.29 3.81-2.45 7.67-3.69 11.53.94.21 1.37-.48 1.93-.86 2.87-2 5.74-3.94 8.57-6a1.82 1.82 0 0 1 2.57 0c3.34 2.44 6.73 4.75 10.54 7.41-1.37-4.37-2.57-8.31-3.9-12.21a2.22 2.22 0 0 1 1-3c3.38-2.4 6.68-5 10.49-7.88-4.67 0-8.69-.09-12.72 0a2.17 2.17 0 0 1 -2.61-1.67c-1.25-3.94-2.66-7.79-4.16-12.08-1.46 4.24-2.87 8.1-4.16 12a2.19 2.19 0 0 1 -2.52 1.84c-3.99-.18-8.06-.09-12.06-.09zm-164.78-60c-1.55 4.41-3 8.18-4.2 12a2.16 2.16 0 0 1 -2.57 1.76c-4-.09-8.06 0-12.73 0 3.73 2.83 6.9 5.32 10.24 7.63 1.5 1 1.63 2 1.07 3.51-1.28 3.73-2.4 7.55-3.77 12 3.86-2.7 7.2-5 10.46-7.37a2.12 2.12 0 0 1 3 0c3.26 2.4 6.6 4.67 10.37 7.28-1.37-4.41-2.44-8.31-3.77-12.08a2.34 2.34 0 0 1 1.07-3.17c2.79-2 5.49-4.07 8.23-6.17.56-.43 1.37-.69 1.58-1.63-4.19 0-8.26 0-12.33 0a2 2 0 0 1 -2.36-1.75c-1.37-3.81-2.78-7.58-4.32-12.04zm235.88 46.84h-.47c-1.24 3.6-2.62 7.2-3.73 10.84-.51 1.76-1.29 2.49-3.26 2.36-3.85-.21-7.79 0-12.29 0 3 2.27 5.57 4.2 8.09 6.13 3.86 2.87 3.86 2.87 2.45 7.45-.52 1.71-1.07 3.39-1.55 5.1-.34 1.28-1.07 2.53-1 4.2 3.51-2.49 6.89-4.76 10.15-7.16a2 2 0 0 1 2.79.05c3.25 2.4 6.59 4.67 10.41 7.32-1.33-4.24-2.4-8-3.69-11.69-.6-1.68-.38-2.66 1.16-3.73 2.78-1.89 5.4-4 8.05-6 .56-.43 1.38-.69 1.59-1.63-4.28 0-8.44 0-12.55 0a1.8 1.8 0 0 1 -2.1-1.5c-1.31-3.94-2.72-7.84-4.05-11.74zm-235.66.35h-.47q-1.66 4.83-3.34 9.64c-1.24 3.6-1.24 3.6-5.06 3.6h-10.71c3.56 2.66 6.47 5.1 9.64 7.16 1.89 1.24 2.23 2.4 1.42 4.5-1.33 3.47-2.27 7.11-3.56 11.35 3.81-2.65 7.16-4.88 10.33-7.24a2.14 2.14 0 0 1 3.12 0c3.22 2.4 6.56 4.63 10.29 7.2-1.24-4-2.1-7.54-3.43-10.88-.94-2.36-.56-3.64 1.59-5.06 3.08-2 5.95-4.41 9.38-7-4.63 0-8.61-.09-12.6 0a2.19 2.19 0 0 1 -2.57-1.76c-1.28-3.94-2.7-7.71-4-11.52z"/><path d="m178.59 89.31c3.6-5.79 1.67-5.23 8.18-3.3a38.47 38.47 0 0 1 11.66 6.21c1.07.81 1.24 1.33.43 2.49-2.14 3-2.1 3-5 1a41.58 41.58 0 0 0 -15.27-6.4z"/><path d="m185.32 79.28c1.11-1.33 2.05-2.4 2.91-3.51.56-.73 1.2-.6 1.93-.43a41.93 41.93 0 0 1 16 7.71c.77.6.69.94.17 1.67-2.48 3.39-2.44 3.43-5.87 1a42.65 42.65 0 0 0 -15.14-6.44z"/><path d="m193.63 70.33c1.5-1.29 2.7-2.28 3.86-3.3.64-.6 1.32-.39 2-.18a42.66 42.66 0 0 1 14.45 7.15c1 .77 1 1.2.13 2.1-2.62 2.7-2.62 2.74-5.74.6a41.73 41.73 0 0 0 -14.7-6.37z"/></g></svg>