<svg viewBox="0 0 400 400" xmlns="http://www.w3.org/2000/svg"><g fill="#f5f5f5"><path d="m309.11 117.73c-3.33-.08-8.89 2.48-9.07-2.57-.17-4.76 5.43-6.28 9.95-7 6.28-1 9.78 4.44 15.37 7.54 1.78-10.08-12.24-15.62-5.84-25.55.07-.09-1.39-1.52-1.61-1.4-8.75 4.93-13.68-5.93-22.7-6.29 6.87 10.59 8.77 19.43-3.53 27.73.42-11.52 4.83-23.38-8.26-28.62-5.2-2.08-11.11-1.91-14 5.93 4.2.12 8.39-4.26 11.24.34 3.06 4.94-.73 8.28-3.66 11.64-4.5 5.13-9.62 11.61-.72 15.68 7.56 3.47 4.64 5.4 1.26 8.88-8.11 8.36-18.47 13-28.92 17.5-14.7 6.34-28.68 13.6-35.37 29.55-3 2.51-4 6.09-5.13 9.6-3.11-2.66-.86-6.59-2.27-9.65-1.72-10.45 3.59-21-.35-31.42.34-1.88-.52-4.93 1.77-5.23 3.48-.45 2.83 2.81 2.93 5 .18 3.73.24 7.67 5.4 7.73 3.84 0 7.08-1.09 7.16-7-4.37 3.09-7.8 1.71-8.12-2.56-.47-6.28-6.07-6.7-9.25-9.84.3-.83.6-1.66.91-2.49l12.28-13.68c3.92 13.08 8.42 14.85 17.62 6.88 3.83-3.32 6.94-8.7 13.2-5.78 7.49 3.5 2.57 9.79 1.75 16 9.19-9 7.8-19.61-2.44-25-11-5.77-21-2.39-30.24 4.61-5.54 3.11-10.2 7-12.59 13.17-1.62-8.22-2.52-17.29 5.42-21.91 5.23-3 7.55-5 5.94-10.82-1.32-4.73.41-7.94 5.47-8.75 2-.32 5.11 2.86 5.56-1.44.35-3.41-2.75-5.17-5.54-5.33-7.31-.42-11.87-4.32-14-10.79-1.2-3.68-3-5.51-6.67-5.73-4.3-.25-6.37 1.93-7.78 6a15.31 15.31 0 0 1 -12.09 10.34c-7.2 1.26-9.09 5.43-8.62 13.29 3.83-2.14 4.6-8.7 9.66-5.56 3.82 2.37 3.73 5.94 2.6 9.66-.77 2.55-.59 6.15 1.34 6.63 13.21 3.28 9.89 14.49 11.74 23.22-5.74-3-8-10.15-14.62-12.17-8.94-6.85-18.69-10-29.33-4.59-7 3.56-11 9.39-9 18 9-12.12 10-12.28 21.2-2.82 4.63 3.93 9.16 7.09 14.54 1.24 2.16-3.57 3.63-9.49 8.72-2.31a51.93 51.93 0 0 0 4.79 5.18l3.23 6.27c-4.26 1.05-9.12 1.35-9.55 7.34-.46 6.27-5.2 5-10.46 3.94 5.16 8.08 9.74 9.27 15.31 3.19.18 3-.43 6.2 2.46 8.39 4.48 5.28-1.7 11 .68 16.37-1.29 3.32.77 7.46-2.55 10.27-7.74-20.12-23.65-31.1-42.83-38.58-11.77-4.59-22.71-10.5-30.14-21.44 11.73-6.19 12.57-9.4 5.13-18.8-2.7-3.41-6.76-6.32-4.12-11.57s7.39-.27 11.27-1.29c-2.85-6.63-7.86-7.07-12.6-5.74-15.06 4.22-8.37 18.18-10.73 29-11.35-9.17-8.29-18.33-3-26.84-8.31-4.13-8.31 8.65-15.55 5.98-6.76-2.5-9.56-.13-7 6.74 1.23 3.28.71 5-1.94 7.09-3.58 2.79-5.49 6.57-5 12.9 3.57-2.63 5.85-4.65 8.43-6.14 5.15-3 10.13-2.14 14.69 1.46 1.53 1.21 3.73 2.7 2.14 4.87-3.06 4.19-7.52 1.17-11.31 1.52-8 .73-12.55 5.23-14.44 12.57-2 7.73.1 11.63 7.68 15.37-1-4.08-5.87-8-1.38-12 5-4.46 8.74-.16 12.75 2.58 5.4 3.7 12.65 4.41 14-2.48 2.18-11.51 7.17-6.06 11.78-3.38 4.36 2.54 9.82 3.66 12.75 8.58-13.17 3.32-25.12 7.8-28.76 22.75-3.74 12.42-.37 23.81 8.13 26.57 3.85 1.24 8.53 2 10.49-2.64 2.26-5.41-2-6.32-6.21-7.56-8.43-2.47-8.35-2.74-7.69-10.24.89 5 4 7.29 8.56 5.06 3.26-1.58 3.44-4.75 1.54-8.31-6.59-12.3-3.12-18 11.53-19-1.18 5.24-9.38 10.83-1.79 15.44 6.43 3.9 8.24-4 11.25-7.87a9.74 9.74 0 0 1 2.4-2.68c4.73-2.68 9.38-2 13.62 1.1 3.68 2.71 4.8 6.23 2.89 10.66-1.73 4-4.19 8.08-8.81 6.44-10.55-3.73-9 5.41-13 9.7-5.39 5.74-10.15 10.18-8.19 18.36.52 2.17 2.24 4.19 3.8 5.91.58.65 2.38.57 3.49.29 2.33-.58 1.42-2.08.8-3.58-1.67-4.06-2.22-8.21 2.6-10.34 4.46-2 7.58 1 10.52 4 3.88 4 8.3 7.19 13.8 3.15 5.93-4.35 4.16-9.82 1.34-15.17-.38-.71-.86-1.37-1.21-2.1-2.38-4.83-2.61-9.44 2.08-13 4.35-3.33 8.67-1.45 12.32 1.2 8.7 6.33 12.82 15.33 14 25.84-.51 2.9-.78 5.74 1.89 7.87 4.57 5.26 2.26 11.29 2.62 17.57-4.41-1.86-7.66-7.49-12.15-2.65-4.36 4.68 0 8.09 2.77 11.41 4.13 5 7.25 10.12 2.46 16.26-2.39 3.06-5.9 5-9.65 3-6.21-3.26-5.58-9.2-4.87-15 2.41-19.58-1.37-22.82-19-16.57-4.91 1.73-6.81 5.56-7.42 10.17-.41 3.16 1.68 4.9 3.72 3.1 8.45-7.49 10.08-.21 12.26 5.38 7.62 19.51 13.55 21.84 31.33 11.74 2.19 5 1.13 10.28 1.12 15.35 0 5.63.44 11.43-8.61 5.49-7.62-5-11.75-.92-10.92 9 7.52-13 11.41 8.06 18.13.76 2.6 4.41.1 7.41-2.5 10.8-3 4-3.15 8.34.95 11.9 3.15 2.75 6.78 2.73 10.07.34 3.77-2.74 5.2-6.92 2.29-10.59-5.74-7.23-8-12.15 4.44-13.46 2.55-.26 3.18-8.38 8.41-2 1.72 2.09 1.88-1.58 1.83-2.38-.42-6.23-5.23-8.3-9.24-5.41-11.78 8.5-10.33-.25-10.51-7.29-.11-4.33 0-8.67 0-13.62 19.43 11.36 25.06 9.56 32.67-11.14 3.46-9.43 8.13-10.15 15.57-3.13-.81-11.09-12.52-21.45-21.08-18.6-7.64 2.55-5.5 10.67-5.48 17 0 4 1 8.22.19 12.08-1.45 7.26-8.58 8.93-13.76 3.59s-2.79-10.31.72-15.26c2.67-3.77 8.46-7.07 4.67-12.42-4.18-5.88-8.61.56-13.12 2.24.18-6.67-1-12.43 2.26-17.61 3.57-8.87 4.38-18.7 9.41-27.07 2.87-3.45 6-6.63 10.17-8.46 3.63-1.57 7.12-1.74 10.13 1.23 4.74 4.67 3 9.33.16 14.27-2.92 5.14-4.88 10.81 1 15.26 5.36 4.07 9.91 1.18 13.89-2.87 3.57-3.63 7.59-7.35 12.43-2.94 5.17 4.7-.12 8.82-3.25 13.84 6.19.1 10.49-.7 11.9-6.29s1.38-11.29-3.48-15.73c-2.22-2-6.51-2.11-6.25-6.51.46-7.74-3.34-8.72-10-7-6.89 1.77-9.52-3.09-10.45-8.77-1-5.91 2.65-8.84 7.88-10.4 7.6-2.26 11.17 2.34 14.21 8.09 1.94 3.67 5.3 5.93 9 3.65s2.78-6.59.84-9.85c-1.31-2.19-3.66-3.76-5.66-5.73 15.58-1 20.56 5.75 14.15 19.07-1.41 2.93-1.73 5.84.7 7.73 3.68 2.87 6.76 1.36 8.69-2.69 4.75 7.1-2.51 6.64-5.53 8-3.17 1.41-7.62.63-8.3 5.45a4.79 4.79 0 0 0 3.71 5.5c4.13 1.09 8.22.65 11.28-2.59 7.56-8 8.1-17 3.54-26.71-4.59-13.08-15.94-17.43-29.23-20.73 8.21-5.32 15-9.56 22.74-12.22 4.66 14.4 6.32 15.06 20.09 7.49 3-1.66 6-3.15 9-.8s2.35 5.77.91 8.86c-.76 1.63-2.68 3.14.77 4.83 1.23-1.46 2.9-2.77 3.7-4.49 5.59-12.51-1.81-24.19-15.51-24.53z"/><path d="m1.38 61.44c1.78-.17 2.89-.51 3.33-1s.65-1.74.65-3.66v-20.1c0-1.63-.24-2.7-.73-3.2s-1.57-.83-3.25-1v-.86h12.83a19.07 19.07 0 0 1 6.67 1q5.07 1.92 5.06 7.07a6.5 6.5 0 0 1 -2.25 5.31 12.41 12.41 0 0 1 -6.11 2.44l9.54 11.75a6.53 6.53 0 0 0 1.76 1.57 5.81 5.81 0 0 0 2.27.63v.86h-7.46l-11.59-14.25-2 .11v9.13c0 1.71.26 2.8.78 3.26a6.44 6.44 0 0 0 3.4.91v.86h-12.9zm15.83-16.06a5.61 5.61 0 0 0 3.69-5.68q0-4-3.3-5.49a11.57 11.57 0 0 0 -4.68-.79 5.87 5.87 0 0 0 -2.41.28c-.3.19-.44.63-.44 1.32v11.4a23.1 23.1 0 0 0 7.14-1.04z"/><path d="m379.26 53a16.81 16.81 0 0 0 2.74 5 8.66 8.66 0 0 0 6.84 3.23 5.62 5.62 0 0 0 3.83-1.4 4.89 4.89 0 0 0 1.62-3.91 5.5 5.5 0 0 0 -1.63-3.94 29.07 29.07 0 0 0 -4.47-3.19l-3.95-2.46a14.42 14.42 0 0 1 -2.84-2.33 7.07 7.07 0 0 1 -2-4.84 7.91 7.91 0 0 1 2.32-5.83 8.39 8.39 0 0 1 6.22-2.33 11.87 11.87 0 0 1 3.81.78 15.77 15.77 0 0 0 2.55.78 1.45 1.45 0 0 0 1.18-.41 2.86 2.86 0 0 0 .52-1.15h.95l1 9.86h-1.11q-1.12-4.45-3.63-6.22a8.59 8.59 0 0 0 -4.94-1.76 5.14 5.14 0 0 0 -3.27 1.12 3.72 3.72 0 0 0 -1.42 3.11 4.49 4.49 0 0 0 1.09 3 13.76 13.76 0 0 0 3.33 2.74l4.07 2.51a21.51 21.51 0 0 1 5.39 4.32 7.52 7.52 0 0 1 1.54 4.7 7.83 7.83 0 0 1 -2.75 6.09 10.16 10.16 0 0 1 -7 2.44 13.73 13.73 0 0 1 -4.49-.81 16.36 16.36 0 0 0 -2.68-.82 1.16 1.16 0 0 0 -1.1.5 3.12 3.12 0 0 0 -.37 1.06h-1l-1.42-9.84z"/><path d="m186.81 369.45v-.86a3.74 3.74 0 0 0 2.68-1.34 36.18 36.18 0 0 0 3.06-6.26l9.65-22.73h.93l11.54 26.26a10.87 10.87 0 0 0 1.84 3.23 4.41 4.41 0 0 0 2.32.84v.86h-11.78v-.86a10.17 10.17 0 0 0 2.62-.44c.39-.17.58-.6.58-1.27a5.43 5.43 0 0 0 -.22-1.19 11.88 11.88 0 0 0 -.64-1.8l-1.85-4.46h-12.21q-1.8 4.54-2.15 5.55a5 5 0 0 0 -.35 1.58 1.63 1.63 0 0 0 .95 1.63 7.61 7.61 0 0 0 2.21.4v.86zm19.95-11.89-5.31-12.76-5.33 12.76z"/></g></svg>