<svg viewBox="0 0 400 400" xmlns="http://www.w3.org/2000/svg"><g fill="#f5f5f5"><path d="m78.29 210.23 34.09 57.56h-3.92c-6.7 0-13.39 0-20.09 0a2 2 0 0 1 -2-1.12q-20.89-35.19-41.85-70.34c-.26-.44-.47-.9-.9-1.74h9c6 .07 12-.36 17.7-2.6 6.77-2.65 11.75-7.05 13.28-14.45 2.29-11.08-3.3-20.49-14.35-23.84a40.25 40.25 0 0 0 -10.85-1.67c-11.76-.21-23.51-.08-35.27-.08-.36 0-.73 0-1.27.08v115.4h-21.43c0-.58-.07-1.14-.07-1.7q0-65.72 0-131.42c0-1.08-.06-1.9 1.49-1.89 20.83.09 41.66-.29 62.47.32 13.84.4 26 5.61 34.75 17a38 38 0 0 1 -10.77 55.54c-2.58 1.6-5.43 2.78-8.15 4.14-.56.28-1.15.5-1.86.81z"/><path d="m144.9 240.1c4.82 2.2 9.4 4.6 14.2 6.42a71.69 71.69 0 0 0 39.58 3.74 28.5 28.5 0 0 0 10.86-4.5c8.51-5.85 9.92-20.23 1.09-27.35a45.35 45.35 0 0 0 -14.9-7.76c-8.47-2.69-17-5-25.52-7.69a74.58 74.58 0 0 1 -21.08-10.23c-18.68-13.34-16.63-42.74 3.14-54.4a58.76 58.76 0 0 1 23.24-7.59c17.43-2.09 34.33.33 50.77 6.32 1.68.62 3.29 1.4 4.94 2.11a6.82 6.82 0 0 1 .67.41c-3 5.59-5.92 11.15-8.92 16.77-2.5-1-4.9-2-7.37-2.82-9.5-3.18-19.21-5.17-29.28-4.89a40.69 40.69 0 0 0 -15.54 3.14c-5.08 2.24-8.9 5.65-9.89 11.42-.94 5.45.47 10.13 4.77 13.77a35.88 35.88 0 0 0 12.34 6.53c7.66 2.47 15.4 4.66 23.11 7 8.79 2.64 17.43 5.65 25.06 11 8.05 5.61 13.3 13.09 14.44 22.95 1.83 15.78-3.83 28.29-17.16 37.11a56.08 56.08 0 0 1 -24.03 8.44 100 100 0 0 1 -49.27-5.36c-5.09-1.94-9.91-4.6-14.85-6.94a7.44 7.44 0 0 1 -.9-.62c3.6-5.74 7.1-11.46 10.5-16.98z"/><path d="m326.62 162.22c-.35.69-.6 1.14-.8 1.6q-22.29 51.26-44.56 102.52a2.11 2.11 0 0 1 -2.31 1.53c-7.59-.07-15.18 0-22.77 0h-1.86c.3-.78.51-1.4.77-2q27.74-61.87 55.48-123.79c1.1-2.45 2.25-4.87 3.27-7.35a1.94 1.94 0 0 1 2.11-1.41c7.11 0 14.23 0 21.35-.07a2.5 2.5 0 0 1 2.7 1.75q29.73 65 59.52 129.91c.37.81.73 1.62 1.15 2.57a6 6 0 0 1 -1.12.23c-8 0-15.92 0-23.88.12-1.18 0-1.36-.72-1.71-1.48q-11.51-25.38-23-50.75l-23.37-51.47c-.31-.55-.59-1.13-.97-1.91z"/></g></svg>