<svg viewBox="0 0 400 400" xmlns="http://www.w3.org/2000/svg"><g fill="#f5f5f5"><path d="m344.1 113.25c.32 11.08.64 21.22.79 31.33 0 .83-1.13 1.91-2 2.49-9.58 6.48-19.69 7-29.71 1.51-12.82-7-25.38-14.58-38-22l-86.83-50.72a6.92 6.92 0 0 1 -3.6-5c-2.52-11.29-5.17-22.6-7.75-33.86l-.94-.11c-7.89 34.27-15.78 68.54-23.79 103.3-2.52-1.38-5-2.61-7.43-4q-50.49-29.6-100.84-59.19c-11.3-6.65-22.55-7.49-34.21 0-.14-1.06-.28-1.68-.3-2.31-.24-9-.38-18-.74-27a4.82 4.82 0 0 1 2.59-4.73c11.32-7.31 22.25-5.46 33.18 1q38.27 22.55 76.62 45c3.56 2.08 7.15 4.16 11.27 6.5 1.51-6.08 3-11.77 4.38-17.52q8.37-33.88 16.76-67.71c1.39-5.54 5-8.26 10.81-8.31 9.69 0 19.38.07 29.08 0a10.94 10.94 0 0 1 8.74 4.08 4.81 4.81 0 0 0 3.09 1.38c4 .16 8.08.06 12.12.06 8.47 0 12.95 3.76 14 12a43.53 43.53 0 0 1 0 8.31 3 3 0 0 1 -1.65 2.25c-.5.16-1.81-.81-2.08-1.51-1.1-3-2.86-3.77-5.91-2.65-4.21 1.53-8.54 2.76-12.85 4-1.94.56-2.59 1.47-2 3.52 1.89 7.1 3.57 14.31 5.57 21.36a6.73 6.73 0 0 0 2.89 3.54c17.16 10.18 34.39 20.19 51.58 30.26 13.16 7.68 26.36 15.2 39.33 23.12 12.07 7.42 24.17 10.97 37.83 1.61z"/><path d="m261.88 389.69c2.83-7.5 5.68-15 8.49-22.5 7.71-20.61 15.31-41.26 23.18-61.81 1.39-3.64 1.68-6.78-.21-10.15a21.25 21.25 0 0 1 -1.12-3.35c6.88 0 13.41-.07 19.94.11.69 0 1.63 1.38 2 2.33q13.15 37.13 26.19 74.3c3.2 9.1 6.39 18.2 9.77 27.84-7 0-13.47.07-20-.1-.73 0-1.74-1.32-2.07-2.23-1.6-4.23-3.08-8.47-4.37-12.74-.69-2.15-1.55-3.17-4.07-3.13-10.15.19-20.3.29-30.46 0-3.46-.09-4.84 1.17-5.72 4.28a115.37 115.37 0 0 1 -4.11 11.72 3.62 3.62 0 0 1 -2.47 2.08c-11.65.14-23.29.09-35 .09-1.82-5.35-3.63-10.54-5.31-15.76a2.84 2.84 0 0 0 -3.17-2.35c-11 .08-21.92.1-32.88 0-2.07 0-2.77.87-3.33 2.56-1.46 4.48-2.92 9-4.59 13.39a3.58 3.58 0 0 1 -2.5 2.08c-5.62.19-11.27.1-17.43.1 1.89-5.11 3.62-9.82 5.37-14.54 9.75-26 19.54-52 29.13-78 .75-2.05.28-4.64 0-6.93-.18-1.53-1-3-1.81-5.19h12.67c8.53 0 8.57 0 11.37 7.95q15 42.93 30 85.8c.48 1.38 1.07 2.72 1.61 4.09zm-43.88-65.84h-.88l-14.05 40h27.49c-4.27-13.65-8.41-26.85-12.56-40.07zm71.91 40.15h27.53c-4.27-13.6-8.44-26.88-12.6-40.16h-.84c-4.67 13.21-9.32 26.44-14.11 40.12z"/><path d="m343.94 157.77a11.36 11.36 0 0 1 .23 1.64c.27 8.86.46 17.74.84 26.6.09 2.22-.92 3.28-2.6 4.35-10.71 6.93-21.35 6-31.94-.2q-26.7-15.58-53.37-31.16c-19.1-11.23-38.1-22.46-57.26-33.57a7.22 7.22 0 0 1 -3.77-5.29c-2.14-10.13-4.59-20.19-6.92-30.29-.28-1.2-.49-2.42-.87-4.38 5 2.89 9.44 5.42 13.84 8q52.49 30.71 104.94 61.53c6.66 3.93 13.41 7.66 21.3 6.79 5.21-.6 10.28-2.64 15.58-4.02z"/><path d="m199.49 134.88 21.66 12.64 88.48 51.93c11 6.45 22 7.68 33.19.69a8 8 0 0 1 1.25-.43c.28 8.09.63 16 .8 23.87.05 2.83.69 7.22-.73 8.18a40.36 40.36 0 0 1 -14.06 6c-7.44 1.55-14.26-1.57-20.61-5.28q-49.25-28.73-98.38-57.62a7.23 7.23 0 0 1 -3.21-3.94c-2.88-11.61-5.46-23.27-8.39-36.04z"/><path d="m9.72 119.54c-.28-6.15-.58-12.08-.79-18-.12-3.23.17-6.49-.2-9.69s.88-4.7 3.47-6.23c11-6.62 21.56-4.85 32 1.24q27.32 16 54.59 32c16.11 9.44 32.2 18.91 48.34 28.27 2.23 1.29 3 2.51 2.34 5.21-2.14 8.45-3.94 17-6 25.93-6.79-4-13.24-7.73-19.67-11.5l-78.71-46.2c-11.09-6.57-22.24-8.63-33.84-1.39a5.87 5.87 0 0 1 -1.53.36z"/><path d="m211 184.54c15.82 9.24 31 18.11 46.2 27 17.69 10.39 35.31 20.83 53.06 31.12 10.51 6.1 21.24 7.34 32.05.58a10.18 10.18 0 0 1 1.51-.57 15.56 15.56 0 0 1 .43 2.36c.26 8.87.43 17.74.76 26.6a4.47 4.47 0 0 1 -2.41 4.41c-10.57 6.87-21.17 6.23-31.66.16q-44.65-26-89.16-52.25a5.17 5.17 0 0 1 -2.43-2.67c-2.83-11.95-5.48-23.95-8.35-36.74z"/><path d="m72.45 292h17.66c.06 1.38.16 2.58.16 3.8 0 20.65.27 41.29-.1 61.93-.23 12.56-3.4 24.2-13.65 32.71-6.77 5.6-14.73 7.88-23.34 8.19-10.38.38-20.54-.6-29.32-6.93-9.26-6.7-13.25-16.49-13.53-27.25-.61-23.74-.33-47.45-.41-71.25a6 6 0 0 1 .27-1h19.16v4c0 20-.08 39.91.06 59.85 0 6.36 1.12 12.58 4.69 18.1 4.39 6.81 11.08 9.13 18.51 8.14 13.72-1.85 19.75-9.32 19.82-23.47.07-20.77 0-41.54 0-62.27z"/><path d="m141.48 186.8c-2.22 9.73-4.38 19.11-6.66 29.08-3.65-2.08-7.12-3.94-10.53-5.94-26.29-15.44-52.61-30.94-78.92-46.33-7.7-4.46-15.82-7.92-25-5.31-3.5 1-6.82 2.63-10.46 4.07a11.93 11.93 0 0 1 -.43-2.14c-.24-9-.4-18-.75-26.94a4.15 4.15 0 0 1 2.27-4.12c11.07-7.19 22-5.94 32.87.43q17.6 10.31 35.21 20.55l59.61 34.91c.92.53 1.78 1.1 2.79 1.74z"/><path d="m125.61 253.59c-9.19-5.38-18.14-10.59-27.07-15.83-17.39-10.2-34.82-20.33-52.12-30.67-11.88-7.09-23.81-9.86-36.51-1.18a23.81 23.81 0 0 1 -.44-2.77c-.25-8.76-.32-17.52-.8-26.26-.15-2.85 1.18-4.11 3.26-5.39 10.59-6.54 21.07-5.32 31.32.64q37.5 21.81 74.86 43.83c4.28 2.51 8.57 5 12.75 7.61.77.49 1.67 1.83 1.51 2.55-1.91 8.76-4 17.48-6.07 26.19a6.33 6.33 0 0 1 -.69 1.28z"/><path d="m103.23 376.07c6 2 11.57 4.2 17.31 5.54 6.48 1.54 13.16 2.39 19.6-.43 4.5-2 7.76-5 8.4-10.12.69-5.69-1.3-10.32-6.34-13.16-5.42-3-11.07-5.65-16.66-8.37-8.36-4.07-16-8.94-19.28-18.27-5.86-16.78 3-33.41 20.17-38.61 12.58-3.8 24.81-2.5 36.8 2.31a4.16 4.16 0 0 1 2.36 2.77c.24 5.26.11 10.54.11 16.52-1.86-1.23-3.25-2.15-4.64-3.05a34.82 34.82 0 0 0 -24.15-5.2c-6.38.82-11.69 5.28-12.64 10.26-1.09 5.75 1.43 11.46 7.35 14.78 6.32 3.54 13 6.5 19.47 9.7s12 7.75 15.15 14.53c7.32 16.06-.9 34.29-18.11 40.65-7.9 2.91-16 2.89-24.23 2.22-5.46-.46-10.86-1.62-16.29-2.46a3 3 0 0 1 -2.85-3.18c-.36-5.5-1-11.03-1.53-16.43z"/><path d="m372.2 329.28c-11.2-.11-20.93-9.27-20.71-20 .27-12.87 11.6-20.56 22-20.07 11.34.57 20.62 8.44 20.5 20.07-.12 12.37-10.29 20.25-21.79 20zm18-20.17c0-9.3-7.7-16.55-17.54-16.52s-17.7 7.71-17.59 17.05c.1 8.95 8 16.28 17.57 16.33 10.05 0 17.57-7.17 17.58-16.86z"/><path d="m376.76 309.72 7.84 8.45c-4.41 1.75-7.16-.09-9.56-3.27a37.26 37.26 0 0 0 -3.51-3.6l-1.09.59c0 1.44-.08 2.88 0 4.31.13 1.94-.64 2.65-2.6 2.6s-2.69-.59-2.66-2.59c.1-4.94 0-9.88.08-14.83 0-.78.87-2.16 1.39-2.2 3.28-.21 6.68-.59 9.83.09a6.52 6.52 0 0 1 4.19 4.23c.33 1.68-1.38 3.69-2.36 5.5-.13.32-.79.39-1.55.72zm-6.1-7.69v6.41c3.07.79 4.58-.62 4.66-3.2.08-2.9-2-3.41-4.66-3.21z"/></g></svg>