<svg viewBox="0 0 400 400" xmlns="http://www.w3.org/2000/svg"><g fill="#f5f5f5"><path d="m10.19 129.06h21.15v61.17q0 10.26 2.42 15 3.78 8.37 16.43 8.37t16.36-8.37q2.43-4.72 2.43-15v-61.17h21.15v61.22q0 15.87-4.93 24.73-9.17 16.22-35 16.22t-35.09-16.23q-4.92-8.85-4.92-24.73z"/><path d="m125.13 197.91q1 6.83 3.8 10.21 5.17 6.15 17.73 6.14a38.2 38.2 0 0 0 12.21-1.62q8.9-3.1 8.9-11.55a8.51 8.51 0 0 0 -4.36-7.64q-4.36-2.62-13.83-4.66l-10.78-2.37q-15.9-3.51-21.84-7.63-10.08-6.9-10.07-21.56a28.61 28.61 0 0 1 9.85-22.23q9.84-8.85 28.93-8.85 15.95 0 27.19 8.34t11.8 24.23h-20q-.56-9-8-12.77a27.5 27.5 0 0 0 -12.4-2.5q-8.25 0-13.17 3.24a10.25 10.25 0 0 0 -4.91 9.06 8.54 8.54 0 0 0 4.84 8q3.12 1.75 13.24 4.12l17.45 4.13q11.49 2.72 17.22 7.23 8.91 7 8.91 20.34a28.59 28.59 0 0 1 -10.55 22.67q-10.56 9-29.82 9-19.66 0-30.94-8.89t-11.26-24.43z"/><path d="m202.1 129.06h21.82l39.53 69.45v-69.45h19.4v99.6h-20.85l-40.51-70.66v70.67h-19.39z"/><path d="m330.86 129.06h23.55l35.24 99.6h-22.57l-6.57-20.48h-36.68l-6.76 20.48h-21.77zm-1.37 62h25.51l-12.59-39.19z"/><path d="m11.48 258.82v-.45h5.81v.45h-.62a1.67 1.67 0 0 0 -1.49.81 3.7 3.7 0 0 0 -.25 1.74v6.63a11.9 11.9 0 0 1 -.49 3.83 4.82 4.82 0 0 1 -1.93 2.34 6.84 6.84 0 0 1 -3.9 1 7.35 7.35 0 0 1 -4.08-.94 5 5 0 0 1 -2-2.5 14.35 14.35 0 0 1 -.38-4.05v-6.41a3.23 3.23 0 0 0 -.42-2 1.74 1.74 0 0 0 -1.35-.47h-.6v-.45h7.1v.45h-.63a1.63 1.63 0 0 0 -1.46.64 3.63 3.63 0 0 0 -.3 1.82v7.15a15.31 15.31 0 0 0 .18 2.19 4.65 4.65 0 0 0 .63 1.93 3.49 3.49 0 0 0 1.33 1.14 4.53 4.53 0 0 0 2.12.44 5.79 5.79 0 0 0 2.88-.7 3.77 3.77 0 0 0 1.74-1.8 10.38 10.38 0 0 0 .47-3.71v-6.64a3.45 3.45 0 0 0 -.34-1.93 1.8 1.8 0 0 0 -1.41-.53z"/><path d="m17.23 258.37h4.45l10 12.31v-9.46a3.22 3.22 0 0 0 -.34-1.89 1.8 1.8 0 0 0 -1.42-.51h-.57v-.45h5.72v.45h-.58a1.67 1.67 0 0 0 -1.48.63 3.65 3.65 0 0 0 -.27 1.77v13.83h-.43l-10.79-13.22v10.11a3.33 3.33 0 0 0 .33 1.89 1.82 1.82 0 0 0 1.42.51h.58v.45h-5.72v-.45h.57a1.67 1.67 0 0 0 1.49-.63 3.65 3.65 0 0 0 .27-1.77v-11.41a8.23 8.23 0 0 0 -1.08-1.11 4.18 4.18 0 0 0 -1.09-.49 3.92 3.92 0 0 0 -1.06-.11z"/><path d="m43.11 274.34v.45h-7v-.45h.58a1.78 1.78 0 0 0 1.48-.59 3.75 3.75 0 0 0 .29-1.87v-10.6a5.63 5.63 0 0 0 -.16-1.65 1.13 1.13 0 0 0 -.5-.52 2.3 2.3 0 0 0 -1.11-.29h-.58v-.45h7v.45h-.59a1.77 1.77 0 0 0 -1.47.59 3.6 3.6 0 0 0 -.3 1.87v10.6a5.29 5.29 0 0 0 .16 1.65 1.1 1.1 0 0 0 .51.52 2.23 2.23 0 0 0 1.1.29z"/><path d="m58.06 258.37.19 3.85h-.46a4.43 4.43 0 0 0 -.37-1.45 2.45 2.45 0 0 0 -1-1 3.49 3.49 0 0 0 -1.64-.33h-2.31v12.54a3.33 3.33 0 0 0 .33 1.89 1.8 1.8 0 0 0 1.41.51h.57v.45h-7v-.45h.58a1.67 1.67 0 0 0 1.48-.63 3.65 3.65 0 0 0 .27-1.77v-12.58h-2a5.59 5.59 0 0 0 -1.63.17 2.26 2.26 0 0 0 -1.08.88 3.53 3.53 0 0 0 -.53 1.77h-.46l.19-3.85z"/><path d="m64 259.27v6.49h3.61a2.9 2.9 0 0 0 1.88-.43 2.72 2.72 0 0 0 .7-2h.45v5.72h-.45a5.74 5.74 0 0 0 -.34-1.54 1.5 1.5 0 0 0 -.71-.67 3.68 3.68 0 0 0 -1.53-.24h-3.61v5.41a5.22 5.22 0 0 0 .1 1.33.81.81 0 0 0 .34.37 2 2 0 0 0 .92.14h2.79a7.57 7.57 0 0 0 2-.19 3.14 3.14 0 0 0 1.21-.76 9.22 9.22 0 0 0 1.64-2.23h.49l-1.49 4.12h-12.63v-.45h.63a2.22 2.22 0 0 0 1.1-.28 1 1 0 0 0 .53-.58 5.84 5.84 0 0 0 .14-1.59v-10.66a3.69 3.69 0 0 0 -.31-1.93 1.91 1.91 0 0 0 -1.46-.48h-.58v-.45h12.58l.18 3.6h-.47a5.77 5.77 0 0 0 -.56-1.78 1.92 1.92 0 0 0 -.91-.74 5.61 5.61 0 0 0 -1.71-.18z"/><path d="m74.43 274.79v-.45h.62a1.63 1.63 0 0 0 1.48-.67 3.89 3.89 0 0 0 .26-1.79v-10.6a3.36 3.36 0 0 0 -.34-1.93 1.78 1.78 0 0 0 -1.4-.53h-.62v-.45h6.68a14.51 14.51 0 0 1 5.6.84 6.62 6.62 0 0 1 3.09 2.79 8.58 8.58 0 0 1 1.17 4.5 8.2 8.2 0 0 1 -2.08 5.73q-2.34 2.56-7.12 2.57zm4.69-1.19a12 12 0 0 0 2.58.34 6.15 6.15 0 0 0 4.66-2 8.69 8.69 0 0 0 0-10.72 6.25 6.25 0 0 0 -4.76-2 10.45 10.45 0 0 0 -2.48.35z"/><path d="m109.48 258v5.67h-.48a6.9 6.9 0 0 0 -.78-2.6 4.09 4.09 0 0 0 -1.6-1.54 4.45 4.45 0 0 0 -2.16-.57 2.94 2.94 0 0 0 -2.08.77 2.35 2.35 0 0 0 -.82 1.75 2.06 2.06 0 0 0 .52 1.37 13.29 13.29 0 0 0 3.57 2.42 25.5 25.5 0 0 1 3.14 1.9 4.79 4.79 0 0 1 1.3 1.55 4.16 4.16 0 0 1 .45 1.88 4.23 4.23 0 0 1 -1.45 3.21 5.22 5.22 0 0 1 -3.72 1.35 7.13 7.13 0 0 1 -1.34-.11 12.49 12.49 0 0 1 -1.56-.44 7.25 7.25 0 0 0 -1.49-.38.62.62 0 0 0 -.48.18 1.36 1.36 0 0 0 -.26.75h-.45v-5.63h.45a8.16 8.16 0 0 0 .84 2.65 4.17 4.17 0 0 0 1.63 1.46 5 5 0 0 0 2.41.58 3.43 3.43 0 0 0 2.39-.8 2.49 2.49 0 0 0 .88-1.89 2.59 2.59 0 0 0 -.34-1.22 3.54 3.54 0 0 0 -1-1.15c-.32-.24-1.18-.76-2.58-1.54a25.21 25.21 0 0 1 -3-1.89 5.13 5.13 0 0 1 -1.35-1.55 3.88 3.88 0 0 1 -.46-1.86 4 4 0 0 1 1.36-3.05 4.82 4.82 0 0 1 3.45-1.27 6.89 6.89 0 0 1 2.77.64 2.84 2.84 0 0 0 1 .3.69.69 0 0 0 .51-.19 1.39 1.39 0 0 0 .25-.75z"/><path d="m126.25 258.37.18 3.85h-.43a4.76 4.76 0 0 0 -.36-1.45 2.51 2.51 0 0 0 -1-1 3.51 3.51 0 0 0 -1.64-.33h-2.32v12.54a3.33 3.33 0 0 0 .33 1.89 1.82 1.82 0 0 0 1.42.51h.57v.45h-7v-.45h.58a1.66 1.66 0 0 0 1.47-.63 3.65 3.65 0 0 0 .27-1.77v-12.58h-2a5.67 5.67 0 0 0 -1.64.17 2.19 2.19 0 0 0 -1.07.88 3.63 3.63 0 0 0 -.54 1.77h-.46l.2-3.85z"/><path d="m136.41 269.29h-6.36l-1.11 2.59a4.08 4.08 0 0 0 -.42 1.43.83.83 0 0 0 .36.66 3.15 3.15 0 0 0 1.54.37v.45h-5.16v-.45a2.83 2.83 0 0 0 1.33-.47 7.56 7.56 0 0 0 1.36-2.36l5.78-13.51h.42l5.72 13.65a6.35 6.35 0 0 0 1.25 2.14 2.55 2.55 0 0 0 1.57.55v.45h-6.48v-.45a2.37 2.37 0 0 0 1.33-.33.82.82 0 0 0 .34-.67 5.07 5.07 0 0 0 -.48-1.69zm-.34-.89-2.79-6.64-2.86 6.64z"/><path d="m154.57 258.37.18 3.85h-.46a4.43 4.43 0 0 0 -.37-1.45 2.49 2.49 0 0 0 -1-1 3.54 3.54 0 0 0 -1.64-.33h-2.28v12.54a3.33 3.33 0 0 0 .33 1.89 1.82 1.82 0 0 0 1.42.51h.57v.45h-7v-.45h.58a1.67 1.67 0 0 0 1.48-.63 3.65 3.65 0 0 0 .27-1.77v-12.58h-2a5.59 5.59 0 0 0 -1.63.17 2.26 2.26 0 0 0 -1.08.88 3.63 3.63 0 0 0 -.53 1.77h-.41l.19-3.85z"/><path d="m160.55 259.27v6.49h3.6a2.88 2.88 0 0 0 1.88-.43 2.72 2.72 0 0 0 .7-2h.45v5.72h-.45a5.74 5.74 0 0 0 -.34-1.54 1.5 1.5 0 0 0 -.71-.67 3.68 3.68 0 0 0 -1.53-.24h-3.6v5.41a5.44 5.44 0 0 0 .09 1.33.81.81 0 0 0 .34.37 2 2 0 0 0 .92.14h2.79a7.52 7.52 0 0 0 2-.19 3.14 3.14 0 0 0 1.21-.76 9.5 9.5 0 0 0 1.54-2.27h.48l-1.42 4.12h-12.63v-.45h.59a2.28 2.28 0 0 0 1.1-.28 1 1 0 0 0 .52-.58 5.45 5.45 0 0 0 .14-1.59v-10.62a3.59 3.59 0 0 0 -.31-1.93 1.89 1.89 0 0 0 -1.45-.48h-.59v-.45h12.65l.19 3.6h-.48a5.27 5.27 0 0 0 -.56-1.78 1.88 1.88 0 0 0 -.91-.74 5.56 5.56 0 0 0 -1.71-.18z"/><path d="m181.88 258v5.67h-.45a7.08 7.08 0 0 0 -.78-2.6 4.16 4.16 0 0 0 -1.6-1.54 4.47 4.47 0 0 0 -2.16-.57 2.94 2.94 0 0 0 -2.08.77 2.36 2.36 0 0 0 -.83 1.75 2.07 2.07 0 0 0 .53 1.37 13.29 13.29 0 0 0 3.57 2.42 25.5 25.5 0 0 1 3.14 1.9 4.64 4.64 0 0 1 1.29 1.55 4 4 0 0 1 .46 1.88 4.23 4.23 0 0 1 -1.45 3.21 5.22 5.22 0 0 1 -3.72 1.35 7.24 7.24 0 0 1 -1.35-.11 12.52 12.52 0 0 1 -1.55-.44 7.28 7.28 0 0 0 -1.5-.38.61.61 0 0 0 -.47.18 1.36 1.36 0 0 0 -.26.75h-.45v-5.63h.45a8.16 8.16 0 0 0 .84 2.65 4.17 4.17 0 0 0 1.63 1.46 5 5 0 0 0 2.4.58 3.46 3.46 0 0 0 2.4-.8 2.48 2.48 0 0 0 .87-1.89 2.57 2.57 0 0 0 -.33-1.22 3.66 3.66 0 0 0 -1-1.15c-.32-.24-1.18-.76-2.58-1.54a24.38 24.38 0 0 1 -3-1.89 5.13 5.13 0 0 1 -1.35-1.55 3.77 3.77 0 0 1 -.46-1.86 4 4 0 0 1 1.36-3.05 4.82 4.82 0 0 1 3.45-1.27 6.89 6.89 0 0 1 2.77.64 2.84 2.84 0 0 0 1 .3.69.69 0 0 0 .51-.19 1.47 1.47 0 0 0 .32-.75z"/><path d="m190.17 258.37h4.46l10 12.31v-9.46a3.22 3.22 0 0 0 -.34-1.89 1.77 1.77 0 0 0 -1.41-.51h-.57v-.45h5.71v.45h-.58a1.68 1.68 0 0 0 -1.48.63 3.82 3.82 0 0 0 -.26 1.77v13.83h-.44l-10.82-13.22v10.11a3.33 3.33 0 0 0 .33 1.89 1.79 1.79 0 0 0 1.41.51h.58v.45h-5.71v-.45h.57a1.68 1.68 0 0 0 1.49-.63 3.68 3.68 0 0 0 .26-1.77v-11.41a7.16 7.16 0 0 0 -1.08-1.11 4.25 4.25 0 0 0 -1.08-.49 4 4 0 0 0 -1.07-.11z"/><path d="m219.75 269.29h-6.36l-1.11 2.59a4 4 0 0 0 -.41 1.43.85.85 0 0 0 .35.66 3.2 3.2 0 0 0 1.55.37v.45h-5.17v-.45a2.78 2.78 0 0 0 1.33-.47 7.54 7.54 0 0 0 1.37-2.36l5.77-13.51h.43l5.71 13.65a6.35 6.35 0 0 0 1.25 2.14 2.55 2.55 0 0 0 1.57.55v.45h-6.48v-.45a2.37 2.37 0 0 0 1.33-.33.83.83 0 0 0 .35-.67 5.16 5.16 0 0 0 -.49-1.69zm-.34-.89-2.78-6.64-2.86 6.64z"/><path d="m240.72 258.37v.45a2.6 2.6 0 0 0 -1.32.56 5 5 0 0 0 -1.14 1.81l-5.73 14h-.44l-6.15-14.19a7.78 7.78 0 0 0 -.67-1.33 2.13 2.13 0 0 0 -.74-.59 3.55 3.55 0 0 0 -1.2-.27v-.45h6.67v.45a3 3 0 0 0 -1.48.39.89.89 0 0 0 -.34.71 5.58 5.58 0 0 0 .56 1.89l4.18 9.62 3.87-9.5a6.44 6.44 0 0 0 .57-1.95.89.89 0 0 0 -.35-.67 2.26 2.26 0 0 0 -1.19-.45h-.2v-.45z"/><path d="m249.17 269.29h-6.36l-1.11 2.59a4.24 4.24 0 0 0 -.41 1.43.83.83 0 0 0 .36.66 3.11 3.11 0 0 0 1.54.37v.45h-5.19v-.45a2.78 2.78 0 0 0 1.33-.47 7.54 7.54 0 0 0 1.37-2.36l5.79-13.51h.43l5.71 13.65a6.17 6.17 0 0 0 1.26 2.14 2.5 2.5 0 0 0 1.56.55v.45h-6.45v-.45a2.35 2.35 0 0 0 1.32-.33.83.83 0 0 0 .35-.67 5.16 5.16 0 0 0 -.49-1.69zm-.34-.89-2.78-6.64-2.86 6.64z"/><path d="m270 270.25.4.08-1.41 4.46h-12.76v-.45h.62a1.66 1.66 0 0 0 1.49-.68 3.9 3.9 0 0 0 .25-1.79v-10.59a3.36 3.36 0 0 0 -.34-1.93 1.78 1.78 0 0 0 -1.4-.53h-.62v-.45h7.43v.45a4.48 4.48 0 0 0 -1.83.24 1.48 1.48 0 0 0 -.72.64 5.22 5.22 0 0 0 -.2 1.85v10.32a3.31 3.31 0 0 0 .2 1.38.9.9 0 0 0 .45.38 7.92 7.92 0 0 0 1.89.12h1.19a8.8 8.8 0 0 0 2.65-.28 3.54 3.54 0 0 0 1.4-1 8 8 0 0 0 1.31-2.22z"/><path d="m286.13 269.29h-6.35l-1.12 2.59a4.24 4.24 0 0 0 -.41 1.43.83.83 0 0 0 .36.66 3.11 3.11 0 0 0 1.54.37v.45h-5.15v-.45a2.78 2.78 0 0 0 1.33-.47 7.35 7.35 0 0 0 1.37-2.36l5.76-13.51h.42l5.72 13.65a6.19 6.19 0 0 0 1.25 2.14 2.53 2.53 0 0 0 1.57.55v.45h-6.48v-.45a2.35 2.35 0 0 0 1.32-.33.83.83 0 0 0 .35-.67 4.91 4.91 0 0 0 -.49-1.69zm-.34-.89-2.79-6.64-2.86 6.64z"/><path d="m307.62 258 .38 5.58h-.38a7 7 0 0 0 -2.14-3.61 5.19 5.19 0 0 0 -3.34-1.1 5.17 5.17 0 0 0 -5 3.47 11.69 11.69 0 0 0 -.76 4.52 9.53 9.53 0 0 0 .72 3.86 5.39 5.39 0 0 0 2.14 2.51 6.21 6.21 0 0 0 3.28.87 5.64 5.64 0 0 0 2.82-.69 9.24 9.24 0 0 0 2.66-2.71l.37.24a8.6 8.6 0 0 1 -2.88 3.21 8.11 8.11 0 0 1 -10.23-2 8.68 8.68 0 0 1 -1.67-5.31 9.43 9.43 0 0 1 1.1-4.51 8 8 0 0 1 3-3.19 8.16 8.16 0 0 1 4.22-1.13 7.79 7.79 0 0 1 3.52.87 2 2 0 0 0 .72.26.77.77 0 0 0 .57-.23 1.87 1.87 0 0 0 .45-.9z"/><path d="m320.58 269.29h-6.36l-1.11 2.59a4.08 4.08 0 0 0 -.42 1.43.83.83 0 0 0 .36.66 3.2 3.2 0 0 0 1.55.37v.45h-5.17v-.45a2.83 2.83 0 0 0 1.33-.47 7.74 7.74 0 0 0 1.37-2.36l5.77-13.51h.43l5.67 13.65a6.35 6.35 0 0 0 1.25 2.14 2.55 2.55 0 0 0 1.57.55v.45h-6.48v-.45a2.37 2.37 0 0 0 1.33-.33.82.82 0 0 0 .34-.67 5.07 5.07 0 0 0 -.48-1.69zm-.34-.89-2.79-6.64-2.85 6.64z"/><path d="m327.56 274.79v-.45h.62a1.63 1.63 0 0 0 1.48-.67 3.76 3.76 0 0 0 .26-1.79v-10.6a3.48 3.48 0 0 0 -.33-1.93 1.82 1.82 0 0 0 -1.41-.53h-.62v-.45h6.69a14.54 14.54 0 0 1 5.6.84 6.6 6.6 0 0 1 3.08 2.78 8.58 8.58 0 0 1 1.17 4.5 8.2 8.2 0 0 1 -2.08 5.73q-2.34 2.56-7.12 2.57zm4.69-1.19a12 12 0 0 0 2.58.34 6.15 6.15 0 0 0 4.66-2 8.69 8.69 0 0 0 0-10.72 6.25 6.25 0 0 0 -4.76-2 10.52 10.52 0 0 0 -2.48.35z"/><path d="m350.23 259.27v6.49h3.61a2.87 2.87 0 0 0 1.87-.43 2.68 2.68 0 0 0 .7-2h.45v5.72h-.45a6.33 6.33 0 0 0 -.33-1.54 1.57 1.57 0 0 0 -.72-.67 3.66 3.66 0 0 0 -1.52-.24h-3.61v5.41a4.77 4.77 0 0 0 .1 1.33.74.74 0 0 0 .33.37 2 2 0 0 0 .92.14h2.79a7.52 7.52 0 0 0 2-.19 3.14 3.14 0 0 0 1.21-.76 9.22 9.22 0 0 0 1.54-2.27h.48l-1.41 4.12h-12.63v-.45h.58a2.28 2.28 0 0 0 1.1-.28 1 1 0 0 0 .53-.58 6 6 0 0 0 .13-1.59v-10.62a3.59 3.59 0 0 0 -.31-1.93 1.89 1.89 0 0 0 -1.45-.48h-.58v-.45h12.65l.18 3.6h-.47a5.46 5.46 0 0 0 -.57-1.78 1.88 1.88 0 0 0 -.91-.74 5.52 5.52 0 0 0 -1.71-.18z"/><path d="m370.34 274.79-6.34-13.79v11a3.33 3.33 0 0 0 .33 1.89 1.8 1.8 0 0 0 1.42.51h.58v.45h-5.73v-.45h.59a1.66 1.66 0 0 0 1.47-.63 3.65 3.65 0 0 0 .27-1.77v-10.78a3.79 3.79 0 0 0 -.24-1.58 1.4 1.4 0 0 0 -.63-.59 3.47 3.47 0 0 0 -1.46-.23v-.45h4.65l6 12.85 5.86-12.85h4.65v.45h-.57a1.68 1.68 0 0 0 -1.49.63 3.65 3.65 0 0 0 -.27 1.77v10.72a3.31 3.31 0 0 0 .34 1.89 1.8 1.8 0 0 0 1.42.51h.57v.45h-7v-.45h.59a1.63 1.63 0 0 0 1.47-.63 3.65 3.65 0 0 0 .27-1.77v-10.94l-6.33 13.82z"/><path d="m394.06 258.37h5.72v.45h-.31a2.38 2.38 0 0 0 -.92.28 3.38 3.38 0 0 0 -1.1.8 10.34 10.34 0 0 0 -1.23 1.69l-4 6.24v4.11a3.31 3.31 0 0 0 .34 1.89 1.88 1.88 0 0 0 1.46.51h.53v.45h-7v-.45h.58a1.67 1.67 0 0 0 1.48-.63 3.65 3.65 0 0 0 .27-1.77v-3.88l-4.5-6.88a14.55 14.55 0 0 0 -1.09-1.51 4 4 0 0 0 -1.18-.73 1.63 1.63 0 0 0 -.7-.12v-.45h7v.45h-.36a2.11 2.11 0 0 0 -1.05.27.84.84 0 0 0 -.48.79 3.84 3.84 0 0 0 .74 1.58l3.43 5.29 3.22-5.06a3.79 3.79 0 0 0 .72-1.7 1.13 1.13 0 0 0 -.17-.6 1.18 1.18 0 0 0 -.46-.39 2.39 2.39 0 0 0 -1-.15z"/><path d="m-.32 244.66h400" stroke="#f5f5f5" stroke-linecap="round" stroke-linejoin="round"/></g></svg>