<svg viewBox="0 0 400 400" xmlns="http://www.w3.org/2000/svg"><g fill="#2d2f2e"><path d="m294.93 188.49a104.93 104.93 0 0 0 -5.68-22.61c-1.67-4.37-3.81-8.37-5.86-12.55 0-1.49-1.21-2.33-1.67-3.54a90.89 90.89 0 0 0 -8.37-11.34 70.12 70.12 0 0 0 -11.16-11.16c-3.26-3.07-7.07-5.49-10.7-8.1-1.21-.37-2.05-1.67-3.53-1.67-.66-.37-1.4-.65-2.05-1a92.44 92.44 0 0 0 -36.74-11.07 93.28 93.28 0 0 0 -51.9 9.86c-.37.18-.74.74-1.3.18a4.1 4.1 0 0 0 -2.51 1 9.31 9.31 0 0 1 -3.07 2 109.32 109.32 0 0 0 -9.77 7.07c-2.23 1.58-4.18 3.63-6.42 5.3a13.26 13.26 0 0 0 -2.51 2.51c-1.95 2.33-4.09 4.65-6 7.07a126.58 126.58 0 0 0 -7.69 10.84c-.28 1.49-1.67 2.42-2 3.82.66.74-.09 1.3-.37 1.76a91.9 91.9 0 0 0 -10.23 36.37 95.62 95.62 0 0 0 13.12 55.71l4.18 7c.09.56.56.84.84 1.3a90 90 0 0 0 19.62 19.72 9.47 9.47 0 0 0 1.4.74 1.83 1.83 0 0 1 1.11.56 95.94 95.94 0 0 0 17.3 9.67 91.52 91.52 0 0 0 31 7.44 99.55 99.55 0 0 0 23-1.2 97.14 97.14 0 0 0 30.32-10.89c3-1.67 5.86-3.53 8.84-5.3.74-.28 1.21-.84 1.95-1.11a20.59 20.59 0 0 0 2.23-2c6.34-4.87 11.69-10.87 16.76-17.09a12.29 12.29 0 0 0 .74-1.68c-.09-.55.37-.93.65-1.3a94.35 94.35 0 0 0 10.33-19.07 88.56 88.56 0 0 0 6.6-28.92 92.58 92.58 0 0 0 -.46-18.32zm-94.6 103a91.14 91.14 0 0 1 -91.05-91.34v-1.67a91.2 91.2 0 1 1 91.05 93z"/><path d="m200.71 136.68c-35-.09-63.53 28.27-63.81 62.78-.37 35.25 27.81 64.36 63 64.46 35.81.09 64.27-28.09 64.27-63.62a63.55 63.55 0 0 0 -63.46-63.62zm-.84 122.77c-32.18 0-58.69-26.69-58.69-59.15a59.25 59.25 0 0 1 118.49-.09c.19 32.79-26.6 59.24-59.8 59.24z"/><path d="m175.78 90.83c-.74-2.14-.56-4.47-2.7-6.33-4.08-3.5-7.72-7.5-11.44-11.35-.83-.74-1.3-.83-2.14 0-2.69 2.79-5.48 5.49-8.27 8.28-.38.28-.66.84-1 .84-2.6-.09-4 2.14-4.56 3.63-.74 2-2.23 2.79-3.25 4.27-.28.38-.65.84-1 .84-2.51 0-3.17 2.42-4.65 3.72-.19.19 0 1.21-.56 1.77-4.93 4.84-9.77 9.67-14.6 14.51-.38.37-.47 1.11-1.21.65s-.19-1 0-1.49a21.86 21.86 0 0 0 1.3-9.49 19.32 19.32 0 0 0 -.37-2.41 20 20 0 1 0 -39 9c2.88 12 15 18.41 26.69 14.14.46-.19 1-.75 1.49 0s-.28.93-.65 1.3l-11.65 11.64c-.28.28-.56.75-.84.75-2.42-.09-3 2.32-4.55 3.35-.19.09-.47.55-.38.65.56.93-.28 1.39-.74 1.76-1.4 1-2.14 2.8-4.28 3.17-1.3.28-2.32 2.14-3.44 3.25a1.68 1.68 0 0 0 -.19.47c.56 1.11-.37 1.49-.93 2-2.79 2.79-5.48 5.68-8.46 8.37a3.1 3.1 0 0 0 -1 3.35c.37 1.21-.19 2.61.93 3.63 4.37 4.28 8.74 8.65 13 13 .56.56.93.65 1.58.09 3.53-3.06 7.07-6 10.6-9 1.4-1.11 3.35-1.21 4.56-2.79 1.39-1.86 2.51-4 4.65-5a20.23 20.23 0 0 0 4.28-2.6c1.3-1 1.49-3 3.07-3.72a7.14 7.14 0 0 0 2.42-3.73c-1.21 1-2.42 2-3.63 3-.56.47-.93.75-1.21-.28-.37-1.49-.37-2.7 1-3.81 3.54-2.79 6.89-5.86 10.23-8.84.38-.28.65-.83 1.21-.74-.34.42-.67.85-1 1.28.49-.46 1-.91 1.47-1.37l1-1.31c1.49-2.14 3.54-3.81 4.93-5.95h-.14l-.23.23c-5.68 4.93-11.44 9.76-17.12 14.69-.93.84-1.76 2.33-3 2.23-1-.09-1.77-1.48-2.7-2.41-3.44-3.44-6.88-7-10.42-10.42-.74-.74-.93-1.21-.09-2.05 12.65-12.65 25.39-25.3 38-37.94.72-.73 1.17-.75 1.75-.21a2.13 2.13 0 0 1 1 .67c3.72 3.81 7.16 7.81 11.07 11.44a2.34 2.34 0 0 1 .52.65c.47.6.38 1-.24 1.77-5.21 6-10.42 12.09-15.63 18-.24.3-.47.61-.71.93a2.4 2.4 0 0 0 0 .28c2.37-1.46 4.21-3.64 6.39-5.3a67.8 67.8 0 0 1 5.7-6.79c2-2.42 4.09-4.74 6.14-7.07 1.58 2 1.58 2.42 0 4.28-.68.85-1.36 1.62-2 2.45a.89.89 0 0 0 0 .15c2.05-.65 3.44-2.51 5.39-3.34 1-1.12 2.7-2.14 2.89-3.35.37-2.33 2.32-3.35 3.35-5 .09-.1.46-.38.55-.28.93.65 1.21-.28 1.68-.75l2.23-2.51c.28-.28.75-.56.47-1.12-.47-.93.18-1.48.65-2 2.32-2.61 4.65-5.3 6.88-8 .35-.56 1.19-.99.91-1.73zm-88.64 85.38c-1.86-2-3.44-3.54-5-5.21-2-2.05-4-4.09-6.05-5.95a3.41 3.41 0 0 1 -1.21-3.16c.66.18.93.74 1.31 1.11 3.25 3.26 6.41 6.51 9.67 9.67a4 4 0 0 1 1.28 3.54zm.84-4.65c-.65.56-.93.56-1.49-.09-3.63-3.73-7.35-7.35-11-11-.47-.47-.75-.84-.1-1.49 3.07-3 6-5.95 9-8.93a3.79 3.79 0 0 0 .66-.56 6.5 6.5 0 0 1 .74.75c3.81 3.91 7.72 7.81 11.53 11.63.65.55.75.93 0 1.58-3.11 2.71-6.18 5.41-9.32 8.11zm11.81-4.47c-3.53 3.17-7.25 6.24-11 9.4-.93-2.23-.56-3.72 1.39-5.12 2.7-2 5.12-4.37 7.72-6.6.37-.28.84-1.4 1.3-.47s1.71 1.77.59 2.79zm-1.12-5.76c-4.09-4.19-8.18-8.28-12.27-12.47-.37-.37-1.12-.65-.75-1.3.56-.65 1.21-1.3 1.86-1.95.47-.09.56.18.75.37l12.93 13c.46.47 1.11 1 .09 1.49-.74.39-1.12 2.35-2.61.86zm4.47 4.09c-.37.28-.84.65-1.3 1-.28-.56-.56-1.11-.75-1.58a2.19 2.19 0 0 1 1.21-3.25c.19-.1.37-.19.56 0 .74.57.93 3.18.28 3.83zm-.37-7.07c-1.21-.09-2.23-1.95-3.35-3.07-3-3.07-6-6.14-9-9.11-.75-.75-1-1.31-.1-2 1.21-1 2.14-3.07 3.54-3.07 1.11.09 2.23 1.95 3.35 3.07 3.16 3.16 6.32 6.32 9.48 9.39a2.83 2.83 0 0 1 .75 1.21c-.28.28-.65.56-.93.84-1.32.88-2.35 2.83-3.74 2.74zm4.65 2.42-2.51 2c-1.31-2.89-1.31-2.89.93-4.84l2.51-2.14c1.21 3.12 1.21 3.12-.93 4.98zm3.44-2.14c-1.4-4.19-1.4-3.07 1-5.12 1.6 2.79 1.42 3.49-1 5.12zm-.28-7.35c.37.09.56.37.84.75-.75.55-1.4 1.21-2 1.76-.56.38-.84-.18-1.12-.46-4.46-4.47-9-9-13.57-13.4-1.12-1 0-1.39.46-1.86s.84-1.48 2-.46c4.37 4.56 8.93 9.11 13.39 13.67zm-2.88-30.69a18.71 18.71 0 1 1 11.72-23.72 9 9 0 0 1 .58 2.13 17.28 17.28 0 0 1 -1.39 11.44c-1.49-1.67-2.88-3.16-4.28-4.56-.65-.56-.28-1.11-.28-1.67a12.43 12.43 0 0 0 -24.55-3.72 12.3 12.3 0 0 0 9.64 14.51 13.47 13.47 0 0 0 3.35.18 3.08 3.08 0 0 1 3 1.21 16.17 16.17 0 0 0 2.52 2.51c.9.85.99 1.22-.31 1.69zm-6-6.61c-5.49-.09-10.51-4.46-11-9.76a11.08 11.08 0 0 1 21.67-4.37 14.87 14.87 0 0 1 .37 2c0 .93.28 2-.19 2.6s-1.48 0-2.32 0c-4.09.1-7 3.17-6.88 7.63.25 1.07.25 2-1.7 1.92zm17.21-.27c-2.14 2.14-4.28 4.18-6.42 6.41-.56.56-.93.56-1.49 0-1.67-1.67-3.35-3.25-4.93-5a5.13 5.13 0 0 1 -1-5.86 5.69 5.69 0 0 1 5.12-3.44 4.7 4.7 0 0 1 3.62 1.4c1.77 1.67 3.35 3.44 5.12 5 .58.56.49.93-.07 1.49zm32.69-30.88c2.69-2.61 5.39-5.31 8-8 .65-.65 1-.47 1.58.09l10.88 10.88c.28.28.65.47.65.93-.09.19-.28.37-.46.65-2.52 2.89-5 5.68-7.45 8.56-.55.65-.93.74-1.58.09-3.81-3.9-7.72-7.81-11.62-11.72-.6-.55-.6-.93 0-1.48zm-8.84 8.83c1.12-1 2.14-2.14 3.16-3.16a5.42 5.42 0 0 0 .75-.56 5.2 5.2 0 0 1 .74.75c4 4 8 8 12 11.9.65.65.65 1 0 1.58-.93 1-1.86 2-2.7 3.16-.56.75-.93.66-1.58 0-4.13-4.09-8.13-8.27-12.28-12.33-.46-.5-.65-.78-.09-1.34zm10.51 18.34a4.92 4.92 0 0 1 -.74-.66c-4.56-4.55-9-9.11-13.58-13.67-.84-.84-.28-1.3.28-1.67s.83-2 2-.75c4.56 4.56 9.12 9.21 13.68 13.77.27.28.74.65.27 1.12a9.48 9.48 0 0 1 -1.91 1.86zm2.23 3.9c-1.48-2.42-1.48-2.88.19-4.37.56-.46.74-.46 1 .19 1.14 2.03.95 2.5-1.19 4.17zm5.21-7.07c-.37.38-.65.75-1 1.12-1.4 1.67-1.4 1.67-1.77 1.3a3.12 3.12 0 0 1 -.09-3.35l3.07-3.44c1.28 1.67 1.47 3.06-.21 4.36zm1-6.41c-.47.37-.84-.38-1.12-.66-4.28-4.18-8.46-8.46-12.74-12.65-.84-.83-.65-1.39.09-1.95s.93-1.86 2.14-.56c4.18 4.28 8.46 8.56 12.74 12.84a6.8 6.8 0 0 0 .75.93 13.64 13.64 0 0 1 -1.83 2.04zm2.13 4.27c-.93-.09-1.11-1.58-1.3-2.41a2.32 2.32 0 0 1 1.58-2.24c1.12.1.93 1.58 1.58 2.51-.34.92-1.27 2.13-1.83 2.13zm8.93-11.9c-2.23 2.32-4.27 4.93-6.51 7.63-.83-1.59-1.3-2.79.19-4.28 2.42-2.51 4.56-5.3 6.88-8a3.46 3.46 0 0 1 -.53 4.64z"/><path d="m326.92 243.64 8.84 3.16c-6.42-17.85-15.72-32.83-33-42v2.05a60.37 60.37 0 0 1 -.09 9c-1.21 11.25-5.12 21.67-10.79 31.53-.65 1.12-2.42 2.33-1.58 3.35.55.74 2.6.56 4 .56 6.05 0 11.72-1.68 17.3-4 .84-.37 1.77-1.3 2.42-.75s0 1.68-.18 2.52a47.1 47.1 0 0 1 -8.75 20c-3.9 5-8.93 5.3-13.48.93l-1.4-1.39-12.4-12.5a3.33 3.33 0 0 0 -1 1.49c.84-.28 1.11.47 1.49.84l12.18 12.18c5.4 5.4 11.26 5 16-1 5.11-6.6 7.81-14.23 9.21-22.32a6.94 6.94 0 0 1 .46-2.42c2.23-3.91 1.4-7.91.56-11.91-.46-2.41-1-4.74-1.49-7.16-.09-.56-.28-1.21.37-1.49s1 .38 1.4.75a23.1 23.1 0 0 1 3.53 5.3c4.47 8.74 7.35 17.86 6 27.81a92.3 92.3 0 0 1 -4.84 18.7c-2.7 7.25-5.77 14.41-8.28 21.76-1.3 3.91-2.23 7.81-1.67 12 .09.56.28 1.21-.84 1.11-5.3-.65-10.23.93-15.16 2.7-8.37 3-16.56 6.7-25 9.4-7.91 2.51-15.9 4.37-24.28 3.72a35 35 0 0 1 -6.88-1.31c-.93-.28-1.3-.65-.93-1.67a21.51 21.51 0 0 1 5.12-7.16 5.63 5.63 0 0 1 2.51-.84c6.79-1.58 13.49-3.63 19.53-7.25a35.73 35.73 0 0 0 4.93-3.45c5-4.37 5.21-10 .56-14.78-4.19-4.28-8.47-8.56-12.74-12.84-.44-.43-1-.79-.58-1.43a1.09 1.09 0 0 0 -.08-.15 2.29 2.29 0 0 0 -1.76 1.3c4.74 4.65 9.48 9.3 13.86 14.14 4 4.18 3.9 8.83-.47 12.56-6.7 5.76-14.88 8.55-23.72 10.51.28-.56.38-.84.56-1.12 2.23-3.81 4.56-7.63 6.88-11.44.28-.47 1-.93.38-1.77s-1.31-.18-1.86 0a75.74 75.74 0 0 1 -23.16 4 91.35 91.35 0 0 1 -22.51-2c-1.49-.27-1.68.28-1.49 1.49a52.45 52.45 0 0 0 1.4 7.72c3.25 12.65 10 22.7 21.67 29.21 1.21.65 1.86.65 2.6-.65 2.33-4 4.74-7.91 7.16-11.91.37-.65.75-1.3 1.77-1 7.72 2.23 15.44 1.39 23.16-.28 10.23-2.23 19.72-6.51 29.39-10.14 6.51-2.42 12.93-5.39 20.18-4 1 .19 1-.28.93-1.11a27 27 0 0 1 1.49-13c2.33-6.69 5-13.2 7.54-19.81 3.44-9 6.23-18.23 6-28.09a66.72 66.72 0 0 0 -.97-7.65zm-102.31 62.6a95 95 0 0 1 -14.51 0 2.72 2.72 0 0 1 -2.51-1.77 115.64 115.64 0 0 0 17.02 1.77zm-18-.28a3.28 3.28 0 0 1 1.58 2.23 45 45 0 0 0 18.81 27.16c1.58 1.11.93 2.7 1.39 4.09-8.8-1.67-21.92-21.95-21.82-33.44zm30.39 21.3c-2.32 3.81-4.65 7.62-7.07 11.53a4.37 4.37 0 0 1 .75-5c2-2.61 3.9-5.4 6-8.37.32.81.67 1.28.32 1.84zm-.09-4.56-7.82 10.88c-.55.84-1 1-1.95.37a43.79 43.79 0 0 1 -17.5-24.95c-.19-.56-.84-1.49.65-1.4 13.76.75 27.25-.28 40.83-4.74zm73.09-112.36c-1.58-.18-3.07-.55-3.62-2.42zm-5.58-2.14c.84.93 1.49 1.59 1.49 2.52.28 8.37.37 16.74-1.58 24.92a9.47 9.47 0 0 1 -.47 1.58c-1.11 6-5 9.21-10.6 10.7 6.97-12.28 11.34-25.11 11.15-39.72zm9.95 36.37c-6.41 3-13.11 5.3-20.46 5.12 2.89-1.68 5.68-3.45 9.3-3.26 4.19.19 8.1-1.3 11.91-3.16a1.14 1.14 0 0 1 -.76 1.3zm11.91-4.65c-.37-.19-.46-.84-.65-1.3a58.89 58.89 0 0 0 -5.58-12 17.15 17.15 0 0 0 -2.23-2.88 2.33 2.33 0 0 0 -2.7-.84 2.14 2.14 0 0 0 -1.12 2.7c.28 1.58.56 3.16.93 4.74a43.7 43.7 0 0 1 1.49 9.21 2.13 2.13 0 0 1 -1.3 2.23 31.47 31.47 0 0 1 -13.21 3.35c6.14-10.79 5.58-22.32 5.49-34.14 13.21 6.79 20.09 18.33 25 31.63-2.04-.93-4.08-1.77-6.13-2.7z"/><path d="m194.66 302.05a77.08 77.08 0 0 1 -12.18 1.77c-11.16.84-22.14.09-32.84-3.44-.83-.28-1.86-1.31-2.6-.28s.37 1.76.84 2.51c2.32 3.91 4.65 7.72 7.16 11.81-8.65-1.95-16.65-4.65-23.35-10.14-4.74-3.81-5.11-8.65-1-12.83 4.56-4.75 9.21-9.21 13.86-13.86a1.59 1.59 0 0 0 -1.12-.93c-4.46 4.56-9 9-13.39 13.58-2.51 2.6-4.09 5.58-3.16 9.39.65 2.7 2.51 4.65 4.65 6.33a51.74 51.74 0 0 0 17.67 8.46 22 22 0 0 0 4.18 1c3.45.28 5.59 2.33 7.26 5 3.35 5.48 2.7 4.65-2.33 5.76-7.62 1.58-15.06.28-22.5-1.67-9.21-2.33-17.86-6.23-26.79-9.58-4.47-1.67-8.84-3.44-13.58-4.09a24.71 24.71 0 0 0 -5.3 0c-.65.09-.93 0-.84-.75.93-7.62-2.42-14.32-4.93-21.11-2.88-7.81-6.14-15.44-8.37-23.44-3.81-13.49-1.58-26 5.4-37.95a24.11 24.11 0 0 1 2.23-3.16c.37-.46.83-1.3 1.58-.93s.46 1.21.37 1.77c-.56 2.88-1.21 5.67-1.77 8.46a16.57 16.57 0 0 0 .75 10.14c1.11 2.7 1.3 5.77 2 8.56a45.45 45.45 0 0 0 7.82 16.27c1.76 2.33 3.9 4.19 6.88 4.65 3.53.56 6.32-.93 8.74-3.25l12.28-12.28a14.89 14.89 0 0 1 1.32-1.14 2.08 2.08 0 0 0 -1-.91c-4.56 4.56-9.11 9.12-13.67 13.58-4.37 4.28-9.3 3.91-13.12-.83-5.11-6.42-7.72-13.86-9.3-21.77-.18-1.3.19-1.58 1.31-.93a6.67 6.67 0 0 0 1.86.84c6.32 2.51 12.74 4.37 19.71 3.53 1.77-.27 1.4-.65.75-1.76-8.19-13.21-13-27.35-12.19-43.07 0-.37.28-.83-.28-1.3-8.27 4-14.78 10.14-20.27 17.49a84.21 84.21 0 0 0 -12.3 24.32l8.74-3.07a42.31 42.31 0 0 0 -.93 7.72 62.57 62.57 0 0 0 3.91 22c3 8.37 6.23 16.65 9.3 24.93 1.58 4.37 2.6 8.93 1.77 13.58-.28 1.67.46 1.58 1.58 1.4a18 18 0 0 1 6-.1c5.77.84 11 3.16 16.37 5.21 8.46 3.26 16.74 6.79 25.58 8.84 8 1.86 16 2.79 24.09.46.93-.28 1.3.28 1.67.93 2.42 4.09 4.93 8.09 7.35 12.19.65 1.11 1.21 1.21 2.23.65a40.67 40.67 0 0 0 11.35-8.93c7.25-8 10.79-17.67 12-28.28.04-1.26-.11-1.63-1.45-1.35zm-109-59.53a30.13 30.13 0 0 0 14.79 3.26c1.12-.09 1.86.65 2.79 1l3.91 2c-4.01 1.37-20.01-3.28-21.5-6.26zm11-34.78c-.19 14.42 4.18 27.34 11.16 39.53a12.7 12.7 0 0 1 -9.67-8c-2.33-6.14-3-12.56-3.07-19.07-.1-3.16.09-6.32.09-9.48a3.21 3.21 0 0 1 1.46-2.98zm-1.86-.28c-.84 1.39-2 2.14-4.75 3.16a18.56 18.56 0 0 1 4.72-3.16zm-20.96 32.18c-1.77.65-3.44 1.4-5.3 2.23 1.3-10 15.72-28 25.11-31.34-.09 11.63-.65 23.16 5.4 33.76a16.46 16.46 0 0 1 -6-.65 31.46 31.46 0 0 1 -7.16-2.7 1.71 1.71 0 0 1 -1.12-1.76 42.11 42.11 0 0 1 1.49-9.58 30 30 0 0 0 .93-5.12 2 2 0 0 0 -1.19-2.23 2.12 2.12 0 0 0 -2.42.46 16.79 16.79 0 0 0 -3.44 4.56 65.17 65.17 0 0 0 -4.84 10.79 2.13 2.13 0 0 1 -1.46 1.58zm119.61 64.18a2.82 2.82 0 0 1 -2.42 1.86 99.87 99.87 0 0 1 -14.88 0 137.1 137.1 0 0 0 17.3-1.86zm-22.45 34.23c-2.33-3.82-4.65-7.54-7-11.35-.37-.65-.09-1.12.28-1.86 2.42 3.35 4.74 6.51 7 9.76.87 1.12.04 2.24-.28 3.45zm.83-4.84c-7.25-10.14-14.41-20.18-21.76-30.32a.61.61 0 0 0 0-.56 107.38 107.38 0 0 0 10.51 2.79 115.58 115.58 0 0 0 29.42 1.88c1.3-.09 1.49.19 1.21 1.4a44 44 0 0 1 -17.58 24.92c-.63.45-1.11.73-1.76-.11zm.84 5.67a5.31 5.31 0 0 1 2.33-4.88 44 44 0 0 0 17.85-26.23 3.43 3.43 0 0 1 1.49-2.41c.88 10.27-12.24 30.83-21.63 33.52z"/><path d="m327 157.7c-3.07-3-6-6-9-9-.28-.28-.83-.56-.83-1.12a5.11 5.11 0 0 0 -3.63-4.37c-2.33-.65-3.07-2.7-4.75-3.72a1.53 1.53 0 0 1 -.37-.56c.65-1.21-.46-1.58-1-2.14a32.4 32.4 0 0 0 -4.19-3.16c-4.27-3.63-8.09-7.81-12.09-11.81-.28-.37-.93-.75-.56-1.21s.93-.19 1.4 0a18.19 18.19 0 0 0 6.32 1.39 21.31 21.31 0 0 0 8.37-1.39 20 20 0 1 0 -25.94-11.26c.18.47.65 1.12 0 1.49s-.93-.37-1.21-.65q-7.26-7.26-14.51-14.51c-.28-.28-.93-.65-.75-1 .47-1-.28-1.4-.74-1.77-1.4-1-2.05-2.51-4.09-3-1.49-.38-2.52-2.33-3.82-3.63a.36.36 0 0 1 -.09-.28c.09-2.51-2.14-3.81-3.63-4.47a11.35 11.35 0 0 1 -3.25-2.32c-2.42-2.23-4.65-4.56-6.89-6.88-.83-.84-1.3-.93-2.23 0-3.25 3.44-6.51 6.88-10 10a11.28 11.28 0 0 0 -3.91 6.7 2.55 2.55 0 0 0 .56 2.42c1.58 1.76 3.07 3.53 4.46 5.39 1.12 1.68 3.72 2.61 3.17 5.4 0 .18.37.46.55.65 1.49 1.11 2.05 3.07 4.28 3.53 1.3.28 2.79 2.33 3.16 3.81.47 1.86 1.77 2.7 2.7 4s3 1.31 3.54 3.07a15.24 15.24 0 0 0 3.29 2c-1-1.22-2-2.51-3-3.71-1.58-2-1.67-2-.09-4.38 3.63 4.1 7.16 8.19 10.7 12.37a22.91 22.91 0 0 1 3 3.68 2.39 2.39 0 0 1 .22.23 82.61 82.61 0 0 1 11 11.07l.06.05c.42-.27.6.24.87.41 4.37 3.72 8.65 7.45 12.93 11.17a3.56 3.56 0 0 1 .28 3.81c-.47.56-.66 0-.93-.19l-4.6-3.76a13 13 0 0 0 1.9 3.39c1.21 1 2.32 2.14 3.53 3.35.93 1.3 2.05 3.25 4.47 3.16.74 0 1.58 1.4 2.42 2 1.67 1.11 2.32 3.06 3.72 4.37s3.34 1.39 4.74 2.79c3 2.88 6.42 5.48 9.58 8.27.84.75 1.21.56 1.86-.09 3.53-3.63 7.07-7.35 10.79-10.79a9 9 0 0 0 3.16-6.6 2.62 2.62 0 0 0 -.93-2.2zm-12.55-11.53c.74.74 1.11 1.21.09 2.23-4.18 4.09-8.18 8.18-12.28 12.37a3 3 0 0 0 -.93.74 23.23 23.23 0 0 1 -2.14-1.95c-.37-.56.47-.93.75-1.21 4.09-4.09 8.18-8.18 12.18-12.37 1.13-1.12 1.59-.56 2.34.19zm-6.45-5.49c.09.09.18.18.18.28 1.12 1.11 3 2.23 3.17 3.53s-2 2.33-3.07 3.54c-3 3.07-6.05 6.14-9 9.11a10.17 10.17 0 0 0 -1 .84c-.18-.19-.37-.28-.56-.47-1.21-1-2.32-2-3.53-3.07-.56-.46-.56-.83 0-1.3 4.18-4.18 8.37-8.28 12.56-12.46.45-.56.83-.56 1.25 0zm-18.1-21.21c-.55.56-.93.47-1.48 0-2.14-2.14-4.19-4.28-6.42-6.42-.65-.55-.47-.93 0-1.48 1.67-1.68 3.35-3.35 5-4.93a5 5 0 0 1 3.81-1.49 5.47 5.47 0 0 1 5 3.35 4.94 4.94 0 0 1 -.93 5.86c-1.63 1.76-3.3 3.35-4.98 5.11zm-.37-15.53c-1 .19-1.3 0-1.39-1.12a11 11 0 1 1 11.34 10.42h-.28c-1.95.09-1.67-.93-1.58-1.86.1-4.93-3.35-8.09-8.09-7.44zm5.3-19.81c7.63-1.77 14.23.46 19.07 6.6s5.49 13.12 1.86 20.09-9.67 10.23-17.58 10.05a20.15 20.15 0 0 1 -5.21-1c-.74-.27-1-.55-.28-1.2 1.21-1.21 2.42-2.42 3.63-3.73.56-.65 1.21-.27 1.86-.27 7.35.46 13.39-4.84 13.49-12a12.42 12.42 0 0 0 -24.84-.65v1.48a2.41 2.41 0 0 1 -.93 2.42c-1.11 1.12-2.23 2.42-3.62 3.82-4.84-10.36 1.48-23.01 12.55-25.61zm-40.46 3.16a4.76 4.76 0 0 0 .84.65c1.12 1.21 3.07 2.33 3.26 3.63s-2 2.32-3.07 3.44c-3.07 3.16-6.24 6.23-9.3 9.39-.75.84-1.21.84-2-.09-.93-1.3-2.79-2.42-2.88-3.72s2-2.32 3.07-3.53c3-3 5.95-6 9-9a4.68 4.68 0 0 0 1.08-.77zm-25.57-2.05c3.72-3.62 7.34-7.34 11-11 .28-.28.56-.47.84-.74.28.27.56.46.84.74l7.9 7.91c.56.55.65.93 0 1.58-3.91 3.81-7.72 7.72-11.53 11.62-.65.65-1 .75-1.68 0-2.41-2.88-4.83-5.67-7.34-8.46-.59-.62-.69-.99-.03-1.65zm5.86 14.42c-2.61-3.07-5-5.86-7.45-8.74-.93-1.12.1-2.14.19-3.63l5.77 6.7 1.11 1.3c1.72 1.77 1.72 1.77.38 4.37zm3.25 3.35c-.19.37-.37.74-.56 1.21-2.32-1.86-2.32-2-1.21-4.37.28-.65.47-.93 1.12-.28 1.02 1.02 1.58 2.04.65 3.43zm-.28-5c-.46-.56.19-.75.47-1 4.28-4.27 8.55-8.55 12.65-12.83 1.21-1.21 1.58-.09 2.23.46s1.21 1 .18 2c-4.27 4.18-8.55 8.46-12.83 12.74-.19.19-.56.37-.93.74-.65-.83-1.21-1.39-1.77-2.12zm5.12 10.79c-.65.09-1-.93-1.49-1.4a11.43 11.43 0 0 0 -1-1.11c-1.68-1.4-1.49-2.8-.19-4.47l3.35 3.91c.28.28.65.65.28 1.11s-.21 1.75-.95 1.94zm2.79 4.55c-2.33-2-2.33-2.32-1.21-4.37.37-.56.56-.56.93-.18 1.67 1.46 1.67 1.84.28 4.53zm2-3.9a21.13 21.13 0 0 1 -1.86-2.14c-.37-.56.38-.84.65-1.12 4.38-4.37 8.75-8.74 13-13.21 1-1.11 1.48-.46 2.23.19s1.3 1.12.18 2.14c-4.46 4.28-8.74 8.74-13.11 13.11a10.6 10.6 0 0 0 -1.05 1.01zm21.12 23.06c-2.33-2-4-4.46-6.05-6.69l-12.79-14.82c-.56-.65-.75-1 0-1.77 4.18-4.18 8.37-8.37 12.46-12.56l.74-.74c.38.37.75.65 1.12 1l26.41 26.42c3.82 3.81 7.54 7.63 11.35 11.35.84.83 1 1.3.09 2.14-4.09 4-8.09 8-12 12.09-.84.93-1.31.83-2.24.09-6.31-5.55-12.75-11.02-19.05-16.53zm22.13 23c-.18.83-.46 1.67-.74 2.6-1.3-1-2.7-1.67-1.77-3.53.28-.56-.09-1.68.84-1.68s1.88 1.73 1.71 2.57zm-.65-3.72c-1.11-.84 0-1.21.47-1.58 4.37-4.38 8.74-8.84 13.11-13.12.28-.28.56-1 1.21-.65.65.65 1.4 1.21 2 1.86-.37.47-.65.65-.84.93-4.37 4.47-8.84 8.74-13.21 13.21-1.3 1.45-1.88-.14-2.7-.69zm5.95 10.41c-1.39-1.21-2.79-2.41-4.09-3.53-.56-.47-.37-.93-.18-1.49s.37-1.3.65-2.23a34.12 34.12 0 0 1 4.28 3.81c.78.99-.24 2.24-.62 3.4zm4 1.4v.19c-.27.65-.65 1.3-1 2.13-1.11-1.11-2.79-1.67-1.58-3.53.37-.47 0-1.67 1.12-1.4a2.08 2.08 0 0 1 1.5 2.57zm12 12.28c-3.72-3.17-7.35-6.24-11-9.4-1.12-1 .09-2 .56-2.88s.93.28 1.3.56c2.51 2.14 4.93 4.37 7.53 6.41 1.93 1.36 2.77 2.85 1.65 5.27zm.75-5c-3.07-2.69-6.14-5.39-9.21-8-.65-.56-.75-.94-.09-1.59 3.9-3.9 7.81-7.81 11.62-11.72.47-.37.75-.74 1.3-.18 3 3.07 6.05 6.14 9.12 9.11a2.32 2.32 0 0 0 .46.56 2.47 2.47 0 0 1 -.65.75c-3.62 3.62-7.34 7.34-11 11.06-.58.6-.96.5-1.51-.06zm12.16-6.58c-3.35 3.26-6.61 6.61-10 9.86a9.91 9.91 0 0 0 -1 1 3.82 3.82 0 0 1 1.21-3.35q5.31-5.16 10.88-10.89a3.51 3.51 0 0 1 -1.09 3.38z"/><path d="m231 312.75h-.37a4.43 4.43 0 0 0 -4.19 4.55v.28a4.33 4.33 0 0 0 4.46 4.1h.19a4.44 4.44 0 0 0 4.28-4.47v-.09a4.36 4.36 0 0 0 -4.37-4.37zm3 4.37a3 3 0 0 1 -2.88 3.16h-.12a3.09 3.09 0 0 1 -3.26-2.79v-.28a3 3 0 0 1 2.89-3.16h.09a3.11 3.11 0 0 1 3.25 3z"/><path d="m170.11 312.1h-.11a4.3 4.3 0 0 0 -4.46 4.27v.19a4.46 4.46 0 0 0 4.46 4.44h.1a4.51 4.51 0 0 0 4.37-4.46v-.09a4.37 4.37 0 0 0 -4.36-4.35zm3.07 4.46a3 3 0 1 1 -3.17-3.07 3 3 0 0 1 3.17 2.88z"/><path d="m156.81 163.19a8.93 8.93 0 0 1 1.58 1.39c3.07 3 5.67 6 5.67 10.61 0 3.25-.28 6.41-.37 9.67-.37 9-1 18-1.12 27.06-.09 10.7 4.75 18.42 14.42 23.07a66.55 66.55 0 0 0 8.37 3.44c3.63 1.12 7.35 2.23 11 3.44 1.48.47 3.06.84 3.34 2.79.1.47.38.47.75.47s.74 0 .74-.47c.09-1.48 1.21-2 2.42-2.41s2.33-.75 3.53-1.12a116.91 116.91 0 0 0 15.72-5.58c10.51-4.65 15.81-12.65 15.44-24.09-.37-11.16-.74-22.42-1.49-33.58a14.94 14.94 0 0 1 4.84-12.46 29.13 29.13 0 0 1 2.42-2.23zm11.44 63c-2.61-3.16-3.63-7-4-11-.38-4.37 0-8.65.09-13s.46-9 .65-13.49h3.26zm11.75 8.61a22.83 22.83 0 0 1 -6-3.16 3.79 3.79 0 0 1 -.56-2.42v-38.22c0-.84-.09-1.77.66-2.33h5.9a2.73 2.73 0 0 1 .55 2.23v41.77a2.85 2.85 0 0 1 -.55 2.13zm11.62 4.28-5.86-2a3.79 3.79 0 0 1 -.56-2.42v-43.66a3 3 0 0 1 .66-2.33h5.85a2.7 2.7 0 0 1 .56 2.23v45.86c-.03.84.07 1.67-.68 2.32zm11.91 1.77a4.13 4.13 0 0 1 -5.86.09l-.1-.09a3.72 3.72 0 0 1 -.55-2.42v-47.34a2.76 2.76 0 0 1 .55-2.42h6a2.78 2.78 0 0 1 .56 2.23v47.72a3.28 3.28 0 0 1 -.63 2.23zm11.72-3.72-5.89 1.87c-.75-.56-.65-1.39-.65-2.14v-46.23a2.45 2.45 0 0 1 .55-2h6a2.73 2.73 0 0 1 .55 2.23v44a3.22 3.22 0 0 1 -.59 2.27zm11.72-5.49a20.2 20.2 0 0 1 -6 3.16 2.26 2.26 0 0 1 -.56-2.13v-41.77a2.39 2.39 0 0 1 .56-2.23h5.86a2.57 2.57 0 0 1 .65 2.14v38.6a3.22 3.22 0 0 1 -.54 2.23zm9.76-16.74a18.56 18.56 0 0 1 -4 11.16v-37.48h3.27c.24 8.74 1.26 17.58.7 26.32z"/><path d="m262.93 237.32c1.3 0 2.6.09 3.81 0 1-.1 1.4-.19.84 1-.65 1.58.28 3.25 2.05 4a2.79 2.79 0 0 0 3.72-1.3s0-.1.09-.1c.37-.65.47-1-.28-1.48-3.53-2-7-4-10.42-6a.93.93 0 0 0 -1.39.1.48.48 0 0 0 -.19.37.58.58 0 0 1 -.83.28c-.47-.19-.28-.65-.1-.93.93-1.58 1.77-3.07 2.7-4.65.19-.28.28-.65.74-.38s.56.56.28.93c-.65.93 0 1.31.65 1.68 3.35 1.95 6.79 3.9 10.14 5.86.65.37 1.21.46 1.68-.28.18-.37.46-.65.93-.28s.09.65-.1 1c-1.21 2.24-2.41 4.37-3.72 6.51-1.11 2-2.32 2.52-3.9 2.14a4.15 4.15 0 0 1 -3.26-3.81c0-1.58-.65-1.86-1.95-1.67-2.42.37-5-.56-7.35.74-.28.19-.56 0-.74-.19s-.1-.46 0-.74c.46-.84 1-1.58 1.39-2.42.28-.65.84-.46 1.3-.46h3.91z"/><path d="m135.23 233.13c-2.89 1.77-5.4 3.35-8 4.93-.75.47-1.3.93-.65 1.86.28.47.18.74-.28.93s-.56-.19-.75-.46c-.65-1-1.3-2.14-1.86-3.17-.18-.28-.46-.56 0-.83a.45.45 0 0 1 .66 0c.09.09.09.09.09.18.56 1.12 1.39.65 2.14.19 3.63-2.14 7.16-4.28 10.79-6.42.46-.28 1-1.12 1.49-.56a2 2 0 0 1 .46 2.14c-.93 2.23-1.77 4.47-2.6 6.7a66.7 66.7 0 0 0 -2.72 7.38l8.74-5.49c.65-.47.37-.93.09-1.4s-.18-.65.19-.83.56.09.74.37l2.05 3.25c.19.28.28.56-.09.84a.49.49 0 0 1 -.84-.19c-.56-1.11-1.39-.65-2.05-.27-3.25 1.95-6.51 3.9-9.76 5.76-.75.47-1.12.93-.56 1.77a.57.57 0 0 1 -.19.93c-.55.28-.55-.37-.83-.56-.1-.09-.1-.18-.19-.28-1.86-2-1.58-3.81-.37-6.14 1.49-2.79 2.42-5.86 3.63-8.74.3-.59.44-1.15.67-1.89z"/><path d="m284.6 188.86v.46c-.09 2.61-1.49 3.54-3.9 2.89-.19-.1-.47-.1-.47-.38a.55.55 0 0 1 .28-.55c2.42-.28 2.7-2.05 2.6-3.91a5.58 5.58 0 0 0 -2.88-4.93c-3.35-1.77-8.93-.19-10.88 3.07a4.76 4.76 0 0 0 -.65 3.35c.37 2.6 2.14 3.44 4.46 2 .65-.37.37-1 .37-1.48s-.18-.93.47-1 .46.47.56.84c.28 1.49.55 3.07.83 4.56a.73.73 0 0 1 -.18.93c-.37.28-.47-.1-.75-.28-1.21-.75-2.32-.09-3.53.09a1.4 1.4 0 0 1 -1.86-.74 14.07 14.07 0 0 1 -2.14-7.44c.09-3.82 2.6-6.61 6.6-7.54 4.28-.93 7.82.47 9.58 3.82a11.43 11.43 0 0 1 1.49 6.24z"/><path d="m154.57 252a5.38 5.38 0 0 1 -1.67 4c-2.14 2.05-4.19 4.19-6.33 6.23-.65.65-1.39 1.3-.37 2.23.37.28.19.56-.09.84s-.56.1-.84-.18l-3.9-3.91c-.19-.19-.38-.37-.19-.74s.56-.47.84-.1c.83.93 1.49.28 2-.28 2.05-2 4.19-4 6.14-6.14 1.68-1.76 1.58-3.34-.09-5.11s-3.44-2-5.3-.37c-2.23 2-4.28 4.18-6.51 6.32-.65.56-.84 1.21-.1 1.86.28.28.47.65 0 .93s-.65-.09-.93-.37c-.74-.74-1.48-1.49-2.23-2.23-.28-.28-.74-.47-.37-.93s.65-.28.93 0c.74.65 1.21 0 1.67-.47 2.14-2 4.28-4.09 6.42-6 1.77-1.68 3.91-2.33 6.14-1.12a7 7 0 0 1 4.78 5.54z"/><path d="m277.81 202c-1.39-.09-2.79-.18-4.18-.18-2.24 0-3.35 1.3-3.54 3.62s.84 3.91 2.89 4.1c3.16.37 6.32.46 9.48.65.84.09 1.21-.37 1.3-1.12 0-.37.19-.65.56-.65.65 0 .47.56.47.84 0 1-.1 2.14-.19 3.16 0 .37.09.84-.46.93s-.56-.28-.65-.74c-.1-.93-.84-.84-1.49-.93-2.61-.19-5.21-.47-7.82-.66-2.32-.18-4.46-.65-5.58-3a8.07 8.07 0 0 1 .56-7.54 4.11 4.11 0 0 1 4-1.95l9.21.47c.93.09 1.95.18 2.05-1.31a.43.43 0 0 1 .46-.46h.19c.46.09.46.37.46.74-.09 1.86-.18 3.63-.37 5.49 0 .28 0 .56-.37.56a.41.41 0 0 1 -.56-.37v-.19c.09-1.21-.84-1.3-1.67-1.3l-4.75-.19z"/><path d="m187.59 129.7c0-.09-.46-.74.37-.83s.47.65.56 1c.65 3 .65 3-2.42 3.72l-6.6 1.67c-.28.1-.65.28-.93 0s.09-.65.28-.83c.56-.56.28-1.31.19-1.86-.84-3.63-1.77-7.26-2.7-10.89-.19-.74-.47-1.58-1.58-1.2-.38.09-.65 0-.75-.38s.28-.55.56-.65c3.16-.83 6.23-1.67 9.39-2.42.66-.18 1 0 1.12.75l.28 2c.09.37.09.75-.28.84s-.56-.19-.65-.56c-.19-1.3-1-1.21-2-1l-.47.09c-2.88.56-2.88.56-2.23 3.44l.09.47c.75 2.79.65 2.79 3.54 1.86.74-.28 1.21-.56.93-1.4-.1-.28-.19-.65.28-.74s.55.28.65.56c.28 1.21.65 2.51.93 3.72.09.28.18.55-.19.74s-.56-.09-.74-.46-.19-1.21-1-1.12a8.8 8.8 0 0 0 -3.07.74c-.37.19-.18.56-.09.93.37 1.49.75 2.89 1.12 4.37.09.38.09.93.65.84a14.36 14.36 0 0 0 4.46-1.3c.49-.61.3-1.26.3-2.1z"/><path d="m257.91 159.93c-3.07 0-6.51-3.16-6.88-6.32a1 1 0 0 1 .55-1.12c.75-.46 1.49-1 2.24-1.49.27-.18.55-.46.83-.09s0 .65-.28.93a3.52 3.52 0 0 0 -.18 4.93 2.1 2.1 0 0 0 .56.46 2.68 2.68 0 0 0 3.53.19 2.44 2.44 0 0 0 .93-3.35c-.28-.74-.65-1.49-1-2.32-1-2.33-.75-3.91 1-5.4a5.06 5.06 0 0 1 6.14-.65 8.34 8.34 0 0 1 2.51 2.61c1.58 2.51 1.21 3.62-1.58 4.74a.76.76 0 0 1 -.75-.09c-.27-.38 0-.56.28-.84a3 3 0 0 0 -.09-4.28 2.38 2.38 0 0 0 -1-.65 2.41 2.41 0 0 0 -2.89.56 2 2 0 0 0 -.55 2.69c.37.75.65 1.4 1 2.05 2.05 3.81-.19 7.44-4.37 7.44z"/><path d="m190.75 130.08v-.75c.19-.56-.55-1.58.47-1.67s.46.93.56 1.49a3.54 3.54 0 0 0 3.72 2.13 2.84 2.84 0 0 0 3-2.6c.19-1.86-.46-2.7-2.41-3.16-.75-.19-1.49-.28-2.33-.47-2.42-.46-3.44-1.58-3.72-3.9a5.06 5.06 0 0 1 2.79-5.4 8 8 0 0 1 3.63-.65c3.07.09 3.72.84 3.16 3.81-.09.38-.09.66-.56.66s-.37-.38-.46-.75a3 3 0 0 0 -3.63-2.32l-.84.28a2.57 2.57 0 0 0 -1.49 2.69 2.13 2.13 0 0 0 2 2.14 16.3 16.3 0 0 0 2.32.37c3.63.47 5.12 2.7 4.19 6.24s-7 5.76-10.05 3.44c-.9-.28.03-1.12-.35-1.58z"/><path d="m141.83 164.86a8.86 8.86 0 0 1 -3.72 6.42.77.77 0 0 1 -1.12 0c-.74-.56-1.48-1-2.23-1.49-.28-.19-.74-.37-.46-.84s.56-.18.83-.09c2.42.84 4.28-.09 5-2.42a2.75 2.75 0 0 0 -1.3-3.35 2.38 2.38 0 0 0 -3.35.38c-.65.65-1.21 1.3-1.86 1.95-1.68 1.67-3.17 2.05-5.12 1.12a4.85 4.85 0 0 1 -3.16-5.12 8.59 8.59 0 0 1 2.88-5.3c.56-.47 1-.65 1.58-.09a6.8 6.8 0 0 0 .84.55c.47.47 1.77.47 1.3 1.31s-1.11-.19-1.67-.28c-1.58-.19-2.33.83-2.89 2a2.51 2.51 0 0 0 .66 3.44 2.13 2.13 0 0 0 3.16 0c.65-.65 1.21-1.3 1.77-2 2.51-2.88 6.13-2.6 8.09.84a6.1 6.1 0 0 1 .77 2.97z"/><path d="m115.7 201v-4.19c-.1-1.11.18-1.76 1.48-1.3.19.09.47 0 .65.09.56.19 1.49-.37 1.59.47s-.84.46-1.31.56-.55.37-.74.83c-.93 3.26-.28 4.28 3.07 4.28h.19c2.41 0 3.16-1.11 2.51-3.44-.28-.74-.84-.56-1.31-.74-.27-.1-.55-.19-.55-.56s.37-.37.55-.37h4c.28 0 .56-.1.65.37s-.27.46-.65.56c-1.21.28-2 2.7-1.39 3.81a.62.62 0 0 0 .74.28h4.82c.28 0 .65 0 .74-.28.1-1.11 0-2.23.1-3.35.09-1.39-.47-2-2-2.14-.37 0-.83-.09-.74-.65s.56-.28.84-.28c3.34-.09 3.34-.09 3.25 3.35-.09 2.23 0 4.47 0 6.7a1.58 1.58 0 0 1 -.18.93c-.38.28-.56-.09-.75-.37-.37-.65-1-.56-1.67-.56a113.07 113.07 0 0 0 -11.35 0c-.84 0-1.58 0-1.58 1.21 0 .37-.19.65-.65.56s-.37-.47-.37-.84v-4.93z"/><path d="m222.66 132.77a3 3 0 0 1 -1.49 1.68c-4.28 1.49-9.67-1.21-11-5.4-1.48-4.93 1.12-10.32 5.68-11.44a11.8 11.8 0 0 1 8.93 1.77c.37.28.65.56.37 1.12-.37.83-.56 1.67-.93 2.51-.09.37-.19.65-.65.55a.5.5 0 0 1 -.37-.55c0-.1 0-.1.09-.19.56-1.58-.28-2.6-1.49-3.25a5.38 5.38 0 0 0 -5.3-.1 5.12 5.12 0 0 0 -2.23 2.42 10.17 10.17 0 0 0 -1 6 6.08 6.08 0 0 0 6.7 5.4h.37a19.85 19.85 0 0 1 2.32-.52z"/><path d="m169.73 122.82c-.83.37-1.86.84-2.79 1.3-.55.28-.09.75 0 1 1.59 3.44 3.26 6.88 4.84 10.23.37.74.74 1.58 1.86.93a.55.55 0 0 1 .74.09l.1.09c.18.47-.1.56-.37.75-1.68.83-3.45 1.58-5.12 2.42-.37.18-.56.27-.84-.1s-.09-.65.28-.74c1.21-.47.84-1.3.47-2.23-1.49-3.26-3.17-6.51-4.56-9.86-.47-1-.93-1.3-1.86-.65a5.1 5.1 0 0 1 -1 .46c-.93.37-1.49.93-.84 2 .19.37.56.83-.09 1.11s-.56-.37-.75-.65c-1.49-2.69-1.49-2.69 1.4-4s5.67-2.6 8.46-4c1.12-.55 1.4-.28 1.68.75a6.92 6.92 0 0 0 .65 1.49c.18.37.55.83-.1 1.11s-.55-.37-.83-.65-.49-.85-1.33-.85z"/><path d="m273.25 159.93c-.37-.74-.83-1.49-1.2-2.23-.66-1.21-1.4-.37-2.14-.19-.28.1-.56.19-.75-.09s0-.65.37-.84a14.81 14.81 0 0 0 2.14-1.21c.65-.46.84-.27 1.12.38l5.58 10.6c.28.56.28.84-.37 1.12-.84.37-1.58.74-2.42 1.2a.45.45 0 0 1 -.65-.09.09.09 0 0 0 -.09-.09c-.19-.28-.1-.47.18-.65.47-.37 1.49-.56 1.3-1.3a15.66 15.66 0 0 0 -1.3-2.89c-.28-.56-.65-.18-.93 0-3.44 1.77-6.88 3.63-10.32 5.49-.75.37-1.21.84-.75 1.67.19.38.38.75-.18.93s-.65-.28-.75-.55q-1.24-2.38-2.51-4.75c-.18-.37-.46-.65 0-1s.75.09.84.46c.46.93 1.12.75 1.86.38 3.44-1.77 6.79-3.54 10.23-5.4.37-.3.84-.39.74-.95z"/><path d="m121.28 221.78c.46.1 1-.28 1.11.38s-.56.55-.93.65c-2.88.83-2.79.83-3.35-2.05-.55-3.16-1.21-6.23-1.86-9.3-.18-1-.18-1.58 1-1.58a18.09 18.09 0 0 0 2.14-.37.47.47 0 0 1 .65.37c.09.37-.19.46-.47.56-.56.28-1.58.09-1.58.93a12.34 12.34 0 0 0 .47 3.16c.09.56.65.28 1 .18l11.35-2.23c.93-.18 1.48-.56 1.21-1.58a.52.52 0 0 1 .46-.74c.47-.1.56.28.56.65.37 1.77.74 3.63 1 5.39.09.28.19.65-.18.84a.55.55 0 0 1 -.66-.19c0-.09-.09-.09-.09-.18-.18-1.21-1-1.21-1.86-1-3.72.75-7.44 1.49-11.16 2.14-.84.19-1 .56-.74 1.31a3.94 3.94 0 0 1 .28 1.48c.25.9.53 1.56 1.65 1.18z"/><path d="m135.69 148.12c-.74.93-1.39 1.77-2 2.6-.47.65.28.93.55 1.4s.93.46.47 1-.84-.09-1.21-.37c-2.23-1.67-2.23-1.67-.46-3.81 2-2.42 4.18-4.93 6.23-7.44.65-.84 1-.93 1.76-.1a9.71 9.71 0 0 0 1.49 1.3c.19.19.56.38.28.84s-.56.19-.84 0c-.46-.28-.93-1.11-1.58-.65a18.7 18.7 0 0 0 -2.23 2.42c-.28.37.09.56.37.74l9.12 7.63a1.14 1.14 0 0 0 1.77 0c.27-.28.46-.65.93-.28s0 .75-.28 1c-1.12 1.31-2.24 2.7-3.35 4-.19.28-.28.84-.84.47s-.28-.75 0-1.12a1 1 0 0 0 0-1.39l-.19-.19-9.2-7.72z"/><path d="m134.39 221.5c-.09-.18-.09-.65.56-.74s.56.47.65.74c.56 1.59 1.21 3.17 1.77 4.65.09.38.46.75-.1 1s-.74-.1-.93-.56c-.28-.84-.83-.74-1.48-.47-3.72 1.31-7.45 2.61-11.07 4.19-.65.28-1.21.56-.84 1.49.19.46.09.74-.37.93s-.56-.19-.65-.56c-.65-1.77-1.3-3.44-2-5.21-.09-.37-.18-.65.19-.84s.65-.09.74.28c.38 1 .93 1 1.86.65 3.54-1.3 7.07-2.6 10.61-4 .78-.05 1.67-.24 1.06-1.55z"/><path d="m178.48 281c1.11.37 1.67-.28 1.86-1.3.74-3.16 1.49-6.42 2.32-9.58.19-.93-.09-1.21-.93-.93a7.06 7.06 0 0 1 -1.49.37c-.37 0-.93.56-1-.28 0-.56-.09-1.21.84-1.3 1.86-.19 3.63-.47 5.49-.65 1.3-.19.83.56.65 1.21-1.12 3.9-2 7.81-2.89 11.81-.28 1.21-.18 1.95 1.12 2.23.37.09 1 .09.74.84s-.74.28-1.11.19l-5.86-1.4c-.47-.09-1.21.09-1.12-.65s.9-.44 1.38-.56z"/><path d="m189.73 284.19 6.05-9.39a7.19 7.19 0 0 0 .65-1.12c.93-1.58.93-1.58-.84-1.67a14.31 14.31 0 0 1 -2.14-.19c-1.58-.37-2.6 0-2.7 1.86 0 .37-.18.84-.74.65s-.28-.55-.28-.83v-.19c.09-1.49-.28-3.44.56-4.37s2.79.09 4.28.09 2.7.28 4 .28c1.58 0 1.49.75.93 1.77-.37.65-.84 1.3-1.21 2a75.57 75.57 0 0 0 -5.12 9.77c-.65 1.72-1.67 2.09-3.44 1.34z"/><path d="m267.77 251.83c-.28-.28-.56-.38-.84-.1-.84.93-1.49.37-2.14-.28-2.51-2.32-4.93-4.65-7.44-7-.93-.84-2.05-1.58-1.77-2.61-1.21 1-2.79 2.33-4.18 3.63-5.12 4.74-3.63 11.44 1.95 14.88a5.64 5.64 0 0 0 7.26-.56c2.41-2.32 4.74-4.83 7.06-7.34.19.03.38-.35.1-.62zm-4.47 3.44c-.65 1.49-3.44 3.44-5.11 3.44-3.54 0-8.1-4.65-7.91-8.19.09-2 1.4-3.25 2.79-4.55.47-.47.75-.19 1.12.18l8.74 8.28c.37.09.56.28.37.84z"/><path d="m124.72 175.74c-3.54-.18-5.77 1.31-6.7 4.75-.84 3.07-1.39 6.23-2 9.3-.09.28-.27.65.19.84a.59.59 0 0 0 .84-.47c.18-1 .83-.93 1.67-.84l11.26 2.42a1.72 1.72 0 0 1 1.58 1 1.1 1.1 0 0 0 .46.47c.37.09.47-.28.47-.56.37-2.7 1.39-5.3 1.49-7.16.02-5.75-3.77-9.49-9.26-9.75zm4.18 12.56c-3.07-.65-6.32-1.4-9.48-2.05-.93-.18-1.12-.55-1-1.48.47-4.28 2.79-6.14 7.07-5.49a9.44 9.44 0 0 1 5.4 2.32 4.69 4.69 0 0 1 1.58 3.54v.37c-.13 3.16-.47 3.49-3.57 2.79z"/><path d="m233.35 122.73c-3.9.18-6 2.79-7.34 6.14-2.42 5.86 1.3 11.25 8.37 11.25 2.88-.09 5.11-2.23 6.69-5.3 3.17-6.23-.83-12.46-7.72-12.09zm1.77 14.69a3.77 3.77 0 0 1 -4.37.65 3.91 3.91 0 0 1 -2.51-3.62 12.09 12.09 0 0 1 3.81-8.93 3.85 3.85 0 0 1 4.65-.75c1.68.84 2.42 2 2.42 4.75a12.7 12.7 0 0 1 -4 7.9z"/><path d="m164.25 140.77c-.93.75-1.58 0-2.24-.37-3.9-2.33-7.81-4.74-11.71-7.07-.56-.37-1-.84-1.77-.19s-.37 1.21-.19 1.77c1.4 4.28 2.79 8.56 4.09 12.93.28.74.75 1.58-.18 2.33-.37.27-.19.55.09.83s.47.1.75-.09c.93-.74 1.95-1.49 2.88-2.23a.53.53 0 0 0 .18-.84c-.27-.37-.55-.28-.83 0-.84.65-1.21.19-1.58-.56-1-2.42-1.12-2.42 1-4 2.51-1.95 2.51-1.95 4.74-.28.65.47 1.12.84.19 1.49-.37.28-.47.56-.09.93s.55.1.83-.09l4.19-3.26a.94.94 0 0 0 .37-.46c.03-.75-.26-1.12-.72-.84zm-9.12.28c-.84.65-1.67 1.21-2.7 2l-2-6c1.77 1.12 3.16 2 4.65 2.88.8.47.61.75.05 1.12z"/><path d="m280.7 223.18c-3.63-2.7-7.26-5.4-10.79-8.19-.56-.46-1.31-.83-1-1.76.1-.47 0-.65-.46-.75s-.56.28-.65.56l-1 3.35c-.09.37-.09.65.28.84s.56 0 .75-.38.28-1 1-.83a1.36 1.36 0 0 1 .56.18 2.89 2.89 0 0 1 1.67 3.72l-.28.84c-.74 2.6-.74 2.6-3.53 2.6-.84 0-1.3-.18-1-1.11.09-.37.18-.65-.38-.75s-.65.28-.74.66c-.47 1.67-.93 3.34-1.49 4.92-.18.66.09.75.75.94a2.27 2.27 0 0 1 2-1.31c4.56-.28 9.12-.65 13.67-1 .75-.09 1.59.09 1.86-.93s-.67-1.23-1.22-1.6zm-8.38-.19c-.74.1-.74-.37-.55-.83a13.61 13.61 0 0 1 1.23-3.26l4.92 3.72c-2.06.19-3.83.28-5.6.38z"/><path d="m254.09 134.45c-.55-.47-.93 0-1.39.18l-12.09 7.07c-.65.37-1.21.84-2 .28-.27-.28-.55-.28-.83.19s0 .55.28.74l2.69 2.23c.28.19.47.47.84.19s.28-.65-.09-.93c-.93-.74-.47-1.12.28-1.68 2-1.58 2-1.58 4.09.19 2.51 2.05 2.42 2.05 1.39 4.56-.27.74-.65 1.21-1.39.56-.28-.19-.47-.47-.84 0s0 .65.28.93l4.09 3.44c.19.18.47.37.75.09s.46-.56.09-.84c-.84-.65-.37-1.39-.19-2.14 1.4-4.27 2.8-8.55 4.28-12.83l.28-.93c.32-.84-.14-1.02-.52-1.3zm-5 8.09c-.18.65-.46.65-.93.28l-2.7-2.23 5.4-3.26c-.67 2.05-1.23 3.67-1.79 5.21z"/><path d="m220 269.59a2.39 2.39 0 0 0 -.37-.65 4 4 0 0 0 -5.58-1.12 4.17 4.17 0 0 0 -2.24 3.72 20 20 0 0 0 2 9.86 4 4 0 0 0 4.93 2.14c2.23-.65 3.25-2.32 3.25-6a19.74 19.74 0 0 0 -1.99-7.95zm-1.4 12.65c-1.11.28-1.76-.56-2.13-1.4a31.17 31.17 0 0 1 -2.42-9.67c-.1-1 .09-2.14 1.39-2.32s1.68.74 2 1.58a33.58 33.58 0 0 1 2.32 9.58 2.12 2.12 0 0 1 -1.2 2.23z"/><path d="m208.89 271a4.17 4.17 0 0 0 -1-1.21 4.32 4.32 0 0 0 -6.14.55 6.15 6.15 0 0 0 -1.3 4.84c.18 1.68.65 3.16 2.23 3.81s2.88 0 3.91-1.3h.28c.18 4.09-1.4 6.14-5.12 6.79.28.93.93.93 1.67.84a7.07 7.07 0 0 0 3.17-1.49c3.51-2.71 4.53-9.12 2.3-12.83zm-1.95 4.27a1.7 1.7 0 0 1 -1.4 1.68 1.83 1.83 0 0 1 -2-1.12 5.66 5.66 0 0 1 -.56-3.07 8.06 8.06 0 0 1 .18-1.21 1.79 1.79 0 0 1 1.4-1.48 1.62 1.62 0 0 1 1.77 1 8.29 8.29 0 0 1 .61 4.19z"/><path d="m198.66 149.33-1.86 4.74-2.51-4.56c-.09 1.49-.28 2.42-.28 3.45 0 .74-.47.93-1.12.93s-.46-.65-.37-1l.56-5.48c0-.38.09-.75.65-.84s.65.28.84.65c.65 1.12 1.3 2.32 2 3.63l1.4-3.82c.18-.37.28-.83.83-.93s.65.47.75.93l1.39 5.3c.1.47.28.94-.37 1s-.93 0-1.12-.75a19.26 19.26 0 0 0 -.79-3.25z"/><path d="m220.89 249.69a3.08 3.08 0 0 1 -2.42 2.79c-1.3.37-2.51.18-3.16-1.12s-1-2.79-1.58-4.18c-.19-.56 0-.75.46-.84s.84-.19 1 .37l1.11 3.35c.28.84.84 1.49 1.86 1.11a1.46 1.46 0 0 0 .93-2.13c-.37-1-.74-2.24-1.21-3.26a.59.59 0 0 1 .38-.93c.37-.09.74-.47.93.09a42.36 42.36 0 0 1 1.7 4.75z"/><path d="m189.36 154.35c0 .37-.28.37-.56.56-2.88 1.39-3.35 1.21-4.28-1.86l-.37-1.12c-.93-3.16-.84-3.35 2.42-3.81.37-.09.74-.19.93.37s-.19.75-.65.93a7.26 7.26 0 0 1 -1.12.37c-.56.1-.56.47-.37.84s.28.74.84.56a1.73 1.73 0 0 1 .65-.19c.46-.09 1.11-.65 1.39.28s-.55.84-1 .93c-1.12.37-1.49 1.21-.84 1.86s1.12 0 1.68-.18 1.19-.28 1.28.46z"/><path d="m214.84 148.21c1.12.37 2.14.65 3.17 1a.39.39 0 0 1 .18.65c-.18.28-.28.55-.74.46a4.81 4.81 0 0 1 -.93-.28c-.47-.09-1-.46-1.3.37s.37.93.83 1c.1 0 .19.09.28.09.47.19 1.3.09.93 1-.28.75-.83.28-1.21.19-.55-.09-1.3-.84-1.67.47s.56 1 1.12 1.3 1.3.09 1 .93-.84.37-1.3.28c-2.89-.84-2.89-.84-2-3.63.38-1 .65-2.14 1-3.16.18-.2.18-.67.64-.67z"/><path d="m226.19 245.5-.65.09c-.93.1-1.77.19-2.42-.74a1.82 1.82 0 0 1 .1-2.23 3.11 3.11 0 0 1 2.6-1.3c.28 0 .56.09.56.46s0 .65-.47.74a3.42 3.42 0 0 0 -.93.19.83.83 0 0 0 -.56.93c.1.47.56.47.93.47l1.12-.19a1.93 1.93 0 0 1 2.33 1.08 2.29 2.29 0 0 1 -.66 2.88 2.92 2.92 0 0 1 -3 .56.51.51 0 0 1 -.37-.56v-.09c.09-.28.18-.65.55-.65a3.3 3.3 0 0 0 .93.09c.56-.19 1.21-.47 1-1.21s-.41-.61-1.06-.52z"/><path d="m178.29 155.47c-1.86.09-2.79-.56-2.7-1.86a2.65 2.65 0 0 1 3-2.33c.28 0 .74 0 .65.47s-.09.74-.65.74c-.74-.09-1.49.28-1.39 1s1.11.47 1.67.47c1 0 2.05 0 2.51 1.12a2.1 2.1 0 0 1 -.37 2.51 2.85 2.85 0 0 1 -3 1c-.37-.09-.93-.09-.74-.84.18-.56.37-.74.93-.56.84.28 1.77 0 1.77-.93.09-1.35-1.12-.7-1.68-.79z"/><path d="m211 247.92a.35.35 0 0 1 -.28.46h-.09c-1.58 0-1 1-.93 1.86s.37 1.86.46 2.79c.1.47.56 1.21-.46 1.4s-.93-.74-1-1.3c-.19-.84-.28-1.77-.47-2.61s.09-2-1.49-1.58c-.37.1-.46-.18-.46-.46s-.1-.65.28-.65c1.3-.28 2.6-.47 3.9-.65.38-.1.48.27.54.74z"/><path d="m226.28 153.79c-.18-.83-2.69-2.6-3.34-2.42a1.12 1.12 0 0 0 -.47.47c-.93 1.67-1.77 3.44-2.7 5.21-.28.56 0 .65.47.93s.65.28.93-.28a12.5 12.5 0 0 1 1-1.77c.65 1.49-.18 3.54 2.23 4l-.55-2.51c-.1-.46-.19-.84.55-.93a1.67 1.67 0 0 0 .66-.09 2.11 2.11 0 0 0 1.22-2.61zm-1.39.47a.84.84 0 0 1 -1 .84h-.1c-.37 0-1-.1-.93-.66a2.22 2.22 0 0 1 .93-1.48c.63.28 1.21.65 1.1 1.3z"/><path d="m193.73 248.66c-.37-.83-3.16-1.95-4-1.67-.28.09-.37.46-.37.65-.37 1.86-.65 3.72-1 5.58-.19.74.18.74.74.84s.74.09.84-.56a16.11 16.11 0 0 1 .37-1.95c1.21 1.11.84 3.53 3.35 3.16l-1.49-3c1.47-.71 2.12-1.84 1.56-3.05zm-2.51 1.86c-.47 0-.93-.09-.74-.74s-.19-1.4.74-1.3a1 1 0 0 1 1 1 1 1 0 0 1 -1 1.04z"/><path d="m184.06 245.78c0-.93-.65-1.4-1.4-.65-1.76 1.67-3.44 3.44-5.21 5.21.66.18 1.12.74 1.77.28 1.58-1 3-.47 3.63 1.39.18.65.74.75 1.21.84 0-2.42.09-4.74 0-7.07zm-1.3 3.63a3.61 3.61 0 0 1 -1.68-.56 4.72 4.72 0 0 1 1.68-1.67z"/><path d="m201.36 248.76c-.19-.38-.28-.65-.84-.75s-.74.37-.93.75c-.93 2.14-1.86 4.18-2.79 6.41.93.38 1.49.38 1.95-.65s3-.93 3.44 0 1 .93 2 .65zm-1.77 3.72.93-2.33.93 2.23a2.58 2.58 0 0 1 -1.86.1z"/><path d="m174.29 240.48c-1-.19-1 .93-1.39 1.49a39 39 0 0 0 -2.05 3.44c-.19.46-.84.84 0 1.39s1.12-.09 1.3-.55c.47-1.12 1-1.12 2-.56a2.93 2.93 0 0 0 1.21.28 2.2 2.2 0 0 0 2-2.33 4.21 4.21 0 0 0 -3.07-3.16zm.56 3.81c-.47 0-1.21-.18-1.12-.74s.28-1.3 1-1.3a1.27 1.27 0 0 1 1 1c-.04.75-.32 1.13-.88 1.04z"/><path d="m206.47 146.63c-1.86-.28-1.21 1.12-1.3 2a26 26 0 0 0 -.56 3.82c-.09.56-.46 1.21.65 1.39s.84-.74.93-1.21c.1-.74.1-1.48 1.12-1.11 1.77 0 2.6-.75 2.7-2.05-.01-1.82-.93-2.47-3.54-2.84zm.93 3.35c-.65 0-1-.09-.83-.84.09-.46-.1-1.11.55-1.21.75.1 1.4.28 1.31 1.12s-.43.95-1.03.95z"/><path d="m399.28 204.76c-.09-.74-.56-1.58-.28-2.42 1.59-4.37 1-8.83.1-13.2a11.35 11.35 0 0 1 -.28-5c.74-4.37-.47-8.55-1.86-12.74a3 3 0 0 1 -.37-1.58c.83-4.84-.56-9.3-2.33-13.67-.56-1.3-1.21-2.51-.74-3.82-.19-4.83-1.86-8.83-3.91-12.83a3.34 3.34 0 0 1 -.65-1.67c.09-5.21-2.33-9.58-5-13.77-.28-.47-.75-.93-.75-1.49-.18-4.83-2.6-8.65-5.39-12.37a11.23 11.23 0 0 1 -2-4.09c-1-4.28-3.81-7.72-6.69-11a3.46 3.46 0 0 1 -1.13-1.49c-1.3-5-4.65-8.65-8.28-12.1-.46-.46-1-.74-1.21-1.39-1.3-4.09-4.18-7.07-7.34-9.77a17.22 17.22 0 0 1 -4.37-5c-2.05-3.63-5.49-6-8.93-8.37-.47-.28-1-.47-1.31-1-2.51-4.75-6.79-7.35-11.25-9.86a2.87 2.87 0 0 1 -1.21-.84c-2.88-4.46-7.25-6.79-11.9-8.84a4.16 4.16 0 0 1 -1.4-.83c-3.16-4.19-7.81-6.14-12.56-7.82a4.38 4.38 0 0 1 -1.48-.74c-3.54-3.91-8.19-5.39-13-6.7a3.75 3.75 0 0 1 -1.67-.65c-3.53-3.35-8-4.55-12.56-5.48-.93-.19-1.86 0-2.6-.56-4.37-3.44-9.49-4.19-14.79-4.65a2.05 2.05 0 0 1 -1.21-.38 17.84 17.84 0 0 0 -7.44-2.79c-4.18-.74-8.46-.37-12.56-2.23-3.16-1.49-6.88-.93-10.41-.74a3.27 3.27 0 0 1 -1.86 0c-4.56-2-9.3-1.68-14.14-1-.74.1-1.58.56-2.42.28-5.1-2.02-10.1-1-15.16.21a4.6 4.6 0 0 1 -1.95.1 18.29 18.29 0 0 0 -7.44-.1c-4.37.75-8.37 2.42-12.93 2.14-3.44-.28-6.79 1.4-10.05 2.79a3.21 3.21 0 0 1 -1.58.56c-5.48-.46-10.23 1.67-14.88 4.28a2.56 2.56 0 0 1 -1.12.37c-4.46-.09-8.27 1.77-12 4a15.64 15.64 0 0 1 -5.58 2.33c-4.19.74-7.63 3.16-11 5.76a4 4 0 0 1 -1.39.93c-5.4.84-9.4 4.09-13.21 7.63a2.33 2.33 0 0 1 -1.12.74c-4.37.93-7.62 3.72-10.69 6.79a15 15 0 0 1 -4.56 3.44c-3.91 1.77-6.7 5-9.3 8.28-.37.56-.56 1.12-1.21 1.4-4.93 2.04-7.88 6.19-10.76 10.41a3.53 3.53 0 0 1 -.93 1.12c-4.65 2.51-7.35 6.7-9.77 11.16a2.82 2.82 0 0 1 -.93 1.4c-4.28 2.69-6.51 7-8.55 11.44a4.09 4.09 0 0 1 -.93 1.76c-4.19 3.26-6.14 7.91-7.82 12.75a2.48 2.48 0 0 1 -.65 1.3c-3.9 3.44-5.39 8.18-6.69 13a3.67 3.67 0 0 1 -.66 1.67c-3.34 3.63-4.55 8.19-5.39 12.93a4.74 4.74 0 0 1 -.56 2.24c-3.35 4.18-4.09 9.2-4.46 14.32a3.06 3.06 0 0 1 -.28 1.3c-3.07 4.56-3.26 9.77-3.35 15a2.34 2.34 0 0 1 -.09 1.11c-2.51 4.56-2.42 9.49-2.05 14.51a3.93 3.93 0 0 1 -.06 1.77 20.57 20.57 0 0 0 -1.3 11.35 22.55 22.55 0 0 1 -.1 7.9c-.93 4 .1 7.91 1 11.91a3.54 3.54 0 0 1 .18 1.67c-1.3 5-.09 9.77 1.49 14.42a3.81 3.81 0 0 1 .46 1.75c-.83 4.65.47 8.93 2.24 13.21a11.77 11.77 0 0 1 1.03 4.79c0 4.46 1.86 8.46 3.91 12.27a2.78 2.78 0 0 1 .65 1.49c-.1 5.21 2.32 9.58 5.11 13.86.28.46.75.84.75 1.49.37 5.11 3.07 9.21 6 13.11.37.47.93.84 1 1.49.83 5.3 4 9.21 7.44 13a2.82 2.82 0 0 1 .83 1.21c1.31 5.08 4.71 8.64 8.31 12.08.37.37.93.65 1.12 1.21 1.67 5.12 5.49 8.46 9.48 11.63a2.73 2.73 0 0 1 1 1c2 4.84 6 7.81 10.14 10.6.46.28 1.11.56 1.3 1 2.51 4.83 6.88 7.44 11.44 9.95a1.82 1.82 0 0 1 1.11.74c2.79 4.37 7.17 6.7 11.72 8.75a2.74 2.74 0 0 1 1.49.74c3.26 4.28 7.91 6.23 12.74 7.91a2.43 2.43 0 0 1 1.31.65c3.44 3.81 8 5.3 12.74 6.6a4.94 4.94 0 0 1 2 .74c3 2.89 6.69 4.19 10.6 5a18.62 18.62 0 0 1 6.88 2.51c3.16 2 7 2.51 10.7 2.88a5.17 5.17 0 0 1 2.88.56 17.07 17.07 0 0 0 7.63 2.7c4.09.55 8.18.46 12.18 2.14 3.16 1.3 6.88.93 10.42.55a2.91 2.91 0 0 1 1.77.1 20.36 20.36 0 0 0 10.23 1.3c3-.19 5.95-.65 9 .09 4 .93 8 0 11.9-1a2.77 2.77 0 0 1 1.49-.19c4.65 1.31 9.12.28 13.49-1.11a11.49 11.49 0 0 1 4.37-.56c4.46.37 8.65-1.12 12.74-2.88a3 3 0 0 1 1.77-.56c5.12.46 9.58-1.49 14-3.82.56-.27 1-.74 1.68-.74 5.39.09 9.76-2.51 14.13-5.3a2.86 2.86 0 0 1 1.21-.56c5.21-.37 9.3-3.07 13.3-6.14a4.15 4.15 0 0 1 1.58-.93c4.38-.65 7.82-3.07 11.07-5.86a17.79 17.79 0 0 1 5.21-3.16c4.09-1.49 7.16-4.46 10.05-7.63.37-.37.55-.83 1.11-1 5.12-1.67 8.47-5.49 11.63-9.49a2.77 2.77 0 0 1 1-1c4.37-1.77 7.16-5.21 9.77-8.93a12 12 0 0 1 3.53-3.63c3.72-2.51 5.95-6.23 8.09-10 .28-.47.38-1 .93-1.4 4.37-2.69 6.7-7 8.75-11.53.28-.56.28-1.21.83-1.58 4.37-3.26 6.33-8 8-12.84a3 3 0 0 1 .56-1.21c4-3.44 5.49-8.27 6.79-13.11a2.6 2.6 0 0 1 .46-1.4c3.73-3.9 4.93-8.83 5.77-13.85a4.07 4.07 0 0 1 .47-1.4c3.35-4.18 4.09-9.21 4.55-14.32a2.64 2.64 0 0 1 .38-1.4 19.24 19.24 0 0 0 3.07-9.76c.27-3.26.46-6.42 1.76-9.58 1.49-3.44 1.12-7.35.84-11.07a3.11 3.11 0 0 1 0-1.86c2.15-4.49 1.77-9.14 1.12-13.79zm-5.48 2.51c-2.33 2.24-4.47 4.65-6.89 7.17-1.58-4.28-1.58-8.38.56-12.37a67.22 67.22 0 0 1 4.65-6.7 41.79 41.79 0 0 0 5.21-7.07c1.95 7.16 2.05 13.58-3.53 18.97zm.74-17.11c-2.33 2.88-4.56 5.86-7.07 8.93-2.23-4.74-2.23-9.21.19-13.67 1.48-2.7 3.16-5.21 4.83-7.82 1.12-1.67 2.05-3.34 3.26-5.3 1.95 6.33 3.25 12.28-1.21 17.86zm-1.49-16c-2 3.16-4.09 6.23-6.23 9.49a14.39 14.39 0 0 1 -1.4-12.74 53.6 53.6 0 0 1 3.45-7.07 51.22 51.22 0 0 0 3.81-7.81c2.6 6.32 4.37 12.18.37 18.13zm-1.11-23.81a12.21 12.21 0 0 1 -1.12 6.79c-1.68 3.81-4.09 7.26-6.05 11.16a14 14 0 0 1 -2.6-11.9 40.43 40.43 0 0 1 2.7-7.35 50.18 50.18 0 0 0 3.53-8.65 29 29 0 0 1 3.54 9.95zm-5.4-8.18c-1.49 3.72-3.44 7.16-5 11.07-3.16-3.73-4.37-7.82-3.35-12.47a70.65 70.65 0 0 1 3-9.58c.65-1.86 1.21-3.81 1.86-6 3.21 5.44 6 10.56 3.49 16.98zm-10.54-31.91c3.72 5.31 7 10 5.12 16.56-1.12 3.91-2.79 7.63-4.1 11.63-2.6-2.7-4.27-5.58-4.46-9.21a29.57 29.57 0 0 1 1.12-8.56 64.14 64.14 0 0 0 2.32-10.42zm-8-14.26c4.19 4.93 7.81 9.58 6.42 16.37-.84 3.91-2.23 7.63-3.07 11.72a14.54 14.54 0 0 1 -5.3-13.67c.59-4.62 1.8-9.18 1.95-14.42zm-9.67-4.74a48.77 48.77 0 0 0 .37-8.18c5.12 2.69 8.56 10.23 7.63 16.46-.47 3.44-1.21 7-2 10.69-3.72-2.69-6-6.13-6.32-10.69a61.43 61.43 0 0 1 .35-8.25zm-.84-3.91c-.46 3.17-.74 6.33-1 9.58a13.76 13.76 0 0 1 -7.26-10.79 94.39 94.39 0 0 1 -.23-10.2 43.77 43.77 0 0 0 -.46-6c5.91 4.61 10.1 9.63 8.98 17.44zm-12.65-22.5a12 12 0 0 1 2.61 7.44c.09 4 0 8 0 12.18-4.65-2.23-7.35-5.58-8.28-10.42-.84-4.09-.84-8.27-1.3-12.46-.19-.93-.38-1.95-.56-3.35a30.1 30.1 0 0 1 7.56 6.64zm-8.15-.85c0 2.88.28 5.76.46 8.83-4.46-1.77-7.44-4.65-8.83-9.11-1.4-4.28-1.68-8.84-2.61-13.21a17.57 17.57 0 0 0 -.65-2.88c6.94 3.37 11.63 8.13 11.63 16.37zm-12.28-13.82c.74 3.81 1 7.72 1.86 11.72-4.56-1.4-7.72-3.91-9.58-8.19a46.25 46.25 0 0 1 -2.51-8.46 59.37 59.37 0 0 0 -2.18-7.63c5.81 2.89 11 5.68 12.41 12.56zm-13.49-11.35a72 72 0 0 1 2.61 10.05l.83 3.16c-4.55-1-8-3.26-10.13-7.25a53.8 53.8 0 0 1 -3.07-7.63 71.13 71.13 0 0 0 -3.16-8.28c5.48 2.23 10.69 4.19 12.92 9.95zm-12.55-5.48c1 3.25 2.14 6.41 3.25 9.85a14.68 14.68 0 0 1 -11.72-8.2c-2.32-4.37-3.72-9-6.41-13.49 6.88 1.88 12.74 4.49 14.88 11.84zm-15.63-10.51c2.33 3.9 3.63 8.18 5.58 12.46a14.2 14.2 0 0 1 -11.44-5.77 53.79 53.79 0 0 1 -4.18-7c-1.21-2.42-2.42-4.75-3.82-7.07 5.4 1.14 10.7 2.17 13.86 7.38zm-13.67-4.28c1.67 3.35 3.44 6.6 5.3 10-5 .19-9-1.39-12.09-5.11a79.17 79.17 0 0 1 -5.12-7.26 44.27 44.27 0 0 0 -4.37-6c6.79.74 12.84 1.95 16.28 8.37zm-14.79-4.37c1.67 3 3.63 5.85 5.58 8.92a14.38 14.38 0 0 1 -13-4.74c-3.44-3.72-6.05-8.09-9.86-11.9 7.05.09 13.37 1.11 17.28 7.72zm-23.07-9.31a12.9 12.9 0 0 1 6 3.91c2.88 3.07 5 6.6 7.81 10.05-4.74.93-8.84.09-12.46-2.89a61.6 61.6 0 0 1 -6.05-6 48.38 48.38 0 0 0 -5.77-5.77 31 31 0 0 1 10.47.7zm-10.13 1.4c3.07 2.88 5.58 6.23 8.65 9.39a14 14 0 0 1 -11.26-.93 24.54 24.54 0 0 1 -4.28-3.16c-3.19-2.79-6.14-5.77-9.95-8.58 6.23-.72 12-1.37 16.84 3.28zm-15.16-.09c2.6 2.51 5.3 4.93 8.09 7.44a14.22 14.22 0 0 1 -12.84-.63 65.94 65.94 0 0 1 -7.07-4.93 60.83 60.83 0 0 0 -6.51-4.56c6.7-1.7 12.93-2.35 18.33 2.68zm-23.35-2.79a11.77 11.77 0 0 1 5.49 1.95c3.72 2.23 6.79 5.3 10.51 7.91-4.28 2-8.47 2.41-12.65.55a44.18 44.18 0 0 1 -7.35-4.28 62.84 62.84 0 0 0 -7.16-4.27 26.73 26.73 0 0 1 11.16-1.86zm-8.46 4.83c2.88 2 5.86 3.91 8.92 5.86-4.09 2.42-8.18 3.07-12.55 1.49a57.19 57.19 0 0 1 -7.72-3.58c-2.42-1.3-4.93-2.51-7.44-3.62 6.51-2.84 12.68-4.38 18.79-.15zm-19.26 1.49a69.55 69.55 0 0 1 8.37 4.19l4.38 2.32c-4.19 2.88-8.47 3.81-13.21 2.33-3-1-5.95-2.24-8.84-3.54-1.86-.74-3.72-1.49-5.58-2.14 3.54-2.69 11.03-4.83 14.88-3.16zm-12.37 5.49c3.26 1.49 6.61 2.88 10.05 4.46-3.63 3-7.63 4.47-12.37 3.54-5.4-1-10.33-3.54-16-4.65 5.95-3.72 11.53-6.42 18.32-3.35zm-16.27 5.11c3.81 1.12 7.44 2.7 11.25 3.82-1.49 2.42-5.67 4.46-9.21 4.74a31 31 0 0 1 -8.25-1.12c-1.76-.37-3.44-.93-5.2-1.3s-3.26-.65-5.31-1.11c5.18-3.72 10.11-6.98 16.72-5.03zm-11.91 7.35c2.88.93 5.77 1.58 8.93 2.42a15.11 15.11 0 0 1 -4.93 4.09c-3.81 2-7.81 1.49-11.81.93a81.8 81.8 0 0 0 -11.16-1.49c5.48-5.39 11.34-8.37 18.97-5.95zm-30.41 13c5-5.39 11.06-6.79 18.13-5 2.33.56 4.84.93 7.44 1.4a14.4 14.4 0 0 1 -11.46 6.41 53.73 53.73 0 0 1 -7.81-.28c-2.79-.27-5.58-.37-8.37-.37.86-.83 1.51-1.49 2.07-2.14zm-13.68 11.33c4.56-6.14 10.51-8.84 18.23-7.54a70.89 70.89 0 0 0 7.91.65c-2.88 4.93-7 7.45-12.28 7.63-4.74.19-9.58 0-14.51 0-.09-.23.37-.51.65-.74zm1.31 2.42c4.09-.19 8-.1 12.18-.1a13.92 13.92 0 0 1 -9.58 8.09c-4.46 1.12-9 1-13.58 1.68-.93.09-1.86.28-3.16.46 3.72-5.25 7.25-10.09 14.14-10.18zm-9.52 10.64c3.25-.09 6.51-.37 10-.65a13.92 13.92 0 0 1 -9.3 8.93c-3.81 1.21-7.72 1.58-11.62 2.32-1.4.28-2.79.66-4.37.93 3.29-6.41 7.6-11.25 15.29-11.53zm-9.46 11.63c2.79-.28 5.58-.84 8.37-1.21-.56 3.91-3.9 7.9-8.28 9.58a67.53 67.53 0 0 1 -7.44 2.32 76.66 76.66 0 0 0 -8.09 2.42c2.79-7.35 7.35-12.28 15.44-13.11zm-11.72 13.31c3.44-.84 6.89-1.68 10.51-2.61-1.11 5-3.72 8.56-8.18 10.61-2.7 1.21-5.49 2.23-8.28 3.16a49 49 0 0 0 -6.42 2.6c2.33-6.52 5.12-12.1 12.37-13.76zm-15.44 18.13a11.47 11.47 0 0 1 3.82-3.13c4.18-2.23 8.74-3.16 13.3-4.83a14 14 0 0 1 -6.61 10.83 54.7 54.7 0 0 1 -6.51 3.35 48.81 48.81 0 0 0 -8.37 3.9 27.36 27.36 0 0 1 4.37-10.12zm-1.3 10c3.44-1.67 7-3.07 10.7-4.74a14.13 14.13 0 0 1 -5.58 11.34 51.05 51.05 0 0 1 -7.2 4.42 49.94 49.94 0 0 0 -7.16 4.27c1.33-6.51 2.82-12.37 9.24-15.25zm-11.72 20.6a11.81 11.81 0 0 1 4.64-5.12c3.44-2.42 7.35-4 11.26-6.32.09 5.11-1.49 9.2-5.31 12.27-2.51 2-5.2 3.82-7.9 5.58-1.68 1.12-3.26 2.33-5 3.54a30.36 30.36 0 0 1 2.31-9.95zm1.4 9c2.79-1.68 5.58-3.54 8.27-5.3.75-.47.93-.28.93.46a14.16 14.16 0 0 1 -3.9 11.16c-1.49 1.49-3.07 2.79-4.65 4.09-2.61 2.05-5.4 3.82-8 6.7.18-7.05 1.02-13.28 7.35-17.09zm-5.12 16.85c3.07-2.88 6.6-5.11 10-7.9a13.87 13.87 0 0 1 -2.64 12.32 48.44 48.44 0 0 1 -5.67 5.86c-2.05 1.86-4.1 3.72-6.05 5.77-.28-5.91-.57-11.63 4.36-16.05zm-2.42 15.91c3-3.07 6.23-5.68 9.4-8.65 1.39 4.46 1 8.55-1.58 12.37a44.52 44.52 0 0 1 -5 6 53.21 53.21 0 0 0 -5.86 7c-.77-6.21-1.42-11.89 3.04-16.72zm-.09 14.79c2.7-2.61 5.12-5.31 7.72-8.1 1.67 4.47 1.67 8.65-.65 12.65a43.25 43.25 0 0 1 -4.84 6.79 58.14 58.14 0 0 0 -4.83 6.79c-1.59-6.69-2.33-12.83 2.6-18.13zm.37 16.18c2.33-2.88 4.56-5.86 7-8.84 2 4.37 2.32 8.56.37 12.84a61.88 61.88 0 0 1 -4.93 8.18 34.78 34.78 0 0 0 -3.53 6c-2.07-6.46-3.47-12.51 1.09-18.18zm-.84 24.27a12.86 12.86 0 0 1 2.34-8.18c2-3.16 4.09-6.32 6.32-9.58a13.82 13.82 0 0 1 1.49 12.46 51.81 51.81 0 0 1 -3.81 8 49.07 49.07 0 0 0 -3.53 7.07 29.6 29.6 0 0 1 -2.81-9.77zm4.93 8.19c1.77-3.63 3.91-7 5.77-10.6a14.82 14.82 0 0 1 1.86 14.6c-1.67 4.37-3.91 8.46-5.39 13.39-2.89-5.76-5.3-11.16-2.24-17.39zm4 16.37c1.31-4 3.45-7.72 5.12-12a14.67 14.67 0 0 1 3.16 14c-1.21 4.65-3.25 9-4.28 14.13-3.07-5.16-6.04-9.99-4-16.13zm5.58 15c1-4.09 2.79-7.9 4.1-12.18a14.24 14.24 0 0 1 4.37 13.39c-.75 4.84-2.51 9.49-3.16 14.79-3.54-5.14-6.89-9.7-5.31-16.03zm13.3 30.05c-4.27-4.93-8-9.77-6.32-16.56.93-3.78 1.85-7.47 2.85-11.38 3.72 3.17 5.68 7 5.49 11.72a97.35 97.35 0 0 1 -1.58 11.44c-.16 1.44-.25 2.89-.44 4.75zm9.58 6a63.16 63.16 0 0 0 -.37 7.44c-4.55-4.55-8.65-8.93-7.72-15.72.38-3.07 1-6.13 1.58-9.2l.47-2.7a14.2 14.2 0 0 1 6.14 9c.74 3.84.18 7.47-.1 11.19zm.93 3.82c.38-3.54.66-7.07.94-10.79a14.32 14.32 0 0 1 7.53 12.09c.28 3.9 0 7.9.28 11.9a26.29 26.29 0 0 1 .18 3c-5.3-4.29-9.76-8.75-8.91-16.19zm9.12-1.86c-.84-4.47-3.72-7.54-7.35-10-.65-.37-1.21-.74-1.21-1.67-.46-5-3.07-8.74-7-11.63a1.94 1.94 0 0 1 -.93-1.67 14.31 14.31 0 0 0 -5-11.16 4.24 4.24 0 0 1 -1.61-3.67c.38-4.56-1.86-8-4.74-11.16a2.42 2.42 0 0 1 -.65-2.24 15.24 15.24 0 0 0 -3.54-12 3.23 3.23 0 0 1 -.74-3 14.14 14.14 0 0 0 -2.23-11.35 4.44 4.44 0 0 1 -.65-4.28c1.21-4 .28-7.81-1.77-11.44a3.66 3.66 0 0 1 -.19-3.25 15.2 15.2 0 0 0 -.49-12.06 3.37 3.37 0 0 1 0-3.26c2-3.81 1.76-7.81.46-11.9a3.79 3.79 0 0 1 .28-3.45c2.42-4 2.42-8.37 1.21-12.74-.09-.56-.28-1 .09-1.58 3.26-4 3.82-8.56 2.89-13.39a1.78 1.78 0 0 1 .46-1.77c3.35-3.72 4.28-8.09 3.81-12.93a1.85 1.85 0 0 1 .56-1.77c3.54-3.25 4.84-7.53 4.84-12.18a2.77 2.77 0 0 1 .93-2.32 14.7 14.7 0 0 0 5.47-10.89 3.76 3.76 0 0 1 1.67-3.16 15.09 15.09 0 0 0 6.05-10.23 3.63 3.63 0 0 1 1.86-2.88c3.72-2.14 5.76-5.49 6.79-9.58a4 4 0 0 1 2.32-3c4-1.86 6.23-5.39 7.63-9.49a2.68 2.68 0 0 1 1.86-1.86c4.37-1.58 7.16-4.83 8.93-9a2.76 2.76 0 0 1 2-1.86 14.85 14.85 0 0 0 9.49-8 3.53 3.53 0 0 1 2.6-1.95 15.27 15.27 0 0 0 9.86-7.16 3.09 3.09 0 0 1 2.42-1.68 14.85 14.85 0 0 0 10.52-6.23 4 4 0 0 1 3.16-1.67 14.82 14.82 0 0 0 10.42-5.12 4.17 4.17 0 0 1 3.63-1.58c4.46.19 8.09-1.86 11.25-4.74a2.14 2.14 0 0 1 2.05-.84c4.56.84 8.46-.56 12.09-3.26a4.36 4.36 0 0 1 3.81-.93 14.93 14.93 0 0 0 11.59-2.69 3.29 3.29 0 0 1 3.07-.47c4.27 1.4 8.27.47 12.09-1.58a3.16 3.16 0 0 1 3.25-.19 15.25 15.25 0 0 0 12.28-.74 3.12 3.12 0 0 1 3 .09c4.18 2 8.37 1.86 12.65.28a2.61 2.61 0 0 1 2.6.28c4 2.61 8.37 2.88 12.84 1.77a3 3 0 0 1 2.79.56 14.78 14.78 0 0 0 11.43 2.69 4.7 4.7 0 0 1 4.09 1.12c3.16 2.79 7 3.53 11.07 3.16a3.75 3.75 0 0 1 3.35 1.21c3.16 3.35 7.34 4.19 11.71 4.37a2.45 2.45 0 0 1 2.05 1c3 3.72 7.07 5.3 11.72 5.67a2.69 2.69 0 0 1 2.14 1.3c2.7 4 6.6 5.77 11.25 6.51a2.08 2.08 0 0 1 1.68.93 14.93 14.93 0 0 0 10.23 7.72 3.57 3.57 0 0 1 2.7 2.14c1.95 4.09 5.39 6.42 9.58 7.91.74.28 1.39.37 1.76 1.3a15.52 15.52 0 0 0 9 9.39 3.23 3.23 0 0 1 2 2.33c1.21 4.46 4.28 7.35 8.19 9.49a2.45 2.45 0 0 1 1.48 1.98 15.32 15.32 0 0 0 7.1 10.15 3.74 3.74 0 0 1 1.86 3.07 14.67 14.67 0 0 0 6.05 10 4 4 0 0 1 1.67 3.16 14.63 14.63 0 0 0 4.84 10.14c1.21 1 2.14 2.23 1.67 3.72-.18 4.75 2 8.28 4.75 11.44a2.16 2.16 0 0 1 .65 1.77 15.35 15.35 0 0 0 3.63 12.7 2.84 2.84 0 0 1 .55 2.7 15.24 15.24 0 0 0 2.42 11.81 3.68 3.68 0 0 1 .56 3.53 15.42 15.42 0 0 0 1.49 11.82 3.41 3.41 0 0 1 .28 3.25 15.09 15.09 0 0 0 .37 11.72 4.16 4.16 0 0 1 0 3.91c-1.95 3.9-1.67 8-.28 12a2.77 2.77 0 0 1 -.37 2.79c-2.42 3.91-2.51 8.19-1.49 12.56a2 2 0 0 1 -.19 2.05c-3.16 3.9-3.72 8.46-2.88 13.3a2.13 2.13 0 0 1 -.56 2 15.54 15.54 0 0 0 -3.72 12.56 1.92 1.92 0 0 1 -.56 1.95 15.09 15.09 0 0 0 -4.93 12.05 2.75 2.75 0 0 1 -1.11 2.42c-3.72 3-5.21 7-5.58 11.53a2.33 2.33 0 0 1 -1.12 2 15.13 15.13 0 0 0 -6.6 11 2.22 2.22 0 0 1 -1 2c-4.47 2.32-6.79 6.32-7.91 11.07a1.79 1.79 0 0 1 -1 1.39c-4.56 1.86-7.17 5.49-8.75 10a2.59 2.59 0 0 1 -1.67 1.86 15.05 15.05 0 0 0 -8.97 8.73 3.08 3.08 0 0 1 -2.33 2.05c-4.46 1.2-7.34 4.27-9.48 8.18a2.21 2.21 0 0 1 -1.86 1.49c-4.56.74-7.91 3.35-10.42 7.25a3.39 3.39 0 0 1 -2.6 1.68c-4.56.46-8 3-10.7 6.51a2.33 2.33 0 0 1 -2.23 1.11 15.47 15.47 0 0 0 -11.26 5.49 3.32 3.32 0 0 1 -2.88 1.21c-4.46-.28-8.18 1.49-11.35 4.47a3.79 3.79 0 0 1 -3.25 1c-4.19-.56-7.91.84-11.26 3.44a3.37 3.37 0 0 1 -3.34.84c-4.38-1-8.28.28-11.91 2.6a3.12 3.12 0 0 1 -3 .47c-4.37-1.4-8.46-.47-12.37 1.67a2.6 2.6 0 0 1 -2.6.19 15.38 15.38 0 0 0 -12.65.46 3 3 0 0 1 -2.79-.09 15 15 0 0 0 -12-.56 3.66 3.66 0 0 1 -3.53-.37c-3.72-2.23-7.72-2.33-11.82-1.4a3.2 3.2 0 0 1 -3.16-.55c-3.53-2.7-7.62-3.17-11.9-2.42a3 3 0 0 1 -2.89-.75 14.82 14.82 0 0 0 -11.53-3.53 4 4 0 0 1 -3.53-1.3 14.71 14.71 0 0 0 -11.17-4.1 3.08 3.08 0 0 1 -2.69-1.2c-2.89-3.63-6.89-5.12-11.44-5.49a2.14 2.14 0 0 1 -2-.93 15.3 15.3 0 0 0 -10.88-6.7 3.1 3.1 0 0 1 -2.6-1.77c-2.23-3.9-5.77-6-10.14-7.07a3 3 0 0 1 -2.17-1.88c-2-4.18-5.4-6.6-9.58-8a3.29 3.29 0 0 1 -2-2c-1.49-4.18-4.65-6.88-8.65-8.55a3.47 3.47 0 0 1 -2.24-2.33c-1.12-4.19-4-7.07-7.72-9a3.71 3.71 0 0 1 -2.18-2.81zm11 29.57c-5.59-3.72-10.33-7.9-10-15.44.09-3.44 0-7 0-10.69 4.37 2.14 7.16 5.3 8.18 9.76s.94 9.21 1.59 13.77a6.44 6.44 0 0 1 .21 2.61zm4.37 5c-2.51-2.6-3.17-5.95-3.54-9.39-.28-3.25-.46-6.51-.74-10a14.19 14.19 0 0 1 9 9.39 83.18 83.18 0 0 1 2 9.67c.38 2.14.84 4.19 1.4 6.23a35.5 35.5 0 0 1 -8.14-5.87zm13.37 11.13a13.61 13.61 0 0 1 -4.84-9c-.55-3.53-1.11-7-1.67-10.6 3.91.56 7.91 3.91 9.58 8a49.71 49.71 0 0 1 2.42 8 47.83 47.83 0 0 0 2.32 8.09 36.59 36.59 0 0 1 -7.81-4.49zm8.74 3.26c-1.58-4.19-2.14-8.56-3.44-13.12 4.65 1 8 3.26 10.14 7.26a49 49 0 0 1 3.16 7.9 63 63 0 0 0 3.07 7.91c-5.51-2.21-10.69-4.21-12.93-9.98zm14.42 9.55a46.28 46.28 0 0 1 -3.35-8.37c-.56-1.77-1.11-3.44-1.77-5.49a13.91 13.91 0 0 1 10.89 6.79 60.47 60.47 0 0 1 3.44 6.88 56.16 56.16 0 0 0 3.62 7.54c-4.09 0-10.83-3.82-12.83-7.35zm22.41 12.55a14.53 14.53 0 0 1 -10-8.65c-1.39-3.25-2.79-6.51-4.28-9.95a14 14 0 0 1 11.44 5.86 53.59 53.59 0 0 1 4.43 7.38 48 48 0 0 0 4 6.7 40.69 40.69 0 0 1 -5.59-1.34zm6.52.1c-.56-1-1.31-2-1.86-3-1.77-3-3.26-6-4.93-9.11a13.67 13.67 0 0 1 11.72 4.74 52.2 52.2 0 0 1 5 6.88 71.24 71.24 0 0 0 4.46 6.33c-4.07.39-11.98-1.75-14.39-5.84zm20.83 8.46a12.26 12.26 0 0 1 -5.86-4c-2.79-3.44-4.74-7.35-7.44-11.16 4.65-.56 8.56.47 11.9 3.54a52.18 52.18 0 0 1 5.59 6.41 41.31 41.31 0 0 0 5.48 6.51 28.49 28.49 0 0 1 -9.67-1.3zm14.88 2.88a13.94 13.94 0 0 1 -6.6-4.92c-2.23-2.79-4.37-5.68-6.79-8.84 3.16-.47 6-.56 8.93.65s5 3.35 7.25 5.58c2.61 2.7 4.84 5.67 8 8.28a28.06 28.06 0 0 1 -10.79-.75zm12-.18a43.67 43.67 0 0 1 -6.23-6.23c-1.3-1.49-2.51-2.79-3.91-4.28 4.56-1.3 8.74-.93 12.56 1.77 1.67 1.21 3.25 2.51 4.83 3.9 2.52 2.23 4.75 4.65 8 6.89-5.58.65-10.69 1.39-15.25-2.05zm20.28 2.51a12.65 12.65 0 0 1 -6.7-3.53c-2.79-2.52-5.49-5.12-8.37-7.72 4.46-1.77 8.65-1.68 12.74.74a62.23 62.23 0 0 1 6.42 4.56 65.63 65.63 0 0 0 7.07 5c-4 .95-7.54 1.51-11.16.95zm8.74-4.09c-2.7-2.23-5.58-4.47-8.47-6.7 4.56-2.14 8.93-2.32 13.31-.09a73.9 73.9 0 0 1 8.09 5 56.29 56.29 0 0 0 5.58 3.16c-6.7 2.26-12.84 3.28-18.51-1.41zm30.41-.1c-5.39 2-10.41 1.59-15.25-1.86-2.51-1.86-5.3-3.62-8.19-5.58 4-2.32 8.1-3.07 12.47-1.48a56.5 56.5 0 0 1 7.62 3.72 57.34 57.34 0 0 0 7.17 3.53 15.35 15.35 0 0 1 -3.82 1.67zm.75-4.46c-2.89-1.67-5.77-3.26-8.93-5 3.72-2.7 7.62-3.72 12.09-2.51a59.12 59.12 0 0 1 8.09 3.07 69.6 69.6 0 0 0 7.72 3.07c-6.32 3.51-12.37 5.37-18.97 1.37zm17.67-3.16c-3.91-1.49-7.44-3.54-11.53-5.12 4-3.25 8.18-4.56 12.92-3.35a80.38 80.38 0 0 1 9.12 2.89c1.86.65 3.81 1.21 6 1.86-5.16 3.07-10.19 5.95-16.51 3.72zm15.62-5.49c-4.18-1-8.09-2.88-12.37-4.19 3.45-3.34 7.35-5 12-4.46s9 2.14 13.49 3c.74.18 1.49.28 2.79.46-5.02 3.42-9.58 6.77-15.91 5.19zm13.58-6.83c-3.9-.75-7.53-2.14-11.62-3 3.35-3.81 7.16-5.67 12.09-5.39 5.21.28 10.32 1.86 15.62 1.95-2.88 4.53-10.41 7.44-16.09 6.44zm13.58-8c-3.72-.65-7.44-1.3-11.44-2 3-4 6.61-6.23 11.44-6.42 5.31-.19 10.51 1 16.28.65-4.65 4.93-9.3 8.93-16.28 7.77zm16-9c-4.65.37-9.21-.65-14.14-.93a14.34 14.34 0 0 1 11.63-7.44c4.93-.47 9.86.09 14.88-.28-3.35 4.02-6.64 8.11-12.37 8.65zm8.56-9.95c-3.35-.19-6.7 0-10.23 0a14 14 0 0 1 9.67-8.19 62.54 62.54 0 0 1 10.14-1.21 38.13 38.13 0 0 0 6.42-.83c-4 6.06-8.37 10.62-16 10.25zm12.74-11-11.25.84a14.19 14.19 0 0 1 9.39-9c4-1.21 8.09-1.58 12.09-2.33 1.21-.28 2.33-.56 3.82-.83-3.35 5.69-6.79 10.8-14.05 11.36zm10.05-11.81c-3.45.47-6.89 1-10.51 1.58 1.39-4.65 4.09-7.9 8.46-9.67a47.55 47.55 0 0 1 7.81-2.33 58.59 58.59 0 0 0 8-2.23c-2.98 6.41-6.32 11.76-13.76 12.69zm9.11-12.56c-3.25.66-6.42 1.49-9.77 2.24a14.05 14.05 0 0 1 7.72-10.33 46.44 46.44 0 0 1 7.82-3 56.32 56.32 0 0 0 7.44-2.89c-2.33 7.05-5.68 12.54-13.21 14.02zm19.27-23.68a15.49 15.49 0 0 1 -10.32 10.32c-3.26.84-6.42 1.95-9.77 3.07.65-4.74 2.79-8.46 6.79-10.88a64.93 64.93 0 0 1 8.1-3.91 52.88 52.88 0 0 0 6.51-3.16 19.79 19.79 0 0 1 -1.31 4.56zm-1.3-4.65c-3.63 1.67-7.35 3-11.07 4.74a14 14 0 0 1 5.86-11.44 57.73 57.73 0 0 1 7.63-4.47 59 59 0 0 0 6.6-3.9c-1.32 6.33-2.81 12.1-9.04 15.08zm11.07-19.44a13.33 13.33 0 0 1 -4.65 4.46c-3.44 2.23-7.16 3.72-10.79 5.86-.09-5.11 1.49-9.21 5.39-12.28a94.26 94.26 0 0 1 8-5.48c1.68-1.12 3.26-2.24 5-3.54-.37 3.92-1.02 7.64-2.97 10.99zm5.21-17a11.21 11.21 0 0 1 -4.09 5.58 20.21 20.21 0 0 1 -2.42 1.76c-2.79 1.77-5.68 3.54-8.65 5.49a14.13 14.13 0 0 1 3.62-11.9 45.15 45.15 0 0 1 6-5.12 53.12 53.12 0 0 0 7-5.86 33.42 33.42 0 0 1 -1.44 10.04zm3.72-19.63a14 14 0 0 1 -5 10.33c-3 2.51-6.33 4.65-9.49 7.25-.93-4.65-.19-8.74 2.7-12.28a57.75 57.75 0 0 1 5.86-5.95 57.91 57.91 0 0 0 5.95-5.77 38.23 38.23 0 0 1 -.04 6.41zm-2.42-5.86c-2.88 2.88-6.05 5.4-9.11 8.37-1.21-4.46-.93-8.46 1.58-12.28a45.4 45.4 0 0 1 4.65-5.67 52.62 52.62 0 0 0 6.32-7.35c.82 6.32 1.28 12.18-3.46 16.92z"/></g></svg>