<svg viewBox="0 0 400 400" xmlns="http://www.w3.org/2000/svg"><g fill="#2d2f2e"><path d="m.48 105h137.83v45.31s0 0-.05.06h-.07-.15-80.18-.16-.07c-.18.54-.26 29.34-.08 30.81h7.76 54.33c.18.65.2 42 0 42.85h-62.12v1 70.49h-57.04z"/><path d="m399 295.65h-58.28c-.07-.06-.1-.08-.11-.1s0-.05 0-.07a2.47 2.47 0 0 1 0-.39q0-94.87 0-189.76a1.87 1.87 0 0 1 .08-.32h58.31z"/><path d="m280 196.5c2.09.63 4 1.15 5.89 1.78a51.29 51.29 0 0 1 16.07 8.42 37.21 37.21 0 0 1 12 16.78 47.44 47.44 0 0 1 2.49 12.52 64 64 0 0 1 -1.55 19.94 59 59 0 0 1 -8.62 19.32 43.74 43.74 0 0 1 -4.61 5.9 34.82 34.82 0 0 1 -9.49 6.77 63.14 63.14 0 0 1 -15.6 5.18 115.81 115.81 0 0 1 -15.85 2.11c-4.35.31-8.71.44-13.06.44h-90.75v-190.56a2.81 2.81 0 0 1 .49-.09h.8 92.53a127.74 127.74 0 0 1 13.13.5 65.21 65.21 0 0 1 19.6 4.73 40.74 40.74 0 0 1 14 9.74 53.21 53.21 0 0 1 11.3 18.51 48.37 48.37 0 0 1 2.39 10.61 51.26 51.26 0 0 1 .1 10.58 43.73 43.73 0 0 1 -6 18.3 38.13 38.13 0 0 1 -9.94 11.18 44.09 44.09 0 0 1 -12 6.25c-.83.28-1.67.53-2.51.79-.26.08-.47.17-.81.3zm-69.31 56.88h28.06a38.66 38.66 0 0 0 6.27-.45 18.77 18.77 0 0 0 7.36-2.64 16.8 16.8 0 0 0 6.09-21.29 15.9 15.9 0 0 0 -11.08-9.36 37.16 37.16 0 0 0 -8.91-1.1q-13.54 0-27.08 0c-.24 0-.47 0-.74 0zm0-107.44v31.94h27.39a29.57 29.57 0 0 0 5.71-.5 15.72 15.72 0 0 0 6.51-2.63 15.93 15.93 0 0 0 5.09-6.81 17.11 17.11 0 0 0 .39-12.16 12.12 12.12 0 0 0 -5.79-7.12 18 18 0 0 0 -3.73-1.59 30.34 30.34 0 0 0 -8.73-1.18q-13.11 0-26.22 0a4.71 4.71 0 0 0 -.62.07z"/></g></svg>