<svg viewBox="0 0 400 400" xmlns="http://www.w3.org/2000/svg"><g fill="#2d2f2e"><path d="m399.17 276.42-2.54 2.87c-4.19 4.85-8.83 9.27-14.57 12.36-8.94 4.75-18 4.86-27.15.77-3.87-1.65-7.51-3.75-11.26-5.52-4.86-2.43-9.83-4.3-15.35-4a62.41 62.41 0 0 0 -9.05 1.65c-5.3 1.33-10.48 2.87-15.67 4.09a22.28 22.28 0 0 1 -11.7-.77 4.6 4.6 0 0 1 -2-1.22 10.17 10.17 0 0 1 -2.32-9.16 2.33 2.33 0 0 0 -1.1-2.76c-.44-.33-.88-.55-1.33-.88-2.09-1.33-2.2-2-.44-4.2a16.4 16.4 0 0 0 -2-.44c-1.55-.22-2.21-.88-2.1-2.43l.33-2.65c.22-1.87-.55-2.76-2.32-2.76-.88 0-1.66.11-2.54.11-4.08.11-6-2.76-4-6.4 1-1.77 2.21-3.42 3.31-5.08a9.59 9.59 0 0 0 1.88-5.63 1.88 1.88 0 0 0 -.45-1.32 7.81 7.81 0 0 1 -1.87-6 76.12 76.12 0 0 1 4.41-22.74 23.05 23.05 0 0 1 7.18-9.38c7.5-6.19 14.9-12.48 22.3-18.77 8.61-7.29 17.22-14.57 25.94-21.86 6.51-5.41 13.13-10.82 19.54-16.22a51.38 51.38 0 0 0 11.32-13.08c.11.11.33.11.33.22 3.42 5.3 4.85 11 3.31 17.33a10.85 10.85 0 0 1 -1.77 3.86 75.84 75.84 0 0 1 -14 15.13q-25.67 21.69-51.33 43.16c-6.73 5.63-9.05 13-8.39 21.52a16.58 16.58 0 0 0 1 4.64 7.21 7.21 0 0 1 -.44 5.85c-.56 1.11-1.22 2.21-1.77 3.42-.44.89-.88 1.77-1.21 2.65a2.83 2.83 0 0 0 1.21 3.76 2.12 2.12 0 0 0 1.1.33c3.87.66 3.87.66 4 4.52 0 2.21 1 3.09 3.2 2.76a.86.86 0 0 1 .88.22 1.66 1.66 0 0 1 -.11 1 12.9 12.9 0 0 0 -.55 1.21 2.07 2.07 0 0 0 1.1 2.76c.11 0 .22.11.44.11a4 4 0 0 0 1.55.33 2.44 2.44 0 0 1 2.32 2.43 15 15 0 0 0 .66 3.2 3.88 3.88 0 0 0 3.75 3 23.05 23.05 0 0 0 10.6-1.54 60.17 60.17 0 0 0 6.07-2.54 49.56 49.56 0 0 1 36-2.76c3.53 1 7.06 1.88 10.49 3.09 6.29 2.21 12.69 2.32 19.2 1.88l6-.45z"/><path d="m1.78 200.91 14.35-5.63c.55-.22 1-.44 1.55-.66a2 2 0 0 0 1.76-2c0-.33.55-.66.77-1 .23.44.67.77.67 1.21v8h-1.55l-.33-2.35c-1.43.44-2.76.89-4 1.33-.22.11-.33.55-.33.77a16.39 16.39 0 0 0 -.11 2.32c0 2.21 1.43 3.42 3.75 3.31 1.43-.11 1-1.21 1.1-2.1l1.33-.11c.22 2.54.44 4.86.55 7.29a1 1 0 0 1 -.77.66.72.72 0 0 1 -.67-.55c.11-1.88-1.21-2.32-2.65-2.76-4.63-1.55-9.27-3.09-13.9-4.75a7.2 7.2 0 0 1 -1.55-1zm5.74 1.77v.44l5 1.1-.22-3.31z"/><path d="m199.15 1.11c.33 1.1-.44 1.44-1.32 1.55-1.11.11-1.44.55-1 1.76 1 3 1.88 6 2.76 8.94a17 17 0 0 0 .78 2l4.3-12.36a9.16 9.16 0 0 1 -1.67-.45c-.34-.11-.56-.56-.78-.78.22-.11.55-.44.89-.44h6.51c.33 0 .55.44.88.66-.22.22-.55.78-.77.78-2.1-.22-2.43 1.32-3 2.65-1.66 4.08-3.2 8.16-4.86 12.25-1 2.43-1 2.43-3.64 2.32l-4.2-12c-.44-1.21-.88-2.42-1.21-3.64a1.69 1.69 0 0 0 -1.77-1.54 1 1 0 0 1 -.55-.11 3 3 0 0 1 -.77-.89c.33-.22.66-.55 1-.55h5.41c.55-.11 1.11-.11 1.66-.22h1.32z"/><path d="m371.25 77.39a4.87 4.87 0 0 1 1.65.55 21.67 21.67 0 0 1 8.28 9.49c2.21 5.19 1 10.16-1.55 14.91a32.45 32.45 0 0 1 -7.72 9.16c-12.59 11-25.17 22.19-38 33q-31.62 27.17-63.36 54c-4.08 3.42-6.29 8.06-8.06 13-2 5.85-2.87 11.92-3.75 18a30 30 0 0 1 -.74 4.5 6.71 6.71 0 0 0 1 5.19c.66 1 1.33 2.09 2 3.2a4.64 4.64 0 0 1 -.11 4.63c-2.54 4.31-4.86 8.72-7.29 13a2.84 2.84 0 0 0 .78 4 .84.84 0 0 0 .55.22 22.43 22.43 0 0 0 3.64 1 14.27 14.27 0 0 1 2.1.44c2.43.88 3.09 1.54 2.43 3.86a7.55 7.55 0 0 0 -.22 2.21 3.07 3.07 0 0 0 2.76 3.31h2.53a12.73 12.73 0 0 1 -.88 1.66 2.45 2.45 0 0 0 .33 3.42c.11 0 .11.11.22.11a10.39 10.39 0 0 1 1.33 1 2.16 2.16 0 0 1 .77 2.32 4.43 4.43 0 0 0 -.33 1.66c-.33 3.31.44 6 3.31 7.94a15.35 15.35 0 0 0 9.68 2.83c4.2-.11 8.39-.66 12.59-.88 3.86-.33 7.84-.33 11.37 1.55 5.19 2.65 6.73 5.41 6.4 10.81a14.46 14.46 0 0 1 -4.19 8.72c-3.32 3.76-7.62 6.3-11.7 9-3.32 2.2-6.63 4.41-9.72 6.84-3.42 2.76-6.07 6.4-6.07 11 0 9 4.75 16.67 15.12 17.11 2.87.11 5.52-1 8.17-2a1.29 1.29 0 0 1 1.77.55v.11c.55.89.55 1.44-.44 2.1-4.2 2.65-8.17 5.52-12.37 8.17a27.29 27.29 0 0 1 -11.26 3.86c-10.37 1-18.65-5.29-20.64-15.56-1.43-7.51 1-13.58 6.4-18.44a125.49 125.49 0 0 1 10.38-8.16 51.13 51.13 0 0 0 9.93-9.06 10.79 10.79 0 0 0 -2.34-15.17 1.75 1.75 0 0 0 -.78-.44 24.28 24.28 0 0 0 -15.67-2.76c-3.53.44-7.18.66-10.82.77a8 8 0 0 1 -3.53-.88 7.88 7.88 0 0 1 -4.86-8.28 24.17 24.17 0 0 0 .33-4c0-2.32-.88-3.09-2.87-4-2.43-1.1-3.75-3.2-1.54-4.85a1.73 1.73 0 0 0 .44-.89c0-.22-.55-.44-.88-.55h-.45c-3.31-.44-4.19-2.32-2.42-5.19.33-.66.77-1.21 1.1-1.76 1.32-2.32.22-4.31-2.54-4.31-1.1 0-2.32.22-3.42.33-.44 0-.88.11-1.33.11-3.31 0-5.29-2.32-4-5.3a78.84 78.84 0 0 1 5.3-9.38c1-1.54 2.32-2.76 3.2-4.3 1.55-2.54 2-5.19 0-7.73a10.77 10.77 0 0 1 -1.88-7.95 204.31 204.31 0 0 1 5.74-31.57c1.66-6.07 5.3-10.93 9.94-15.12 6.62-6.07 13.47-11.92 20.42-17.66 27.93-23.52 55.75-47.14 82.9-71.42a45.06 45.06 0 0 0 9.38-10.93 21.25 21.25 0 0 0 3-9.61c0-.44.11-.77.11-1.21.13-.06.27-.06.38-.28z"/><path d="m346.63 52.11a16.83 16.83 0 0 1 8.06 6.29c3.42 5 3.31 10.38 1.65 15.9a30.8 30.8 0 0 1 -7.17 11.92 160.58 160.58 0 0 1 -16.78 15.67c-24.95 21-49.79 41.84-74.62 62.81-4.75 4-9.5 8.06-14.35 11.93a40.42 40.42 0 0 0 -13.91 20.75 227.09 227.09 0 0 0 -6.51 30.8 104.72 104.72 0 0 1 -1.77 10.37c-1.66 6.63-5.85 11.59-10.93 16-6.51 5.63-14.13 7.95-22.74 7.84-13.47-.11-27 .22-40.51.44a8 8 0 0 0 -7.18 5.08 1.19 1.19 0 0 1 -.33.77c-.33.44-1 1.1-1.21 1a3.06 3.06 0 0 1 -1.55-1.32 15.1 15.1 0 0 1 -.33-3.2 28.3 28.3 0 0 1 1.88-10.49c2.32-5.52 6.29-8.94 12.36-9.71 3.2-.34 6.4-.34 9.61-.45 11.37-.22 22.63-.33 34-.44a9 9 0 0 0 8.94-7.72c1.87-11.26 3.64-22.52 5.85-33.78a88.93 88.93 0 0 1 8.06-23.07 30 30 0 0 1 7.28-8.95c6.18-5.4 12.47-10.7 18.77-16 12.47-10.6 24.83-21.2 37.31-31.68q23.34-20 46.91-40.18c6.51-5.63 12.14-12 15.68-20.09 1.1-3 2-6 2.76-9z"/><path d="m129.28 271.45a69.15 69.15 0 0 1 17.88 2.65c12.58 3.53 25.17 7.06 37.53 11a473.74 473.74 0 0 1 61.38 24.5 154.46 154.46 0 0 1 13.8 7.73c3.64 2.32 6.29 5.63 6 10.27a19.57 19.57 0 0 1 -2.21 6.4c-2.21 4.08-5.74 6.95-9.16 9.93-3.09 2.65-6.19 5.19-9 8.06-8.94 9.16-4.63 24.73 3.87 30.25a20.31 20.31 0 0 0 15.34 2.65 2.28 2.28 0 0 1 2.43 1.76c.33 1.11-.44 1.22-1.1 1.66-4.04 2.25-7.94 4.69-12.14 6.69a27.73 27.73 0 0 1 -16.55 2.76c-8.72-1.54-13.8-7-16.34-15.12a19.6 19.6 0 0 1 2.76-17.77 69.58 69.58 0 0 1 7.62-8.61c3.86-4 7.83-7.73 11.7-11.71a9.64 9.64 0 0 0 2.42-7.61 7.14 7.14 0 0 0 -.88-3 17.7 17.7 0 0 0 -7.39-6.85 371.62 371.62 0 0 0 -64.47-28c-12.58-4.08-25.39-7.72-38.19-11.36a66.39 66.39 0 0 0 -12.26-1.77 8.41 8.41 0 0 0 -4.63 1 15.76 15.76 0 0 0 -3.65 3c-.44.44-.66 1.22-1.32.78a2.11 2.11 0 0 1 -1.1-1.44 15.59 15.59 0 0 1 .22-4c1.1-5.63 4.08-10.05 9.38-12.48a24.77 24.77 0 0 1 8.06-1.37z"/><path d="m73.53 69.66 1.66-2.1-9-12.14c-1.11.55-2 1-2.87 1.33-.11 0-.34-.45-.56-.67 1.66-1.43 3.21-3 4.75-4.3a1.42 1.42 0 0 1 1.33 0c3 1.43 5.85 3 8.72 4.41.33.22.77.33 1.54.78-.55-2.1-1-4-1.54-5.85-.56-1.66-1.11-3.32-1.77-4.86a1.39 1.39 0 0 1 .33-1.77c1.33-1 2.65-2.09 4-3a1.2 1.2 0 0 1 1.22.11l-1.88 2.32c3.53 3.64 7 7.18 10.6 10.71a1.73 1.73 0 0 0 1.32.11c.45-.11.67-.55 1-.55a2 2 0 0 1 1.1.22c-.11.33-.11.88-.33 1.1-2.21 1.77-4.42 3.42-6.62 5.08-.89-.55-1-1.22-.22-1.77 1.1-.77.88-1.43 0-2.32l-6.63-7-.33.22c.55 1.77 1 3.53 1.66 5.19.77 2.21 1.76 4.41 2.54 6.73a3.68 3.68 0 0 1 0 1.55l-1.55-.33-9.6-5.3-1.74-.56a3.91 3.91 0 0 0 .22 1.1c1.88 2.43 3.87 4.86 5.74 7.29.55.66.89.55 1.55.22a4.41 4.41 0 0 1 1.65-.33l.22.55-5.63 4.85z"/><path d="m94.62 341.65a3.73 3.73 0 0 1 -1.11 0c-1.32-.77-2-.66-2.76.56-1.54 2.54-3.09 5.07-4.63 7.72a1.62 1.62 0 0 0 -.11 1.22c1.54-1 3.2-2 4.74-3.09 1.88-1.33 3.64-2.76 5.52-4.09a9.78 9.78 0 0 1 1.66-.55 4.8 4.8 0 0 1 .11 1.77l-2.32 9.27a21.52 21.52 0 0 0 -.22 2.65l.33.22c1.1-1.44 2.21-2.76 3.2-4.2s2-3 3.09-4.63a10.9 10.9 0 0 1 -1.1-1.33 1.53 1.53 0 0 1 0-1c0-.11.66-.11.88 0 1.88 1.1 3.64 2.1 5.41 3.31a1.12 1.12 0 0 1 -.11 1 .83.83 0 0 1 -1 0c-1.44-1-2.1-.12-3 1-1.77 2.32-3.65 4.41-5.41 6.73-1 1.33-1.77 2.76-2.87 4.31l2.31 1.65-.22.67c-.44 0-1 .11-1.32-.11-1.44-.89-2.87-1.88-4.42-2.76a1.24 1.24 0 0 1 -.66-1.55c.77-3.42 1.44-6.84 2.21-10.27 0-.22.11-.55.22-1.21-3.2 2.1-6.18 4-9 6.07a2.36 2.36 0 0 1 -2.65.33 42.05 42.05 0 0 1 -3.75-2.65c-.22-.11-.11-.66-.11-1a1.2 1.2 0 0 1 .88 0l1.65 1c1.22-2 2.32-3.75 3.43-5.63 1.32-2.2 2.54-4.52 4-6.73a1.44 1.44 0 0 0 -.11-2.1c-.11 0-.11-.11-.22-.11-.66-.55-1-1.21.11-2l7.17 5.18z"/><path d="m27.83 116.35 7.84-1.76a4.56 4.56 0 0 0 -3-2.54 2.93 2.93 0 0 0 -3.64 1.32l-.23-.33a10.76 10.76 0 0 1 .45-3.2 2.46 2.46 0 0 1 1.87-.77 5.21 5.21 0 0 1 4.75 3 2.4 2.4 0 0 0 .33.55c.44.66 1.1 1.77 1.33 1.77a19.76 19.76 0 0 0 3-1.55 6.1 6.1 0 0 0 .88-.66 3.74 3.74 0 0 1 .11 1.1 11.77 11.77 0 0 1 -.33 2.76 1.84 1.84 0 0 1 -1.88 1.77h-.11a1.11 1.11 0 0 0 -1.32.88 1.4 1.4 0 0 0 .11.66c.88 3-.78 5-2.21 7.07s-3.42 2.32-5.52 1.88a4.56 4.56 0 0 1 -3.75-3.87c0-.22-.11-.33-.11-.55-.56-2.43-.56-2.43-3.09-2.54a12.12 12.12 0 0 1 -2-.22 2.81 2.81 0 0 1 -2.31-2.56 7.9 7.9 0 0 1 1.77-6.18 4 4 0 0 1 3.86-1.54 4.16 4.16 0 0 1 2.87 4.08v1.21c.11 0 .22.11.33.22zm8.61 2a63.32 63.32 0 0 0 -7.06 1.77c-1.77.55-1.88 1.32-.56 2.76a4.4 4.4 0 0 0 5.08.88 5.11 5.11 0 0 0 2.54-5.41zm-10.44-1.11c.23-2.1-.88-3.53-2.64-3.53a1.88 1.88 0 0 0 -2.1 1.76 1.64 1.64 0 0 0 1.32 1.88h.33a26.92 26.92 0 0 0 3.09-.11z"/><path d="m43.62 94c1.21 1 2.31 2 3.53 2.87 1.66 1.32 2.43 1.32 4.08 0 .22-.11.56-.11.78-.22v.66c-1.44 2.21-2.76 4.41-4.31 6.51-.22.22-.77.22-1.43.22l1.1-2.87-8.06-5.41-4-2.65c-.77-.55-1.11-.33-1.66.33a4 4 0 0 1 -1.65 1 5.19 5.19 0 0 1 .33-1.88c1-1.65 2.21-3.31 3.31-4.86a7.81 7.81 0 0 1 1.54-1.1c0 .66.11 1 0 1.1-1 1.22-.33 2 .67 2.65 1.21.89 2.43 1.77 3.64 2.76l4.44-6.11c-1.21-1-2.2-2-3.42-3s-2.09-.88-3.31.22c-.22.22-.77.11-1.1.22l-.1-.44 5.4-7c1.1.44.77 1.1.33 1.65-.78 1.11-.44 1.77.55 2.43 3.75 2.54 7.4 5.3 11.15 8l2.21-1.66 1.1.66c-1.66 2.21-3.2 4.42-4.86 6.63-.11.33-.77.22-1.32.33 1.21-2.54 1-3.31-1.11-4.75-1.1-.66-2.2-1.32-3.42-2.09z"/><path d="m13.15 134.79v1.32a2.17 2.17 0 0 0 2 2.21c3.75.88 7.5 2 11.15 3.2 1.1.33 1.87.33 2.31-.88.11-.44.78-.77 1.11-1.1l.55.33-2.43 8.5c-1.32 0-1.32-.67-1.1-1.44.33-1.1 0-1.65-1.22-2-1.65-.44-3.42-1-5.3-1.54l-2.22 7.07 6.62 2 1.55-2.54.44-.11c.11.44.44.88.33 1.22-.44 2.31-1.11 4.52-1.55 6.84-.11.66-.44 1.1-1.1.88a1.76 1.76 0 0 1 -.44-1.21c.22-1.66.22-1.88-1.44-2.21l-12.36-2.76a1.19 1.19 0 0 0 -.88-.22l-1.55 2.54-.44-.22a40 40 0 0 1 1.82-8.84c1.32.11 1.43.11 1.1 1.21a1.17 1.17 0 0 0 .55 1.66c.11.11.22.11.44.11 1.44.33 2.87.77 4.42 1a1.65 1.65 0 0 0 1-.77c.66-2.1 1.22-4.2 1.77-6.51-2-.45-3.87-1-5.74-1.33-.22 0-.55.33-.77.66a6.19 6.19 0 0 1 -.67 1.11.68.68 0 0 1 -.77.11 1 1 0 0 1 -.33-.66c.66-2.43 1.32-4.86 2.1-7.29.11-.33.66-.44 1-.77z"/><path d="m22.31 231.16c0-.22-.11-.55 0-.67a4.78 4.78 0 0 1 .66-.77c.23.22.67.44.78.66.44 2.43.88 4.75 1.32 7.18a3.5 3.5 0 0 1 -.33 1c-.33-.22-1-.44-1-.66-.22-1.77-1.44-1.66-2.54-1.32-1.66.44-3.2 1-4.75 1.54a25.77 25.77 0 0 0 .55 4.2c.89 3.31.78 2.65 3.43 2.09a12.4 12.4 0 0 0 2.64-.88c1-.33 1.77-1 1.44-2.21-.11-.33.33-.66.55-1.1.22.22.66.55.77.88.67 2.32 1.22 4.64 1.77 7 .11.33-.22.77-.22 1.1a6.14 6.14 0 0 1 -.88-.55c-1.22-1.77-1.22-1.77-3.31-1.22-3.76 1-7.51 2-11.26 2.87-1.11.22-1.55.78-1.44 1.77a1.53 1.53 0 0 1 0 1 1 1 0 0 1 -.66.67c-.11 0-.55-.34-.55-.56-.56-2.42-1.11-4.85-1.66-7.39-.11-.33.33-.66.55-1a6.11 6.11 0 0 1 .78.67c.22.33.22.88.44 1.21a1.41 1.41 0 0 0 1.1.44c1.33-.33 2.65-.88 4.09-1.21.88-.22 1.1-.66.88-1.44l-1.33-5.63c-.11-.33-.44-.44-.77-.55a39.54 39.54 0 0 0 -5 1.22c-.33.11-.33 1.21-.55 1.76a4.75 4.75 0 0 1 -.55 1c-.22-.34-.66-.67-.77-1-.56-2.1-1-4.3-1.44-6.4a4 4 0 0 1 .22-1.21c.33.22.89.44 1 .66 1 1.87 1 1.87 3.09 1.32 3.86-1 7.72-1.87 11.59-2.76 1.05-.28 1.69-.61 1.36-1.71z"/><path d="m59.29 333.6a15.9 15.9 0 0 1 1.11 1.65 1.06 1.06 0 0 1 -.11 1 1.09 1.09 0 0 1 -1 .11 5.69 5.69 0 0 1 -3.29-6.52c.55-2.2 1.44-4.41 2.21-6.62.55-1.66.88-3.42 1.43-5.08l-.44-.22-1.32 1c-1.88 1.66-3.76 3.32-5.74 4.86-.89.77-1.33 1.33-.33 2.32.11.11.22.22.22.33a3 3 0 0 1 -.11 1c0 .11-.56.11-.78 0a7.57 7.57 0 0 1 -1.43-1.21c-1.11-1.21-2.1-2.65-3.09-3.86.66-.89 1.32-.67 1.87 0 .89.88 1.55.88 2.43-.22a29.43 29.43 0 0 1 3.2-3.1c2.43-2.09 4.75-4.19 7.18-6.18.44-.33 1.32-.88 1.65-.66a2.15 2.15 0 0 1 1.05 2.41c-1 3.53-1.88 6.95-2.76 10.49-.33 1.21-.66 2.54-1 4.19a7.4 7.4 0 0 0 1.21-.77c2.32-2.1 4.53-4.2 6.84-6.29a1.19 1.19 0 0 0 .11-2 2 2 0 0 1 -.55-.77 1.19 1.19 0 0 1 .11-.89 1 1 0 0 1 .78 0c1 .89 2 1.66 3 2.65s1.65 1.88 2.42 2.76c-.88 1-1.65.44-2.2-.11s-.89-.55-1.44 0c-3.83 3.32-7.59 6.52-11.23 9.73z"/><path d="m113.71 41.29c.22-.55.33-1.21.78-1.43a1.7 1.7 0 0 0 .77-2.32c0-.11-.11-.11-.11-.22-1.88-3.87-3.76-7.84-5.63-11.59-.22-.33-1.11-.44-1.66-.33s-1.32.33-1.76-.78c1.76-.88 3.42-1.87 5.18-2.65a1.71 1.71 0 0 1 1.22.33c3.53 2.21 7.17 4.42 10.71 6.52a14.39 14.39 0 0 0 1.43.77 13.76 13.76 0 0 0 -.55-2c-1-2.31-2.1-4.63-3.2-7-.44-1-.89-1.22-1.88-.77-.22.11-.55.33-.77.22a3.91 3.91 0 0 1 -1-.44c.11-.23.22-.67.44-.78 2-1 4.08-2 6.18-3 .88 1 .33 1.55-.33 1.88a1.12 1.12 0 0 0 -.55 1.65c2 4.86 4 9.83 6 14.69-1.88 1.43-1.88 1.43-4 .11-3.75-2.43-7.61-4.75-11.48-7.07l-.22.44a41 41 0 0 0 1.77 4c.77 1.65 1.76 3.2 2.54 4.85.66 1.44.88 1.44 2.31.89a3.1 3.1 0 0 1 1.44-.11c-.11.44-.11 1.21-.33 1.32-2.21 1.11-4.53 2.21-6.74 3.2z"/><path d="m202.57 392.65c-1.21-.22-3.42-.55-5.52-1a5 5 0 0 1 -3.75-3.75c-1-4-1.1-7.73 1.44-11.26a5.74 5.74 0 0 1 3.86-2.54c3.86-.44 7.73-.66 11.59-1a4.66 4.66 0 0 1 .88.34c-.22.33-.33.66-.55 1a.4.4 0 0 1 -.33.11c-1.88 0-2 1.1-1.88 2.65.34 4 .45 8.06.56 12 0 1.11.44 1.66 1.54 1.55a2.68 2.68 0 0 1 1.11.55 2.16 2.16 0 0 1 -1.11.55c-2.21.36-4.52.58-7.84.8zm1.88-17.44a22.47 22.47 0 0 0 -4.64.89 4.32 4.32 0 0 0 -2.31 2.31 11.51 11.51 0 0 0 -.11 8.39c1.21 3.42 4.19 4.75 7.83 3.31z"/><path d="m171.45 3.32 8.05-1.22a4.59 4.59 0 0 1 1.22-.1c2.87-.11 4.85 1 5.52 3a5.88 5.88 0 0 1 -2 6.74l-.44.44a46.36 46.36 0 0 0 7.2 7.48 5.4 5.4 0 0 1 1 1.43 6.87 6.87 0 0 1 -6.63-2.21c-1.32-1.43-2.54-2.87-3.86-4.3a3.47 3.47 0 0 0 -1.21-1 1.58 1.58 0 0 0 -1.22.11c-.22.11-.22.67-.11 1a29.84 29.84 0 0 1 .44 3.09c0 1.21.44 1.65 1.55 1.77.77 0 1.65.11 1.76 1.43l-9.16 1.1v-1.65l1.11-.22c.88-.11 1.21-.66 1.1-1.55-.44-4.08-.88-8.28-1.32-12.36-.11-1.22-.45-1.88-1.77-1.66a1.09 1.09 0 0 1 -1.23-1.32zm11.25 4.19c0-2.54-.77-3.42-2.87-3.64-1-.11-1.54.22-1.43 1.1.11 2 .22 4 .44 5.85a1.08 1.08 0 0 0 .44.56 2.28 2.28 0 0 0 3-1.33c0-.11.11-.22.11-.44a10.4 10.4 0 0 0 .33-2.1z"/><path d="m131.37 369.14c.67-1.66 1.33-3.31 1.88-5 .11-.22-.33-.77-.66-1s-.77-.44-1.11-.66-.22-.66-.22-1a1.34 1.34 0 0 1 .89-.11c2.43.89 4.85 1.66 7.17 2.65.33.11.44.67.55 1-.33.22-.66.55-1 .55-2.21-.22-2.21-.22-3.09 1.87-1.32 3.43-2.54 7-4 10.38-.45 1.11-.45 1.77.55 2.43.55.33 1.21.77.66 1.88-3.42-1.44-6.73-2.87-10.16-4.2a3.22 3.22 0 0 1 -2-3.09 6.64 6.64 0 0 1 2.43-5.52 10 10 0 0 1 2.54-1 8.58 8.58 0 0 0 -.67-4.75c-.66-1.76-1.43-3.53-2.09-5.3a1.87 1.87 0 0 1 0-1.1c.44 0 1-.11 1.32.11 1.66 1.43 3.2 2.87 3.64 5.08a29.22 29.22 0 0 0 1.33 4.41 11 11 0 0 0 1.32 2.54zm-.77 1.77c-1.32-.78-2.21-1.55-3.53-.67-1.44 1.11-2.87 4-2.43 5.41s1.88 1.55 3.09 2z"/><path d="m33.35 274.54a8.76 8.76 0 0 1 8.72 8.83v.88a8.94 8.94 0 0 1 -3.09 5.3 12.05 12.05 0 0 1 -6.84 3.75c-3 .45-5.85-.22-7.84-2.75-3.53-4.42-3-9.39 1.54-12.81 2.43-1.88 5.52-3.2 7.51-3.2zm6.18 6.62a3.68 3.68 0 0 0 -3.86-3.42 3.25 3.25 0 0 0 -1.1.22 20.77 20.77 0 0 0 -5.52 2.54 13 13 0 0 0 -3.76 4c-1.76 2.87-.11 5.85 3.31 5.85a9.6 9.6 0 0 0 3.87-1c1.43-.77 2.87-1.77 4.19-2.65a7 7 0 0 0 2.87-5.52z"/><path d="m326.54 73.41-5.74-6.62-.55.11 1.32-.88h.11c1.66 1.43 1.66 1.43 2.65-.66s1-2.1-.77-3.76l-2.32-2.09-3.75 2.09c.22 1 2.32 1.44.66 2.87l-6.29-4.85.22-.67a4.05 4.05 0 0 1 1.65.11 2.36 2.36 0 0 0 2.43 0c4.75-2.31 9.5-4.63 14.24-7.06a1.68 1.68 0 0 1 2.1.22 1.61 1.61 0 0 1 .55 2.21c-2.05 4.74-4.05 9.71-6.05 14.46a1.59 1.59 0 0 0 .33 2.1c.75.88.86 1.76-.79 2.42zm-.33-12.47 2-4.75-4.52 2.32z"/><path d="m111.5 41.4c.89.77 1 1.33 0 1.77-2.09 1.1-4.08 2.32-6.18 3.31a7.79 7.79 0 0 1 -1.54.11c.22-.44.55-.88.77-1.32a5.62 5.62 0 0 1 1-.78c-1.1-.88-2-1.76-3-2.54a1.2 1.2 0 0 0 -.88 0 17.41 17.41 0 0 0 -2.32 1.44c-.66.44-1.54 1-1.54 1.54a14.28 14.28 0 0 0 .77 3.76c1.32 0 2.32-2 3.2.33l-3.2 2.21-3.31 2.31c-.77-.44-.89-.88-.22-1.54 1.21-1.11 1.21-2.43.88-4-1-4.74-1.88-9.6-2.76-14.46a1.52 1.52 0 0 1 .88-1.87c.89-.55 1.33-.22 2 .22 4 3 8 6 11.81 8.94 1.14 1.23 2.32 1.68 3.64.57zm-11.36-1.1-4.2-3.3 1.32 5z"/><path d="m155.22 370.69-2.32-1.22c0-1 .44-1.21 1.32-1 2 .55 4 .88 6 1.43.33.11.55.44.77.67-.22.22-.55.55-.77.55-1.88 0-2.87 1.1-3.76 2.43-2.87 3.86-5.74 7.61-8.5 11.48-.77 1-1.32.77-2.32.66s-1.21-.77-1.21-1.66c-.33-4.85-.77-9.71-1.1-14.46-.11-1.54-.11-3.09-2.1-3.53-.22 0-.33-.66-.22-.88a1 1 0 0 1 .88-.44c1.33.44 2.54.88 3.86 1.32s2.43.66 3.65 1.1c.33.11.55.56.77 1-.33.11-.77.22-1.1.33s-.56-.11-.78-.11c-.66-.11-1.1.11-1.1.88v.44c.11 1-.22 2.65.22 3a9.75 9.75 0 0 0 4.2 1.33c.66.11 1.54-.55 2.09-1.11a9.65 9.65 0 0 0 1.52-2.21zm-7.51 4.63.33 4.86.22.11 2.65-4.19z"/><path d="m302.81 30.14c1.76 1.22 3.64 2.43 5.4 3.64a2.53 2.53 0 0 1 .45 1.11 4.51 4.51 0 0 1 -1.22 0c-.88-.66-1.43-.33-2 .55a73.47 73.47 0 0 1 -4.3 6.18 18.67 18.67 0 0 1 -3 3 7.74 7.74 0 0 1 -10.82-1.54 6.17 6.17 0 0 1 -1-1.88 9.48 9.48 0 0 1 .11-4.64 21.92 21.92 0 0 1 2.21-4.63 26.61 26.61 0 0 1 2.42-3.75c.89-1.22 1.55-2.21-.22-3.21-.22-.11-.22-.77-.11-1a1.09 1.09 0 0 1 1-.11c2.2 1.21 4.41 2.54 6.73 3.86a1.18 1.18 0 0 1 -1.77.67c-1-.56-1.54-.22-2.09.77-1.33 2.32-2.87 4.52-4.2 6.84a8.17 8.17 0 0 0 -1 5.08c.33 2.43 3.31 4.08 5.41 2.76a18.62 18.62 0 0 0 4.63-4.19 46.05 46.05 0 0 0 3.87-6.3c.44-.77 0-1.1-.55-1.54s-.95-.81.05-1.67z"/><path d="m174 372.67a6 6 0 0 1 -2 .67 1.25 1.25 0 0 0 -1.33 1.21v.11c-.66 4.42-1.32 8.83-2.1 13.14-.11.88.12 1.21.89 1.43a11 11 0 0 1 1.54.88l-.22.45c-1.1-.11-2.32-.22-3.42-.34-2.32-.33-4.53-.66-6.73-1.1a3.57 3.57 0 0 1 -2-1.1 6.12 6.12 0 0 1 -1-6.41 5.06 5.06 0 0 1 5.18-3.31h3.43c.33-1.1.66-2.2.88-3.31.44-2.32-.11-3.09-2.87-3.42.55-.44.88-.88 1.1-.77 2.76.44 5.41 1 8.17 1.43.02 0 .02.11.48.44zm-8.16 7.73c-2.21-.66-3.76 0-4.31 2.1a11.2 11.2 0 0 0 -.22 3.31 2.94 2.94 0 0 0 2.54 2.21 1.68 1.68 0 0 0 .88-.67c.44-2.31.66-4.63 1.11-7z"/><path d="m52 67.89a5.15 5.15 0 0 1 -.56 1.44c-.33.66-.44 1 .11 1.54l4.64 4.31c1.88 1.77 3.86 3.31 6.62 3.42a4.1 4.1 0 0 0 4.19-4.08 4.61 4.61 0 0 0 -.33-1.77c-2-3.86-5.3-6.62-8.72-9.16-.33-.22-1.22.11-1.66.33s-1.1.88-1.65-.33l5.18-5.19.56.22c0 .44.11 1.11-.11 1.44-.67 1-.45 1.65.44 2.43 1.76 1.65 3.53 3.31 5.3 5.07a8.76 8.76 0 0 1 2.87 7c-.23 4.52-5.52 8.28-9.72 6.62a23.3 23.3 0 0 1 -5.52-3.75 41.15 41.15 0 0 1 -3.86-3.64 1.41 1.41 0 0 0 -2-.34c-.11.11-.22.11-.22.22a3.71 3.71 0 0 1 -1.21.45c-.11-.33-.45-.89-.33-1 1.54-1.87 3.2-3.64 4.85-5.41.22-.11.33-.22.55-.33z"/><path d="m69.45 337.68 4.52-5.3.89 1-1.22 2 1.55 1.33 4.41-4.31-1.54-1.65c-1.11-1.11-2.21-1.66-3.76-.78a6.43 6.43 0 0 1 -2.09.44c.88-2.42 3.2-2.42 4.41-4l9.38 8.29c-.45 1-1.11.66-1.66.22-.88-.77-1.44-.55-2.21.22-3.09 3.53-6.4 7-9.6 10.49 0 1 1.65 1.54.77 3l-9.3-8.19 2.87-3.75h.44a4.41 4.41 0 0 1 .33 1.65c-.55 2.32-.66 2.32 1.22 3.87l1 .77c1.1-1.1 2.21-2.1 3.31-3.2a2.71 2.71 0 0 0 .55-1.66 1.69 1.69 0 0 0 -2.43-.66c-.22.11-.33.33-.55.33a4.93 4.93 0 0 1 -1.29-.11z"/><path d="m162.72 21.75a26.84 26.84 0 0 0 4-1.1c.55-.22.88-1.1 1.1-1.66.33-.88.44-1.87 2-1.87-.11 1.76-.22 3.42-.44 5.07 0 .23-.44.56-.78.67-3.53.77-6.95 1.43-10.48 2.09a3.66 3.66 0 0 1 -1-.33c.23-.33.45-.88.67-1 1.65-.22 1.54-1.21 1.32-2.54-.77-4.19-1.54-8.39-2.21-12.47a1 1 0 0 0 -1.1-1.11h-.22a9.49 9.49 0 0 1 -1.66-.44v-.54a4.26 4.26 0 0 1 1.08-.33c3.2-.66 6.29-1.33 9.49-2a1.2 1.2 0 0 1 1.66.77c.44 1.11.88 2.21 1.43 3.32l-1.1.88-1.11-1.44a3 3 0 0 0 -4.19-.44l-.33.33a2.78 2.78 0 0 0 -.33 1.88 14.86 14.86 0 0 0 .77 3c.11.33.44.88.77.88a1.78 1.78 0 0 0 1.33-.44c.33-.22.44-.77.55-1.21.44-1 1-1.55 1.65-.78l.78 6.41a6 6 0 0 1 -1.44-.89c-.33-.33-.44-.88-.77-1.21a1.83 1.83 0 0 0 -1.33-.55 1.75 1.75 0 0 0 -.88 1.1c.11 1.87.44 3.86.77 5.95z"/><path d="m188.44 392.43c-3.86-.33-7.72-.55-11.59-.88a.7.7 0 0 1 -.55-.66c-.11-1.33 0-2.65 0-4 1.11-.33 1.33.33 1.55 1s.55 1.65 1 1.76a7.77 7.77 0 0 0 3.2.33c.22 0 .55-.55.66-1a25.17 25.17 0 0 0 .34-3c.11-1 .33-2-.89-2.43s-1.54.55-2.09 1.44a2.58 2.58 0 0 1 -.45.66c-1.1-1.22-1.1-2.43-.22-7a6.13 6.13 0 0 1 1.1 1.35c.22.44.22 1.1.55 1.43a2 2 0 0 0 1.32.56c.22 0 .67-.56.78-.89.33-1.76.44-3.42.77-5.52a25.77 25.77 0 0 0 -4.2-.55c-.55 0-1.1.88-1.54 1.44s-.77 1.76-2.32 1.43c.55-1.65 1-3.31 1.55-5 0-.11.44-.33.66-.33.88 0 1.87.11 2.76.11l9.16.67.11.44a6.07 6.07 0 0 1 -1.66 1.1c-1.32.44-1.65 1.22-1.65 2.65a81.25 81.25 0 0 1 -.55 8.94l-.33 3c-.11.77.11 1.11.88 1.33a7 7 0 0 1 1.54.88z"/><path d="m239.22 24.07c.44-.22.89-.66 1.33-.55 1.43.11 2-.66 2.32-2 1.1-4.3 2.31-8.5 3.53-12.91l-2.4-1.76c.66-.22 1.1-.55 1.54-.44 3.32.88 6.63 1.77 9.94 2.76a1.14 1.14 0 0 1 .66.88c0 1.33-.22 2.54-.33 3.87-1.21.33-1.43-.34-1.54-1.22-.12-.66-.12-1.65-.45-1.77a17.31 17.31 0 0 0 -3.42-1 1.58 1.58 0 0 0 -.66.77c-.44 1.22-.77 2.54-1.21 3.76-.23.66-.34 1.21.55 1.43s1.65.55 2.09-.44.89-1.1 1.77-.66c-.55 1.87-1 3.75-1.54 5.63-.12.22-.78.33-1.33.55v-1.87c0-.77-.11-1.54-1.1-1.65s-1.33.22-1.55 1.1-.77 2-1 3c-.44 1.66.11 2.43 1.76 2.87a3.68 3.68 0 0 0 4.31-1.54c.22-.33.66-.44 1-.67.11.45.44.89.33 1.11-.66 1.21-1.43 2.43-2.2 3.75a.69.69 0 0 1 -.45.11l-11.4-2.78z"/><path d="m2.88 216.81 4.42-1.11.44 1.3c-3.2.77-2.76 3-2.32 5.41a29.67 29.67 0 0 0 4.42-.11 1.8 1.8 0 0 0 1.43-1.22c.33-.88.11-1.65-1.1-1.76a2.92 2.92 0 0 1 -1.44-.89c2.76-1.1 6.52-1.21 7-.22-.55.22-1.22.55-1.77.77s-1.32 1-.88 1.77a1.76 1.76 0 0 0 1.55.88 33.52 33.52 0 0 0 4.63-.66c.22 0 .44-.55.55-.88a4 4 0 0 0 -2.87-4.75c-.88-.22-.88-.77-.66-1.54 1.44.11 2.87.33 4.31.55a1.09 1.09 0 0 1 .88.66c.44 4 .88 7.84 1.32 11.81-1.1.11-1.32-.66-1.54-1.32-.33-1-.88-1.22-1.88-1-4.19.56-8.5 1-12.69 1.44-1 .11-1.44.44-1.33 1.43 0 .67 0 1.33-1.1 1.11z"/><path d="m238.89 10.49a6.36 6.36 0 0 1 -.55-1.49c-.11-2.21-1.55-3.2-3.31-3.76s-3.87-.77-5.52.89c-2.54 2.65-3.42 8.39-1.77 11.59a7 7 0 0 0 7.07 3.28 10.45 10.45 0 0 0 1.87-1.1l1.33-.33.11.44c-1.11 1.1-2.32 2.09-3.42 3.2-.22.22-.44.22-.67.33-3.64.22-6.95-.55-9.38-3.53-2.1-2.54-2.1-5.52-1.54-8.39a19.18 19.18 0 0 1 2.2-5.41c1.11-1.88 3.09-2.65 5.3-2.87a15.79 15.79 0 0 1 8.94 1.76.92.92 0 0 1 .67 1.22v.11c-.34 1.32-.45 2.76-.78 4.19z"/><path d="m273.33 15.35c-.55 1.44-1.1 2.76-1.65 4-.11.34-.67.67-.89.56a1.62 1.62 0 0 1 -.66-1 3.25 3.25 0 0 1 .22-1.43 2.37 2.37 0 0 0 -1.1-2.54 3.18 3.18 0 0 0 -3.53.11 2.1 2.1 0 0 0 -1 2.54 16.93 16.93 0 0 0 1.33 3c.66 1.1 1.54 2.1 2.31 3.2a4.34 4.34 0 0 1 .23 5.52 5.76 5.76 0 0 1 -5.74 2.69 10.94 10.94 0 0 1 -6.08-3.2 1.54 1.54 0 0 1 -.33-1c.33-1.21.78-2.53 1.22-3.86l1.32.11a14.51 14.51 0 0 0 0 3.09 3.43 3.43 0 0 0 2.54 2.76c1.44.55 2.32-.33 3.09-1.32a2.82 2.82 0 0 0 .33-3.43c-.66-1-1.54-2-2.2-3a14.7 14.7 0 0 1 -1.74-2.83c-1.55-3.64.88-7.06 4.86-6.84 2.84.11 5.04 1.44 7.47 2.87z"/><path d="m304.57 46.7 1 .55a23.57 23.57 0 0 0 -.89 2.65 4.81 4.81 0 0 0 .55 2.76 2.92 2.92 0 0 0 3.43 1.44 3.19 3.19 0 0 0 2.2-3 10.06 10.06 0 0 0 -.44-3.1c-.33-1.21-1-2.42-1.32-3.75a5 5 0 0 1 3.31-6.18 5.3 5.3 0 0 1 3.2.11 9.6 9.6 0 0 1 2.76 1.55c1.21 1 2.21 2.2 3.53 3.53l-3.53 3.64c-1.1-.88-.55-1.88-.22-2.65a2.29 2.29 0 0 0 -.66-3.09c-.89-.66-1.77-1.32-2.76-.77a4.33 4.33 0 0 0 -1.73 2.45 7.46 7.46 0 0 0 .33 3.09c.33 1.32 1 2.43 1.33 3.75a4.51 4.51 0 0 1 -1.55 5.3c-1.76 1.32-3.75 2-6 .77a11.41 11.41 0 0 1 -4.41-3.86 2.5 2.5 0 0 1 .22-3.31 7.17 7.17 0 0 0 1.65-1.88z"/><path d="m141 23.74 1-.33c.44.66 1 1.32 1.55 2 1.76 1.76 3 1.76 5.07.44 1-.67 1.22-3.31.12-4.09a19.32 19.32 0 0 0 -3.65-2c-1.1-.45-2.32-.67-3.53-1.11-1.66-.55-3.2-1.32-3.31-3.31a5.24 5.24 0 0 1 2.32-5.3 5.84 5.84 0 0 1 1.87-.88c1.77-.44 3.65-.77 5.52-1.22l1.04 4.76c-.78.44-1.33.44-1.66-.44a2.86 2.86 0 0 0 -2.21-2.1 3.12 3.12 0 0 0 -3.2 1.55 2.41 2.41 0 0 0 .77 3.09 13.2 13.2 0 0 0 3 1.65 34 34 0 0 0 3.32.89c3.53.88 4.63 3.31 3.42 7.06a4.79 4.79 0 0 1 -3.75 3.31c-1.55.22-3.21.56-4.86.78a1.73 1.73 0 0 1 -1.83-1.44 29.08 29.08 0 0 0 -1-3.31z"/><path d="m18.12 277.3-4.12-11.3c1.77-.11 2.43-2.32 4.64-1.55a5.55 5.55 0 0 0 -.66 1 10.9 10.9 0 0 0 -1.11 2.32c-.33 1.76.67 2.76 2.43 2.2 1.22-.33 2.43-.77 3.64-1.21 1-.33 1-1 .67-1.77s-.44-1.76-1.77-1.54h-1.29c.22-.44.44-1 .77-1.11 1.54-.77 3.2-1.54 4.75-2.2l.44.22a7.12 7.12 0 0 1 -.44 1.43c-.23.44-.67.77-.89 1.22a1.63 1.63 0 0 0 0 1.43 1.36 1.36 0 0 0 1.11.55c1.76-.55 3.42-1.1 5.07-1.76.22-.11.22-.78.34-1.11.11-.66.22-1.32.33-2.09h.44c.22.22.33.44.55.66.88 2.21 1.88 4.41 2.76 6.62.11.33-.11.66-.22 1.1-.33-.11-.88-.22-1-.44-.45-1.54-1.44-1.32-2.54-.88-4 1.55-7.84 3.09-11.82 4.64a1.28 1.28 0 0 0 -.88 1.32l-.32 2.36z"/><path d="m114.37 374.44-14.12-7.18 2.09-5.18a9.11 9.11 0 0 1 .78 1.32 4.51 4.51 0 0 1 .11 1.21 2.92 2.92 0 0 0 2.53 3.1 1.3 1.3 0 0 0 1.22-.45c2.21-3.86 4.3-7.72 6.4-11.59.55-1-.22-1.1-.77-1.54s-1.66-.88-1.11-2.21l5.08 2.32c1 .44 2 .88 3 1.43.22.11.44.56.67.89-.34.22-.67.66-.89.55a23.12 23.12 0 0 1 -2.65-.55l-3.64 6.84c-1 1.77-1.88 3.53-2.87 5.19-.33.66-.33 1.1.33 1.43a8.62 8.62 0 0 1 1.44.89c1 .55 1.87.77 2.76-.56s1.32-1.1 2.31-.55z"/><path d="m52.23 298.82a17.76 17.76 0 0 1 1.87 2.1c1.11 1.44 2.21 3 3.2 4.53.23.33.12.88.23 1.32-.45-.11-1-.11-1.33-.44-1.43-1.32-1.43-1.32-3-.22-3.53 2.43-6.95 4.86-10.6 7.4l2.21 3.64 3.86-1c-.22.67-.11 1.22-.44 1.44-1.21.88-2.43 1.66-3.86 2.54l-7.18-9.94-1-1.43c-1-1.44-1-1.66.33-2.76.89-.77 1.66-1.44 2.54-2.1.88.44 1.1 1 .44 1.77a2.3 2.3 0 0 0 -.44.66c-.88.88-.77 1.66-.22 2.76 1.21 2 1.55 2.1 3.53.77 3.09-2.2 6.07-4.41 9.16-6.51a1.18 1.18 0 0 0 .67-1.66c0-.11-.11-.22-.22-.33a7.19 7.19 0 0 1 -.56-2.2z"/><path d="m5.75 157.64h4.53c.33 0 .66.44.88.66-.22.33-.55.66-.77 1a1.55 1.55 0 0 1 -1 .11c-1.88.11-2.21.66-2.32 2.42 0 1.33.66 2 2.21 2.32 3.53.55 7.06 1 10.59 1.77 1.55.33 2.21-.22 2.43-1.44.22-1 .77-1.1 1.77-.88l-1.66 9.05c-1.1.11-1.1-.55-1.1-1.21 0-2.1 0-2.1-2.1-2.43-3.53-.55-7.06-1.22-10.6-1.77-2.52-.44-2.61-.24-2.61 2.21 0 .55-.11 1.1-.11 1.66l2.84 1.89-.22.44c-1.76.45-3.42-.44-5.18-.77z"/><path d="m2.33 189.1v-8.5c0-.22.55-.55.77-.55s.56.33.78.66 0 .55 0 .77c-.11 1.11.33 1.44 1.43 1.44 4.09.11 8.06.44 12.15.77 1.21.11 1.54-.33 1.65-1.43 0-.45.11-.78.11-1.22.22-2.43.22-2.43-2.1-3.42-.66-.33-1.21-.66-1-1.44s1-.44 1.55-.22 1.21.44 1.87.67 1.22.44 2 .66c-.33 4-.55 8-.88 12 0 .22-.33.66-.56.66a2.17 2.17 0 0 1 -.88-.44c-.11-.11-.22-.33-.11-.44.33-1.88-.77-1.88-2.21-2-3.86-.11-7.61-.44-11.48-.66-1.32-.11-2.32.11-2.32 1.77.12.26-.33.48-.77.92z"/><path d="m220.57 2c.44 1.22 0 1.77-1.11 1.55-.88-.11-1.21.22-1.32 1-.44 4.53-.88 9.05-1.22 13.58 0 .44.78.88 1.22 1.21s.66.67 1.1 1l-.22.44c-2.54-.11-5.19-.22-7.73-.44-.33 0-.55-.66-1-1.11 3.09-.44 3.09-.44 3.31-3.2.22-3.75.55-7.5.89-11.37.11-1-.11-1.54-1.11-1.65-.22 0-.33 0-.44-.11l-.77-.78c.33-.22.66-.55 1-.55 2.32.09 4.83.31 7.4.43z"/><path d="m277.42 28a1.68 1.68 0 0 1 1.43-2h.44a2 2 0 0 1 2.21 1.76v.24a2.11 2.11 0 0 1 -1.88 2.32h-.22a2 2 0 0 1 -2-2z"/></g></svg>