<svg viewBox="0 0 400 400" xmlns="http://www.w3.org/2000/svg"><g fill="#2d2f2e"><path d="m.59 256.62v-1.48c0-15.84 0-31.68 0-47.51 0-1.54.37-2 2-2q39 .08 78.06 0c1.12 0 2-.12 2 1.57-.07 16.28 0 32.55 0 48.83a.84.84 0 0 1 -.22.59c-.42-2.22-.69-4.48-1.28-6.65-1.59-5.88-3.32-11.78-6.71-16.88a38.77 38.77 0 0 0 -15.11-13.57 37.58 37.58 0 0 0 -21.33-4.08c-13.86 1.56-24.44 8.56-31.11 20.83-2.89 5.39-4.4 11.43-5.43 17.49-.16.97-.73 1.84-.87 2.86z"/><path d="m.71 151.17a61.75 61.75 0 0 0 7.29 22.08 37.14 37.14 0 0 0 14.36 14.07 39.26 39.26 0 0 0 12.64 4.55 37.24 37.24 0 0 0 16.49-.79 38.3 38.3 0 0 0 17.42-10 40.09 40.09 0 0 0 10.57-18.74c1-3.74 2.21-7.41 2.42-11.51.8.58.58 1.18.58 1.68v47.51c0 1.37-.31 1.82-1.76 1.82q-39.22-.06-78.43 0c-1.27 0-1.74-.29-1.74-1.66.05-16 0-32 0-48.07.08-.33.13-.63.16-.94z"/><path d="m394 248.3c0-17 0-33.56 0-50.15 0-.71-.4-1.88.3-2.05a11.65 11.65 0 0 1 3.91 0c.5.05.29.75.29 1.15q0 29.13 0 58.26c0 1-.42 1.08-1.3 1.27-2.85.63-4-1.21-5.39-3.13-7.08-9.94-14.26-19.8-21.36-29.72-4.53-6.33-9-12.71-13.83-19.58v49.81c0 2.58 0 2.48-2.57 2.61-1.66.08-2.52-.32-2.17-2.13a1.08 1.08 0 0 0 0-.18q0-28.09 0-56.19c0-.76-.59-2.12.61-2.2 1.42-.09 3.19-.88 4.33.63 2.44 3.22 4.8 6.5 7.14 9.79 2.62 3.67 5.14 7.41 7.77 11.07 4.36 6.08 8.78 12.11 13.16 18.17 3.04 4.06 5.97 8.17 9.11 12.57z"/><path d="m164.34 226.39v28.47c0 1.46-.34 2.09-1.84 1.85a4.18 4.18 0 0 0 -1.32 0c-1.39.21-1.64-.45-1.64-1.71.05-8.61 0-17.22.06-25.82 0-1.4-.31-1.77-1.74-1.76q-16.87.09-33.74 0c-1.43 0-1.89.29-1.88 1.82.08 8.48 0 17 .1 25.45 0 2-.78 2.09-2.3 2.05s-2.4.17-2.39-2q.15-28.47 0-56.94c0-1.9.77-2 2.21-1.92 1.24.09 2.52-.42 2.47 1.85-.16 7.85 0 15.71-.09 23.56 0 1.4.34 1.79 1.76 1.79q17-.1 33.94 0c1.36 0 1.66-.42 1.65-1.7-.06-7.86 0-15.71-.07-23.57 0-1.61.47-2.16 2-1.92a3.51 3.51 0 0 0 1.12 0c1.31-.2 1.69.29 1.68 1.63-.01 9.64.02 19.26.02 28.87z"/><path d="m259.75 228.7v26c0 1.48-.21 2.11-1.89 2-2.66-.16-2.67 0-2.67-2.71 0-17.16 0-34.32 0-51.48 0-1.58-.38-2-1.94-1.92-5.78.1-11.56 0-17.34.07-1.28 0-1.55-.38-1.53-1.57.05-3.2 0-3.2 3.11-3.2h41.29c1.65 0 2.33.37 2 2.05a3.84 3.84 0 0 0 0 1.31c.19 1.19-.3 1.46-1.44 1.45-6-.07-12.07 0-18.11-.07-1.36 0-1.62.39-1.61 1.67.16 8.8.13 17.6.13 26.4z"/><path d="m202.8 226.24c0-9.48 0-19 0-28.44 0-1.65.49-2.06 2-1.9 1.25.14 2.48-.39 2.47 1.87-.12 17.27-.07 34.54-.06 51.81 0 2.93-.39 2.53 2.44 2.53 9.86 0 19.72.07 29.58 0 1.89 0 2 .75 1.93 2.2-.09 1.24.41 2.51-1.84 2.48-11.61-.12-23.23-.08-34.85 0-1.31 0-1.67-.35-1.66-1.66.02-9.67-.01-19.28-.01-28.89z"/><path d="m185.83 226.31v28.44c0 1.53-.3 2.07-1.92 2-2.64-.14-2.64 0-2.64-2.73q0-28.06 0-56.13c0-.63-.43-1.68.37-1.84a7.44 7.44 0 0 1 3.89.09c.53.18.23 1 .23 1.56q.09 14.3.07 28.61z"/><path d="m88.15 252.45c.69-.22 1.21-.17 1.4.69a18.43 18.43 0 0 0 .65 1.86l.58-1c.32-.57 0-1.79 1.09-1.58.92.16.35 1.14.42 1.74a25.81 25.81 0 0 1 0 2.84c-1.14-.76-.51-1.65-.92-2.21-.77.37 0 2-1.24 1.89-1-.08-.43-1.44-1.18-2l-.11 2.32c-.94-1.52-.25-2.86-.66-4-.24-.18-.18-.36-.03-.55z"/><path d="m88.15 252.45v.54c-1.21-.05-1.78.42-1.55 1.73a15 15 0 0 1 0 2.39c-1.53-1.52.54-4-2.23-4.44a7.5 7.5 0 0 1 3.78-.22z"/><path d="m339.22 216.56a28.09 28.09 0 0 0 -11.27-17c-8.76-6.06-18.59-6.34-28-2.1-10.4 4.7-15 13.92-16.1 25a42.75 42.75 0 0 0 .34 10.23 30.1 30.1 0 0 0 3.92 11.57c5.41 8.92 13.2 13.76 24.6 13.41a23.08 23.08 0 0 0 15.52-4.81c8.38-6.25 11.6-15 12.17-25a39 39 0 0 0 -1.18-11.3zm-7.91 26.34c-6.62 9.59-14.9 11.64-25.11 9.67-7.87-1.52-13.05-7-15.85-14.44a32.92 32.92 0 0 1 -.35-22.63c3.66-10.83 13.11-17.36 24.91-15.93 9.81 1.2 17.09 7.94 19.59 17.41a28.05 28.05 0 0 1 1 8.87c.14 6.45-.76 12.15-4.19 17.05z"/></g></svg>