<svg viewBox="0 0 400 400" xmlns="http://www.w3.org/2000/svg"><g fill="#2d2f2e"><path d="m254.81 244.09c1.2-14.91 2.4-28.62 3.42-42.36q2.94-40.73 5.77-81.41c.24-3.44 1.53-5.06 5.17-5q30 .12 60 0c3.44 0 4.85 1.3 5.64 4.74 3.46 16.18 7.29 32.44 11.1 48.65.46 2 1.11 4 2.2 7.86 4.23-18.84 8.31-35.83 11.86-52.92 1.23-5.93 3.24-9 10-8.47a195.42 195.42 0 0 0 24.68 0c5.45-.27 6.28 1.31 4.55 6.28-10.17 29-20.06 58.12-30.14 87.16a34.37 34.37 0 0 0 -2 11.76c.1 19.28-.1 38.56.14 57.88 0 4.78-1.11 6.69-6.22 6.46-8.68-.38-17.41-.37-26.09 0-4.94.2-6.48-1.41-6.38-6.34.28-15.53-.24-31 .23-46.58a84.68 84.68 0 0 0 -5.34-32.34c-6.42-17.4-12.14-35-18.13-52.57a17.87 17.87 0 0 0 -4.13-7.83c-1.67 13.64-3.25 26.23-4.66 38.81q-4 33.15-7.86 66.35c-1.25 10.7-2.47 21.41-3.48 32.14-.52 5.54-1.75 8.78-8.75 8.47-15.26-.66-30.56-.34-45.85-.11-4.38 0-5.86-1.1-6.44-5.73-4.4-35.57-9.17-71.09-13.9-106.62-2.13-16-4.42-32-6.69-48-1.2-8.47-.81-8.94 7.41-8.95 7.76 0 15.53.62 23.26-.18 6.89-.74 7.94 3.1 8.36 8.08 1.09 12.85 2 25.72 3.06 38.57q3 37.53 6 75a9.16 9.16 0 0 0 3.21 7.2z"/><path d="m58 192.66c0-23 .2-46.09-.13-69.17-.08-6.31 1.41-8.95 8.2-8.47 7.72.57 15.53.26 23.28.07 3.8 0 5.42 1.22 5.41 5.33q-.17 79.4 0 158.8c0 4.62-1.91 5.52-5.9 5.38-6.82-.23-13.67-.4-20.46 0-4.76.32-6.49-1.74-7.73-5.9-6.57-22-13.34-44-20.09-66a27.55 27.55 0 0 0 -3.9-8.3v70c0 11.61 1.41 10.05-10.08 10.16-7.06 0-14.11-.14-21.17.07-3.77.11-5.49-.86-5.48-5.07q.2-79.39 0-158.8c0-3.88 1.41-5.71 5.38-5.46 2.58.14 5.18 0 7.76 0 20.33 0 20.23 0 26 19.59 5.72 19.33 11.68 38.56 17.49 57.8z"/><path d="m189.17 284.54c-3.29 0-6.68-.49-9.88.1-7.86 1.41-9.61-2.89-10-9.31-.32-5.65-1.16-11.21-1.41-16.82-.2-3.5-1.55-5.28-5.17-5h-.71c-16.59-.82-16.61-.82-19.13 15.3a47.5 47.5 0 0 0 -.37 4.91c-.54 10.81-.52 10.81-11.15 10.81h-24c-2.95 0-4-.58-3.46-4 4.24-29.21 8.29-58.46 12.35-87.71 3.14-22.52 6.36-45 9.26-67.55 1.29-9.88 1-10 10.79-10 13.64 0 27.29.21 40.94-.12 4.74-.11 6.79 1.57 7.44 6.07q7.16 49.76 14.47 99.47c2.82 19.24 5.64 38.5 9 57.64 1 5.64-.75 6.53-5.53 6.24-4.43-.24-8.91-.03-13.44-.03zm-25.41-70.54q-3-29.11-5.9-58.08c-.15-1.56.17-3.69-2-3.93-2.54-.29-3 1.87-3.12 3.78-.41 4.9-.65 9.88-1 14.72-1.19 15.42-2.42 30.82-3.56 46.24-.13 1.76-.82 4.57 1.41 4.85 4.38.54 9.12 1 13.21-.14 3.62-.99.09-4.94.96-7.44z"/></g></svg>