<svg viewBox="0 0 400 400" xmlns="http://www.w3.org/2000/svg"><g fill="#2d2f2e"><path d="m135.77 304.88c-6.34-1.79-12 .87-14.76 7-3.8 8.34-2.57 10.27 6.55 10.27h4 10c1.91 0 3.26-.2 3.52-2.75.65-6.4-3.32-12.83-9.31-14.52z"/><path d="m90.09 308.26c-7.66-5.93-19.19-3.54-23 5.34-3.87 9.07-3.54 18.68-.61 27.91 2 6.47 8.53 9.15 15.78 7.66s10.63-5.55 10.65-12.75c0-3.32 0-6.64 0-9.95 0-4-.13-8 0-12a6.92 6.92 0 0 0 -2.82-6.21z"/><path d="m55 215.43a5.29 5.29 0 0 0 0 1.32c0 12.53 0 12.53 10.14 11.33 6-.71 8.76-4.87 8.15-12.14-.59-6.92-4.22-9-13.34-9.25-7.95-.19-4.09 5.45-4.95 8.74z"/><path d="m191.14 230.36c-.09-5.06-3.27-7.5-8.28-7.41-4.66.08-7.53 2.24-7.69 7.18-.17 5.33 2.69 7.62 6.93 7.59 5.83.03 9.13-2.17 9.04-7.36z"/><path d="m388.66 378.1q0-185.84-.08-371.66c0-1.95 1.53-4.52-1.25-6h-375.66c-2.12-.45-1.29 1.19-1.3 2v20q0 185.83.08 371.66c0 1.95-1.53 4.52 1.25 6h375.63c2.12.45 1.29-1.19 1.3-2 .05-6.68.03-13.34.03-20zm-287.58-187c4.37.5 7.61 3.1 7.66 8.35s-3 8.15-8.16 8.54c-4.5.33-8.47-3.73-8.52-8.29s3.78-8.5 9.02-8.62zm-50.94 126.41c0 11.29-.12 22.59.08 33.88.06 3.59-.77 5.08-4.72 5.07s-4.8-1.26-4.78-4.94q.22-34.86 0-69.74c0-3.19.5-4.91 4.29-4.75 3.32.13 5.29.42 5.2 4.62-.21 11.95-.07 23.91-.07 35.86zm-2.49-51.67c-5.41 0-7.3-1.19-7-6.9.51-9.52.14-19.08.14-28.63 0-10.21 0-20.42 0-30.63 0-2.78.3-4.7 3.87-4.53 8.85.41 17.76-.67 26.57.9 11.05 2 17.62 9.71 17.68 20.78.06 11.72-6.8 20.35-17.79 22.28a48.89 48.89 0 0 1 -6.61.69c-9.51.36-9.51.34-9.51 10.2 0 2.89-.37 5.83.08 8.65.92 6.14-1.83 7.2-7.43 7.19zm54.28 90.32c-2.63-.13-6.28 1.9-7.69-1.53-1.5-3.65-2.65-2-4.65-.77-12.48 7.63-27.66 2.38-32.67-11.34a41.71 41.71 0 0 1 -.66-26.78c5.21-17.39 20.54-22.74 36.74-12.2 0-8.94-.19-17.13.14-25.31.08-2-2.44-6 2.55-5.86 4.06.07 6.9 1 6.62 6.49-.53 10.61-.31 21.27-.12 31.91.27 14.16-1 28.36.92 42.48.21 1.25.89 3.01-1.18 2.91zm5.44-117.27c0 7.3-.37 14.64.12 21.91.37 5.46-2.87 5.19-6.22 4.77-3.09-.38-8 2.48-7.87-4.43.23-14.17-.17-28.35.15-42.51.19-8 7.38-4.43 11.31-5.46s2.37 3.19 2.43 5.13c.21 6.85.08 13.7.08 20.59zm43 90.37c-4.42-.23-8.87-.06-13.31-.06-4 0-8 .32-12-.08-5-.51-6.6 1.05-5.89 6.25 1.73 12.78 14.4 18.61 26.9 12.06 1.92-1 3.56-3.67 5.82.05s-.36 4.68-2.57 6.06c-16.08 10-35.41 2.33-39.69-16a42.73 42.73 0 0 1 .72-23.67c3.93-11.57 14.11-17.9 25.81-16.39 10.65 1.37 17.36 9.42 18.28 21.92.13 1.77.07 3.57.34 5.32.56 3.58-.97 4.71-4.44 4.54zm-1.29-63.74c-2.7.19-6.52 1.57-6.38-3.87.22-8.86.31-17.75-.08-26.61-.17-3.87 2.39-9.76-4.56-10.55-5.49-.62-9.14 4.11-9.14 10.94 0 8.43-.39 16.89.13 25.29.38 6.1-3.44 4.95-6.78 4.87-3.17-.08-7 1.59-7-4.61-.06-14.17 1.14-28.37-.94-42.52-.77-5.27 4.65-3.37 7.14-4.82 4.61-2.71 5.31 1.58 6.64 4.56 4.42-2.78 8.66-5.13 13.72-5.36 8.21-.37 13.93 4.2 14.18 12.34.39 12.19.1 24.4.23 36.6 0 6.03-4.47 3.55-7.19 3.74zm50.14 90.92c-3.95.13-4.17-1.9-4.15-4.91q.14-17.29 0-34.59c-.07-8.32-2.6-11.54-8.64-11.48-7.78.06-15.66 6.47-15.69 12.85 0 11.08-.07 22.16 0 33.25 0 3.08-.37 4.86-4.22 4.9s-4.8-1.42-4.75-5c.18-12.86.1-25.72 0-38.57a30.17 30.17 0 0 0 -.66-7.25c-.95-3.75-1.52-6.33 3.74-7.47 6-1.3 4.4 3.19 5.49 5.76a13.26 13.26 0 0 0 .79 1.33c3.81-2.59 7.32-5.65 11.88-7 11.36-3.27 20.9 3.21 21.15 14.92.27 12.85-.08 25.71.16 38.57.13 4.14-1.72 4.57-5.13 4.69zm1.59-75.07c-11.07 5.87-22.56 5.73-33.89.47a12 12 0 0 1 -6.15-6.72c-1.15-3-2.19-6.71.35-8.75 3-2.38 7.19-.92 10.87-.77 1.1 0 .86 1.25 1.11 2 2.37 7.55 14.2 10.17 19.59 4.37 3.55-3.83 1.8-8.61-4-9.5-6.32-1-12.8-.81-19.17-1.52-3.23-.35-5.81-2.06-6.39-5.77s.44-6.56 3.77-8.43c1.13-.63 2.3-1.17 3.54-1.79-8.38-6.32-10.68-11.39-8.48-19.1 2.4-8.44 8.9-11.58 16.89-12.74a36.06 36.06 0 0 1 14.47 1.19c4.69 1.23 9.26 1.3 13.43-1.53 5.23-3.54 5 2.29 6.82 4.13 2.78 2.82.1 4.34-2.23 5.17a61.2 61.2 0 0 1 -7.6 1.72c3.68 13.71-2.2 22-16.29 23a21.14 21.14 0 0 0 -2.65.09c-2.2.47-5.19 1.24-5.11 3.46.13 3.36 3.43 1.5 5.31 1.75 3.71.5 7.55.28 11.21 1 6.78 1.29 11.09 5.47 12.07 12.42.9 6.83-1.44 12.64-7.5 15.85zm59.79 24.26c-.43 7.07-.1 14.19-.1 21.28 0 8.43-.17 16.86.08 25.27.11 3.95-1.91 4.15-4.93 4.22-3.23.08-4.79-.61-4.74-4.33.19-13.52-.1-27.05.17-40.57.09-4.56-1.07-6.38-5.87-6a134.46 134.46 0 0 1 -15.29 0c-2.9-.09-3.87 1-3.84 3.85.12 11.53.07 23.06.09 34.58 0 6 3.63 7.51 8.82 7.06 2-.17 4.38-1.37 4.91 2.29.55 3.84-2.24 3.77-4.47 4.3-11.87 2.78-18.34-2.33-18.38-14.53 0-10.64-.08-21.28 0-31.92 0-3.42.07-6.3-4.7-5.64-2.6.37-2.72-1.58-2.67-3.47 0-1.57 0-3.53 2.22-3.22 6.32.87 5.13-3.68 5.39-7.18.34-4.49.4-8.87 6.86-9 2.87-.05 3.24.65 3.17 3.21-.11 4.21-3.23 9.69.68 12.28 3 2 8.17.56 12.38.57s8.66.81 12.58-.28c7.38-2 7.96 1.33 7.61 7.23zm21.69 6.58c.36 10 0 20 .13 30 .08 7.43 1.72 9.05 9.08 8.75 2.43-.09 4.38-.4 4.84 2.73.5 3.41-2.2 3.37-4.19 3.88-11.89 3-18.62-2-18.69-14.09-.05-10.87-.16-21.75.08-32.63.08-3.93-.83-5.92-5.12-5.26-2.17.33-2.6-1.18-2.46-2.92s-.59-4.16 2.23-3.8c6.89.89 5.54-4.24 5.53-7.74 0-4.87 1-8.11 6.67-8.33 2.22-.08 3.17.12 3.2 2.66 0 4.31-2.81 9.86.62 12.56 2.67 2.1 8 .82 12.2 1.05 0 5.38-2.78 7.35-7.64 6.54-5.53-.96-6.7 1.55-6.51 6.6zm45.2 52.79a22.74 22.74 0 0 1 -11.95 13.69c-2 1-4 2-5.38-1.18-1.13-2.53-.79-3.72 1.78-5.05 6.27-3.24 8.39-8 6.58-15.38-4.33-17.71-10.94-34.65-16.63-51.89-1.12-3.4-1.69-5.29 2.72-6.86s5.29.44 6.26 3.78c4.29 14.66 9.72 29 14.41 44.06 3.9-13.07 8.2-26 11.55-39.25 1.75-6.91 4.68-10.05 11.95-7.65.08.15.5.57.42.82-7.2 21.65-14.31 43.32-21.71 64.91zm32.79-64.16a8.4 8.4 0 0 1 -8.88-8.67c.35-5.15 3.3-8.23 8.53-8.29s7.84 3.35 8.75 8.21c-.63 5.08-3.19 8.31-8.4 8.74z"/><path d="m362.17 296.63c-.4-.32-.79-.64-1.19-.91-1-.64-2-.92-2.92-.12l-.06.06-.09.08-.27.28-.1.13c-.09.1-.17.22-.26.34l-.06.09a8.12 8.12 0 0 0 -.46.8l.15-.11a2.14 2.14 0 0 1 -.19.26c2.17 1.93 4.35 1.83 6.54 0l-.2-.15z"/><path d="m355.38 288.19c-2.5 3.49-2.51 6.64 1.26 9.28q0-3.95-.07-7.89v-1.42c4-.75 8.86-2.56 5.91 5.08-.43 1.12.5 2.78.88 4.22 4.19-3 3.85-6.67.82-10-2.85-3.05-6.13-2.87-8.8.73z"/><path d="m356.64 297.61.08-.08z"/></g></svg>