<svg viewBox="0 0 400 400" xmlns="http://www.w3.org/2000/svg"><g fill="#2d2f2e"><path d="m64.1 136.93c-34.67-.27-63 28.42-63 62.85-.1 34.22 27.58 63.22 62.83 63.22a62.8 62.8 0 0 0 63.16-63v-.55a62.75 62.75 0 0 0 -62.99-62.52zm-.17 122a58.91 58.91 0 1 1 58.76-58.93 58.83 58.83 0 0 1 -58.76 58.91z"/><path d="m51.19 209.29a45.93 45.93 0 0 1 -1-10.41c0-.86.55-.89 1.1-1a65.85 65.85 0 0 1 11-1.17c.82 0 1.06.27 1.06 1.06v8.15c-1.27-.35-1.61-1.62-2.47-2.27-1.58-1.2-2.37-1.24-3.71.24-1.17 1.31-2.75 2.23-3.61 3.85-.49.97-2.03.26-2.37 1.55z"/><path d="m77.4 201.25c-.44 1.58.41 3.27-1.41 4.3a2.79 2.79 0 0 1 -3.19.14 4.08 4.08 0 0 0 -5 0 2.49 2.49 0 0 1 -3.16 0c-.89-.76-.34-1.93-.48-2.89-.07-.59.38-.69.79-.48 1.41.62 2.58 0 3.71-.66a2.79 2.79 0 0 1 2.92-.13c2.83 1.3 2.87 1.27 5.82-.28z"/><path d="m77 206.55c-.13.85-.17 1.37-.27 1.85-.62 3.06-1.75 3.64-4.5 2.23a3.85 3.85 0 0 0 -3.88 0c-.35.21-.73.35-1.07.55a2 2 0 0 1 -2.78-.41c-.66-.86-.35-2.06-.28-3.13 0-.34.45-.3.69-.2 1.44.69 2.65 0 3.85-.72a2.58 2.58 0 0 1 2.88 0 4.25 4.25 0 0 0 5.36-.17z"/><path d="m51.43 210.05h10.65c.89 0 1.27.34 1.27 1.17v5.32c-3.82-2.68-9.07-1.75-11.92-6.49z"/><path d="m66.68 196.72a68.07 68.07 0 0 1 9.73 1.28c.37.1 1-.14 1.06.58a1.26 1.26 0 0 1 -.65 1.24c-1.45 1.1-2.85 1.58-4.54.45a3.56 3.56 0 0 0 -4 0 8.17 8.17 0 0 1 -1.51.75 1.86 1.86 0 0 1 -2.34-.82 3.75 3.75 0 0 1 .11-3.27c.29-.56 1.35-.11 2.14-.21z"/><path d="m64.24 212.63a5.71 5.71 0 0 0 4.92-.76c1.68-1.06 2.78.41 4.46 1a35.32 35.32 0 0 1 -6.15 2.2.93.93 0 0 1 -.31.13c-1 .18-2.23 1.41-2.71.9-.76-.76-.28-2.2-.21-3.47z"/><path d="m76.78 187.17a69.11 69.11 0 0 0 -26 0c-.86.17-1.24.51-1.17 1.47.21 2.79.28 5.57.41 8.56.38 0 .59 0 .79-.07a68.92 68.92 0 0 1 25.57 0c1 .2 1.3-.18 1.34-1.14.07-2.37.13-4.77.34-7.18.06-1.09-.35-1.47-1.28-1.64zm-24.63 5.18c-.48 0-.52-.34-.52-.72s0-.55.35-.55.79.14.75.66c-.03.37-.1.65-.58.61zm.38-3.5c-.07-.45.41-.45.58-.69.41.21.82.21.82.79s-.13.59-.55.59a.84.84 0 0 1 -.85-.69zm1.4 6.46a.73.73 0 0 1 -.82-.62v-.07a.54.54 0 0 1 .38-.65h.17c.45 0 .79.07.75.62 0 .34.04.72-.48.72zm1.58-3.37a.62.62 0 0 1 -.75-.65c0-.45.27-.55.62-.58s.75.06.75.61-.2.59-.62.62zm.49-3.5c-.11-.48.37-.55.72-.66s.82 0 .79.62c0 .42 0 .72-.62.79s-.79-.41-.89-.75zm1 6.29c-.48 0-.55-.42-.55-.73s.44-.44.62-.65c.41.21.79.28.75.72a.69.69 0 0 1 -.82.66zm1.89-3.17a.85.85 0 0 1 -.86-.85c0-.31.38-.52.79-.49s.72.28.72.76-.21.58-.62.58zm.65-3.5a.78.78 0 0 1 .89-.58 1 1 0 0 1 .55.41c-.11.72-.24 1-.79 1s-.72-.42-.62-.83zm1.68 5.88c-.07.27 0 .75-.51.65s-.9-.31-.83-.9a.5.5 0 0 1 .48-.51.51.51 0 0 1 .21 0c.43.1.85.17.68.76zm1.65-3.23c-.27.17 0 .89-.69.65-.34-.14-.65-.28-.58-.69s.28-.79.76-.62c.23.07.75.11.54.66zm1-3.48a.72.72 0 0 1 .66.76c-.07.27-.11.65-.72.61s-.55-.37-.79-.72c.29-.2.57-.65.84-.65zm0 7.19c-.62 0-.59-.48-.69-.79s.31-.55.62-.62.65.27.89.55c-.14.44-.28.82-.79.86zm1.79-3.17c-.38.07-.66 0-.69-.48s.34-.55.55-.79a.6.6 0 0 1 .55.52c.06.31.13.69-.38.75zm1.2 3.34c-.17-.55-.28-1 .38-1.27.06 0 .31.13.37.27.39.72-.24.79-.72 1zm.31-5.84c-.42 0-.45-.28-.45-.55s.31-.59.65-.62.38.31.42.55a.54.54 0 0 1 -.59.62zm1.68 2.78c-.38 0-.45-.24-.52-.55-.1-.52.28-.55.62-.55s.58.07.58.45a.65.65 0 0 1 -.65.65zm1.82 3.16c-.48.07-.55-.34-.62-.65-.17-.52.31-.55.59-.55s.2.58.58.55a.57.57 0 0 1 -.52.65zm.69-6.15c-.07.28 0 .72-.59.45-.2-.11-.54 0-.54-.42s.27-.51.65-.51.61.07.51.48zm1.48 2.68c-.07.21.07.79-.52.69a.79.79 0 0 1 -.72-.79c0-.31.34-.45.62-.41s.78.03.65.51zm1.3 3.95a.61.61 0 0 1 -.75-.41v-.07a.55.55 0 0 1 .61-.69c.41 0 .65.14.65.58s-.13.56-.48.59zm0-5.63a.61.61 0 0 1 -.55-.66v-.06c0-.38.34-.42.62-.38s.75.07.65.55a.65.65 0 0 1 -.65.55zm1.37 2.78c-.45 0-.58-.27-.51-.69s.34-.41.61-.41.42.31.42.58-.03.52-.45.52z"/><path d="m23 231.39-4.68.82c.41-1.82 1.58-3.12 2.1-4.77-2.06.62-3.06 1.61-3 3a3.8 3.8 0 0 1 -1.94-2.44c1.86.59 6.53-2.82 6.43-4.57 1.75 1 1.86 1.38 1 3.13-.65 1.34-1.3 2.64-2.06 4.12 1.37-.27 2.61-.44 3.81-.72 2.41-.51 2.41-.55 3.58 1.75-2-.24-6.29 2.82-6.6 4.64a5.89 5.89 0 0 1 -2.2-3c1.75.44 2.61-.83 3.71-1.62z"/><path d="m85.72 157.68c-1.34-.44-2.55-.51-3.34-1.44 1.93-.72 1.52-2.68 2.13-4.12l-3.84 3.61c-.73-1.82-.28-3.68-1-5.71-.49 1.79-1.89 2.92-1 4.81a5.4 5.4 0 0 1 -2.85-1.06c2-.35 4.12-5.77 3.16-7.36 1.54.07 2.44.52 2.4 2.27 0 1.41.28 2.82.42 4.5a20.66 20.66 0 0 0 3.23-3c1.51-1.44 1.51-1.47 3.36-.1-1.61.63-3.63 6.02-2.67 7.6z"/><path d="m49.3 248.43c0 1.72-1.52 3.33-.21 5.15a5.69 5.69 0 0 1 -2.68-.58c1.82-1.34 2.89-6.36 1.55-7.83 1.58-.18 2.64.13 3.12 1.85a19.67 19.67 0 0 0 2 4.3c0-1.62 1.65-3.06.31-4.88a4.2 4.2 0 0 1 2.95.69c-1.13.13-1.47.61-1.61 1.47a46.81 46.81 0 0 1 -1.17 4.81c-.14.48.14 1.34-.69 1.38s-.85-.83-1.06-1.34c-.58-1.31-1.07-2.65-1.62-3.95-.19-.42-.19-.97-.89-1.07z"/><path d="m9.37 188.78a5.18 5.18 0 0 1 1.06-3.78c.31.65.45 1.27 1.24 1.44a32.6 32.6 0 0 1 3.61 1 1.63 1.63 0 0 0 2.3-1.1c.31-1 .28-2-.82-2.47-1.41-.59-2.89-1-4.37-1.51-.07 0-.14 0-.17 0-.65-.38-.76 1.55-1.24.45-.37-.83.18-2 1.21-3.16-.28 1.54.55 1.75 1.34 2 1.1.31 2.2.62 3.26 1 1.82.69 2.44 2.2 1.89 4.19a3 3 0 0 1 -3.75 2.37c-1.16-.24-2.3-.65-3.43-1-.72-.15-1.38-.46-2.13.57z"/><path d="m98.16 156.24c1.34.76 2.26 1.55 1.75 3.33a17.09 17.09 0 0 0 -.35 4.61c.9-1.41 3.06-1.93 2.72-4.23a7.58 7.58 0 0 1 2.2 2.06 2 2 0 0 0 -2.41 1c-1.17 1.45-2.51 2.65-4.64 2.62l.62-5.54c-1.2 1.31-3.23 2-3 4.23a5 5 0 0 1 -2-1.79c2.12-.24 5.35-4.23 5.11-6.29z"/><path d="m92.52 160.19c-.34 1.21-.79 1.82-2.1.83-1.09-.86-2.37-1.55-3.77-2.48 1.75-.44 2.23-1.82 2.88-3s2.1-2 1.48-3.84c2 .41 3.16 2.2 5.19 2.54-.24.48-.52 1-.79 1.44s-.83.35-.72-.17c.24-1.41-1.07-1.58-1.65-1.61-.73-.07-1.38 1.09-1.38 1.71 0 1.41 1.2 1 2.24.83a3.84 3.84 0 0 1 -.9 1.89c-.27.41-.79.58-.79 0 0-1-.75-1.51-1.3-1.27-.76.35-1.55 1.34-1.31 2.13a1.6 1.6 0 0 0 2.2 1 .58.58 0 0 1 .72 0z"/><path d="m42 154.76c-.82-.48-1.92-.48-2.13.31s.48 2.13 1.17 2.27a1.86 1.86 0 0 0 2.16-2.06c1.07.89 1.52 1.51 0 2.2s-2.75 1.41-4.13 2.09c.07-2.4-2.23-6.8-3.84-7.38 1.51-.86 2.95-1.72 4.46-2.55.76-.41 1-.17 1.27 1.48-.27.31-.48-.07-.68-.14a1.51 1.51 0 0 0 -2 .73s0 .1-.06.17a2.08 2.08 0 0 0 1.11 2.12c.48.24 1.2-.2 1.38-1.1s.61-.44.85 0a2.19 2.19 0 0 1 .44 1.86z"/><path d="m23.8 238.74c1.65 0 5.46-4.19 5.33-5.77 1.89.79 2.81 2.71 4.63 3.47a4.45 4.45 0 0 1 -1.64 1.72c.24-1.58-.42-2.58-1.55-2.72-.52 0-1.55 1.07-1.48 1.86s1.1 1.06 2 .79c-.1 1.17-1 1.54-1.69 2.4-.24-1.1 0-2.47-1.37-2.23-.72.14-1.79 1.07-1.58 1.75a1.79 1.79 0 0 0 2.82 1.17c-.66 1.79-1.34 1.82-2.37.76s-2.28-1.79-3.1-3.2z"/><path d="m86.16 249.39c1 1.31.62 1.93-.79 2.37s-2.64 1-4.15 1.55c.86-1.75-1.28-7-3-7.59 1.65-1.1 3.57-1.38 5.09-2.48.37-.27.55.28.65.55s.48.72.21 1.1-.55-.07-.83-.17a1.75 1.75 0 0 0 -2.06.72 2.08 2.08 0 0 0 .89 2.23c1 .52 1.34-.82 1.93-1.47a6.44 6.44 0 0 1 1 2.47c-1.06-.41-2.13-.75-2.47.28-.24.72.27 2.06.89 2.23 1.34.41 2.16-.62 2.64-1.79z"/><path d="m92.14 238.81a7.34 7.34 0 0 1 2.68-2.54c0 1.3 3 5 4.23 5.29s2.92-1.48 2.27-2.65a10.73 10.73 0 0 0 -4.47-4.6 6.3 6.3 0 0 1 1.92-1.65 2.24 2.24 0 0 0 .83 2.54 20.47 20.47 0 0 1 1.82 2 3.2 3.2 0 0 1 -.42 4.8 3.15 3.15 0 0 1 -4.7-.31c-.69-.69-1.31-1.44-2-2.16a1.69 1.69 0 0 0 -2.16-.72z"/><path d="m19.44 177.75c.34-.41.75 0 1.1-.07.89-.24 1.47-.82 1.27-1.75-.24-1.13-1.1-.72-1.79-.48s-1.1.58-1.68.82a2.55 2.55 0 0 1 -3.16-.44c-.93-1-.69-2-.18-3s.93-2.33 2.44-1.06c.21.17.55.27.38.65a.49.49 0 0 1 -.65.31s0 0 0 0c-.75-.31-1.06.13-1.23.72a.94.94 0 0 0 .2 1.1c.52.48 1 0 1.41-.14.79-.28 1.55-.72 2.37-1a2.48 2.48 0 0 1 3.06 1.68 2.53 2.53 0 0 1 -.24 2c-.21.35-.45.69-.65 1-.94 1.41-1.66 1.31-2.65-.34z"/><path d="m91.11 239.05 1.17 2c-1.27-.11-2.44-.83-3.4.34a3.14 3.14 0 0 0 -.83 2 3.92 3.92 0 0 0 3.37 3.89c1.65.1 2.48-.72 2.61-2.68 1.51 1.13 1.51 1.41.14 2.54-2.13 1.75-4.54 1.92-6.22.45a4.51 4.51 0 0 1 -.82-5.74 4.44 4.44 0 0 1 1.65-1.45c.79-.4 1.51-.87 2.33-1.35z"/><path d="m109 185.89c1.58.9 7.22-.55 7.91-2.19.89 1.68.82 3.6 1.75 5.18a.44.44 0 0 1 -.1.59.58.58 0 0 1 -.21.07c-.48.07-1 .48-1.44.07s.27-.45.34-.73c.21-.85.1-1.89-.55-2.16a2.35 2.35 0 0 0 -2.16.55c-.69.93.27 1.55 1.06 2-.69.79-1.61.44-2.4.89.27-1 1-2.2 0-2.47a2.73 2.73 0 0 0 -3.26 1.58z"/><path d="m73.35 252.76a6.17 6.17 0 0 0 1 1 1.41 1.41 0 0 0 2-.31l.11-.17c.48-.82-.14-1.24-.83-1.55s-1.34-.58-2-.86a2.31 2.31 0 0 1 -1.61-2.37 2.34 2.34 0 0 1 1.89-2.13c2.34-.75 2.61-.58 2.4 1.52-.44.1-.51-.38-.79-.52-.75-.41-1.47-.41-1.92.38s.27 1.13.79 1.41c.69.37 1.48.58 2.2.92a2.52 2.52 0 0 1 1.41 2.71 2.41 2.41 0 0 1 -2.16 2.1c-2.49.45-2.94.11-2.49-2.13z"/><path d="m108.5 220.87a1.5 1.5 0 0 1 -2-.27c-.52-.48.27-.86.41-1.31.48-1.34 1-2.64 1.48-4 .58-1.82.51-1.85 2.33-.75 0 .48-.41.44-.75.48-.79 0-.76.75-.9 1.27s.35.62.72.76a34.79 34.79 0 0 1 4.47 1.75c1 .51 1.24-.48 2.06-.79-.51 1.51-.62 2.88-2.09 4.36.65-1.61-.18-1.82-.9-2.09-1.13-.42-2.23-.9-3.36-1.24-.59-.17-1.17-1-1.79-.21a1.21 1.21 0 0 0 .32 2.04z"/><path d="m104.92 165.52c1.69-2 1.69-2 2.79-.1a17.22 17.22 0 0 0 2.88 3.57c.28.24.76.48.28.93s-.79.92-1.44.79c-.45-.11-.28-.38-.07-.59.75-.79-.17-1.06-.48-1.47-.48-.69-.9 0-1.24.24-1 .68-1.89 1.47-2.89 2.16s-1.75 1.24-1 3a10.41 10.41 0 0 1 -2.37-3.1c2.33-.68 3.88-2.47 5.67-3.91.72-.59-.21-1.24-.9-1.52-.26-.21-.64-.07-1.23 0z"/><path d="m110.11 208.74c.31-1.37.11-2.4.79-3.26 1.31 2.89 5 5 7.39 3.68.21 1.17-.31 2.2-.51 3.54-1.24-2.41-5.12-2.1-8.42.55.07-.76-.07-1.41.2-1.86s-.41-2.16 1.27-1c.35.21 1.45-.34 1.89-.86.31-.34-.55-.72-.82-1.13-.52-.82-1.03-.48-1.79.34z"/><path d="m69.64 152.77c1.41.07 1.65-.69 1.75-1.58.17-1.31.45-2.58.62-3.88.07-.48.68-1.1-.21-1.45-.65-.24-1.34-.44-1.79.38-.06.11-.27.17-.41.28-.24-2.06-.2-2.1 1.55-1.69a34.07 34.07 0 0 0 4.22.69c1.72.21 1.79.31.9 2.23-.21-1-.76-1.61-1.72-1.44s-.72 1.14-.86 1.79c-.24 1.06-.38 2.13-.58 3.19s-.35 1.82.89 2.31a9.75 9.75 0 0 1 -4.36-.83z"/><path d="m13.53 211.53c-.62-.45.06-1.75-1.21-1.79a2.84 2.84 0 0 0 -2.54 1.62c-.93-1-.93-2.27-1.1-3.54 1.89.86 7.08-.52 7.87-2a6 6 0 0 1 .93 3.51c-.62 0-1-.65-1.69-.59-1.95.21-1.78 1.41-1.47 2.72a.53.53 0 0 1 -.79.07z"/><path d="m13.53 211.53h.75c.48.38 0 1.65 1.1 1.38.89-.21 2.17.07 2.3-1.51 1.17 1 .86 2.3 1.24 3.5-2-.82-7 .41-7.94 1.86a5.19 5.19 0 0 1 -.89-3.3c2.3.95 3.61.2 3.44-1.93z"/><path d="m35.28 238c1.13.61 2.26.92 2.88 2.57-.93-.79-1.34-.51-1.72.11-.72 1.16-1.54 2.26-2.23 3.43-.27.52-1.27 1-.48 1.72.62.55 1.41 1.27 2.37.41-.07 1.75-.34 2-1.61 1.14s-2.55-1.69-3.89-2.62c1.79-.66 4.61-4.76 4.68-6.76z"/><path d="m105.82 221.94c.55 1.34 5 3.95 7 4.16a11.21 11.21 0 0 1 -1.41 2.75c-.62-1.62-5.29-4.27-7.08-4.13a5.91 5.91 0 0 1 1.49-2.78z"/><path d="m19.26 182.77a.83.83 0 0 1 -.85-1c.06-.66.51-.83 1.06-.79a.92.92 0 0 1 -.21 1.82z"/><path d="m25.11 173a.87.87 0 0 1 -.86.82h-.07a.9.9 0 0 1 -1-.82v-.14a.8.8 0 0 1 .79-.82h.1c.69.01.93.45 1.04.96z"/><path d="m110.46 230.36a7.6 7.6 0 0 1 -1.41.38c-1.34-.07-3 .72-3.4-1.72a2.06 2.06 0 0 0 -3.51-1 11 11 0 0 0 -2.64 3.71c2.06.17 6.25 3.47 6.15 5.19a10.73 10.73 0 0 0 2.3-3.17c-1.38.38-2.06 0-3-1.4 1.93-.14 4.3 1.17 5.51-1.99zm-6.7 1.34c-.76-.35-1.76-.76-1.93-1.72-.07-.48.62-1 1.21-.89a1.67 1.67 0 0 1 1.47 1.65c-.17.34-.1 1.26-.75.96z"/><path d="m21 220.74a4.21 4.21 0 0 0 -4.26-4.2 4.6 4.6 0 0 0 -4.55 4.46 4.38 4.38 0 0 0 4.39 4.16 4.57 4.57 0 0 0 4.4-4.43zm-1.78.82a4.19 4.19 0 0 1 -3.37 1.72 2.17 2.17 0 0 1 -2.3-1.1c-.42-.93.17-1.75.86-2.41a4.57 4.57 0 0 1 3.4-1.37 2 2 0 0 1 1.89 1 2.06 2.06 0 0 1 -.5 2.16z"/><path d="m64.83 249.12c-1.82-2.72-4.64-2-7.43-2.17 1.17 1.45 1 6.81-.17 8.32 2.68.07 5.43 1.1 7.39-1.51a3.87 3.87 0 0 0 .21-4.64zm-4 5.39c-.69 0-1-.1-1-.93.17-1.58.17-3.09.17-4.58 0-1.13.62-1.24 1.41-.93a3 3 0 0 1 2 2.68c.01 2.42-1.06 3.73-2.57 3.76z"/><path d="m36.31 156.72a3.87 3.87 0 0 0 -4.78-1.61 11.69 11.69 0 0 0 -4.29 3.12c1.13-.3 1.54.42 2 1.07s1.14 1.58 1.72 2.37c2 2.75 2.3 2.75 4.78.34a4.21 4.21 0 0 0 .57-5.29zm-1.58 4.95c-.55.58-1 .86-1.55 0-.72-1.14-1.61-2.2-2.37-3.34-.28-.41-1-.86-.58-1.41a2.31 2.31 0 0 1 2.13-.72 3.93 3.93 0 0 1 2.85 2.51 2.67 2.67 0 0 1 -.48 2.96z"/><path d="m111.45 175.38a4.4 4.4 0 0 0 -4.5 4.23v.2a4 4 0 0 0 4.06 3.95 4.34 4.34 0 0 0 4.6-4.26 4.14 4.14 0 0 0 -4.16-4.12zm-1.1 6.63a2.07 2.07 0 0 1 -2.23-1.2c-.34-.93.28-1.62.83-2.27a.36.36 0 0 1 .13-.1c1.38-1.27 3.51-1.65 4.71-.89a1.44 1.44 0 0 1 .72 1.71 4.43 4.43 0 0 1 -4.16 2.74z"/><path d="m49 151.57a2.52 2.52 0 0 0 1.24-3.06 2.16 2.16 0 0 0 -2.87-1.51 12.26 12.26 0 0 0 -4 1.48c1.58.65 3.4 5.95 2.68 7.39 1.2.27 2.2-.41 3.33-.93-1.3-.2-1.54-1.17-1.71-2.13s.8-.9 1.33-1.24zm-2.64-2.92c-.24-.59.17-.65.61-.69 1.21-.07 1.48.79 1.65 1.62 0 .75-.31 1.71-.75 1.61-1.25-.19-1.19-1.58-1.56-2.54z"/><path d="m55.21 145.69c-.25-.38-.38-.89-1-.72s-.45.59-.55 1-.17.9-.31 1.34c-.65 2.27-.65 4.68-1.86 6.81a3.6 3.6 0 0 0 2.62-.66c-1.24-.2-1.14-.85-.86-1.51.51-1.3 1.78-.72 2.68-1s1.2 1 1.06 1.24c-.69 1.61.55.86 1 .89a7.37 7.37 0 0 0 1.62-.38 59.07 59.07 0 0 1 -4.4-7.01zm-1 1.79 1.41 2.27c-1.96.68-1.96.68-1.41-2.27z"/><path d="m44.45 244.34c0-.51.34-1.24-.41-1.51-.59-.21-.9.41-1.24.76-1.92 1.75-3.61 3.81-5.94 5.22 1.37 1 1.82 1.13 2.06.58.86-2 .82-1.92 2.68-1 .58.31 1 .59 1 1.38s-.48 1-1.3 1.1a7.54 7.54 0 0 0 3 1.4c-.5-2.71.32-5.27.15-7.93zm-2.16 3.16c-.24.14-1.1-.27-1.14-.51-.07-.93.86-1.14 1.48-1.65-.07.75.55 1.66-.34 2.16z"/><path d="m65.89 149.68c-.24-.34-.41-.62.07-1a2.31 2.31 0 0 0 .86-3.13c-.65-1.41-1.93-1.13-3.09-1a.57.57 0 0 0 -.11.65s0-.11.07-.14c2 1 2.06 2 .34 3.19a.69.69 0 0 1 -.27-.24c-.38.38-.79.76-.07 1.28a23.51 23.51 0 0 1 1.2 2.06c.72 1.44 1.82 1.58 3.61 1.06-1.5-.5-1.92-1.73-2.61-2.73z"/><path d="m64 148.34c-.31.27-.66.55-.38 1.06a2.56 2.56 0 0 0 .34 3.27 12.49 12.49 0 0 1 -3.4 0c1.27-1.44 1.27-6.8 0-8.11h3.09v.55c.25 1.06.08 2.16.35 3.23z"/><path d="m100 178c1.48-.9 2.2-.35 3 1.1 14 26.11-1.61 59-30.61 64.42-24.61 4.6-47.39-10.79-52.2-35.52a43.29 43.29 0 0 1 5.36-30.54c.35-.59.55-1.21 1.55-.79s1.2.61.58 1.61a39.65 39.65 0 0 0 -5.6 15.7c-1.85 14.13 2.17 26.39 12.37 36.22 12 11.51 26.36 15 42.16 9.9s25.39-16.33 28.66-32.68c2-9.86.1-19.21-4.64-28-.17-.34-.38-.68-.55-1.06a1.87 1.87 0 0 1 -.08-.36z"/><path d="m82.59 215.34c-.65-.17-1.34-.31-2-.51-.38-.14-.79-.42 0-.69.11 0 .14-.28.17-.41-1.65-.18-1.13-2.1-2.3-2.79s-1.34-3.54-.55-4.43c.62-.69 1.07.38 1.86.17a9.62 9.62 0 0 0 -.11-3.12c1.07.37 1.52 1.61 2.79 1.65a8.19 8.19 0 0 0 -.31-3.68c1.2.86 2.06 1.85 3.43 2.2.38-1.38-.1-2.61-.48-4 1 .51 1.82 1 2.72 1.34s1.37.24 1.06-.9c-.27-1-.48-2-.72-3.09 1.31.72 2.34 1.75 3.92 1.82a7.3 7.3 0 0 0 -1.2-3.95c1.2.48 2.19.93 3.23 1.31.75.27 1.16.1.92-.9a23.57 23.57 0 0 0 -1.1-2.78c1.52 0 2.89.76 4.33.28-.17-1.55-1.2-2.51-2.26-3.54 3-.45 3.64 0 4.12 2.64a21.6 21.6 0 0 1 .65 6.08 6.34 6.34 0 0 0 -.51.73 5.57 5.57 0 0 0 -2.2 3.09 2.91 2.91 0 0 1 -.24.41 18.09 18.09 0 0 0 -1.72 1.55c-.14.1-.31.31-.41.27-2.07-.69-2.07 1.31-2.82 2.23-.28.38-.52.76-.76 1.14-.38.55-.72 1.13-1.13 1.68a.89.89 0 0 1 -.62.35.53.53 0 0 1 -.38-.55c.79-2 1.89-3.82 2.68-5.81a6.46 6.46 0 0 0 1.24-2.34 4 4 0 0 0 -1.2 2.13c-.9 2.37-2.24 4.54-3.16 6.91-.42.76-.79 1.51-1.17 2.3a12.34 12.34 0 0 0 -.62 1.2c-.28.55-.55 1.07-.79 1.62-.07.14-.17.27-.24.41-.48.72-1.24.35-1.86.41a8.62 8.62 0 0 1 -2.26-.43z"/><path d="m92.93 166.76a2.91 2.91 0 0 1 -3.54-.21 41.72 41.72 0 0 0 -48.58-1.86c-1.38.9-2.48 1-3.68 0 15.6-12.69 41.06-11.92 55.8 2.07z"/><path d="m97.71 202.28v-.41a8 8 0 0 0 2.41-3.4.64.64 0 0 1 .65-.34l.21 2c0 .55.2.9.86.69-.17 1-1.06 1.68-1.1 2.75a.91.91 0 0 1 -1 .55.66.66 0 0 1 -.48-.49c.06-.75.06-1.4-1-.85a1 1 0 0 1 -.45-.11.26.26 0 0 1 -.1-.27c-.04-.08-.04-.12 0-.12z"/><path d="m99.5 208.44c-1.41.27-2.1 1.54-3.13 2.33.21.41-.14.52-.38.69a7.49 7.49 0 0 0 -1.17.58 12.05 12.05 0 0 1 -1.1.69 1.09 1.09 0 0 1 -.86.21.82.82 0 0 1 -.44-.73 3.38 3.38 0 0 1 .68-1.13c.14-.07.25-.14.42-.21 1.2-.68 2.09-1.82 3.36-2.47a5.34 5.34 0 0 1 1.83-.55 1.54 1.54 0 0 1 .79.59z"/><path d="m95.72 211.15a.63.63 0 0 0 .65-.38c1.13-.2 2.3-.27 3.09-1.3a.77.77 0 0 1 1.17-.11c.48-.34.45.07.52.35a29.3 29.3 0 0 0 -5.47 2.85c-.27.41-.75.62-1.06 1a.94.94 0 0 1 -1.06-.24.4.4 0 0 1 .13-.58c.38-.24.72-.52 1.1-.76a1.87 1.87 0 0 0 .93-.83z"/><path d="m101.15 204.66c0 .48-.86.79-.35 1.4a.38.38 0 0 1 0 .42 4.36 4.36 0 0 1 -1.31.51 4.17 4.17 0 0 1 -1.85.24.76.76 0 0 1 -.35-.31.89.89 0 0 1 .35-.62 8.67 8.67 0 0 0 2.2-1.85c.3-.41.75-.93 1.44-.48a.53.53 0 0 1 -.13.69z"/><path d="m99.77 212.49c-.27-.34-.72-.24-1.06-.31a5.79 5.79 0 0 1 3.64-1.17c-.86.52-1.03 2.1-2.58 1.48z"/><path d="m101.15 204c.34-.17.34-.45.27-.76.58-.72 1.48-.72 2.27-1.24-.17 1.83-1.45 2.17-2.58 2.62z"/><path d="m100.8 206.37v-.27a5.79 5.79 0 0 1 2.51-.76c-.62 1.07-1 2.13-2.41 1.76-.17.06-.3.13-.41-.07s.07-.48.31-.66z"/><path d="m84.86 169.47c-.38.24-.76.52-1.17.76-2.78 1.54-4 3.74-3.26 7a10 10 0 0 1 .17 4.92c-.83 2.81-2.85 4.19-5.74 3.77-1.65-.24-3.3-.41-5-.55-.93-.06-1.44-.3-1.48-1.4a14.83 14.83 0 0 0 -.51-3.54c-.41-1.48-.31-2.51 1.61-2.75-2.4-.72-3.84-3.16-6.73-3-2.1.14-3.4 1.58-5.12 2.3-.52.21-.62 1-.38 1.55.31.72.79 0 1.14 0a2.86 2.86 0 0 1 3.38 1.47c.62 1.24-.21 2-.9 3-2.37 3.5-6.11 2.68-9.31 2.92s-6.32-4.33-5.6-7.63c.11-.51.21-1 .35-1.51 1-3.13.89-6-2-8.14 10-7.48 28.8-8.07 40.55.83z"/><path d="m42.56 191.12c0-1.38.65-2.51 1.07-3.85a18.83 18.83 0 0 1 -3.92-.24c.14-1 .86-1.69 1.27-2.61-1.17-.28-2.3-.52-3.44-.79s-1.4-.83-.41-1.69c.52-.44 1-.92 1.62-1.47-1.17-.69-2.41-.55-3.51-.79-1.3-.31-1.17-.76-.44-1.52.34-.37.65-.79 1-1.2a7.63 7.63 0 0 0 -2.64-.79c-2.38-.69-2.38-.69-1-2.58-1.1-.27-2.17-.58-3.26-.79-1.41-.31-1.65-.89-.55-1.92.17-.21.34-.41.48-.62-1-.51-1.93-1-2.86-1.51-1.16-.69-1.27-1.44.07-2 .83-.38 1-.65.35-1.44a3.44 3.44 0 0 1 -.69-3.23c3.95 2.85 8.66 3.85 13 5.7a16 16 0 0 1 4.19 2.65 4.53 4.53 0 0 1 1.41 5.43c-2 5-.65 8.21 3.54 11.06a1.66 1.66 0 0 1 .82 1.55 21.93 21.93 0 0 0 .21 3.61c.2 1.23-.69 1.37-1.41 1.47-1 .17-.65-.79-.65-1.17 0-1.61-.69-1.85-2-1.34a3.19 3.19 0 0 1 -2.25.08z"/><path d="m102.86 165c-.1 1.78-.55 3.09-1.89 4-1.92 1.24-1.92 1.24-.58 3.09-1.38 1-3.09.9-4.64 1.38 0 .79.83 1.1 1 1.85-1.41.9-3.13 1-4.88 1.55l2 2.33c-1.45 1-3.13.69-4.68 1.21a4.43 4.43 0 0 0 1.48 1.59c1.09 1 .61 1.48-.52 1.75s-2.2.49-3.33.73l1.41 2.57a10.36 10.36 0 0 1 -4 .24c.37 1.17.65 2.13 1 3.1s-.1 1-.82.89c-1-.17-2-.41-3.06-.65a13.56 13.56 0 0 1 -.55 2.81c-1.68.07-2-.85-2-2.4 0-2.06.41-3.61 2.23-5 2.41-1.79 2.1-4.53 1.76-7.11-.55-4.33-.21-5.19 3.54-7.39a27.37 27.37 0 0 1 6.67-2.54c3.33-1 6.7-1.9 9.86-4z"/><path d="m101.83 200.84c-.31-1.51 1-1.72 1.86-2.27-.07 1.69-.52 2.2-1.89 2.24z"/><path d="m100.8 206.37c-.07.28-.34.55.1.73-.51.41-.65 1.23-1.44 1.34l-.72-.35c-.31-.72.34-1 .69-1.41a2.41 2.41 0 0 1 1.37-.31z"/><path d="m101.15 209.74-.52-.34c.07-1.45 1.27-1 2.13-1.24-.31.76-.48 1.65-1.61 1.58z"/><path d="m27.61 200.88c.55 0 .59-.59.9-1 .24.55.24 1-.17 1.28-.28-.01-.62.16-.73-.28z"/><path d="m96 204.35 1.58-1.79h.48c.38.45.2.9 0 1.38l-.2.41a5.06 5.06 0 0 1 -1.45 1.75 2.75 2.75 0 0 1 -1.41.66.57.57 0 0 1 -.44-.49z"/><path d="m97.78 203.87c.62.34 1.1-.14 1.65-.31l.44.44c-.61.38-1.13 1-2 .66h-.17v-.17z"/><path d="m90.18 212.15a.59.59 0 0 0 .82-.15.16.16 0 0 0 .07-.13c.55-1 1.38-.83 2.2-.59a1 1 0 0 1 -.68.89 11.38 11.38 0 0 1 -2.31 2 1 1 0 0 1 -1.13.18c-.28-.42-.1-.8 0-1.21a1.56 1.56 0 0 1 1.03-.99z"/><path d="m93.62 211.18-.1-.55a.63.63 0 0 1 .13-.65c1-.86 1.89-1.85 2.86-2.75.27-.17.51-.38.86-.2v.07c.79.72.21 1.16-.31 1.64-1.21.69-2.06 2-3.44 2.44z"/><path d="m97.37 207-.79.41c-.79.38-1.1 1.41-2.07 1.51a.51.51 0 0 1 -.37-.27c-.07-1.52 1.37-1.83 2.16-2.62l1.34-1.64.21.2c.79.69-.35 1.34-.07 2z"/><path d="m35.38 212.73a2.16 2.16 0 0 1 0-1.86 2.49 2.49 0 0 1 0 1.86z"/><path d="m32.42 211.87c.14-1.1-.27-2.27.31-3.3-.03 1.1.48 2.27-.31 3.3z"/><path d="m30 206.72c.14-.79 0-1.69 1-2-.26.69-.09 1.62-1 2z"/><path d="m90.18 212.15-.72 1.13a2.28 2.28 0 0 1 -1 1c-1.41.28-.55-.55-.48-1 .41-.55 1.24-.69 1.51-1.41l.69-1 1-1.38c.86 0 1.34.28.48 1.1-.55.46-.99 1.01-1.48 1.56z"/><path d="m92.25 208.09.34-.1a1.63 1.63 0 0 1 .69-.17.74.74 0 0 1 .44.24 2.08 2.08 0 0 1 .18.48.82.82 0 0 1 -.31.65c-.79.04-1.41-.14-1.34-1.1z"/><path d="m92.9 207.1v-.76a4.72 4.72 0 0 0 .69-.72c.24-.35.62-.52.83-.28.41.45-.31.55-.42.9a.46.46 0 0 1 .11.51.81.81 0 0 1 -1.21.35z"/><path d="m93.72 208.13a4.54 4.54 0 0 0 1.28-1.45c.52-.1.65-1 1.37-.58-.54 1-1.75 1.51-2 2.71l-.72-.27z"/><path d="m44.45 216-2.82.25c.83-.9 1.89-.52 2.85-.55a1 1 0 0 0 -.03.3z"/><path d="m60.57 176.21a3.1 3.1 0 0 1 2.3 0c-.79.34-1.38.96-2.3 0z"/><path d="m82.59 215.34a4.28 4.28 0 0 1 2.44.31c.1.07.14.14.1.21s-.07.1-.1.1h-1.75z"/><path d="m47.92 204.31c-.1-.27 0-.62-.41-.75a1 1 0 0 1 .58-.76 1.28 1.28 0 0 1 -.17 1.51z"/><path d="m88.43 215.27-.34.35a4.92 4.92 0 0 1 -1.09 1.38l-.65-.66a3 3 0 0 1 .34-1.44 1.4 1.4 0 0 1 1.65-.17.35.35 0 0 1 .1.48z"/><path d="m31.63 214.21a.94.94 0 0 1 -.55-1 .46.46 0 0 1 .49-.45.14.14 0 0 1 .1 0c.34.07.69.18.55.66-.1.34-.1.75-.59.79z"/><path d="m86.4 218.06v1.3a.66.66 0 0 1 -1 .1l-.34-.38c-.27-.68.34-1 .65-1.37z"/><path d="m78.06 223.49 1.54-1.17a2.07 2.07 0 0 1 -1.13 1.58z"/><path d="m83.79 221.15c-.07-.52-.51-1.07.11-1.48 0 0 .31.28.48.41 0 .31.27.48.34.76a.86.86 0 0 1 -.75.31z"/><path d="m93.59 214.24a.92.92 0 0 1 0-1l1 .38c-.15.38-.59.45-1 .62z"/><path d="m28.34 207.75a1.69 1.69 0 0 1 -1-1c.72 0 1 .51 1.24 1-.07.17-.18.17-.24 0z"/><path d="m85.37 217.68h-.13-.18c-.34-.07-.75.17-1.13-.35a2 2 0 0 1 1.44.35z"/><path d="m43.08 219.74c.58.45.44.93 0 1.41a.59.59 0 0 1 -.41-.45c.17-.31.44-.58.38-1z"/><path d="m88 213.25h-.48a1.74 1.74 0 0 1 .55-1l1.44-.34c.02 1.03-.7 1.3-1.51 1.34z"/><path d="m90.42 209.43a1.23 1.23 0 0 1 -.61.83l-.21-.42.55-.75z"/><path d="m90.12 213.9a6 6 0 0 1 2.44-1.72l.44.62c-1 .38-1.44 1.55-2.51 1.82a.89.89 0 0 1 -.37-.72z"/><path d="m95 212.18-.34-.31 1.1-.69c.06.59-.32.82-.76 1z"/><path d="m93.55 209.19v-.69c.41-.37.52.11.72.28.48.55-.14.9-.24 1.31l-.55.55c-.75-.52-.38-1 .07-1.45z"/><path d="m93.9 206.79.06-.52.66.1.34.31c.1.93-.58 1.21-1.24 1.45h-.41c-.38-.73.45-.9.59-1.34z"/><path d="m98.81 212c-.89.38-1.93.18-2.75.76l-.21.05.11.12a2 2 0 0 1 -1.34.69.89.89 0 0 1 .25-.56l-.38.21a7.48 7.48 0 0 1 -.74.39 2 2 0 0 1 -.15.57l-3 1.44c-.79.2-1.41 1.64-2.44.41-.25.61.31 1.39-.41 1.93-.06.86-.72 1.31-1.34 1.75a1.6 1.6 0 0 1 -1 .69l-.65.38c-.16-.05-.36 0-.5-.11a1.67 1.67 0 0 0 -.26.28v.11c-.21.49-.11 1.14-.83 1.34-.17-.61.24-1 .65-1.3h.08a.53.53 0 0 0 0-.12 1.36 1.36 0 0 0 .17-.48c-.07-.27.1-.34.31-.45l.65.07.34-.69h.34s0 0 0 0a1.75 1.75 0 0 0 -.24-.66.59.59 0 0 1 -.1-.17 1.49 1.49 0 0 0 -.35.52c-.82-.48 0-.93 0-1.38a.16.16 0 0 1 .13-.09s0-.06 0-.08-.07-.07-.14-.07-.21-.07-.1-.07a.79.79 0 0 1 .38.24.27.27 0 0 0 .08.07h.29a.69.69 0 0 1 0 .24 2.08 2.08 0 0 0 .63.23.58.58 0 0 1 .1-.12h1.11c.06-.44 0-.83-.52-1a1 1 0 0 1 .06-.65l-.47-.33a1.17 1.17 0 0 1 -.24.32l-1.33-.48v-.31h.68a3.86 3.86 0 0 0 -.82-.17 2.09 2.09 0 0 0 -1.55.38c-1.2 1.72-2.75 1-4.33.79-1.06-.17-2.3.72-3.33-.34 0 0-.14.07-.14.1-.27 1.31-.86.35-1.34.21a20.21 20.21 0 0 0 -2-.62 1.22 1.22 0 0 0 -1.23.41c-.24.38.24.69.44 1s.66.76.69 1.17c.07.62 1.82 1.82-.51 1.82-.42 0-.25.59-.21.9 0 .55.48 1.1.14 1.75l-1.49-.57-.38 2.75c-.83-.14-1.1-1-1.89-1-.1.41-.24.86-.38 1.27s0 1.1-.62 1.27c-1.51-1.37-1.51-1.37-2.47.42-.14.31-.24.65-.72.75l-1.38-2.4c-.72.31-.86 1.1-1.54 1.2-.66-.76-.35-1.86-1-2.54-.69.2-1.1 1.1-1.68.82s-.21-1.13-.31-1.72c0-.24.1-.55-.24-.75l-1.39.41c-.69-.93 1.4-2.92-1.31-2.78a10.5 10.5 0 0 1 1.24-2.75c.17-.42.92-.73.44-1.27a1.13 1.13 0 0 0 -1.44-.14c-1.37 1.1-3.2.14-4.57 1.06a.7.7 0 0 1 -.45 0c-.27-1.41-1.1-.52-1.61-.35-1.24.38-2.41.86-3.2-.68-.07-.14-.41-.14-.62-.21a1.6 1.6 0 0 0 -.78-.21 6.06 6.06 0 0 0 .82-.13c2.2.34 2.54-2 3.92-2.82a.42.42 0 0 0 0-.28c-1.06-1.06.31-1.06.65-1.47s1.45-.83 1.17-1.86-.48-2.09-.69-3.09c-.65-.07-1 .58-1.68.38v-2.2c.14-.41.24-.79-.41-.76-.69.65-1.17 1.55-2.27 1.62-.31-1.27.14-2.48.21-3.92-1.14 1.13-1.93 2.23-3.37 2.51-.31-1.41.24-2.72.24-4.13-1.24.69-2.23 1.52-3.68 1.59 0-1.52.62-2.89.9-4.4a7.8 7.8 0 0 1 -4.06 1.78c.14-1.44 1-2.5 1.31-3.88-1.45.41-2.58 1.62-4.16 1.31.1-1.45 1-2.48 1.51-3.89a28.43 28.43 0 0 1 -3.47.93c-1.1.1-1.27-.27-.75-1.13s1.16-1.82 1.82-2.85a11.09 11.09 0 0 1 -1.41.06c-1.82-.24-2.58.59-2.89 2.38a67.47 67.47 0 0 0 -1 7.83l-1.86-.86a8.85 8.85 0 0 0 2.58 6.6c-1.51-.17-2.44-.76-3.5-.41.17 2 1.58 2.88 3.33 3.53-.86.52-1.79.18-2.54.76a5.65 5.65 0 0 0 2.13 2c-.41.72-1.34.27-1.55 1 1 1.13 2.37 1.24 3.64 1.79-.44.79-1.58.68-1.68 1.68l2.58.55-.9 2.09c.48-.06.83-.06 1.14-.13 1.34-.28 1.78.27 1.51 1.58-.07.38-.17.79-.21 1.17s.14.92.66.68c1.75-.82 1.61.38 1.71 1.48.07.69.18 1.68.9 1.86s.75-.82 1.14-1.24l.88-3.33c.28 1.37.42 2.44-.44 3.36-.44.84.13 1.35.64 1.89 9 9.25 19.93 13.27 32.6 11.34 13.75-2.06 23.4-9.89 29-22.64a2.67 2.67 0 0 1 1.58-1.65c-.15-.62-.63-.27-.94-.35zm-55.76 3.82a3.15 3.15 0 0 1 -1.18 0c.37-.03.77-.02 1.18-.03zm-15.44-14.94c.11-1.34.93-2.79 2-2.65.93.1.45 1.86.34 2.89a4 4 0 0 1 -1.16 2.4 3.22 3.22 0 0 1 -.48-2.3c.06-.79-.56-.03-.7-.34zm.38 4v-.07a.48.48 0 0 1 .41-.59.64.64 0 0 1 .59.52c0 .31-.1.55-.45.55a.49.49 0 0 1 -.54-.39zm.35 2.85a.83.83 0 0 0 .27 0c.14.24.45.41.31.72a.38.38 0 0 1 -.38.14c-.38-.15-.24-.53-.2-.84zm.41 4.26s-.07 0-.11-.1h1.21a.78.78 0 0 1 -1.1.11zm1.48-2a.54.54 0 0 1 -.59-.48c-.07-.34.14-.52.45-.52s.55.07.62.42a.54.54 0 0 1 -.48.64zm-.23-1.66c-.38-.48.14-.86.07-1.27-1.12-.08-.72-.58-.48-1a2.68 2.68 0 0 0 .1-.35 2.93 2.93 0 0 1 1.31-2.5c.27-.38.55-.79 1.06-.58s.31.69.34 1.06c.3 2.13-.87 3.51-2.4 4.64zm3.85 7.32-1 .28-1.58.41a1.8 1.8 0 0 1 1.58-.61c.79-.66-.41-.83-.28-1.34.9-.52.72.79 1.27.82.34-.39.68-.26.95.05s0 .41-.14.58-.65.16-.85-.19zm1 5.12-.48 2.17a3.2 3.2 0 0 1 .14-2.58s0 0 0 0c0-.38 0-.83.72-.86zm1.34-4.36a.48.48 0 0 1 -.58-.38v-.03a.47.47 0 0 1 .37-.58h.02a.52.52 0 1 1 .14 1zm2.06.89a.78.78 0 0 1 -.62.76c-.68.1-.82-.28-.86-.69a.68.68 0 0 1 .52-.76h.17a.73.73 0 0 1 .79.59zm-.25-2.85a.75.75 0 0 1 .28.89c-.14.41-.55.38-.86.35s-.52-.42-.52-.76.07-.89.07-1.34c-.21-.28-.28-.79-.86-.38s-.62 1.51-1.48 1 .42-1.07.24-1.75a6.61 6.61 0 0 1 -.06-1.83.25.25 0 0 1 0-.07c-1-.31-1 .65-1.3 1.17s-.59 1.06-1.07.1c-1.19-.41-1.26-1.09-.71-2.16.36-.56.25-1.34.67-1.92a2.64 2.64 0 0 1 .61-1.2c.49-.72.76-.38 1 .17.52 1 .21 2.1.8 3.06v.1-.06a8.37 8.37 0 0 1 2-2.65l.17 2.65c1.07-.28 1.72-1.34 3-1.45-.17 2.17-.65 4.09-2.71 5.29.07.34.46.52.73.79zm1.26 2.55c.11-.48-1.06-.93-.14-1.34s.42.79.9 1c.31 0 .85.11.55.41a3 3 0 0 1 -1.51.52c-.14.02-.06-.46.2-.59zm2.41 3.81a2.66 2.66 0 0 1 -1.38-1c-.55-.27-.68-.82-1-1.3 1.23 0 1.24 0 1.37 1.27.85-.17 1.06.52 1.44 1l.51-.07.42.45c-.54.37-.95-.01-1.36-.36zm1.41-1.06c-.66 0-.77-.56-1.07-1 0 0 0 0 0-.05v.05c-.28-.17-.69-.45-.42-.76s.73-.17.86.31a2.27 2.27 0 0 1 .66 1.41zm6 6.56c-.21.11-.55 0-.79-.13a1 1 0 0 1 -.59-.8 10.48 10.48 0 0 0 -3.23-5.32 1.07 1.07 0 0 1 -.3-1.31 12.84 12.84 0 0 1 5 6.81c.09.26.23.61-.08.74zm32.3 1.48c-.28.48-.52.69-1.1.45s-.35-.69-.14-1.1a10.13 10.13 0 0 1 2.61-3.71 10.37 10.37 0 0 1 -1.36 4.35zm-2.38-2.42c-.31.52-1 .18-1.17-.13-.44-.69.55-.83.66-1.31a2 2 0 0 1 .48-.72l-.93.28a5.83 5.83 0 0 0 -2.1 1.4c-.51.52-1 1-1.61.18s.58-.73.69-1.21c-.36-.22-1-.27-1-.77s.66-.55 1-.68c1-.31 1.82-1.38 3.05-.93.79-.45 1.38-1.51 2.58-.86.21.1.62-.07.69-.65s.72-.59 1.34-.28.51.79.17 1.2c-1.15 1.56-2.8 2.77-3.85 4.48z"/><path d="m87.54 218.06v-.01l-.01.01z"/><path d="m198.69 232c2.24-.93 4.16-2.37 6.64-2.31a4.13 4.13 0 0 1 3.47 1.55c.82 1.17 1.51.86 2.37.24a10.36 10.36 0 0 1 4-1.58c3.78-.79 6.42 1.24 6.56 5.12.1 3.09.1 6.19 0 9.28 0 1.17.24 1.68 1.47 1.54.79-.06 1.72-.13 1.69 1.1s-.93 1.1-1.72 1.1c-2.41 0-4.81 0-7.22 0-.86 0-1.27-.24-1.34-1.1s.48-1.24 1.27-1.14c1.24.18 1.55-.34 1.52-1.51-.07-2.75 0-5.5 0-8.24 0-3-1.75-4.13-4.53-3.17-2.58.9-2.75 1.14-2.75 3.89 0 2.4.07 4.81 0 7.21-.07 1.38.24 2 1.72 1.86.48-.07 1-.14 1.38.44a1.17 1.17 0 0 1 -.35 1.59 1 1 0 0 1 -.68.17c-2.68 0-5.4 0-8.08 0-.72 0-1.06-.28-1-1s.21-1.34 1.06-1.17c2.07.38 2.17-.76 2.1-2.34-.1-2.58 0-5.15-.27-7.7-.28-2.92-1.86-3.95-4.57-2.88s-2.86 1.17-2.86 4.19c0 2.3.07 4.57 0 6.87-.07 1.34.21 2.1 1.72 1.86h.51c.76 0 1 .48 1 1.1a1 1 0 0 1 -1 1.1c-2.85 0-5.73 0-8.59 0-.89 0-.79-.62-.79-1.2s0-1.07.76-1.07h1.37c.79.07 1.14-.17 1.14-1 0-3.88 0-7.8 0-11.68 0-1.44-1-.82-1.69-1s-1.61.41-1.58-.9c0-.68.17-1.06 1-1h5.33c1.25-.07.5 1.13.94 1.78z"/><path d="m158.91 165.59c0 2.68.06 5.39 0 8.07-.07 1.45.34 2 1.79 1.79.58-.07 1.41-.41 1.85.38.52 1-.1 1.85-1.27 1.89-2.85 0-5.74 0-8.59 0-.82 0-1.37 0-1.37-1.14s.44-1.34 1.3-1.13c1.82.38 2.1-.48 2.06-2.13-.13-5.4-.13-10.76-.1-16.15 0-1.2-.34-1.68-1.54-1.51a13.36 13.36 0 0 1 -1.55 0c-2.72 0-2.75 0-2.92 2.64-.07.93-.48 1-1.2 1s-1.21-.11-1.17-1c0-2 0-3.88 0-5.84 0-.41-.17-1 .51-1.07s1.51-.48 1.76.45.65.65 1.13.65h14.26c.48 0 .93.11 1.2-.62.35-1 1.38-.48 2.06-.48s.59.72.59 1.21v5.32c0 .89-.27 1.41-1.27 1.44s-1.58-.55-1.41-1.44c.42-2.13-.72-2.23-2.37-2.2-3.71.1-3.71 0-3.71 3.78-.04 1.96-.04 4.03-.04 6.09z"/><path d="m384.24 232.08a11.81 11.81 0 0 1 6.32-2.31c3.2 0 5.05 1.69 5.09 4.92s0 6.28 0 9.45c0 1.2.11 2 1.62 1.68a4.15 4.15 0 0 1 .86 0c.72 0 .93.42 1 1.14s-.34 1-1 1l-8.25.11c-.75 0-1.13-.35-1.13-1.17s.45-1.2 1.17-1.1c1.65.27 1.68-.65 1.65-1.89-.07-2.75 0-5.5 0-8.25 0-2.51-1.58-3.78-4-3.12s-3.06 1.41-3.06 3.88c0 2.64 0 5.26-.07 7.9 0 1.14.18 1.72 1.48 1.55.72-.1 1.45-.21 1.48 1s-.65 1.21-1.51 1.21c-2.48 0-4.92 0-7.39 0-.82 0-1.44-.14-1.41-1.21s.72-1.13 1.41-1c1.82.35 2-.51 1.92-2.06-.13-3.3-.13-6.63 0-10 0-1.34-.31-1.86-1.68-1.69-.48.07-1.27.38-1.52-.34s-.34-1.61 1-1.58a41.39 41.39 0 0 0 5 0c1.12-.15 1.57.23 1.02 1.88z"/><path d="m148.53 209v-2.74c0-.69-.1-1.34 1-1.31.93 0 1.28.24 1.28 1.24a4.75 4.75 0 0 0 6.39 4.64 3.73 3.73 0 0 0 1.82-5.64 11.69 11.69 0 0 0 -3.71-3 21.11 21.11 0 0 1 -4.44-2.88c-2.06-2.07-3.36-4.44-2.26-7.39a6.44 6.44 0 0 1 6.39-4.62 18.23 18.23 0 0 1 3.06.18c1 .13 1.75.92 2.85-.11.55-.51 1.79-.38 1.69 1.17a42.88 42.88 0 0 0 0 4.81c0 .83-.28 1.13-1.1 1.07s-1.31-.11-1.2-1a2.91 2.91 0 0 0 -1.55-3.26 5.52 5.52 0 0 0 -4.3-.42 2.94 2.94 0 0 0 -2.2 2.58 3.65 3.65 0 0 0 1.72 3.5 41.62 41.62 0 0 0 4 2.41 14 14 0 0 1 4.3 3.57 7.19 7.19 0 0 1 -5.7 11.51 10.24 10.24 0 0 1 -4.51-.85c-.48-.21-1.2-1-1.27.48 0 .72-1.06.31-1.65.34s-.55-.45-.55-.82c-.06-1.17-.06-2.34-.06-3.46z"/><path d="m206.22 161.77a10.45 10.45 0 0 1 6.73-2.16 4.27 4.27 0 0 1 4.33 4.36c0 3.37.07 6.77 0 10.14 0 1.3.28 1.89 1.69 1.68.48-.07 1.1-.27 1.44.21.21.27.1.79.07 1.17-.07.55-.52.51-.93.51h-8.07c-.76 0-1-.34-1-1 0-.86.45-1 1.07-.86 1.68.35 1.82-.58 1.79-1.92-.07-2.51 0-5.05 0-7.56 0-1.65-.27-3.23-2-4-1.07-.48-3.68.38-4.75 1.41a1.74 1.74 0 0 0 -.37 1.44c0 3.09.06 6.19 0 9.28 0 1.17.34 1.51 1.44 1.41.62-.07 1.41-.31 1.41.89s-.62 1-1.34 1h-7.38c-.73 0-1.34 0-1.31-1s.62-1 1.24-.86c1.71.31 2.06-.45 2-2.06-.14-3.37-.1-6.77 0-10.14 0-1.3-.31-1.71-1.62-1.61-.65.07-1.64.45-1.64-1s1-1 1.68-1c1.2-.07 2.4 0 3.61 0s2.05-.01 1.91 1.67z"/><path d="m245 231.83c2.16-1.23 4.12-2.19 6.39-2.13a4.46 4.46 0 0 1 4.74 4.71c0 3.33.07 6.63 0 10 0 1.1.24 1.58 1.41 1.44.86-.1 1.75-.24 1.72 1.17s-1 1-1.69 1c-2.33 0-4.7 0-7 0-.89 0-1.17-.31-1.17-1.2s.38-1.14 1.14-1c1.37.2 1.75-.38 1.68-1.72-.1-2.79 0-5.6-.1-8.42-.07-2.41-1.07-3.33-3.2-3.27-2.51.07-3.88 1.31-3.88 3.44 0 2.75.07 5.5 0 8.25 0 1.17.17 1.89 1.54 1.68.9-.14 1.38.1 1.34 1.17s-.51 1.1-1.3 1.06c-2.51 0-5.05 0-7.56 0-.86 0-1.24-.17-1.24-1.13s.35-1.31 1.21-1.13c1.89.37 2.13-.62 2.06-2.2-.11-3.3-.11-6.63 0-10 0-1.34-.38-1.68-1.65-1.58-.59 0-1.58.52-1.62-.82s.93-1 1.65-1h3.61s2.31-.34 1.92 1.68z"/><path d="m378.09 161.81a12.34 12.34 0 0 1 7.15-2.17 4.37 4.37 0 0 1 3.95 3.4c.58 3.72.21 7.43.21 11.14 0 1.37.41 1.78 1.71 1.65.55-.07 1.45-.48 1.45.79s-.76 1-1.48 1h-7c-.76 0-1.34 0-1.38-1s.69-.9 1.27-.83c1.24.17 1.55-.31 1.48-1.47-.1-2.93-.07-5.85-.07-8.77 0-1.61-.55-2.92-2.3-3.36-1.2-.31-4.3.85-4.78 1.82a2.77 2.77 0 0 0 -.13 1.17c0 3.09.06 6.18 0 9.27 0 1.21.41 1.45 1.48 1.38.69-.07 1.51-.28 1.44 1s-.79.9-1.44.9h-7.22c-.65 0-1.37.2-1.41-.93s.66-1.07 1.34-1c1.55.24 2-.31 2-1.93-.14-3.36-.11-6.73 0-10.13 0-1.38-.28-2-1.76-1.82-.65.06-1.58.34-1.51-.93s.93-.76 1.51-.76c1.31-.07 2.65 0 4 0 .91-.11 1.8-.11 1.49 1.58z"/><path d="m216.67 211.05c-2.38 1.37-4.37 2.47-6.88 2.23s-4.39-1.79-4.43-4.43c-.07-3.27-.1-6.53 0-9.76 0-1.51-.27-2.23-1.92-2-.55.1-1.31.27-1.27-.79 0-.69.13-1.07.92-1 1.65 0 3.34.06 5 0 1.06 0 1.37.27 1.34 1.34-.07 3.47 0 7 0 10.44 0 2.17.68 3.13 2.4 3.61 1 .27 4.16-.86 4.6-1.79a3.54 3.54 0 0 0 .18-1.34c0-2.92-.07-5.84 0-8.76 0-1.34-.31-1.86-1.68-1.72-.62.07-1.58.48-1.58-.86s.92-.89 1.54-.92c1.31 0 2.65.1 4 0 1.52-.17 1.76.48 1.72 1.82-.07 4.06 0 8.11-.07 12.17 0 1.3.35 1.75 1.65 1.61.72-.07 1.69-.27 1.62 1.07s-1 .85-1.62.89c-1.37.07-2.75 0-4.12 0-1.2.14-1.82-.16-1.4-1.81z"/><path d="m273.5 197.13 3.95 10.62 4-10.41c-.58-.52-1.72.37-1.72-1 0-.65.07-1.1.89-1.06h4.3c.62 0 .79.27.76.82s.06 1.13-.76 1c-1.34-.21-1.65.72-2 1.65-2.75 6.94-5.47 13.91-8.22 20.89-1.16 2.92-1.2 2.88-4.6 2.68 1-2.24 1.89-4.44 3-6.53a7.53 7.53 0 0 0 .45-7.29c-1.52-3.29-2.68-6.8-3.92-10.24-.28-.79-.58-1.34-1.55-1.16-.68.1-1.2 0-1.17-1s.66-.85 1.28-.85h6.18c.76 0 1.31 0 1.31 1s-.69.79-1.27.79a4 4 0 0 1 -.91.09z"/><path d="m221.79 175c0-.62 0-1.27 0-1.89 0-.42-.25-1 .48-1.1s.92.17 1.1.75a4.79 4.79 0 0 0 2.06 2.68 3.68 3.68 0 0 0 2.57.69 2.47 2.47 0 0 0 2.41-1.58c.38-1.13-.38-1.89-1.2-2.41-1.1-.72-2.31-1.23-3.44-1.92-1.92-1.2-3.74-2.61-3.92-5-.27-3.71 3.27-6.29 7.32-5.46.52.1 1.1.44 1.48.27 1.92-1 2 .14 1.89 1.55v.34c-.17.86.52 2.13-.41 2.48s-1.1-1.07-1.65-1.65a3.49 3.49 0 0 0 -3.44-1.07 2 2 0 0 0 -1.51 2.41 1.93 1.93 0 0 0 .41.82 9.72 9.72 0 0 0 2.92 2.06 14.39 14.39 0 0 1 4 2.92 5 5 0 0 1 -2.37 8 7.44 7.44 0 0 1 -5.64-.28c-.41-.2-.86-.68-1.27 0s-.86.55-1.37.44c-.72-.17-.38-.85-.42-1.3a14.6 14.6 0 0 1 0-1.75z"/><path d="m272.6 245.17v-1.89c0-.38-.1-.86.45-1a.87.87 0 0 1 1 .49c.24.44.44.92.68 1.37a4.07 4.07 0 0 0 4.64 2.06c.9-.27 1.86-.65 1.93-1.68a2.49 2.49 0 0 0 -1.41-2.41c-.55-.31-1.14-.51-1.69-.82a27.56 27.56 0 0 1 -3.05-1.89c-2.44-1.89-3.13-4.16-2.06-6.43a5.94 5.94 0 0 1 6.73-3.19c.82.17 1.65.86 2.51-.07a.56.56 0 0 1 .82.14.58.58 0 0 1 .11.41v4c0 .31-.07.55-.45.58-.55.07-.65-.34-.83-.68-.79-1.41-1.71-2.55-3.57-2.44a2.53 2.53 0 0 0 -2.2 1.61c-.51 1 .24 1.62 1 2.13 1 .69 2 1.31 3 1.93a16.31 16.31 0 0 1 2.82 1.92 4.75 4.75 0 0 1 1.64 5.09 5.1 5.1 0 0 1 -4.22 3.81 9.58 9.58 0 0 1 -4.09-.14c-.83-.2-1.72-1.23-2.51.28-.21.38-1.2 0-1.27-.79s.07-1.58 0-2.37z"/><path d="m284.91 162.67c1-1 1.51-1.69 2.13-2.24a3.3 3.3 0 0 1 4.12-.2 1.63 1.63 0 0 1 .79 2.13 11.06 11.06 0 0 1 -1.38 3.37c-.37-.42-.68-.83-1-1.21-.65-.68-1.16-1.65-2.4-1.13s-2.2 1.24-2.2 2.75v8.24c0 1.1.24 1.52 1.4 1.45.59 0 1.72-.76 1.72.79s-1.13 1-1.82 1c-2.34.07-4.67.07-7 .07-.69 0-1.51.28-1.48-1s.76-1 1.37-.9c1.17.14 1.58-.2 1.55-1.47-.1-3.61-.1-7.22 0-10.83 0-1.2-.31-1.65-1.52-1.51-.61.07-1.34.27-1.37-.93s.65-1.1 1.41-1.1h3.26c1.51.05 3 .05 2.42 2.72z"/><path d="m174.09 162.36c.59-.69 1.17-1.38 1.79-2a2.63 2.63 0 0 1 2.71-.65c2 .41 2.51 1.34 2 3.26-.1.35-.2.65-.31 1-.24.59-.2 1.48-.79 1.62s-.89-.76-1.23-1.24a2 2 0 0 0 -2.55-.79 2.78 2.78 0 0 0 -2 2.54c0 2.58.11 5.16 0 7.74-.1 1.61.31 2.37 2 2 .86-.17 1.27.14 1.13 1.1-.07.55-.24.83-.82.83-2.86 0-5.71 0-8.59 0-.83 0-.93-.42-.93-1.07s.34-1 .93-.82c1.92.41 2.09-.62 2-2.17-.1-3.33-.1-6.63 0-10 0-1.2-.21-1.82-1.58-1.65-.62.1-1.38.27-1.38-.89s.66-1.1 1.45-1.1h3.61c1.54-.07 2.64.21 2.16 2.23z"/><path d="m199.38 197.78v1.72c0 .41.17 1-.58 1s-.9-.17-1.1-.79a4 4 0 0 0 -7.56-.41 10.66 10.66 0 0 0 .41 9c1.2 2.4 3.75 3.12 6.5 2 .61-.25 1.2-.66 1.82-.93.41-.17.82-.79 1.27 0a1 1 0 0 1 -.14 1.48c-2.44 2.41-5.36 2.89-8.59 2.2a7.75 7.75 0 0 1 -5.26-4c-1.86-3.33-2.06-9.86 2.2-12.75a8.78 8.78 0 0 1 8-1.06 4.11 4.11 0 0 0 1 .34c2.03-.06 2.03-.1 2.03 2.2z"/><path d="m307.41 232.66c.93-.86 1.58-1.55 2.3-2.2a2.84 2.84 0 0 1 3.61-.27c1.41.75 1.31 1.82.86 3.05a8.59 8.59 0 0 1 -1.17 2.44c-.41-.07-.55-.37-.72-.68-.65-1.07-1.51-1.89-2.82-1.34s-2.3 1.34-2.23 3.05c.1 2.44.1 4.92 0 7.39-.07 1.38.38 1.89 1.72 1.69 1.06-.18 1.58.17 1.44 1.37-.07.69-.31.86-1 .86-2.82 0-5.6 0-8.42 0-1 0-.93-.55-1-1.23s.17-1.17.93-1c2.23.48 2.33-.83 2.3-2.51-.1-3.13-.1-6.29 0-9.45.07-1.45-.38-1.93-1.79-1.75-.45.06-1.24.37-1.41-.49s-.2-1.51 1-1.44 2.51 0 3.78 0c2.48.04 2.48 0 2.62 2.51z"/><path d="m238.45 200.94c-.41-.55-.69-.89-1-1.27-.62-.79-1.31-1.54-2.44-1.06s-2.17 1.1-2.17 2.58v8.59c0 1.16.62 1.13 1.41 1.09s1.61-.2 1.54 1.1-1 .86-1.58.9c-2.47 0-4.91 0-7.38 0-.62 0-1.41.24-1.41-.93s.58-1.13 1.3-1c1.58.21 2-.38 2-2-.14-3.44-.1-6.87 0-10.31 0-1.17-.27-1.72-1.51-1.51-.34 0-.69 0-1 0-.62 0-.72-.42-.72-.93s.13-.86.75-.86h5.76c1.45 0 .55 1.2 1 1.89.79-.24 1.23-1 1.85-1.55 1.62-1.27 2.65-1.27 4.33-.13a1.5 1.5 0 0 1 .69 1.89c-.21.58-.38 1.2-.62 1.78s-.46 1.01-.8 1.73z"/><path d="m285.83 232.21c2.17-2.68 4.4-4.6 6.67-7 0 1.44.07 2.51 0 3.57s.42 1.48 1.48 1.38c.79-.07 1.62 0 2.41 0s1 .34 1 1.1-.52.83-1.1.86c-1.24.07-2.92-.58-3.57.31s-.21 2.4-.21 3.64v5.5a14.22 14.22 0 0 0 .07 1.72c.27 2.68 1.61 3.33 3.91 2.06.42-.21.8-1.1 1.38-.41s.1 1.2-.45 1.71a5.61 5.61 0 0 1 -5.84 1.45c-2.27-.69-2.82-2.51-3.13-4.47a55.88 55.88 0 0 1 -.2-9.59c-.01-1.52-.36-2.27-2.42-1.83z"/><path d="m336.1 174.66c.24 1.61-1 2.4-2 3a4.93 4.93 0 0 1 -7.46-4.47c-.07-3-.1-5.94 0-8.9.07-1.58 0-2.78-2.61-2a59.18 59.18 0 0 1 6.59-7.11c0 1.58.07 2.68 0 3.78s.38 1.41 1.38 1.31 2 0 2.92-.07c.65 0 .93.24.93.89s-.21 1-.9.9h-.34c-1.24 0-2.89-.55-3.64.2s-.31 2.61-.31 3.95c0 2.51-.28 5.05.24 7.53s1.68 2.85 3.78 1.58a2.18 2.18 0 0 1 1.42-.59z"/><path d="m332.84 231.77 6.42-6.12v3.47c-.07.89.21 1.27 1.17 1.13s1.72 0 2.58-.13 1.17 0 1.13 1-.48.93-1.2 1c-1.2.13-2.82-.66-3.5.37-.55.86-.14 2.34-.14 3.54 0 2.3-.11 4.61 0 6.87.17 2.79 1.17 4.09 4.33 2.2.31-.17.62-.68 1-.24a1 1 0 0 1 0 1.27 5.79 5.79 0 0 1 -5.29 2.2 4.19 4.19 0 0 1 -3.74-3.09 11.13 11.13 0 0 1 -.59-3.71c0-2.41-.07-4.81 0-7.22.13-1.51-.01-2.68-2.17-2.54z"/><path d="m254.19 196.68 6.35-5.8c0 .92.07 2.06 0 3.12s.21 1.38 1.24 1.28 2.06 0 3.09 0c.52 0 .86.1.86.76s-.07 1-.79 1-1.48.07-2.23.07c-2.44 0-2.17-.31-2.13 2.2.07 3.12-.28 6.28.31 9.41.41 2.3 1.75 2.89 3.78 1.62.41-.25.86-.86 1.3-.38s0 1.06-.34 1.51a5.45 5.45 0 0 1 -5.6 1.65 4.23 4.23 0 0 1 -3.3-3.92 77.56 77.56 0 0 1 -.17-9.76c0-1.61.07-3-2.37-2.27z"/><path d="m293.84 161.84a66.28 66.28 0 0 1 6.29-6.59v1.75c0 3 0 3 3.09 3 .76 0 2.13-.79 2.1 1.06 0 .62-.14 1-.86.93h-.52c-3.81.1-3.85.1-3.78 4a44.38 44.38 0 0 0 .28 7.36c.44 2.47 1.61 3.06 3.84 1.85.42-.24.93-1 1.41-.34.38.51-.1 1.17-.51 1.68a5.53 5.53 0 0 1 -5.81 1.45 4.67 4.67 0 0 1 -3.06-4.51c-.07-3-.1-5.94-.1-8.93-.07-2.36-.03-2.36-2.37-2.71z"/><path d="m267.72 238.16c0 2.06.07 4.12 0 6.18-.07 1.2.34 1.69 1.55 1.51.82-.1 1.37 0 1.37 1.14s-.65 1.1-1.41 1.06c-2.51 0-5 0-7.52 0-1 0-1.07-.45-1.1-1.24s.31-1.17 1.1-1c1.58.31 1.89-.41 1.85-1.85-.1-3.47-.1-7 0-10.45 0-1.13-.34-1.51-1.44-1.41-.66.07-1.52.38-1.48-1s.89-.93 1.54-.93c1.55 0 3.1.07 4.61.07.79 0 1.06.35 1 1.17v6.67z"/><path d="m353.35 238v6.52c0 1 .24 1.48 1.34 1.31.58-.1 1.3-.17 1.68.48a1.11 1.11 0 0 1 -.31 1.55 1.14 1.14 0 0 1 -.72.17c-2.68 0-5.36 0-8.07 0-.86 0-1.07-.34-1.07-1.13s.21-1.24 1.07-1.1c1.89.34 2.13-.62 2.06-2.23-.11-3.13-.11-6.29 0-9.45.07-1.58-.24-2.41-2-2.06-.72.13-1.16-.11-1.2-1s.21-1 1-1c1.72.07 3.44.07 5.16 0 .86 0 1.06.34 1 1.1.07 2.27.1 4.5.1 6.74z"/><path d="m233.19 238.05c0 2.07.07 4.13 0 6.19-.07 1.24.24 1.82 1.58 1.61.69-.1 1.44-.27 1.48 1s-.59 1.24-1.48 1.24c-2.48 0-4.91-.07-7.39 0-.86 0-1.2-.2-1.2-1.13s.41-1.24 1.24-1.07c1.47.28 1.65-.48 1.61-1.71-.07-3.47-.07-7 0-10.45 0-1.1-.1-1.75-1.44-1.55-.72.11-1.48.21-1.45-1s.79-.89 1.45-.89h4.46c1-.07 1.31.2 1.28 1.2-.07 2.23 0 4.46 0 6.7z"/><path d="m249.62 203.11c0 2 .07 4 0 6-.07 1.37.21 2.06 1.72 1.78.62-.1 1.27-.13 1.27.86 0 .73-.07 1.17-1 1.17q-4 0-8 0c-.69 0-1-.17-1-1s.24-1.24 1.07-1.07c1.79.35 1.86-.65 1.86-2-.07-3.44 0-6.84 0-10.28 0-1.06-.18-1.61-1.38-1.44-.69.1-1.55.31-1.55-1s1-.79 1.62-.83c1.37-.06 2.75.07 4.12 0 1.17-.1 1.45.38 1.38 1.44-.07 2.13 0 4.23 0 6.36z"/><path d="m344.8 168.06c0 2.13.06 4.23 0 6.32 0 1.07.17 1.58 1.38 1.45.48 0 1.44-.66 1.51.65s-.72 1.17-1.55 1.17c-2.34 0-4.67 0-7 .07-.72 0-1.34 0-1.3-1s.61-1 1.23-.86c1.55.27 1.76-.45 1.72-1.79-.1-3.47-.1-7 0-10.45 0-1.2-.18-1.85-1.55-1.64-.65.1-1.41.13-1.34-1s.83-.72 1.37-.72h3.61c2.13 0 2.1 0 2.06 2.17v5.63z"/><path d="m353.35 224.93c-.07 1.82-.86 2.68-2.44 2.61a2.26 2.26 0 0 1 -2.27-2.61 2.44 2.44 0 0 1 2.37-2.41 2.53 2.53 0 0 1 2.34 2.41z"/><path d="m233.26 225a2.87 2.87 0 0 1 -2.47 2.58 3 3 0 0 1 -2.51-2.41 3.13 3.13 0 0 1 2.47-2.64 2.49 2.49 0 0 1 2.51 2.47z"/><path d="m265.11 222.56a3.2 3.2 0 0 1 2.61 2.57 3.3 3.3 0 0 1 -2.68 2.55 3.58 3.58 0 0 1 -2.4-2.61 3.24 3.24 0 0 1 2.47-2.51z"/><path d="m342.32 157.2a2.34 2.34 0 0 1 -2.47-2.4 2.47 2.47 0 0 1 2.82-2.3 2.33 2.33 0 0 1 2.19 2.37 2.29 2.29 0 0 1 -2.54 2.33z"/><path d="m247.45 187.72a2.28 2.28 0 0 1 2.2 2.47 2.42 2.42 0 0 1 -2.51 2.27 2.46 2.46 0 0 1 -2.44-2.34c-.03-1.41 1.07-2.37 2.75-2.4z"/><path d="m252.37 162.12c-2.89-3-6.26-3.34-10.66-.9-.06-.58.07-1.23-.89-1.2-1.89.07-3.78 0-5.67 0-.58 0-1 .13-1 .85s.07 1.17.89 1.14a4.12 4.12 0 0 0 .86 0c1.31-.24 1.62.31 1.62 1.58-.07 6.29-.11 12.58 0 18.9 0 1.75-.28 2.75-2.27 2.4-.76-.13-1.14.17-1.1 1.07s.55.86 1.13.86h7.56c.62 0 1.24.1 1.24-.89s-.45-1.17-1.24-1.1-1.23.07-1.2-.93c.07-2.23 0-4.43 0-6.63.62-.17 1 .24 1.37.38a7.92 7.92 0 0 0 6.33 0c5.47-2.3 7.15-11.24 3.03-15.53zm-3.1 11.3a4 4 0 0 1 -3.26 2.72 4.7 4.7 0 0 1 -4.06-1.82 2.16 2.16 0 0 1 -.37-1.62c0-2.47 0-4.91 0-7.39a3.54 3.54 0 0 1 2.65-3.5 3.46 3.46 0 0 1 4 1.41 8.49 8.49 0 0 1 1.58 6 8.42 8.42 0 0 1 -.52 4.16z"/><path d="m189.59 245.82c-1.79.38-2-.52-2-2.06.1-7.39.07-14.78.13-22.16 0-1.07-.13-1.55-1.37-1.45-1.72.14-3.44.07-5.15 0-.69 0-1 .17-1 1s.21 1.06 1 1h1.37c.62 0 1 .13 1 .82v8.31c-.65.11-1-.27-1.34-.51a7.07 7.07 0 0 0 -9.17 1.37 9.47 9.47 0 0 0 -2.41 7.43 8.66 8.66 0 0 0 6.64 8c4.12.86 8.31.38 12.5.48 1 0 .83-.65.86-1.27s-.3-1.13-1.06-.96zm-7.18 0c-6.29.45-8.08-4.46-7.18-9.27a5.41 5.41 0 0 1 1.51-3.2 4.71 4.71 0 0 1 6.32.41 1.88 1.88 0 0 1 .38 1.27v5h.1v4.64c0 .75-.2 1.1-1.13 1.16z"/><path d="m168.84 245.37c-1 .11-1.34-.55-1.65-1.37l-7.53-20.41c-.31-.79-.38-1.55-1.65-1.55s-1.65.59-2 1.62c-2.3 6.7-4.67 13.36-7 20.06-.34 1-.65 1.79-1.92 1.69-1-.07-1 .75-1 1.44s.28 1.17 1.1 1.17h4.81c.86 0 .93-.51.83-1.13s.38-1.55-.62-1.44c-2.1.17-1.17-1-.93-1.83.14-.44.35-.85.48-1.27 1-3 1-3 4.26-3 1.65 0 3.71-.69 4.85.21s1.24 3 1.82 4.5a1.22 1.22 0 0 0 .07.17c.34.75.2 1.2-.72 1.17s-1.17.65-1.17 1.47c0 1.1.65 1.17 1.44 1.14h3.09 3.27c.89 0 1.2-.31 1.2-1.17s0-1.54-1.03-1.47zm-9.84-8.45h-.86c-4.32 0-4.32 0-2.88-4.12.48-1.34 1-2.65 1.72-4.47 1.06 2.82 1.92 5.22 2.85 7.59.35.9-.03 1.08-.83 1z"/><path d="m266 159.61c-5.47.17-9.49 4-9.52 9.34a9.29 9.29 0 0 0 9.79 9.32c5.4-.11 9.35-3.27 9.73-9.45a9.39 9.39 0 0 0 -10-9.21zm4.84 12.95a4.45 4.45 0 0 1 -4.57 3.61 4.87 4.87 0 0 1 -4.64-3.64 10.66 10.66 0 0 1 -.34-3.71 8.42 8.42 0 0 1 .65-4.37 4.69 4.69 0 0 1 8.73.21 12.43 12.43 0 0 1 .17 7.9z"/><path d="m359.3 159.64a9.32 9.32 0 1 0 .41 18.63c5.94-.18 9.65-4.2 9.55-9.93-.14-5.05-4.4-8.77-9.96-8.7zm5.39 9.25a10.57 10.57 0 0 1 -.69 4 4.27 4.27 0 0 1 -4.26 3.3 4.45 4.45 0 0 1 -4.64-3.06 11.81 11.81 0 0 1 .21-8.86 4.16 4.16 0 0 1 4.19-2.72 4.44 4.44 0 0 1 4.4 3 10.23 10.23 0 0 1 .79 4.34z"/><path d="m367.85 229.77c-6.08-.2-10.24 3.3-10.48 8.83-.27 5.74 3.71 9.32 8.9 9.76 5.4.45 10.52-3.5 10.27-9a9.24 9.24 0 0 0 -8.69-9.59zm3.09 14.43c-.89 1.79-2.61 2.31-4.5 2.13a4.19 4.19 0 0 1 -3.81-3 15.52 15.52 0 0 1 -.83-4.3 11.7 11.7 0 0 1 1.28-5.15 4.49 4.49 0 0 1 7.8 0 10.65 10.65 0 0 1 .06 10.3z"/><path d="m332.56 245.89c-.13-.65-.62-.17-1-.17a2.14 2.14 0 0 1 -2.51-2.2c-.1-1.55 0-3.1 0-4.64h-.14c0-1.44.07-2.89 0-4.3a5.16 5.16 0 0 0 -4.47-4.88 10.18 10.18 0 0 0 -7.28 2.41c-.69.51-.41.93-.14 1.44s.76.28 1.1 0a9.89 9.89 0 0 1 3.47-1.41 2.57 2.57 0 0 1 3.3 2.37c.1.69.07 1.37.14 2.06s-.28 1.17-1.14 1.38a19.45 19.45 0 0 0 -5.39 1.64 4.94 4.94 0 0 0 -1.72 6.46 4.23 4.23 0 0 0 5.91 1.69 16 16 0 0 0 2-1.31c.58-.44.86-.38 1.3.24a4.18 4.18 0 0 0 6.19.55 1.29 1.29 0 0 0 .38-1.33zm-7.56-2.61c0 1.44-1.2 1.61-2.2 2s-1.72-.18-2.3-1a2 2 0 0 1 .31-2.65c1.06-1.17 2.54-1.44 4-1.78a12.08 12.08 0 0 1 .19 3.43z"/><path d="m323.7 175.72c-.17-.65-.76-.34-1.17-.31-1.75.11-2.41-.44-2.44-2.16 0-1.37 0-2.75 0-4.12v-3.44c0-3-1.24-5.08-3.58-5.81-2.61-.82-7.14.35-8.42 2.17a1.23 1.23 0 0 0 -.06 1.44c.44.69.89.07 1.27-.17a7.71 7.71 0 0 1 3.5-1.31c2-.13 3 .76 3.13 2.75 0 .52-.07 1 0 1.55.1 1-.35 1.41-1.31 1.58a27.35 27.35 0 0 0 -3.81 1 4.47 4.47 0 0 0 -3.37 3.71 4.72 4.72 0 0 0 2 5c1.72 1.1 3.37.72 5-.34a4.83 4.83 0 0 0 .86-.55c.76-.83 1.31-.69 2.06.13a4.27 4.27 0 0 0 6 .28 1.44 1.44 0 0 0 .34-1.4zm-9.83-.61a2 2 0 0 1 -2.47-1.11 2.28 2.28 0 0 1 .82-3 14.49 14.49 0 0 1 3.61-1.48v3.48a2 2 0 0 1 -2 2.13z"/><path d="m198 175.86c-.14-.89-.82-.45-1.2-.38-1.51.24-2.13-.58-2.27-1.89-.14-1.54-.17-3.09-.27-4.6h.07v-3.26c-.07-3.23-1.21-5.09-3.54-5.81-2.65-.83-6.91.34-8.39 2.3a1.09 1.09 0 0 0 0 1.41c.41.62.79 0 1.1-.17a7.88 7.88 0 0 1 4.15-1.38 2.19 2.19 0 0 1 2.2 1.34 6.46 6.46 0 0 1 .07 3.89c-.24.92-1.54.72-2.4.92-1.89.48-3.78.86-5.12 2.51s-1 4.5.37 6.19a4 4 0 0 0 5.3.65c.68-.41 1.37-.83 2-1.27.45-.28.72-.28 1.14.17 2.09 2.16 3.47 2.3 5.94.79.75-.41.99-.79.85-1.41zm-9.86-.72a2 2 0 0 1 -2.4-1.41 2.05 2.05 0 0 1 1-2.75 8.72 8.72 0 0 1 3.4-1.27v3.13c.14 1.44-.69 2.02-1.96 2.3z"/><path d="m182.48 209a12.26 12.26 0 0 1 -3.44 1.65c-3.61 1.07-6.18-.17-7.46-3.71a28.48 28.48 0 0 1 -.65-2.81c-.17-.93.14-1.34 1.17-1.31 2.4.07 4.81.1 7.22 0 3.71-.1 3.5.52 2.16-3.36a6.85 6.85 0 0 0 -6.36-4.74 7.63 7.63 0 0 0 -7.07 3.09c-2.41 3.3-2.14 8.9.54 12.4 2.2 2.89 6.95 4.06 10.83 2.65 2.58-.99 3.13-1.64 3.06-3.86zm-9.35-12.12a3.64 3.64 0 0 1 4.5 2.47 4.61 4.61 0 0 1 .14.62c.1.65 0 1-.76.93-.92 0-1.82 0-2.75 0a5.9 5.9 0 0 1 -1 0c-.75-.18-1.82.51-2.23-.45s1.07-3.27 2.13-3.57z"/></g></svg>