<svg viewBox="0 0 400 400" xmlns="http://www.w3.org/2000/svg"><g fill="#2d2f2e"><path d="m398.27 183c-.4 0-.8-.06-1.19-.06h-32.43c.77-.54 1.39-.94 2-1.39a5.27 5.27 0 0 0 2.07-6.38 20.76 20.76 0 0 0 -.68-2q-4.38-10.63-8.74-21.26a1 1 0 0 0 -1.09-.72q-19.89 0-39.74 0c-.52 0-.84.08-1.06.62-3 6.91-6 13.79-8.6 20.88-.38 1-.68 2.07-1 3.12-.73 2.71 0 4.51 2.35 6 .5.32 1 .6 1.71 1h-22.7c.12-.36.48-.5.76-.68a20.74 20.74 0 0 0 7.63-9.16c7.65-17.31 15.12-34.69 22.61-52.08q11.83-27.52 23.67-55.05l.48-1c1.15 2.64 2.22 5.15 3.32 7.65 14.14 32.51 28.19 65.08 42.48 97.51q1.26 2.81 2.54 5.6a12.83 12.83 0 0 0 5.63 6zm-60.37-81.73c-.2.43-.32.67-.42.91-5.3 13.17-10.57 26.35-16.11 39.42-.38.9 0 .86.67.86q16 0 32.07 0a1.27 1.27 0 0 0 .88-.14z"/><path d="m187.79 68.3h1 45.31c10.77.06 21.3 1.65 31.26 6 17.64 7.7 28.64 21.1 32.48 39.94 3.6 17.71-1.31 33.45-13 47.06-8.38 9.79-19.27 15.62-31.63 18.88a85.53 85.53 0 0 1 -21.7 2.72c-14.35 0-28.68 0-43 0h-.51c0-.4.26-.42.42-.54a8.21 8.21 0 0 0 3.59-6.95c0-3.68 0-7.36 0-11v-87.94c0-2.65-.55-5.07-2.6-6.92-.47-.38-.94-.73-1.62-1.25zm25.56 57.27q0 23.73 0 47.47c0 .94.25 1.15 1.15 1.13h11.82a68.28 68.28 0 0 0 16.91-1.9c13.71-3.54 23.29-11.77 28.42-25a61.38 61.38 0 0 0 3.69-17.29 56.09 56.09 0 0 0 -3.43-25.53c-4.22-10.64-11.21-18.7-21.74-23.49a48 48 0 0 0 -17.27-4.08c-6-.35-12-.1-18 .06-1.59 0-1.57.08-1.57 1.67z"/><path d="m76.47 68.34h19c0 .1 0 .18-.06.2-2.88 1.79-4 4.47-4 7.73q0 10.73-.11 21.46-.15 23.58-.34 47.19a50.16 50.16 0 0 1 -3.18 18.56c-4 9.92-11.29 16.1-21.4 19.08a56.6 56.6 0 0 1 -20.15 1.85 54.37 54.37 0 0 1 -19.44-4.79c-11.79-5.62-18.66-14.92-20.21-28.04a52 52 0 0 1 -.33-6.24c0-22.61-.06-45.23.06-67.86 0-4.15-1.45-7.09-5.31-9.1h31.89c-.55.38-1.11.71-1.61 1.09a7.68 7.68 0 0 0 -3.28 6.36q0 36.3 0 72.63a32.59 32.59 0 0 0 2.67 12.94 20.89 20.89 0 0 0 14.66 12.54 35 35 0 0 0 18.24-.24c8.25-2.33 13.34-7.85 15.88-15.9 1.59-5 1.79-10.19 1.75-15.42q-.15-21.76-.22-43.52c0-7.39-.14-14.76-.1-22.16.12-3.51-.99-6.37-4.41-8.36z"/><path d="m167.34 97a2 2 0 0 1 -.47-1c-3.1-8.31-8.39-14.68-16.52-18.4a24.26 24.26 0 0 0 -18.74-1.09 15.68 15.68 0 0 0 -10.23 15.85 14.84 14.84 0 0 0 6.44 11.53 70.38 70.38 0 0 0 12 6.74c6.24 3 12.62 5.64 18.68 9a37.89 37.89 0 0 1 11.65 9.28 29 29 0 0 1 6 14.88 35.82 35.82 0 0 1 -1.3 15.8 33.94 33.94 0 0 1 -15 18.64c-8.19 5.09-17.15 6.83-26.69 6.24a72.56 72.56 0 0 1 -27.54-7.57c-.45-.22-.85-.36-.87-1-.24-9.06-.52-18.14-.68-27.24.16.48.3.95.46 1.41 2.62 7.81 6.66 14.75 13.27 19.83 8.53 6.52 18 8 27.84 3.7 6.66-2.86 9.88-8.57 10.73-15.6a18 18 0 0 0 -3-13c-2.24-3.2-5.4-5.32-8.76-7.15-4.77-2.6-9.8-4.61-14.67-7-6.57-3.28-12.79-7.08-17.9-12.46-6.16-6.5-8.52-14.29-7.61-23.07 1.31-12.7 8.7-20.71 20.07-25.48 7.91-3.3 16.16-3.89 24.62-2.64a49.12 49.12 0 0 1 16.65 5.24 1.12 1.12 0 0 1 .72 1.06q.36 11.63.77 23.23a2.43 2.43 0 0 0 .08.27z"/><path d="m5 337c0-6.1 0-12.18 0-18.28q0-16.94 0-33.88a1.14 1.14 0 0 1 1-1.31 795.38 795.38 0 0 1 82.9-23.85q25.79-6 51.87-10.65 20.06-3.61 40.26-6.46 15.47-2.2 31-4.07 14.25-1.71 28.54-3.08 18-1.75 36-3.08c8.88-.66 17.76-1.19 26.66-1.69q25.49-1.44 51-1.91c13.52-.28 27-.34 40.54-.06 1 0 .86.52.86 1.13v106.12c0 .35-.06.71-.08 1.07z"/><path d="m7 269.36c24.46-12.76 50-22.6 76.23-30.72 22.09-6.86 44.53-12.44 67.18-17.13q23.13-4.77 46.46-8.37 18.78-2.92 37.66-5.16 15.31-1.86 30.7-3.28 13.74-1.29 27.5-2.29 27.63-2 55.34-2.86 23.28-.75 46.58-.48c.74 0 .84.26.84.92v14.7c0 .84-.26 1-1 .94-14.13-.32-28.27-.54-42.4-.38-15.76.16-31.52.53-47.26 1.27-9 .42-18 .89-27 1.49-9.72.66-19.42 1.37-29.11 2.31-7.67.73-15.36 1.43-23 2.26-9.58 1-19.14 2.21-28.68 3.48q-18.36 2.44-36.6 5.46-26.92 4.47-53.58 10.26c-20.09 4.37-40 9.3-59.79 15-13.13 3.77-26.19 7.85-39 12.54a1.46 1.46 0 0 1 -1.07.04z"/><path d="m138.05 219c-3.34-.23-6.65-.49-10-.73-6-.44-12.08-.9-18.13-1.31-8.18-.54-16.39-1.06-24.58-1.53-6.83-.4-13.69-.74-20.52-1-13.6-.59-27.21-1-40.82-.83a163.93 163.93 0 0 0 -18.92 1.13c-.18-.24-.1-.52-.1-.77 0-4.67 0-9.34 0-14 0-.7.18-.88.88-.86q12.51.36 25 1.12c7.19.43 14.38 1 21.58 1.68q12.3 1.2 24.54 2.89c10.31 1.45 20.59 3.2 30.76 5.42a230.18 230.18 0 0 1 29.65 8.33l.71.26z"/><path d="m99.14 227c-12.81 1.67-25.65 3.3-38.45 5.05-12.18 1.67-24.36 3.4-36.5 5.44a143.49 143.49 0 0 0 -17.75 3.72l-1.29.42c-.24-.2-.14-.44-.14-.66q0-7 0-14c0-.69.18-.87.88-.89 18.16-.7 36.34-1 54.51-.88 8.54.1 17.07.3 25.61.76 4.35.22 8.74.48 13.13 1.04z"/></g></svg>