<svg enable-background="new 0 0 400 400" viewBox="0 0 400 400" xmlns="http://www.w3.org/2000/svg"><g fill="#2d2f2e"><path d="m350.7 1.54c0-.56.48-.4.81-.4h23.43v162.77l-.24-.08c-.236-.276-.325-.647-.24-1v-158.94c0-2.43.16-2.27-2.18-2.27h-20.53c-.352.016-.705-.011-1.05-.08z"/><path d="m257.92 163.83h-25c.33-1.21.65-2.35 1-3.56s.65-2.26.89-3.39c.16-.89.41-1 1.3-.73 7.122 2.66 14.411 4.848 21.82 6.55.47.3.55.72-.01 1.13z"/><path d="m311.1 1.14h31.68c1.05 0 1.05 0 .73 1-.73 1.94-1.46 3.8-2.11 5.74-.24.72-.48.72-1.13.56-7.27-2.26-14.54-4.28-21.9-5.82-2.42-.48-4.77-.89-7.19-1.37z"/><path d="m25.16 1.06h12.2c.73 0 1.13.16 1 1v.4c0 31.76.027 63.523.08 95.29-.139 8.623.948 17.223 3.23 25.54 2.116 7.392 5.927 14.189 11.13 19.85 5.33 5.74 11.8 9.78 18.75 13.17 7.155 3.554 14.815 5.983 22.71 7.2.346.064.682.172 1 .32h-70.1z"/><path d="m355.09 247.23c-.32-4.6-.16-9.21-.32-13.82-.27-6.54-.68-13.17-1-19.8-.16-2.83-.32-5.57-.57-8.4-.4-5.34-.97-10.75-1.45-16.08-.4-4.58-.97-9.06-1.46-13.58-.08-.97-.4-1.13-1.29-1.13h-89.87c-.32 0-.73.08-1.05.08-4.28 0-8.57 0-12.93.08-.65-.08-.65.4-.65.81-.78 8.72-1.37 17.37-1.78 26.1-.4 9.78-.72 19.64-.89 29.5-.16 6.547-.24 13.093-.24 19.64-.08 9.21-.32 18.51.08 27.8.213 7.59 1.16 15.142 2.83 22.55 1.54 6.55 4.04 12.62 8.65 17.62 1.408 1.596 3.021 2.998 4.79 4.181.005.006.006.013.01.019.08.32.4.41.56.57 2.345 1.605 4.836 2.984 7.44 4.12 5.715 2.254 11.735 3.643 17.86 4.12 5.94.57 11.92.57 17.86 0 .435-.033.84-.234 1.13-.56l4.12-4.61c5.82-6.55 11.32-13.45 16.49-20.45 11.801-15.999 21.826-33.233 29.9-51.4 1.06-2.36 2.03-4.61 1.78-7.36z"/><path d="m171.76 51.33c-.4-7.68-.81-15.44-1.29-23.12-.57-8.73-1.29-17.37-1.94-26.1-.011-.096-.029-.18-.053-.255.232-.824-.362-.835-1.047-.835-15.03.08-30.1.08-45.1.08-20.073.027-40.09 0-60.05-.08-.97 0-1.37.32-1.45 1.21-.36 5.74-.76 11.48-1 17.21-.25 5.1-.41 10.27-.57 15.28s-.24 10.11-.4 15.11c-.08 3.72-.08 7.36-.16 11.07-.17 7.93 0 15.93-.17 23.93-.08 2.89 0 5.89.08 8.89.09 5.57.25 11.07.81 16.65.506 5.223 1.371 10.406 2.59 15.51 1.62 6.76 4.36 12.9 9.13 18 5.34 5.66 11.96 9.06 19.4 11 7.922 1.953 16.105 2.629 24.24 2 5.797-.321 11.53-1.379 17.06-3.15 4.731-1.461 9.242-3.556 13.41-6.23 4.36-2.674 8.285-5.999 11.64-9.86 7.44-9.05 11.56-19.47 13.26-30.95 1.304-9.184 2.005-18.444 2.1-27.72.167-9.22.003-18.433-.49-27.64z"/><path d="m373.65 1.3h-21.82c-.4 0-.81-.08-1.13.24-.139.368-.121.776.05 1.13-.71 4.04-1.6 8.09-2 12.21-.73 7.47-1.05 14.95-1.21 22.47-.08 4.28-.08 8.56-.17 12.85-.064 1.225-.913 2.268-2.1 2.58-1.21.16-2.91-.73-3.15-1.61-2.096-7.224-3.157-14.708-3.15-22.23.074-.588-.259-1.151-.81-1.37-3.64-2.02-7.27-4.13-10.91-6.23-4.205-2.525-8.545-4.819-13-6.87-8.57-3.71-17.78-5.01-27.08-5.25-3.237-.08-6.476.081-9.69.48-6.799.798-13.41 2.764-19.54 5.811-.05-.028-.107-.053-.18-.071-2.157 1.017-4.239 2.186-6.23 3.5-5.57 3.63-10.34 8-13.25 14.06-2.245 4.591-3.083 9.744-2.41 14.81.443 3.362 1.913 6.505 4.21 9 4.83 5.42 11.21 8.25 18 10.19v-.509c.059.207.133.41.24.599 1.607.578 3.255 1.036 4.93 1.37 7.36 1.62 14.87 2.34 22.31 3.48 5.57.89 11.23 1.53 16.81 2.42 6.56 1.05 13.01 2.1 19.56 3.23 7.636 1.283 14.878 4.296 21.17 8.81 5.52 3.792 9.528 9.407 11.32 15.86 1.789 7.14 1.761 14.614-.08 21.74-2.19 9.18-7.07 16.69-14.07 23-7.9 6.962-17.218 12.125-27.31 15.13-1.94.57-3.88 1.05-5.82 1.62v.08h67.64v-161.4c0-.81-.13-1.13-1.13-1.13z"/><path d="m295.87 338.32c-.32 0-.73.08-1.13.08-4.585.083-9.172-.081-13.74-.49-5.934-.552-11.799-1.688-17.51-3.39-1.77-.48-3.55-1.13-5.33-1.7-.004.094-.004.192-.007.286-.038-.074-.075-.148-.123-.216-.244-.18-.518-.316-.81-.4-3.564-1.419-7.023-3.09-10.35-5-11.309-6.171-19.58-16.724-22.87-29.18-2.18-7.92-2.75-16-2.75-24.16v-98.44c0-.89-.24-1.13-1.13-1.13h-13.25c-1.29 0-1.29 0-1.29 1.29.053 37.213.08 74.443.08 111.69v111.4h.4c2.31-.72 4.66-1.45 7-2.26 12.973-4.767 25.257-11.233 36.53-19.23 2.963-1.976 5.799-4.137 8.49-6.47.134-.085.292-.124.45-.11 13.175-9.725 25.578-20.454 37.1-32.09.16-.16.4-.24.24-.48z"/><path d="m364 224.69c.25-6.95.41-13.82 1.13-20.77.41-4.37.73-8.73 1.06-13.1.4-5.17.8-10.42.88-15.68 0-.64.25-.72.81-.72h5.82c.65 0 .81.24.81.88-.32 3.72-.65 7.44-1.21 11.16-1.157 8.048-2.723 16.031-4.69 23.92-1.29 5.33-2.83 10.67-4.45 15.92-.53-.48-.16-1.05-.16-1.61z"/><path d="m193.75 1.07c-3.06.08-6.06.08-9.06 0-.8 0-1.05.19-1.13 1-.16 2.5-.32 5.01-.56 7.59-.81 9.06-1.54 18.24-2.27 27.24-.51 7.76-.92 15.52-1 23.28-.08 6.66 0 13.37-.24 20-.24 7.6-.78 15.19-1.78 22.71-.716 6.184-1.957 12.296-3.71 18.27-2.805 9.202-7.817 17.579-14.6 24.4-4.204 4.035-8.97 7.441-14.15 10.11-7.557 3.948-15.68 6.701-24.08 8.16h72.5c.32 0 .64.24.88-.16h-.302c.142-.017.284-.038.422-.08 0-2.27.08-4.61.08-6.87v-154.65c.05-.76-.2-1-1-1zm-47.77 162.6c-.118 0-.222-.01-.312-.033.201.028.461.033.802.033z"/><path d="m346.08 115.38c-1.53-5.01-4.93-8.41-9.13-11.08-6.46-4.04-13.65-6.14-21-7.51-5.74-1.05-11.56-1.7-17.3-2.59-8.24-1.25-16.49-2.54-24.65-4l-16.08-2.91c.041.106.054.219.082.329-.015-.012-.026-.028-.042-.039-3.899-1.237-7.686-2.803-11.32-4.68-6.6-3.56-12.28-8.25-15.6-15.2-5.01-10.42-4.93-21.17-.8-31.84 3.07-8.08 8.64-14.39 15.27-19.88 3.971-3.27 8.216-6.191 12.69-8.73.075-.104.134-.217.184-.333.063-.032.125-.067.176-.117 4.167-2.316 8.627-4.058 13.26-5.18.781-.101 1.542-.317 2.26-.64h-67.16c-1.37 0-1.37 0-1.37 1.37v160.27c0 .501.088.804.293.984.154.191.424.246.877.246h18c.038.002.076-.003.114-.002.208.023.414.039.585-.047.064-.011.128-.016.191-.031.09-.178.144-.371.16-.57 1.839-9.638 2.511-19.462 2-29.26-.32-6.55-.56-13.09-1.05-19.55-.16-2.27-.32-4.53-.4-6.79-.174-1.093.38-2.174 1.37-2.67 1.122-.561 2.487-.175 3.15.89.479.636.913 1.304 1.3 2 1.282 2.603 2.178 5.379 2.66 8.24 1.05 5.978 1.539 12.041 1.46 18.11-.084.589.162 1.176.64 1.53 4.738 4.113 10.046 7.518 15.76 10.11 1.758.865 3.568 1.62 5.42 2.26.388.279.844.448 1.32.49 2.83 1.14 5.66 2.19 8.57 3.08 10.18 3.3 20.61 5.4 31.36 5 3.356-.139 6.698-.52 10-1.14 9.509-1.84 18.43-5.958 26-12 5.09-4.12 8.89-9.13 10.59-15.6 1.183-4.082 1.238-8.409.16-12.52zm-139.28-114.03c-.401 0-.655.002-.822.047.174-.138.444-.177.862-.177h50.35c.347-.059.571 0 .71.171-.184-.032-.423-.041-.75-.041z"/><path d="m25.32 175.71h-.08l-.08-.08v-1.38h51.15c.33 0 .81-.16 1.06.25-.538.313-1.178.399-1.78.24h-48.17c-.89.08-1.62.08-2.1.97z"/><path d="m123.35 276.73c-1.783 2.57-3.071 5.449-3.8 8.49-1.77 8.32 3.32 15.52 11.72 16.57 3.77.463 7.595.021 11.16-1.29.424-.237.959-.096 1.21.32 0 .08.08.08.08.16 2 3.48 4.12 6.87 6.22 10.26.41.65.24.89-.16 1.38-2.684 2.278-4.604 5.325-5.5 8.73-1.69 6.79 2.35 13.33 9.3 15.19 3.5.893 7.186.726 10.59-.48.385-.228.882-.101 1.11.284.007.012.014.024.02.036 0 .044.036.08.08.08 1.86 3.15 3.8 6.3 5.74 9.46.32.56.16.8-.17 1.21-2.188 2.259-3.699 5.086-4.36 8.16-1 4.53.89 8 5.09 9.94 3.037 1.3 6.317 1.935 9.62 1.86 1.705-.193 3.333.76 4 2.34 1.689 3.166 3.779 6.1 6.22 8.73.707.921 1.704 1.577 2.83 1.86.57.08.33.57.33.81v17.46c0 .72-.25.81-.81.56-7.152-2.064-14.103-4.769-20.77-8.08-10.85-5.194-21.051-11.648-30.39-19.23-7.52-6.23-15.52-11.88-22.87-18.27-11.027-9.54-21.385-19.828-31-30.79-8.39-9.618-16.077-19.828-23-30.55-.89-1.38-.81-1.62.73-2.26 1.426-.653 2.592-1.766 3.31-3.16.73-1.29 1.62-1.37 2.91-1.21 2.272.343 4.579-.338 6.3-1.86.16-.16.33-.48.73-.4 2.1.48 3.8-.49 5.42-1.54.4-.32.64-.4 1.21 0 1.062.671 2.382.794 3.55.33 1.101-.304 2.104-.89 2.91-1.7.25-.24.49-.57.65 0 .57 1.37 1.86 1.45 3.23 1.13.952-.209 1.857-.592 2.67-1.13.4-.24.48-.16.65.32.32 1.54 1 2 2.66 1.78 2.317-.363 4.404-1.61 5.82-3.48.24-.32.41-.56.81-.08.625.592 1.53.781 2.34.49 1.898-.412 3.636-1.367 5-2.75.32-.32.48-.48 1-.08 1.37 1.29 3.07 1.13 4.76.73.04-.06.37-.25.85-.33z"/><path d="m25.32 175.71c-.16-1.05.32-1.21 1.29-1.21h49.46c.41 0 .81.08 1.3.08-.182.901.087 1.834.72 2.5.57.65 1.21 1.3 1.78 1.94.81.89.73 1.54-.24 2.27-.459.314-.948.582-1.46.8-.72.41-1.45.73-2.18 1.14-2.1 1.21-2.42 1.93-2.1 4.28.148.771.175 1.561.08 2.34-.016.94-.584 1.783-1.45 2.15-.653.25-1.029.935-.89 1.62.4 1.971.043 4.02-1 5.74-.319.699-.563 1.43-.73 2.18-.231.803-.084 1.668.4 2.35.575.731.73 1.707.41 2.58-.08.32-.16.73-.24 1.13-.325 1.321.147 2.711 1.21 3.56 2.074 2.035 5.109 2.744 7.87 1.84.781-.186 1.539-.457 2.26-.81 1.28-.821 2.944-.724 4.12.24-2.5 1.38-5 2.75-7.6 4.12-.675.314-1.135.96-1.21 1.7-.24 1.78-.56 3.64-.89 5.66 1.86-1 3.72-1.94 5.42-3 1.692-1.042 3.802-1.136 5.58-.25 2.581 1.155 4.911 2.802 6.86 4.85 5.586 5.663 10.495 11.955 14.63 18.75l1.7 2.67c.32.49.24.73-.24 1-1.86 1.05-3.72 2-5.5 3.23-.773.505-1.502 1.074-2.18 1.7-.501.561-1.265.809-2 .65-1.202-.159-2.392-.403-3.56-.73-.864-.247-1.458-1.041-1.45-1.94-.16-1.45.08-2.83-.08-4.28-.169-1.708-.868-3.32-2-4.61-3.88-4.12-7-4.85-12.29-3.23-4.307 1.472-8.208 3.935-11.39 7.19-4.457 4.237-8.223 9.147-11.16 14.55-.64 1.13-1.29 2.26-1 3.64.09.16-.16.48-.24.72-.789 1.778-1.823 3.437-3.07 4.93-.565.498-.922 1.191-1 1.94-1.29-2.5-2.42-4.77-3.56-7-6.677-13.578-12.132-27.724-16.3-42.27-3.414-11.783-5.875-23.822-7.36-36-.16-3.68-.48-7.24-.72-10.71z"/><path d="m186.47 222.34c2.673.395 5.402.088 7.92-.89.148.358.176.755.08 1.13v136.42c0 .89-.16 1.21-1.13 1.13-1.506-.08-3.014-.08-4.52 0-.391.033-.756-.201-.89-.57-2.1-4.28-4.12-8.56-6.31-12.85-.206-.36-.081-.818.279-1.023.017-.01.034-.018.051-.027 2.26-2.642 3.888-5.764 4.76-9.13 1.7-7.19-1.85-12.77-9.05-14.14-2.292-.579-4.684-.634-7-.16-.65.16-.89-.09-1.21-.65-1.37-2.83-2.75-5.74-4.12-8.57-.25-.56-.08-.73.32-1.13 3.56-2.817 6.242-6.591 7.73-10.88 2.59-7.84-1.29-14.39-7.27-17.13-2.83-1.3-5.74-1.05-8.65-.41-1.709.327-3.384.815-5 1.46-.57.16-.81.08-1-.41-1.86-4-3.8-7.92-5.74-11.88-.33-.56-.08-.81.32-1.13 4.503-2.748 8.457-6.309 11.66-10.5 3.443-4.267 4.667-9.91 3.3-15.22-.08-.4-.08-.57.41-.73 2.83-.89 4.6-2.66 4.6-5.82 0-.64.41-.32.65-.32 2.344-.054 4.598-.908 6.39-2.42.912-.65 1.522-1.642 1.69-2.75.08-.49.33-.41.65-.49 1.525-.175 2.99-.698 4.28-1.53 1.13-.81 2.1-1.78 1.7-3.4-.16-.56.32-.4.57-.48 1.31-.186 2.571-.628 3.71-1.3.671-.396 1.208-.985 1.54-1.69.49-.85.09-1.7-.72-2.51z"/><path d="m127.88 195.67-5.5-2.91c-.4-.16-.64.08-.89.24-3 1.62-5.9 3.24-8.81 4.77l-1.05.57c-.24-.32-.08-.57 0-.81.356-1.016.384-2.118.08-3.15-.316-1.349-.142-2.767.49-4 1.13-3.4.89-4-2.26-5.5-.33-.16-.65-.32-1.06-.48-1.608-.519-2.793-1.893-3.07-3.56-.48-2.18-1.86-3.88-3.23-5.58l-.73-.88c.49 0 .81-.09 1.14-.09h68.13c7.51 0 15 .09 22.46 0 .81 0 1 .17 1 1v25.06c0 .89-.24.89-1 .73-3.07-.73-6.22-.57-9.37-.57-3.64 0-7.19.16-10.83.24-.16 0-.49.08-.57 0-1.29-1.13-2.83-.81-4.36-.81-3.56 0-7.19-.08-10.75.08-6.47.25-12.69 1.62-18.18 5.26-2.685 1.759-4.883 4.166-6.39 7-2 4-1.37 7.76 2 10.75 1 .89 2.1 1.62 3 2.58.885.824 1.551 1.855 1.94 3 .374 1.307.103 2.715-.73 3.79-.156.21-.384.356-.64.41-3.442.414-6.796 1.369-9.94 2.83-.49.16-.73.16-1-.33-3.48-7.67-6.71-15.51-8.33-23.84-.631-2.755-.74-5.605-.32-8.4.23-1.921 1.415-3.595 3.15-4.45 1.931-.87 3.807-1.855 5.62-2.95z"/><path d="m130.87 285.71c-.073-1.149.24-2.29.89-3.24.32-.4.48-.48.81 0 1.37 2.35 2.74 4.61 4.2 6.95.4.65.08.73-.49.81-2.443.487-4.834-1.046-5.41-3.47z"/><path d="m158.91 295.08c1.21.08 2.59-.08 3.24 1.29s0 2.51-.65 3.64c-.41.65-.89 1.54-1.54 1.54s-.72-1.05-1-1.62c-.64-1.21-1.21-2.43-1.77-3.64-.49-1-.49-1 .64-1.05z"/><path d="m194.55 373.31c-1-2.26-1.94-4.44-3-6.7.89-.17 1.78-.25 2.59-.41.49-.08.4.24.4.57z"/><path d="m178.47 358.28c-2.26-.56-4.2-2.83-3-4.93z"/><path d="m175.08 333c2.1.57 2.66 1.62 2 4.21z"/><path d="m158.43 325.15c-.89.08-1.7.16-2.1-.49s-.08-1.62.32-2.51z"/><path d="m257.92 163.83c.233-.341.233-.789 0-1.13l4.68 1v.08h-4.68z"/></g><path d="m364 224.69c.16.48-.16 1.05.16 1.53l-.24.81c-.092-.78-.065-1.569.08-2.34z" fill="#9eb1d9"/></svg>