<svg viewBox="0 0 400 400" xmlns="http://www.w3.org/2000/svg"><g fill="#2d2f2e" stroke="#2d2f2e" stroke-miterlimit="10"><path d="m194.1 218.45c-2.42 3.43-4.62 7-7.3 10.24a56.18 56.18 0 0 1 -16.14 13.22 56.79 56.79 0 0 1 -39.14 6.1 44 44 0 0 1 -19.85-8.76 37.08 37.08 0 0 1 -12.89-20.8 45.22 45.22 0 0 1 -.73-18 58.74 58.74 0 0 1 26.42-39.91 61 61 0 0 1 10.51-5.1 58.58 58.58 0 0 1 34.79-1.93 38.21 38.21 0 0 1 29.66 30.61 43.05 43.05 0 0 1 .77 13.9 35.27 35.27 0 0 1 -1.5 6.6c-.86 2.5-2.94 3.68-5.51 4a26.94 26.94 0 0 1 -2.84.09h-59.29c-2.65 0-2.68.05-2.17 2.68 1.11 5.7 7.21 10.83 13.55 11.48a21.29 21.29 0 0 0 15.36-4 5 5 0 0 1 2.75-.9c10.61-.06 21.22 0 31.82 0h1.3zm-61.1-29.18.36.5c.59 0 1.19.09 1.79.09h30.45c2.8 0 3.51-1.13 2.18-3.64a14.79 14.79 0 0 0 -9.48-7.52c-7.44-2-14.1-.17-19.89 4.7a61.36 61.36 0 0 0 -5.41 5.87z"/><path d="m354.33 151.64a52 52 0 0 1 21.37 4.36c9.74 4.37 16.89 11.32 20.56 21.49 5.07 14 3 27.52-3.52 40.55a54.46 54.46 0 0 1 -18.9 21.19c-13.46 8.95-28.25 11.74-44 8.7-10.27-2-19.15-6.65-25.45-15.32s-8.4-18.55-7.57-29.15a54.24 54.24 0 0 1 7.37-23 57.21 57.21 0 0 1 12.78-15.26 54.94 54.94 0 0 1 25.55-12.2c3.88-.76 7.87-.93 11.81-1.36zm-25.72 54.36a14.68 14.68 0 0 0 4.71 10.67c5.65 5.33 14.69 4.75 20.13 1.5 8.1-4.83 12.83-12.06 13.33-21.55.55-10.38-7.17-17.6-17.57-16.11-12.27 1.71-20.38 13.57-20.6 25.49z"/><path d="m45 202.15a13.36 13.36 0 0 0 1.13-1.3c5.36-8.08 10.68-16.19 16-24.27 2.68-4 5.51-8 8.13-12 4.21-6.51 10.3-9.78 17.84-10.2 8-.44 16-.46 24.37-.68-2.58 3.89-4.88 7.4-7.21 10.87q-6.5 9.65-13 19.26-6 8.85-11.92 17.71c-4.32 6.43-8.56 12.92-13 19.29-4.62 6.68-9.16 13.44-14.19 19.8a19.23 19.23 0 0 1 -17.77 7.34c-6.37-.64-10.66-4.49-12.79-10.36-1.81-4.95-3.13-10.09-4.44-15.19-3.34-13.42-6.67-26.88-10.06-40.31q-3.39-13.46-6.79-26.9c-.09-.35-.12-.72-.2-1.22h31.9z"/><path d="m201.32 153.87h16.93c4.35 0 8.71.07 13.07 0 1.5 0 2 .48 2.38 1.91 2.66 10.95 5.4 21.87 8.12 32.81q1.56 6.22 3.13 12.45a6.32 6.32 0 0 0 .53 1.05c.49-.65.88-1.11 1.21-1.61q8-12.06 16-24.11 4.19-6.3 8.47-12.52c3.51-5.09 8.31-8.5 14.45-9 8.89-.76 17.83-.89 26.75-1.29l.16.64c-2.34 3.55-4.65 7.13-7 10.66-2.74 4.07-5.56 8.1-8.31 12.16q-6.57 9.7-13.11 19.42c-3.12 4.66-6.19 9.36-9.32 14-5.14 7.63-10.35 15.2-15.44 22.85-2.7 4.07-5.6 8-9.54 10.9-5.73 4.3-14.78 5.64-21.06 1.12a15.51 15.51 0 0 1 -5.79-7.77c-1.56-4.78-2.94-9.63-4.2-14.5-2.54-9.81-4.93-19.66-7.41-29.49q-4.77-18.86-9.57-37.7c-.21-.6-.29-1.16-.45-1.98z"/></g></svg>