<svg viewBox="0 0 400 400" xmlns="http://www.w3.org/2000/svg"><g fill="#2d2f2e"><path d="m5.42 289.19c0-10.43 0-20.86 0-31.28 0-1.89.41-2.71 2.47-2.59a69.59 69.59 0 0 0 8.17 0c1.9-.1 2.39.59 2.36 2.41-.09 7.33 0 14.66-.08 22 0 2.07.5 2.76 2.66 2.72q10.42-.21 20.86 0c2.17 0 2.67-.65 2.63-2.71-.12-7.33 0-14.66-.08-22 0-1.8.42-2.52 2.33-2.42 2.82.15 5.64.1 8.45 0 1.53 0 2.17.37 2.17 2q-.07 31.84 0 63.71c0 1.49-.51 2-2 1.92-2.82-.08-5.64-.14-8.46 0-1.94.11-2.57-.44-2.54-2.47.12-8 0-16 .1-23.95 0-2.18-.51-2.89-2.79-2.82q-10.26.22-20.56 0c-2.3-.05-2.82.73-2.79 2.88.11 8 0 16 .08 23.95 0 1.77-.38 2.55-2.33 2.43a74 74 0 0 0 -8.16 0c-2 .12-2.53-.56-2.52-2.52.08-10.45.03-20.83.03-31.26z"/><path d="m226.85 279c2.26-1.41 4.22-2.72 6.27-3.84a16.76 16.76 0 0 1 11.48-1.6c6.28 1.21 10.35 6.15 10.54 13.53.29 11.36.08 22.73.13 34.1 0 1.31-.4 1.89-1.77 1.81-3.08-.17-6.91 1.18-9-.51-1.91-1.53-.52-5.45-.6-8.32-.23-8.26.38-16.53-.32-24.78-.48-5.8-3.34-7.75-9-6.26a19.42 19.42 0 0 0 -3.89 1.6 6.78 6.78 0 0 0 -4.09 6.93c.27 9.58 0 19.16.15 28.75 0 2.14-.6 2.82-2.69 2.61-2.86-.3-6.7 1.22-8.34-.63-1.42-1.61-.48-5.36-.48-8.16 0-18.69 0-37.39-.06-56.08 0-2.25.61-3 2.82-2.78a46.57 46.57 0 0 0 6.47 0c1.74-.1 2.26.53 2.26 2.25-.08 6.67 0 13.34 0 20a5.5 5.5 0 0 0 .12 1.38z"/><path d="m13 171.29v2.71c0 18.78-.08 37.57.08 56.37 0 2.82-1.08 2.9-3.25 2.94s-3.06-.38-3-2.86q.15-31.14 0-62.28c0-2.26.69-2.55 2.82-2.85 5.83-.85 8.9 1.51 11.67 6.68 8.46 15.79 17.59 31.23 26.5 46.79a5.1 5.1 0 0 0 1.92 2.48v-3.16q0-24.66 0-49.32c0-2.25.07-3.51 3-3.49s3.16 1.2 3.15 3.62c-.09 20.29 0 40.59-.1 60.89 0 1.12.92 2.74-.88 3.38-2.25.82-5.51-.11-6.44-1.72q-7.79-13.26-15.47-26.57-9.29-16.1-18.6-32.14c-.27-.54-.4-1.34-1.4-1.47z"/><path d="m135.42 193.93c-3.49 12.69-6.84 24.61-10 36.58-.57 2-1.32 2.89-3.57 2.82-2.09-.08-3.27-.33-3.92-2.74-3.89-14.48-8-28.88-12-43.33-.22-.82-1.69-2.49.25-2.62 1.69-.11 4.29-1.63 5.17 1.49 1.59 5.68 3.12 11.39 4.68 17.08l5.07 18.71a1 1 0 0 0 .82.9l9.32-32.82a17.53 17.53 0 0 0 .64-2.44c.31-2.55 1.64-3.23 4.17-3.18 2.12 0 2.65.92 3.12 2.63 3.12 11.47 6.32 22.92 9.5 34.39.15.52.16 1.13 1 1.56l7.54-27 2.67-9.46c.46-1.59 4.88-2.95 6-1.84.62.61 0 1.23-.18 1.81-4.33 15-8.74 29.88-13 44.88-.71 2.57-2.38 1.74-3.9 1.94-1.7.22-2.45-.42-2.91-2.11-3.14-11.48-6.4-22.92-9.62-34.39-.17-.79-.4-1.45-.85-2.86z"/><path d="m186.09 299.56c0-4.42-.11-8.83 0-13.24.07-2.19-.57-2.94-2.82-2.85-4 .14-4 0-4-4v-1.13c0-4.82-.3-4.08 4.08-3.95 2.37.08 2.82-.84 2.74-2.93-.13-3.75 0-7.51-.06-11.27 0-1.59.49-2.17 2.09-2.11 2.44.11 4.89.12 7.33 0 1.69-.08 2.33.44 2.26 2.21-.11 3.95 0 7.9-.07 11.84 0 1.75.56 2.43 2.26 2.21a5.89 5.89 0 0 1 .84 0c7.13 0 7.53.56 6.59 7.72-.17 1.33-.83 1.48-1.86 1.47-1.88 0-3.76.09-5.64 0s-2.21.64-2.2 2.29c.07 8 0 16 0 23.93 0 4.11 1.19 5.17 5.29 4.77a16 16 0 0 0 2.48-.48c1.32-.34 2 0 1.86 1.48v.27c-.25 9.66 1.72 7-7.82 8.19a15.61 15.61 0 0 1 -4.47-.26c-5.95-1-8.82-4.25-8.95-10.33-.02-4.64.07-9.24.07-13.83z"/><path d="m176.09 199.21c0-10.33.08-20.67-.07-31 0-2.42.89-2.79 2.92-2.65 1.76.12 3.38-.37 3.29 2.55-.21 8.17 0 16.35-.11 24.52 0 2.06.31 3 2.71 2.93q15.64-.23 31.29 0c2.32 0 2.79-.75 2.76-2.88-.11-8.17.09-16.35-.12-24.52-.07-2.88 1.47-2.51 3.29-2.6 2.06-.11 2.93.28 2.92 2.68q-.15 31.29 0 62.58c0 2.76-1.4 2.43-3.13 2.46s-3.15.15-3.09-2.52c.18-9.21 0-18.42.11-27.63 0-2.06-.46-2.71-2.62-2.68q-15.78.17-31.57 0c-2.26 0-2.59.77-2.57 2.75.09 9.2-.08 18.42.11 27.62.06 2.76-1.38 2.45-3.12 2.46s-3.15.24-3.1-2.48c.2-10.54.09-21.04.1-31.59z"/><path d="m160.16 289.09c0-10.23.08-20.46-.07-30.68 0-2.55.75-3.33 3.19-3.09a37.87 37.87 0 0 0 6.21 0c1.92-.15 2.35.63 2.34 2.41-.08 10.89 0 21.78 0 32.66v29.85c0 1.95-.28 2.94-2.56 2.75-2.88-.25-6.76.94-8.45-.52-2-1.69-.57-5.64-.63-8.61-.11-8.26-.03-16.51-.03-24.77z"/><path d="m23 109c5.24-9.84 10.21-19.2 15.18-28.56 2.82-5.34 2.82-5.34 9.44-4.39-3 5.5-6 10.89-9 16.29-3.8 6.91-7.58 13.82-11.43 20.7a7.83 7.83 0 0 0 -1 4c0 7.79-.14 15.6.11 23.38.08 2.82-1.09 2.92-3.26 2.95s-3.12-.24-3.05-2.82c.2-7.61 0-15.23.11-22.83a11.11 11.11 0 0 0 -1.4-5.59c-6-11.21-12-22.53-18-33.76-1.25-2.33-.78-2.56 1.64-2.73 3.07-.21 4.56.83 5.9 3.67 4.64 9.84 9.65 19.49 14.76 29.69z"/><path d="m368 191.76c1.69-1.51 3-2.67 4.34-3.81 4.76-4.08 10.33-5.18 16.35-4.17a11.31 11.31 0 0 1 9.53 8.49 21.07 21.07 0 0 1 .9 6.11c0 10.8-.07 21.61.07 32.41 0 2.38-1 2.49-2.82 2.5s-2.86-.13-2.82-2.5c.09-10.8.18-21.61-.14-32.4-.28-9.34-7.74-13.28-16-8.75-3.33 1.83-5.93 4.58-8.71 7.09-.92.84-.66 1.9-.66 2.9 0 10.24-.09 20.48 0 30.72 0 2.33-.56 3-2.92 3s-2.78-.61-2.77-2.82q.16-21.69 0-43.41c0-2.41.86-2.67 2.89-2.72 2.21-.05 3.08.57 2.81 2.82a41 41 0 0 0 -.05 4.54z"/><path d="m312.87 184.46c-5.5 16-10.89 31.63-16.16 47.26-.69 2-2.1 1.47-3.39 1.49s-2.65.44-3.32-1.57c-5.08-15.1-10.28-30.16-15.48-45.21-.49-1.41-.38-1.88 1.32-2.05 3-.29 4.43.57 5.38 3.6 3.55 11.36 7.44 22.6 11.2 33.88.24.7.51 1.39 1 2.6l7.72-23.09c1.52-4.51 3.21-9 4.51-13.61.74-2.6 1.94-3.81 4.67-3.32a17.23 17.23 0 0 0 2.55.02z"/><path d="m86.69 109.22c0-10.32.1-20.64-.08-30.95 0-2.62 1.2-2.51 3-2.57s2.75.26 2.74 2.54q-.15 31.37 0 62.74c0 2.51-1.17 2.39-2.85 2.36s-3 .25-2.92-2.33c.21-10.59.11-21.19.11-31.79z"/><path d="m150.49 310.05c0-7.42.1-14.84-.23-22.24-.24-5.17-2.17-9.71-7.11-12.32-7.77-4.11-20.26-2.57-26.74 3.28-3.31 3-3.3 3.18.33 5.89a18.74 18.74 0 0 1 2 1.55c1.5 1.48 2.54 1.64 4.15-.24 3.47-4 8.93-5.15 13-3.12 2.53 1.27 3.58 3.83 3.2 7.48-.28 2.82-2.71 1.13-3.94 2-.43.28-1.1.16-1.65.27-6.29 1.23-12.53 2.6-17.53 7a15 15 0 0 0 -3.69 17.4c2.42 5.21 8.22 7.73 15 6.77a31.25 31.25 0 0 0 11.84-4.64c1.24 1.13-.14 3.68 2.33 3.74 3.26.08 6.53 0 9.89 0a78.93 78.93 0 0 1 -.85-12.82zm-12.74 1c-3.34 2.25-6.68 4.64-11 3.94a4.48 4.48 0 0 1 -3.71-3.44 6.26 6.26 0 0 1 1.43-6.51c2.45-2.56 5.7-3.43 9-4.23 5.64-1.37 5.64-1.38 5.64 4.51-.45 1.76 1 4.15-1.34 5.73z"/><path d="m105 313q-2.59-1.42-5-3.11c-1.36-.94-2.25-1-3.49.4-3.43 3.79-7.78 5.4-12.72 3.57-5.19-1.92-6.09-6.69-6.68-11.47-.17-1.42.32-2 1.85-2 4.23.08 8.46 0 12.69 0s8.45-.05 12.68 0c1.53 0 2.2-.37 2.15-2a50.58 50.58 0 0 0 -.59-8.69c-1.87-9-8.38-15.51-16.4-16.4-10-1.13-18 3.13-21.62 12.07a34.4 34.4 0 0 0 0 26.34c2.89 7.25 8.4 11.56 16.22 12.11 8.29.57 15.89-1.2 21.39-8.23.83-1.07.92-1.81-.48-2.59zm-27.85-22.22c.49-5 4.22-8.76 8.93-8.9s8.87 3.52 9.53 8.6c.2 1.54-.18 2.25-1.89 2.14-2.44-.13-4.88 0-7.33 0s-5.08 0-7.61 0c-1.38 0-1.77-.46-1.63-1.81z"/><path d="m77.84 141.71c-.82-6.16-.6-12.36-.62-18.55 0-5.91.06-11.84-.21-17.74a11.14 11.14 0 0 0 -6.27-10c-9.11-4.63-21.17-1.32-26.61 7.25-.6.94-1.83 2 0 2.93 1.33.68 2.35 2.05 3.79-.21a15.27 15.27 0 0 1 10.42-7.07c9-1.62 13.87 2.45 13.6 11.17 0 1.42-.51 1.94-1.83 2.22-3.58.76-7.15 1.58-10.72 2.51-4.6 1.22-9.22 2.51-13.17 5.42-5.24 3.85-6.27 9.23-5 15.63 1 4.94 5.18 8.29 10.45 8.87a23.27 23.27 0 0 0 15.65-3.39c1.39-.91 2.76-1.85 4.44-3 .88 5.84.88 5.79 4.65 5.56 1.22-.04 1.59-.31 1.43-1.6zm-11.34-5.78a24.51 24.51 0 0 1 -10.5 3.84c-4.1.35-7.4-1.42-8.84-4.64a10 10 0 0 1 2-10.67 20.35 20.35 0 0 1 7-4.15 105.22 105.22 0 0 1 13.47-4c1.82-.46 2.11.16 2 1.73-.08 2 0 3.94 0 5.9a13.47 13.47 0 0 0 0 2.54c.94 4.67-1.6 7.3-5.25 9.46z"/><path d="m134.32 133.42a3.79 3.79 0 0 0 -.34.45c-5.93 9.1-20.75 7.71-25.13-3.18a34.94 34.94 0 0 1 -2-8.74c-.28-2.21.34-2.82 2.61-2.82 9.59.13 19.17 0 28.75.11 2.36 0 2.92-.78 2.65-2.86a53.26 53.26 0 0 0 -1.56-8.85c-2.59-8.45-8.31-13.44-16.11-13.9-9.29-.56-16.19 3.52-19.57 12.05a36.73 36.73 0 0 0 -.21 26.72c2.41 6.77 7.51 10.6 14.59 11.6 10.8 1.58 17.34-1.66 23.21-11.41-3.99-3.03-3.99-3.03-6.89.83zm-27.44-19.86c.57-5.56 2.59-10.41 7.46-13.53a12.11 12.11 0 0 1 13.32-.11c4.3 2.51 5.9 6.86 6.91 11.44.74 3.35.66 3.38-2.67 3.38h-23.06c-.84-.02-2.11.42-1.96-1.18z"/><path d="m101.94 221.38c-2-1.21-3.79-2.12-5 .93a9.45 9.45 0 0 1 -1 1.36c-6.08 9.33-21.27 7.56-25.28-3.67a44.41 44.41 0 0 1 -1.88-8.46c-.27-1.85.16-2.64 2.29-2.57 4.88.18 9.77.06 14.66.06s10-.09 14.93 0c1.84 0 2.31-.62 2.15-2.25a49.46 49.46 0 0 0 -1.53-9.43c-2.44-8.18-8.13-13.23-15.6-13.79-9.39-.71-16.09 3-19.82 11.19-3.21 7-3.39 14.36-2.2 21.79 1.47 9.26 7.2 15.65 15.17 17.19 10.42 2 18.55-1.46 23.64-10 .66-1.1.71-1.62-.53-2.35zm-33.06-18.91c.75-3.95 2.07-7.59 4.89-10.54a12.71 12.71 0 0 1 18-.53 12.55 12.55 0 0 1 2.23 2.85 25.19 25.19 0 0 1 2.81 8.19c.39 1.89-.31 2.18-2 2.13-4-.1-8.06 0-12.09 0s-8.07-.06-12.1 0c-1.62.04-2.05-.45-1.74-2.1z"/><path d="m269.7 231.81c-.9-6.06-.64-12.17-.69-18.27s0-12.4-.26-18.6a10.91 10.91 0 0 0 -6-9.59c-9.2-4.88-21.61-1.47-27.06 7.36-.63 1-1.35 1.95.3 2.66 1.19.53 2.19 2.18 3.61 0 2.18-3.42 5.24-6.09 9.3-6.84 11.1-2 15.22 2.18 14.85 10.64a2.11 2.11 0 0 1 -2 2.39c-3.48.76-6.95 1.53-10.4 2.44-4.63 1.22-9.24 2.55-13.21 5.38-5.27 3.75-6.56 9.2-5.12 15.82 1.19 5.47 5.53 8.46 11.9 8.89a23.16 23.16 0 0 0 15.39-4.29c1-.69 2-1.38 3.17-2.25l.38 2.4c.57 3.38 1.22 3.82 4.74 3.29 1.04-.13 1.25-.45 1.1-1.43zm-12.27-5.56a24.93 24.93 0 0 1 -9.18 3.29c-4.11.49-7.66-1.18-9.23-4.42a9.91 9.91 0 0 1 1.84-10.71c2.26-2.26 5.08-3.49 8-4.61a103.74 103.74 0 0 1 12.89-3.8c1.47-.36 1.82 0 1.78 1.39-.06 2.15 0 4.31 0 6.47a9.54 9.54 0 0 0 0 1.69c1.13 5.39-1.89 8.33-6.1 10.66z"/><path d="m355.11 221.84c-2.09-2.07-4-2-5.7.42-.38.54-.82 1-1.17 1.58-5.92 9-20.9 7.45-25.05-3.5a35 35 0 0 1 -2-9.31c-.15-1.65.39-2.07 2-2 5 .09 9.95 0 14.92 0s10-.09 14.93 0c1.81 0 2.25-.57 2.14-2.26a42.89 42.89 0 0 0 -1.62-9.67c-2.49-8.18-8.17-13.09-15.73-13.58-9.37-.62-16 3.21-19.65 11.45-3.21 7.33-3.38 15-1.81 22.64 1.92 9.26 7.33 14.83 15.15 16.14 10.65 1.78 18.14-1.44 23.3-10.07.31-.49 1.18-.93.29-1.84zm-33.86-19c.7-4.14 2-8 5.07-11a12.73 12.73 0 0 1 18-.23 13.29 13.29 0 0 1 2.2 2.86 27.43 27.43 0 0 1 2.74 8.23c.32 1.57-.13 2-1.63 1.93-4.13-.08-8.25 0-12.38 0s-8.25 0-12.37 0c-1.36-.03-1.88-.43-1.63-1.81z"/></g></svg>