<svg xmlns="http://www.w3.org/2000/svg" xmlns:xlink="http://www.w3.org/1999/xlink" viewBox="0 0 400 400"><defs><style>.cls-1{fill:#696868;}.cls-2{fill:url(#linear-gradient);}.cls-3{fill:url(#linear-gradient-2);}.cls-4{fill:url(#linear-gradient-3);}.cls-5{fill:url(#linear-gradient-4);}</style><linearGradient id="linear-gradient" x1="324.67" y1="810.87" x2="339.4" y2="764.46" gradientTransform="matrix(1, 0, 0, -1, 0, 980)" gradientUnits="userSpaceOnUse"><stop offset="0" stop-color="#bfdd99"/><stop offset="1" stop-color="#4bbd98"/></linearGradient><linearGradient id="linear-gradient-2" x1="305.41" y1="804.76" x2="320.14" y2="758.35" xlink:href="#linear-gradient"/><linearGradient id="linear-gradient-3" x1="330.54" y1="812.74" x2="345.27" y2="766.33" xlink:href="#linear-gradient"/><linearGradient id="linear-gradient-4" x1="301.85" y1="803.63" x2="316.58" y2="757.22" xlink:href="#linear-gradient"/></defs><title>square-logos</title><g id="white"><polygon class="cls-1" points="124.28 166.22 114.5 206.95 107.1 180.87 85.16 180.82 78.53 207.57 67.74 166.22 47.25 166.22 63.06 236.94 87.61 236.94 96.52 207.07 104.44 236.94 129.08 236.94 144.9 166.22 124.28 166.22"/><polygon class="cls-1" points="182.05 166.22 182.05 236.94 228.46 236.94 228.46 217.05 202.6 217.05 202.6 166.22 182.05 166.22"/><polygon class="cls-1" points="237.3 166.22 237.3 236.94 283.27 236.94 283.27 217.05 257.85 217.05 257.85 166.22 237.3 166.22"/><polygon class="cls-1" points="154.99 166.22 150.46 188.5 150.46 236.94 171 236.94 171 166.22 154.99 166.22"/><path class="cls-2" d="M328.15,194.2l9.93-6.43-19.29-13.54,6,18.77A2.14,2.14,0,0,0,328.15,194.2Z"/><path class="cls-3" d="M320.29,199.3a4.08,4.08,0,0,0,1.58-4.41L314.24,171l-4.07-2.86c-2.4-1.68-4.36-.67-4.36,2.27v38.24Z"/><path class="cls-4" d="M353.38,198.51l-12.33-8.66-11.84,7.67a4.08,4.08,0,0,0-1.58,4.41l5.42,17,20.32-14.27C355.78,203,355.78,200.2,353.38,198.51Z"/><path class="cls-5" d="M324.72,203.83a2.14,2.14,0,0,0-3.37-1.2l-15.54,10.07v20c0,2.93,2,4,4.36,2.27l20-14Z"/></g></svg>