<?xml version="1.0" encoding="utf-8"?>
<!-- Generator: Adobe Illustrator 21.1.0, SVG Export Plug-In . SVG Version: 6.00 Build 0)  -->
<svg version="1.1" id="Layer_1" xmlns="http://www.w3.org/2000/svg" xmlns:xlink="http://www.w3.org/1999/xlink" x="0px" y="0px"
	 viewBox="0 0 400 400" style="enable-background:new 0 0 400 400;" xml:space="preserve">
<style type="text/css">
	.st0{fill:url(#SVGID_1_);}
	.st1{fill:#F5F5F5;}
</style>
<title>square-logos</title>
<g id="gradient">
	
		<linearGradient id="SVGID_1_" gradientUnits="userSpaceOnUse" x1="60.8451" y1="441.6899" x2="339.6549" y2="-41.2199" gradientTransform="matrix(1 0 0 -1 0 400)">
		<stop  offset="0" style="stop-color:#BFDD99"/>
		<stop  offset="1" style="stop-color:#4BBD98"/>
	</linearGradient>
	<rect x="-3.5" y="-4.5" class="st0" width="407.5" height="408.6"/>
	<polygon class="st1" points="124.3,166.2 114.5,206.9 107.1,180.9 85.2,180.8 78.5,207.6 67.7,166.2 47.2,166.2 63.1,236.9 
		87.6,236.9 96.5,207.1 104.4,236.9 129.1,236.9 144.9,166.2 	"/>
	<polygon class="st1" points="182.1,166.2 182.1,236.9 228.5,236.9 228.5,217.1 202.6,217.1 202.6,166.2 	"/>
	<polygon class="st1" points="237.3,166.2 237.3,236.9 283.3,236.9 283.3,217.1 257.9,217.1 257.9,166.2 	"/>
	<polygon class="st1" points="155,166.2 150.5,188.5 150.5,236.9 171,236.9 171,166.2 	"/>
	<path class="st1" d="M328.1,194.2l9.9-6.4l-19.3-13.5l6,18.8c0.3,1.1,1.4,1.8,2.6,1.6C327.7,194.5,327.9,194.4,328.1,194.2z"/>
	<path class="st1" d="M320.3,199.3c1.4-1,2-2.8,1.6-4.4l-7.6-23.9l-4.1-2.9c-2.4-1.7-4.4-0.7-4.4,2.3v38.2L320.3,199.3z"/>
	<path class="st1" d="M353.4,198.5l-12.3-8.7l-11.8,7.7c-1.4,1-2,2.8-1.6,4.4l5.4,17l20.3-14.3C355.8,203,355.8,200.2,353.4,198.5z"
		/>
	<path class="st1" d="M324.7,203.8c-0.3-1.1-1.4-1.9-2.6-1.6c-0.3,0.1-0.6,0.2-0.8,0.4l-15.5,10.1v20c0,2.9,2,4,4.4,2.3l20-14
		L324.7,203.8z"/>
</g>
</svg>
