<?xml version="1.0" encoding="UTF-8"?><svg id="Layer_1" xmlns="http://www.w3.org/2000/svg" xmlns:xlink="http://www.w3.org/1999/xlink" viewBox="0 0 500 500"><defs><style>.cls-1{fill:url(#linear-gradient);}.cls-2{fill:#030328;}.cls-3{fill:#f2f2f2;}</style><linearGradient id="linear-gradient" x1="394.68" y1="204.71" x2="437.5" y2="278.88" gradientUnits="userSpaceOnUse"><stop offset=".09" stop-color="#2d7dd2"/><stop offset=".19" stop-color="#348ac3"/><stop offset=".42" stop-color="#41a2a9"/><stop offset=".63" stop-color="#4ab199"/><stop offset=".79" stop-color="#4db794"/></linearGradient></defs><rect class="cls-3" width="500" height="500"/><polygon class="cls-2" points="139.18 199.48 125.2 257.67 114.63 220.41 83.28 220.35 73.81 258.56 58.39 199.48 29.11 199.48 51.7 300.52 86.78 300.52 99.51 257.85 110.83 300.52 146.04 300.52 168.64 199.48 139.18 199.48"/><polygon class="cls-2" points="221.73 199.48 221.73 300.52 288.04 300.52 288.04 272.11 251.09 272.11 251.09 199.48 221.73 199.48"/><polygon class="cls-2" points="300.67 199.48 300.67 300.52 366.35 300.52 366.35 272.11 330.03 272.11 330.03 199.48 300.67 199.48"/><polygon class="cls-2" points="183.06 199.48 176.59 231.32 176.59 300.52 205.94 300.52 205.94 199.48 183.06 199.48"/><path class="cls-1" d="M425.68,237.74l-8.57-26.82,27.56,19.36-14.18,9.19c-1.94,1.26-4.11.48-4.81-1.73ZM419.25,246.75c1.94-1.26,2.96-4.09,2.25-6.3l-10.89-34.09-5.82-4.08c-3.42-2.41-6.23-.95-6.23,3.24v54.63l20.69-13.4ZM466.54,245.62l-17.61-12.37-16.92,10.96c-1.94,1.26-2.96,4.09-2.25,6.3l7.74,24.25,29.04-20.39c3.42-2.4,3.42-6.35,0-8.75ZM425.58,253.22c-.7-2.2-2.88-2.98-4.81-1.72l-22.2,14.39v28.6c0,4.19,2.8,5.65,6.23,3.24l28.59-20.07-7.81-24.44Z"/></svg>