<svg viewBox="0 0 400 400" xmlns="http://www.w3.org/2000/svg" xmlns:xlink="http://www.w3.org/1999/xlink"><linearGradient id="a" gradientTransform="matrix(1 0 0 -1 0 980)" gradientUnits="userSpaceOnUse" x1="324.67" x2="339.4" y1="810.87" y2="764.46"><stop offset="0" stop-color="#bfdd99"/><stop offset="1" stop-color="#4bbd98"/></linearGradient><linearGradient id="b" x1="305.41" x2="320.14" xlink:href="#a" y1="804.76" y2="758.35"/><linearGradient id="c" x1="330.54" x2="345.27" xlink:href="#a" y1="812.74" y2="766.33"/><linearGradient id="d" x1="301.85" x2="316.58" xlink:href="#a" y1="803.63" y2="757.22"/><g fill="#2e2e2f"><path d="m124.28 166.22-9.78 40.73-7.4-26.08-21.94-.05-6.63 26.75-10.79-41.35h-20.49l15.81 70.72h24.55l8.91-29.87 7.92 29.87h24.64l15.82-70.72z"/><path d="m182.05 166.22v70.72h46.41v-19.89h-25.86v-50.83z"/><path d="m237.3 166.22v70.72h45.97v-19.89h-25.42v-50.83z"/><path d="m154.99 166.22-4.53 22.28v48.44h20.54v-70.72z"/></g><path d="m328.15 194.2 9.93-6.43-19.29-13.54 6 18.77a2.14 2.14 0 0 0 3.36 1.2z" fill="url(#a)"/><path d="m320.29 199.3a4.08 4.08 0 0 0 1.58-4.41l-7.63-23.89-4.07-2.86c-2.4-1.68-4.36-.67-4.36 2.27v38.24z" fill="url(#b)"/><path d="m353.38 198.51-12.33-8.66-11.84 7.67a4.08 4.08 0 0 0 -1.58 4.41l5.42 17 20.32-14.27c2.41-1.66 2.41-4.46.01-6.15z" fill="url(#c)"/><path d="m324.72 203.83a2.14 2.14 0 0 0 -3.37-1.2l-15.54 10.07v20c0 2.93 2 4 4.36 2.27l20-14z" fill="url(#d)"/></svg>