<?xml version="1.0" encoding="UTF-8"?><svg id="Layer_2" xmlns="http://www.w3.org/2000/svg" xmlns:xlink="http://www.w3.org/1999/xlink" viewBox="0 0 500 500"><defs><style>.cls-1{fill:url(#linear-gradient);}.cls-2{fill:#030328;}.cls-3{fill:#fffdf8;}</style><linearGradient id="linear-gradient" x1="79.25" y1="-45.75" x2="420.75" y2="545.75" gradientUnits="userSpaceOnUse"><stop offset="0" stop-color="#030328" stop-opacity=".25"/><stop offset=".32" stop-color="#030328"/><stop offset=".42" stop-color="#03052b"/><stop offset=".53" stop-color="#050c36"/><stop offset=".62" stop-color="#091749"/><stop offset=".72" stop-color="#0d2764"/><stop offset=".82" stop-color="#133c86"/><stop offset=".91" stop-color="#1b55b0"/><stop offset="1" stop-color="#2472e0"/></linearGradient></defs><rect class="cls-2" width="500" height="500"/><rect class="cls-1" width="500" height="500"/><polygon class="cls-3" points="139.18 199.48 125.2 257.67 114.63 220.41 83.28 220.35 73.81 258.56 58.39 199.48 29.11 199.48 51.7 300.52 86.78 300.52 99.51 257.85 110.83 300.52 146.04 300.52 168.64 199.48 139.18 199.48"/><polygon class="cls-3" points="221.73 199.48 221.73 300.52 288.04 300.52 288.04 272.11 251.09 272.11 251.09 199.48 221.73 199.48"/><polygon class="cls-3" points="300.67 199.48 300.67 300.52 366.35 300.52 366.35 272.11 330.03 272.11 330.03 199.48 300.67 199.48"/><polygon class="cls-3" points="183.06 199.48 176.59 231.32 176.59 300.52 205.94 300.52 205.94 199.48 183.06 199.48"/><path class="cls-3" d="M425.68,237.74l-8.57-26.82,27.56,19.36-14.18,9.19c-1.94,1.26-4.11.48-4.81-1.73ZM419.25,246.75c1.94-1.26,2.96-4.09,2.25-6.3l-10.89-34.09-5.82-4.08c-3.42-2.41-6.23-.95-6.23,3.24v54.63l20.69-13.4ZM466.54,245.62l-17.61-12.37-16.92,10.96c-1.94,1.26-2.96,4.09-2.25,6.3l7.74,24.25,29.04-20.39c3.42-2.4,3.42-6.35,0-8.75ZM425.58,253.22c-.7-2.2-2.88-2.98-4.81-1.72l-22.2,14.39v28.6c0,4.19,2.8,5.65,6.23,3.24l28.59-20.07-7.81-24.44Z"/></svg>