<svg enable-background="new 0 0 400 400" viewBox="0 0 400 400" xmlns="http://www.w3.org/2000/svg" xmlns:xlink="http://www.w3.org/1999/xlink"><linearGradient id="a"><stop offset="0" stop-color="#bfdd99"/><stop offset="1" stop-color="#4bbd98"/></linearGradient><linearGradient id="b" gradientUnits="userSpaceOnUse" x1="324.6678" x2="339.3978" xlink:href="#a" y1="169.1307" y2="215.5408"/><linearGradient id="c" gradientUnits="userSpaceOnUse" x1="305.4188" x2="320.1488" xlink:href="#a" y1="175.2372" y2="221.6472"/><linearGradient id="d" gradientUnits="userSpaceOnUse" x1="330.5325" x2="345.2625" xlink:href="#a" y1="167.2623" y2="213.6725"/><linearGradient id="e" gradientUnits="userSpaceOnUse" x1="301.8442" x2="316.5742" xlink:href="#a" y1="176.3718" y2="222.7819"/><path d="m-3.5-4.5h407.5v408.6h-407.5z" fill="#2e2e2f"/><g fill="#f5f5f5"><path d="m124.3 166.2-9.8 40.7-7.4-26-21.9-.1-6.7 26.8-10.8-41.4h-20.5l15.9 70.7h24.5l8.9-29.8 7.9 29.8h24.7l15.8-70.7z"/><path d="m182.1 166.2v70.7h46.4v-19.8h-25.9v-50.9z"/><path d="m237.3 166.2v70.7h46v-19.8h-25.4v-50.9z"/><path d="m155 166.2-4.5 22.3v48.4h20.5v-70.7z"/></g><path d="m328.1 194.2 9.9-6.4-19.3-13.5 6 18.8c.3 1.1 1.4 1.8 2.6 1.6.4-.2.6-.3.8-.5z" fill="url(#b)"/><path d="m320.3 199.3c1.4-1 2-2.8 1.6-4.4l-7.6-23.9-4.1-2.9c-2.4-1.7-4.4-.7-4.4 2.3v38.2z" fill="url(#c)"/><path d="m353.4 198.5-12.3-8.7-11.8 7.7c-1.4 1-2 2.8-1.6 4.4l5.4 17 20.3-14.3c2.4-1.6 2.4-4.4 0-6.1z" fill="url(#d)"/><path d="m324.7 203.8c-.3-1.1-1.4-1.9-2.6-1.6-.3.1-.6.2-.8.4l-15.5 10.1v20c0 2.9 2 4 4.4 2.3l20-14z" fill="url(#e)"/></svg>