<?xml version="1.0" encoding="UTF-8"?>
<svg id="Layer_2" xmlns="http://www.w3.org/2000/svg" xmlns:xlink="http://www.w3.org/1999/xlink" version="1.1" viewBox="0 0 500 500">
  <!-- Generator: Adobe Illustrator 29.8.1, SVG Export Plug-In . SVG Version: 2.1.1 Build 2)  -->
  <defs>
    <style>
      .st0 {
        fill: url(#linear-gradient);
      }

      .st1 {
        fill: #fffdf8;
      }
    </style>
    <linearGradient id="linear-gradient" x1="0" y1="502" x2="500" y2="2" gradientTransform="translate(0 502) scale(1 -1)" gradientUnits="userSpaceOnUse">
      <stop offset="0" stop-color="#41bb94"/>
      <stop offset=".6" stop-color="#347bd5"/>
      <stop offset="1" stop-color="#1291d0"/>
    </linearGradient>
  </defs>
  <rect class="st0" width="500" height="500"/>
  <polygon class="st1" points="139.2 199.5 125.2 257.7 114.6 220.4 83.3 220.4 73.8 258.6 58.4 199.5 29.1 199.5 51.7 300.5 86.8 300.5 99.5 257.9 110.8 300.5 146 300.5 168.6 199.5 139.2 199.5"/>
  <polygon class="st1" points="221.7 199.5 221.7 300.5 288 300.5 288 272.1 251.1 272.1 251.1 199.5 221.7 199.5"/>
  <polygon class="st1" points="300.7 199.5 300.7 300.5 366.4 300.5 366.4 272.1 330 272.1 330 199.5 300.7 199.5"/>
  <polygon class="st1" points="183.1 199.5 176.6 231.3 176.6 300.5 205.9 300.5 205.9 199.5 183.1 199.5"/>
  <path class="st1" d="M425.7,237.7l-8.6-26.8,27.6,19.4-14.2,9.2c-1.9,1.3-4.1.5-4.8-1.7h0ZM419.2,246.8c1.9-1.3,3-4.1,2.2-6.3l-10.9-34.1-5.8-4.1c-3.4-2.4-6.2-.9-6.2,3.2v54.6l20.7-13.4h0ZM466.5,245.6l-17.6-12.4-16.9,11c-1.9,1.3-3,4.1-2.2,6.3l7.7,24.2,29-20.4c3.4-2.4,3.4-6.4,0-8.8h0ZM425.6,253.2c-.7-2.2-2.9-3-4.8-1.7l-22.2,14.4v28.6c0,4.2,2.8,5.6,6.2,3.2l28.6-20.1-7.8-24.4Z"/>
</svg>