<?xml version="1.0" encoding="UTF-8"?><svg id="Layer_1" xmlns="http://www.w3.org/2000/svg" xmlns:xlink="http://www.w3.org/1999/xlink" viewBox="0 0 500 500"><defs><style>.cls-1{fill:#2e2e2e;}.cls-1,.cls-2,.cls-3{stroke-width:0px;}.cls-2{fill:url(#linear-gradient);}.cls-3{fill:url(#linear-gradient-2);}</style><linearGradient id="linear-gradient" x1="163.57" y1="213.82" x2="184.53" y2="234.78" gradientUnits="userSpaceOnUse"><stop offset=".09" stop-color="#447bcb"/><stop offset=".16" stop-color="#4a84c2"/><stop offset=".4" stop-color="#5b9ea9"/><stop offset=".62" stop-color="#66ae9a"/><stop offset=".79" stop-color="#6ab495"/></linearGradient><linearGradient id="linear-gradient-2" x1="360.2" y1="257.91" x2="404.98" y2="302.68" xlink:href="#linear-gradient"/></defs><path class="cls-1" d="M161.17,253.9l-13.11,44.84h-12.22l-8.17-31.32-8.17,31.32h-12.3l-13.19-44.84h11.49l7.93,34.15,8.58-34.15h11.98l8.42,34.07,7.93-34.07h10.85Z"/><polygon class="cls-1" points="168.17 253.9 164.32 267.06 164.32 298.73 175.65 298.73 175.65 253.9 168.17 253.9"/><path class="cls-1" d="M198.15,238.85v59.89h-11.33v-59.89h11.33Z"/><path class="cls-1" d="M220.65,238.85v59.89h-11.33v-59.89h11.33Z"/><path class="cls-1" d="M240.08,296.59c-3.45-1.91-6.16-4.63-8.13-8.13-1.97-3.51-2.95-7.55-2.95-12.14s1.01-8.63,3.03-12.14c2.02-3.51,4.79-6.22,8.3-8.13,3.51-1.91,7.42-2.87,11.74-2.87s8.23.96,11.74,2.87c3.51,1.92,6.27,4.63,8.3,8.13,2.02,3.51,3.03,7.55,3.03,12.14s-1.04,8.63-3.12,12.14c-2.08,3.51-4.88,6.22-8.42,8.13-3.53,1.92-7.49,2.87-11.86,2.87s-8.2-.96-11.65-2.87ZM257.52,288.09c1.81-1,3.25-2.49,4.33-4.49,1.08-2,1.62-4.42,1.62-7.28,0-4.26-1.12-7.54-3.36-9.83-2.24-2.29-4.98-3.44-8.21-3.44s-5.95,1.15-8.13,3.44c-2.19,2.29-3.28,5.57-3.28,9.83s1.06,7.54,3.2,9.83c2.13,2.29,4.82,3.44,8.05,3.44,2.05,0,3.98-.5,5.79-1.5Z"/><path class="cls-1" d="M345.61,253.9l-13.11,44.84h-12.22l-8.17-31.32-8.17,31.32h-12.3l-13.19-44.84h11.49l7.93,34.15,8.58-34.15h11.98l8.42,34.07,7.93-34.07h10.85Z"/><path class="cls-2" d="M164.78,237.68c-2.64-3.05-6.03-4.6-10.04-4.88.33-.09.65-.15.96-.18,3.25-.37,6.06-1.67,8.37-4,2.58-2.61,4.02-5.82,4.9-9.33.15-.6.27-1.21.45-2.06,1.79,8.23,5.42,14.46,14.69,15.54-6.34.98-9.89,3.38-12.39,8.6-1.01,2.12-1.62,4.43-2.38,6.54-.68-3.65-1.98-7.24-4.57-10.24ZM188.32,231c.51-1.42.92-2.98,1.6-4.41,1.69-3.52,4.08-5.14,8.36-5.8-6.25-.73-8.69-4.93-9.91-10.49-.13.57-.2.98-.31,1.39-.59,2.36-1.57,4.53-3.31,6.29-1.56,1.57-3.45,2.45-5.65,2.7-.21.02-.43.06-.65.12,2.7.19,4.99,1.23,6.77,3.29,1.75,2.02,2.63,4.44,3.08,6.91ZM176.82,214.02c.33-.93.6-1.94,1.04-2.87,1.1-2.3,2.66-3.35,5.45-3.78-4.07-.48-5.67-3.21-6.46-6.83-.08.37-.13.64-.2.9-.39,1.54-1.02,2.95-2.16,4.1-1.02,1.02-2.25,1.6-3.68,1.76-.14.02-.28.04-.42.08,1.76.12,3.25.8,4.41,2.14,1.14,1.32,1.71,2.9,2.01,4.5Z"/><path class="cls-3" d="M378.92,290.73h-16.73l-2.68,7.92h-11.43l16.22-44.84h12.65l16.22,44.84h-11.56l-2.68-7.92ZM376.11,282.3l-5.56-16.41-5.49,16.41h11.05ZM409,253.82v44.84h-10.92v-44.84h10.92Z"/></svg>