<svg viewBox="0 0 400 400" xmlns="http://www.w3.org/2000/svg"><g fill="#2d2f2e"><path d="m283.3 128.14a18.55 18.55 0 0 1 -1.73 5.64c-15.57 41.22-31.46 82.22-47.07 123.44-.62 1.61-1 3.77-2.48 4.58l-1.24 3.28a11.87 11.87 0 0 1 -1.48-2l-.62-1.49a10.63 10.63 0 0 1 -2.36-4.27c-9.53-24.77-18.58-49.55-28-74.32-6.19-16.79-12.7-33.57-18.58-50.42a16.48 16.48 0 0 1 -1.74-4.46h-4.33a9.32 9.32 0 0 0 0 2.36l51.33 136.27c.87 2.36 1.61 4.09 4.83 4.15s4.28-1.67 5.27-4.33c11.39-30.1 23-60.08 34.37-90.18 6.19-16 12.82-31.58 17.84-47.94z"/><path d="m148.91 128.14v140.41c0 1.55-1 1.86-2.36 1.86s-2.35 0-2.35-1.86v-140.41z"/><path d="m113 265.39q-26-68.62-51.61-137.25h-7.18q-13.38 35.13-26.82 70.18-12.88 33.93-25.89 67.94c-.43 1.24-2.48 3 0 4a3.28 3.28 0 0 0 4.42-1.42 3.41 3.41 0 0 0 .29-.81c.43-1.36.93-2.6 1.42-3.9q10.23-26.8 20.37-53.55a5.69 5.69 0 0 1 6.19-4.52c15.36 0 31 .31 46 0a6.2 6.2 0 0 1 7.34 4.78v.17c6.75 18.58 13.81 37.16 20.75 55.74.8 2.17 1.79 4.46 4.58 3.41s.68-3.28.14-4.77zm-81.77-63.39c8.67-22.85 17.28-45.46 26.57-69.74 9 24.1 17.59 46.7 26.26 69.74z"/><path d="m398.81 266c-11.83-31-23.72-62.37-35.3-93.65-5.45-14.67-11.83-29-16-44.16h-8.36c-7.74 20.63-15.36 41.25-23 61.94-9.66 25.39-19.51 50.79-29.11 76.24-.43 1.12-2.48 3 0 4a3.15 3.15 0 0 0 4.32-1.12 3.28 3.28 0 0 0 .39-1 21 21 0 0 1 1.24-3.35c6.75-17.83 13.62-35.61 20.31-53.51a6.19 6.19 0 0 1 7.08-5.16h.1c15.3.31 31 0 46 0a6.19 6.19 0 0 1 6.75 4.83c6.63 18.58 13.75 36.85 20.56 55.25 1.18 3.16 2.42 5.57 6.51 3.77a31.79 31.79 0 0 1 -1.49-4.08zm-82.12-64.1 26.57-69.68 26.13 69.68z"/></g></svg>