<svg viewBox="0 0 400 400" xmlns="http://www.w3.org/2000/svg"><g fill="#2d2f2e"><path d="m0 241.78c.86-3 1.78-6.06 2.61-9.11q9.68-36.42 19.25-72.92c.31-1.14.75-1.42 1.83-1.39h18.2c.94 0 1.3.25 1.55 1.17q10.73 40.66 21.5 81.27a5.48 5.48 0 0 0 .25 1.2h-17.5l-2.33-10.67c-.44-2-.89-3.91-1.28-5.91a1.13 1.13 0 0 0 -1.17-1.1h-20.22c-.86 0-1.22.25-1.41 1.17-1.06 5-2.22 10-3.25 15.05-.25 1.14-.64 1.56-1.86 1.53h-16.17zm32.89-68.59h-.42l-8 37.34h16.42c-2.7-12.53-5.36-24.92-8-37.34z"/><path d="m400 210.61h-2.78v-2.78h2.78z"/><path d="m400 235.14-2.78.28v-2.78h2.78z"/><path d="m122.53 242h-17.47c.83-3.22 1.66-6.36 2.5-9.5q9.57-36.31 19.19-72.64c.28-1.11.69-1.53 1.92-1.53h19.44q11.12 41.67 22.22 83.56a11.81 11.81 0 0 1 -1.19 0h-15c-1 0-1.39-.28-1.58-1.31-1.06-5-2.22-10-3.28-15.05-.22-1.06-.58-1.39-1.67-1.39h-19.47c-1.14 0-1.56.33-1.78 1.44-1 5-2.14 9.95-3.22 14.92a5 5 0 0 0 -.61 1.5zm15.25-68.83h-.39q-4 18.63-8 37.33h16.42z"/><path d="m54.72 158.42h18q5.93 30.89 11.81 61.63h.47l12.39-61.61h17.45l-4.7 20.42-14.14 61.47c-.28 1.31-.75 1.78-2.14 1.75h-20c-6.33-27.86-12.75-55.66-19.14-83.66z"/><path d="m343.39 232.55v8.92h-8.5v-2.78h5.75v-4.41c0-1.92 0-1.95 1.89-1.86z"/><path d="m310.94 173.75h2.59v11.61h-2.59z"/><path d="m310.94 161.28h2.59v11.72h-2.59z"/><path d="m313.69 220.08v2.78h-5.83v2.94h-2.78v-5a1 1 0 0 1 .7-.67c2.55-.08 5.14-.05 7.91-.05z"/><path d="m180.22 173.69h2.61v8.84h-2.61z"/><path d="m180.22 170.19v-8.91h2.78v8.91z"/><path d="m376.25 173.72h2.58v8.81h-2.58z"/><path d="m200.67 182.58h-2.59v-8.86h2.59z"/><path d="m218.89 173.72h2.58v8.81h-2.58z"/><path d="m281.25 173.72h2.56v8.78h-2.56z"/><path d="m218.83 170.3v-9h2.78v8.34c0 .22-.53.61-.83.66a9.78 9.78 0 0 1 -1.95 0z"/><path d="m283.81 170.25h-2.59v-8.95h2.59z"/><path d="m376.14 161.3h2.78v8.92a8.26 8.26 0 0 1 -1.86 0 1.12 1.12 0 0 1 -.81-.83c-.14-2.64-.11-5.31-.11-8.09z"/><path d="m198.11 232.58h2.56v8.89h-2.56z"/><path d="m399.67 195.39v2.78h-8.67v-2.78z"/><path d="m278.31 195.33h8.55v2.78h-8.55z"/><path d="m305 204.17v-2.78h8.67v2.78z"/><path d="m257.11 195.42v2.58h-8.61v-2.61z"/><path d="m278.22 229h-8.55v-2.78h8.55z"/><path d="m260.75 226.25h8.33v2.75h-8.33z"/><path d="m248.47 160.92v-2.78h8.61v2.78z"/><path d="m334.83 204.17v-2.78h8.56v2.78z"/><path d="m194.83 226.3v1.23c.17 1.22-.27 1.72-1.58 1.64h-5.56c-1.91 0-1.94 0-1.86-1.92a7.06 7.06 0 0 1 0-.92z"/><path d="m352.39 204.19h-8.58v-2.77h8.58z"/><path d="m278.25 158.14h8.61v2.78h-8.61z"/><path d="m307.69 158.14v2.78h-8.61v-2.78z"/><path d="m343.75 241.47v-2.78h8.64v2.78z"/><path d="m358.17 185.69h-8.7v-2.55h8.7z"/><path d="m340.53 185.69v-2.77h8.69v2.77z"/><path d="m177.08 223.3h2.78v2.78h3v2.92h-5.22c-.23 0-.59-.67-.61-1 .03-1.5.05-3 .05-4.7z"/><path d="m239.67 235.3h-2.78v-2.77h5.55v5.75h-2.77z"/><path d="m174.33 241.47v-8.89h2.53v8.89z"/><path d="m236.78 173.72h2.44v8.83h-2.44z"/><path d="m266.33 219.83v6h-2.77v-5.91h2.77z"/><path d="m260.39 182.55v-5.83h2.78v5.83z"/><path d="m343.22 182.55h-2.61v-5.83h2.61z"/><path d="m284.06 225.86h-2.53v-5.86h2.53z"/><path d="m352.39 164.17c2.78.16 2.78.16 2.78 3v3h-2.78z"/><path d="m349.11 164.33v5.84h-2.78v-5.84z"/><path d="m275.53 207.61h2.55v5.86h-2.55z"/><path d="m200.78 164.3v5.25c0 .25-.47.67-.81.73a11.18 11.18 0 0 1 -1.83 0v-6z"/><path d="m269.67 207.58h2.55v5.86h-2.61z"/><path d="m387.86 195.42v2.77h-5.75v-2.77z"/><path d="m388.22 238.69h5.56v2.78h-5.56z"/><path d="m385 238.69v2.78h-5.56v-2.78z"/><path d="m393.83 204.19h-5.55v-2.77h5.55z"/><path d="m284.42 232.55h2.58v5.7h-2.61z"/><path d="m379.31 204.14v-2.61h5.55v2.61z"/><path d="m319.61 201.5v2.61h-5.55v-2.61z"/><path d="m281.42 226.25h5.58v2.75h-5.55z"/><path d="m180.22 189.25h2.59v5.75h-2.59z"/><path d="m177.19 198.05v-2.77a28.66 28.66 0 0 0 4.45-.23c1.47-.22 1.53.42 1.42 1.5a10.74 10.74 0 0 0 0 1.39z"/><path d="m194.72 198.08h-5.55v-2.78h5.55z"/><path d="m224.53 195.39v2.61h-5.53a1.32 1.32 0 0 1 -.16-.25c-.28-2.56 0-2.78 2.52-2.56.86.11 1.95.14 3.17.2z"/><path d="m316.67 158.14v2.78h-5c-.31 0-.78-.5-.86-.84a9 9 0 0 1 0-1.94z"/><path d="m218.72 158.14h5.78v2.78h-4.31c-1.52 0-1.75-.28-1.55-1.5.05-.37.05-.75.08-1.28z"/><path d="m325.44 158.14v2.78h-5.55v-2.78z"/><path d="m183 158.28v2.64h-5.78v-2.64z"/><path d="m189 160.92v-2.78h5.55v2.78z"/><path d="m340.64 210.92h2.78v5.72l-.78.14c-1.92 0-1.92 0-1.92-1.81z"/><path d="m358.53 210.92h2.78v5.75h-.92c-1.31.22-1.92-.2-1.78-1.67s.01-2.73-.08-4.08z"/><path d="m376.14 189.28h2.78v5.77h-1.42c-.89 0-1.33-.19-1.28-1.19-.03-1.39-.08-2.86-.08-4.58z"/><path d="m361.42 195v-5.7a4.69 4.69 0 0 1 .75 0c2 0 2 0 2 1.89a16.7 16.7 0 0 0 0 2.45c.22 1.44-.47 1.78-1.72 1.61z"/><path d="m281.22 189.25h2.78v5.19c0 .23-.53.59-.83.67a9.12 9.12 0 0 1 -1.81 0z"/><path d="m263.06 189.3v5.56h-2.62v-5.56z"/><path d="m221.5 189.28v5.72h-2.61v-5.72z"/><path d="m343.36 220.19v5.56h-2.61v-5.56z"/><path d="m358.56 225.86v-5.56h2.55v5.56z"/><path d="m301.78 213.47h-2.61v-5.69h2.61z"/><path d="m263.33 232.55v5.56h-2.61v-5.56z"/><path d="m248.67 207.75h2.58v5.69h-2.58z"/><path d="m215.72 207.78v5.55h-2.61v-5.55z"/><path d="m301.81 232.42v5.83h-2.81v-5.14c0-.25.53-.58.86-.67a9.48 9.48 0 0 1 1.95-.02z"/><path d="m221.53 225.89h-2.59v-5.7h2.59z"/><path d="m245.44 220.19v5.56h-2.77v-5.56z"/><path d="m299.14 220.28.39-.17c2.39-.25 2.78 0 2.44 2.39v3.36h-2.78z"/><path d="m313.64 189.3v3.28c0 2.47 0 2.5-2.78 2.06v-5.34z"/><path d="m239.31 164.3v5.25c0 .25-.48.64-.78.73a6.91 6.91 0 0 1 -1.7 0v-6z"/><path d="m361.11 182.55h-2.44v-5.83h2.44z"/><path d="m325.5 213.47h-2.5v-5.69h2.5z"/><path d="m195 223.33h2.78v5.09c0 1.16-1.11.69-1.69.66a1.15 1.15 0 0 1 -1.06-.86c-.11-1.55-.03-3.14-.03-4.89z"/><path d="m222.06 232.58h2.41v5.7h-2.41z"/><path d="m337.61 189.28h2.78v5c0 1-.78.8-1.33.8s-1.37.2-1.37-.8z"/><path d="m254.42 179.55v-2.77h2.77v2.77z"/><path d="m355.56 238.69v-3.22a5.47 5.47 0 0 1 2.55.36 2.25 2.25 0 0 1 0 2.22c-.39.64-1.47.42-2.55.64z"/><path d="m322.58 213.89v2.78h-2.64v-2.78z"/><path d="m180.25 213.89h2.61v2.78h-2.61z"/><path d="m301.81 213.86v2.78h-2.81v-2.78z"/><path d="m301.78 229.47v2.78c-2.78.55-2.78.33-2.59-2.78z"/><path d="m191.92 213.83h2.77v2.78h-2.77z"/><path d="m266.67 213.86h2.58v2.78h-2.58z"/><path d="m248.39 213.92v2.77h-2.78v-2.77z"/><path d="m216 213.86h2.61v2.78h-2.61z"/><path d="m192 213.69-2.78-.16v-2.61h2.78z"/><path d="m313.67 229.44v2.78h-2.78v-2.78z"/><path d="m343.31 232.53c-1-.2-2.2 0-2.48-.53a2.53 2.53 0 0 1 0-2.39c.36-.47 1.53-.33 2.5-.47z"/><path d="m358.64 207.75h2.47v2.78h-2.58z"/><path d="m343.36 207.75v2.78h-2.55c-.5-2.95-.31-3.17 2.55-2.78z"/><path d="m191.81 210.58h-2.81v-2.78h2.78z"/><path d="m361.11 229.14v3.3c-.92 0-2.08 0-2.47-.39a2.46 2.46 0 0 1 0-2.41c.42-.47 1.61-.36 2.47-.5z"/><path d="m379 207.33h-2.61v-2.78h2.61z"/><path d="m358.33 204.64v2.78h-2.61v-2.78z"/><path d="m340.78 204.58h2.55v2.78c-2.55.78-2.94.33-2.55-2.78z"/><path d="m301.81 226.25v2.75h-2.81v-2.78z"/><path d="m308.06 228.94v-2.64h2.63v2.64z"/><path d="m242.53 160.92v-2.78h2.78v2.78z"/><path d="m343.31 229.05c-2.78.37-3 0-2.5-2.77h2.5z"/><path d="m242.83 226.22h2.61v2.78h-2.61z"/><path d="m236.53 226.33v2.61h-2.78v-2.61z"/><path d="m227.78 226.3h2.78v2.78h-2.78z"/><path d="m221.56 229h-2.62v-2.78h2.62z"/><path d="m200.94 226.33a6.84 6.84 0 0 1 -.63 2.78 2.15 2.15 0 0 1 -2.06 0 6.63 6.63 0 0 1 -.5-2.78z"/><path d="m361.11 226.25v2.75h-2.58v-2.78z"/><path d="m391.19 229v-2.78h2.81v2.78z"/><path d="m260.39 158.14h2.78v2.78h-2.78z"/><path d="m275.19 158.14h2.81v2.78h-2.78z"/><path d="m198.11 229.44c2.78-.58 2.78-.36 2.58 2.78h-2.58z"/><path d="m221.56 232.17h-2.62v-2.78h2.62z"/><path d="m225 232.28v-2.78h2.78v2.78z"/><path d="m239.42 229.5v2.78h-2.78v-2.78z"/><path d="m245.36 232.17h-2.55v-2.59c2.55-.8 2.97-.41 2.55 2.59z"/><path d="m177.28 222.89v-2.78h2.53c.75 2.89.27 3.28-2.53 2.78z"/><path d="m260.72 229.44c2.78-.58 2.78-.33 2.59 2.78h-2.59z"/><path d="m384.92 217.08v2.61h-2.78v-2.61z"/><path d="m361.28 217v2.78h-2.53c-.42-2.98-.42-3.31 2.53-2.78z"/><path d="m343.33 217v2.77h-2.5c-.64-2.83-.22-3.3 2.5-2.77z"/><path d="m319.61 219.72h-2.61v-2.78h2.58z"/><path d="m301.78 219.8h-2.59v-2.8h2.59z"/><path d="m284.42 229.33h2.58v2.78h-2.61z"/><path d="m266.39 219.89.17-2.78h2.58v2.78z"/><path d="m245.72 217h2.61v2.78h-2.61z"/><path d="m218.67 217v2.77h-2.78v-2.77z"/><path d="m192.11 217h2.58v2.78h-2.58z"/><path d="m180.25 216.94h2.58v2.78h-2.58z"/><path d="m379.39 213.86h2.61v2.78h-2.58z"/><path d="m242.61 195.42h2.78v2.77h-2.78z"/><path d="m281.19 173.28v-2.61c2.56-.87 2.95-.48 2.59 2.61z"/><path d="m212.81 198v-2.59h2.77v2.59z"/><path d="m346.17 173.36h-2.59v-2.78h2.59z"/><path d="m242.33 238.69v2.78h-2.64v-2.78z"/><path d="m263.31 241.47h-2.59v-2.78h2.59z"/><path d="m358 173.33h-2.47v-2.78h2.58z"/><path d="m284.36 241.47v-2.78h2.64v2.78z"/><path d="m242.22 195h-2.58v-2.78h2.58z"/><path d="m299.14 241.47v-2.78h2.78v2.78z"/><path d="m322.56 241.47h-2.62v-2.78h2.62z"/><path d="m378.83 173.33h-2.61v-2.78h2.61z"/><path d="m378.86 186.14v2.78h-2.53c-.66-2.84-.27-3.28 2.53-2.78z"/><path d="m363.89 188.94h-2.56v-2.77c2.56-.78 3.03-.25 2.56 2.77z"/><path d="m313.64 186.14v2.75h-2.64v-2.78z"/><path d="m283.78 188.92h-2.53v-2.78c2.64-.53 2.86-.22 2.53 2.78z"/><path d="m263 188.92h-2.53v-2.78c2.64-.56 2.84-.22 2.53 2.78z"/><path d="m221.42 188.94h-2.56v-2.77c2.58-.7 3-.25 2.56 2.77z"/><path d="m200.67 188.94h-2.59v-2.77c2.53-.78 2.92-.25 2.59 2.77z"/><path d="m180.22 188.92v-2.78h2.78v2.78z"/><path d="m376.25 182.94h2.58v2.78c-2.52.75-2.94.36-2.58-2.78z"/><path d="m364.31 183a8.29 8.29 0 0 1 -.64 2.78 2.27 2.27 0 0 1 -2.09 0 8 8 0 0 1 -.47-2.78z"/><path d="m343.58 173.69h2.61v2.78h-2.61z"/><path d="m358.08 173.75v2.78h-2.77v-2.78z"/><path d="m281.25 182.94h2.5c.47 3 .28 3.2-2.5 2.78z"/><path d="m260.47 182.94h2.47c.5 3 .31 3.2-2.47 2.78z"/><path d="m218.75 182.86h1.81a3.57 3.57 0 0 1 .8 0c.58 2.78.2 3.31-2.5 2.78a7.53 7.53 0 0 1 0-.95 8.76 8.76 0 0 1 -.11-1.83z"/><path d="m198.08 185.69v-2.77h2.53c.56 3 .17 3.36-2.53 2.77z"/><path d="m180.31 182.94h2.55v2.78h-2.55z"/><path d="m275.22 201.5v2.78h-2.78v-2.78z"/><path d="m299.14 204.14v-2.59h2.61c.75 2.59.33 3.03-2.61 2.59z"/><path d="m352.44 164.14h-2.77v-2.78h2.77l.17 2.78z"/><path d="m239.64 161.3h2.78v2.78h-2.78z"/><path d="m182.89 170.47v2.78h-2.78v-2.78z"/><path d="m212.86 160.92v-2.78h2.78v2.78z"/><path d="m378.86 158.14v2.78h-2.64v-2.78z"/><path d="m200.69 173.28a4.69 4.69 0 0 1 -.75 0h-1.83v-2.78c2.64-.5 2.89-.31 2.58 2.78z"/><path d="m227.5 235.28h-2.5c-.86-2.64-.53-3 2.44-2.78z"/><path d="m379.22 198.08h-3.16a7.14 7.14 0 0 1 .47-2.78 2.19 2.19 0 0 1 2.05 0 7.88 7.88 0 0 1 .64 2.78z"/><path d="m363.89 198.08h-2.58v-2.78c2.8-.47 3.08-.19 2.58 2.78z"/><path d="m349.53 160.92v-2.78h2.78v2.78z"/><path d="m310.94 195.36h2.59v2.78h-2.59z"/><path d="m188.89 207.36h-2.56v-2.78c2.56-.66 2.89-.28 2.56 2.78z"/><path d="m221.42 173.36h-2.56v-2.78c2.56-.75 2.95-.36 2.56 2.78z"/><path d="m272.61 204.53h2.61v2.77h-2.61z"/><path d="m277.78 195.44v2.61h-2.78v-2.61z"/><path d="m301.78 207.39h-2.61v-2.78h2.61z"/><path d="m263.31 198.11h-3.09a8.44 8.44 0 0 1 .36-2.78 2.33 2.33 0 0 1 2.09 0 8.29 8.29 0 0 1 .64 2.78z"/><path d="m322.58 204.64v2.78h-2.64v-2.78z"/><path d="m388.31 223.17c2.77-.2 2.77-.2 2.55 2.77h-2.55z"/><path d="m260 179.55h-2.44v-2.77h2.44z"/><path d="m319.44 238.28h-2.52v-2.56c2.72-.61 3.02-.33 2.52 2.56z"/><path d="m379 238.28h-2.55v-2.59c2.66-.58 2.97-.27 2.55 2.59z"/><path d="m358.69 235.25c-.5-2.78-.3-3.08 2.48-2.78v2.78z"/><path d="m198.06 191.92v-2.59h2.77v2.59z"/><path d="m379 213.47h-2.56v-2.55c2.64-.7 2.95-.39 2.56 2.55z"/><path d="m186.25 201.53h2.64v2.77h-2.61z"/><path d="m314.14 232.55h2.53v2.78h-2.59z"/><path d="m316.67 222.86h-2.61v-2.78h2.61z"/><path d="m186.11 158.14h2.58v2.78h-2.58z"/><path d="m177.14 232.22h-2.92a9 9 0 0 1 .36-2.78c0-.27 1.75-.36 1.92 0a8.66 8.66 0 0 1 .64 2.78z"/><path d="m185.86 160.92h-2.53v-2.78h2.53z"/><path d="m373.5 235.25v-2.78h2.44v2.78z"/><path d="m394.25 232.11v-2.64h2.53v2.64z"/><path d="m387.83 241.47h-2.58v-2.78h2.58z"/><path d="m355.28 238.69v2.78h-2.5v-2.78z"/><path d="m218.5 160.92h-2.78v-2.78h2.78z"/><path d="m176.92 160.92h-2.56v-2.78h2.56z"/><path d="m222 238.69h2.44v2.78h-2.44z"/><path d="m394.28 235.58h2.5v2.78h-2.5z"/><path d="m195.11 164v-2.78h2.53v2.78z"/><path d="m302.14 201.47h2.78v2.78h-2.78z"/><path d="m254.19 204.19h-2.44v-2.77h2.44z"/><path d="m212.64 204.19h-2.5v-2.77h2.5z"/><path d="m388.19 198.05v-2.63h2.59v2.63z"/><path d="m381.81 198.08h-2.56v-2.78h2.56z"/><path d="m340.47 198.11h-2.78a8.74 8.74 0 0 1 .39-2.78c0-.3 1.75-.36 1.92 0a9.06 9.06 0 0 1 .47 2.78z"/><path d="m287.11 198.05v-2.61h2.58v2.61z"/><path d="m260 198.11h-2.5v-2.78h2.5z"/><path d="m236.78 170.55c2.55-.5 2.78-.25 2.41 2.78h-2.41z"/><path d="m245.56 198.05v-2.63h2.63v2.63z"/><path d="m224.83 198.05v-2.61h2.5v2.61z"/><path d="m215.81 198v-2.53h2.77v2.53z"/><path d="m186.11 198.05v-2.61h2.58v2.61z"/><path d="m183.33 198.05v-2.77h2.56v2.77z"/><path d="m177 195.42v2.58h-2.61v-2.61z"/><path d="m195.14 195v-2.78h2.47v2.78z"/><path d="m239.22 189.28v2.77h-2.44v-2.77z"/><path d="m340.08 189.08c-.77 0-2 0-2.3-.41a2.92 2.92 0 0 1 0-2.42c0-.31 1.75-.47 1.89-.2a8.94 8.94 0 0 1 .8 2.62z"/><path d="m236.75 186.11c2.78-.39 2.78-.14 2.39 2.78h-2.39z"/><path d="m361.11 185.69h-2.42c-.8-2.64-.41-3.08 2.42-2.77z"/><path d="m337.5 182.94h2.78a7.68 7.68 0 0 1 -.39 2.78c-.17.33-1.86.36-2 0a7.94 7.94 0 0 1 -.39-2.78z"/><path d="m236.75 182.94h2.31c.72 2.78.33 3.28-2.31 2.78z"/><path d="m227.36 160.92h-2.36v-2.78h2.47z"/><path d="m281.11 229h-2.58v-2.78h2.58z"/><path d="m248.22 160.92h-2.78v-2.78h2.78z"/><path d="m257.47 158.14h2.53v2.78h-2.53z"/><path d="m183.33 226.28h2.36c.87 2.55.42 3.08-2.36 2.77z"/><path d="m174.08 226.3h3.09a9.79 9.79 0 0 1 -.59 2.78 2.1 2.1 0 0 1 -1.83 0 10.55 10.55 0 0 1 -.67-2.78z"/><path d="m233.33 225.89h-2.47v-2.78h2.47z"/><path d="m385.31 222.86v-2.78h2.5v2.78z"/><path d="m289.69 160.92h-2.55v-2.78h2.55z"/><path d="m303.33 222.92c-1.41.3-1.22-.67-1.3-1.56s.53-1.28 1.47-1.33 1.39.52 1.42 1.55-.53 1.5-1.59 1.34z"/><path d="m195.11 222.94v-2.77h2.53v2.77z"/><path d="m310.58 158.28v2.64h-2.77v-2.64z"/><path d="m278.58 217h2.48v2.78h-2.48z"/><path d="m278.5 216.61v-2.78h2.5v2.78z"/><path d="m183.33 210.92h2.5v2.77h-2.5z"/><path d="m376 207.78v2.77h-2.5v-2.77z"/><path d="m183.33 210.53v-2.78h2.53v2.78z"/><path d="m319.44 158.14v2.78h-2.61v-2.78z"/><path d="m396.81 204.67v2.63h-2.53v-2.63z"/><path d="m251.69 204.58h2.5v2.78h-2.5z"/><path d="m212.67 207.33h-2.5v-2.78h2.5z"/><path d="m387.83 201.5v2.78h-2.55v-2.78z"/><path d="m355.22 201.53v2.61h-2.44v-2.61z"/></g></svg>