<svg viewBox="0 0 400 400" xmlns="http://www.w3.org/2000/svg"><g fill="#2d2f2e"><path d="m86.14 194.06v12.66c0 1.85 1.24 2.19 2.64 2.8h-12.16c-1.63 0-2.64-1.29-3.53-2.41s-2.64-3.41-3.81-5.21a2.93 2.93 0 0 0 -3.28-1.4c-1.63.39-.84 1.74-.9 2.69s0 2.13 0 3.2c0 1.62.51 2.8 2.35 3.08h-8.03c1.68-.39 2-1.63 2-3v-16.47c0-1.85-1.24-2.13-2.58-2.69a89.8 89.8 0 0 1 11.6 0 5.6 5.6 0 0 1 2.56 9.69c-1.68 1.74-1.46 2.69 0 4.2s3.36 4 5.21 6a3.72 3.72 0 0 0 4.21 1.23c1.34-.62 1-2.19 1-3.42v-18.4l17.37 16.25v-13.51c0-1.51-1.35-1.9-2.52-2.35h7.62a3.53 3.53 0 0 0 -2.52 4v16.41c0 .79.44 1.74-.45 2.19s-1.35-.62-1.85-1.12c-4.32-4.26-8.52-8.57-12.83-12.89a8.3 8.3 0 0 1 -2.1-1.53zm-21.06-.51v2.36c0 .78-.51 2.29 1 2.74a3.82 3.82 0 0 0 3.64-.45 6 6 0 0 0 -.18-8.55l-.27-.24a3.62 3.62 0 0 0 -3.58-.56c-1.13.56-.4 1.73-.56 2.69a11.24 11.24 0 0 0 -.05 2.01z"/><path d="m259.85 187.11h9.69a5.74 5.74 0 0 1 4.37 9.92c-1.68 1.57-1.57 2.63 0 4.2s3.31 3.87 5 5.6 2.35 1.4 3.13-.61c2.36-6 4.82-11.94 7.23-17.88a3.2 3.2 0 0 1 1.24-2c1.06.45 1.12 1.51 1.51 2.36 2.18 5.6 4.37 10.87 6.61 16.24.73 1.8 1.46 3.81 4 3.81a20.5 20.5 0 0 1 -6.44.45c-.9 0-.73-.33-.84-1.12a13.8 13.8 0 0 0 -2-5.6c-1.4-2-3.87-.51-5.6-.84s-1.69.73-2 1.62l-1.18 3a1.89 1.89 0 0 0 1.43 2.74h-8.41a5.1 5.1 0 0 1 -3.58-2.35c-1.41-1.85-2.81-3.76-4.15-5.61a2.68 2.68 0 0 0 -3.08-1.06c-1.29.28-.62 1.45-.73 2.24a29.36 29.36 0 0 0 0 3.25c0 1.85.45 3.25 2.63 3.42h-8.18c1.57-.34 1.68-1.68 1.68-2.86v-16.4a2.91 2.91 0 0 0 -2.33-2.52zm12.27 6.89a4.89 4.89 0 0 0 -2.47-4.88c-2.46-1.18-3.53-.5-3.53 2.24v4.64c0 1.57-.62 2.52 1.18 2.81a3.72 3.72 0 0 0 4-1.24 6.23 6.23 0 0 0 .82-3.57zm17.65-.84-1.24 2.74c-1.85 4.82-1.85 4.82 3.25 4.6l.45-.4z"/><path d="m167.9 236.87c3.36-4.71 3.53-6.17.78-8.18h7.79a13.16 13.16 0 0 0 -6.67 10.08c-.73 3.08 2.41 5.94 3.64 9.81 2.52-6.17 4.65-11.6 7-16.81 1-2.13-1.46-1.57-1.85-2.92h7.56c-6.16 6-8.07 14.91-11.76 22.64-.57 1.07-.34 3-1.85 3s-1.24-1.79-1.74-2.8c-1.18-2.41-2.3-4.93-3.7-7.84-1.51 3.25-2.86 6.1-4.15 9-.33.67-.44 1.68-1.34 1.74s-1-1-1.35-1.68c-3.08-6.62-6.27-13.23-9.3-19.89a5.58 5.58 0 0 0 -4.59-3.59l.5-.79h9.58c-2.12 1.29-1.68 2.69-.84 4.43 2.36 4.88 4.6 9.86 6.95 14.91 3.64-4.71 4-5.61 1.68-10.26-1.68-3.14-2-7.34-6.1-9h9c-3.56 3.22.59 5.28.76 8.15z"/><path d="m41 209.41h-21.54c1.74-.45 1.74-1.9 1.74-3.08v-16.19c0-1.8-1.18-2.36-2.58-3.09a120.55 120.55 0 0 1 12.61 0c2.75 0 .62 2.47.84 3.93-1.29-3.25-4-2-6.22-2.19-.56 0-.84.39-.84 1v.56c-.61 6.45.45 7.34 7.06 5.61v3.64c-1.12.45-.89-.56-1.34-.84a5.59 5.59 0 0 0 -4.82-.28c-1.23.5-.45 2.13-.62 3.19a7.72 7.72 0 0 0 0 1.52c0 1.68-.73 4 2 4.42s4.93.73 6.16-2.46v3.58c3-.33 3.08 0 4.21-3l6.83-16.81c.34-.84.45-1.91 1.79-2.52l5.29 12.6c.84 2.07 1.63 4.15 2.52 6.22s1.52 3.53 3.76 4.15h-6.28c-.67 0-.9 0-1-1.07a21.87 21.87 0 0 0 -1.74-5.21c-.45-1.4-1.62-1.29-2.63-1.12s-3.87-1.07-5.1 1a22.52 22.52 0 0 0 -1.46 3.81c-.51 1.45.28 2.22 1.36 2.63zm4-16.3-2.3 5.6c-.39 1 0 1.51 1.12 1.62 3.75 0 4 0 2.74-3.36a24 24 0 0 1 -1.56-3.86z"/><path d="m237.71 253.62c3.42-.5 3.25-2.86 3.25-5.15v-14.4c0-2 .34-4.26-3.08-4.43a34.42 34.42 0 0 1 19.5 0 11.61 11.61 0 0 1 6.67 7.12 12.61 12.61 0 0 1 -7.22 16.3 14.86 14.86 0 0 1 -1.64.51 62 62 0 0 1 -17.48.05zm7.73-13.33v8.23c0 3.14 1.18 4.09 4.38 4.09a8.73 8.73 0 0 0 9.35-7.17c2.41-9.13-2.57-15.91-11.2-15.41-1.8 0-2.64.73-2.53 2.63s0 5.1 0 7.63z"/><path d="m236.76 253.68a8.3 8.3 0 0 1 -10.09-3.48c-1.29-1.9-2.41-4-3.58-6a2.46 2.46 0 0 0 -2.92-1.4c-1.17.33-.61 1.51-.67 2.29a17.79 17.79 0 0 0 0 2.92c0 2.35-.67 5.1 2.92 5.6h-10.37c4.31-1.4 2.74-5 2.86-7.9v-12.04c0-2.29 0-4.09-3.2-4.2a26 26 0 0 1 16 0 5.88 5.88 0 0 1 1 .56 6.05 6.05 0 0 1 0 10.48c-1.85 1.12-1.57 1.9-.62 3.31s2.35 3.81 3.59 5.6a9.72 9.72 0 0 0 5.08 4.26zm-10.09-17.43a5.6 5.6 0 0 0 -3.3-5.6c-2.8-1.12-3.87-.39-3.92 2.63v4.65c0 1.57-.79 2.86.72 3.36a5 5 0 0 0 4.93-1 4.37 4.37 0 0 0 1.57-4.04z"/><path d="m109.79 167.11h-11.6c-.5-.79.84-.79.84-1.46s.73-3.31-.34-4.2-3.19-.4-4.81 0-.9.89-.9 1.57c0 1.68 0 3.47 2.52 4a20.5 20.5 0 0 1 -6.67.5c2.24-2.07 1.63-4.42 1.52-6.66s1.23-4.49-2.36-6h6.01c-1.23 1.68-1.85 3.87-.5 5a4.46 4.46 0 0 0 5.15 0c1.07-1.12 1-3.42-1.79-5h20.57c2.35 0 3.36.5 2.52 3.19-1.18-2-2.86-3-4.77-1.68a2.93 2.93 0 0 0 0 3.53c1.41 1.51 2.53-.34 3.87-1.18v4.71c-1.06-1.51-2.46-2.92-3.75-1.57a3.35 3.35 0 0 0 0 4.09c2 1.34 4 0 5.6-1.85.45 4-1.4 3.64-9.36 3.36a20.64 20.64 0 0 0 .9-10.42c0-1.4-1.57-1.74-2.58-1.79s-1.51 1-1.51 2.13v7.34a2.64 2.64 0 0 0 1.44 2.39zm-4.09-6.06v-4.05c0-1.62-1.4-1.9-2.35-2.18s-1.69.67-1.74 1.62v8.52a2.35 2.35 0 0 0 2.41 2.13 2.18 2.18 0 0 0 1.62-2.46c0-1.22.06-2.4.06-3.58z"/><path d="m186.05 166.1c1.4.73 2.41 0 2.47-1.29v-7.9c0-1.12-1.24-1.29-1.85-2.41 6.44-.73 7.34 5.88 11.76 8.07-.39-2.75 1.46-5.61-2.41-8.07h11.71c5.33-1.74 7.18 2.74 10 5.6.78.73 1.46 1.52 2.86 3-.51-3.3 1.28-6.16-2-8.35 1.46-.73 2.91 0 5-.56-2.53 2.19-1.85 4.49-1.91 6.61s0 4.26 0 7.18l-9.47-9.75c-.84 6.22-.62 7.11 2 8.85h-11.2a22 22 0 0 0 .84-10.59c0-1.23-1.57-1.62-2.36-1.62a2 2 0 0 0 -1.81 2.1s0 .09 0 .14v11.2l-9.3-10c-1.29 4.37-.84 7 1.74 8.74a11.14 11.14 0 0 1 -6.06 0zm20.4-5.61v3.81a2 2 0 0 0 1.72 2.18h.18a2 2 0 0 0 2.24-1.74 28.74 28.74 0 0 0 0-8.18 2.51 2.51 0 0 0 -2.58-1.79c-1.17 0-1.68 1.4-1.56 2.74s-.06 2.19 0 3.25z"/><path d="m126.15 187 16.85 15.58v-13.12c0-1.4-1.29-1.73-2.41-2.24h7.12c-2.41.51-2.08 2.41-2.08 4.15 0 6.16 0 12.27-.39 18.55a168.8 168.8 0 0 1 -17.09-16.31 121 121 0 0 0 .39 13.73c0 1.57 1.52 1.4 3.14 2h-8.18c2.35-.34 2.07-2.13 2.13-3.65 0-5.88 0-11.76.39-17.59a4.67 4.67 0 0 1 .13-1.1z"/><path d="m174.79 198.48c-3.36 1.69-2.13 4.66-2 7.07a3.47 3.47 0 0 1 -2.67 4.12 3.56 3.56 0 0 1 -.8.08 22.9 22.9 0 0 1 -10.15-.51 11.59 11.59 0 0 1 3.42-22.58 27.29 27.29 0 0 1 5.27 0c5.6.62 5.6.67 4.31 6.78a6.7 6.7 0 0 0 -4.25-4.7 9.46 9.46 0 0 0 -10.31 2.18 11.88 11.88 0 0 0 -.4 12.5 10 10 0 0 0 9.92 4.93 2 2 0 0 0 1.51-.79 8.47 8.47 0 0 0 -2.18-9.08z"/><path d="m192.83 253.9h-8.41c4.26-1.46 4.32-5.6 5.61-8.8 2-4.65 3.7-9.41 5.6-14.23a3.87 3.87 0 0 1 2.86-2.52c1.29-.28 1.12 1.46 1.46 2.41 2.07 6 4.14 11.93 6.16 18 .73 2.18 1.4 4.25 4.09 5h-10.48c4.48-2.13 1-4.71.79-7s-2.3-2.25-4-2.13-3.19-.68-3.86.44a24.32 24.32 0 0 0 -2.3 6.62c-.43 1.37 1.7.7 2.48 2.21zm3.47-19.78-2 5.61c-1.18 3.41-1.18 3.3 2.41 3.36 1.85 0 2.8 0 1.79-2.36a63.94 63.94 0 0 1 -2.2-6.61z"/><path d="m129.85 253.73a22.89 22.89 0 0 1 -9.36-.33c4.48-.51 4.76-3.7 5.6-6.28 2.13-5.6 4.21-10.76 6.17-16.14a4.08 4.08 0 0 1 1.34-1.73c1.63-1.57 2.24-1.07 2.86.84 1.91 5.6 4 11.65 5.6 17.48.84 2.58 1.4 5.27 4.43 6.39h-10.25c4.93-2.41 1.68-4.93 1.12-7.23-.9-3.87-4.26-2.07-6.33-1.91-3.48 0-2.47 4-3.65 6.11s1.62 1.63 2.47 2.8zm.39-10.87h3.64c1.18 0 2.47-.28 1.63-2.18s-1.35-3.92-2.19-6.33a47.52 47.52 0 0 0 -3.08 8.51z"/><path d="m276.26 254.63c-5.21 0-7.56-2-7.45-6.33 0-.51 0-1.07.39-1.29s1 .45 1.18.9a10.48 10.48 0 0 0 3 3.92 5.1 5.1 0 0 0 6.66 0 4.59 4.59 0 0 0 -.62-6.47l-.11-.09a15.51 15.51 0 0 0 -3.31-2.27 16.67 16.67 0 0 1 -4.14-3.24 6.66 6.66 0 0 1 3-10.93 13.67 13.67 0 0 1 8.06 0 1.73 1.73 0 0 1 1.46 1.85c0 1.23 1.12 3 0 3.47s-1.29-1.46-2-2.3a5.11 5.11 0 0 0 -5.21-1.9 3.54 3.54 0 0 0 -3 2.86 4.31 4.31 0 0 0 2.3 4.93c1.23.78 2.57 1.45 3.81 2.18a8 8 0 0 1 4.7 9.42 8.23 8.23 0 0 1 -8.72 5.29z"/><path d="m219.22 203.92v-11.21c0-1.23 0-1.23-2.74-2.29h6.94c-1.85.56-1.73 2-1.73 3.41v13.51c0 .84.45 2-.62 2.35s-1.51-.73-2.13-1.34l-10.94-10.59-1-.76c-1.46 4.54-.39 11.2 2.24 12.61h-6.78c1.79-.56 1.85-1.91 1.85-3.42v-13.76c0-.67-.45-1.73.5-2s1.29.67 1.85 1.17l11.6 11.66z"/><path d="m323.55 203.86c0 5.61-.67 6.11-5.6 6.17a20.63 20.63 0 0 1 -5.6-.34 11.59 11.59 0 0 1 1-23 23.13 23.13 0 0 1 5.26 0c5.33.61 5.33.67 4.32 6.89-.95-2.41-1.74-4.37-4.2-4.87a12.15 12.15 0 0 0 -6.39 0 8.57 8.57 0 0 0 -5.27 9.46 10.09 10.09 0 0 0 7.4 9.7 7 7 0 0 0 9.08-4.01z"/><path d="m381.72 193.05a8.17 8.17 0 0 0 -15.52 1.95 10.87 10.87 0 0 0 5.6 12.5 7.23 7.23 0 0 0 9.81-2.88c0-.06.07-.13.11-.2.67 4.26 0 5.6-4.32 5.6a22.45 22.45 0 0 1 -6.44-.33 11.55 11.55 0 0 1 1.68-22.87 27.58 27.58 0 0 1 5.6 0c4.76.63 5.1 1.3 3.48 6.23z"/><path d="m248.19 209.52h-7.62c1.68-.61 1.91-2 1.91-3.47v-15.24c0-1.85 0-3.31-2.53-3.64h11.21a4.92 4.92 0 0 1 4.65 4.2 7.1 7.1 0 0 1 -3 7.17 5.61 5.61 0 0 1 -4.93.73c4.65-1.79 6.16-6.33 3-9.41a3.3 3.3 0 0 0 -3.64-1.18c-1.29.5-.73 1.85-.73 2.86v14.68c0 1.4.06 2.78 1.68 3.3z"/><path d="m400.38 206.55c.84 2.47 0 3.37-2.36 3.31a108.54 108.54 0 0 1 -11.2-.39 2.8 2.8 0 0 0 2.12-3.2v-15.52c0-2-.39-3.25-2.63-3.75h12.94c1 0 1.18.39 1 1.23a34.39 34.39 0 0 1 -.39 3.7c-1.12-3.87-3.7-2.91-5.6-3.08-.79 0-1.07.33-1.07 1.06v.56c-.45 6.56 0 7.12 7 5.61l-.45 4.81c-.84-1.06-.95-2.24-2.19-2.57-3.3-.79-4.37 0-4.37 3.3v1.46c.28 1.46-.84 3.53 1 4.26a5.89 5.89 0 0 0 6.2-.79z"/><path d="m325.68 191.42c0-4.25 0-4.2 3.76-4.14h12.61c3.86 0 3.86 0 3.53 4.14-1.13-.33-1-1.79-2.25-2a8.1 8.1 0 0 0 -5.15 0c-1.12.61-.45 2.46-.45 3.81v13.17c0 1.84.62 3 2.75 3.13h-8.48a2.35 2.35 0 0 0 1.85-2.24c.45-5.6 0-11.2 0-16.81 0-.5 0-.89-.62-1.17a9 9 0 0 0 -7.55 2.11z"/><path d="m.69 187.11h7.9a2.05 2.05 0 0 1 1.07.34c-2.92 0-2.8 2-2.8 3.92v12c0 1.62-.56 3.69 1.9 4.31a5.6 5.6 0 0 0 6.61-2.41c.84 3.87.4 4.48-3.36 4.48h-11.2c2-.78 1.84-2.41 1.9-3.86v-14.63c.34-1.96.17-3.7-2.02-4.15z"/><path d="m248.75 151.14a7.06 7.06 0 0 1 7.88 6.13 7.21 7.21 0 0 1 0 1.54 8 8 0 0 1 -8.46 8.69 7.29 7.29 0 0 1 -7.78-6.75 8.42 8.42 0 0 1 0-.87 8 8 0 0 1 7.12-8.71 6.32 6.32 0 0 1 1.24-.03zm4.93 9.24c0-4.7-1.9-7.9-5-8.12a4.24 4.24 0 0 0 -4.54 2.46 11.19 11.19 0 0 0 1.23 10 4.31 4.31 0 0 0 5.61 1.12 5.6 5.6 0 0 0 2.7-5.46z"/><path d="m349.72 209.41a2.74 2.74 0 0 0 1.57-2.58v-16.83c0-1.62-.84-2.13-2.13-2.63h8.24c-2.13.39-2.07 2-2.07 3.59v15c0 2 0 3.47 2.63 3.64z"/><path d="m110.52 187.17h8.18c-2.07.5-2.13 2-2.13 3.75v15.24c0 1.4 0 2.86 1.79 3.25h-7.84c2-.33 2-1.74 2-3.25v-15.8a2.49 2.49 0 0 0 -2-3.19z"/><path d="m87.1 157.08c-3.48-4.88-6.17-5.94-8.86-4.09a7.51 7.51 0 0 0 -1 10.42c2.3 3.19 5 3.14 10 0a5 5 0 0 1 -4.53 4.14 7.44 7.44 0 0 1 -8.39-2.55 9 9 0 0 1 .34-10.64 8.68 8.68 0 0 1 9.24-2.92c3.48.76 3.98 2.39 3.2 5.64z"/><path d="m190.31 209.41c2.46-1.46 2.46-1.46 2.07-15.58 0-1.45 0-2.8-1.9-3.25h8.29c-2.47.62-2.75 1.8-2.75 3.31v12.05c0 1.79 0 3.25 2.53 3.47z"/><path d="m308.87 167.11a13.51 13.51 0 0 0 -.56-12.67 52.17 52.17 0 0 1 7.29 0c3.3.51 4.14 3 2.18 5.61-.89 1.17.62 4.48 2.64 5.6 0 0 .61 0 .39.78a2.58 2.58 0 0 1 -3.64-.23 2.79 2.79 0 0 1 -.4-.61c0-.39-.44-.89-.72-1.29s-.84-2.91-2.64-3.19c-.39 0-.73 0-.73.67 0 1.74-.67 3.65 1.8 5.05zm3.93-9.3c0 .95-.62 2.57 1.45 2.46s2.36-.28 2.3-2-.78-2.69-2.41-2.8-1.14 1.33-1.34 2.34z"/><path d="m186.05 166.1v.67c-1.85 1.18-3.08.39-4-1.29 0-.39-.33-.73-.56-1.06s-.84-2.75-2.52-3a.84.84 0 0 0 -1 .72.48.48 0 0 0 0 .17c0 1.68-.56 3.48 2 4.71h-5.6c1.79-1.85 1.17-4.15 1.06-6.33s1.12-4.43-2-6.16h7.79a3.25 3.25 0 0 1 2.75 4.7c-.34.84-2 1.12-1.29 2.3s1.32 3.73 3.37 4.57zm-8.12-8.29c0 1.23-.34 2.63 1.56 2.52s2.58-.51 2.41-2.19-.89-2.63-2.52-2.69-1.23 1.46-1.45 2.36z"/><path d="m148 163.41c0 2.58-.78 4.09-3.58 4h-8.63c2.52-2.63 1.51-5.6 1.46-8.29s1.79-5.6-2.08-7.51h6.39c-2.41 4.15-.9 8.8-1.12 13.23 0 1.12.95 1.23 1.9 1.28a7.28 7.28 0 0 0 5.66-2.71z"/><path d="m148.56 154.44h8.75c2.74 0 .78 1.8 1.06 2.86-1.35-1.62-3.08-2.69-4.82-1.51a2.92 2.92 0 0 0 0 3.75c1.23 1.23 2.47 0 3.7-1.4v5.27c-.9-2-2.41-3-3.64-1.79a3.29 3.29 0 0 0 0 4c2.07 1.46 4 0 5.6-1.68.67 3.81-1.85 3.64-9.25 3.14a13.85 13.85 0 0 0 -1.4-12.64z"/><path d="m307.81 164.36c-1.79 5.16-6.16 1.85-9.19 3a16.83 16.83 0 0 0 -.95-13.12h7.95c1.4 0 1.4 0 1.18 3.09-1.23-2.13-3.08-2.75-4.71-1.63a3 3 0 0 0 0 3.81c1.24 1.18 2.47 0 3.7-1.4v4.71c-1-1.4-2.46-2.58-3.75-1.23a3.23 3.23 0 0 0 0 4c2.13 1.46 4.09.12 5.77-1.23z"/><path d="m231.94 161.39h4.93c.28.73-.61 1-.78 1.51s.56 2.41-.9 3.14a11.44 11.44 0 0 1 -5 1.4 5.61 5.61 0 0 1 -5.61-4 7 7 0 0 1 2.53-8.06 12.3 12.3 0 0 1 8.74 0c1.06.28 0 2.18 0 3.53-1.57-1.91-2.86-4-5.61-3.53s-3.81 2.46-3.53 6 2.13 5.6 4.54 5a2.29 2.29 0 0 0 2.52-1.62 2.8 2.8 0 0 0 -1.83-3.37z"/><path d="m129.57 158.2a10.36 10.36 0 0 1 0 4.7c-1.23-.89-2.63-3.08-3.81-1.06a3.3 3.3 0 0 0 1.68 5 15.1 15.1 0 0 1 -5.6.34 12 12 0 0 0 -1.24-12.78h9.19c1.63 0 1.18 1.63 1 3.31-1.35-2.19-3-3.31-4.88-1.85a2.87 2.87 0 0 0 0 3.53c1.59 1.38 2.65-.07 3.66-1.19z"/><path d="m267.75 155.17c-1 .39 0 1.46-1 2.19-1.12-1.74-2.8-2.86-4.65-1.52a3 3 0 0 0 0 3.59c1.35 1.57 2.41-.45 3.64-1a10.57 10.57 0 0 1 0 4.48c-1.12-1.23-2.29-2.41-3.81-1.4s0 4.32 1.46 5.61a3.93 3.93 0 0 1 -.84 0h-4.93c2.24-2.08 1.62-4.43 1.51-6.56s1.29-4.71-1.73-6.22h10.19z"/><path d="m173.27 167.16h-5.6c2-1.4 1.57-3.14.34-3.86a3.47 3.47 0 0 0 -4.54.44c-.95 1.18-.95 2.53.95 3.31h-4.2c2.52-4 3.87-8.57 6.27-13 2.86 4.15 3.59 9.36 6.78 13.11zm-8.79-5.6c1 0 2.35.62 2.69 0s-.51-2.19-1.35-3.19a8.42 8.42 0 0 0 -1.34 3.19z"/><path d="m267.75 155.17v-.67h7c2.3 0 2.69.84 2.24 3-1.4-1.74-3.14-2.8-4.93-1.4a3.13 3.13 0 0 0 0 3.58c1.35 1.52 2.41-.39 3.64-1.06a11.64 11.64 0 0 1 0 4.48c-1.17-1.4-2.35-2.41-3.86-1.45s0 4.37 1.57 5.6h-5.27a19.67 19.67 0 0 0 .73-10.93c.22-.76-.56-.87-1.12-1.15z"/><path d="m290.05 155.23a5.21 5.21 0 0 0 -2.75 6.16c.95 4.82 4.65 5.6 9 2.35 0 2-1.35 3-3.93 3.48a5.61 5.61 0 0 1 -6.78-2.75 7.06 7.06 0 0 1 4.49-10.14z"/><path d="m278.5 167.05a14.31 14.31 0 0 0 -.72-12.61h5.6a9 9 0 0 0 -.9 6.56c0 2-1.23 4.48 2 6.05z"/><path d="m324.23 152.59a3.09 3.09 0 0 1 3.92.68 3.76 3.76 0 0 1 -.56 3.81c-.62.67-1.4 1.4-2.24 1.12s0-1.18 0-1.85a1.17 1.17 0 0 0 -1.07-.84z"/><path d="m290.05 155.23v-.9c2-.73 3.86.39 5.6.79s.5 2.35.67 3.81c-1.62-2.08-3.25-4.21-6.27-3.7z"/></g></svg>