<svg viewBox="0 0 400 400" xmlns="http://www.w3.org/2000/svg"><g fill="#2d2f2e"><path d="m250.64 200.19v29c0 16.29-7 23.9-23.22 24.27s-32.2 0-48.36 0c-2.66 0-3.59-1-3.46-3.46a24 24 0 0 0 0-5.08c-.44-4.21.49-6.87 5.57-6.19 2.6.37 3.4-1.12 3.4-3.59v-70.4c0-2.72-1-4.21-3.77-3.78-4.65.68-5.33-1.73-5.2-5.63.18-8.61 0-8.61 8.67-8.61h44.14c14.37 0 22.1 7.74 22.23 22.17.06 10.43 0 20.83 0 31.3zm-49.1-.31v35c0 2.85.8 4.21 3.9 4.15h18.56c7.68-.44 9.54-2.54 9.6-10.34s0-17.15 0-25.76v-30.67c0-8.23-2.29-10.71-10.59-11.08h-16.52c-3.71 0-4.83 1.24-4.76 4.83v34z"/><path d="m364.56 253.5h-31c-3.4 0-5-1-4.58-4.46a19.09 19.09 0 0 0 -.49-4.52c-.37-3.9.62-6.19 5.2-5.7 2.6.37 3.4-1.24 3.4-3.65v-70c0-3.34-1.36-4.52-4.39-4.21s-4.21-1.11-4.21-4.27c.37-12-1.86-9.9 9.78-10h56.16c4 0 5.38 1 5.2 5.14v22.1c0 3.16-1.12 4.4-4.34 4.34-14.42-.37-11.76 2.17-11.7-11.27 0-4.71-1.24-6.19-6.19-6.19-6.19.37-12.38 0-18.57 0-3.16 0-4.46.87-4.4 4.15v22.53c0 3.35 1.3 4.15 4.4 4.09h22.17c3.65 0 5.26.93 5.14 4.89-.37 11.08 1.55 9.41-9.47 9.54h-18.61c-2.72 0-3.71.93-3.65 3.71v25.33c0 2.78 1 3.77 3.78 3.71h22.1c3.28 0 4.21-1.42 4.09-4.46a71.34 71.34 0 0 1 0-11.51c0-1.18 2-2.29 3.09-3.41h.43c12.39-.87 12.39-.87 12.39 11.58v17.46c0 3.71-.81 5.14-4.83 5-10.03-.11-20.46.01-30.9.08z"/><path d="m87.06 199.82v-32.7a19.19 19.19 0 0 1 17.52-20.73 20 20 0 0 1 3.1 0h24.32c14.92 0 21.85 6.19 22.1 20.87.44 22.41.31 44.82 0 67.18a18.57 18.57 0 0 1 -17.81 19.3h-.76c-9.66.44-19.38.5-29 0a18 18 0 0 1 -19.5-18.94c-.53-11.64.03-23.34.03-34.98zm17.33.61v28.92c0 6.69 2.17 8.91 8.73 9.22h16a6.87 6.87 0 0 0 7.44-6.26 7.22 7.22 0 0 0 0-1.23c.43-9.9.62-19.87.62-29.84s-.25-21.73-.62-32.57a7.61 7.61 0 0 0 -7.3-7.92h-.56a119.11 119.11 0 0 0 -12.39-.44c-9.59 0-12.38 2.79-12.38 12.39s.37 18.51.37 27.73z"/><path d="m47.8 219.75h13.87a4.19 4.19 0 0 1 2.66 3v26.68c0 2.48-.86 3.72-3.46 3.72-14.12 0-28.24 0-42.29-.68a17.46 17.46 0 0 1 -17.58-17.3 133.13 133.13 0 0 1 -.62-16.17c0-17-.44-34.06.62-51 1-15.42 8.29-21.24 24.14-21.24h33.13c4.58 0 5.76 1.43 5.57 5.76-.37 7.06 0 14.12 0 21.18 0 3.21-.87 4.64-4.4 4.7-12.38 0-12.38 0-12.38-12.38 0-3.66-1-5.33-4.89-5.08s-8.92 0-13.37 0c-8 .56-10.28 3.16-10.28 10.46v58.89c0 5.32 2 8.11 7.92 8.11s11.64 0 17.46.37c3 0 4.09-1 4-4-.22-4.62-.1-9.51-.1-15.02z"/><path d="m300.05 238c9.9 1.73 9.78 1.73 9.41 11.7 0 3.09-1.3 4-4.21 3.9h-27.12c-3.47 0-4.77-1.24-4.46-4.58q.09-1.83 0-3.66c0-6.19 0-6.19 6.19-6.68 2.6 0 3.47-1.12 3.47-3.66v-40.53c0-3.34-1.67-4-4.27-3.65-4.58.62-5.7-1.49-5.57-5.76.3-10.46-.81-9.1 9.1-9.16h12.41c4.09 0 5.08 1.05 5 5v51.95c.05 1.56.05 3.23.05 5.13z"/><path d="m279.61 155.17a9.62 9.62 0 0 1 9.42-9.72 9.29 9.29 0 0 1 9.16 9.41 9.1 9.1 0 0 1 -8.54 9.6h-.75a9.23 9.23 0 0 1 -9.29-9.1z"/></g></svg>