<svg viewBox="0 0 400 400" xmlns="http://www.w3.org/2000/svg"><g fill="#2d2f2e"><path d="m51.18 249.45c-27.72 0-49-19.66-51-45a48.89 48.89 0 0 1 91.12-28.14c.75 1.28 2.78 3-.28 3.89-2 .56-3.78 4.14-6.2-.17a41.23 41.23 0 0 0 -44.89-20 41.53 41.53 0 1 0 44.26 62.39c2.25-3.69 4.3-3.94 7.75-1.16 1.64 1.36 0 2.3-.36 3.16-9.58 16.17-24.01 24.5-40.4 25.03z"/><path d="m51.35 165.23c10.5.36 20.61 5.91 27.78 17 1.36 2.13 1.61 3.63-1.28 4.38a3.8 3.8 0 0 0 -1.22.62c-2.42 1.72-3.75 1.13-5.56-1.48a26.39 26.39 0 0 0 -29.91-10.94 26.86 26.86 0 1 0 30.14 40.78c.69-1 .91-3.14 2.47-2.78a21.41 21.41 0 0 1 6.33 3.19c.89.61-.36 1.81-.8 2.64a35.31 35.31 0 0 1 -64.81-26.06c3.61-15.88 18.06-27.32 36.86-27.35z"/><path d="m205.72 200.26v-7.12c0-1-.7-2.61.86-2.91s3.75-.95 4.75.41 1.11 1.09 2.14.42a7 7 0 0 1 9.53.83c.94 1 1.3.64 2-.13a7.31 7.31 0 0 1 8.34-1.48 6.83 6.83 0 0 1 3.91 7v11.11c0 2.58-1.69 1.94-3 1.86s-3.41 1-3.33-1.86 0-6.34 0-9.53c0-1.81-.31-3.5-2.56-3.69a3.28 3.28 0 0 0 -3.79 2.66 3.78 3.78 0 0 0 0 .75 68.45 68.45 0 0 0 0 9.5c.19 2.64-1.39 2.34-3 2.25s-3.53.78-3.39-2.22 0-6.33 0-9.53c0-1.83-.61-3.39-2.78-3.39a3.06 3.06 0 0 0 -3.33 2.76.91.91 0 0 0 0 .33 94.41 94.41 0 0 0 0 9.81c.14 3-1.92 2-3.39 2.19s-3.2.28-3-2.27.04-5.14.04-7.75z"/><path d="m169.44 200.23v-7.14c0-1-.7-2.61.86-2.78s3.78-1 4.78.45 1.08 1 2.11.36a7.08 7.08 0 0 1 9.31.64c1 .88 1.36.8 2.38 0 5.56-4.37 11.5-1.92 12.25 5 .39 3.92 0 7.92.2 11.87 0 2.91-2.17 1.58-3.45 1.72s-3 .64-3-1.89v-9.86c0-1.72-.47-3.2-2.55-3.31a3.19 3.19 0 0 0 -3.68 2.62 3.75 3.75 0 0 0 -.05.47 68.93 68.93 0 0 0 0 8.86c.14 2.44-.44 3.39-3.11 3.3s-3.72-.53-3.47-3.3a70.56 70.56 0 0 0 0-8.48c0-1.75-.42-3.5-2.78-3.61a3.31 3.31 0 0 0 -3.7 2.86 3.43 3.43 0 0 0 0 .64 63.79 63.79 0 0 0 0 9.17c.25 2.78-1.36 2.5-3.11 2.44s-3.5.59-3.28-2.3a74.25 74.25 0 0 0 .29-7.73z"/><path d="m177.22 225.54c-2.23 6.33-4.34 12.63-6.73 18.86-.86 2.27-3.19.75-4.83 1.08s-1.94-.67-2.3-1.86c-1.06-3.56-2.2-7.08-3.64-11.64-1.25 4.5-2.25 8-3.2 11.47-.3 1.14-.55 2.36-2.11 2.06s-4.19 1.22-5.17-1.2c-2.44-6.19-4.58-12.5-6.86-18.72l.61-.28c5.73-.44 5.73-.44 7.5 4.89.64 1.92 1.28 3.86 1.95 5.78a10.09 10.09 0 0 0 .67 1.36c1-3.61 2-6.61 2.77-9.69.45-1.78 1.14-2.78 3.2-2.45s4.36-1.14 5.08 2.25 1.83 6.22 2.92 9.75a28.76 28.76 0 0 0 2.55-7.39c1.56-5.08 1.53-5.08 7.59-4.27z"/><path d="m130.88 211.09c-6.22 0-11.42-2.25-14.19-8.08a15.58 15.58 0 0 1 17.53-22.5 8 8 0 0 1 3.44 1.36c1.11.75 3.69 1.44 2.25 3.11s-2.31 4.47-5.56 2.33a7.89 7.89 0 0 0 -10.58 2.14 10.76 10.76 0 0 0 .61 13.17 7.84 7.84 0 0 0 10.75.64c3-2.14 4 1.27 5.56 2.36s-.5 2-1.36 2.78a12.59 12.59 0 0 1 -8.45 2.69z"/><path d="m266.14 200.26v-7.14c0-1-.67-2.61.91-2.78s3.78-1 4.75.44 1.11 1 2.09.39c5.78-3.44 11.11-.8 11.66 5.81.28 3.83 0 7.69 0 11.55 0 3.14-2.27 1.7-3.63 1.95s-2.78 0-2.78-2.2a81.28 81.28 0 0 0 0-8.83c0-2.11-.53-4.19-3.39-4.08s-3.45 1.91-3.59 4.08a81.28 81.28 0 0 0 0 8.83c.23 2.78-1.44 2.25-3 2.23s-3.55.61-3.33-2.31.31-5.36.31-7.94z"/><path d="m261.58 200.28v7.12c0 1 .78 2.61-.86 2.77s-3.92 1-4.75-.41-1-1-2-.42c-5.89 3.61-11.33.89-11.75-5.92-.22-3.72 0-7.5 0-11.11 0-3 1.92-2.05 3.44-2.22s3 0 2.78 2.44c-.19 2.92 0 5.87 0 8.84 0 2.08.61 3.94 3.11 4s3.64-1.53 3.73-3.89c.13-2.72.13-5.45 0-8.17-.17-2.42.41-3.39 3.11-3.33s3.55.5 3.27 3.16a63.18 63.18 0 0 0 -.08 7.14z"/><path d="m248.72 246.15a28.68 28.68 0 0 1 -3.69-.61c-1.28-.39-3-.7-3.31-2.09s1.47-2.11 2.28-3.16 1.08-.89 1.94-.25a6.15 6.15 0 0 0 2.42 1.11c1.3.27 3.14.55 3.53-1s-1.5-1.77-2.78-2.16-2-.45-3-.75a5.56 5.56 0 0 1 -4.5-5.39 6.06 6.06 0 0 1 3.87-6.2 11.4 11.4 0 0 1 9.83.14c.8.39 2.42.81 1.61 2s-1.67 3.05-3.75 2.77c-.42 0-.78-.47-1.19-.66-1.42-.59-3.2-1-3.81.72s1.36 1.89 2.56 2.25 2.19.5 3.27.86a5.55 5.55 0 0 1 4.36 5.36 5.92 5.92 0 0 1 -4.11 6 18.61 18.61 0 0 1 -5.53 1.06z"/><path d="m348.72 184.2c2.45-.58 3.36.53 3 2.78s.5 3.39 2.78 3 2.78.61 2.78 2.78-.64 2.78-2.53 2.42c-2.78-.48-3.33.88-3.05 3.25a21.35 21.35 0 0 1 0 3.75c0 2.38.94 3.66 3.44 3.38 1.31-.13 2.31 0 2.06 1.64s.66 2.92-1.53 3.53c-5.89 1.7-10.2-1.36-10.22-7.47v-4.75c0-1.83.36-3.75-2.78-3.42-1.78.2-1.36-1.41-1.36-2.44s-.45-2.78 1.33-2.53c2.5.22 3-1 2.64-3-.28-2.75 1.08-3.39 3.44-2.92z"/><path d="m312 210.9a11.32 11.32 0 0 1 -11.11-6.31 10.67 10.67 0 0 1 2.11-11.67 11.42 11.42 0 0 1 12.25-2.55c1.14.39 2.78.64 2.78 2.36s-3.53 3.33-5 2.78a4.7 4.7 0 0 0 -6.21 2.35 5.24 5.24 0 0 0 -.26.76 5.11 5.11 0 0 0 3.21 6.47 4.34 4.34 0 0 0 .48.14 3.69 3.69 0 0 0 2.95-.47 1.55 1.55 0 0 1 2.2-.08 1.52 1.52 0 0 1 .35.49c.78 1.09 2.78 1.75 2.28 3.11s-2.22 1.75-3.64 2.12c-.83.2-1.6.37-2.39.5z"/><path d="m206.83 227.23a26 26 0 0 1 3.22-2.08c1.25-.59 2.95-1.09 3.84 0s.5 3.25.36 4.89c0 1-1.06.36-1.61.33-4.51 0-5.92 1.14-6.17 5.55a34.42 34.42 0 0 0 0 6.42c.33 2.78-1 3.2-3.45 3.33-3 .12-3-1.27-3-3.44v-13.53c0-1.14-1-3.19 1-3.33s4.98-1.45 5.81 1.86z"/><path d="m392 192.48a25.82 25.82 0 0 1 3-2.22 4.4 4.4 0 0 1 4.22-.28c1.31.78.48 2.3.64 3.47s-.5 1.81-2 1.83c-4.83 0-5.92 1.23-6 6.06v6.81c.25 3-1.86 2.11-3.39 2.19s-3.11.39-3-2.25c.23-5.08 0-10.19 0-15.31 0-1.36-.3-3 1.89-2.77 1.78.36 4.5-1.34 4.64 2.47z"/><path d="m135.27 162.5c6.53-2.16 8.72-.55 8.83 6.23v4.39c0 1.61-.33 2.27-2 2.3s-2.31-.78-2.22-2.44 0-3.61 0-5.56c0-1.22-.5-2.25-2-2.28a2.13 2.13 0 0 0 -2.38 1.84 1.41 1.41 0 0 0 0 .41v5.61c0 1.94-.31 2.5-2.23 2.47s-2-.8-2-2.28v-16.71c0-1.48.27-2.25 2-2.28s2.28.86 2.23 2.47-.23 3.89-.23 5.83z"/><path d="m119.44 167.34v-3.34c.22-2.78.16-5.31-3.89-4.47-1.34.27-1.75-.61-1.72-1.86s.25-2 1.63-2h12.54c1.53 0 1.42 1.06 1.45 2.11s-.28 1.89-1.48 1.67c-4.39-.81-4.3 1.92-4.16 4.94s0 5.89 0 8.87c0 1.55-.48 2.19-2.14 2.19s-2.48-.5-2.36-2.33.13-3.86.13-5.78z"/><path d="m296.47 200.65v7.77c0 2.59-1.94 1.86-3.28 1.89s-3.05.78-3-1.83v-16.22c0-2.62 1.56-2.23 3.11-2.2s3.31-.53 3.2 2.11-.03 5.64-.03 8.48z"/><path d="m296.89 183.87a3.33 3.33 0 0 1 -3.22 3.44 2.63 2.63 0 0 1 -.56 0 3.21 3.21 0 0 1 -3.33-3.1 3.54 3.54 0 0 1 .05-.73 3.2 3.2 0 0 1 3.17-3.28h.45a3.39 3.39 0 0 1 3.48 3.29c-.03.13-.03.25-.04.38z"/><path d="m143.72 243.54q-5.76-13-11.34-26.12c-.72-1.72-2-1.55-3.33-1.5s-2.61-.36-3.39 1.42c-3.86 9.2-7.92 18.39-12.14 28.17h5.33c1.56 0 2.23-.25 2.48-1.67.72-4.25 3.44-5.3 7.33-4.67a13.73 13.73 0 0 0 3.39 0c1.83-.19 3.14.31 3.5 2.25.69 3.89 3.28 4.5 6.69 4.14 1.53-.16 2.2-.19 1.48-2.02zm-13.89-9.81h-2.78c-1 0-2-.25-1.36-1.72.89-2.14 1.72-4.34 2.78-7.34 1.13 2.78 1.86 4.89 2.77 6.81s0 2.33-1.61 2.22z"/><path d="m237.55 242.81v-26.53c0-2.44-1.22-2.52-2.94-2.38s-3.56-.64-3.39 2.27c.17 3.39 0 6.75 0 10.31h-.86c-5-2.78-9.25-2.17-12.22 1.39a12.39 12.39 0 0 0 -.48 14.58 9.31 9.31 0 0 0 12.48 1.92c.91-.5 1.11-.78 1.83.47s3.11.78 4.67.58.91-1.69.91-2.61zm-10.64-2.44a4.67 4.67 0 0 1 -5-4.26 4 4 0 0 1 0-.49 5 5 0 0 1 10-1v.38a4.75 4.75 0 0 1 -4.25 5.2 5.4 5.4 0 0 1 -.7 0z"/><path d="m154.55 189.67a10.64 10.64 0 1 0 11.11 10.75 10.4 10.4 0 0 0 -10-10.77c-.37-.01-.74 0-1.11.02zm0 15.73a4.85 4.85 0 0 1 -5-4.64v-.53a4.73 4.73 0 0 1 4.39-5 6.26 6.26 0 0 1 .75 0 4.61 4.61 0 0 1 4.81 4.4 5 5 0 0 1 0 .55 4.81 4.81 0 0 1 -4.34 5.23 5.3 5.3 0 0 1 -.69 0z"/><path d="m370.61 189.67a10.64 10.64 0 1 0 11.25 10.48 10.35 10.35 0 0 0 -10.21-10.51 9.1 9.1 0 0 0 -1.04.03zm.2 15.73a4.83 4.83 0 0 1 -5.11-4.54v-.55a4.75 4.75 0 0 1 4.36-5.11h.69a4.7 4.7 0 0 1 4.94 4.44 4.86 4.86 0 0 1 0 .76 4.74 4.74 0 0 1 -4.49 5z"/><path d="m339.5 206.67v-3.41h-.17a53.39 53.39 0 0 0 0-6.45 7 7 0 0 0 -5.55-6.8 13.53 13.53 0 0 0 -9.28.94c-1 .53-3.56.58-2.19 2.78.83 1.36 1.88 3.08 4.25 1.25a4.46 4.46 0 0 1 6.31.27l.13.15c.89 1 1.11 2-.86 2.16a45.66 45.66 0 0 0 -6.06.67c-4.47 1-6.58 3.92-5.8 7.72a7 7 0 0 0 8.16 4.92 8.37 8.37 0 0 0 3.78-1.36c.5-.31.86-1 1.59 0 1.41 1.91 3.61 1.08 5.22.64s.33-2.31.47-3.48zm-5.8-3.52c-.39 2.77-2.39 3.22-4.62 3.61-1.44-.28-3.27-.61-2.77-2.48.55-2.91 3.27-2.5 5.55-2.77 1.14 0 2.28 0 2.06 1.66z"/><path d="m196.69 241.92a33 33 0 0 0 0-3.72v-5.55a7.83 7.83 0 0 0 -7.52-8.14 6.06 6.06 0 0 0 -1 0 13.41 13.41 0 0 0 -6.89 1.52c-.86.48-2.94.81-1.8 2.45.83 1.19 1.67 3.41 4.17 1.47a4.59 4.59 0 0 1 6.47.22 1.59 1.59 0 0 1 .58 1.81c-.28.69-.94.47-1.47.5a19.7 19.7 0 0 0 -8 1.36 5.85 5.85 0 0 0 -3.83 6.72 5.55 5.55 0 0 0 5 5.2 8.79 8.79 0 0 0 6.86-1.06c.5-.31 1.09-1.56 1.73-.25 1.16 2.42 3.25 1.17 4.72 1s.81-2.33.98-3.53zm-5.75-3.86c-.28 2.59-2.08 3.53-4.47 3.59-1.56 0-3.31-.34-3.11-2.17.33-2.78 2.77-2.56 5-2.78.91.3 2.83-.91 2.58 1.36z"/><path d="m157.91 171.42c-1.64-.66-2.55 1.31-4.08 1.11s-2.56-.47-2.59-1.72 1.48-.8 2.34-.92c2.3-.33 4.75.59 7-.61-.33-3.11-.81-6.14-4.28-7.39a7.6 7.6 0 0 0 -8.61 2.78 7.13 7.13 0 0 0 .64 8.5 8 8 0 0 0 9.31 1.53c2.02-.94 1.99-2 .27-3.28zm-4.22-6.86c1.11 0 2.22.47 2.19 1.64 0 1.64-1.61.47-2.22 1-1-.36-2.53.56-2.53-1s1.36-1.64 2.56-1.64z"/></g></svg>