<svg viewBox="0 0 400 400" xmlns="http://www.w3.org/2000/svg"><g fill="#2d2f2e"><path d="m131.88 253.47c-1.34 3.82-2.44 7.74-4.08 11.42-1.55 3.41-4.38 4.67-6.17.5-2.77-6.43-4.72-13.2-7-19.83-.45-1.3-.4-2.39 1.18-2.77 2.28-.54 3.6.45 4.38 2.59 1.55 3.92 1.61 8.44 4.45 12.23 2.92-3.12 2.69-7 4.26-10.2.9-1.82.61-4.68 3.66-4.71 3.3 0 3.49 2.92 4.25 5 1.11 3.14 2 6.34 3.32 10.57 3.44-4.1 3.47-8.31 4.87-11.89.83-2.15 1.46-4.46 4.37-3.56 3.15 1 1 3.21.59 4.72-1.69 5.55-3.68 11-5.45 16.56-.65 2-1.56 3.6-3.91 3.58-2.11 0-2.7-1.69-3.25-3.35-1.24-3.61-2.53-7.2-3.8-10.8z"/><path d="m306.86 252.92c-2.28-.81-6.31-.51-5.53-4.19.66-3 4.08-1.31 6.34-1.45 1.78 1.7 3.59 1.56 4.49-.66s-1.34-2.68-2.78-3.21a12.09 12.09 0 0 0 -8.95-.17c-3.76.87-4.88 3.53-4.82 7 .08 3.87 2.81 5.19 5.83 6.53 2.55 1.15 7.82.47 6.63 4.58-1.08 3.7-5.25 1.69-8.15.48-.83-.34-2-.88-2.61-.57-1.46.71-3.35 2.14-1.28 3.75a13.85 13.85 0 0 0 13.11 2.2 6.61 6.61 0 0 0 4.86-6.5c.17-4.97-3.28-6.45-7.14-7.79z"/><path d="m395.45 156.64c-4.94-1.74-10-2-13.35 3.4h-.1c-3.47 3.57-3.7 8.32-4.51 12.79a64.84 64.84 0 0 1 -5.38 18.06c-3.11 6.11-8.11 9.11-14.85 7.96-6.37-1.09-9.22-5.83-10-11.89-.47-3.6-.41-7.28-.67-10.88-.41-5.29-2.48-9.87-8.15-10.44-6.48-.65-6.85 4.75-7.52 9.4-1.29 8.85-4.37 17.27-13.64 19.73-10.44 2.77-19.48-1.45-26.6-9.6-3.21-3.69-4.07-5.61 2.08-7.61 14-4.53 18.94-14.87 14.05-26.95-3.43-8.43-10-9.91-16.37-3.47-3.39 3.45-6.31 7.39-9.56 11-2 2.2-4.24 4.23-7.56 2.19s-4.81-4.86-3.61-8.63c.87-2.75 2.33-5.33 3.28-8.07s1.95-6-1.17-7.9-6.14-1-8.83 1.05a25 25 0 0 0 -6.05 8.1c-5.83 10.59-11.87 21.13-17.73 31.75-2.44 4.37-4.37 6.52-8.37 1-6.86-9.68-14.1-19.1-21.61-28.3-3.51-4.37-8.38-7.11-14.1-3.9-4.51 2.5-5.83 11-2.67 16.52a129.53 129.53 0 0 0 7.58 11.54c5.07 7.14 4.18 14.68 1.57 22.24-1 2.8-2.84 5.33-6.25 5.29-3.1 0-4.58-2.58-5.71-5-2.7-5.83-4.58-11.75-3.32-18.26.33-1.76.23-3.53-1.56-4.44-2.28-1.17-3.65.45-4.83 2-.86 1.16-1.45 2.55-2.26 3.74-3.77 5.41-8 10.45-13.72 13.86s-13.44 2.38-16.63-2.17c-4.14-5.83-.89-10.67 3.13-14.82a30.68 30.68 0 0 1 18.54-9.35c2.91-.38 6.54-.82 6.1-4.7-.47-4.09-4-5.33-7.72-4.82a69.42 69.42 0 0 0 -18.64 6c-13.48 6-20.81 17-23.62 31.14-1.46 7.29 1.37 12.78 8.35 14.92 12.15 3.72 24.07 3.25 34.56-5 9.39-7.28 9.29-7.46 16.13 2.47.41.59.81 1.22 1.26 1.79 3.51 4.54 8 7.12 13.86 6.15s7.5-5.7 8.91-10.44c1.13-3.77 1.81-7.68 2.92-12.72 3.19 6 5.54 10.67 8.2 15.2 2.83 4.81 6.84 5.58 11.79 3 6.4-3.32 10.2-8.91 13.26-15 3.64-7.13 7.08-14.35 10.57-21.58 1.25-2.6 2-6.18 5.29-6.28 3-.1 3.59 3.47 5 5.68 3.84 6.25 6.21 13.11 9.16 19.79 3.6 8.1 9.18 14.28 17.57 17.49 13.11 5 25.05 3.14 36-6.07 9.22-7.76 9.4-7.47 16 1.46 4.69 6.38 10.88 9.73 18.94 8 4.88-1.08 6.4 1.26 6.18 5.31-.35 6.3-1 12.58-1.75 18.83-2.61 22.3-9.72 42.42-26.84 58.13-7.68 7-16.85 11.31-25.9 15.94-2.91 1.46-5.45 3.48-4.69 7.29s4 5.32 7.54 5.64a25.5 25.5 0 0 0 14.57-3.52c23.9-13.12 40.48-32.35 48-58.63 8.31-29.1 10.55-59.55 17.92-88.92h.05c.22-2.21.53-4.37.64-6.42.17-3.71 1.83-8.32-3.16-10.07zm-106.09 10.55c1.91-3.45 3.7-7.29 7.84-8.74 1.59-.53 2.8 1.15 2.56 2.6-.71 4.56-4.21 6.52-7.47 7.84-1.97.11-3.62-.45-2.93-1.7z"/><path d="m116.43 101.6c-22-15.53-47.71-21.9-73.92-26.29a67.31 67.31 0 0 0 -26.23 0 19.87 19.87 0 0 0 -10.7 1.21 7.5 7.5 0 0 0 -5.25 7.27c0 3.75 2.69 5.42 5.83 6.53s6.71.86 10.09.76c4.85-.16 9.69-.44 14.57-.57 2.91-.07 4.59.95 4.17 4.37-1.46 11.25 1.32 22.21 2.59 33.24 2.22 19.27 4.81 38.47 8.86 57.46 1.14 5.3 2.33 11.06-1.37 16.13-4.79 6.59-4.71 7 3.19 8.66a34.44 34.44 0 0 0 8.64.9c26.63-1.55 49.71-11.54 67.21-31.62 19.89-22.89 16.12-61.23-7.68-78.05zm1 58a104.47 104.47 0 0 1 -44.59 34c-8.41 3.49-11.66 1.1-13.48-8.2-4.47-22.68-4.72-45.8-7.82-68.65-1.15-8.36-2.19-16.75-8.54-25.35 23.14 4.23 43.34 10.75 61.73 22a44.05 44.05 0 0 1 10.93 9.53c9.69 11.54 10.79 24.57 1.76 36.67z"/><path d="m97.43 264.05c-2.67-6.22-5.12-12.55-8.05-18.65-2.08-4.37-5.2-4.37-7.28 0-2.92 6.07-5.35 12.44-8.06 18.66-.79 1.82-1.11 3.28 1.94 3.66a11.35 11.35 0 0 0 2.11-1.22c7.1-6.2 7.88-6.23 15.07 0a3.27 3.27 0 0 0 3.93.77c1.36-.88.91-2.07.34-3.22zm-11.5-6.59c-1.82 0-3.41-.43-2.81-2.8.39-1.45.6-3.81 2.42-3.84 2.44 0 1.95 2.77 2.82 4.16.46 2.19-.9 2.47-2.43 2.48z"/><path d="m189.22 263.89c-2.6-6-5.15-12-7.71-18-.79-1.85-1.71-3.52-4.13-3.36a4.21 4.21 0 0 0 -3.64 3.07c-2.65 6.22-5.3 12.45-8 18.65-.94 2.14-.38 3.21 2.2 3.35.45-.24 1.29-.4 1.64-.91 5.16-7.38 10.31-7.29 15.67-.22a2.69 2.69 0 0 0 3.74.71l.12-.09c1.27-.93.66-2.09.11-3.2zm-9.52-6.95a3.22 3.22 0 0 1 -4.55 0c-1.83-2.74.61-4.65 2.33-7 1.99 2.28 3.91 4.36 2.22 7z"/><path d="m264.58 243a70.22 70.22 0 0 0 -9.4.09c-2.62-.2-2.47 1.62-2.46 3.35v10.9c0 10.83 0 10.84 10.73 9.91a10 10 0 0 0 2-.7c7.21-.76 9.83-5.48 9.86-12 .11-6.25-4.11-10.77-10.73-11.55zm-2.82 20.13c-6.62.17-2.8-5.24-4.38-7.61 1.23-3.19-2.11-8.32 4.38-8.26 5.14 0 8.29 2.61 8.26 7.88s-3.24 7.86-8.26 7.98z"/><path d="m229.48 256.19c4.63-6.23 1.37-12.73-6.4-13.36a77.26 77.26 0 0 0 -8.74.28c-3.43-.67-3.32 1.67-3.32 3.92 0 4.79-.16 9.62 0 14.41.11 2.16-1.46 6 1.6 6.14 4.66.24 1-4 2-5.92.45-.85.93-1.65 1.46-2.48 4.94-.48 6.38 3.56 8.61 6.62 1.3 1.78 3.26 2.59 5.05 1.31 2.23-1.6 0-3.1-.91-4.15-2.11-2.66-1.27-4.22.65-6.77zm-6.34-1.19c-3 0-7.17 2.72-7.9-2.83-1-7.08 3.78-5.66 7.91-4.88 4.11 2.55 4.2 5.11 0 7.68z"/></g></svg>