<svg viewBox="0 0 400 400" xmlns="http://www.w3.org/2000/svg"><g fill="#2d2f2e"><path d="m342.91 149.09c1.34 1.47 2.62 2.93 4 4.33l22.2 23.36 19.45 20.38 3.24 3.41v-48.25h8.2v68l-48.8-51.32v48.79h-8.47v-68.7z"/><path d="m83.62 224.48a40.07 40.07 0 0 1 -13.72-11.83 38.06 38.06 0 0 1 4.09-50 39.77 39.77 0 0 1 24.39-11.55 41 41 0 0 1 32.39 9.7 38.19 38.19 0 0 1 13 22.57 1.35 1.35 0 0 1 0 .49c-2.56-.86-5.12-1.89-7.74-2.56a41.42 41.42 0 0 0 -38.43 8.11 37.46 37.46 0 0 0 -14.21 31.72 31.25 31.25 0 0 0 .23 3.35z"/><path d="m301.25 219.11a34 34 0 0 1 -34.25-33.42v-1.16a34.34 34.34 0 0 1 68.5 1.16 34 34 0 0 1 -34.25 33.42zm26.11-34.11v-2.08a10.9 10.9 0 0 0 0-1.4 25.54 25.54 0 0 0 -9.15-17.08 26 26 0 0 0 -18.79-5.79 25.18 25.18 0 0 0 -16.42 7.4 27 27 0 0 0 -4.63 31.84 26 26 0 0 0 48.79-12.69z"/><path d="m8.17 186.3v31.35h-8.17v-65.33h8.17v26.23h31.05v-26.29h8.17v65.39h-8.17v-31.35z"/><path d="m176.88 189.23 20.68 28.48h-9.51a1.46 1.46 0 0 1 -1.29-.73l-18.29-26.41a1.28 1.28 0 0 0 -1.28-.61h-2.51v27.69h-8.23v-65.33h17a20.68 20.68 0 0 1 9.57 2.51 17.22 17.22 0 0 1 9.15 13.78 18.29 18.29 0 0 1 -4.76 15.19 16.65 16.65 0 0 1 -9.63 5.24zm-12.2-6h3.48a27.41 27.41 0 0 0 11.47-2.32 8 8 0 0 0 3.78-3.84 13.53 13.53 0 0 0 1-8.05 8.71 8.71 0 0 0 -5.74-7.38 34.34 34.34 0 0 0 -14-2z"/><path d="m231.78 210.09h33.06v7.5h-46.6l33.12-58h-28.36v-7.32h41.72z"/><path d="m211.47 217.65h-8.12v-65.33h8.12z"/><path d="m285.51 251.87-4.63-12.2-4.64 12.2-6.77-17.08a10.58 10.58 0 0 1 1.95 0 2.85 2.85 0 0 1 .61.73l4 10.25a3.11 3.11 0 0 1 0 .61l4.64-12.2 4.57 12.2.37-.79c1.28-3.24 2.56-6.47 3.78-9.76a1.22 1.22 0 0 1 1.35-1.07.47.47 0 0 1 .17 0 3.76 3.76 0 0 0 1.16 0z"/><path d="m56.11 246.68v-12.2h2v17l-12.2-12.75v12.2h-2.06v-17.12z"/><path d="m341.93 251.32v-16.53a24.33 24.33 0 0 1 7.32.55 8.11 8.11 0 0 1 -1 15.49c-2.11.24-4.18.43-6.32.49zm2.14-14.64v12.56a11 11 0 0 0 4.88-.73 5.6 5.6 0 0 0 3.47-6.1 5.4 5.4 0 0 0 -3.66-5.3 11 11 0 0 0 -4.69-.67z"/><path d="m103.69 234.91a48.58 48.58 0 0 1 5.12 0 4.21 4.21 0 0 1 3.79 4.21 4.42 4.42 0 0 1 -3.42 4.76h-.43l5.13 7.13h-2.2a1.33 1.33 0 0 1 -.73-.61c-1.34-1.89-2.62-3.84-4-5.73a3 3 0 0 0 -.85-.55 2.64 2.64 0 0 0 -.37.86v6.09h-2zm2.07 1.53v6.1a19.91 19.91 0 0 0 3.42-.68 2.3 2.3 0 0 0 1.46-2.44 2.18 2.18 0 0 0 -1.4-2.37 19.23 19.23 0 0 1 -3.48-.74z"/><path d="m328.27 244.12 5.12 7h-2.39a3.17 3.17 0 0 1 -.55-.49l-4.09-6.1a2.44 2.44 0 0 0 -.91-.61v6.77h-2.2v-15.9a20.51 20.51 0 0 1 6.1.43 4.63 4.63 0 0 1 0 8.6zm-3-7.62v6.1a33.31 33.31 0 0 0 3.42-.67 2.38 2.38 0 0 0 1.46-2.44 2.26 2.26 0 0 0 -1.52-2.44 29.59 29.59 0 0 0 -3.36-.61z"/><path d="m314.67 251.2h-1.89a1.36 1.36 0 0 1 -.61-.55c-.49-1-.92-2-1.34-2.93a.86.86 0 0 0 -1-.67h-6.1a.91.91 0 0 0 -1 .61c-.37.91-.8 1.77-1.16 2.68a1.1 1.1 0 0 1 -1.29.87h-1.46l7.87-17.14zm-5-6.1-2.87-6.53-2.8 6.53z"/><path d="m128.82 234.06 7.87 17.14a10.58 10.58 0 0 1 -1.95 0 .59.59 0 0 1 -.55-.49 27.54 27.54 0 0 0 -1.41-3.05 1.13 1.13 0 0 0 -.85-.55h-6.1a.73.73 0 0 0 -.85.55c-.43.91-.86 1.77-1.22 2.68a1.17 1.17 0 0 1 -1.34.92 4.65 4.65 0 0 0 -1.29 0zm2.87 11.1-2.87-6.53-2.82 6.47z"/><path d="m262.82 251.14h-1.95a3.6 3.6 0 0 1 -.55-.49c-.12-.19-.91-2-1.34-2.93a.85.85 0 0 0 -.91-.67h-6.07a.85.85 0 0 0 -.92.61c-.36.91-.85 1.77-1.16 2.68a1.09 1.09 0 0 1 -1.29.87h-1.39l7.87-17.14zm-7.82-12.51-2.87 6.47h5.67z"/><path d="m85.39 234.85h8.72v1.77h-6.71v4.57h6.47v1.89h-6.4v6.1h6.58v1.82h-8.66z"/><path d="m225.68 251.14h-8.68v-16.29h8.66v1.77h-6.59v4.57h6.1v1.89h-6.1v6.1h6.59z"/><path d="m372.55 236.92-1.34.86a9.72 9.72 0 0 0 -2.32-1.28 3.27 3.27 0 0 0 -2.19.36 1.89 1.89 0 0 0 0 3.42 10.48 10.48 0 0 0 1.71.85c.79.37 1.64.67 2.37 1.1a4.76 4.76 0 0 1 2.2 6.1 5.19 5.19 0 0 1 -5.55 3.42 5 5 0 0 1 -4.45-4.64l1.77-.43a7 7 0 0 0 .54 1.47 3 3 0 0 0 5.62-.74 2.69 2.69 0 0 0 -1.22-3.17c-.74-.42-1.53-.67-2.26-1.09a22.23 22.23 0 0 1 -2.07-1 4 4 0 0 1 -1.29-5.43 3.86 3.86 0 0 1 1.47-1.34 4.93 4.93 0 0 1 6.86 1.34z"/><path d="m157.06 237.84a6.59 6.59 0 0 0 -9.21.79 6.84 6.84 0 0 0 0 8.66c2.32 2.75 5.31 3 9.21.73v2.08c0 .67-.3.43-.55.55a8.43 8.43 0 0 1 -9-1 8 8 0 0 1 -3-8.54 8.73 8.73 0 0 1 10.48-6.51 9.81 9.81 0 0 1 1.3.41 1.16 1.16 0 0 1 .91 1.34 12 12 0 0 0 -.14 1.49z"/><path d="m194.21 234.79a9.94 9.94 0 0 1 1.89 0 1.33 1.33 0 0 1 .67.73l4.23 10.48.24.67.43-.85 4-10.07c.31-.85.67-1.15 1.53-1h1.16l-7.08 17.25z"/><path d="m67.09 236.68v-1.83h9.76v1.77h-3.85v14.52h-2.12v-14.46z"/><path d="m169 236.68h-3.84v-1.83h9.76v1.77h-3.78v14.45h-2.07z"/><path d="m31.78 251.07v-16.22h2v16.22z"/><path d="m183.65 234.85h2v16.29h-2z"/></g></svg>