<svg viewBox="0 0 400 400" xmlns="http://www.w3.org/2000/svg"><g fill="#2d2f2e"><path d="m400 112v57.64h-220.7v112.07c0 3.2 0 3.2-3.28 3.2h-59.62v-112.42c0-2.94 0-2.94-3.11-2.94h-109.75c-3 0-3 0-3-3.11v-51.85c-.11-1.9.32-2.59 2.57-2.59z"/><path d="m364.92 274.28a50.71 50.71 0 0 1 -43.21 13 54.39 54.39 0 0 1 -36-18.58 57 57 0 0 1 0-74.4c18.58-21.17 57-25.49 78.72-5.35v-9.42h35.17v104.69h-34.68zm-26.7-13a29.64 29.64 0 1 0 -29.9-29.73 30.07 30.07 0 0 0 29.9 29.77z"/><path d="m35.6 189.77 1.12-.69a37.12 37.12 0 0 1 25.93-12.27 61.46 61.46 0 0 1 25.92 2.33 33.27 33.27 0 0 1 23.33 27.22 77.2 77.2 0 0 1 1.3 13.4v62.73c0 2.07-.69 2.42-2.51 2.42h-30.76c-2.07 0-2.51-.6-2.51-2.59v-57.38a53.28 53.28 0 0 0 -1.2-11.67 15.31 15.31 0 0 0 -15.73-13.22 39.9 39.9 0 0 0 -9.51.69 18.25 18.25 0 0 0 -14.17 16.68 90.11 90.11 0 0 0 -1.12 15.58v49.08c0 2.85 0 2.85-2.85 2.85h-32.84v-105.1h33.18c2 0 2.59.61 2.42 2.42s0 4.5 0 7.52z"/><path d="m181 270.13 15.81-17.28c3.46 2.33 6.57 4.84 9.94 6.83a31.12 31.12 0 0 0 18.75 4.75 15.29 15.29 0 0 0 8.64-3.11 9.33 9.33 0 0 0 2-13 9.21 9.21 0 0 0 -2.77-2.5 51.19 51.19 0 0 0 -9.94-4.15c-6.39-2.51-13-4.5-19.18-7.26a24.55 24.55 0 0 1 -15.25-16.12 31.18 31.18 0 0 1 11.67-32.75 41.93 41.93 0 0 1 24.71-8.13 80 80 0 0 1 35 6.57c1.9.87 3.63 2 5.44 3l1.47 1.12-14.79 16.71c-2.08-1.21-4.07-2.6-6.05-3.63a23.9 23.9 0 0 0 -16.68-2.85 11.26 11.26 0 0 0 -6.48 4.23 6.22 6.22 0 0 0 .44 8.79l.34.28a23.9 23.9 0 0 0 6.56 3.89c6.92 2.59 14.09 4.93 21.09 7.52a39.66 39.66 0 0 1 13 7.86 25 25 0 0 1 8.12 17.28 32.67 32.67 0 0 1 -20 33.19 65 65 0 0 1 -69.13-8.13z"/></g></svg>