<svg viewBox="0 0 400 400" xmlns="http://www.w3.org/2000/svg"><path d="m.42 252.64v-104.64a55.27 55.27 0 0 1 2.58-6.82c2.5-4.69 6.94-6.8 11.82-8.18h370.36c4.72 1.35 9.11 3.33 11.61 7.84a56.18 56.18 0 0 1 2.82 7.19v104.61c-1.69 3.32-2.74 7.28-5.25 9.78s-6.46 3.56-9.78 5.25h-369.13c-3.4-1.76-7.4-2.9-10-5.46-2.45-2.41-3.45-6.32-5.03-9.57zm288-103.49c-11.42 0-22.32.07-33.23-.05-2.1 0-2.92.7-3.58 2.61q-11 32.34-22.29 64.62a24.44 24.44 0 0 1 -2.64 4.34 26 26 0 0 1 -2.41-4.28q-11.19-32.28-22.27-64.63c-.72-2.12-1.71-2.68-3.82-2.65-10 .1-20 0-30.05 0-.83 0-1.67.12-2.78.21.52 1.32.89 2.34 1.3 3.35 11.3 27.67 22.79 55.27 33.8 83.06 4.72 11.92 13.19 17.24 25.57 17.48 14 .27 21.88-4.82 27.16-17.77l21.82-53.25c4.41-10.81 8.81-21.63 13.46-33.04zm95.77 104c-.39-1.22-.58-2-.88-2.71q-17.4-42.64-34.82-85.27c-3.68-9-10.12-14.58-19.93-15.62-16.5-1.75-26.64 2.83-32.63 18.17-10.68 27.39-22.12 54.48-33.24 81.7-.47 1.15-.88 2.33-1.4 3.72h34v-18.42c0-.67-.25-1.66.09-2 2.55-2.24 2-5.19 2.1-8a3.8 3.8 0 0 1 .86-2.08c3.07-3.74 5.78-7.56 7-12.46 1.69-6.79 7.23-10.58 12.65-14.56 0-3.62 0-7.38 0-11.13 0-1.1-.47-1.9 1.15-2.71 2.91-1.45 3.29-5.08 2.44-7.34-1.05-2.77.29-4.16 1.14-6.33.56 1.67 1.72 3.33 1.31 4.36-.63 1.59-.22 2.92-.34 4.24-.32 3.59 2.13 4.45 3.86 5.95v12.61a34.74 34.74 0 0 0 4 3.69 20.5 20.5 0 0 1 8.64 11.88 20.87 20.87 0 0 0 5.37 9.72 7.47 7.47 0 0 1 2.19 3.9c.4 2.88-.51 6 2.21 8.31.23.18.21.74.2 1.13-.1 4.79-.29 9.59-.32 14.38a37.63 37.63 0 0 0 .56 4.81zm-369.76-103.89v25.9h36.35v76.67h33.4v-76.89h36.32v-25.68zm148.11 102.74v-81.32c-1.26.64-2.23 1.09-3.16 1.6-9.09 5.05-18.14 10.19-27.31 15.1a4.72 4.72 0 0 0 -2.92 4.86c.1 18.72.06 37.44.06 56.16 0 .6-.2 1.32.06 1.78.4.71 1.11 1.77 1.7 1.77 10.41.11 20.81.05 31.57.05zm-32.5-104v31.29l30.17-15.29z" fill="#2d2f2e"/></svg>