<svg viewBox="0 0 400 400" xmlns="http://www.w3.org/2000/svg"><path d="m9.23 391.46v-171.46l108.77 120.2c6.53-37.87 12.82-74.33 19.4-112.46l78.94 86.63 23.66-174.19c-13.85 4.31-26.71 8.08-39.34 12.51-1.74.61-2.94 4.34-3.4 6.81-3.39 17.94-6.51 35.93-9.75 53.89-.31 1.71-.85 3.37-1.6 6.3l-73.91-78.94c-6.53 37.88-12.83 74.25-19.36 112.07l-28-30.93c-17.37-19.19-34.8-38.33-52-57.68a14.19 14.19 0 0 1 -3.64-8.45c-.22-47.66-.16-95.33-.15-143 0-1.07.12-2.14.21-3.77h383.27v382.47zm300.68-326.41c-2.79.7-4.66 1.1-6.49 1.64-28.09 8.36-56 17.28-84.34 24.83-10.18 2.71-15.31 6.93-14.94 17.67.16 4.48-1.31 9-1.92 13.53s-1 8.75-1.58 13.87l61.36-18.73c-2.76 16.61-5.34 32.1-8.08 48.62 14.2-4.3 27.19-8.43 40.3-12.16 14.14-4 27.29 3.35 31.08 17.08 3.37 12.22-4.87 25.94-18.17 29.64-13.09 3.65-22.21-2.33-29.31-13.24l-36.47 11.33c8.87 26 40.5 43.68 69.88 39.59s50.84-28.31 52.12-59.63a63 63 0 0 0 -12.42-41c-12.26-16.47-29.87-22.11-50.09-23.28 3.07-16.81 6.01-32.97 9.07-49.76z" fill="#2d2f2e"/></svg>