<svg viewBox="0 0 400 400" xmlns="http://www.w3.org/2000/svg"><g fill="#f5f5f5"><path d="m259.39 197.66a75 75 0 0 0 -14.71-40.93 11.2 11.2 0 0 1 -6.77-6.89 59.38 59.38 0 0 0 -41.17-14.24 19.56 19.56 0 0 1 -14.48 3c-35 13.88-47.46 43.31-36.9 83.06a19.71 19.71 0 0 1 0 5.94c.95 1.9 2 3.68 3 5.46a42.6 42.6 0 0 0 5.54 7.94 73.53 73.53 0 0 0 8.66 8.54 52.27 52.27 0 0 0 25.63 10.92 31.07 31.07 0 0 0 10.33-2.26 82 82 0 0 1 21.48 1.52 45.91 45.91 0 0 0 25.51-13.52c6.17-6.29 7.71-12.82-.83-18.63a40.77 40.77 0 0 0 -9.5-4.51 18.69 18.69 0 0 0 -5.1-.71 20.63 20.63 0 0 0 -5.46.83 32 32 0 0 0 -3.68 5.45c-22.07 10-42.48 5.23-50.19-11.86-3.56-7.83-3.44-12.82 7.6-12.46 17.56.71 35.59 0 52.92 0a14.42 14.42 0 0 1 .71 4.27h16a39.71 39.71 0 0 0 5.22-.59 13.31 13.31 0 0 0 7-3.33 10 10 0 0 0 -.81-7zm-29.31-16.61c-1.9 3.8-6.05 2-9.25 2h-52.45a31.54 31.54 0 0 1 26.93-23.73 31.45 31.45 0 0 1 30.86 11.15c2.37 3.46 6.29 6.19 3.91 10.58z"/><path d="m213.47 49.22c0 19.22 0 19.22-5.1 30.26-2.14-19.11 1.18-37.5-6.17-56.13a99.7 99.7 0 0 1 -28.2 41.53 142.41 142.41 0 0 0 -46 124.71c1.43 3.45 0 4.63-3.32 4.4a136.46 136.46 0 0 1 39.32-126.14 181.42 181.42 0 0 0 41.65-60z"/><path d="m124.71 194c1.07-1.43 2.14-3 3.32-4.4 3.44 13.41 6.88 26.82 10.44 40.47 4.75-1.07 4.63-5.82 6.89-8.55l6.17 10.92c-1.31 6.77 3.08 14.36-2.85 20.41-3.32 3.92-5.1 2.73-7-1.42a184.09 184.09 0 0 1 -16.97-57.43z"/><path d="m155.68 238.72-1.54 14.12h-5.93c0-6.88-5.23-14.59 2.84-20.41z"/><path d="m259.39 197.66-.71 6.53a18.4 18.4 0 0 0 .71 25c-2.39 48.69-32.27 83.69-60.75 122.81a108.57 108.57 0 0 1 10.68-72.74 55.46 55.46 0 0 0 11-22.9l-23.73 1h-10.53c4.74 3 5 6.29 2 11.16a94.79 94.79 0 0 0 -11.87 33.58s0 1.18-.59 1.54l-2.38 1.66-8.54-27.41a112.07 112.07 0 0 1 -3-31.45 10 10 0 0 0 -6.41-7 9.85 9.85 0 0 0 -1.18 13.41c2.25 8.19 4.39 16.26 6.64 24.33a71.19 71.19 0 0 0 18.63 43.31v-15l16.78-45.49h18.16c-30.38 43.55-26.82 87.46-13.29 132.67-3-34.06 15.31-58.5 34.06-83.07a130.53 130.53 0 0 0 27.05-69.6 43.66 43.66 0 0 0 -2.73-42.34z"/><path d="m234.23 225.91c8.19-4.75 10-13.65 13.89-21.13h4c0 10-6.52 16.5-11 23.74a6.43 6.43 0 0 1 -6.89-2.61z"/><path d="m234.83 204.78c1.9 7.24-9.85 11.87-3.44 20.06l-10.92 3.68c-1.31-10 7.71-15.43 10.32-23.74z"/><path d="m244.91 131.33c-4.74-22.66-5-46.75-20.64-65.86-5.7 4.87-5.34 11.87-6.29 18.28a34.55 34.55 0 0 1 -14.72 23.73c-11.15 7.12-13.52 21.12-21 30.85a19.6 19.6 0 0 0 14.48-3l10.8-19a55.92 55.92 0 0 0 13.52-28.43h.72c5.69-1.07 5 3.8 5.57 6.53a317.83 317.83 0 0 1 10.56 54.94 11.18 11.18 0 0 0 6.77 6.88c5.57-8.19 1.9-16.97.23-24.92z"/><path d="m388.38 158.15a47.46 47.46 0 0 0 -65.21-15.91c-1 .6-2 1.23-2.91 1.91-4.27 2.49-7.47 9.25-11.15-2.14-2.25-7.12-13.29-3.08-20.17-2.85s-5.46 7.48-5.46 11.87v136.22c0 11 5.34 11.87 13.76 11.87s14.36 0 13.65-11.87c-.83-13.76 0-27.53 0-43.19 30.73 19.34 53.87 18 72.74-2.85a69.78 69.78 0 0 0 4.75-83.06zm-47.47 74.76c-18.87 0-31.09-14-31.32-35.6s11.86-36.79 31.68-36.55a32.38 32.38 0 0 1 31.73 33.06c0 .85-.06 1.69-.15 2.54.12 22.07-12.58 36.9-31.92 36.9z"/><path d="m115.93 151.27c0-4.51 2.61-11.87-5.46-11.87s-17.8-4.27-20 3c-3.8 11.86-7.12 4.27-11.16 2a48.66 48.66 0 0 0 -72.31 21.23 69 69 0 0 0 10.68 76.89c18 18.51 35.6 20 64.9 4.86 6.18-3.2 5.34 0 7.12 3.8 4 9.49 12.94 3.68 19.58 4.27s6.65-6.29 6.65-11.15v-46.52c0-15.54.24-31.09 0-46.51zm-56.72 82c-19.34-.01-32.28-14.27-32.28-36.27a32.64 32.64 0 0 1 29.53-35.47c1.15-.1 2.31-.14 3.46-.13 18.51.72 30.38 14.48 30.26 36.31s-12.1 34.84-30.97 35.55z"/></g></svg>