<svg enable-background="new 0 0 400 400" viewBox="0 0 400 400" xmlns="http://www.w3.org/2000/svg"><g fill="#f5f5f5"><path d="m328.9 331.4h-256.8v-263.5h256.7v263.5zm-251.6-172.2v2.2 76.4c0 1.7.4 2.2 2.1 2.2h242.3c1.7 0 2.1-.5 2.1-2.2 0-54.2-.1-108.5 0-162.7v-2h-102.7v86zm246.3 86.2h-246.2v80.6h246.2zm-107.8-172.2h-138.4v80.5h138.4z"/><path d="m157.6 204.8h-26.1c.2 3.7 1.6 6.6 4.4 8.6 4.1 3 12 3.1 14.9-2.9.3-.4.7-.7 1.2-.7 1.6.1 3.1.5 5 .7-1.3 3.9-3.4 6.9-6.9 8.5-6 2.9-12 2.5-17.6-1.1-5.5-3.6-7.5-9.5-7.1-15.9.8-11.3 9.9-18.4 20.3-16.2 8.1 1.8 14.1 11.2 11.9 19zm-6-4.8c-.2-5-4.2-9-9.2-9-5.6-.2-10.2 3.7-10.7 9z"/><path d="m189.8 186.3c2.2 0 4.1-.1 5.9.1.5 0 1.1.8 1.4 1.4 3 7 5.9 14.1 8.8 21.1.2.5.5 1.1.9 2 1.3-3.2 2.5-6.1 3.7-8.9 2-4.8 3.9-9.6 5.8-14.4.4-.9.8-1.3 1.9-1.3 1.6.1 3.2 0 5 0-.2.7-.3 1.1-.5 1.5-5.9 13.8-11.7 27.6-17.6 41.4-.3 1-1.3 1.7-2.3 1.5-3-.1-6 0-9.2 0v-4.9c1.6 0 3.3-.1 5 0 1 0 1.7-.2 2-1.2 0-.1.1-.2.2-.3 2.6-3.8 2.4-7.5.3-11.7-3.8-7.9-7-16.1-10.5-24.2-.3-.7-.5-1.3-.8-2.1z"/><path d="m127.7 180.7h-14v39.3h-6.3v-39.2h-14v-5.7h34.3z"/><path d="m179.2 175.2h5.7v44.8h-5.7z"/><path d="m170.4 220.1h-5.7v-44.8h5.7z"/><path d="m185.6 272.4c-3.9 11.5-7.6 22.6-11.3 33.7-.2.1-.3.1-.5.1-5.7.3-5.7.3-7.6-5.1-2-6-4-12-6-18-.2-.6-.4-1.1-.8-2l-8.8 25c-.2.1-.4.1-.7.1-1.9 0-4.3.6-5.6-.3-1.2-.8-1.4-3.3-1.9-5-2.8-8.9-5.5-17.7-8.3-26.6-.2-.6-.3-1.2-.6-2 2.1 0 4-.1 5.8.1.5 0 1 .9 1.2 1.5 2.1 7 4.2 14 6.2 21 .2.7.4 1.3.7 2.3.4-.9.7-1.5.8-2.1 2.5-7.1 5-14.3 7.5-21.4.3-1 .8-1.4 1.9-1.5 5.2 0 5.2-.1 6.8 4.9 2 6.1 4 12.2 5.9 18.2.2.5.4 1 .7 1.9 1.3-4.2 2.5-8 3.7-11.7 1.2-3.9 2.5-7.9 3.7-11.8.3-1.1.8-1.5 1.9-1.5 1.8.3 3.3.2 5.3.2z"/><path d="m134.4 306.3c-2.2 0-4.1.1-6.1-.1-.4 0-1-.7-1.1-1.1-1.2-2.8-2.3-5.7-3.3-8.6-.2-.9-1-1.4-1.9-1.3-5.8.1-11.6.1-17.3 0-.9-.1-1.7.5-1.9 1.3-1.1 2.9-2.2 5.7-3.4 8.6-.4.6-1 1.1-1.7 1.2-1.6.2-3.3.1-5.3.1.3-.8.4-1.4.7-2 5.6-13.8 11.2-27.7 16.8-41.5.5-1.2 1.1-1.7 2.4-1.7 4.5.1 4.5 0 6.1 4.2 5 12.8 10 25.5 15 38.3.3.7.6 1.5 1 2.6zm-20.9-36.4-8 19.5h15.6c-2.5-6.5-5-12.8-7.6-19.5z"/><path d="m276.8 261.3v44.9h-5.8v-4.9c-.4.2-.7.3-.8.4-5.9 7.7-19.1 7.2-24.6-2.9-4.1-7.6-2.5-18.1 3.5-23.4 5.4-4.8 15.5-5.8 21 1.5.1.2.3.3.8.7v-16.4h5.9zm-27.5 28.1c.5 1.9.7 3.9 1.4 5.7 1.7 4.1 4.8 6.5 9.4 6.5 4.7.1 8.1-2.1 9.9-6.4 1.7-4 1.6-8.5-.3-12.4-2.1-4.3-6.9-6.7-11.6-5.6-5.2 1.3-8.5 5.8-8.8 12.2z"/><path d="m217.3 302v2.1c0 3-.1 3.1-3.1 2.9-3.2-.2-4.9-1.9-5.8-6-.5.6-.8 1-1.2 1.5-3.2 4.2-8.7 5.7-13.6 3.9-3.5-1.2-5.6-3.7-5.9-7.5s1-6.9 4.5-8.4 7.1-2.3 10.7-3.3c.5-.2 1.1-.3 1.6-.4 3-.7 3.8-1.4 4-3.6.1-2.8-1.2-4.9-3.7-5.7-4.6-1.5-8.3.3-10.3 5.3l-5.6-.5c.3-3.4 2.1-6.4 5-8.2 5-3.1 10.3-3.3 15.5-.7 3 1.5 4.9 4.6 4.9 8 .2 5.7.1 11.4.2 17.2-.2 2.8 0 2.9 2.8 3.4zm-9.1-12.1c-1.3.4-2.5.8-3.6 1.1s-2.4.6-3.6 1c-1.4.3-2.7.8-4 1.3-2.6 1.1-3.9 3.2-3.4 5.5.5 2.2 2.4 3.3 5.4 3.2 6-.2 10.1-5.5 9.2-12.1z"/><path d="m283 299 4.7-3c.8 1.1 1.5 2.1 2.3 3 2.3 2.5 5.3 3 8.5 2.3 1.4-.2 2.6-1.4 2.9-2.8.4-1.5-.2-3.1-1.5-3.9-2.1-1.3-4.3-2.3-6.5-3.4-1.5-.8-3-1.4-4.4-2.3-3.5-2.3-5.1-5.8-4.3-9.4.9-3.9 4-6.9 7.9-7.6 5.3-1 9.8.9 13.1 5.6l-4.2 3.4c-1-1-1.9-1.9-3-2.6-1.5-1.2-3.5-1.5-5.3-1-1.6.4-2.8 1.3-3.1 3s.6 3.1 2.1 3.9c2.5 1.2 5 2.3 7.5 3.5.9.4 1.8.9 2.6 1.4 3.8 2.5 5.5 6.1 4.7 10.2-.8 3.8-3.6 6.4-8 7.4-6.1 1.2-12-1-15-5.8-.4-.5-.7-1.1-1-1.9z"/><path d="m229 272.4v6c.6-.9.9-1.4 1.2-1.9 1.9-3.2 5.3-5 8.9-4.9 1.1 0 1.7.3 1.6 1.6-.1 1.5 0 2.9 0 4.6h-2.6c-4.4 0-7.4 2.2-8.4 6.5-.5 2.5-.7 5.1-.7 7.7-.1 4.7 0 9.3 0 14.2h-5.9c0-.5-.1-1.1-.1-1.7 0-10.1 0-20.2 0-30.2 0-1.5.5-1.9 1.9-1.8 1.2 0 2.5-.1 4.1-.1z"/><path d="m199.3 118.7h-25.8c-.4 4.8 3.3 9.3 8.2 10.3 5 1 8.2-.4 11-4.7.3-.4.8-.6 1.2-.6 1.5.2 3 .5 5.1.8-1.1 1.9-1.9 3.8-3.2 5.3-5.4 6.4-17 6.6-23.5.7-7.9-7.3-7.5-24.9 5.5-29.9 5.7-2.2 11.2-1.6 16 2.3s6.4 9.3 5.7 15.4c.1 0 0 .1-.2.4zm-5.7-4.8c-.2-5.2-4.6-9.3-9.8-9.1-.1 0-.2 0-.2 0-5.2.2-10 4.5-9.8 9z"/><path d="m139.3 88.9v16.1c.7-.7 1-1.1 1.4-1.6 3.2-3.7 8.4-5 12.9-3.3 4 1.5 6.4 4.6 6.6 8.8.3 8.2.2 16.4.3 24.5 0 .1-.1.2-.2.5h-5.7c0-.7 0-1.4 0-2.1-.1-6.6.1-13.3-.3-19.9-.3-6.6-5-7.9-10-6.3-3.5 1.1-4.6 4.2-4.8 7.4-.3 6-.2 12.1-.3 18.1v2.8h-5.9v-2c0-13.6 0-27.2 0-40.8 0-1.6.3-2.3 2-2.1 1.3 0 2.7 0 4-.1z"/><path d="m93.4 89h34.4v5.6h-14.1v39.2h-6.2v-39.1h-14.1z"/></g></svg>