<svg xmlns="http://www.w3.org/2000/svg" viewBox="0 0 50.25 28.85"><title>arrow_hairline</title><g id="Layer_2" data-name="Layer 2"><g id="Layer_1-2" data-name="Layer 1"><path d="M50.25,1A1,1,0,0,0,48.64.22a5.55,5.55,0,0,0-.71.73q-10.8,12.3-21.56,24.63c-.69.79-1,.79-1.71,0Q13.76,13.48,2.78,1.42A10.85,10.85,0,0,0,1.67.28,1,1,0,0,0,0,1a1,1,0,0,0,.3.7h0C1.47,2.84,1.48,2.86,1.48,2.86L24.37,28.07c1,1.05,1.42,1,2.36,0C32.55,21.4,38.35,14.74,44.2,8.13c1.77-2,5.21-5.83,5.74-6.42A1,1,0,0,0,50.25,1Z" style="fill:#070707"/></g></g></svg>