<?xml version="1.0" encoding="utf-8"?>
<!-- Generator: Adobe Illustrator 21.1.0, SVG Export Plug-In . SVG Version: 6.00 Build 0)  -->
<svg version="1.1" id="Layer_1" xmlns="http://www.w3.org/2000/svg" xmlns:xlink="http://www.w3.org/1999/xlink" x="0px" y="0px"
	  viewBox="0 0 24 13.78" style="enable-background:new 0 0 24 13.78;" xml:space="preserve">
	<title>arrow_hairline</title>

<path d="M24,.47A.47.47,0,0,0,23.53,0a.46.46,0,0,0-.3.11,2.29,2.29,0,0,0-.34.35Q17.75,6.33,12.6,12.22c-.34.38-.48.37-.82,0C8.31,8.36,4.81,4.52,1.33.68A5.49,5.49,0,0,0,.8.13.49.49,0,0,0,.47,0,.47.47,0,0,0,0,.47.48.48,0,0,0,.14.81h0l.57.55s7.28,8,10.93,12c.46.51.68.5,1.13,0,2.78-3.17,5.55-6.35,8.34-9.51C22,2.92,23.6,1.1,23.85.82A.49.49,0,0,0,24,.47Z"/>
</svg>
