<?xml version="1.0" encoding="utf-8"?>
<!-- Generator: Adobe Illustrator 21.1.0, SVG Export Plug-In . SVG Version: 6.00 Build 0)  -->
<svg version="1.1" id="Layer_1" xmlns="http://www.w3.org/2000/svg" xmlns:xlink="http://www.w3.org/1999/xlink" x="0px" y="0px"
	 viewBox="0 0 24 24" style="enable-background:new 0 0 24 24;" xml:space="preserve">
<path d="M23.1,20.6l-4.2-0.3c2.2-2,3.6-4.9,3.6-8.1c0-6.1-4.9-11-11-11c-6.1,0-11,4.9-11,11c0,5.9,4.7,10.7,10.5,11
	c0.7,0,0.7-1.2,0-1.2c-5.2-0.3-9.3-4.5-9.3-9.8c0-5.4,4.4-9.8,9.8-9.8s9.8,4.4,9.8,9.8c0,2.8-1.2,5.4-3.1,7.1l0.3-4.1
	c0-0.6-0.9-0.7-1-0.1l-0.4,5.5c0,0.3,0.2,0.4,0.5,0.5l5.5,0.4C23.7,21.6,23.7,20.7,23.1,20.6z"/>
</svg>
