<?xml version="1.0" encoding="utf-8"?>
<!-- Generator: Adobe Illustrator 21.1.0, SVG Export Plug-In . SVG Version: 6.00 Build 0)  -->
<svg version="1.1" id="Layer_1" xmlns="http://www.w3.org/2000/svg" xmlns:xlink="http://www.w3.org/1999/xlink" x="0px" y="0px"
	 viewBox="0 0 27.1 27" style="enable-background:new 0 0 27.1 27;" xml:space="preserve">
<path d="M23.3,13.5c0-0.7-0.1-1.4-0.2-2.1l3.1-2.2c-0.1-1-0.6-2-1.3-2.9l-3.7,1c-0.6-0.8-1.4-1.5-2.2-2l0.7-3.7
	c-0.8-0.6-1.9-1-3-1.1l-1.9,3.2c-0.4-0.1-0.8-0.1-1.3-0.1c-0.6,0-1.3,0.1-1.9,0.2L9.5,0.7c-1,0.1-2,0.6-2.9,1.3l1,3.6
	C6.7,6.3,5.9,7.1,5.3,8L1.8,7.3c-0.6,0.8-1,1.9-1.1,3l3,1.8c-0.1,0.5-0.1,1-0.1,1.4c0,0.7,0.1,1.4,0.2,2.1l-3.2,2.2
	c0.1,1,0.6,2,1.3,2.9l3.8-1l-0.1-0.2c0.6,0.8,1.4,1.5,2.3,2.1l-0.7,3.8c0.8,0.6,1.9,1,3,1.1l1.9-3.3c0.4,0.1,0.9,0.1,1.3,0.1
	c0.6,0,1.2-0.1,1.8-0.2l2.2,3.2c1-0.1,2-0.6,2.9-1.3l-1-3.7c0.8-0.6,1.6-1.4,2.2-2.3l3.5,0.6c0.6-0.8,1-1.9,1.1-3l-3-1.7
	C23.3,14.6,23.3,14.1,23.3,13.5z M13.5,19.5c-3.3,0-5.9-2.7-5.9-5.9s2.7-5.9,5.9-5.9s5.9,2.7,5.9,5.9S16.7,19.5,13.5,19.5z"/>
</svg>
