<?xml version="1.0" encoding="utf-8"?>
<!-- Generator: Adobe Illustrator 19.2.1, SVG Export Plug-In . SVG Version: 6.00 Build 0)  -->
<svg version="1.1" id="Layer_6" xmlns="http://www.w3.org/2000/svg" xmlns:xlink="http://www.w3.org/1999/xlink" x="0px" y="0px"
	 viewBox="0 0 137.1 42" style="enable-background:new 0 0 137.1 42;" xml:space="preserve">
<g>
	<title>WILL_gray_large</title>
	<path d="M34.7,4.8l-4.3,17.9l-3.2-11.5l-9.6,0l-2.9,11.7L9.9,4.8h-9l6.9,30.3h10.8l3.9-12.4L26,35.1h10.8l6.9-30.3H34.7z"/>
	<path d="M60.1,4.8v30.3h19.7v-8.8H69.1V4.8H60.1z"/>
	<path d="M84.3,4.8v30.3H104v-8.8H93.3V4.8H84.3z"/>
	<path d="M48.4,4.8l-2,9.8v20.5h9V4.8H48.4z"/>
	<path d="M123.7,16.8L128,14l-8.3-5.8l2.6,8.1c0.1,0.5,0.6,0.7,1,0.6C123.5,16.9,123.6,16.9,123.7,16.8z"/>
	<path d="M120.5,18.8c0.6-0.4,0.8-1.1,0.6-1.7l-3.3-10.2L115.2,5c-0.7-0.5-1.4-0.2-1.4,0.7v17.4L120.5,18.8z"/>
	<path d="M135.1,19l-5.9-4.1l-5.1,3.3c-0.6,0.4-0.8,1.1-0.6,1.7l2.4,7.5l9.3-6.5c0.5-0.3,0.7-1,0.4-1.5
		C135.4,19.2,135.3,19,135.1,19z"/>
	<path d="M122.3,20.6c-0.1-0.5-0.6-0.7-1-0.6c-0.1,0-0.2,0.1-0.3,0.1l-7.1,4.6v9.4c0,0.9,0.6,1.2,1.4,0.7l9.5-6.7L122.3,20.6z"/>
</g>
</svg>
