<?xml version="1.0" encoding="UTF-8"?><svg id="Layer_3" xmlns="http://www.w3.org/2000/svg" viewBox="0 0 300 340"><defs><style>.cls-1{fill:#18181a;}</style></defs><g id="vertical"><g id="subtitle"><g id="powered-by"><path class="cls-1" d="M22.89,339.14v-17.67h6.33c1.36,0,2.49.25,3.4.76.91.51,1.59,1.19,2.04,2.05s.68,1.84.68,2.93-.23,2.07-.68,2.93-1.14,1.55-2.05,2.05c-.91.5-2.05.75-3.42.75h-4.33v-2.29h4.07c.87,0,1.57-.15,2.11-.45s.93-.71,1.18-1.23.37-1.11.37-1.77-.12-1.25-.37-1.77-.64-.92-1.19-1.22-1.25-.44-2.13-.44h-3.32v15.36h-2.7Z"/><path class="cls-1" d="M45.83,339.37c-1.53,0-2.89-.36-4.1-1.09s-2.15-1.76-2.85-3.12-1.04-2.97-1.04-4.86.35-3.51,1.04-4.87c.69-1.36,1.64-2.4,2.85-3.12,1.21-.73,2.57-1.09,4.1-1.09s2.89.36,4.09,1.09c1.2.73,2.14,1.77,2.83,3.12s1.04,2.98,1.04,4.87-.35,3.5-1.04,4.86-1.64,2.4-2.83,3.12-2.56,1.09-4.09,1.09ZM45.83,336.91c1,0,1.9-.25,2.7-.75s1.42-1.25,1.89-2.23.69-2.19.69-3.61-.23-2.65-.69-3.63-1.09-1.73-1.89-2.23-1.69-.75-2.7-.75-1.92.25-2.72.76-1.43,1.25-1.89,2.24-.69,2.19-.69,3.62.23,2.62.69,3.6,1.09,1.72,1.89,2.23,1.7.76,2.72.76Z"/><path class="cls-1" d="M60.32,339.14l-4.79-17.67h2.85l2.55,10.13c.16.62.3,1.27.44,1.94s.27,1.35.4,2.04.25,1.38.37,2.06h-.4c.13-.69.26-1.38.39-2.06s.27-1.37.42-2.04.3-1.32.46-1.94l2.62-10.13h2.96l2.6,10.13c.17.62.32,1.27.46,1.94s.28,1.35.42,2.04.27,1.38.4,2.06h-.43c.13-.69.25-1.38.38-2.06s.26-1.37.41-2.04.29-1.32.43-1.94l2.55-10.13h2.87l-4.81,17.67h-3.12l-2.81-10.47c-.21-.82-.41-1.72-.59-2.68s-.37-2.02-.56-3.18h.62c-.2,1.11-.38,2.13-.54,3.07s-.37,1.87-.61,2.79l-2.8,10.47h-3.13Z"/><path class="cls-1" d="M81.24,339.14v-17.67h11.12v2.32h-8.42v5.27h7.81v2.31h-7.81v5.44h8.49v2.32h-11.19Z"/><path class="cls-1" d="M95.89,339.14v-17.67h6.33c1.36,0,2.49.23,3.4.71s1.59,1.12,2.04,1.96.68,1.8.68,2.88-.23,2.05-.68,2.86-1.14,1.45-2.05,1.9-2.05.68-3.42.68h-4.76v-2.31h4.49c.87,0,1.57-.12,2.1-.37s.93-.61,1.18-1.07.38-1.03.38-1.68-.13-1.24-.38-1.72-.65-.86-1.19-1.12-1.25-.4-2.12-.4h-3.32v15.36h-2.7ZM105.93,339.14l-4.28-7.98h3l4.35,7.98h-3.07Z"/><path class="cls-1" d="M111.62,339.14v-17.67h11.12v2.32h-8.42v5.27h7.81v2.31h-7.81v5.44h8.49v2.32h-11.19Z"/><path class="cls-1" d="M128.97,321.47v17.67h-2.7v-17.67h2.7ZM132.01,339.14h-4.36v-2.37h4.22c1.34,0,2.45-.25,3.33-.75s1.55-1.23,1.99-2.2.66-2.15.66-3.54-.22-2.55-.66-3.51-1.09-1.68-1.96-2.18-1.94-.75-3.23-.75h-4.46v-2.37h4.64c1.74,0,3.23.35,4.47,1.06s2.19,1.71,2.86,3.03c.66,1.32,1,2.89,1,4.73s-.33,3.42-1,4.74-1.64,2.34-2.91,3.05c-1.27.71-2.8,1.07-4.6,1.07Z"/><path class="cls-1" d="M150.27,339.14v-17.67h6.51c1.26,0,2.3.21,3.12.62s1.43.97,1.84,1.67.6,1.48.6,2.35c0,.74-.13,1.35-.4,1.86s-.63.9-1.09,1.21-.95.53-1.5.67v.18c.59.02,1.17.21,1.73.56s1.03.85,1.39,1.48.55,1.41.55,2.32-.21,1.7-.63,2.42-1.07,1.29-1.95,1.71-2,.63-3.38.63h-6.79ZM152.97,329.12h3.55c.59,0,1.13-.12,1.61-.34s.86-.55,1.14-.97.42-.91.42-1.47c0-.73-.25-1.33-.76-1.82s-1.28-.73-2.34-.73h-3.62v5.34ZM152.97,336.81h3.82c1.27,0,2.17-.25,2.73-.74s.83-1.1.83-1.83c0-.57-.14-1.08-.42-1.54s-.68-.82-1.19-1.1-1.13-.41-1.84-.41h-3.93v5.61Z"/><path class="cls-1" d="M171.37,339.14v-7.03l-6.51-10.64h3.15l3.32,5.63c.37.62.7,1.21.98,1.78s.57,1.27.87,2.11h-.87c.3-.85.59-1.57.87-2.14s.6-1.16.94-1.75l3.28-5.63h3.14l-6.49,10.64v7.03h-2.7Z"/></g><g id="will"><path class="cls-1" d="M192.97,339.14l-4.74-17.67h3.95l2.05,8.69c.17.73.32,1.5.46,2.33s.28,1.66.41,2.49.26,1.63.39,2.4h-.64c.14-.77.28-1.57.43-2.4s.29-1.66.44-2.49.32-1.6.5-2.33l2.16-8.69h3.76l2.15,8.69c.18.73.35,1.5.5,2.33s.3,1.66.44,2.49.29,1.63.43,2.4h-.66c.13-.77.27-1.57.4-2.4s.27-1.66.42-2.49.3-1.6.46-2.33l2.05-8.69h3.96l-4.76,17.67h-4.13l-2.35-9.04c-.25-1-.47-2.09-.65-3.26s-.38-2.38-.6-3.62h.9c-.25,1.21-.44,2.39-.6,3.55s-.37,2.26-.65,3.33l-2.34,9.04h-4.14Z"/><path class="cls-1" d="M218.06,321.47v17.67h-3.62v-17.67h3.62Z"/><path class="cls-1" d="M221.26,339.14v-17.67h3.62v14.67h7.62v3h-11.24Z"/><path class="cls-1" d="M234.99,339.14v-17.67h3.62v14.67h7.62v3h-11.24Z"/></g><path id="ai" class="cls-1" d="M253.46,339.14l6.04-17.67h4.74l6.19,17.67h-4.02l-2.83-8.53c-.34-1.1-.69-2.3-1.04-3.61s-.72-2.74-1.11-4.29h.79c-.38,1.56-.73,2.99-1.06,4.31s-.65,2.51-.98,3.59l-2.73,8.53h-4ZM257.23,335.03v-2.83h9.43v2.83h-9.43ZM276.22,321.47v17.67h-3.62v-17.67h3.62Z"/></g><g id="title"><g id="guardian"><path class="cls-1" d="M24.93,231.31c-4.76,0-8.93-1.05-12.51-3.16-3.58-2.1-6.38-5.11-8.4-9.01-2.01-3.9-3.02-8.53-3.02-13.88s1.05-10.21,3.14-14.12c2.09-3.9,4.93-6.89,8.5-8.96,3.57-2.07,7.59-3.11,12.05-3.11,2.87,0,5.54.42,8.01,1.25,2.47.83,4.66,2.01,6.59,3.53,1.92,1.53,3.49,3.33,4.71,5.41,1.22,2.08,2.01,4.39,2.37,6.91h-10.58c-.36-1.23-.87-2.33-1.52-3.29-.65-.97-1.43-1.79-2.36-2.48-.92-.68-1.97-1.2-3.16-1.55-1.18-.35-2.48-.53-3.89-.53-2.62,0-4.93.65-6.93,1.96-2,1.31-3.56,3.21-4.68,5.72-1.12,2.5-1.67,5.55-1.67,9.15s.55,6.65,1.66,9.17c1.1,2.51,2.66,4.43,4.66,5.75,2,1.32,4.37,1.98,7.1,1.98,2.46,0,4.56-.44,6.31-1.33,1.75-.89,3.1-2.16,4.05-3.81.94-1.65,1.42-3.58,1.42-5.79l2.18.31h-13.24v-7.92h21.16v6.35c0,4.46-.94,8.29-2.83,11.49-1.89,3.2-4.48,5.66-7.78,7.37-3.3,1.72-7.08,2.58-11.33,2.58Z"/><path class="cls-1" d="M67.07,231.11c-2.64,0-4.95-.57-6.93-1.72-1.98-1.15-3.51-2.8-4.59-4.95-1.08-2.15-1.62-4.72-1.62-7.7v-24.27h10.24v22.5c0,2.37.61,4.22,1.84,5.56,1.23,1.34,2.91,2.01,5.05,2.01,1.46,0,2.74-.31,3.86-.94,1.11-.63,1.99-1.54,2.61-2.73.63-1.19.94-2.63.94-4.32v-22.09h10.28v38.16h-9.69l-.14-9.52h.58c-1,3.21-2.53,5.68-4.59,7.41-2.06,1.73-4.67,2.59-7.83,2.59Z"/><path class="cls-1" d="M107.4,231.38c-2.41,0-4.58-.43-6.5-1.28-1.92-.85-3.44-2.13-4.54-3.82-1.1-1.7-1.66-3.81-1.66-6.33,0-2.12.39-3.89,1.18-5.33.78-1.43,1.85-2.58,3.21-3.45,1.35-.86,2.89-1.52,4.61-1.98,1.72-.45,3.52-.77,5.41-.96,2.21-.23,3.99-.44,5.34-.63,1.35-.19,2.34-.5,2.97-.92.63-.42.94-1.04.94-1.86v-.17c0-1.09-.23-2.01-.68-2.76-.46-.75-1.13-1.33-2.03-1.72-.9-.4-1.99-.6-3.26-.6s-2.47.2-3.45.6c-.98.4-1.78.93-2.39,1.59-.61.66-1.07,1.4-1.37,2.22l-9.39-1.54c.66-2.23,1.75-4.12,3.28-5.67,1.52-1.55,3.42-2.73,5.68-3.55,2.26-.82,4.82-1.23,7.66-1.23,2.05,0,4.04.24,5.97.73,1.93.49,3.67,1.25,5.21,2.27,1.54,1.02,2.75,2.36,3.65,4.01.9,1.65,1.35,3.62,1.35,5.92v25.71h-9.69v-5.29h-.34c-.61,1.18-1.43,2.22-2.46,3.12-1.02.9-2.26,1.61-3.7,2.13-1.45.52-3.11.79-5,.79ZM110.31,224.18c1.62,0,3.03-.32,4.25-.96,1.22-.64,2.17-1.5,2.85-2.59s1.02-2.31,1.02-3.65v-4.13c-.3.23-.75.43-1.37.61-.61.18-1.3.34-2.05.48-.75.14-1.49.26-2.22.38-.73.11-1.38.2-1.95.27-1.25.18-2.36.48-3.31.89-.96.41-1.7.95-2.22,1.62-.52.67-.78,1.53-.78,2.58,0,.98.25,1.8.75,2.48.5.67,1.18,1.18,2.05,1.52.86.34,1.85.51,2.97.51Z"/><path class="cls-1" d="M136.64,230.63v-38.16h9.9v6.66h.41c.71-2.37,1.88-4.15,3.53-5.36,1.65-1.21,3.54-1.81,5.68-1.81.52,0,1.09.03,1.71.09.61.06,1.15.14,1.6.26v9.15c-.46-.16-1.12-.28-1.98-.38-.86-.09-1.68-.14-2.46-.14-1.55,0-2.95.34-4.2,1.01-1.25.67-2.22,1.6-2.92,2.8-.69,1.2-1.04,2.59-1.04,4.18v21.71h-10.24Z"/><path class="cls-1" d="M176.64,231.28c-2.91,0-5.55-.76-7.9-2.27-2.36-1.51-4.22-3.73-5.58-6.66-1.37-2.92-2.05-6.5-2.05-10.74s.7-7.98,2.12-10.89c1.41-2.91,3.29-5.1,5.63-6.55,2.34-1.46,4.93-2.18,7.75-2.18,2.16,0,3.96.36,5.39,1.09,1.43.73,2.59,1.63,3.48,2.7.89,1.07,1.55,2.11,1.98,3.11h.34v-19.12h10.24v50.86h-10.07v-6.11h-.51c-.46,1.02-1.13,2.05-2.03,3.09-.9,1.04-2.06,1.91-3.5,2.61-1.43.71-3.2,1.06-5.29,1.06ZM179.81,223.05c1.73,0,3.21-.48,4.44-1.43s2.16-2.29,2.8-4.01c.64-1.72.96-3.73.96-6.03s-.31-4.33-.94-6.03c-.63-1.7-1.55-3.02-2.78-3.96-1.23-.94-2.72-1.42-4.47-1.42s-3.31.49-4.52,1.47c-1.22.98-2.13,2.32-2.75,4.03-.61,1.71-.92,3.68-.92,5.91s.31,4.21.94,5.94c.63,1.73,1.55,3.08,2.76,4.06,1.22.98,2.71,1.47,4.49,1.47Z"/><path class="cls-1" d="M211.2,187.48c-1.55,0-2.87-.51-3.96-1.54-1.09-1.02-1.64-2.26-1.64-3.72s.55-2.7,1.64-3.72c1.09-1.02,2.41-1.54,3.96-1.54s2.87.51,3.98,1.54c1.1,1.02,1.66,2.26,1.66,3.72s-.55,2.7-1.66,3.72c-1.1,1.02-2.43,1.54-3.98,1.54ZM206.08,230.63v-38.16h10.24v38.16h-10.24Z"/><path class="cls-1" d="M234.98,231.38c-2.41,0-4.58-.43-6.5-1.28-1.92-.85-3.44-2.13-4.54-3.82-1.1-1.7-1.66-3.81-1.66-6.33,0-2.12.39-3.89,1.18-5.33.78-1.43,1.85-2.58,3.21-3.45,1.35-.86,2.89-1.52,4.61-1.98,1.72-.45,3.52-.77,5.41-.96,2.21-.23,3.99-.44,5.34-.63,1.35-.19,2.34-.5,2.97-.92.63-.42.94-1.04.94-1.86v-.17c0-1.09-.23-2.01-.68-2.76-.46-.75-1.13-1.33-2.03-1.72-.9-.4-1.99-.6-3.26-.6s-2.47.2-3.45.6c-.98.4-1.78.93-2.39,1.59-.61.66-1.07,1.4-1.37,2.22l-9.39-1.54c.66-2.23,1.75-4.12,3.28-5.67,1.52-1.55,3.42-2.73,5.68-3.55,2.26-.82,4.82-1.23,7.66-1.23,2.05,0,4.04.24,5.97.73,1.93.49,3.67,1.25,5.21,2.27,1.54,1.02,2.75,2.36,3.65,4.01.9,1.65,1.35,3.62,1.35,5.92v25.71h-9.69v-5.29h-.34c-.61,1.18-1.43,2.22-2.46,3.12-1.02.9-2.26,1.61-3.7,2.13-1.45.52-3.11.79-5,.79ZM237.88,224.18c1.62,0,3.03-.32,4.25-.96,1.22-.64,2.17-1.5,2.85-2.59.68-1.09,1.02-2.31,1.02-3.65v-4.13c-.3.23-.75.43-1.37.61-.61.18-1.3.34-2.05.48-.75.14-1.49.26-2.22.38-.73.11-1.38.2-1.95.27-1.25.18-2.36.48-3.31.89-.96.41-1.7.95-2.22,1.62-.52.67-.78,1.53-.78,2.58,0,.98.25,1.8.75,2.48.5.67,1.18,1.18,2.05,1.52.86.34,1.85.51,2.97.51Z"/><path class="cls-1" d="M274.46,208.54v22.09h-10.24v-38.16h9.66l.17,9.52h-.61c1-3.19,2.52-5.65,4.56-7.39,2.04-1.74,4.67-2.61,7.9-2.61,2.64,0,4.94.58,6.91,1.72,1.97,1.15,3.49,2.8,4.57,4.95,1.08,2.15,1.62,4.72,1.62,7.7v24.27h-10.24v-22.5c0-2.37-.61-4.22-1.83-5.56-1.22-1.34-2.91-2.01-5.07-2.01-1.43,0-2.71.31-3.84.94-1.13.63-2,1.53-2.63,2.71-.63,1.18-.94,2.63-.94,4.34Z"/></g><g id="suite"><path class="cls-1" d="M91.81,299.38c-3.46,0-6.48-.58-9.05-1.72-2.57-1.15-4.59-2.75-6.06-4.81-1.47-2.06-2.29-4.45-2.48-7.19h4.95c.18,2.03.85,3.73,2,5.1,1.15,1.38,2.65,2.42,4.51,3.14,1.85.72,3.9,1.08,6.13,1.08,2.53,0,4.76-.42,6.71-1.26,1.95-.84,3.48-2.02,4.59-3.53,1.11-1.51,1.67-3.27,1.67-5.27,0-1.68-.44-3.1-1.31-4.25-.88-1.15-2.11-2.12-3.69-2.92-1.58-.8-3.44-1.5-5.58-2.12l-6.01-1.74c-4.05-1.18-7.17-2.84-9.35-4.98-2.18-2.14-3.28-4.81-3.28-8.02,0-2.75.73-5.18,2.2-7.27,1.47-2.09,3.46-3.73,5.99-4.9,2.53-1.17,5.36-1.76,8.5-1.76s6.04.59,8.48,1.78c2.45,1.18,4.38,2.79,5.8,4.81,1.42,2.03,2.19,4.34,2.3,6.93h-4.74c-.3-2.82-1.54-5.05-3.72-6.69-2.18-1.64-4.94-2.46-8.26-2.46-2.32,0-4.37.4-6.14,1.21-1.78.81-3.16,1.91-4.16,3.31-1,1.4-1.5,3.01-1.5,4.83s.5,3.21,1.48,4.39c.99,1.17,2.26,2.13,3.81,2.88,1.55.75,3.13,1.37,4.75,1.84l5.33,1.54c1.64.46,3.28,1.04,4.92,1.74,1.64.71,3.13,1.59,4.47,2.65,1.34,1.06,2.42,2.34,3.24,3.86.82,1.51,1.23,3.32,1.23,5.41,0,2.73-.71,5.19-2.12,7.37-1.41,2.18-3.44,3.9-6.09,5.15-2.65,1.25-5.82,1.88-9.51,1.88Z"/><path class="cls-1" d="M132.18,299.04c-2.57,0-4.84-.54-6.81-1.62-1.97-1.08-3.51-2.66-4.61-4.74-1.1-2.08-1.66-4.63-1.66-7.63v-24.68h4.64v24.34c0,3.12.88,5.58,2.63,7.39,1.75,1.81,4.1,2.71,7.03,2.71,2,0,3.8-.43,5.39-1.28,1.59-.85,2.85-2.08,3.77-3.69.92-1.6,1.38-3.5,1.38-5.68v-23.79h4.64v38.16h-4.51v-8.91h.68c-1.05,3.37-2.7,5.78-4.95,7.24-2.25,1.46-4.8,2.18-7.65,2.18Z"/><path class="cls-1" d="M161.93,253.29c-.91,0-1.7-.32-2.37-.96-.67-.64-1.01-1.4-1.01-2.29s.34-1.68,1.01-2.3c.67-.63,1.46-.94,2.37-.94s1.73.31,2.39.94c.66.63.99,1.39.99,2.3s-.33,1.65-.99,2.29c-.66.64-1.46.96-2.39.96ZM159.58,298.52v-38.16h4.64v38.16h-4.64Z"/><path class="cls-1" d="M188.1,260.36v4.03h-18.16v-4.03h18.16ZM175.6,251.28h4.64v38.23c0,1.89.42,3.28,1.26,4.16.84.89,2.13,1.24,3.86,1.06.32,0,.71-.04,1.18-.12.47-.08.9-.16,1.31-.26l.96,3.99c-.5.16-1.05.28-1.66.38-.6.09-1.21.15-1.83.17-3.05.21-5.43-.52-7.15-2.17-1.72-1.65-2.58-3.95-2.58-6.91v-38.54Z"/><path class="cls-1" d="M210.24,299.34c-3.57,0-6.66-.84-9.27-2.51-2.61-1.67-4.62-3.99-6.04-6.95-1.42-2.96-2.13-6.36-2.13-10.21s.7-7.26,2.1-10.24c1.4-2.98,3.36-5.33,5.87-7.03,2.51-1.71,5.43-2.56,8.76-2.56,2.09,0,4.11.38,6.04,1.14,1.93.76,3.67,1.92,5.22,3.48,1.55,1.56,2.76,3.53,3.65,5.92.89,2.39,1.33,5.2,1.33,8.43v2.01h-29.94v-3.99h27.45l-2.12,1.5c0-2.73-.47-5.18-1.4-7.34-.93-2.16-2.26-3.87-3.99-5.12-1.73-1.25-3.81-1.88-6.25-1.88s-4.52.64-6.33,1.91c-1.81,1.27-3.22,2.96-4.23,5.05-1.01,2.09-1.52,4.39-1.52,6.9v2.39c0,2.98.52,5.59,1.57,7.83,1.05,2.24,2.53,3.98,4.45,5.22,1.92,1.24,4.19,1.86,6.81,1.86,1.78,0,3.34-.28,4.69-.85,1.35-.57,2.49-1.33,3.41-2.27.92-.94,1.61-1.97,2.06-3.09l4.4,1.4c-.59,1.59-1.54,3.07-2.85,4.44-1.31,1.37-2.95,2.46-4.93,3.29-1.98.83-4.26,1.25-6.83,1.25Z"/></g></g><path id="sheild" class="cls-1" d="M217.01.63H83.5c-4.51,0-7.15,2.26-7.15,7.08v104.91c0,4.99,1.42,6.54,3.75,8.85l64.6,47.86c4.69,3.14,5.73,3.14,9.5.6l65.89-48.62c1.72-1.7,3.55-3.27,3.55-8.26V8.22c0-5.5-.56-7.59-6.63-7.59ZM219.48,111.52c0,4.7-1.73,6.19-3.35,7.79l-62.16,45.87c-3.56,2.4-4.54,2.4-8.96-.57l-60.95-45.15c-2.2-2.18-3.54-3.64-3.54-8.35V12.14c0-4.54,2.49-6.68,6.74-6.68h125.95c5.73,0,6.26,1.97,6.26,7.16v98.89ZM132.73,9.31h76.92c5.41,0,5.9,1.88,5.9,6.82v10.76h0l-57.99,37.71c-3.23,2.09-6.82.81-7.99-2.87l-16.84-52.43ZM84.56,111.92c-.07-.59-.11-1.25-.11-2V15.67c0-4.33,2.35-6.36,6.36-6.36h33.68l18.14,56.93c1.17,3.67-.52,8.37-3.74,10.45h0s-54.34,35.23-54.34,35.23ZM169.3,149.83l-15.56,11.59c-3.36,2.28-4.28,2.28-8.46-.54l-56.5-42.26,52.64-34.05c3.21-2.08,6.82-.8,7.98,2.86,0,0,12.63,39.67,19.89,62.4ZM215.55,36.47v73.85c0,4.48-1.63,5.89-3.16,7.42l-36.16,26.93-19.89-61.72c-1.17-3.67.52-8.37,3.74-10.45l55.47-36.02h0Z"/></g></svg>