<?xml version="1.0" encoding="UTF-8"?><svg id="Layer_3" xmlns="http://www.w3.org/2000/svg" xmlns:xlink="http://www.w3.org/1999/xlink" viewBox="0 0 500 500"><defs><style>.cls-1{fill:url(#linear-gradient);}</style><linearGradient id="linear-gradient" x1="335.18" y1="352.01" x2="174.49" y2="73.69" gradientUnits="userSpaceOnUse"><stop offset="0" stop-color="#47ba95"/><stop offset=".63" stop-color="#2d7dd0"/><stop offset="1" stop-color="#0891cc"/></linearGradient></defs><path id="sheild" class="cls-1" d="M367.48,100h-234.06c-7.91,0-12.53,3.96-12.53,12.4v183.91c0,8.74,2.48,11.46,6.57,15.51l113.25,83.9c8.22,5.51,10.04,5.51,16.65,1.05l115.52-85.23c3.01-2.98,6.22-5.74,6.22-14.48V113.31c0-9.65-.97-13.31-11.63-13.31ZM371.8,294.4c0,8.25-3.03,10.85-5.87,13.66l-108.98,80.41c-6.24,4.2-7.96,4.2-15.71-.99l-106.84-79.15c-3.86-3.82-6.2-6.38-6.2-14.63V120.19c0-7.96,4.36-11.7,11.82-11.7h220.81c10.05,0,10.97,3.45,10.97,12.56v173.36ZM219.72,115.23h134.84c9.48,0,10.35,3.29,10.35,11.96v18.87h0l-101.65,66.11c-5.65,3.67-11.95,1.41-14.01-5.03l-29.52-91.92ZM135.28,295.11c-.12-1.04-.19-2.19-.19-3.5V126.37c0-7.58,4.11-11.15,11.16-11.15h59.04l31.8,99.8c2.04,6.43-.91,14.67-6.55,18.32h0s-95.26,61.76-95.26,61.76ZM283.83,361.56l-27.27,20.31c-5.88,4-7.51,4-14.82-.94l-99.05-74.08,92.28-59.69c5.63-3.65,11.95-1.4,14,5.01,0,0,22.13,69.54,34.87,109.39ZM364.91,162.83v129.46c0,7.86-2.86,10.33-5.54,13.01l-63.38,47.21-34.87-108.2c-2.04-6.43.91-14.67,6.55-18.32l97.24-63.15h0Z"/></svg>