<?xml version="1.0" encoding="UTF-8"?><svg id="Layer_3" xmlns="http://www.w3.org/2000/svg" xmlns:xlink="http://www.w3.org/1999/xlink" viewBox="0 0 700 192"><defs><style>.cls-1{fill:url(#linear-gradient-2);}.cls-2{fill:url(#linear-gradient);}.cls-3{fill:#fffdf8;}</style><linearGradient id="linear-gradient" x1="678.49" y1="119.95" x2="697.58" y2="139.05" gradientUnits="userSpaceOnUse"><stop offset="0" stop-color="#47ba95"/><stop offset=".63" stop-color="#2d7dd0"/><stop offset="1" stop-color="#0891cc"/></linearGradient><linearGradient id="linear-gradient-2" x1="136.71" y1="160.6" x2="34.95" y2="-15.66" xlink:href="#linear-gradient"/></defs><g id="horizontal"><g id="subtitle"><g id="powered-by"><path class="cls-3" d="M417.73,137.63v-19.62h7.03c1.51,0,2.77.28,3.78.84s1.76,1.32,2.26,2.28.75,2.04.75,3.25-.25,2.3-.76,3.26-1.26,1.72-2.27,2.28-2.27.84-3.79.84h-4.81v-2.54h4.52c.97,0,1.75-.17,2.34-.5s1.03-.79,1.31-1.37.41-1.23.41-1.96-.14-1.39-.41-1.97-.71-1.02-1.32-1.35-1.39-.49-2.36-.49h-3.69v17.05h-3Z"/><path class="cls-3" d="M443.21,137.9c-1.69,0-3.21-.4-4.55-1.2s-2.39-1.96-3.16-3.46-1.15-3.3-1.15-5.39.38-3.9,1.15-5.4,1.82-2.66,3.16-3.47,2.85-1.21,4.55-1.21,3.21.4,4.54,1.21,2.38,1.96,3.15,3.47,1.15,3.31,1.15,5.4-.38,3.89-1.15,5.39-1.82,2.66-3.15,3.46-2.84,1.2-4.54,1.2ZM443.21,135.16c1.12,0,2.11-.28,3-.84s1.58-1.38,2.09-2.48.77-2.43.77-4.01-.26-2.94-.77-4.04-1.21-1.92-2.09-2.48-1.88-.84-3-.84-2.13.28-3.01.84-1.59,1.39-2.1,2.48-.77,2.43-.77,4.02.26,2.91.77,4,1.21,1.91,2.1,2.48,1.89.84,3.01.84Z"/><path class="cls-3" d="M459.3,137.63l-5.32-19.62h3.16l2.83,11.24c.18.69.34,1.41.49,2.16s.3,1.5.44,2.26.28,1.53.41,2.29h-.45c.14-.76.29-1.53.43-2.29s.3-1.52.46-2.26.33-1.47.51-2.16l2.91-11.24h3.29l2.88,11.24c.18.69.36,1.41.51,2.16s.31,1.5.47,2.26.3,1.53.44,2.29h-.47c.14-.76.28-1.53.42-2.29s.29-1.52.45-2.26.32-1.47.48-2.16l2.83-11.24h3.19l-5.35,19.62h-3.46l-3.12-11.63c-.24-.91-.46-1.91-.66-2.98s-.41-2.25-.62-3.53h.68c-.22,1.23-.42,2.37-.6,3.41s-.41,2.08-.68,3.09l-3.11,11.63h-3.48Z"/><path class="cls-3" d="M482.52,137.63v-19.62h12.35v2.58h-9.35v5.85h8.68v2.57h-8.68v6.04h9.43v2.58h-12.43Z"/><path class="cls-3" d="M498.78,137.63v-19.62h7.03c1.51,0,2.77.26,3.78.78s1.76,1.25,2.26,2.18.75,2,.75,3.2-.25,2.27-.76,3.18-1.26,1.61-2.27,2.11-2.27.75-3.79.75h-5.28v-2.57h4.99c.97,0,1.74-.14,2.34-.41s1.03-.67,1.31-1.19.42-1.14.42-1.87-.14-1.37-.42-1.91-.72-.95-1.32-1.24-1.38-.44-2.36-.44h-3.69v17.05h-3ZM509.93,137.63l-4.75-8.86h3.33l4.83,8.86h-3.41Z"/><path class="cls-3" d="M516.25,137.63v-19.62h12.35v2.58h-9.35v5.85h8.68v2.57h-8.68v6.04h9.43v2.58h-12.43Z"/><path class="cls-3" d="M535.51,118.02v19.62h-3v-19.62h3ZM538.88,137.63h-4.84v-2.63h4.69c1.48,0,2.72-.28,3.7-.83s1.72-1.37,2.21-2.44.74-2.39.74-3.93-.24-2.83-.73-3.9-1.21-1.87-2.17-2.42-2.16-.83-3.59-.83h-4.95v-2.63h5.15c1.93,0,3.58.39,4.96,1.17s2.44,1.9,3.17,3.36,1.11,3.21,1.11,5.25-.37,3.8-1.11,5.27-1.82,2.59-3.23,3.38-3.11,1.18-5.1,1.18Z"/><path class="cls-3" d="M559.16,137.63v-19.62h7.23c1.4,0,2.55.23,3.46.68s1.59,1.07,2.04,1.85.67,1.65.67,2.61c0,.82-.15,1.5-.45,2.06s-.7,1-1.2,1.34-1.06.59-1.67.74v.2c.66.03,1.3.23,1.92.63s1.14.94,1.55,1.65.61,1.56.61,2.57-.23,1.89-.7,2.69-1.19,1.43-2.17,1.9-2.22.7-3.75.7h-7.54ZM562.16,126.51h3.94c.66,0,1.25-.13,1.79-.38s.96-.61,1.26-1.08.46-1.01.46-1.63c0-.81-.28-1.48-.84-2.02s-1.43-.81-2.59-.81h-4.02v5.92ZM562.16,135.05h4.24c1.4,0,2.41-.27,3.03-.82s.92-1.22.92-2.03c0-.63-.16-1.2-.47-1.71s-.75-.92-1.32-1.22-1.25-.45-2.04-.45h-4.36v6.23Z"/><path class="cls-3" d="M582.59,137.63v-7.81l-7.23-11.81h3.5l3.69,6.25c.41.68.77,1.34,1.09,1.97s.63,1.41.97,2.34h-.96c.33-.95.66-1.74.97-2.38s.66-1.28,1.05-1.94l3.65-6.25h3.49l-7.2,11.81v7.81h-3Z"/></g><g id="will"><path class="cls-3" d="M606.57,137.63l-5.27-19.62h4.38l2.28,9.65c.18.81.35,1.67.51,2.59s.31,1.84.45,2.76.29,1.81.43,2.67h-.71c.16-.85.32-1.74.47-2.67s.32-1.85.49-2.76.35-1.78.55-2.59l2.4-9.65h4.17l2.38,9.65c.2.81.39,1.67.55,2.59s.33,1.84.49,2.76.32,1.81.48,2.67h-.74c.15-.85.3-1.74.44-2.67s.3-1.85.46-2.76.33-1.78.51-2.59l2.28-9.65h4.4l-5.28,19.62h-4.58l-2.61-10.03c-.28-1.12-.52-2.32-.72-3.62s-.42-2.64-.66-4.02h1c-.27,1.34-.49,2.66-.66,3.94s-.41,2.51-.72,3.7l-2.59,10.03h-4.59Z"/><path class="cls-3" d="M634.42,118.02v19.62h-4.02v-19.62h4.02Z"/><path class="cls-3" d="M637.98,137.63v-19.62h4.02v16.29h8.47v3.33h-12.48Z"/><path class="cls-3" d="M653.22,137.63v-19.62h4.02v16.29h8.47v3.33h-12.48Z"/></g><path id="ai" class="cls-2" d="M673.72,137.63l6.7-19.62h5.27l6.87,19.62h-4.46l-3.15-9.47c-.38-1.22-.76-2.56-1.15-4.01s-.8-3.04-1.23-4.76h.88c-.42,1.73-.81,3.32-1.18,4.79-.36,1.46-.73,2.79-1.09,3.98l-3.03,9.47h-4.44ZM677.91,133.08v-3.15h10.47v3.15h-10.47ZM699,118.02v19.62h-4.02v-19.62h4.02Z"/></g><g id="title"><g id="guardian"><path class="cls-3" d="M210.84,95.34c-5.28,0-9.91-1.17-13.89-3.51-3.98-2.34-7.09-5.67-9.32-10.01-2.24-4.33-3.35-9.47-3.35-15.41s1.16-11.34,3.49-15.67c2.32-4.33,5.47-7.65,9.44-9.95,3.97-2.3,8.43-3.45,13.38-3.45,3.18,0,6.15.46,8.89,1.38,2.74.92,5.18,2.23,7.31,3.92,2.13,1.69,3.88,3.7,5.23,6.01,1.35,2.31,2.23,4.87,2.63,7.67h-11.75c-.4-1.36-.97-2.58-1.69-3.66-.72-1.07-1.59-1.99-2.62-2.75-1.02-.76-2.19-1.33-3.51-1.72-1.31-.39-2.75-.59-4.32-.59-2.91,0-5.47.73-7.69,2.18-2.22,1.45-3.95,3.57-5.19,6.35-1.24,2.78-1.86,6.17-1.86,10.16s.61,7.38,1.84,10.18c1.23,2.79,2.95,4.92,5.17,6.39,2.22,1.47,4.85,2.2,7.88,2.2,2.73,0,5.07-.49,7.01-1.48,1.95-.99,3.44-2.39,4.49-4.23,1.05-1.83,1.57-3.97,1.57-6.42l2.43.34h-14.71v-8.79h23.5v7.05c0,4.95-1.05,9.2-3.15,12.75-2.1,3.55-4.98,6.28-8.64,8.19-3.66,1.91-7.86,2.86-12.58,2.86Z"/><path class="cls-3" d="M257.63,95.12c-2.93,0-5.5-.64-7.69-1.91-2.2-1.28-3.9-3.11-5.1-5.5-1.2-2.39-1.8-5.24-1.8-8.55v-26.95h11.37v24.98c0,2.63.68,4.69,2.05,6.18,1.36,1.49,3.23,2.24,5.61,2.24,1.62,0,3.04-.35,4.28-1.04,1.24-.69,2.2-1.71,2.9-3.03.69-1.33,1.04-2.92,1.04-4.79v-24.52h11.41v42.37h-10.76l-.15-10.57h.64c-1.11,3.56-2.81,6.3-5.1,8.22-2.29,1.92-5.19,2.88-8.7,2.88Z"/><path class="cls-3" d="M302.41,95.42c-2.68,0-5.09-.47-7.22-1.42-2.14-.95-3.82-2.36-5.04-4.24-1.23-1.88-1.84-4.23-1.84-7.03,0-2.35.44-4.32,1.31-5.91.87-1.59,2.06-2.87,3.56-3.83,1.5-.96,3.21-1.69,5.12-2.2,1.91-.5,3.91-.86,6.01-1.06,2.45-.25,4.43-.49,5.93-.7,1.5-.21,2.6-.56,3.3-1.02.69-.47,1.04-1.16,1.04-2.07v-.19c0-1.21-.25-2.24-.76-3.07-.51-.83-1.26-1.47-2.26-1.91-1-.44-2.2-.66-3.62-.66s-2.74.22-3.83.66c-1.09.44-1.97,1.03-2.65,1.76-.68.73-1.19,1.55-1.52,2.46l-10.42-1.71c.73-2.48,1.95-4.57,3.64-6.29,1.69-1.72,3.8-3.03,6.31-3.94,2.51-.91,5.35-1.36,8.51-1.36,2.27,0,4.48.27,6.63.81,2.15.54,4.07,1.38,5.78,2.52,1.71,1.14,3.06,2.62,4.06,4.45,1,1.83,1.5,4.02,1.5,6.58v28.54h-10.76v-5.87h-.38c-.68,1.31-1.59,2.47-2.73,3.47-1.14,1-2.51,1.79-4.11,2.37-1.6.58-3.46.87-5.55.87ZM305.63,87.42c1.79,0,3.37-.35,4.72-1.06,1.35-.71,2.41-1.67,3.17-2.88.76-1.21,1.14-2.56,1.14-4.06v-4.59c-.33.25-.83.48-1.52.68-.68.2-1.44.38-2.27.53-.83.15-1.66.29-2.46.42-.81.13-1.53.23-2.16.3-1.39.2-2.62.53-3.68.99s-1.88,1.06-2.46,1.8c-.58.75-.87,1.7-.87,2.86,0,1.09.28,2,.83,2.75.56.75,1.31,1.31,2.27,1.69.96.38,2.06.57,3.3.57Z"/><path class="cls-3" d="M334.87,94.59v-42.37h10.99v7.39h.45c.78-2.63,2.09-4.61,3.92-5.95,1.83-1.34,3.94-2.01,6.31-2.01.58,0,1.21.03,1.9.09.68.06,1.28.16,1.78.28v10.16c-.51-.18-1.24-.32-2.2-.42-.96-.1-1.87-.15-2.73-.15-1.72,0-3.27.37-4.66,1.12-1.39.75-2.47,1.78-3.24,3.11-.77,1.33-1.16,2.87-1.16,4.64v24.1h-11.37Z"/><path class="cls-3" d="M379.27,95.31c-3.23,0-6.16-.84-8.77-2.52-2.62-1.68-4.68-4.14-6.2-7.39-1.52-3.25-2.27-7.22-2.27-11.92s.78-8.86,2.35-12.09c1.57-3.23,3.65-5.66,6.25-7.28,2.6-1.62,5.47-2.43,8.6-2.43,2.4,0,4.4.4,5.99,1.21,1.59.81,2.88,1.81,3.87,2.99.99,1.19,1.72,2.34,2.2,3.45h.38v-21.22h11.37v56.47h-11.18v-6.78h-.57c-.51,1.14-1.26,2.28-2.26,3.43-1,1.15-2.29,2.12-3.88,2.9-1.59.78-3.55,1.17-5.87,1.17ZM382.79,86.17c1.92,0,3.56-.53,4.93-1.59s2.4-2.54,3.11-4.45c.71-1.91,1.06-4.14,1.06-6.69s-.35-4.81-1.04-6.69c-.7-1.88-1.72-3.35-3.09-4.4-1.36-1.05-3.02-1.57-4.96-1.57s-3.67.54-5.02,1.63c-1.35,1.09-2.37,2.58-3.05,4.47-.68,1.89-1.02,4.08-1.02,6.56s.35,4.67,1.04,6.59c.69,1.92,1.72,3.42,3.07,4.51,1.35,1.09,3.01,1.63,4.98,1.63Z"/><path class="cls-3" d="M417.64,46.68c-1.72,0-3.18-.57-4.4-1.71-1.21-1.14-1.82-2.51-1.82-4.13s.61-2.99,1.82-4.13c1.21-1.14,2.68-1.71,4.4-1.71s3.19.57,4.42,1.71c1.23,1.14,1.84,2.51,1.84,4.13s-.61,2.99-1.84,4.13c-1.23,1.14-2.7,1.71-4.42,1.71ZM411.96,94.59v-42.37h11.37v42.37h-11.37Z"/><path class="cls-3" d="M444.04,95.42c-2.68,0-5.09-.47-7.22-1.42-2.14-.95-3.82-2.36-5.04-4.24-1.23-1.88-1.84-4.23-1.84-7.03,0-2.35.44-4.32,1.31-5.91.87-1.59,2.06-2.87,3.56-3.83,1.5-.96,3.21-1.69,5.12-2.2,1.91-.5,3.91-.86,6.01-1.06,2.45-.25,4.43-.49,5.93-.7,1.5-.21,2.6-.56,3.3-1.02.69-.47,1.04-1.16,1.04-2.07v-.19c0-1.21-.25-2.24-.76-3.07-.51-.83-1.26-1.47-2.26-1.91-1-.44-2.2-.66-3.62-.66s-2.74.22-3.83.66c-1.09.44-1.97,1.03-2.65,1.76-.68.73-1.19,1.55-1.52,2.46l-10.42-1.71c.73-2.48,1.95-4.57,3.64-6.29,1.69-1.72,3.8-3.03,6.31-3.94,2.51-.91,5.35-1.36,8.51-1.36,2.27,0,4.48.27,6.63.81,2.15.54,4.07,1.38,5.78,2.52,1.71,1.14,3.06,2.62,4.06,4.45,1,1.83,1.5,4.02,1.5,6.58v28.54h-10.76v-5.87h-.38c-.68,1.31-1.59,2.47-2.73,3.47-1.14,1-2.51,1.79-4.11,2.37-1.6.58-3.46.87-5.55.87ZM447.26,87.42c1.79,0,3.37-.35,4.72-1.06,1.35-.71,2.41-1.67,3.17-2.88s1.14-2.56,1.14-4.06v-4.59c-.33.25-.83.48-1.52.68-.68.2-1.44.38-2.27.53-.83.15-1.66.29-2.46.42-.81.13-1.53.23-2.16.3-1.39.2-2.62.53-3.68.99s-1.88,1.06-2.46,1.8c-.58.75-.87,1.7-.87,2.86,0,1.09.28,2,.83,2.75.56.75,1.31,1.31,2.27,1.69.96.38,2.06.57,3.3.57Z"/><path class="cls-3" d="M487.87,70.06v24.52h-11.37v-42.37h10.73l.19,10.57h-.68c1.11-3.54,2.8-6.27,5.06-8.21,2.26-1.93,5.19-2.9,8.77-2.9,2.93,0,5.49.64,7.67,1.91,2.19,1.28,3.88,3.11,5.08,5.5,1.2,2.39,1.8,5.24,1.8,8.55v26.95h-11.37v-24.98c0-2.63-.68-4.69-2.03-6.18-1.35-1.49-3.23-2.24-5.63-2.24-1.59,0-3.01.35-4.26,1.04-1.25.7-2.22,1.7-2.92,3.01-.7,1.31-1.04,2.92-1.04,4.81Z"/></g><g id="suite"><path class="cls-3" d="M550.28,95.42c-3.84,0-7.19-.64-10.04-1.91-2.86-1.28-5.1-3.06-6.73-5.34-1.63-2.29-2.55-4.95-2.75-7.98h5.5c.2,2.25.94,4.14,2.22,5.67,1.28,1.53,2.94,2.69,5,3.49,2.06.8,4.33,1.19,6.8,1.19,2.8,0,5.29-.47,7.45-1.4,2.16-.93,3.86-2.24,5.1-3.92,1.24-1.68,1.86-3.63,1.86-5.86,0-1.87-.49-3.44-1.46-4.72-.97-1.28-2.34-2.36-4.09-3.24-1.76-.88-3.82-1.67-6.2-2.35l-6.67-1.93c-4.5-1.31-7.96-3.16-10.38-5.53-2.43-2.37-3.64-5.34-3.64-8.91,0-3.06.81-5.75,2.44-8.07,1.63-2.32,3.85-4.14,6.65-5.44,2.8-1.3,5.95-1.95,9.44-1.95s6.7.66,9.42,1.97c2.72,1.31,4.86,3.1,6.44,5.34,1.58,2.25,2.43,4.81,2.56,7.69h-5.27c-.33-3.13-1.71-5.61-4.13-7.43-2.43-1.82-5.48-2.73-9.17-2.73-2.58,0-4.85.45-6.82,1.35-1.97.9-3.51,2.12-4.62,3.68-1.11,1.55-1.67,3.34-1.67,5.36s.55,3.57,1.65,4.87c1.1,1.3,2.51,2.37,4.23,3.2,1.72.83,3.47,1.52,5.27,2.05l5.91,1.71c1.82.51,3.64,1.15,5.46,1.93,1.82.78,3.47,1.76,4.97,2.94,1.49,1.18,2.69,2.6,3.6,4.28.91,1.68,1.36,3.68,1.36,6.01,0,3.03-.78,5.76-2.35,8.19-1.57,2.43-3.82,4.33-6.77,5.72-2.94,1.39-6.46,2.08-10.55,2.08Z"/><path class="cls-3" d="M595.1,95.04c-2.86,0-5.38-.6-7.56-1.8-2.19-1.2-3.89-2.96-5.12-5.27-1.23-2.31-1.84-5.14-1.84-8.47v-27.4h5.15v27.02c0,3.46.97,6.2,2.92,8.21,1.95,2.01,4.55,3.01,7.81,3.01,2.22,0,4.22-.47,5.99-1.42,1.77-.95,3.16-2.31,4.19-4.09,1.02-1.78,1.53-3.88,1.53-6.31v-26.42h5.15v42.37h-5v-9.89h.76c-1.16,3.74-2.99,6.42-5.5,8.03-2.5,1.62-5.33,2.43-8.49,2.43Z"/><path class="cls-3" d="M628.13,44.25c-1.01,0-1.89-.35-2.63-1.06-.75-.71-1.12-1.55-1.12-2.54s.37-1.86,1.12-2.56c.74-.69,1.62-1.04,2.63-1.04s1.92.35,2.65,1.04c.73.7,1.1,1.55,1.1,2.56s-.37,1.83-1.1,2.54c-.73.71-1.62,1.06-2.65,1.06ZM625.51,94.47v-42.37h5.15v42.37h-5.15Z"/><path class="cls-3" d="M657.18,52.1v4.47h-20.16v-4.47h20.16ZM643.31,42.02h5.15v42.45c0,2.1.47,3.64,1.4,4.62.93.99,2.36,1.38,4.28,1.18.35,0,.79-.04,1.31-.13.52-.09,1-.18,1.46-.28l1.06,4.43c-.56.18-1.17.32-1.84.42-.67.1-1.35.16-2.03.19-3.39.23-6.03-.57-7.94-2.41-1.91-1.83-2.86-4.39-2.86-7.67v-42.79Z"/><path class="cls-3" d="M681.76,95.38c-3.97,0-7.4-.93-10.29-2.79-2.89-1.86-5.13-4.43-6.71-7.71-1.58-3.28-2.37-7.06-2.37-11.33s.78-8.06,2.33-11.37c1.55-3.31,3.73-5.91,6.52-7.81,2.79-1.9,6.03-2.84,9.72-2.84,2.32,0,4.56.42,6.71,1.27,2.15.85,4.08,2.14,5.8,3.87,1.72,1.73,3.07,3.92,4.06,6.58.99,2.65,1.48,5.77,1.48,9.36v2.24h-33.24v-4.43h30.47l-2.35,1.67c0-3.03-.52-5.75-1.55-8.15-1.04-2.4-2.51-4.29-4.43-5.69-1.92-1.39-4.23-2.08-6.94-2.08s-5.02.71-7.03,2.12c-2.01,1.42-3.58,3.28-4.7,5.61-1.12,2.32-1.69,4.88-1.69,7.66v2.65c0,3.31.58,6.21,1.74,8.7,1.16,2.49,2.81,4.42,4.95,5.8,2.13,1.38,4.66,2.07,7.56,2.07,1.97,0,3.71-.32,5.21-.95,1.5-.63,2.77-1.47,3.79-2.52,1.02-1.05,1.79-2.19,2.29-3.43l4.89,1.55c-.66,1.77-1.71,3.41-3.16,4.93-1.45,1.52-3.28,2.74-5.48,3.66-2.2.92-4.73,1.38-7.58,1.38Z"/></g></g><path id="sheild" class="cls-1" d="M157.17,1H8.94C3.93,1,1,3.51,1,8.86v116.47c0,5.54,1.57,7.26,4.16,9.82l71.72,53.14c5.2,3.49,6.36,3.49,10.55.67l73.16-53.98c1.9-1.89,3.94-3.63,3.94-9.17V9.43c0-6.11-.62-8.43-7.36-8.43ZM159.91,124.12c0,5.22-1.92,6.87-3.72,8.65l-69.02,50.92c-3.95,2.66-5.04,2.66-9.95-.63L9.55,132.94c-2.44-2.42-3.93-4.04-3.93-9.27V13.79c0-5.04,2.76-7.41,7.49-7.41h139.84c6.36,0,6.95,2.19,6.95,7.95v109.79ZM63.59,10.65h85.4c6,0,6.55,2.08,6.55,7.57v11.95h0l-64.38,41.87c-3.58,2.32-7.57.9-8.87-3.18L63.59,10.65ZM10.11,124.57c-.08-.66-.12-1.39-.12-2.22V17.71c0-4.8,2.6-7.06,7.06-7.06h37.39l20.14,63.2c1.29,4.07-.58,9.29-4.15,11.6h0S10.11,124.57,10.11,124.57ZM104.19,166.65l-17.27,12.87c-3.73,2.53-4.76,2.53-9.39-.6l-62.73-46.92,58.44-37.8c3.56-2.31,7.57-.89,8.87,3.17,0,0,14.02,44.04,22.09,69.28ZM155.54,40.8v81.99c0,4.97-1.81,6.54-3.51,8.24l-40.14,29.9-22.09-68.53c-1.29-4.07.58-9.29,4.15-11.6l61.59-40h0Z"/></g></svg>