<svg viewBox="0 0 500 292" xmlns="http://www.w3.org/2000/svg"><rect fill="#595959" height="284.24" rx="11.75" width="415.14" x="42.41" y="1.2"/><rect fill="#191919" height="269.45" rx="11.75" width="415.14" x="42.41" y="15.99"/><rect fill="#303030" height="280.29" rx="13.63" width="415.14" x="42.41" y="3.17"/><path d="m63.98 20.8h372v245.04h-372z" fill="#a4a4a4"/><path d="m430.25 290h-361.25a312.91 312.91 0 0 1 -45.15-3.27l-21.85-3.2v-2.65h496v2.46l-21.3 3.2a313.34 313.34 0 0 1 -46.45 3.46z" fill="#303030"/><path d="m1.96 280.39h496v2.65h-496z" fill="#777"/><path d="m1.96 280.88h496v2.65h-496z" fill="#595959"/><path d="m209.2 281.67h81.52a0 0 0 0 1 0 0 1.86 1.86 0 0 1 -1.86 1.86h-77.8a1.86 1.86 0 0 1 -1.86-1.86 0 0 0 0 1 0 0z" fill="#777"/><path d="m209.2 280.88h81.52a0 0 0 0 1 0 0 1.86 1.86 0 0 1 -1.86 1.86h-77.8a1.86 1.86 0 0 1 -1.86-1.86 0 0 0 0 1 0 0z" fill="#303030"/></svg>