<svg viewBox="0 0 885 292" xmlns="http://www.w3.org/2000/svg"><rect fill="#595959" height="284.24" rx="11.75" width="415.14" x="40.91" y="1.2"/><rect fill="#191919" height="269.45" rx="11.75" width="415.14" x="40.91" y="15.99"/><rect fill="#303030" height="280.29" rx="13.63" width="415.14" x="40.91" y="3.17"/><path d="m62.48 20.8h372v245.04h-372z" fill="#a4a4a4"/><path d="m428.75 290h-361.23a312.91 312.91 0 0 1 -45.15-3.27l-21.91-3.2v-2.65h496v2.46l-21.3 3.2a313.34 313.34 0 0 1 -46.41 3.46z" fill="#303030"/><path d="m.46 280.39h496v2.65h-496z" fill="#777"/><path d="m.46 280.88h496v2.65h-496z" fill="#595959"/><path d="m207.7 281.67h81.52a0 0 0 0 1 0 0 1.86 1.86 0 0 1 -1.86 1.86h-77.8a1.86 1.86 0 0 1 -1.86-1.86 0 0 0 0 1 0 0z" fill="#777"/><path d="m207.7 280.88h81.52a0 0 0 0 1 0 0 1.86 1.86 0 0 1 -1.86 1.86h-77.8a1.86 1.86 0 0 1 -1.86-1.86 0 0 0 0 1 0 0z" fill="#303030"/><rect fill="#262626" height="200" rx="5.99" width="134.94" x="599.75" y="90.14"/><rect fill="#595959" height="199.5" rx="5.99" width="134.94" x="599.75" y="90.14"/><rect fill="#303030" height="199.1" rx="5.99" width="134.94" x="599.75" y="90.54"/><circle cx="667.22" cy="284.15" fill="#4b4b4b" r="3.8"/><circle cx="667.22" cy="283.75" fill="#282828" r="3.8"/><circle cx="667.14" cy="95.65" fill="#4b4b4b" r=".74"/><circle cx="667.14" cy="95.37" fill="#282828" r=".74"/><path d="m601.03 100.74h132.22v176.3h-132.22z" fill="#a4a4a4"/><rect fill="#262626" height="100" rx="4.79" width="47.68" x="836.5" y="190.31"/><rect fill="#595959" height="99.6" rx="4.79" width="47.68" x="836.5" y="190.31"/><rect fill="#303030" height="99.28" rx="4.79" width="47.68" x="836.5" y="190.63"/><circle cx="860.42" cy="285.36" fill="#4b4b4b" r="3.04"/><circle cx="860.42" cy="285.04" fill="#282828" r="3.04"/><path d="m837.56 198.92h45.49v81.01h-45.49z" fill="#a4a4a4"/><circle cx="860.34" cy="195.06" fill="#4b4b4b" r=".6"/><circle cx="860.34" cy="194.84" fill="#282828" r=".6"/></svg>