<svg enable-background="new 0 0 500 500" viewBox="0 0 500 500" xmlns="http://www.w3.org/2000/svg"><path d="m490.7 52.7c-3.2-15.7-10.2-29.3-23.3-39.2-13.4-10.1-29-13.4-45.4-13.5-21.2-.2-41.5 4.8-61.3 11.8-26.7 9.4-51.6 22.3-75.6 37.2-2.3 1.4-4.5 2.3-7.4 1.9-3.7-.4-7.4-.7-11.1-.8-23.4-1.1-46.8 1.2-69.6 6.7-23.5 5.7-45.9 15.1-66.5 27.7-25.4 15.6-46.8 35.4-63.9 59.9-18.6 26.7-29.8 56.1-33.2 88.4-.8 7.1-1.3 14.2-.7 21.9 1.1-1.6 1.8-2.6 2.4-3.6 20.6-31.9 44.5-61.1 72.5-86.6 22.9-20.9 47.8-38.8 76-51.7 8.6-4 17.5-7.4 26.9-9.6-.2.2-.4.4-.6.6-25 21.2-48.6 44.1-70.7 68.4-42.9 47.6-80.3 99.2-107.2 157.9-9.9 21.7-17.8 44.1-22 67.7-3.2 17.9-4.3 35.9.3 53.8 3.9 15.3 11.7 28 25.1 36.9 15.7 10.3 33.3 12.5 51.5 11.2 22.4-1.5 43.6-7.8 64.4-16 21.3-8.5 41.5-19.1 61-31 1.7-1 3.2-1.8 5.3-1.4 8.3 1.5 16.7 2.5 25.2 2.8 28.3 1.6 56.6-1.8 83.7-10 33.6-10.2 63.5-26.9 89.4-50.9 24.1-22.4 42-49.1 53.1-80.1 1-2.9.3-3.3-2.4-3.3-47.2.1-94.5.1-141.7 0-2.4 0-3.4.7-4.3 3-16.6 42.4-68.5 57.6-105 30.4-19.2-14.3-28.2-34-27.8-58 .1-4.6-.7-4.2 4.2-4.2 93.8 0 187.6 0 281.5.1 2.8 0 3.8-.6 4.2-3.6 2.5-18.2 2.3-36.6-.6-54.7-5.3-33.2-18.9-62.8-39.9-88.9-27.8-34.5-63-57.9-104.7-71.8-.8-.3-1.9-.1-2.3-1.5 14-7.9 28.4-15 43.5-20.7 17.4-6.6 35.1-11.7 53.9-12 11.1-.2 22 1.4 31.8 7 14.5 8.3 21 21.8 23.1 37.8 1.6 12.1.3 24.1-1.9 36-.8 4.6-.8 4.4 3.8 4.6 2.5.1 3.9-.5 4.1-3.3.2-2.5 1-5 1.5-7.5 2.9-16.5 4.1-33.2.7-49.8zm-291.1 395.3c-10.8 6.4-21.9 12.1-33.3 17.2-17.4 7.8-35.3 14.3-54.2 17.2-11.2 1.7-22.5 2.1-33.7-.6-20-4.9-31.5-18-35.5-37.9-2.8-14-1.5-28 1.3-41.9 3.4-17.1 9.2-33.4 16-49.4.3-.5.5-1 .8-1.4 33.1 50.9 79.8 81.9 138.6 96.8zm122.6-231.2c-21.9-.1-43.8-.1-65.7-.1h-65.1c-4 0-4 0-3.6-4.1 3.3-37.2 35.6-65.1 72.9-62.9 34.9 2.1 62.5 30.8 64.3 64.1.2 2.4-.3 3-2.8 3z" fill="#2e2e2f"/></svg>