<svg enable-background="new 0 0 500 500" viewBox="0 0 500 500" xmlns="http://www.w3.org/2000/svg"><path d="m259.8 500h-21.5c-2-.5-4.1-.8-6.2-1.1-26.4-1.5-52-6.8-75.7-18.4-70.5-34.5-112.8-92-132.6-166.8-8.5-32.2-9.3-65.1-6.2-98.3 2.9-30.5 9.4-60.2 23-87.6 36.8-73.8 95.9-116.4 178.4-125.7 6.4-.7 12.9-1.4 19.3-2.1h22.5c1.7.3 3.5.8 5.2 1 9.2 1.1 18.5 1.6 27.6 3.1 73.2 12.6 126.8 52.6 162.1 117.4 15.9 29.2 23.6 61 26.8 94 2.7 27.2 2.2 54.2-2.5 81.1-8.8 50.6-31.4 94.3-66.1 131.9-37 40-82.3 63.8-136.7 69.5-5.8.6-11.6 1.3-17.4 2zm77.2-251.1c-1.2-24.4-2.1-48.7-3.8-73.1-1.5-24.2-6.4-48-14.8-70.8-11-29.5-32.4-53.8-74.5-51.6-20.1 1.1-36.7 8.9-49.2 25-9.3 12.1-14.3 26.1-18.2 40.6-9.8 35.8-11.8 72.4-12.5 109.1-.5 35.5 1 70.9 4.6 106.2 2.7 27.5 10 53.4 23.4 77.8 24.5 44.6 91.2 42.3 114.5.7 13-22.8 21.4-47.9 24.7-73.9 3.9-29.8 5.1-59.8 5.8-90z" fill="#2d2f2e"/></svg>