<svg enable-background="new 0 0 400 200" viewBox="0 0 400 200" xmlns="http://www.w3.org/2000/svg"><g fill="#2d2f2e"><path d="m330.9 123.3c2.4-7.1 4.6-13.4 6.7-19.6.5-1.7 1-3.1 3.3-2.9 2.2.2 3.7.2 4.6 2.9 1.8 5.4 3.8 10.8 5.2 16.3.2 1 .8 1.9 1.6 2.5 2.1-6.7 4.4-13.2 6-19.9.6-2.6 1.5-3.2 3.8-2.9 1 .1 1.9.1 2.9 0 2.2-.2 2.6.5 1.9 2.6-3.2 9.1-6.2 18.3-9.3 27.5-.1.4-.3.9-.4 1.3-.9 4-3.8 5.6-7.5 4.3-1.2-.4-1.2-1.4-1.5-2.3-2.2-6.3-4.3-12.5-6.8-19.8-2.3 6.8-4.4 12.8-6.3 18.8-.7 2.1-1.3 3.6-4.1 3.3-2.4-.3-4.4.1-5.4-3.2-2.9-10.2-6.4-20.3-9.7-30.5-.6-1.9-.2-2.2 1.7-2.2 6.4-.2 6.7-.3 7.9 5.7s3.4 11.5 5.4 18.1z"/><path d="m199.9 146.3h-195.3c-1 0-2.7.7-2.6-1.4s1.7-1.3 2.7-1.4c1.2-.1 2.4-.1 3.6 0h389.2c.6-.1 1.2.3 1.3.9v.3c.1 1.1-.4 1.6-1.4 1.6z"/><path d="m102.6 74.3c3.2 2.1 6.2 4.2 5.7 8.4-.8 6.5-3.8 10-9.3 10.1-6.9.1-13.8 0-20.7.1-1.8 0-2.2-.6-2.2-2.3.1-10.4.1-20.8 0-31.2 0-1.9.5-2.5 2.4-2.5 5.6.1 11.1.1 16.7.1 4.6 0 8.6 1.2 10.5 5.8 1.9 4.4.7 8.3-3.1 11.5zm-11.4 3.9-2.2-.1c-4.7 0-6 1.9-4.8 6.6.1.7.8 1.3 1.5 1.2h.1c3.6.3 7.2.4 10.8.3 2.2-.1 3.9-1.9 3.9-4.1 0-.1 0-.2 0-.3.1-2-1.5-3.6-3.4-3.7h-.3c-2 0-3.8.1-5.6.1zm-.8-14.3h-2.9c-4.4 0-4.5 0-3.4 4.6.2 1.1-.8 3.1 1.3 3.1 3.3.1 6.7 0 10-.3 2.2-.2 3.1-2.1 2.8-4.3-.3-1.9-1.2-3.3-3.5-3.1-1.4.1-2.9 0-4.3 0z"/><path d="m272 120.2c0-5.7.2-11.4 0-17-.2-3.4 1.5-3.7 4.1-3.5 2.2.2 4.3-.5 4.2 3.3-.3 9.4 0 18.8-.2 28.3 0 1.4 1.2 4-1.1 4.2-2.5.2-5.4 1.2-7.6-1.7-4.8-6.3-9.8-12.5-14.7-18.7-.3-.3-.5-.7-1.4-1.8 0 7-.2 13.1.1 19.2.2 3.2-1.3 3.4-3.6 3.1-2-.3-4.9 1.4-4.8-3 .3-9.5 0-19.1.1-28.6 0-1.4-1.2-3.7 1-4s5.1-1.3 7.1 1.1c3.3 4 6.5 8.1 9.8 12.1 2.1 2.6 4.2 5.1 6.3 7.7l.8.4z"/><path d="m113.7 114.4v18.9c0 1.6-.3 2.6-2.2 2.3-1.3-.1-2.7-.1-4 0-1.5.1-2.2-.3-2.2-1.9.1-10.6.1-21.3 0-31.9 0-1.7.7-1.9 2.2-2 3.3-.3 5.8.5 8 3.5 4.5 6.2 9.5 12.1 15 19v-11.9c0-2.2.1-4.4 0-6.5-.3-3.2 1.1-4 4.1-4.2 3.5-.2 4.1 1 4.1 4.2-.2 9.2 0 18.4-.1 27.6 0 1.4 1.1 3.8-1 4-2.3.2-5.1 1.4-7.1-1.1-4.5-5.7-9.1-11.2-13.6-17-.9-1.3-2-2.2-3.2-3z"/><path d="m166.1 114.1c0 6.4-.1 12.4 0 18.5.1 2.2-.2 3.2-2.9 3.2-5.3-.2-5.3 0-5.3-5.4 0-8.8 0-17.6.1-26.5 0-1.3-.9-3.7.7-3.9 2.3-.3 5.2-1.5 7.1.9 4.8 5.8 9.4 11.7 14 17.7.8 1 1.3 2.2 3.1 2.4 0-6.2.1-12.3 0-18.4 0-2.2.4-2.8 2.8-2.5 5.4.6 5.4.4 5.4 6 0 8.6.1 17.2-.1 25.7 0 1.1 1.3 3.2-1.3 3.3-2.2.1-4.2 2.1-6.7-.9-5.3-6.4-10.4-12.9-15.6-19.4-.3-.3-.8-.5-1.3-.7z"/><path d="m2.2 117.4c0-5 .1-9.9 0-14.9 0-1.9.4-2.8 2.6-2.8 8 .1 16 .1 23.9 0 1.7 0 2.2.5 2.3 2.2.2 5.4.3 5.4-5.2 5.4-4.2 0-8.5.2-12.7 0-2.7-.1-2.6 1.3-2.5 3.1s-.6 3.7 2.5 3.4c2.5-.2 5.1.1 7.6-.1 3.7-.2 2.7 2.4 2.8 4.4s0 3.6-2.8 3.2c-2-.3-4.1.2-6.2-.1-3.4-.4-4.4.8-4.1 4.1.1 2.2.9 2.6 2.8 2.6 5.2-.1 10.4.1 15.6-.1 3.8-.2 2.4 2.4 2.5 4.1s.8 3.8-2.6 3.6c-8-.3-16-.2-23.9 0-2.2 0-2.7-.8-2.6-2.7.1-5 0-10.2 0-15.4z"/><path d="m284.8 117.9c0-5.1.1-10.1 0-15.2 0-2.1.2-3 2.7-3 7.9.2 15.7.2 23.6 0 3.2-.1 2.5 1.9 2.4 3.5s1.3 4.4-2.5 4.2c-5.1-.2-10.2.1-15.2-.1-2.9-.2-2.6 1.5-2.7 3.4s0 3.6 2.8 3.3c2.3-.2 4.6.1 6.9-.1 2.6-.3 3.8.3 3.5 3.2-.3 2.3.6 5-3.5 4.4-2.1-.3-4.4.1-6.5-.1-2.7-.3-3.2.9-3.2 3.3 0 2.2.1 3.6 3 3.4 5.1-.2 10.1.1 15.2-.1 4-.2 2.4 2.6 2.7 4.4s.3 3.4-2.6 3.3c-8-.2-16-.2-23.9 0-2 0-2.6-.4-2.6-2.6 0-5.1-.1-10.2-.1-15.2z"/><path d="m72.6 117.5v-15.2c0-1.7.2-2.6 2.3-2.6 8 .1 16 .2 23.9.1 4.2 0 1.9 2.9 2.3 4.6s.2 3.2-2.5 3.1c-5.2-.2-10.4.1-15.6-.1-2.4-.1-2.6 1.1-2.3 2.8.2 1.6-1 3.9 2.3 3.7 2.2-.1 4.4 0 6.5 0 2.4 0 4.4 0 4.3 3.5-.1 3.2-1.1 4.4-4.3 4-1.8-.2-3.7.2-5.4-.1-3.1-.4-3.5 1-3.5 3.7 0 2.4.7 3.1 3 3 5.2-.2 10.4.1 15.6-.1 3.9-.1 2.2 2.6 2.4 4.3s.7 3.6-2.4 3.5c-8.1-.2-16.2-.2-24.3 0-2 0-2.4-.7-2.4-2.5.2-5.3.1-10.5.1-15.7z"/><path d="m222.8 115.4c8 0 8.1 0 7.9 7.8-.1 2.5 1.2 5.4-1.1 7.6-3.9 3.9-8.8 5.3-14.1 5.5-13.8.5-23.3-10.3-19.9-23.1 1.8-7.4 8.1-12.8 15.8-13.4 7.3-.7 12.3 1.3 17.1 6.2 2 2.1 1.3 3.1-.8 3.6s-3.7 2-6.3-.5c-4.9-4.8-14.1-2.4-17.5 3.6-2.6 4.6.4 13 5.5 15.1 3.7 1.5 7.9 1.5 11.6 0 2.3-.8 2.3-2.3 2.2-4.1-.2-2.5-2.1-1.3-3.3-1.5-.6-.1-1.2-.1-1.8 0-2.5.4-3.6-.3-3.5-3.2s.7-3.9 3.6-3.5c1.4 0 3 0 4.6-.1z"/><path d="m382.8 136.3c-4.7-.5-9.6-.7-13.8-3.9-2.6-2-.7-3.6-.1-5.3.8-2.2 2.4-1.6 3.8-.8 4.2 2.4 9.2 3.2 14 2.4.9-.2 1.8-.5 2.7-.9 1.4-.6 2.3-1.9 2.3-3.4.1-1.4-1.7-1.4-2.7-1.7-4.4-1-8.8-1.5-13.2-2.5-8.5-2-10.9-8.1-6.6-15.6 1.1-1.8 2.8-3.1 4.8-3.8 5.7-2.3 11.3-1.7 17 .1 1.3.3 2.5 1 3.4 1.9 1.2 1.4 3.9 2.7 3.1 4.3s-3.3 2.2-5 3.2c-.8.5-1.2-.1-1.7-.7-3.3-3.7-7.6-3.7-12-2.8-2.1.4-3.6 1.8-3.3 4.1s2.5 3.1 4.3 3c5-.5 9.6 1 14.2 2.4 6 1.8 7.4 10.4 2.7 15.4-3.7 3.9-8.7 4.3-13.9 4.6z"/><path d="m125.5 93.6c-4.8-.5-10.1-.5-14-4.2-2.5-2.4-.1-4.5 1-6.4 1.2-2.1 2.3.1 3 .7 3.4 2.6 12.6 3.5 16.4 1.5 1.3-.7 2.2-1.6 2.2-3s-1.5-1.9-2.8-2.2c-3.9-.7-7.8-1.5-11.6-2.1-6-1.1-9.1-4-9.6-8.6-.5-4.4 3-10.1 8.1-11.8 6-1.9 17.9-.4 20.8 4.3.6 1 3.1 2.2 1 3.3-1.9 1-3.7 4.2-6.4 1.7-3.6-3.3-7.7-3.3-11.9-2.6-1.7.3-3.3 1.3-3.4 3.3-.1 2.2 1.8 2.7 3.4 3 4.3.8 8.6 1.3 12.8 2.3 5 1.2 7.4 3.9 7.7 8 .5 4.6-2.1 9-6.3 10.9-3.2 1.3-6.7 1.7-10.4 1.9z"/><path d="m38.4 76.8c0-10.6 4.8-17.7 12.7-19.5 7-1.6 14-1.3 19.4 4.6 2.5 2.7 2.2 3.5-.8 5.4-2.5 1.6-3.9 2.2-5.7-1.1-1.2-2.4-4.7-2-7.2-2.1-6.2-.1-10.1 4.2-10.1 10.8 0 6.3 4.1 10.6 10.2 10.9 3.7.2 7-.5 8.8-4.1.6-1.2 1.2-1.1 2.3-.6 5.7 2.6 6.1 4.5 1.1 8.4-5.9 4.6-12.7 5.3-19.5 2.6-6.6-2.4-11-8.4-11.2-15.3z"/><path d="m52 125.1c2.9-7.5 5.8-15 8.7-22.6.4-1 .3-2.6 1.9-2.7 2.4-.1 4.8-.1 7.2.1.6 0 .3.9.1 1.5-4.3 10.3-8.5 20.7-12.7 31-.8 2-1.6 3.7-4.3 3.2s-5.6 1-7-3c-3.2-9.1-7.8-17.8-10.5-27.1 0-.1 0-.2 0-.3-1.3-1.5-3.3-4.2-2-5 1.7-1.1 4.6-.4 7-.4 1.7 0 1.7 1.6 2 2.6 2.8 7 5.5 13.9 8.2 20.9.2.6.2 1.5 1.4 1.8z"/><path d="m18.1 56.6c10.2.1 18.3 8.5 18.2 18.6-.1 10.2-8.5 18.3-18.6 18.2-10.1-.2-18.2-8.4-18.1-18.6 0-.1 0-.1 0-.2.2-9.7 8.3-18.4 18.5-18zm-.7 29.1c7.1-.3 12.3-3 16.3-8.4 1.2-1.6 1.3-2.9.1-4.5-7.9-11.2-24.2-11.6-31.9.2-1 1.1-.9 2.8.1 3.9 3.5 5.2 9.2 8.4 15.4 8.8z"/><path d="m152.4 118.1c0 4.9-.1 9.9 0 14.8 0 1.9-.3 3-2.5 2.6-1-.2-1.9-.2-2.9 0-2.3.4-2.8-.7-2.8-2.8.1-9.8.1-19.5 0-29.3 0-2.6.6-3.9 3.4-3.1.8.3 1.7.3 2.5 0 2.4-1 2.2.6 2.2 2.1 0 5.4.1 10.6.1 15.7z"/><path d="m17.5 84.6c-5.2-.1-9.6-5.2-9.3-10.1s4.9-10 9.4-8.9c1.9.5 4.5.2 6.4 2.1 2.3 2.3 3.8 4.5 3.6 7.7-.2 5.2-4.5 9.3-9.7 9.2z"/></g></svg>