<svg enable-background="new 0 0 400 200" viewBox="0 0 400 200" xmlns="http://www.w3.org/2000/svg"><g fill="#2d2f2e"><path d="m287.9 53h11.9v.8 76.3c0 4.3-.9 8.4-3.7 11.8-3.6 4.4-8.3 6.1-13.8 5.6-6.7-.6-11.8-4.1-15.3-9.8-6.6-10.8-13.1-21.7-19.7-32.5-.2-.3-.4-.6-.7-.8v25.6c0 3.3-.5 6.6-2.1 9.5-2.5 4.7-6.5 7.4-11.7 7.9-8.3.8-14.5-2.8-18.8-9.6-6.1-9.7-11.9-19.6-17.9-29.4-.8-1.3-1.6-2.6-2.4-3.9h-.2v23.1c.1 3-.4 5.9-1.4 8.7-2.3 5.8-6.7 9-12.7 10-1 .2-2 .3-3.1.3-9.7 0-19.5.2-29.2-.1-10.3-.2-20-3-28.5-9.1-9.5-6.9-15.2-16.2-17.7-27.5-.9-3.6-1.3-7.3-1.2-10.9.5-13.3 4.9-24.9 14.9-34 6.3-5.7 13.8-9.1 22.1-10.8 4.1-.8 8.2-1.2 12.3-1.1h13.5.6v11.8h-1c-5.5 0-11-.1-16.5 0-8.6.1-16.4 2.6-22.9 8.5-6 5.3-9.4 12.1-10.8 19.9-1.5 8.8-.2 17.1 4.3 24.9 5 8.5 12.5 13.4 22 15.5 3.1.7 6.2 1 9.4.9 9 0 17.9-.1 26.9 0 3.7.1 6.9-2.9 6.9-6.6 0-.1 0-.3 0-.4-.1-18.6 0-37.2 0-55.9 0-.6 0-1.2.1-1.7.2-1.2 1.3-2.1 2.6-1.9.5.1 1 .3 1.3.7.3.3.6.7.8 1.1 12.8 20.5 25.6 41.1 38.3 61.6.6 1.1 1.5 1.9 2.5 2.5 2.2 1.2 4.8.7 6.2-1.4.5-1 .9-2 1.1-3.1.1-.6.1-1.2.1-1.8v-55.8c0-.6 0-1.2.1-1.7.1-.9.7-1.6 1.6-1.9s1.8 0 2.4.7c.2.3.5.6.7.9 12.9 20.7 25.8 41.4 38.6 62.1 1.2 2 3.5 3 5.7 2.6 2.2-.6 3.8-2.5 4-4.8.1-.7.1-1.4.1-2.1v-73.5z"/><path d="m219.9 96.9v-26.6c0-4.9 1.5-9.3 5-12.9 3.2-3.3 7.6-5 12.1-4.8 4.2.2 7.8 1.9 11 4.6 2.4 2.1 4.4 4.6 6 7.4 6.1 10.5 12.3 21.1 18.4 31.6.1.3.3.5.6.6v-43.8h11.8v75.4c0 .6-.1 1.2-.2 1.8-.5 1.6-2.1 2-3.4.9-.3-.3-.6-.7-.8-1.1-12.7-20.4-25.4-40.9-38.1-61.4-.3-.4-.5-.8-.9-1.2-1.5-1.9-3.7-2.7-5.9-2.1-2.1.6-3.6 2.6-3.8 5-.1.6-.1 1.1-.1 1.7v56c0 .7 0 1.4-.2 2-.4 1.8-2.1 2.2-3.4.9-.3-.3-.6-.7-.8-1.1-12.8-20.5-25.5-41.1-38.3-61.6-.7-1.2-1.7-2.1-2.9-2.7-2.5-1.2-5.5-.1-6.7 2.3-.1.2-.1.3-.2.5-.4 1.1-.6 2.3-.6 3.5v55.6c0 .5 0 1.1-.1 1.6-.4 1.5-1.7 2.5-3.2 2.5-9.9 0-19.8.1-29.7-.1-7.4-.1-14.2-2.3-20.1-7.1-5.9-4.9-9.3-11.3-10.5-18.8-1.4-8.4 0-16.5 4.5-23.8s11.3-11.7 19.8-13.3c2.4-.4 4.8-.6 7.2-.7 5.3-.1 10.6 0 15.9 0h.8v11.7h-1c-5.2 0-10.4 0-15.6 0-4.3.1-8.3 1.1-11.8 3.6-6.2 4.5-8.9 10.6-8.6 18.1.4 8.6 6.2 16 16.3 18 2.2.4 4.4.6 6.6.6 4.8.1 9.5 0 14.3 0 2.2 0 3.4-1.2 3.4-3.4v-46.1c0-4.3 1.1-8.3 3.9-11.7 2.5-3.2 6.1-5.2 10.1-5.8 5-.8 9.3.8 13.3 3.7 2.9 2.2 5.1 5 6.9 8.1 6.1 10.5 12.2 21 18.3 31.5.1.2.3.5.4.7z"/></g></svg>