<svg enable-background="new 0 0 400 200" viewBox="0 0 400 200" xmlns="http://www.w3.org/2000/svg"><g fill="#2d2f2e"><path d="m.2 100.4c0-19.6 15.8-35.4 35.4-35.4s35.3 15.9 35.3 35.4-15.9 35.3-35.4 35.3-35.3-15.8-35.3-35.3z"/><path d="m259 122.5c-6.3 0-12-1.7-16.4-6.4-5.8-6.1-7.4-13.4-4.9-21.4s8.2-12.6 16.3-14.1c6.3-1.1 12.4-.4 17.9 3.1 7.2 4.8 10.7 13.4 8.9 21.8-1.6 8.4-8.3 15-16.8 16.4-1.5.5-3.3.6-5 .6zm10.3-21.5c.1-3.4-1.4-6.6-4.1-8.6-5-3.7-15.4-2.6-16.5 7.3s6.4 14.4 13.7 12.2c4.4-1.3 7-5.2 6.9-10.9z"/><path d="m285.5 101.4c0-6.5 0-12.9 0-19.3 0-.8.2-1 1-1h15c3.3 0 6.6.6 9.7 1.7 7.3 2.9 11.1 8.4 11.9 16.1.5 4.1-.1 8.3-1.9 12-2.8 5.7-7.7 8.8-13.7 10.1-2.1.5-4.2.7-6.4.7-4.9 0-9.7 0-14.5 0-.7 0-.9-.2-.9-.9-.2-6.5-.2-12.9-.2-19.4zm11.7 0v10.1c0 .6.1.9.8.9 1.2-.1 2.4 0 3.6-.1 4.6-.4 7.7-2.6 8.9-6.5.6-2.1.8-4.3.5-6.5-.5-4.6-3.1-7.5-7.7-8.5-1.7-.3-3.4-.4-5.2-.4-.8 0-1 .2-1 1 .1 3.4 0 6.7.1 10z"/><path d="m119.9 95.5c0 4.3.2 8.5 0 12.8-.4 7.5-4.6 12.2-12 13.7-4.1.8-8.3.8-12.4-.1-7.3-1.7-11.3-6.6-11.4-14.1-.1-6.3 0-12.6 0-18.8 0-2.4 0-4.7 0-7.1 0-.7.2-.9.9-.9h9.8c.8 0 1 .2 1 1v22.7c0 1.4.2 2.7.6 4 .5 1.9 2.1 3.3 4.1 3.5.2 0 .4.1.6.1 4.2.5 6.8-1.5 7.2-5.7.1-1.2.2-2.5.2-3.7 0-6.9 0-13.9 0-20.8 0-.9.2-1.1 1.1-1.1 3.1.1 6.3.1 9.5 0 .9 0 1.2.2 1.2 1.1v13.3z"/><path d="m176.6 81.1h5.6c.5-.1.9.3 1 .7 4.8 13.1 9.7 26.1 14.6 39.1.3.8.1.9-.6.8-3.4 0-6.9 0-10.3 0-.5.1-1.1-.2-1.2-.8-.4-1.5-.9-2.9-1.4-4.4-.1-.5-.5-.8-.9-.7 0 0 0 0-.1 0-4.7 0-9.3 0-13.9 0-.4-.1-.9.2-1 .6v.1c-.4 1.5-.9 2.9-1.3 4.4-.1.5-.6.9-1.1.8-3.4 0-6.8 0-10.2 0-.7 0-.8-.1-.6-.8 4.9-13.1 9.7-26.1 14.6-39.2.1-.5.5-.8 1-.7 2 .1 3.9.1 5.8.1zm-.1 9.7c-1 5.4-3.2 10.5-4.6 15.8h9.3c-1.6-5.3-3.7-10.4-4.7-15.8z"/><path d="m321.5 121.6c1.2-3.2 2.4-6.4 3.5-9.6 3.7-10 7.4-20 11.2-30.1.1-.6.7-1 1.3-.9h10.9c.5-.1 1.1.2 1.2.7 4.8 13 9.6 26 14.5 38.9.3.7.3 1-.6.9-3.4 0-6.9 0-10.3 0-.5.1-1.1-.3-1.2-.8-.4-1.5-1-2.9-1.4-4.4-.1-.4-.5-.8-.9-.7-4.7 0-9.3 0-13.9 0-.4-.1-.9.2-.9.7-.5 1.5-.9 3-1.4 4.5-.1.4-.3.7-.8.7-3.6 0-7.2 0-10.8 0-.1.2-.2.1-.4.1zm26-15c-1.5-5.4-3.7-10.4-4.5-15.9-.3.1-.4.4-.4.7-.4 2.2-.9 4.3-1.6 6.3-.9 2.7-1.7 5.4-2.6 8.1-.1.3-.5.8.3.8z"/><path d="m138.6 122.6c-5 0-9.8-1.5-13.8-4.4-1.8-1.4-1.8-1.4-.5-3.2s2.6-3.5 3.8-5.3c.4-.6.6-.8 1.2-.1 2.1 2.3 5.1 3.8 8.2 4 1 .1 2.1 0 3.1-.3 1.3-.3 2.2-1.4 2.4-2.7s-.3-2.7-1.5-3.4c-1.1-.7-2.3-1.2-3.6-1.6-2-.6-4-1.3-5.9-2.1-4.4-2.1-7.2-5.4-7.1-10.5s2.5-9 7.2-11c7.3-3.1 14.4-2.3 21 2.2.7.5.8.9.3 1.6-1.4 2-2.8 4-4.1 6.1-.4.6-.6.7-1.2.1-2.4-2.3-5.7-3.3-8.9-2.8-1.6.2-2.5 1.1-2.7 2.3s.4 2.3 1.9 3.1c1.3.6 2.7 1.1 4.1 1.5 1.9.6 3.7 1.3 5.5 2.2 5.4 2.8 7.6 7.7 6.3 13.6-1.3 5.6-5.3 9.1-11.5 10.2-1.4.3-2.8.5-4.2.5z"/><path d="m356.6 81.1h12.3c.3 0 .5.2.6.4 2.5 4.7 5.4 9.3 7.5 14.2.4.9.6 1.9 1 2.9 1.9-6.1 5.4-11.2 8.2-16.6.3-.7 1-1.1 1.7-1 3.3.1 6.7 0 10 0 1.2 0 1.2.1.6 1.1-4.7 8.1-9.3 16.1-14 24.2-.3.6-.5 1.2-.5 1.9v12.5c0 .8-.2 1-1 1-3.4 0-6.8 0-10.2 0-.8 0-1.1-.2-1.1-1.1 0-4.1 0-8.2 0-12.3 0-.8-.2-1.5-.5-2.2-4.7-8-9.3-16-14-24.1-.2-.1-.3-.4-.6-.9z"/><path d="m220 81.1h15c.7 0 1 .1.9.9-.1 2.6 0 5.1 0 7.7 0 .7-.2.9-.9.9-2.7 0-5.4 0-8.1 0-.9 0-1.1.3-1.1 1.1v29c0 .9-.2 1.2-1.1 1.1-3.1-.1-6.3-.1-9.5 0-1 0-1.1-.3-1.1-1.2 0-9.6 0-19.3 0-28.9 0-1-.2-1.2-1.2-1.2-2.7.1-5.3 0-8 0-.7 0-.9-.2-.9-.9 0-2.6.1-5.1 0-7.7 0-.8.2-.9 1-.9 5 .1 10 .1 15 .1z"/><path d="m395.9 120.8c.5-1.4.9-2.6 1.3-3.7.1-.4.2-.8.8-.7s.4.6.4.9v3.7c0 .2.1.6-.3.6s-.3-.4-.3-.6c0-1 0-2.1-.2-3.1-.4 1-.7 2-1.1 3-.1.3-.1.7-.6.7s-.4-.4-.5-.7c-.3-1-.7-1.9-1-2.9h-.3v2.9c0 .2.1.6-.3.6s-.4-.4-.4-.6v-3.9c0-.3-.1-.7.4-.7s.7 0 .9.5c.3 1.3.7 2.5 1.2 4z"/><path d="m390.2 119.3c0-.3 0-.6 0-.9.1-1 0-1.6-1.2-1.4-.2 0-.4 0-.5-.3s.2-.4.5-.4h3.2c.2 0 .4 0 .5.3s-.3.4-.5.4c-1.2-.2-1.3.4-1.2 1.4s0 1.8 0 2.7c0 .2 0 .5-.3.5s-.4-.3-.4-.6c-.1-.5-.1-1.1-.1-1.7z"/><path d="m400.2 119v2.2c0 .2 0 .5-.3.5s-.3-.3-.3-.5c.1-1.4 0-2.8-.2-4.1 0-.2-.1-.6.4-.6s.5.2.5.6c-.1.5-.1 1.2-.1 1.9z"/></g></svg>