<svg enable-background="new 0 0 400 200" viewBox="0 0 400 200" xmlns="http://www.w3.org/2000/svg"><g fill="#2d2f2e"><path d="m89 69c-.2.3-.5.5-.7.7-2.3 1.4-3 4.4-1.6 6.7.2.4.5.7.8 1 1.8 1.5 2.2 3.6 2.2 5.8 0 .7 0 1.3.2 2l6.7-7 7.2 7.1 6.8-7.1c2.1 2.1 4.2 4.2 6.3 6.2.2.3.3.6.2.9v20.3c0 .4-.2.7-.4 1-3.8 3.5-7.6 7-11.4 10.5-.1.1-.2.1-.3.2l-8.1-7-6.2 7c-2.7-2.4-5.4-4.7-8.1-7-.2-.3-.3-.7-.3-1.1 0-3.1 0-6.3 0-9.4v-1.1c-2.2-.5-3.2-.1-4.3 1.7-.6-1.6-.6-3.4.1-5s2.3-2.7 4.1-2.6v-1.1c0-2.7 0-5.5 0-8.2 0-1-.3-2-.9-2.9-1.9-2.5-1.8-4.6.2-7.1 1.6-1.8 3.6-3.3 5.9-4.1l1.4-.5h.2zm6.2 42.7c.5-.9 1.3-1.7 1.3-2.4.1-6.8.1-13.6 0-20.4 0-.3 0-.6-.2-.8-1.4-1.4-2.8-2.8-4.2-4.2-.7.7-1.4 1.3-1.9 1.9-.3.3-.4.7-.4 1.1v19.4c0 .4.1.7.3 1 1.6 1.5 3.2 2.8 5.1 4.4zm14.5.3c0-.1.1-.3.1-.4v-23.6c0-.3-.1-.6-.3-.8-1.1-1.1-2.2-2.1-3.4-3.3-.6.6-1.1 1.1-1.6 1.7-.3.3-.4.7-.4 1.1v19.6c0 .3.1.6.3.9 1.6 1.6 3.4 3.2 5.3 4.8zm-3.6 3.8c-2.4-2.1-4.7-4.1-7-6-.5-.4-.7-.9-.7-1.5 0-6.6 0-13.3 0-19.9 0-.4 0-.8-.2-1.1-1.5-1.6-3.1-3.2-4.5-4.7l-.9.7c1.3 1.4 2.5 2.8 3.8 4.1.5.4.7 1 .7 1.6v20c0 .4 0 .8.3 1.1 2.5 2.2 5.1 4.4 7.6 6.6zm4.3-4.1c.7-.6 1.3-.9 1.3-1.9 0-7.5 0-15 0-22.5 0-.3 0-.6-.2-.8-1.3-1.3-2.7-2.6-4.1-4l-.7.8c1 1.1 1.9 2.2 2.9 3.1.6.5.9 1.2.9 2v22.1zm-26.2-14.7c-3.5-.3-5.6-.2-5.8 1.9 1.3-1.1 2.9-.8 4.5-.8v1.2 9.1c-.1 1 .3 2 1.1 2.6 2.2 1.8 4.4 3.8 6.6 5.7l.9-1.1c-2.1-1.8-4-3.5-6-5.1-1-.7-1.5-1.8-1.4-2.9.1-3.6.1-7.1.1-10.6zm0-4c0-3.4 0-6.7 0-10 .1-1.2-.3-2.5-1.2-3.4-1-1-1.3-2.6-.7-3.9.3-.9.7-1.8 1.2-2.6.1-.2.2-.4.4-.8-3.4 2.4-3.9 5.3-1.8 8.5.5.7.8 1.6.8 2.5.1 2.9 0 5.8 0 8.7v1.1z"/><path d="m321 130c0-2.4-.1-4.7-.1-7.1s0-4.8 0-7.2v-1.1c-1.7.1-3.5 1.1-6.5 3.5.1-.8.2-1.5.4-2.1.6-3.1 2.6-5.7 5.5-6.9.2-.1.6-.4.6-.7 0-3.6 0-7.2 0-10.9-2-.6-4 .5-4.7 2.4-1.1-3.5.1-7.6 4.7-7.9 0-2 0-4 0-6 0-.3-.5-.7-.8-1-.5-.5-1-.9-1.6-1.4l-1.2 1.1c-.2-.6 3.4-4.7 5.6-6.5 1.7 1.6 3.5 3.1 5.2 4.8.2.3.3.6.2.9v4.4c.8-.4 1.3-1.2 1.3-2.1-.1-1.7 0-3.3 0-5 0-.3.1-.6.1-.9h.4v5.8l.3.1 7.6-8.2c2.1 1.9 4.2 3.8 6.3 5.8.2.3.3.6.3.9v24.2c0 .4-.2.7-.5 1-3.2 2.4-6.4 4.9-9.7 7.4-1.2-1.2-2.3-2.5-4.2-2.8v11.5l-2.5-2.2-6.4 6h-.3zm16.3-18.6c0-.1 0-.3.1-.4 0-7.8 0-15.6 0-23.4 0-.3-.1-.6-.4-.9-1-1-2-1.9-3.1-2.9-1.2 1.2-2.3 2.4-3.4 3.6-.2.2-.3.5-.2.8v19.3c0 .7.3.8.9.9 1.4.4 2.8.8 4.1 1.4.7.5 1.4 1 2 1.6zm-15.7-14.5v31.7c.8-.4 1.3-1.2 1.2-2.1 0-9.9 0-19.9 0-29.8v-1.2c-1.5 0-2.8-.1-4.1 0-1.4.2-2.4 1.4-2.2 2.8v.1c1.3-1.8 3.1-1.6 5.1-1.5zm8-8.5c-.8.4-1.3 1.3-1.3 2.2v32c0 .9.5 1.7 1.3 2zm8.4 25.5c.8-.4 1.3-.7 1.3-1.6 0-8.5 0-17 0-25.6 0-.3-.1-.6-.2-.9-1.2-1.2-2.5-2.3-3.7-3.5l-1 1c1 .9 2 1.9 3 2.7.5.4.8 1 .8 1.7v24.9zm-19.1-30.7c.6.5 1.1 1.1 1.8 1.6s1.1 1.3.9 2.1c-.1 1.8 0 3.5 0 5.3h1.3c0-2.3 0-4.6 0-6.8 0-.2-.1-.4-.2-.6-.9-.8-1.8-1.6-2.7-2.5zm11.2 29.2c.2.6.2 1.5.5 1.5 1.5.5 2.9 1.4 3.9 2.7l1.4-1.1c-1.3-1.9-3.5-3-5.8-3.1zm-14.1 3.5c1.3-.7 2.6-1.3 4-1.8 1-.3 1.2-.8.9-1.7-2.1.3-4 1.6-4.9 3.5z"/><path d="m0 100.2c.2-.8.3-1.6.5-2.4.9-3.3 2.8-6.2 5.5-8.3 1.3-1.1 2.7-2.2 4.1-3.2.2-.2.5-.4.8-.6-4.4-1.5-7.9.5-9.5 5.4-.1-.2-.1-.3-.2-.5-.2-2.9.5-5.7 2-8.2 2.1-3.5 6.4-5 10.2-3.5 1.5.5 2.8 1.3 4.3 1.9 1.2.5 2.4 1 3.6 1.3 3.1.6 5-.1 7.2-2.6.5 3.6-1.7 7.1-5.2 8.2-.7.1-1.3.8-1.2 1.5v.1 19.3 1.2c2.8-1.6 5-4.2 6.1-7.2v.9c0 .3-.1.6-.2.9-.5 2.7-1.5 5.3-3.1 7.6-3.1 4.3-7.2 6.5-12.5 5.8-4.8-.4-9-3.4-10.9-7.9-.6-1.7-1.1-3.4-1.5-5.1-.1-.3-.1-.6-.2-1zm17.7-12.4c-2-.7-3.7-1.3-5.5-1.9-.4-.1-.8 0-1.2.3-3.9 3.7-5.8 9-5.2 14.3.2 2.7 1.3 5.4 3.2 7.4.3.3.7.5 1.1.5.6-.2 1.4-.4 1.3-1.4-.1-4.7 0-9.4 0-14.1 0-.2 0-.4-.1-.6-.6-.2-1.1.9-1.8.1zm.3.2v1 15c.1.6-.3 1.2-.8 1.4-2.3 1.2-4.5 2.4-6.9 3.7.6.4 1.1.7 1.6.9 2.8 1.2 6 1.3 8.9.2.6-.1 1.1-.7 1-1.3 0-6.7 0-13.3 0-20 0-.3 0-.6-.1-1zm-12 2.3-.1-.1c-.1.1-.2.2-.3.3-2.8 2.5-4.5 6-4.8 9.8-.3 5 .8 9.6 4.5 13.2 4.7 4.6 14.4 6 19.9-2.5.1-.2.2-.4.3-.6l-.3-.2c-.6.7-1.2 1.4-1.8 2.1-6.8 6.6-15.3 3.1-18.7-1.7-3.4-5-3.7-11.6-.7-16.9.6-1.3 1.3-2.3 2-3.4zm21.7-8.4c-.2.3-.4.6-.6.9-1.2 1.7-3.2 2.8-5.3 3.1-2.2.2-4.3-.1-6.4-.9-1.9-.7-3.8-1.3-5.7-1.8-2.8-.6-6.1 1.2-6.9 3.2 1.2-.6 2.4-1.1 3.7-1.5 2.2-.6 4.3 0 6.3.7 1.6.5 3.1 1.2 4.7 1.6 2.6.8 5.3.4 7.6-1.1 1.5-1 2.4-2.5 2.6-4.2zm-14.5 9.2c-.9.2-1.2.6-1.2 1.4v13.8c0 .3 0 .6.1.9l.3.1c.3-.4.7-.7.8-1.1 0-4.9 0-10 0-15.1z"/><path d="m400 111.6-5.5 5.8-5.4-4.2c-.3.3-.6.6-.9.9-.1.1-.3.1-.5.1 0-.2 0-.4.1-.5 1.3-.9 1-2.1 1-3.4v-18.2h-3.3l-.1-.2c1.1-1 1.1-3.1 3.5-2.9 0-1.1 0-2.1 0-3.1 0-.3 0-.7.2-.9 2-2.1 3.9-4.2 6.1-6.6v10.6h4.8v.2c-.5.7-1 1.3-1.5 2.1-.3.6-1 1-1.6.8-.5 0-1.1 0-1.6 0 0 .1-.1.2-.1.4v16.9c0 .3.1.6.3.8.9.8 1.9 1.4 2.7 2.1l1.8-1zm-9.3-19.4h-1.2c0 .1-.1.2-.1.4v19.7c0 .2 0 .5.2.6 1.6 1.3 3.2 2.5 4.9 3.8l.9-1c-1.3-1-2.5-2.1-3.8-3-.6-.4-.9-1-.8-1.7 0-5.9 0-11.7 0-17.6zm0-8c-2 1.4-1.1 3.2-1.1 4.9.5-.1 1-.3 1.1-.6.1-1.4 0-2.7 0-4.3z"/><path d="m169.3 123.8c2-1 3.4-2.8 3.9-5 .2-.8.3-1.6.3-2.4 0-6.6 0-13.1 0-19.7 0-.5-.2-1-.6-1.4-.8-.8-1.6-1.5-2.5-2.3-.9.5-1.4 1.6-1.3 2.6.1 4.5.1 9.1 0 13.6-.1 1 .3 1.9 1.1 2.4.2.2.5.4.8.6l-4.8 5.3-5.5-5c.2-.3.5-.6.8-.9 1-.8 1.6-2.2 1.4-3.5-.1-7.7 0-15.3 0-23 0-.6.3-1.1.6-1.6 1.8-2 3.6-3.9 5.6-6.1v15.6l.2.1 4.9-5.3 5.2 4.7c.6 0 .7-1.1 1.7-.6-1.6 1.1-1.3 2.6-1.3 4v16.2c0 5.6-2.4 9.1-7.7 11.1-.9.3-1.8.6-2.7.9 0-.1 0-.2-.1-.3zm-5.7-11.3c.4-.8 1-1.5 1-2.3.1-8.6.1-17.3 0-26 0-.3 0-.6-.1-1-.8.5-1.3 1.4-1.2 2.4 0 7.6 0 15.1.1 22.7.2 1.4-.4 2.7-1.5 3.5-.2.2-.3.3-.4.6l4.6 4.1.8-1zm10 7.6c1.2-1 1.8-2.5 1.7-4 0-6.9 0-13.8 0-20.7 0-.3-.1-.6-.3-.9-1.1-1-2.3-2-3.5-3l-.8.9c.9.8 1.8 1.7 2.7 2.4.5.4.7.9.7 1.5v19.7c0 1.5-.2 2.8-.5 4.1z"/><path d="m36.2 77.8v15.5l5.1-5.5 5.3 4.7 1.2-.9.3.3c-1.8 1.2-1.2 3.1-1.2 4.7v15.5c0 5.6-2.2 8.9-7.4 11-1 .4-2 .7-3.1.8.2-.1.4-.3.6-.4 2.3-1.4 3.6-3.8 3.6-6.4.1-6.9 0-13.7 0-20.6 0-.3-.1-.6-.3-.9-.9-.9-1.8-1.7-2.8-2.6-.9.5-1.4 1.5-1.3 2.5.1 4.6.1 9.1 0 13.7-.2 1 .3 1.9 1.1 2.4.3.1.5.3.8.5l-4.9 5.3-5.5-5.1c.4-.5.9-1 1.4-1.4.6-.5.9-1.3.8-2.1 0-7.9 0-15.8 0-23.7 0-.7.2-1.3.7-1.8 1.8-1.9 3.6-3.8 5.4-5.7zm-5.8 34.5c1.5-.8 1.4-2 1.4-3.3 0-8.2 0-16.4 0-24.6v-1.2c-.9.4-1.4 1.4-1.3 2.3v22.6c0 1.6-.2 2.9-1.6 3.9-.1.1-.2.3-.3.4l4.6 4.1.8-.9zm10.4 7.8c1.1-1 1.7-2.5 1.6-4.1 0-6.8 0-13.7 0-20.5 0-.3 0-.6-.2-.8-1.2-1.1-2.4-2.1-3.6-3.1l-.8.9c1 .9 1.8 1.7 2.7 2.4.4.3.7.9.7 1.4v18.3c0 1.9-.2 3.7-.4 5.5z"/><path d="m239.4 92.6c.6-.1.7-1.2 1.8-.6-1.7 1-1.4 2.5-1.4 3.9v17.2c0 1.2.3 2.5 1 3.5 1 1.3.9 3.1-.1 4.2-.5.7-1.2 1.4-1.9 1.9-2.2 1.8-4.6 3.6-7 5.4-3.4-4.6-7.5-3.1-11.6-1.3l8-9.3-5.7-4.6-1.1 1.1-.3-.1c.1-.2.1-.6.3-.7.6-.5.9-1.3.8-2.1 0-4.8 0-9.7 0-14.5-.1-.5.2-1 .6-1.3 3.3-2.3 6.6-4.7 9.8-7 .3-.4.9-.4 1.2-.1 0 0 0 0 .1.1 1.9 1.4 3.7 2.8 5.5 4.3zm-7.2 20.2c.9-.6 1.4-1.7 1.3-2.8-.1-3.8-.2-7.6 0-11.4.1-2.3-.5-3.9-2.5-5-.9-.6-1.7-1.2-2.5-1.9 0 .2-.1.3-.1.5v17.1c0 .3.1.6.3.8 1.2.9 2.3 1.8 3.5 2.7zm1.2-.4c-3.3 3.8-6.4 7.4-9.5 11 4.2-2.2 8.2-2.6 11.9.8 2.5-2 2.7-4.2.2-5.8-1.8-1-2.7-2.9-2.5-4.9 0-.3 0-.5-.1-1.1zm-4.1-21.1c1.4 1.1 2.7 2.2 4.1 3.2.5.3.8.9.7 1.5v6.6c0 4 0 8 .1 12 0 1 .5 2 1.3 2.6 1.5 1.1 3.2 2 2.8 4.6 1.2-1.6.9-3.1-.7-4.3-1.5-1.1-2.3-3-2.2-4.8.1-5.7 0-11.5 0-17.2 0-.4 0-.8-.2-1-1.6-1.3-3.2-2.6-4.7-3.9zm-5.3 4c-.8.2-1.4 1-1.3 1.8.1 4.8 0 9.6 0 14.4 0 .3 0 .8.2 1 1.8 1.5 3.7 3 5.6 4.6l.9-1.1c-1.6-1.3-3.2-2.5-4.8-3.6-.5-.3-.7-.9-.7-1.4 0-2.7 0-5.5 0-8.2zm9 31c-2.2-3-6.4-3.6-9.4-1.4-.1.1-.3.2-.4.3 3.5-1.4 6.4-.9 8.6 2z"/><path d="m207.2 93c-1.2.8-1.9 2.1-1.8 3.6.1 4.2.1 8.3 0 12.5-.1 1 .3 2 1.1 2.6.3.2.5.4.9.7l-5 5.2-5.5-5c.2-.3.4-.5.7-.8 1.2-.9 1.7-2.4 1.5-3.8-.1-3.8-.1-7.6 0-11.4.1-.7-.3-1.4-.8-1.9-.7-.5-1.3-1.1-2-1.8l-1 1.2-.3-.1c0-.2-.1-.5 0-.6 1.6-1.8 3.3-3.6 5-5.5 1.7 1.5 3.4 3 5 4.4.3.3.3.8.5 1.3l5.4-5.7 5.1 4.6c.7 0 .8-1.3 1.7-.8v.2c-1.5 1-1.3 2.6-1.2 4v13c-.1.8.3 1.5.9 2s1.1 1 1.9 1.7l1.1-1.6.4.3c-.1.2-.1.5-.2.7-1.7 1.8-3.4 3.7-5.2 5.6-1.7-1.5-3.3-3-4.9-4.5-.2-.2-.2-.6-.2-.9 0-5.1 0-10.2 0-15.3.1-.7-.2-1.3-.8-1.7-.9-.8-1.6-1.6-2.3-2.2zm.2-.6c1 .9 1.9 1.6 2.7 2.5.4.4.6.9.6 1.4.1 5.1 0 10.2 0 15.3 0 .4 0 .8.2 1.1 1.3 1.3 2.8 2.6 4.2 3.9l.9-1c-1.2-1.1-2.2-2.1-3.3-3-.5-.4-.8-1-.8-1.7 0-5.1 0-10.2 0-15.3 0-.4-.1-.8-.3-1.1-1.1-1-2.2-2-3.4-3.1zm-10.6-.1c.8.7 1.5 1.4 2.3 2.1.5.4.7.9.7 1.5 0 4-.1 8 0 12 .1 1.8-.2 3.2-1.7 4.3-.1 0-.1.2-.2.3l4.5 4.1.9-1-3.4-3c.4-.6.8-1.4.9-2.1.1-5.1 0-10.2 0-15.3 0-.3-.1-.6-.3-.9-1-1-2-1.9-3.1-2.8z"/><path d="m290.3 112.3-4.9 5.2-5.5-5c.1-.2.2-.4.4-.5 1.5-1.1 1.9-2.7 1.8-4.6-.1-3.7-.1-7.4 0-11.1.1-.7-.2-1.3-.7-1.7-.7-.6-1.3-1.2-2.1-1.9l-1 1.2-.2-.1c0-.2-.1-.5 0-.6 1.6-1.8 3.3-3.6 5-5.5 1.7 1.5 3.3 2.9 4.9 4.4.3.4.5.8.6 1.3l5.4-5.7 5.1 4.6c.7 0 .8-1.3 1.7-.8v.3c-1.2.9-1.3 2.1-1.3 3.4.1 4.5 0 9 0 13.5-.1.8.2 1.5.9 2 .6.5 1.2 1.1 1.8 1.6.7-.1.8-1.3 1.9-.9l-5.7 6.1c-1.6-1.5-3.3-2.9-4.8-4.4-.2-.3-.3-.7-.2-1.1 0-5 0-10.1 0-15.1.1-.7-.2-1.4-.8-1.8-.8-.6-1.5-1.4-2.3-2.1-1.1.7-1.8 2-1.7 3.4.1 4.2.1 8.5 0 12.7-.1 1 .3 2 1.1 2.6.1.1.4.3.6.6zm-4 3.3-3.4-3c.4-.8 1-1.4 1-2.1.1-5.1 0-10.2 0-15.3 0-.3 0-.6-.2-.8-1-1-2.1-1.9-3.2-2.9l-.8.9c.7.6 1.3 1.2 2 1.8.7.5 1.1 1.3 1 2.1 0 3.9-.1 7.8 0 11.7 0 1.7-.1 3.2-1.6 4.2-.1.1-.1.2-.2.4l4.5 4.1zm4-23.2c1 .9 1.9 1.7 2.8 2.5.5.3.7.9.7 1.5v15.3c0 .4 0 .8.2 1.1 1.3 1.3 2.7 2.6 4.1 3.9l.9-1c-1.1-1-2.2-2-3.3-2.9-.6-.4-.9-1.1-.8-1.8 0-5.1 0-10.2 0-15.3 0-.4 0-.8-.2-1-1.1-1.1-2.2-2.1-3.4-3.1z"/><path d="m130.7 87.7 6.2 4.9 1.5-1.1v.6c-1.1.9-1.2 2-1.2 3.3.1 4.4 0 8.9.1 13.3 0 .6.3 1.1.7 1.5.7.8 1.6 1.5 2.4 2.2l.3-.1 1.1-.6c-.2.4-.4.7-.7 1.1-1.4 1.6-2.9 3.1-4.4 4.8l-5.5-4.9c-1.7 1.7-3.3 3.3-5 5l-6.1-5.3-.2.1-.9.4c.2-.3.3-.6.5-.9.2-.4.3-.8.4-1.3 0-4.6 0-9.2 0-13.8-.1-.7.3-1.3.8-1.6 3.2-2.6 6.5-5.1 10-7.6zm-4.6 4c0 .2-.1.4-.1.6v16.1c0 .3.1.6.3.8 1.2 1.1 2.4 2.1 3.9 3.4.3-.7.8-1.2.8-1.8.1-4.9 0-9.7 0-14.6 0-.3-.1-.6-.3-.9-1.5-1.1-3-2.3-4.6-3.6zm.6-.2c1.5 1.2 2.8 2.3 4.2 3.3.5.3.7.9.7 1.4v15c0 .4 0 .8.2 1.1 1.5 1.4 3.1 2.8 4.7 4.3l.9-.9c-1.4-1.2-2.6-2.4-3.9-3.5-.5-.4-.7-1-.7-1.6 0-5 0-10 0-15 0-.4-.1-.8-.3-1.1-1.5-1.3-3.1-2.6-4.7-3.9zm.2 24.2c-1.5-1.4-3-2.7-4.5-3.9-.6-.5-.9-1.2-.9-2 0-4.5 0-8.9 0-13.4v-1.2c-.8.4-1.3.7-1.3 1.6v14.1c0 .4.1.7.3 1 1.7 1.6 3.5 3.2 5.3 4.8z"/><path d="m268.6 87.8 7 5.4c.2-.3.5-.6.7-.9.1-.1.3-.1.5-.1v.5c-1.2.9-1 2.1-1 3.4v13.3c0 .4-.2.9-.5 1.2-3 2.3-6 4.5-9.1 6.7-.1.1-.3.1-.4.2l-7.3-5.5-1.2.7-.3-.3c1.4-.8 1.1-2 1.1-3.2 0-4.4 0-8.8 0-13.2 0-.4.1-.7.4-1 3.4-2.4 6.7-4.8 10.1-7.2zm-3.9 4.1c0 .1-.1.2-.1.2v16.9c0 .2.1.5.2.6 1.5 1.2 3 2.3 4.6 3.5.1-.1.1-.3.1-.4v-16.4c0-.3-.1-.6-.3-.8-1.4-1.2-2.9-2.3-4.5-3.6zm.1-.6c1.5 1.2 2.9 2.3 4.4 3.4.7.4 1.1 1.2 1 2.1v15.7 1.1c.9-.4 1.3-.8 1.3-1.7 0-5.5 0-10.9 0-16.4 0-.4-.1-.7-.3-1-1.7-1.4-3.4-2.7-5.1-4zm2.2 24.6c-2.1-1.6-4-3.1-6.1-4.6-.6-.4-.9-1-.9-1.7 0-4.6 0-9.1 0-13.7v-1.2c-.7.5-1.3.7-1.3 1.6v14.4c0 .3.1.6.3.9 2.2 1.8 4.5 3.5 6.8 5.2z"/><path d="m347.8 111.9-.9.9-.3-.1c.1-.2.2-.5.3-.7.3-.5.5-1 .6-1.6 0-4.7 0-9.5 0-14.2 0-.4.1-.8.4-1.1 3.3-2.4 6.6-4.8 10-7.2l6.9 5.4 1.1-1 .3.1c-.1.2 0 .6-.2.7-.6.6-.9 1.4-.8 2.2v14.1c0 .7-.3 1.3-.9 1.6-2.8 2-5.6 4.1-8.4 6.2-.4.4-1 .4-1.4 0-2.2-1.9-4.4-3.6-6.7-5.3zm6-20.1v17.2c0 .2.1.5.2.6 1.5 1.2 3 2.3 4.6 3.5.1-.1.1-.3.1-.4v-16.5c0-.2-.1-.4-.2-.6-1.4-1.2-2.9-2.4-4.7-3.8zm5.7 21.6.4.2c.3-.5.8-1.1.8-1.6.1-5.5 0-11.1 0-16.6 0-.4-.2-.9-.6-1.1-1.3-1.1-2.7-2-4-3.2-.8-.7-1.3-.5-2 .2 1.5 1.2 3 2.3 4.5 3.4.5.3.8.9.8 1.6v16zm-10-18.6c-.8.4-1.3.7-1.3 1.6v14.1c0 .6.2 1.1.7 1.4 1.8 1.4 3.7 2.7 5.5 4.2.8.6 1.3.6 1.9-.2-.2-.2-.5-.4-.8-.6-1.8-1.3-3.5-2.7-5.4-4-.5-.3-.8-.9-.7-1.5 0-4.6 0-9.2 0-13.8z"/><path d="m150.4 117.4c-3.6-3.1-5.6-3.1-10.4-.4l7.9-11.5c-1.5 0-2.8 0-4 0-.8 0-1-.2-1-1 0-3.1 0-6.1 0-9.2 0-.4.2-.8.5-1.1 3-2.1 6-4.2 9-6.3.1 0 .2-.1.3-.1 2.5 2 5.1 1.7 7.8.3l-6.9 10.1h5.9c0 .4.1.8.1 1.1v10.6c.1.6-.2 1.1-.7 1.4-2.8 2.1-5.7 4.1-8.5 6.1zm2.9-13.9c-.7 0-1.4 0-2.1 0-.7-.1-1.4.3-1.8.9-1.8 2.7-3.7 5.4-5.5 8.1-.2.3-.4.6-.5.9 3.4-2.2 6.7-2.8 10 .3zm-4-3c.9-.2 2 0 2.4-.5 1.9-2.5 3.6-5.1 5.3-7.7-2.4 1.7-5.6 1.4-7.7-.6zm6 1.1c-1 0-1.9.1-2.8 0-.8-.2-1.6.4-1.8 1.2v.1h3.3v11.1l.3.2c.3-.4.9-.9.9-1.3 0-3.8 0-7.5.1-11.3zm-10.5 2v-9.3c-1.2.6-1.2.6-1.2 1.8v8.9c1.4 0 2.6-.1 3.8 0 .9.1 1.4-.4 1.7-1.3zm-1.6 11.1c1.3-.1 2.6-.1 3.9.1 1.3.5 2.5 1.1 3.6 1.8l1-.8c-2-2.7-5.8-3.2-8.5-1.1 0-.1 0-.1 0 0zm14.2-23.7c-2.4.6-4.7 1-6.5-1.2l-1.4 1c1.7 2.2 5 2.6 7.2.9.2-.2.5-.5.7-.7z"/><path d="m375.5 117.4c-3.5-3.1-5.4-3.1-10.5-.4l7.9-11.5h-5c.1-2.5.1-4.9-.1-7.4-.4-2.3.7-4.6 2.9-5.5 2.2-1.2 4.2-2.9 6.4-4.3.3-.2.6-.3.9-.2 3 1.5 4.5 1.6 7.5.1l-3.4 4.9c-1.1 1.7-2.3 3.4-3.5 5.2h6c0 .4.1.7.1.9v10.8c0 .5-.2 1-.7 1.3-2.8 2.1-5.6 4.1-8.5 6.1zm2.9-13.9c-.7 0-1.4 0-2.1 0-.8-.1-1.5.3-1.9 1-1.8 2.7-3.7 5.4-5.6 8.1-.1.2-.3.5-.4.7 3.4-2.1 6.7-2.8 10 .3zm-4-11.8v8.5c1.2.5 2.6-.1 3.1-1.2 1.2-2 2.6-3.9 4-5.9.2-.3.3-.5.6-1-2.8 1.8-5.2 1.8-7.7-.4zm4.6 22.4c.8-.2 1.4-.9 1.3-1.8-.1-3.2 0-6.4 0-9.6v-1.1c-1.1 0-2 .1-2.9 0s-1.4.4-1.6 1.3h3.3zm-10.4-9.3c1.3 0 2.6-.1 3.8 0 1 .1 1.5-.3 1.8-1.3h-4.3v-9.3c-.9.2-1.4 1-1.3 1.8.1 1.6 0 3.1 0 4.7zm-.4 10c2.6-.9 5.5-.1 7.4 1.9.5-.3.9-.6 1.3-.9-2-2.6-5.8-3.2-8.4-1.2-.1 0-.2.1-.3.2zm6.4-24c1.7 2.2 5 2.6 7.2.9.3-.2.5-.4.7-.7-2.4.6-4.7 1-6.5-1.2z"/><path d="m245.7 113.3c-.3.4-.6.6-.9.9-.1.1-.3.1-.4.1 0-.2-.1-.4 0-.5 1.4-1 1-2.5 1-3.8 0-5.6 0-11.1 0-16.7v-1.2h-3.6c.6-1 1.3-1.9 2-2.9.3-.3.9-.2 1.6-.4 0-.9 0-2 0-3 0-.4.1-.8.3-1.1 1.8-2 3.7-4 5.6-6 .1-.1.2-.1.4-.2v10.5h4.9c-.7 1.1-1.3 2-2 2.9-.1.2-.5.2-.8.2-.6 0-1.3 0-2.1 0v1.1 15.8c-.1.6.2 1.2.7 1.5.8.6 1.6 1.2 2.7 2.1.2-.3.4-.7.6-1 .1-.2.4-.2.6-.3-.1.2 0 .5-.2.6-1.7 1.9-3.4 3.7-5.1 5.6zm6.2 2.4c-1.2-.9-2.3-1.9-3.4-2.7-.8-.5-1.3-1.4-1.2-2.4.1-5.8 0-11.5 0-17.3v-1.2l-1.2.1c0 .1-.1.2-.1.3v19.8c0 .3.1.6.3.8 1.5 1.2 3.1 2.4 4.7 3.7zm-4.7-31.5c-1.9 1.3-1 3.1-1.2 4.7h1.2z"/><path d="m58 117.5-7.7-6.2-1.2 1.1-.3-.2c.1-.2.2-.6.4-.7.6-.5 1-1.4.8-2.2 0-4.3 0-8.5 0-12.7 0-.4.2-.9.5-1.2 3.4-2.5 6.8-5 10.1-7.4.1-.1.3-.2.4-.2l5.7 9.3-4.8 3.5c-1.7 1.3-3.5 2.6-5.2 3.8-.4.3-.7.8-.7 1.3-.3 1.4.4 2.9 1.7 3.6 1.4.9 2.6 2 4 3.1l3.3-3.4.3.1c0 .2 0 .5-.1.7-2.3 2.5-4.7 5.1-7.2 7.7zm-1.8-13.3 5.2-3.8-5-8.1-.2.1zm-4.4-8.8c-.8.4-1.3.7-1.3 1.6v13.2c0 .4.2.7.4.9 2.3 1.9 4.6 3.8 6.9 5.7l1-1c-2.2-1.7-4.2-3.4-6.3-5-.5-.3-.7-.9-.7-1.4 0-3 0-5.9 0-8.9zm11.2 3.8-5.2-8.3-1.1.8 5.2 8.3z"/><path d="m186.6 87.7 4.6 4.1 1.4-1.1.2.2c0 .1 0 .3-.1.3-1.2.9-1.2 2.1-1.2 3.4.1 4.7 0 9.3 0 14-.1.7.2 1.3.7 1.7.7.6 1.4 1.3 2 1.9.7-.2.8-1.2 1.9-.9l-5.6 6-5-4.6-1.2 1.1-.3-.1c.1-.3.2-.6.4-.7.6-.6 1-1.4.9-2.3 0-4.8 0-9.5 0-14.3.1-.9-.3-1.7-1-2.2-.5-.4-1-.9-1.4-1.3-.1 0-.2 0-.3.1l-1 .6c.1-.4.3-.8.5-1.1 1.5-1.5 3-3.1 4.5-4.8zm-3.3 4.6c.5.6 1 1.2 1.6 1.7.7.5 1.1 1.4 1 2.2-.1 5.1 0 10.2 0 15.3 0 .4.1.8.3 1.1 1.4 1.4 2.9 2.6 4.4 4l.9-1c-1.3-1.1-2.4-2.2-3.6-3.2-.5-.4-.8-1-.7-1.6 0-5.2 0-10.4 0-15.6 0-.4 0-.8-.2-1.1-.9-.9-1.8-1.7-2.8-2.6z"/><path d="m184.1 82.8 4.4-4.7 4.8 4.4-4.4 4.7zm.8 0 3.8 3.6.9-1-3.9-3.5z"/></g></svg>