<svg version="1" xmlns="http://www.w3.org/2000/svg" width="373.333" height="373.333" viewBox="0 0 280.000000 280.000000"><path d="M47.6 11.6c-.9.8-1.7 2.3-1.7 3.2-.5 5.9-.3 153.2.2 153 .3-.2 13.8-8.8 29.9-19.2 30.8-19.9 33-21.9 33-28.7 0-2-2.7-11.9-5.9-22C99.8 87.8 94.4 70.7 91 60c-3.4-10.7-6.4-20.2-6.7-21-.4-.8-.7-1.7-.8-2-2.5-8.5-2.4-8.3-15.8-17.8-13.5-9.5-17-10.8-20.1-7.6zM96.5 40.3c23.7 76 23.2 74.7 29.1 74.7 2.1 0 41.4-24.6 41.4-25.9-.1-.3-13.7-10.1-30.2-21.6-16.6-11.6-32.5-22.7-35.4-24.7-2.9-2.1-5.1-3.2-4.9-2.5zM171.4 100c-3.3 2.1-13.8 8.9-23.5 15.2-22.4 14.7-22.7 15.3-17.1 32.8 9.5 30.1 17.5 54.6 17.9 55.2.2.4 3.1-1.1 6.3-3.5 9.4-6.7 20.7-14.6 47.1-33 30.3-21.3 29.8-20.8 30.5-24.6 1.2-6.1-.5-7.8-25.8-25.6-33-23.2-28.4-21-35.4-16.5zM109.5 140.7c-1.1.3-7.6 4.2-14.5 8.6-6.9 4.5-16.5 10.7-21.5 13.9-4.9 3.2-9.7 6.3-10.5 6.8-.8.6-4.9 3.2-9.1 6-4.2 2.7-7.9 5.5-8.1 6.2-.3.7-.4 19.8-.4 42.4.1 54.8-1.6 52.9 29.1 31.3 11-7.7 22.9-16 26.5-18.5 3.6-2.5 9.2-6.4 12.5-8.7 3.3-2.3 10.4-7.3 15.8-11.1 8.4-5.8 9.7-7.1 9.1-8.9-.3-1.2-4.2-13.5-8.6-27.2-4.4-13.8-8.8-27.7-9.9-31-1-3.3-2.2-6.5-2.6-7.1-.8-1.1-4.8-3.5-5.5-3.3-.2.1-1.2.4-2.3.6z"/></svg>