<svg viewBox="0 0 500 292" xmlns="http://www.w3.org/2000/svg"><rect fill="#fff" height="284.24" rx="11.75" width="415.14" x="42.84" y="1.49"/><rect fill="#d9d9d9" height="269.45" rx="11.75" width="415.14" x="42.84" y="16.29"/><rect fill="#f2f2f2" height="280.29" rx="13.63" width="415.14" x="42.84" y="3.47"/><path d="m64.41 21.09h372v245.04h-372z" fill="#686868"/><path d="m430.68 290.29h-361.23a312.91 312.91 0 0 1 -45.15-3.29l-21.91-3.2v-2.65h496v2.47l-21.3 3.19a312 312 0 0 1 -46.41 3.48z" fill="#d9d9d9"/><path d="m2.39 280.68h496v2.65h-496z" fill="#fff"/><path d="m2.39 281.17h496v2.65h-496z" fill="#f2f2f2"/><path d="m209.63 282h81.52a0 0 0 0 1 0 0 1.86 1.86 0 0 1 -1.86 1.86h-77.8a1.86 1.86 0 0 1 -1.86-1.86 0 0 0 0 1 0 0z" fill="#fff"/><path d="m209.63 281.17h81.52a0 0 0 0 1 0 0 1.86 1.86 0 0 1 -1.86 1.86h-77.8a1.86 1.86 0 0 1 -1.86-1.86 0 0 0 0 1 0 0z" fill="#d9d9d9"/></svg>