<svg viewBox="0 0 885 292" xmlns="http://www.w3.org/2000/svg"><rect fill="#fff" height="284.24" rx="11.75" width="415.14" x="41.34" y="1.49"/><rect fill="#d9d9d9" height="269.45" rx="11.75" width="415.14" x="41.34" y="16.29"/><rect fill="#f2f2f2" height="280.29" rx="13.63" width="415.14" x="41.34" y="3.47"/><path d="m62.91 21.09h372v245.04h-372z" fill="#686868"/><path d="m429.18 290.29h-361.18a312.91 312.91 0 0 1 -45.2-3.29l-21.91-3.18v-2.65h496v2.47l-21.3 3.19a312 312 0 0 1 -46.41 3.46z" fill="#d9d9d9"/><path d="m.89 280.68h496v2.65h-496z" fill="#fff"/><path d="m.89 281.17h496v2.65h-496z" fill="#f2f2f2"/><path d="m208.13 282h81.52a0 0 0 0 1 0 0 1.86 1.86 0 0 1 -1.86 1.86h-77.79a1.86 1.86 0 0 1 -1.86-1.86 0 0 0 0 1 -.01 0z" fill="#fff"/><path d="m208.13 281.17h81.52a0 0 0 0 1 0 0 1.86 1.86 0 0 1 -1.86 1.86h-77.79a1.86 1.86 0 0 1 -1.86-1.86 0 0 0 0 1 0 0z" fill="#d9d9d9"/><rect fill="#d9d9d9" height="200" rx="5.99" width="134.94" x="599.82" y="89.7"/><rect fill="#fff" height="199.5" rx="5.99" width="134.94" x="599.82" y="89.7"/><rect fill="#f2f2f2" height="199.1" rx="5.99" width="134.94" x="599.82" y="90.1"/><circle cx="667.29" cy="283.71" fill="#fafafa" r="3.8"/><circle cx="667.29" cy="283.31" fill="#e0e0e0" r="3.8"/><circle cx="667.21" cy="95.21" fill="#fafafa" r=".74"/><circle cx="667.21" cy="94.93" fill="#e0e0e0" r=".74"/><path d="m601.1 100.3h132.22v176.3h-132.22z" fill="#686868"/><rect fill="#d9d9d9" height="100" rx="4.79" width="47.68" x="835.88" y="189.87"/><rect fill="#fff" height="99.6" rx="4.79" width="47.68" x="835.88" y="189.87"/><rect fill="#f2f2f2" height="99.28" rx="4.79" width="47.68" x="835.88" y="190.19"/><circle cx="859.8" cy="284.92" fill="#fafafa" r="3.04"/><circle cx="859.8" cy="284.6" fill="#e0e0e0" r="3.04"/><path d="m836.94 198.48h45.49v81.01h-45.49z" fill="#686868"/><circle cx="859.72" cy="194.62" fill="#fafafa" r=".6"/><circle cx="859.72" cy="194.4" fill="#e0e0e0" r=".6"/></svg>