<svg enable-background="new 0 0 500 500" viewBox="0 0 500 500" xmlns="http://www.w3.org/2000/svg"><g fill="#ffffff"><path d="m6.1 271.9-4.9 15.3c-.1-25-.5-50 4.8-74.8l-6 9.2c4-20.6 10.2-40.8 18.4-60.1 8.5-19.7 22.1-36.7 39.4-49.2 21.3-15.5 45.2-20.6 71.2-15.4.7.2 1.5.5 2.2.8-1.2 6.9-2.3 13.7-3.5 20.6 8.6-13.6 19.8-25.4 32.9-34.6 13.4-9.5 28.1-14.6 44.7-12.7l1.8 2.1c-1.7.9-3.7 1.3-4.9 2.6-12.9 13.3-23.3 27.9-29.4 45.9-9.4 28.1-4.9 53.2 12.5 76.7 7.2 9.8 4.8 20.9 3.3 31.7l-1.7.8c-.5-1.1-1.2-2.1-1.9-3-35.1-36.9-77.5-9.8-85.8 21.4-7.5 28.2 1.9 51.5 21.6 71.5l-3-3.9c-14.4-18.9-21.1-39.6-14.3-63.2 5.9-20.6 24.8-35.5 43.9-35.1 6.9.1 13.6 2.6 19 6.9-9.6 7-11.9 17.7-13.9 28.3-4.9 25.9-2.1 50.3 15.4 71.4 2.4 2.9 5.1 5.6 7.9 8.1 4.4 4.1 8.9 8 13.3 12 5.7 5.2 12.8 6.9 20.1 8.2 8.4 1.6 16.7 3.7 25 5.8 2.1.6 4 1.8 5.4 3.5h-15.3c6.4 6.5 14.3 8.8 22.5 10.3 14.9 2.6 29.4-.9 43.8-3.7 6.9-1.3 13.6-3.3 21-5.1-.5 2.1-1 4.1-1.7 6.9 6.9-3.3 12.8-8.3 17.3-14.5 1.9-2.6 4.1-5 6.6-7.1 1.2-1 3.3-.9 4.6-1.2.5 2.7.9 4.7 1.2 6.6 2.1-.7 4.3-1 6.1-2.2 11.3-7.7 18.4-18.8 23.4-31.2 6.4-15.6 10.5-31.9 12.4-48.6l1.5-.6 6.4 12.4c1.9-10.6 3.9-20.8 5.6-31.1 2.4-15-1.5-29.7-2.6-44.5-.5-6.5-1.3-12.9-2.1-20.8 9 5.4 16.2 13.3 20.7 22.7 3.7-48.4-12.6-87.8-47.9-119.5 8.2-2.3 20.9 3.3 42 18.2-8.2-14.3-18.5-27.2-30.5-38.4-12-11-25.1-21.1-37.7-31.6 8.1 2.8 16.5 5.5 24.8 8.6 17.8 6.7 33.9 16.1 47.6 29.7 15.2 15.1 31.1 29.4 43.6 47-.9-1.7-1.8-3.5-2.8-5.1-10.9-18.5-24.7-34.6-40.4-49.1-4.4-4.1-6.3-8.2-4.4-14.9 11.1 8 21.9 15.8 30.5 27 .3-.5.5-1.1.7-1.7s.2-1.3.6-2.9c39.2 34.5 51.3 77.9 46.2 127.6l1.7.4c2.6-5.8 5.2-11.5 8.2-18.3 1.8 10 3.9 19.3 5.2 28.8 3.3 24.7 2.1 48.9-9.5 71.8-4.1 8.1-7.2 16.7-11.1 24.9-2.3 4.4-2.8 9.5-1.6 14.3 3.6 13.8 1.5 28.4-5.8 40.7-15.1 26.2-35.4 46.9-62.2 61.4-2.1 1.3-4 3-5.6 5-2 2.3-3.6 5-5.4 7.5-10.3 15-24.1 24.7-41.7 29.9-31.3 9.3-63 15.2-95.7 15.1h-5.1l8.2 7.2c-24.2.6-45.9-5.7-67.3-13.5l-.6 1.2 10 6.8c-28 1-98.1-38.7-134.1-76.3-37.6-39.7-57.5-87.1-64.8-140.9z"/><path d="m161.4 263.8c12.7 11.4 26.6 19.1 43 21.9 11.5 1.9 22.4.4 32.6-5.9 17.3-10.6 34.9-9.5 52.4-.5 5.7 2.8 9.8 8 11.1 14.1 1.4 6.3-1.6 10.1-7.9 8.9-7.7-1.5-14.2 0-19.8 5.6-1.6 1.6-3.6 2.6-5.3 4-20.5 17.3-44.3 23.9-70.8 21.7-2-.2-3.9-.8-5.6-1.9-22.9-15.2-33-38.1-29.7-67.9z"/><path d="m375.2 44.3c-13.1-3.5-28.5-7.4-43.8-11.6-12.7-3.5-25-8.6-37.9-11.1-79.8-15.6-149.6 4.3-209.4 59.7-1.4 1.3-2.7 2.6-4.5 4.2l-7-6.6c78.5-83.8 212.9-96.1 302.6-34.6z"/><path d="m180.8 131.7c7.4 8.3 16.8 7.7 26 8 9.6.3 19.2.7 28.7 1.3 5.3.3 7.6 3.6 7.1 8.7-.8 9.6-3.3 17.8-13.1 22.7-12 6-23.6 13-35.7 19.8-13.2-17.3-19.8-36.9-13-60.5z"/><path d="m55.3 54.3c1 15.1 6.9 27.3 18.4 37.2-17.1 7.1-30.7 18-42.8 31.4-2.2-14 6.9-54 24.4-68.6z"/></g></svg>