<svg enable-background="new 0 0 500 500" viewBox="0 0 500 500" xmlns="http://www.w3.org/2000/svg"><g fill="#ffffff"><path d="m141.8 78.2c.9.8 1.7 1.7 2.5 2.6.8.8 1.3 2.7 2.7 2.3 1.7-.5.4-2.3.8-3.5-3.5-1.8-4.1-5.8-6.4-8.5-1-1.2-1.3-3.1-3.6-3.4-.3 2.6 1.5 4.2 2.4 6.1.7 1.4 2.4 2.5 1.6 4.4z"/><path d="m158 74.6.1.1c3 2.9 4.2 7 6.2 10.5.8 1.5 1.5 3.1 2.3 4.5.5.9.8 2.5 2.2 1.9s.4-1.9 0-3c-1-2.8-3.5-5.1-3.1-8.4-2.1-.2-2.5-2.1-3.3-3.6-2.4-4.9-5.1-9.7-7.4-14.7-.5-1.1-.8-2.4-3-2.6.6 3.9 3 6.8 4.3 10 .8 1.8 2.4 3.3 1.7 5.3z"/><path d="m142.6 104.6c.5.8 1.2 2.4 2.5 1.3 1.1-.9-.1-2.1-.8-2.9-4.8-6.3-9.3-12.7-13.8-19.2-.9-1.3-2-2.5-2.1-4.2-.6 0-1.1-.3-1.4-.8-1.4-2.2-3.2-2.4-5.3-1.3 4.5 4.7 8.6 9.7 12.2 15.1 2.7 4.2 6.1 7.9 8.7 12z"/><path d="m191.4 74c.4 1.3 1.4 2.7.5 4.1.8.8 1.4 2 2.7 2.7 1.8-2.4-1.1-4.9-.1-7.2-1.6-.7-1.7-2.4-2.2-3.7-1.9-5.7-4-11.4-5.6-17.3-.5-2-1-4.1-2.7-5.9-1.6 1.8-.5 3.4 0 4.8 2.4 7.5 5 15 7.4 22.5z"/><path d="m54.4 171.9h.1c1.9-1.3 3.5.2 5.1.8 3.3 1.2 6.4 3.2 10.1 2.8-4.9-4.5-11.3-5.6-17.2-8.1-.7 2.5 2.1 2.8 1.9 4.5z"/><path d="m50.5 233.4c-4.5.3-9-1.7-14.1-.3 1.5 1.7 3.1 1.2 4.5 1.5 1.2.2 2.6-.2 3.5.8l1.2-.1c3 0 6.1-.2 9 .4-.5-1.6-1.9-2.4-4.1-2.3z"/><path d="m64.1 131.9-.3.1.3.1c.1 0 .1-.1 0-.2z"/><path d="m63.5 324.6.2.1c-1.7 2.1-4.3 2.4-6.5 3.4-2.2.8-5.7-.6-6 3.4.4.8 1.3 1.1 2.2.9 5.6-2.2 11.5-3.7 16.4-7.3-2-.7-4.3.5-6.3-.5z"/><path d="m220.4 71.5c.3 1.1.3 2.3.1 3.4.8 0 1.5.1 2.3.3-1.5-12.1-3.7-24.1-5.7-36.9-2 2.1-1.4 3.5-1.2 4.8 1.6 9.4 2.9 19 4.5 28.4z"/><path d="m393.9 145.8c2.1.3 3.3-1.1 4.6-2 6.9-4.9 13.8-9.8 20.5-14.9 1.4-1.1 2.8-2.7 5-2.3-.8-3.2-1.2-3-4.8-.8-.8.4-1.6.9-2.5.5 0 2.3-2.2 3-3.6 4-5.4 3.8-10.5 8-16 11.7-1.3.9-3 1.6-3.2 3.8z"/><path d="m416 151.2.9.1c-.2-.2-.6-.2-.9-.1z"/><path d="m415.4 195.7c-.1-.1-.1-.2-.2-.3 0 .1-.1.2-.1.3z"/><path d="m408 170.8c12.1-5.9 23.5-11.4 34.5-17.6-2.7-1.1-5.1 0-7.5 1.3-1.4.8-2.7 2.6-4.7 1.2-.3 1.4-1.8 1.6-2.8 2.2-5.2 3.1-10.8 5.6-16.1 8.5-1.3.8-2.9 1.3-3.4 4.4z"/><path d="m354.6 105.9c1.6.5 2.3-.8 3-1.7 6.1-8.2 11.9-16.5 17.9-24.7.6-1.1 1.1-2.2 1.5-3.4-2.3.3-3.4 3.1-5.8 3.3-.6 2.8-2.7 4.8-4.3 7-4.1 5.7-7.6 11.9-11.9 17.5-.7.6-.8 1.4-.4 2z"/><path d="m398 124.5c.6 0 1.2.3 1.6.8.1-.1.1-.1.2-.1-.2-2.9 2.2-3.6 4.3-4.5 1.8-.2 3.2-.8 3.7-2.8.8-2.1 2.6-3.3 4.2-4.6.7-.6 1.3-1.3.7-2.2s-1.5-.4-2.2.2c-3.8 3-7.2 6.3-11 9.3-1.4 1-1 2.6-1.5 3.9z"/><path d="m334 88.1c2.2-3.5 2.9-7.9 6.3-10.6-.7-1.5.4-2.7 1-3.9 1.6-3.5 3.3-6.9 5.1-10.2.6-1.2 1.6-2.4 1-4.1-2.1.3-2.4 2-3 3.3-2.4 4.6-4.6 9.3-7.1 14-.6 1.2-.8 3-2.8 2.8.3 1.9-1 3.4-1.5 5-.7 2.2-2.1 4.2-2.5 6.9 2.4 0 2.7-2 3.5-3.2z"/><path d="m351.8 83c2.2 1 2.5-1.9 3.7-3 .4-.4.7-.8 1.1-1.2 1-1.2 3.8-1.1 2.7-3.8.2-1.2.6-2.2 1.8-2.6-.7-1.6 1.3-2.9.8-4.7-2-.3-2.7 1.3-3.4 2.5-1.3 2.1-2.5 4.4-4 6.5-.7 1.1-1.1 2.8-2.9 2.7-.1 1.4-1.3 2.9.2 3.6z"/><path d="m307.3 77.7c.3-.5.7-1 1.2-1.4-.8-1.6.1-3.1.6-4.6 2.3-6.9 4.5-13.9 6.9-20.9.4-1.3 1.2-2.6 0-4.2-2 .8-2.1 2.9-2.5 4.5-2.2 7.9-5 15.6-7.6 23.3-.5 1.5-.6 3.3-2.3 4.2 1.7 2.6 1.9 2.3 3.7-.9z"/><path d="m217.8 76c.3-.1.5-.1.8-.2-.4-.1-.7-.1-.8.2z"/><path d="m395.8 394.1c-1.1-2.5-3-4.2-5.1-5.7-.6-.4-1-.9-1.1-1.6-1.8.7-2.6-.8-3.6-1.8-2.5-2.3-4.7-4.7-7.1-7-1.1-1-1.9-2.5-4.1-1.9.2 1.5 1.3 2.6 1.9 3.9 1.6.1 2.5 1.5 3.5 2.5 5.7 5.5 11.1 11.3 16.5 17 .5.7 1.1 1.3 1.8 1.8.7.4 1.6 1.1 2.3.3s-.1-1.6-.7-2.2c-1.5-1.7-3-3.4-4.3-5.3z"/><path d="m380.3 401.4c-1-.8-1.5-2.4-3.3-2.5-.6 2.2 1 3.1 1.9 4.4 1 1.4 2.8 2.5 2.1 4.7h.2c2.3 0 3.3 1.8 4.5 3.3 1.9 2.4 3.3 2.3 4.3-.5-4.3-2-6.3-6.4-9.7-9.4z"/><path d="m409.8 383.7c-3.8 0-5.3-3.5-7.9-5.3-2.2-1.6-3.6-1.7-4.5.8.8.2 1.5.8 2 1.5 1.5 3.2 4.5 4.6 7.3 6.2 1.5.8 2.7 2 4.2 2.8.6.4 1.4.2 1.8-.4.3-.5.2-1.1-.2-1.5-1.1-1.3-2.8-2.2-2.7-4.1z"/><path d="m369.3 411.8c-.1-1.6-.2-3.3-2.1-4-.2-.2-.4-.4-.5-.6-2.3 0-2.8-2.1-3.9-3.4-2.3-2.8-4.2-6-6.5-8.8-.5-.6-1.1-1.5-2-.8s-.2 1.6.2 2.2c1 1.5 2.2 2.9 3.2 4.4.8 1.2 1.8 2.4 1.4 4 3 1.5 4.7 4.4 6.5 7 2.5 3.6 5.2 7 7.7 10.6.5.7 1.1 1.6 2 .9s.2-1.5-.2-2.2c-1.7-3.2-4.5-5.8-5.8-9.3z"/><path d="m451.8 297.4c-2.5-.8-5.4-.5-7.5-2.5 0-.1-.1-.1-.1-.2-1.8 1-3.3.3-4.9-.7 1.4 3 4.2 4.2 7.6 4.6s6.6 2.1 10.9 1.8c-1.9-2.5-4.2-2.4-6-3z"/><path d="m251 .1c-141.4-.3-250.1 113.2-251 248.3-.9 140.3 113.3 252.4 250 251.5 136.5.9 249.3-111 250-248.2.7-138.8-110.9-251.3-249-251.6zm220.7 283.5c-.4 2.8-2.2 5.2-1.7 8.1-1.1 10-4.3 19.5-7.1 29-2.4 8.2-6.7 15.7-9.8 23.6-4.8 12.5-12 23.6-19.6 34.5-1.5 2.2-2.6 4.7-4.9 6.3-3.1 5.3-7.3 9.8-11.5 14.3s-8.4 8.5-12.6 12.8c-11.3 11.3-23.8 21.1-37.8 28.9-10.1 7.2-21.2 12.2-32.6 16.8-64.1 25.9-136.5 20.8-196.4-13.8-1.1-.6-2.1-1.4-3.1-2.2-14.3-8-27.5-18-39-29.7-1.4-.8-2.5-1.9-3.4-3.3-16.7-15.9-30-34.3-40.7-54.6-1.1-2-2.2-3.9-3.3-5.9-4.7-6-7.5-12.9-9.3-20.3l.5-1c-7.1-16.5-9.9-34-12.3-51.7-1.8-13.5-1.6-27.1-1-40.7.1-1.5-.3-3.1.7-4.5 1.3-20.4 5.9-40.5 13.6-59.5 4.7-13.8 11.2-26.9 19.3-39.1l-.1-.2c.8-4.5 3.8-7.8 6.2-11.3 9.6-13.9 21.2-26.1 33.5-37.6 2.9-2.7 5.4-6.4 9.9-6.9.1-2.3 2-3.2 3.5-4.4 32.4-24.9 71-40.6 111.6-45.2 32.2-3.5 63.7-.7 94.5 9.5 9.1 3 18.1 6.2 26.7 10.5 1.6.8 3.5 1.3 4.5 3 5.8 3.4 11.6 6.8 17.5 10.1 9.2 5.2 17.1 12.1 25.2 18.7 9.7 6.7 17.8 15.1 25.2 24.1 5.8 6.9 11.6 13.9 16.4 21.6 7.1 8.7 12.3 18.6 17 28.8 7.4 14.2 12.8 29.3 16.1 45 3.6 13 5.6 26.5 5.9 40 1.1 3.9.7 7.8.7 11.7.3 11.6-.6 23.1-2.3 34.6z"/><path d="m453.4 200.1c-2.5.8-5.2 1.4-7.8 1.9-1.4.3-2.9 1-4.2-.3-.5 1.1-2.1 1.8-1.2 2.8 1.4 1.5 3.4 0 5.2-.3 4.2-.8 8.5-2 12.7-3 0 0 0-.1.1-.1-1.2-1.4-2.8-1.6-4.8-1z"/><path d="m413.1 332.3c-1.3-.7-2.6-1.7-4.6-1.3.3 1.9 1.9 2.3 3.2 2.9 5.2 2.6 10.4 5.1 15.5 7.8 1.1.6 2.9 1.3 2.2 2.6 3-.6 5.1 1.6 7.5 2.7s3.7.8 4.2-1.4c-1.9 0-3.4-1-5-1.8-7.6-3.8-15.3-7.7-23-11.5z"/><path d="m347.1 438.3c-4-7.3-7.9-14.6-11.5-22.1-.6-1.2-1.5-2.5-.5-3.9-.7.2-1.3-.5-1.8-1.1-.8-.9-.8-2.5-2.6-2.8-1.3 1.8.1 3.2.7 4.6 1.2 2.7 3 5.1 4.2 7.9.6 1.3 1.4 2.5.8 4.1 1.8.1 2.1 1.8 2.7 3 1.7 3.2 3.3 6.5 4.9 9.7 1.7 3.2 2.1 3.8 4.4 2.3-.6-.4-1-1-1.3-1.7z"/><path d="m280.2 436.4c-.3-2.1-1-4.2.6-6.1 0-.1 0-.1 0-.2-.8.4-1.2-.6-1.5-1.3-.5-1.3-.7-2.7-1.7-3.8-1 1.2-1.4 2.7-1.1 4.2 1.5 9.9 4.1 19.5 5.4 29.5.1.8.1 1.7 1.3 2 1.2-1.5.6-3.2.3-4.8-1.2-6.5-2.3-13-3.3-19.5z"/><path d="m144.9 394c-1-.6-1.6.7-2.2 1.5-2.9 3.8-5.4 7.8-8.4 11.5-1 1.3-1.7 3-3.8 3-.1.4-.4.8-.7 1.1-1.8.9-3 2.8-2.9 4.9-.4 2.7-3.1 4.3-3.9 6.9 2.1 1.1 2.8-.4 3.7-1.5 2.1-2.7 4.1-5.4 6-8.2.8-1.3 1.6-2.7 3.5-2.8l.2-.1c-1-1.2.2-2.3.8-3.3 2.3-3.5 4.9-6.8 7.4-10.2.7-.8 1.7-2 .3-2.8z"/><path d="m118.5 401.9c-2.3 2.6-4.1 5.7-7.4 7.3h-.1c-.1.5-.3.9-.6 1.3-.5.8-1.2 1.7-.1 2.5.8.5 1.6.1 2.2-.5 1-.8 1.8-2.2 3.4-2h.2c-.9-2 .9-3.2 2-4.5 1.7-2 3.7-3.8 4.8-6.8-2.6-.4-3.4 1.5-4.4 2.7z"/><path d="m168.8 408.5c-1-.6-1.4.4-1.9 1.1-.6.9-1.1 1.9-2.3 2.1-.7 5.1-4 9.2-5.8 13.9-2.2 5.3-4.7 10.5-7.6 15.5 1.7.5 2.7-.6 3.5-2.2 1.9-4 4.1-8 6.1-11.9 1.1-2 1.8-4.4 4.2-5.6-.4-1.3.3-2.6.8-3.9 1.1-2.3 2.3-4.5 3.3-6.8.4-.7.6-1.7-.3-2.2z"/><path d="m105.4 145.6c1-1-.1-1.8-.8-2.4-3.5-2.4-6.8-5.1-10.3-7.5-1.1-.8-2.5-1.3-2.8-2.9-2.9-.7-5-2.9-7.4-4.5-1.6-1-2.9-2.2-4.4-3.2-.8-.6-2-1.9-2.9-.8-1.1 1.2.6 1.8 1.3 2.5 1 1.1 2.9 1.6 2.5 3.5 5.7 2.3 10.3 6.3 15.4 9.5 2.5 1.6 4.9 3.3 7.3 5.1.5.7 1.4 1.5 2.1.7z"/><path d="m308.2 426.8c-.5-1.6-1.5-3.2-.4-4.9-1.4-.3-1.4-2.3-3-2.5-1.8 1.1.3 3.6-.9 4.9.8.7 1.4 1.7 1.6 2.7 2.2 8 6.3 15.4 8.2 23.6.3 1.2.5 2.5 2 2.9 1.4-1.7.3-3.1-.2-4.4-2.4-7.5-4.9-14.9-7.3-22.3z"/><path d="m85.4 164.9c-7.4-3.5-14.6-7.3-22-10.9-1.3-.6-2.5-1.9-4.3-.9.4 1.9 2.1 2.1 3.4 2.8 7.8 4 15.3 8.4 23.2 12.1 1.4.7 3.1 1.1 3.5 2.8.9-.6 2.2-.5 3 .3-1-3.1-3.7-4.7-6.8-6.2z"/><path d="m354.1 155.9c1.1-1.4 2.2-2.7 4-3.1 1.3-4.4 4.6-7.4 7.4-10.8 4.9-6 9.9-12 14.9-17.9.8-.9 1.3-2.2 2.7-2.3.3-1.3 1.2-2.4 2.5-3 2-.6 2.8-2.2 3.3-4.1 1.5-3.5 4.4-5.9 6.8-8.7 2.5-2.4 5.8-4.2 6.9-7.8-4.6 2.5-8.1 6.3-12.1 9.5-10.9 8.7-21.5 17.8-32.4 26.5-1 .8-2 1.7-3.3 1.8.2 1.5-1.3 1.9-2.1 2.6-14.5 11.9-29.5 23.2-43.9 35.2-1 .8-2.2 1.4-3.4 1.8-6.3 6.2-13.5 11.4-20.3 17-16.2 13.4-32.5 26.6-48.7 39.9-1.1.8-2 1.9-3 2.9l-5.8 6.1c-12.9 15.9-25.8 31.9-38.7 47.8-10.2 12.6-20.5 25.2-30.8 37.8-.7 1.1-1.6 2.2-2.6 3.1-1.9 4.5-5.6 7.7-8.5 11.4-12.2 15.2-24.2 30.6-36.6 45.7-2.7 3.2-5.6 6.3-8.7 9.3-2.1 2.2-3.9 4.7-5.3 7.4 9.3-7.8 18.4-16.1 28.1-23.5.8-.6 1.6-1.2 2.7-.6l.2.1c-.8-1.8 1.4-3 2.6-4.1 6.1-5.4 12.7-10.3 19-15.6s12.4-10.2 18.6-15.4c1.4-1.2 2.7-2.5 4.8-2.3-.5-1.4 1.1-2.5 2.3-3.5 7.2-6.1 14.7-11.9 22-18 11-9.2 22.3-18.2 33.3-27.5 1.6-1.4 3.2-3.1 5.4-3.5-.1-1.9 1.9-2.3 3-3.3 8.4-7.1 17.3-13.7 25.3-21.3 5.8-6.1 10.7-12.9 16.2-19.2 1.3-1.5 2.5-3.4 4.5-3.4 0 0 0 0 0-.1-.7-1.7.6-2.6 1.4-3.7 11.4-14.2 23.1-28 34.7-42.1.9-1.1 1.7-3.9 4-3 0-.1 0-.1 0-.2-.3-2.4 1.6-3.8 2.9-5.3 8.6-10.8 17.8-21.5 26.7-32.6z"/><path d="m219 428.3v.3c.4 7.4-.9 14.6-2 21.9-.5 3.4-1.9 6.8-1 10.4 1.7-.4 1.6-1.7 1.8-2.7 1.6-9.8 3.1-19.5 4.6-29.3.1-1.3 0-2.6-.1-3.9-1.6.5-1.2 3.4-3.3 3.3z"/><path d="m194.7 419.6c-1.9.6-1.6 2.5-2.4 3.8-.6 1.1-.7 2.8-2.4 2.5-.9 7.6-3.6 14.8-5.7 22.1-.5 1.7-1.4 3.3-.7 5.6 2.4-1.5 2.6-3.7 3.1-5.6 1.7-6.1 3.8-12.1 5.8-18.1.5-1.5.7-3.3 2.6-4-1.6-1.9 1.3-4.2-.3-6.3z"/><path d="m306.3 174.6 48.2-39.1 49.9-40.5c.4 1.7-1.1 2.1-1.3 3.1-1.6 3.5-4.7 5.8-7.2 8.6l-6.5 8.2c-.9 1.7-1.8 3.4-3.7 4.4-1 .6-1.8 1.5-2.2 2.6l-25.5 31.1c-4.6 4.4-8.1 9.6-12.2 14.4-5.6 6.8-11.2 13.5-16.8 20.3-1.7 2-3.3 4.2-4.9 6.3-13.4 16.3-27.1 32.3-40 49-5.5 6.6-11.1 13.2-16.6 19.7-1.1 1.3-2.3 2.4-3.5 3.7-1.7.4-2.6-.8-3.6-1.8-8.5-8.4-17-16.9-25.5-25.5-1-1-2.1-2-2.2-3.5 1.2-4.2 5.1-5.9 8.1-8.3 19-15.5 37.9-31.1 57-46.6 2.8-2.1 5.3-4.6 8.5-6.1z"/><path d="m91.5 132.3c4.6 3.4 9.2 6.7 13.8 10.2 1.2.9 3 1.6 1.5 3.9-1.7 2.7-2.9.4-4-.4-7.5-5.2-14.9-10.4-22.4-15.6-1.1-1.9-3.2-2.7-4.8-4-1.3-1-1.3-1.8-.3-3.1s1.8-1.4 3.1-.4c4.4 3.3 8.8 6.3 13.1 9.4z"/><path d="m370.8 79.4c1.3-.2 1.6-1.4 2.1-2.3 1.2-2.2 2.7-2.4 4.7-1.1.5 1.6-.3 2.7-1.1 3.9-6.2 8.5-12.4 17.1-18.7 25.6-.9 1.2-1.5 3.8-4.1 1.7s-.1-3.2.7-4.4c5.4-7.8 10.9-15.6 16.4-23.4z"/><path d="m121.4 77.8c3.8-4.4 3.2-3.5 7.5 1.9l16 22.3c.5.7.9 1.4 1.5 2.1 1.1 1.3 1.3 2.3-.3 3.4s-2.4.3-3.3-1c-4.2-6-8.8-11.8-12.9-17.9-2.7-3.8-6.4-6.7-8.5-10.8z"/><path d="m126 123.4c-.1 1.1-.7 2.1-1.7 2.5-1.3 1-2.1-.2-2.8-.9-3.8-3.8-7.6-7.6-11.4-11.4-3.9-3.9-7.8-7.8-11.7-11.7-1.1-1.1-2.9-2-1.1-4.1s2.9-.4 4 .7l23.1 23.1c.6.6 1.1 1.3 1.6 1.8z"/><path d="m424.2 126.7c-9 6.5-18.1 13-27.2 19.4-1.1.8-2.2 3-4.1.5-1.8-2.5.4-3.1 1.7-4.1 7.3-5.5 14.7-10.9 22-16.4 1.4-1 2.9-2 4.3-2.9.8-.5 1.7-1.8 2.9-.5s2 2.5.4 4z"/><path d="m220 76c-1.8-11.7-3.7-23.4-5.5-35.1-.2-1.5-1-3.1 1.5-3.5 2.4-.4 2.7 1.2 2.9 3 1.6 10.5 3.3 20.9 4.9 31.4.2 1.5.7 3.1-.8 4.3z"/><path d="m157.8 75.2c-1.5-4.7-4.3-8.8-6.4-13.3-.6-1.4-1.8-2.6.4-3.8s2.7.3 3.4 1.7c3.7 6.8 6.6 14 10.8 20.6 1.4 2.9 2.7 5.9 4.1 8.8.7 1.4 1.5 2.6-.6 3.8-2.3 1.3-2.6-.4-3.3-1.7-2.8-5.3-5-11-8.4-16.1z"/><path d="m303.1 78.9c3.4-10.3 6.8-20.5 10.3-30.8.5-1.4.2-4.2 3.3-3.1 2.9 1 1.3 2.9.8 4.5-2.8 9.1-5.7 18.2-8.6 27.3-.4 1-.8 2-1.2 3.1-.5 1.4-1.1 2.5-3 2.1-2.1-.3-1.7-1.7-1.6-3.1z"/><path d="m334.3 79.3c3.3-6.3 6.6-12.7 10-19 .8-1.5 1.1-3.9 3.9-2.2 2.5 1.5.6 2.9 0 4.2-2.5 5.2-5.1 10.3-7.7 15.5-2.2 4.2-4.4 8.5-6.6 12.6-.7 1.4-1 3.5-3.5 2.4s-1.2-2.6-.5-4c1.4-3.2 2.9-6.3 4.4-9.5z"/><path d="m191.5 78.6c-2.9-9-5.7-18-8.6-27-.2-.7-.5-1.3-.7-2-.4-1.6-1.9-3.5 1-4.4 2.7-.8 2.7 1.5 3.1 2.9 2.3 7 4.5 14 6.8 21 .5 1.6 1.2 3.1 1.8 4.7.4 1.6.8 3.2 1.3 4.8s1.3 2.9-1 3.7c-2.2.8-2.7-.5-3.1-2.1-.1-.6-.3-1.1-.6-1.6z"/><path d="m351.3 79.4c3.1-3.1 4.5-7.3 7.1-10.8 1-1.3 1.2-3.8 3.9-2.2 3 1.6.4 2.9-.1 4.3-.3.6-.6 1.3-.9 1.9l-1.5 2.5c-.2 1.9-1.6 3-2.7 4.2-.7.8-1.3 1.8-2 2.6-1 1.2-.9 4-3.7 2.5-3.1-1.6-1-3.3-.1-5z"/><path d="m399.6 125.3-1.8-.8c-1.2-1.5-1.3-2.7.4-4.1 4.1-3.3 8.2-6.8 12.1-10.4 1.4-1.3 2.2-1 3.4.2 1.5 1.5.6 2.4-.6 3.4-1.8 1.6-3.5 3.2-5.3 4.7-.6 1.3-1.7 2.2-3.1 2.6-2.1 1.1-3.5 2.8-5.1 4.4z"/><path d="m141.6 78.6c-.9-3.3-3.4-5.7-4.8-8.7-.6-1.2-1.7-2.2.2-3.4s2.7 0 3.6 1.3c2.5 4 5.1 8 7.7 12 .2.6.5 1.3.8 1.9.9 1.6-.2 2.2-1.3 3-1.4 1-2 0-2.6-1-1.2-1.7-2.4-3.4-3.6-5.1z"/><path d="m388.2 85.2c.8.6 1.6 1.2 2.3 2s0 1.6-.5 2.2c-3.7 4.2-7.4 8.5-11 12.8-1.1 1.3-2 .9-3.2 0s-1.2-1.8-.3-2.8c3.7-4.3 7.3-8.6 11-12.9.5-.5 1.1-.9 1.7-1.3z"/><path d="m110.8 85.6c1.2-.2 1.5.4 2 .9 3.5 4.2 7.1 8.3 10.7 12.4 1.1 1.3 1.4 2.2-.1 3.5-1.5 1.2-2.2.6-3.1-.5-3.6-4.2-7.2-8.3-10.7-12.5-.5-.6-1.4-1.3-.7-2.2.6-.5 1.2-1.1 1.9-1.6z"/><path d="m87.6 109.1c.7.4 1.3.8 1.9 1.3 4 3.4 7.9 6.8 11.9 10.1 1.2 1 2.1 1.8.6 3.4-1.3 1.5-2.3 1.1-3.5 0-4.2-3.6-8.4-7.1-12.5-10.7-.6-.5-1.4-1.2-.8-2.1.5-1 1.4-1.7 2.4-2z"/><path d="m233.1 235.5 30.9 30.9c-8.5 8-17.9 14.9-26.7 22.5-.7.6-1.4 1.3-2.1 2-14.6 11.9-29.3 23.8-43.9 35.8-6.4 5.3-12.8 10.6-19.2 15.9-15.3 12.1-30.4 24.5-45.1 37.3-7.3 5.3-14.3 11-20.8 17.1-3.5 3.3-7.3 6.4-11.2 9.2l-1-.4c2.4-2.8 3.5-6.4 6.2-9.2 12.8-13.3 24-28 35.3-42.5 6.2-7.9 12.6-15.5 19-23.3 6.2-9.7 14.1-17.9 21.3-26.8 16.9-21 33.9-41.9 51-62.7 2-2 2.9-5.3 6.3-5.8z"/><path d="m419.8 303.1c1.9.6 3.9 1.3 5.9 2 8.8 2.9 17.7 5.7 26.5 8.6 1.4.4 3.2.5 2.5 2.9-.7 2.7-2.4 1.7-4 1.2-10.3-3.3-20.6-6.7-30.9-10.1-1.3-.4-2.9-.6-2.3-2.7.3-1.2.6-2.4 2.3-1.9z"/><path d="m441.3 345c1.5 1.2.8 2.5-.1 3.6-1.1 1.6-2.2.3-3.2-.2-2.9-1.3-5.8-2.8-8.6-4.1-6.7-3.5-13.5-7-20.2-10.6-1.3-.7-3.6-.9-2.3-3.5s2.8-1 4.2-.4c10 5.1 20.1 10.2 30.2 15.2z"/><path d="m438.9 293.7 5.8.7c4 1.1 8.1 2.2 12.1 3.2 1.7.4 2.9.9 2.4 3s-2 1.6-3.3 1.3c-5.1-1.1-10.1-2.5-15.1-3.6-3.3-.7-1.8-2.9-1.9-4.6z"/><path d="m449 331.6c-.5 1.3-.6 3.2-3.2 2.1-5.1-2.2-10.1-4.3-15.3-6.3-1.6-.6-1.8-1.4-1.3-2.9.5-1.3 1.2-1.9 2.5-1.4 5.3 2.2 10.7 4.5 16 6.7.9.2 1.5 1 1.3 1.8z"/><path d="m425.4 374.7c-.7 1-1.4 2-2.3 2.9-1.1.9-1.8-.2-2.5-.7-4.8-3.5-9.6-6.9-14.4-10.4-3.9-3-8-5.7-12.2-8.3-1.5-.8-3.4-2.2-2-4.4 1.3-1.9 2.8-.8 4.3.3 9 6.6 18.1 13 27.2 19.5.6.5 1.3.8 1.9 1.1z"/><path d="m389.5 386.5 1.3 1.2c2 1.8 3.8 3.7 5.5 5.8 1.9 2 3.7 4.1 5.6 6.1.9 1 1.3 1.7.1 2.8-.8.8-1.4 1.4-2.8.5-3.5-2.5-6.1-6.1-9.1-9.1l-14.1-13.8c-.5-.5-.9-1-1.3-1.6-.4-1-3.3-.8-1.4-3 1.7-1.8 2.9-1.4 4.5.2 3.9 3.7 7.8 7.3 11.7 10.9z"/><path d="m409.8 383.7c.9 1.1 1.9 2 2.9 3 1.5 1.2 2.2 1.9.6 3.9-2 2.3-2.7.4-3.9-.5-1-.8-1.9-1.6-2.9-2.4-2.6-2.2-5.6-3.9-7.7-6.7l-1.9-1.8c-.9-1.9.4-3 1.6-3.8 1.3-.8 2 .7 2.8 1.3 2.9 2.3 5.7 4.6 8.5 7z"/><path d="m414.2 352.1c1.1-1 2-2.5 3.8-1.4 4.9 3 9.8 6 14.8 9 1.2.7 1.6 1.5.8 2.8-.6 1-1.2 2.1-2.6 1.3-5.6-3.3-11.1-6.6-16.6-10-.3-.3-.1-1.2-.2-1.7z"/><path d="m280.7 430.3c.4 9 2.8 17.7 4 26.6.2 1.3.3 2.5.5 3.8.3 1.8-.9 2.1-2.3 2.3-1.6.3-1.9-.7-2.1-2-1-6.1-1.6-12.2-3.3-18.2-1.2-4.5-1.1-9.2-2.5-13.7-.8-2.6-.6-5.1 3.2-5.1 2.8 1.4 1.1 4.4 2.5 6.3z"/><path d="m150.8 442c-.6-1.3-.1-2.4.5-3.5 4.5-8.9 8.9-17.8 13.3-26.8.8-1.2 1.5-2.4 2.1-3.6.8-1.8 1.9-1.1 3.1-.6s1.6 1.4.8 2.7c-2 3.7-3.8 7.5-5.7 11.3-3.3 6.3-6.5 12.6-9.8 18.8-.8 1.8-1.9 3.5-4.3 1.7z"/><path d="m308 421.6c2.1 9.6 6.2 18.6 8.9 28.1.2.5.4 1.1.5 1.6.3 1.4 1.5 2.8-1 3.7-2.4.8-2.6-.6-3.1-2.1-2.8-8.4-5.6-16.8-8.4-25.2-.4-1.2-.8-2.3-1.1-3.5-.2-1-.4-1.9-.7-2.9-.3-1.3-1.1-2.6 1.1-3.3 2-.7 2.5.3 3 1.8.2.6.5 1.2.8 1.8z"/><path d="m195.2 425.8c-3.4 7.9-5.2 16.2-8.1 24.3-.4 1.1-.8 2.1-1.1 3.2-.4 1.7-1.2 2.3-3 1.7-1.7-.6-1.7-1.6-1.2-2.9 2.8-8.8 5.5-17.6 8.3-26.5 1.5-1.7 1.7-4.1 2.4-6.1.5-1.5 1.1-2 2.7-1.5s2 1.2 1.5 2.7c-.6 1.7-1 3.4-1.5 5.1z"/><path d="m222.3 424.2c1.8.8 1.8 2.3 1.5 3.9-1.7 10.5-3.3 21-5.1 31.6-.2 1.5.2 3.7-2.6 3.3-2.5-.4-2-2.1-1.8-3.8 1.4-9.5 3.5-19 3.8-28.6.2-.7.4-1.3.8-1.9 1.3-1.5-.2-4.9 3.4-4.5z"/><path d="m136.2 410.4c-2.7 3.6-5.2 7.3-8.1 10.8-1.2 1.5-1.7 5.6-5 3-3.1-2.3.8-3.5 1.4-5.3.5-1.1 1.2-2.2 1.9-3.2.6-2 1.8-3.8 3.5-5.1l.7-.9c4.5-4.5 7.5-10.1 11.5-15 1-1.3 1.5-3.7 4.1-1.7s.2 3.2-.7 4.5c-3 4.3-6.2 8.6-9.3 12.9z"/><path d="m369.9 411.5c2.2 3.1 4.3 6.2 6.5 9.3 1.1 1.4 1.5 2.5-.3 3.8s-2.4-.1-3.2-1.1l-14.2-18.8c-1.3-3.2-3.8-5.6-5.7-8.4-.9-1.3-1.3-2.3.3-3.5 1.7-1.3 2.5-.3 3.4.9 3.3 4.4 6.5 8.8 9.8 13.3l.1.1c1.9 1 2.7 2.7 3.3 4.4z"/><path d="m335.1 412.3c4 9.8 9.3 18.9 14.3 28.1-2.6 3.1-4.2 2.5-5.9-1.1-2.3-4.9-5-9.6-7.5-14.4-2.3-4.6-4.5-9.3-6.8-13.9-.7-1.5-1.4-2.7.6-3.8 2.2-1.2 2.6.6 3.3 1.9.7 1.1 1.4 2.2 2 3.2z"/><path d="m116 410.5c-.9.8-1.8 1.7-2.5 2.7-1.4 2.3-3 1.5-4.5.4-2.3-1.6 0-2.5.7-3.5.4-.5.9-1 1.5-1.5 3.5-2.9 5.8-6.7 8.9-9.9.9-1 1.6-2.4 3.4-1 1.6 1.3 1.3 2.3.1 3.8-2.8 2.9-5.2 6-7.6 9z"/><path d="m390.1 410.6c1.2 1.7.5 2.7-1 3.7-1.7 1.1-2.2-.3-3-1.2-1.6-1.7-3.2-3.5-4.8-5.3-1.7-2.2-3.5-4.4-5.2-6.6-.9-1.1-1.8-2.1-.1-3.5s2.4-.7 3.4.5c3.5 4.3 7.1 8.4 10.7 12.4z"/><path d="m396.3 393.5c-1.9-1.9-4-3.5-5.5-5.8 2.6 1.2 4.6 3 5.5 5.8z"/><path d="m425.5 275.9c11.7 1.8 22.9 3.6 34.1 5.3 1.8.3 3.4.4 2.9 2.9s-2.3 1.5-3.7 1.3c-11-1.6-22-3.4-33-4.9-2.5-.3-2-2-2.2-3.3-.2-1.9 1.4-1.2 1.9-1.3z"/><path d="m465.1 248.3c.7 3.2-.2 4.5-3.8 4.4-10.6-.2-21.2-.1-31.8-.1-3.8 0-4.6-1.3-2.5-4.5 12.6-.1 25.4-.4 38.1.2z"/><path d="m450.6 263.6c3.6.3 7.3.7 10.9 1 1.6.1 3.1.2 2.9 2.5-.1 2.4-1.6 1.9-3 1.8-5.5-.4-10.9-.8-16.4-1.2-.9-.1-1.7-.2-2-1.2.8-5.5 4.8-2.6 7.6-2.9z"/><path d="m252.6 53.2v16.5c0 1.4.1 2.9-2.1 3-2.1.1-2.5-1.2-2.5-3 0-11.1 0-22.3 0-33.4 0-1.7.4-2.6 2.3-2.6s2.3 1 2.3 2.6z"/><path d="m285.7 39.4c-1.9 11.8-3.7 22.9-5.5 34.1-.2 1.3-.2 2.5-2.2 2.2-1.8-.3-2.4-1.1-2.1-2.8 1.8-11.1 3.6-22.3 5.4-33.4.3-1.7.9-2.5 2.8-2.2.9 0 1.7.7 1.7 1.7 0 0-.1.2-.1.4z"/><path d="m263.2 51.5c.3-4.5.7-8.9 1-13.4.1-1.8.7-2.9 2.8-2.7 2.5.2 1.8 2 1.7 3.4-.4 4.8-.8 9.5-1.2 14.3-.1 1.6.4 3.6-2.4 3.4-2.9-.1-1.8-2.2-2-3.7 0-.6 0-1 .1-1.3z"/><path d="m230.9 38.8c.2-1.1-1.1-3.4 2.1-3.5 2.9-.1 2.1 2 2.2 3.5.5 4.8.8 9.5 1.3 14.3.1 1.6.2 3.1-2.1 3.3-2.1.1-2.2-1.4-2.4-2.7-.4-4.8-.7-9.6-1.1-14.9z"/><path d="m174.5 70.9c-1.2.2-1.6-.6-1.9-1.3-2.2-5.2-4.3-10.4-6.5-15.5-.6-1.4-.3-2.4 1.2-3s2.3-.1 2.9 1.3c2.1 5.2 4.2 10.4 6.4 15.5 1.1 2.5-1 2.3-2.1 3z"/><path d="m293.5 58.3c1.3-5.4 2.6-10.7 3.9-16.1.5-1.9 1.8-1.9 3.3-1.6 1.7.4 1.2 1.5.9 2.7-1.3 5.2-2.5 10.4-3.7 15.7-.4 1.6-.7 2.5-2.8 2.1-1.7-.4-1.9-1.4-1.6-2.8z"/><path d="m206.1 58.9c.3 1.1-.3 1.9-1.6 2.2-1.6.4-2.4-.1-2.7-1.7-1.3-5.3-2.6-10.7-3.9-16-.3-1.3-.3-2.5 1.5-2.8 1.4-.2 2.4-.1 2.8 1.6 1.1 5.5 2.5 11 3.9 16.7z"/><path d="m333.5 53.5c-.5 1.2-1.1 2.8-1.8 4.4-1.6 3.8-3.1 7.6-4.7 11.3-.5 1.3-1.1 2.2-2.8 1.5s-2-1.5-1.2-3.3c2.2-5 4.2-10.2 6.3-15.2.4-.9.8-1.9 2.1-1.3 1.1.4 2.3.7 2.1 2.6z"/><path d="m428.1 224.4c-2.8.4-3.6-.3-3.8-1.9-.2-1.7.7-2.1 2.2-2.3 11.2-1.8 22.3-3.6 33.5-5.4 1.3-.2 2.5-.2 2.8 1.6.3 1.5.2 2.4-1.6 2.7-11.5 1.8-22.9 3.7-33.1 5.3z"/><path d="m441.3 201.7c4.5-1 9-2.1 13.6-3.1 4.2-.9 4.5-.6 4 3.8-5.4 1.2-10.7 2.3-16.1 3.6-2 .5-4.1 1-4.8-1.6s2.1-1.9 3.3-2.7z"/><path d="m449.9 236.6c-1.3.1-2.5.1-3.8.2-1.5.1-2.4-.3-2.5-2-.2-1.7.5-2.3 2.1-2.4 5.3-.3 10.7-.7 16-1.1 1.6-.1 2.8.1 2.8 2.1s-1.3 2.1-2.8 2.3c-4 .2-7.9.6-11.8.9z"/><path d="m248 445.7c0-5.7 0-11.3.1-17 0-.9-.7-2.8 1.6-2.4 1.4.3 3 .1 3 2.5-.1 11.5-.1 22.9-.1 34.4 0 1.6-.3 2.7-2.3 2.6s-2.2-1.2-2.2-2.8c-.1-5.7-.1-11.5-.1-17.3z"/><path d="m168.3 449.5c-1.1-.6-3.3-.5-2.3-2.9 2.1-5.3 4.2-10.7 6.2-16.1.7-1.8 1.9-1.3 3.1-.8 1 .4 2.1.6 1.3 2.3-2.3 5.3-4.4 10.7-6.5 16-.3.8-.6 1.7-1.8 1.5z"/><path d="m296 438.9c1.6.1 1.7 1.5 2 2.7 1.2 4.9 2.3 9.9 3.5 14.8.4 1.5.7 2.7-1.4 3.2-2 .5-2.4-.5-2.9-2-1.5-5.3-2-10.8-4.4-15.8-1.1-2.7 1.8-2.1 3.2-2.9z"/><path d="m324.7 429.4c1.9-.2 2.1 1 2.5 2 2 4.8 4 9.6 6 14.4.6 1.5.7 2.5-1.1 3.4-2 .9-2.4-.4-3-1.7-2.3-5.2-4.1-10.7-6.8-15.8-1.2-2.2 1.8-1.5 2.4-2.3z"/><path d="m230.9 460.9c.4-4.9.7-9.5 1.1-14.1.1-1.5 0-3.2 2.4-3 2.3.2 2.2 1.7 2.1 3.3-.4 4.6-.7 9.2-1.3 13.8-.2 1.6.9 4.4-2.6 4-3.1-.4-1.3-2.8-1.7-4z"/><path d="m197.7 457.4c1.5-5.9 2.8-11.4 4.1-16.9.3-1.2.6-2 2.3-1.4 1.2.5 2.5.3 2.1 2.3-1.4 5.6-2.7 11.2-4.1 16.8-.3 1.4-1.2 1.7-2.5 1.4-1.6-.3-2.4-1.1-1.9-2.2z"/><path d="m268.6 462.5c.2 1.2.1 2.3-1.5 2.3-1.3 0-2.6.2-2.7-1.7-.4-5.7-.9-11.5-1.4-17.2-.1-1.7.8-2.2 2.3-2.2s1.9.7 2 2c.4 5.7.9 11.3 1.3 16.8z"/><path d="m430.3 155.7c2.5-1.1 5-2.2 7.4-3.6 2.3-1.4 4-1.4 5.2 1.2 0 1.4-1.2 1.8-2.2 2.3-9.9 5-19.8 10.1-29.8 15.1-1.3.7-2.7 1.9-3.7-.4-.8-1.8-.3-2.7 1.5-3.5 7.2-3.6 14.4-7.4 21.6-11.1z"/><path d="m420 197.4c-1.8.2-1.9-1.2-2.3-2.1-.4-1.2.2-1.8 1.3-2.2 2.8-.8 5.6-1.8 8.4-2.7l23.8-7.7c1.5-.5 2.9-1.4 3.7 1s-.6 2.5-2.2 3.1c-10.5 3.4-20.9 6.8-31.4 10.2z"/><path d="m449.1 168.5c0 1.4-.8 1.7-1.6 2-5.1 2.1-10.2 4.2-15.2 6.3-1.5.6-2.4.4-3-1.1-.7-1.5-.2-2.4 1.2-3 5.2-2.1 10.4-4.3 15.6-6.5 2.4-.8 2.4 1.4 3 2.3z"/><path d="m59.4 349.4c-1.2 0-1.4-1-1.7-1.7s-.7-1.6.2-2.2c.7-.5 1.5-.8 2.2-1.2 9-4.8 18.1-9.7 27.2-14.5 1.7-.8 3.7-2.5 5.2.6.6 1.2.7 2.1-.7 2.7l-31.4 15.8c-.3.2-.7.3-1 .5z"/><path d="m77.3 378.1c-1.3-.1-1.6-1.2-2.1-1.9-1.1-1.4.2-2 1.1-2.6 7.1-5.2 14.1-10.3 21.2-15.5 2-1.5 4-3.1 6-4.6 1.3-1 2.5-.8 3.6.5s.4 2.2-.7 3.1l-27.8 20.2c-.5.2-1 .5-1.3.8z"/><path d="m63.5 324.6c2.5 0 5.8-4 7.5 1.3-5.5 3.7-11.9 5.3-17.8 8-2.3 1.1-2.2-1.4-3.2-2.3.9-3.6 4.2-3.3 6.8-4.2z"/><path d="m87.6 391.2c-1.2-.2-1.7-1.1-2.2-1.9-.6-.8-.1-1.6.6-2.1 4.4-3.8 8.8-7.5 13.2-11.3 1.2-1 2-.5 2.8.5s1.6 1.7.3 2.8c-4.5 3.8-9 7.7-13.6 11.5-.4.1-.8.3-1.1.5z"/><path d="m82.4 350.3c1.1.2 1.5 1.2 2 2 .5.6.3 1.5-.3 1.9-.1.1-.2.1-.3.2-5 3.1-10.1 6.1-15.1 9.2-1.4.8-2-.1-2.7-1.1-.6-1-1-1.8.2-2.5 5.1-3.2 10.3-6.3 15.5-9.4.2-.2.5-.2.7-.3z"/><path d="m431 136.3c1.8-.2 2.2.8 2.8 1.6.8 1.1.3 1.8-.7 2.4l-15.1 9.2c-.6.5-1.4.4-1.9-.1-.1-.1-.2-.2-.2-.3-.5-.8-1.6-2-.7-2.6 5.3-3.6 10.8-7 15.8-10.2z"/><path d="m351.7 414.9c1.2.2 2.3 1 2.9 2.1 2.8 4.5 5.6 9.1 8.5 13.7.8 1.3.8 2.2-.6 3.1-1.5.9-2.2.7-3.1-.6-3.3-5.1-6.1-10.4-9.7-15.3-1.7-2.2 2-1.4 2-3z"/><path d="m149.3 417.7c-.1.3-.3.8-.6 1.2-2.7 4.6-5.5 9.2-8.3 13.8-.8 1.4-1.6 2.1-3.4 1-1.9-1.1-1.1-2.2-.4-3.5 2.7-4.6 5.4-9.2 8.1-13.9.5-.9 1-1.9 2.2-1.2 1 .6 2.3.9 2.4 2.6z"/><path d="m92.3 171.1c-1.1.3-2.2.3-3.3-.1-9.6-5-19.3-10-28.9-15.1-1.4-.8-3.9-1-2.4-3.8 1.4-2.6 2.9-.7 4.2-.1 9.5 4.7 18.8 9.6 28.4 14.2 2.4 1.3 3.2 2.6 2 4.9z"/><path d="m84.7 147.3c-.8 1.2-1 3.5-3.2 2.2-5.1-3-10.1-6.1-15.1-9.2-.9-.4-1.3-1.6-.9-2.5.1-.1.2-.3.3-.4.4-.9 1.4-1.3 2.3-.9.1 0 .2.1.3.1 5.3 3.2 10.5 6.4 15.7 9.7.1.2.3.6.6 1z"/><path d="m70.5 175.4c-.8 2-2.2 2-4 1.2-3.9-1.7-8-3.2-12-4.7-1.1-.6-2.3-1.1-3.4-1.7s-.8-1.6-.4-2.5.8-1.9 2.1-1.4c5.7 2.4 11.5 4.8 17.1 7.3.5.1.5 1.2.6 1.8z"/><path d="m53.7 252.6h-16.9c-1.6 0-3.2.2-3.1-2.2 0-2.5 1.7-2.1 3.2-2.1h33.8c1.4 0 2.9-.2 2.9 2 .1 2.4-1.4 2.4-3 2.4-5.6-.1-11.2-.1-16.9-.1z"/><path d="m46.7 318.3c-1.4.2-1.6-.8-1.9-1.8-.4-.9 0-2 1-2.5.1-.1.3-.1.5-.1 2.2-.7 4.3-1.4 6.5-2.1 8.5-2.7 17-5.5 25.5-8.2 1.3-.4 2.8-1.6 3.8.8 1 2.6-.9 2.8-2.5 3.3l-30.7 9.9z"/><path d="m39.5 285.7c-1.3.2-2.2-.1-2.4-1.6-.2-1.4-.1-2.5 1.7-2.8 11.4-1.8 22.9-3.7 34.3-5.5 1.6-.3 2.3.3 2.5 2 .2 2-1.1 2.3-2.5 2.5-8.1 1.3-16.2 2.5-24.3 3.8-3.2.5-6.3 1.1-9.3 1.6z"/><path d="m42.6 302.1c-1.8.3-2.2-.9-2.5-2.2-.4-1.6.8-1.9 1.9-2.2 5.3-1.3 10.7-2.5 16.1-3.8 1.2-.3 2.2-.5 2.6 1.1.3 1.3.6 2.6-1.2 3-5.6 1.4-11.3 2.7-16.9 4.1z"/><path d="m44.9 236.5c-2-1-4.2-.4-6.2-.8-1.6-.3-4.1.5-3.8-2.5.2-2.8 2.4-1.8 3.9-1.8 4.6.3 9.3.7 13.9 1 4.1.2 4.1 2.1 2.2 4.9-3.3-.9-6.6-.8-10-.8z"/><path d="m40.6 268.8c-1.6-1-5.1 2.3-5.5-1.6-.4-4.3 3.6-2.3 5.6-2.6 4-.7 8.1-.8 12.2-1 1.4-.1 2.9-.2 3.1 1.9.2 2.2-1.2 2.5-2.9 2.5-4.1.1-8.1.4-12.5.8z"/><path d="m39.7 214.7c11.2 1.7 22.3 3.5 33.5 5.2 1.7.3 2.4 1 2.2 2.8s-1.4 1.8-2.7 1.6c-11.2-1.8-22.3-3.7-33.5-5.4-1.7-.3-2.6-.7-2.2-2.7.3-1.7 1.3-1.9 2.7-1.5z"/><path d="m47.3 182.1c.4.1 1.2.4 2.1.6 9.8 3.2 19.6 6.3 29.3 9.6 1.5.5 4.1.2 3.3 3.2s-2.9 1.5-4.4 1c-10.2-3.3-20.4-6.6-30.6-9.9-1.4-.5-2.7-1-2.2-2.9.3-1.2.9-1.8 2.5-1.6z"/><path d="m58.4 206.4c-5.7-1.3-11.2-2.6-16.7-3.9-1.4-.3-1.9-1-1.5-2.4s1.1-2.2 2.7-1.8c5.5 1.3 11 2.7 16.4 4 1.7.4 1.8 1.5 1.4 2.9s-1.3 1.7-2.3 1.2z"/></g></svg>