<svg enable-background="new 0 0 300 300" viewBox="0 0 300 300" xmlns="http://www.w3.org/2000/svg" xmlns:xlink="http://www.w3.org/1999/xlink"><linearGradient id="a" gradientUnits="userSpaceOnUse" x1="47.5401" x2="252.4599" y1="-27.4498" y2="327.4498"><stop offset="0" stop-color="#bfdd99"/><stop offset=".45" stop-color="#85cd98"/><stop offset=".81" stop-color="#5bc198"/><stop offset="1" stop-color="#4bbd98"/></linearGradient><path d="m0 0h300v300h-300z" fill="url(#a)"/><g fill="#fff"><path d="m149.9 132.9 29.7-19.3-57.7-40.6 18 56.2c1.4 4.7 6 6.3 10 3.7z"/><path d="m126.4 148.2c4.2-3 6.1-8.2 4.7-13.2l-22.8-71.5-12.2-8.6c-7.2-5-13.1-2-13.1 6.8v114.4z"/><path d="m225.5 145.8-36.9-25.9-35.5 23c-4.2 3-6.1 8.2-4.7 13.2l16.2 50.8 60.9-42.7c7.2-5.1 7.2-13.4 0-18.4z"/><path d="m139.6 161.7c-1.5-4.6-6-6.2-10.1-3.6l-46.5 30.1v60c0 8.8 5.9 11.8 13.1 6.8l59.9-42.1z"/></g></svg>