<?xml version="1.0" encoding="UTF-8"?><svg id="Layer_2" xmlns="http://www.w3.org/2000/svg" xmlns:xlink="http://www.w3.org/1999/xlink" viewBox="0 0 500 500"><defs><style>.cls-1{fill:url(#linear-gradient);}.cls-2{fill:#030328;}.cls-3{fill:#fffdf8;}</style><linearGradient id="linear-gradient" x1="79.25" y1="-45.75" x2="420.75" y2="545.75" gradientUnits="userSpaceOnUse"><stop offset="0" stop-color="#030328" stop-opacity=".25"/><stop offset=".32" stop-color="#030328"/><stop offset=".42" stop-color="#03052b"/><stop offset=".53" stop-color="#050c36"/><stop offset=".62" stop-color="#091749"/><stop offset=".72" stop-color="#0d2764"/><stop offset=".82" stop-color="#133c86"/><stop offset=".91" stop-color="#1b55b0"/><stop offset="1" stop-color="#2472e0"/></linearGradient></defs><rect class="cls-2" y="0" width="500" height="500"/><rect class="cls-1" y="0" width="500" height="500"/><path class="cls-3" d="M244.63,214.89l-24.53-76.82,78.94,55.45-40.62,26.32c-5.57,3.6-11.76,1.39-13.79-4.95ZM226.22,240.68c5.56-3.6,8.47-11.72,6.44-18.04l-31.19-97.63-16.66-11.69c-9.81-6.89-17.84-2.72-17.84,9.28v156.46l59.24-38.38ZM361.64,237.47l-50.44-35.42-48.44,31.38c-5.56,3.6-8.47,11.72-6.44,18.04l22.18,69.45,83.17-58.39c9.8-6.89,9.8-18.18-.02-25.06ZM244.35,259.21c-2.02-6.31-8.24-8.53-13.78-4.93l-63.59,41.21v81.91c0,11.99,8.03,16.17,17.85,9.28l81.88-57.49-22.36-69.98Z"/></svg>