<?xml version="1.0" encoding="UTF-8"?><svg id="Layer_1" xmlns="http://www.w3.org/2000/svg" xmlns:xlink="http://www.w3.org/1999/xlink" viewBox="0 0 500 500"><defs><style>.cls-1{fill:url(#linear-gradient);}.cls-1,.cls-2{stroke-width:0px;}.cls-2{fill:#2d2e2f;}</style><linearGradient id="linear-gradient" x1="115.84" y1="83.26" x2="273.5" y2="356.34" gradientUnits="userSpaceOnUse"><stop offset=".09" stop-color="#2d7dd2"/><stop offset=".19" stop-color="#348ac3"/><stop offset=".42" stop-color="#41a2a9"/><stop offset=".63" stop-color="#4ab199"/><stop offset=".79" stop-color="#4db794"/></linearGradient></defs><rect class="cls-2" width="500" height="500"/><path class="cls-1" d="m229.96,204.85l-31.54-98.77,101.49,71.29-52.22,33.83c-7.16,4.63-15.13,1.78-17.73-6.36Zm-23.67,33.17c7.15-4.62,10.89-15.07,8.29-23.19l-40.1-125.53-21.42-15.03c-12.61-8.86-22.94-3.5-22.94,11.93v201.16l76.16-49.34Zm174.11-4.13l-64.85-45.54-62.28,40.35c-7.15,4.62-10.89,15.07-8.29,23.19l28.52,89.3,106.93-75.07c12.6-8.85,12.6-23.37-.03-32.22Zm-150.81,27.96c-2.59-8.11-10.6-10.96-17.72-6.34l-81.75,52.99v105.31c0,15.41,10.33,20.79,22.95,11.93l105.27-73.91-28.75-89.97Z"/></svg>