<?xml version="1.0" encoding="UTF-8"?>
<svg id="Layer_2" xmlns="http://www.w3.org/2000/svg" xmlns:xlink="http://www.w3.org/1999/xlink" version="1.1" viewBox="0 0 500 500">
  <!-- Generator: Adobe Illustrator 29.8.1, SVG Export Plug-In . SVG Version: 2.1.1 Build 2)  -->
  <defs>
    <style>
      .st0 {
        fill: url(#linear-gradient);
      }

      .st1 {
        fill: #fffdf8;
      }
    </style>
    <linearGradient id="linear-gradient" x1="0" y1="502" x2="500" y2="2" gradientTransform="translate(0 502) scale(1 -1)" gradientUnits="userSpaceOnUse">
      <stop offset="0" stop-color="#41bb94"/>
      <stop offset=".6" stop-color="#347bd5"/>
      <stop offset="1" stop-color="#1291d0"/>
    </linearGradient>
  </defs>
  <rect class="st0" width="500" height="500"/>
  <path class="st1" d="M230,204.9l-31.5-98.8,101.5,71.3-52.2,33.8c-7.2,4.6-15.1,1.8-17.7-6.4h0ZM206.3,238c7.1-4.6,10.9-15.1,8.3-23.2l-40.1-125.5-21.4-15c-12.6-8.9-22.9-3.5-22.9,11.9v201.2l76.2-49.3h0ZM380.4,233.9l-64.9-45.5-62.3,40.4c-7.1,4.6-10.9,15.1-8.3,23.2l28.5,89.3,106.9-75.1c12.6-8.9,12.6-23.4,0-32.2h0ZM229.6,261.9c-2.6-8.1-10.6-11-17.7-6.3l-81.8,53v105.3c0,15.4,10.3,20.8,22.9,11.9l105.3-73.9-28.8-90h0Z"/>
</svg>