<svg viewBox="0 0 300 300" xmlns="http://www.w3.org/2000/svg" xmlns:xlink="http://www.w3.org/1999/xlink"><linearGradient id="a" gradientTransform="translate(0 -1628)" gradientUnits="userSpaceOnUse" x1="139.49" x2="183.62" y1="1685.57" y2="1824.58"><stop offset="0" stop-color="#bfdd99"/><stop offset="1" stop-color="#4bbd98"/></linearGradient><linearGradient id="b" x1="81.8" x2="125.93" xlink:href="#a" y1="1703.89" y2="1842.9"/><linearGradient id="c" x1="157.06" x2="201.19" xlink:href="#a" y1="1679.99" y2="1819"/><linearGradient id="d" x1="71.13" x2="115.26" xlink:href="#a" y1="1707.27" y2="1846.28"/><path d="m0 0h300v300h-300z" fill="#2e2e2f"/><path d="m149.93 132.69 29.74-19.26-57.78-40.57 18 56.23c1.43 4.61 5.97 6.23 10.04 3.6z" fill="url(#a)"/><path d="m126.36 148a12.22 12.22 0 0 0 4.72-13.2l-22.83-71.47-12.19-8.56c-7.18-5-13.06-2-13.06 6.79v114.44z" fill="url(#b)"/><path d="m225.49 145.6-36.92-25.93-35.46 23a12.22 12.22 0 0 0 -4.72 13.2l16.24 50.84 60.87-42.71c7.18-5.1 7.18-13.36-.01-18.4z" fill="url(#c)"/><path d="m139.63 161.52c-1.48-4.62-6-6.24-10.09-3.61l-46.54 30.15v60c0 8.78 5.88 11.84 13.07 6.79l59.93-42.11z" fill="url(#d)"/></svg>