<?xml version="1.0" encoding="utf-8"?>
<!-- Generator: Adobe Illustrator 22.1.0, SVG Export Plug-In . SVG Version: 6.00 Build 0)  -->
<svg version="1.1" id="Layer_1" xmlns="http://www.w3.org/2000/svg" xmlns:xlink="http://www.w3.org/1999/xlink" x="0px" y="0px"
	 viewBox="0 0 300 300" style="enable-background:new 0 0 300 300;" xml:space="preserve">
<style type="text/css">
	.st0{fill:#FFFFFF;}
</style>
<path class="st0" d="M149.9,132.9l29.7-19.3L121.9,73l18,56.2C141.3,133.9,145.9,135.5,149.9,132.9z"/>
<path class="st0" d="M126.4,148.2c4.2-3,6.1-8.2,4.7-13.2l-22.8-71.5l-12.2-8.6c-7.2-5-13.1-2-13.1,6.8v114.4L126.4,148.2z"/>
<path class="st0" d="M225.5,145.8l-36.9-25.9l-35.5,23c-4.2,3-6.1,8.2-4.7,13.2l16.2,50.8l60.9-42.7
	C232.7,159.1,232.7,150.8,225.5,145.8z"/>
<path class="st0" d="M139.6,161.7c-1.5-4.6-6-6.2-10.1-3.6L83,188.2v60c0,8.8,5.9,11.8,13.1,6.8l59.9-42.1L139.6,161.7z"/>
</svg>
