<svg xmlns="http://www.w3.org/2000/svg" xmlns:xlink="http://www.w3.org/1999/xlink" viewBox="0 0 290 10.01"><defs><style>.cls-1{fill:url(#linear-gradient);}</style><linearGradient id="linear-gradient" x1="71.51" y1="-69.58" x2="219.21" y2="78.12" gradientUnits="userSpaceOnUse"><stop offset="0" stop-color="#bfdc98"/><stop offset="0.25" stop-color="#48bc97"/></linearGradient></defs><g id="Layer_2" data-name="Layer 2"><g id="Layer_1-2" data-name="Layer 1"><path class="cls-1" d="M279.43,7.53c2.91-1.78,7.42-1,10.57-2.08-1.76.41-3.32-.19-5-.16-1.23,0-3.06.47-3.3-.49a.33.33,0,0,1,0-.22l.19,0-.17,0a.26.26,0,0,1,.09-.14l-.79,0a2.14,2.14,0,0,0-1-.07C217.29.11,154.12.64,91,.56,82.64.3,74.32.09,66,.38,54.75,0,43.5-.15,32.26.17a34.32,34.32,0,0,0-6.49.11c-7.63-.1-15.14.38-22.64.91-3.55.25-3.92.74-1.91,2.27,2.65,2,7.1,2.18,11.21,2.65a9.1,9.1,0,0,0,1.28.13l6.22.64,11.84.79a9.69,9.69,0,0,0,2.08.17c6.3.5,12.65.7,19,.93,10.14.58,20.28,1,30.47,1,3.85.07,7.72.47,11.53,0l81.9.23c29.3,0,58.61.07,87.9-.08,7.54,0,15.33.52,23.17-.9-2.23-.38-4.07.12-5.88-.54a37.17,37.17,0,0,0,7.66-.73Z"/></g></g></svg>