<svg xmlns="http://www.w3.org/2000/svg" viewBox="0 0 72.5 9.62"><defs><style>.cls-1{fill:#48bc97;}</style></defs><g id="Layer_2" data-name="Layer 2"><g id="Layer_1-2" data-name="Layer 1"><path class="cls-1" d="M61.93,6.82c2.91-2,7.42-1.07,10.57-2.35-1.76.47-3.32-.21-5-.18-1.23,0-3.06.53-3.3-.56a.39.39,0,0,1,0-.24l.19,0-.17-.06a.32.32,0,0,1,.09-.16l-.79-.06a1.9,1.9,0,0,0-1-.07C41.73,1.59,20.88.62,0,0V9.62s31.43,0,47.14-.11c7.54,0,15.33.58,23.17-1-2.23-.43-4.07.14-5.88-.61a33,33,0,0,0,7.66-.82Z"/></g></g></svg>