<svg xmlns="http://www.w3.org/2000/svg" xmlns:xlink="http://www.w3.org/1999/xlink" viewBox="0 0 72.5 9.94"><defs><style>.cls-1{fill:url(#linear-gradient);}</style><linearGradient id="linear-gradient" x1="18.42" y1="-16.49" x2="58.67" y2="23.76" gradientUnits="userSpaceOnUse"><stop offset="0" stop-color="#bfdc98"/><stop offset="0.26" stop-color="#92d098"/><stop offset="0.52" stop-color="#6ac597"/><stop offset="0.73" stop-color="#51be97"/><stop offset="0.86" stop-color="#48bc97"/></linearGradient></defs><g id="Layer_2" data-name="Layer 2"><g id="Layer_1-2" data-name="Layer 1"><path class="cls-1" d="M72.5.31c-2.16,0-4.33,0-6.49.07C54.75,0,43.5-.15,32.26.17a34.32,34.32,0,0,0-6.49.11c-7.63-.1-15.14.38-22.64.91-3.55.25-3.92.74-1.91,2.27,2.65,2,7.1,2.18,11.21,2.65a9.1,9.1,0,0,0,1.28.13l6.22.64,11.84.79a9.69,9.69,0,0,0,2.08.17c6.3.5,12.65.7,19,.93,6.55.37,19.66,1.17,19.66,1.17Z"/></g></g></svg>