<?xml version="1.0" encoding="iso-8859-1"?>
<!-- Generator: Adobe Illustrator 19.1.0, SVG Export Plug-In . SVG Version: 6.00 Build 0)  -->
<svg version="1.1" id="Layer_6" xmlns="http://www.w3.org/2000/svg" xmlns:xlink="http://www.w3.org/1999/xlink" x="0px" y="0px"
	 viewBox="0 0 307 60" style="enable-background:new 0 0 307 60;" xml:space="preserve">
<g>
	<g>
		<polygon style="fill:#686868;" points="106.016,0 97.501,35.431 91.066,12.747 71.978,12.708 66.214,35.973 56.826,0 39,0 
			52.755,60 74.114,60 81.864,35.54 88.757,60 110.191,60 123.947,0 		"/>
	</g>
	<g>
		<polygon style="fill:#686868;" points="156.217,0 156.217,60 195.141,60 195.141,42.5 174.09,42.5 174.09,0 		"/>
	</g>
	<g>
		<polygon style="fill:#686868;" points="204.182,0 204.182,60 243.141,60 243.141,42.5 222.055,42.5 222.055,0 		"/>
	</g>
	<g>
		<polygon style="fill:#686868;" points="133.136,0 129.193,19.387 129.193,60 147.066,60 147.066,0 		"/>
	</g>
</g>
<g>
	
		<linearGradient id="SVGID_1_" gradientUnits="userSpaceOnUse" x1="279.637" y1="-247.6378" x2="292.3099" y2="-291.5058" gradientTransform="matrix(1 0 0 -1 0 -244.942)">
		<stop  offset="0" style="stop-color:#BFDC98"/>
		<stop  offset="1" style="stop-color:#48BC97"/>
	</linearGradient>
	<path style="fill:url(#SVGID_1_);" d="M282.168,23.95l8.472-5.472L274.485,7.17l5.078,15.849
		C279.945,24.21,281.117,24.629,282.168,23.95z"/>
	
		<linearGradient id="SVGID_2_" gradientUnits="userSpaceOnUse" x1="263.4935" y1="-252.3015" x2="276.1664" y2="-296.1694" gradientTransform="matrix(1 0 0 -1 0 -244.942)">
		<stop  offset="0" style="stop-color:#BFDC98"/>
		<stop  offset="1" style="stop-color:#48BC97"/>
	</linearGradient>
	<path style="fill:url(#SVGID_2_);" d="M276.085,27.88c1.051-0.679,1.598-2.209,1.217-3.4l-6.335-19.773l-5.304-3.713
		C264.198-0.031,263,0.592,263,2.379v33.951L276.085,27.88z"/>
	
		<linearGradient id="SVGID_3_" gradientUnits="userSpaceOnUse" x1="285.3412" y1="-245.99" x2="298.0141" y2="-289.8579" gradientTransform="matrix(1 0 0 -1 0 -244.942)">
		<stop  offset="0" style="stop-color:#BFDC98"/>
		<stop  offset="1" style="stop-color:#48BC97"/>
	</linearGradient>
	<path style="fill:url(#SVGID_3_);" d="M304.438,28.136l-11.498-8.049l-9.95,6.427c-1.051,0.679-1.598,2.209-1.217,3.4l4.662,14.551
		l18.003-12.602C305.902,30.839,305.902,29.162,304.438,28.136z"/>
	
		<linearGradient id="SVGID_4_" gradientUnits="userSpaceOnUse" x1="260.9061" y1="-253.049" x2="273.5791" y2="-296.9169" gradientTransform="matrix(1 0 0 -1 0 -244.942)">
		<stop  offset="0" style="stop-color:#BFDC98"/>
		<stop  offset="1" style="stop-color:#48BC97"/>
	</linearGradient>
	<path style="fill:url(#SVGID_4_);" d="M279.511,31.376c-0.382-1.191-1.554-1.611-2.605-0.932L263,39.426v18.195
		c0,1.787,1.198,2.411,2.662,1.386l18.542-12.98L279.511,31.376z"/>
</g>
</svg>
