<svg version="1.1" xmlns="http://www.w3.org/2000/svg" xmlns:xlink="http://www.w3.org/1999/xlink" x="0px" y="0px" widht="88" height="20"
	 viewBox="0 0 88 20" style="enable-background:new 0 0 88 20;" xml:space="preserve">
<g>
	<g>
		<polygon style="fill:#F2F2F2;" points="21.787,0 19.019,11.519 16.927,4.144 10.721,4.131 8.847,11.695 5.795,0 0,0 4.472,20
			11.415,20 13.935,11.554 16.176,20 23.144,20 27.616,0 		"/>
	</g>
	<g>
		<polygon style="fill:#F2F2F2;" points="38.08,0 38.08,20 51,20 51,14 43.89,14 43.89,0 		"/>
	</g>
	<g>
		<polygon style="fill:#F2F2F2;" points="54,0 54,20 67,20 67,14 59.811,14 59.811,0 		"/>
	</g>
	<g>
		<polygon style="fill:#F2F2F2;" points="30.471,0 29.189,6.303 29.189,20 35,20 35,0 		"/>
	</g>
</g>
<g>
	<linearGradient id="logo_20_gradient_1_" gradientUnits="userSpaceOnUse" x1="77.5198" y1="1.1324" x2="82.7698" y2="11.4657">
		<stop  offset="0" style="stop-color:#BFDC98"/>
		<stop  offset="1" style="stop-color:#48BC97"/>
	</linearGradient>
	<path style="fill:url(#logo_20_gradient_1_);" d="M79.453,8.377l3.239-2.092l-6.15-4.305l1.938,6.049C78.623,8.474,79.061,8.631,79.453,8.377z
		"/>
	<linearGradient id="logo_20_gradient_2_" gradientUnits="userSpaceOnUse" x1="78.1076" y1="0.8338" x2="83.3576" y2="11.1671">
		<stop  offset="0" style="stop-color:#BFDC98"/>
		<stop  offset="1" style="stop-color:#48BC97"/>
	</linearGradient>
	<path style="fill:url(#logo_20_gradient_2_);" d="M86.741,9.119l-3.19-2.233L79.76,9.334c-0.392,0.253-0.597,0.825-0.454,1.269l1.435,4.478
		l6-4.2C87.433,10.397,87.433,9.603,86.741,9.119z"/>
	<linearGradient id="logo_20_gradient_3_" gradientUnits="userSpaceOnUse" x1="72.5233" y1="3.671" x2="77.7733" y2="14.0043">
		<stop  offset="0" style="stop-color:#BFDC98"/>
		<stop  offset="1" style="stop-color:#48BC97"/>
	</linearGradient>
	<path style="fill:url(#logo_20_gradient_3_);" d="M77.182,9.844c0.392-0.253,0.597-0.825,0.454-1.269L75.229,1.06l-0.97-0.679
		C73.567-0.103,73,0.192,73,1.037v11.508L77.182,9.844z"/>
	<linearGradient id="logo_20_gradient_4_" gradientUnits="userSpaceOnUse" x1="70.4125" y1="4.7434" x2="75.6625" y2="15.0767">
		<stop  offset="0" style="stop-color:#BFDC98"/>
		<stop  offset="1" style="stop-color:#48BC97"/>
	</linearGradient>
	<path style="fill:url(#logo_20_gradient_4_);" d="M78.461,11.149c-0.142-0.445-0.58-0.601-0.972-0.348L73,13.701v5.262
		c0,0.845,0.567,1.14,1.259,0.656l5.649-3.954L78.461,11.149z"/>
</g>
</svg>
