<svg xmlns="http://www.w3.org/2000/svg" xmlns:xlink="http://www.w3.org/1999/xlink" viewBox="0 0 86.51 120"><defs><linearGradient id="a" x1="481.01" y1="-133.63" x2="506.79" y2="-44.41" gradientTransform="translate(0 138.1)" gradientUnits="userSpaceOnUse"><stop offset="0" stop-color="#bfdc98"/><stop offset="1" stop-color="#48bc97"/></linearGradient><linearGradient id="b" x1="448.18" y1="-124.15" x2="473.95" y2="-34.92" xlink:href="#a"/><linearGradient id="c" x1="492.61" y1="-136.98" x2="518.39" y2="-47.76" xlink:href="#a"/><linearGradient id="d" x1="442.91" y1="-122.62" x2="468.69" y2="-33.4" xlink:href="#a"/></defs><title>will_arrow</title><path d="M486.16,47.7l17.23-11.13-32.86-23L480.86,45.8A3.37,3.37,0,0,0,486.16,47.7Z" transform="translate(-447.17 0)" style="fill:url(#a)"/><path d="M473.79,55.69a6.39,6.39,0,0,0,2.47-6.92L463.37,8.56,452.59,1c-3-2.09-5.41-.82-5.41,2.82V72.88Z" transform="translate(-447.17 0)" style="fill:url(#b)"/><path d="M531.45,56.21L508.07,39.84,487.83,52.91a6.39,6.39,0,0,0-2.47,6.92l9.48,29.6,36.62-25.63C534.43,61.71,534.43,58.29,531.45,56.21Z" transform="translate(-447.17 0)" style="fill:url(#c)"/><path d="M480.75,62.8a3.37,3.37,0,0,0-5.3-1.9L447.17,79.17v37c0,3.64,2.44,4.9,5.41,2.82L490.3,92.6Z" transform="translate(-447.17 0)" style="fill:url(#d)"/></svg>