<?xml version="1.0" encoding="iso-8859-1"?>
<!-- Generator: Adobe Illustrator 19.1.0, SVG Export Plug-In . SVG Version: 6.00 Build 0)  -->
<svg version="1.1" id="Layer_6" xmlns="http://www.w3.org/2000/svg" xmlns:xlink="http://www.w3.org/1999/xlink" x="0px" y="0px"
	 viewBox="0 0 534.686 120" style="enable-background:new 0 0 534.686 120;" xml:space="preserve">
<g>
	<g>
		<g>
			<polygon style="fill:#686868;" points="134.033,0 117.002,70.862 104.132,25.494 65.957,25.416 54.428,71.946 35.652,0 0,0 
				27.511,120 70.227,120 85.727,71.081 99.513,120 142.383,120 169.893,0 			"/>
		</g>
		<g>
			<polygon style="fill:#686868;" points="234.434,0 234.434,120 312.282,120 312.282,85 270.18,85 270.18,0 			"/>
		</g>
		<g>
			<polygon style="fill:#686868;" points="330.364,0 330.364,120 408.282,120 408.282,85 366.11,85 366.11,0 			"/>
		</g>
		<g>
			<polygon style="fill:#686868;" points="188.273,0 180.386,38.774 180.386,120 216.132,120 216.132,0 			"/>
		</g>
	</g>
	<g>
		
			<linearGradient id="SVGID_1_" gradientUnits="userSpaceOnUse" x1="481.0097" y1="177.6307" x2="506.7852" y2="88.4078" gradientTransform="matrix(1 0 0 -1 0 182.0968)">
			<stop  offset="0" style="stop-color:#BFDC98"/>
			<stop  offset="1" style="stop-color:#48BC97"/>
		</linearGradient>
		<path style="fill:url(#SVGID_1_);" d="M486.158,47.696l17.232-11.13l-32.858-23L480.859,45.8
			C481.636,48.224,484.02,49.076,486.158,47.696z"/>
		
			<linearGradient id="SVGID_2_" gradientUnits="userSpaceOnUse" x1="448.1755" y1="168.1452" x2="473.951" y2="78.9224" gradientTransform="matrix(1 0 0 -1 0 182.0968)">
			<stop  offset="0" style="stop-color:#BFDC98"/>
			<stop  offset="1" style="stop-color:#48BC97"/>
		</linearGradient>
		<path style="fill:url(#SVGID_2_);" d="M473.785,55.688c2.137-1.381,3.251-4.493,2.474-6.916L463.374,8.555l-10.788-7.552
			c-2.978-2.085-5.414-0.816-5.414,2.819v69.054L473.785,55.688z"/>
		
			<linearGradient id="SVGID_3_" gradientUnits="userSpaceOnUse" x1="492.6114" y1="180.9823" x2="518.3869" y2="91.7594" gradientTransform="matrix(1 0 0 -1 0 182.0968)">
			<stop  offset="0" style="stop-color:#BFDC98"/>
			<stop  offset="1" style="stop-color:#48BC97"/>
		</linearGradient>
		<path style="fill:url(#SVGID_3_);" d="M531.453,56.21l-23.386-16.37l-20.238,13.071c-2.137,1.381-3.251,4.493-2.474,6.916
			l9.482,29.595l36.617-25.632C534.43,61.706,534.43,58.295,531.453,56.21z"/>
		
			<linearGradient id="SVGID_4_" gradientUnits="userSpaceOnUse" x1="442.9131" y1="166.6249" x2="468.6885" y2="77.4021" gradientTransform="matrix(1 0 0 -1 0 182.0968)">
			<stop  offset="0" style="stop-color:#BFDC98"/>
			<stop  offset="1" style="stop-color:#48BC97"/>
		</linearGradient>
		<path style="fill:url(#SVGID_4_);" d="M480.753,62.798c-0.777-2.423-3.16-3.276-5.298-1.896l-28.283,18.268v37.006
			c0,3.635,2.437,4.903,5.414,2.819L490.3,92.597L480.753,62.798z"/>
	</g>
</g>
</svg>
