<?xml version="1.0" encoding="iso-8859-1"?>
<!-- Generator: Adobe Illustrator 19.1.0, SVG Export Plug-In . SVG Version: 6.00 Build 0)  -->
<svg version="1.1" id="Layer_6" xmlns="http://www.w3.org/2000/svg" xmlns:xlink="http://www.w3.org/1999/xlink" x="0px" y="0px" width="267.5" height="60"
	 viewBox="0 0 267.5 60" style="enable-background:new 0 0 267.5 60;" xml:space="preserve">
<g>
	<g>
		<polygon style="fill:#686868;" points="67.016,0 58.501,35.431 52.066,12.747 32.978,12.708 27.214,35.973 17.826,0 0,0
			13.755,60 35.114,60 42.864,35.54 49.757,60 71.191,60 84.947,0 		"/>
	</g>
	<g>
		<polygon style="fill:#686868;" points="117.217,0 117.217,60 156.141,60 156.141,42.5 135.09,42.5 135.09,0 		"/>
	</g>
	<g>
		<polygon style="fill:#686868;" points="165.182,0 165.182,60 204.141,60 204.141,42.5 183.055,42.5 183.055,0 		"/>
	</g>
	<g>
		<polygon style="fill:#686868;" points="94.136,0 90.193,19.387 90.193,60 108.066,60 108.066,0 		"/>
	</g>
</g>
<g>

		<linearGradient id="SVGID_1_" gradientUnits="userSpaceOnUse" x1="240.637" y1="-247.6378" x2="253.3099" y2="-291.5058" gradientTransform="matrix(1 0 0 -1 0 -244.942)">
		<stop  offset="0" style="stop-color:#BFDC98"/>
		<stop  offset="1" style="stop-color:#48BC97"/>
	</linearGradient>
	<path style="fill:url(#SVGID_1_);" d="M243.168,23.95l8.472-5.472L235.485,7.17l5.078,15.849
		C240.945,24.21,242.117,24.629,243.168,23.95z"/>

		<linearGradient id="SVGID_2_" gradientUnits="userSpaceOnUse" x1="224.4935" y1="-252.3015" x2="237.1665" y2="-296.1694" gradientTransform="matrix(1 0 0 -1 0 -244.942)">
		<stop  offset="0" style="stop-color:#BFDC98"/>
		<stop  offset="1" style="stop-color:#48BC97"/>
	</linearGradient>
	<path style="fill:url(#SVGID_2_);" d="M237.085,27.88c1.051-0.679,1.598-2.209,1.217-3.4l-6.335-19.773l-5.304-3.713
		C225.198-0.031,224,0.592,224,2.379v33.951L237.085,27.88z"/>

		<linearGradient id="SVGID_3_" gradientUnits="userSpaceOnUse" x1="246.3411" y1="-245.99" x2="259.0141" y2="-289.8579" gradientTransform="matrix(1 0 0 -1 0 -244.942)">
		<stop  offset="0" style="stop-color:#BFDC98"/>
		<stop  offset="1" style="stop-color:#48BC97"/>
	</linearGradient>
	<path style="fill:url(#SVGID_3_);" d="M265.438,28.136l-11.498-8.049l-9.95,6.427c-1.051,0.679-1.598,2.209-1.217,3.4l4.662,14.551
		l18.003-12.602C266.902,30.839,266.902,29.162,265.438,28.136z"/>

		<linearGradient id="SVGID_4_" gradientUnits="userSpaceOnUse" x1="221.9061" y1="-253.049" x2="234.5791" y2="-296.9169" gradientTransform="matrix(1 0 0 -1 0 -244.942)">
		<stop  offset="0" style="stop-color:#BFDC98"/>
		<stop  offset="1" style="stop-color:#48BC97"/>
	</linearGradient>
	<path style="fill:url(#SVGID_4_);" d="M240.511,31.376c-0.382-1.191-1.554-1.611-2.605-0.932L224,39.426v18.195
		c0,1.787,1.198,2.411,2.662,1.386l18.542-12.98L240.511,31.376z"/>
</g>
</svg>
