<?xml version="1.0" encoding="UTF-8"?><svg id="Layer_1" xmlns="http://www.w3.org/2000/svg" viewBox="0 0 934 230"><defs><style>.cls-1{fill:#2d2e2f;}</style></defs><polygon class="cls-1" points="238.54 10 209.48 130.95 187.51 53.51 122.35 53.38 102.67 132.8 70.63 10 9.78 10 56.73 220 129.64 220 156.1 131.32 179.62 220 252.8 220 299.76 10 238.54 10"/><polygon class="cls-1" points="410.1 10 410.1 220 547.92 220 547.92 160.94 471.11 160.94 471.11 10 410.1 10"/><polygon class="cls-1" points="574.17 10 574.17 220 710.67 220 710.67 160.94 635.18 160.94 635.18 10 574.17 10"/><polygon class="cls-1" points="329.73 10 316.28 76.18 316.28 220 377.29 220 377.29 10 329.73 10"/><path class="cls-1" d="m833.96,89.52l-17.8-55.75,57.29,40.24-29.48,19.1c-4.04,2.62-8.54,1.01-10.01-3.59Zm-13.36,18.72c4.03-2.61,6.14-8.5,4.68-13.09l-22.63-70.85-12.09-8.48c-7.12-5-12.95-1.97-12.95,6.73v113.55l42.99-27.85Zm98.28-2.33l-36.61-25.7-35.15,22.77c-4.03,2.61-6.14,8.5-4.68,13.09l16.1,50.4,60.36-42.37c7.11-5,7.11-13.19-.02-18.19Zm-85.12,15.78c-1.46-4.58-5.98-6.19-10-3.58l-46.14,29.91v59.44c0,8.7,5.83,11.73,12.95,6.73l59.42-41.72-16.23-50.78Z"/></svg>