<svg enable-background="new 0 0 1690.4 400" viewBox="0 0 1690.4 400" xmlns="http://www.w3.org/2000/svg"><g fill="#fff"><path d="m423.3 6.8-53.5 222.4-40.4-142.4-119.8-.2-36.2 146-58.9-225.8h-111.9l86.3 386.2h134.1l48.6-163.1 43.3 163.1h134.6l86.3-386.2z"/><path d="m738.8 6.8v386.2h253.4v-108.6h-141.2v-277.6z"/><path d="m1040.5 6.8v386.2h251v-108.6h-138.8v-277.6z"/><path d="m591 6.8-24.8 121.7v264.5h112.2v-386.2z"/><path d="m1536.6 159.6 54.2-35.1-105.3-74 32.7 102.5c2.7 8.5 11 11.4 18.4 6.6z"/><path d="m1493.7 187.4c7.4-4.8 11.3-15.6 8.6-24.1l-41.6-130.3-22.2-15.6c-13.1-9.2-23.8-3.6-23.8 12.4v208.8z"/><path d="m1674.4 183.2-67.3-47.3-64.7 41.9c-7.4 4.8-11.3 15.6-8.6 24.1l29.6 92.7 111-77.9c13.1-9.3 13.1-24.3 0-33.5z"/><path d="m1517.9 212.2c-2.7-8.4-11-11.4-18.4-6.6l-84.9 55v109.3c0 16 10.7 21.6 23.8 12.4l109.3-76.7z"/></g></svg>