<svg id="Layer_1" data-name="Layer 1" xmlns="http://www.w3.org/2000/svg" xmlns:xlink="http://www.w3.org/1999/xlink" viewBox="0 0 1690.44 400"><defs><style>.cls-1{fill:#2e2e2f;}.cls-2{fill:url(#linear-gradient);}.cls-3{fill:url(#linear-gradient-2);}.cls-4{fill:url(#linear-gradient-3);}.cls-5{fill:url(#linear-gradient-4);}</style><linearGradient id="linear-gradient" x1="1517.59" y1="-848.67" x2="1598.05" y2="-1102.12" gradientTransform="matrix(1, 0, 0, -1, 0, -826)" gradientUnits="userSpaceOnUse"><stop offset="0" stop-color="#bfdd99"/><stop offset="1" stop-color="#4bbd98"/></linearGradient><linearGradient id="linear-gradient-2" x1="1412.42" y1="-882.06" x2="1492.88" y2="-1135.5" xlink:href="#linear-gradient"/><linearGradient id="linear-gradient-3" x1="1549.65" y1="-838.49" x2="1630.11" y2="-1091.94" xlink:href="#linear-gradient"/><linearGradient id="linear-gradient-4" x1="1392.98" y1="-888.23" x2="1473.44" y2="-1141.67" xlink:href="#linear-gradient"/></defs><title>1</title><polygon class="cls-1" points="423.27 6.79 369.82 229.21 329.43 86.8 209.6 86.56 173.4 232.62 114.47 6.79 2.57 6.79 88.92 392.98 223 392.98 271.65 229.9 314.92 392.98 449.49 392.98 535.84 6.79 423.27 6.79"/><polygon class="cls-1" points="738.76 6.79 738.76 392.98 992.21 392.98 992.21 284.37 850.96 284.37 850.96 6.79 738.76 6.79"/><polygon class="cls-1" points="1040.48 6.79 1040.48 392.98 1291.51 392.98 1291.51 284.37 1152.68 284.37 1152.68 6.79 1040.48 6.79"/><polygon class="cls-1" points="590.97 6.79 566.22 128.49 566.22 392.98 678.42 392.98 678.42 6.79 590.97 6.79"/><path class="cls-2" d="M1536.64,159.62l54.21-35.12-105.35-74,32.74,102.52C1520.94,161.47,1529.21,164.43,1536.64,159.62Z"/><path class="cls-3" d="M1493.67,187.45c7.42-4.8,11.3-15.64,8.6-24.07L1460.65,33.08l-22.23-15.6c-13.09-9.2-23.81-3.63-23.81,12.38V238.67Z"/><path class="cls-4" d="M1674.4,183.16l-67.32-47.27-64.65,41.88c-7.42,4.8-11.3,15.64-8.6,24.07l29.6,92.69,111-77.92C1687.51,207.42,1687.51,192.35,1674.4,183.16Z"/><path class="cls-5" d="M1517.86,212.18c-2.69-8.42-11-11.38-18.39-6.58l-84.86,55V369.91c0,16,10.72,21.58,23.82,12.38l109.27-76.72Z"/></svg>