<svg viewBox="0 0 1690.44 400" xmlns="http://www.w3.org/2000/svg" xmlns:xlink="http://www.w3.org/1999/xlink"><linearGradient id="a" gradientTransform="matrix(1 0 0 -1 0 -826)" gradientUnits="userSpaceOnUse" x1="1517.59" x2="1598.05" y1="-848.67" y2="-1102.12"><stop offset="0" stop-color="#bfdd99"/><stop offset="1" stop-color="#4bbd98"/></linearGradient><linearGradient id="b" x1="1412.42" x2="1492.88" xlink:href="#a" y1="-882.06" y2="-1135.5"/><linearGradient id="c" x1="1549.65" x2="1630.11" xlink:href="#a" y1="-838.49" y2="-1091.94"/><linearGradient id="d" x1="1392.98" x2="1473.44" xlink:href="#a" y1="-888.23" y2="-1141.67"/><g fill="#2e2e2f"><path d="m423.27 6.79-53.45 222.42-40.39-142.41-119.83-.24-36.2 146.06-58.93-225.83h-111.9l86.35 386.19h134.08l48.65-163.08 43.27 163.08h134.57l86.35-386.19z"/><path d="m738.76 6.79v386.19h253.45v-108.61h-141.25v-277.58z"/><path d="m1040.48 6.79v386.19h251.03v-108.61h-138.83v-277.58z"/><path d="m590.97 6.79-24.75 121.7v264.49h112.2v-386.19z"/></g><path d="m1536.64 159.62 54.21-35.12-105.35-74 32.74 102.52c2.7 8.45 10.97 11.41 18.4 6.6z" fill="url(#a)"/><path d="m1493.67 187.45c7.42-4.8 11.3-15.64 8.6-24.07l-41.62-130.3-22.23-15.6c-13.09-9.2-23.81-3.63-23.81 12.38v208.81z" fill="url(#b)"/><path d="m1674.4 183.16-67.32-47.27-64.65 41.88c-7.42 4.8-11.3 15.64-8.6 24.07l29.6 92.69 111-77.92c13.08-9.19 13.08-24.26-.03-33.45z" fill="url(#c)"/><path d="m1517.86 212.18c-2.69-8.42-11-11.38-18.39-6.58l-84.86 55v109.31c0 16 10.72 21.58 23.82 12.38l109.27-76.72z" fill="url(#d)"/></svg>