<?xml version="1.0" encoding="utf-8"?>
<!-- Generator: Adobe Illustrator 21.1.0, SVG Export Plug-In . SVG Version: 6.00 Build 0)  -->
<svg version="1.1" id="Layer_1" xmlns="http://www.w3.org/2000/svg" xmlns:xlink="http://www.w3.org/1999/xlink" x="0px" y="0px"
	 viewBox="0 0 1690.4 400" style="enable-background:new 0 0 1690.4 400;" xml:space="preserve">
<style type="text/css">
	.st0{fill:#F5F5F5;}
</style>
<title>1</title>
<polygon class="st0" points="423.3,6.8 369.8,229.2 329.4,86.8 209.6,86.6 173.4,232.6 114.5,6.8 2.6,6.8 88.9,393 223,393 
	271.6,229.9 314.9,393 449.5,393 535.8,6.8 "/>
<polygon class="st0" points="738.8,6.8 738.8,393 992.2,393 992.2,284.4 851,284.4 851,6.8 "/>
<polygon class="st0" points="1040.5,6.8 1040.5,393 1291.5,393 1291.5,284.4 1152.7,284.4 1152.7,6.8 "/>
<polygon class="st0" points="591,6.8 566.2,128.5 566.2,393 678.4,393 678.4,6.8 "/>
<path class="st0" d="M1536.6,159.6l54.2-35.1l-105.3-74l32.7,102.5C1520.9,161.5,1529.2,164.4,1536.6,159.6z"/>
<path class="st0" d="M1493.7,187.4c7.4-4.8,11.3-15.6,8.6-24.1l-41.6-130.3l-22.2-15.6c-13.1-9.2-23.8-3.6-23.8,12.4v208.8
	L1493.7,187.4z"/>
<path class="st0" d="M1674.4,183.2l-67.3-47.3l-64.7,41.9c-7.4,4.8-11.3,15.6-8.6,24.1l29.6,92.7l111-77.9
	C1687.5,207.4,1687.5,192.4,1674.4,183.2z"/>
<path class="st0" d="M1517.9,212.2c-2.7-8.4-11-11.4-18.4-6.6l-84.9,55v109.3c0,16,10.7,21.6,23.8,12.4l109.3-76.7L1517.9,212.2z"/>
</svg>
