<svg viewBox="0 0 419 98" xmlns="http://www.w3.org/2000/svg" xmlns:xlink="http://www.w3.org/1999/xlink"><linearGradient id="a" gradientTransform="matrix(1 0 0 -1 0 -431.14)" gradientUnits="userSpaceOnUse" x1="375.63" x2="395.49" y1="-436.5" y2="-499.08"><stop offset="0" stop-color="#bedc98"/><stop offset="1" stop-color="#4abc97"/></linearGradient><linearGradient id="b" x1="349.66" x2="369.53" xlink:href="#a" y1="-444.75" y2="-507.32"/><linearGradient id="c" x1="383.54" x2="403.41" xlink:href="#a" y1="-433.99" y2="-496.57"/><linearGradient id="d" x1="344.86" x2="364.73" xlink:href="#a" y1="-446.27" y2="-508.85"/><g fill="#2e2e2f"><path d="m105.44 1.44-13.2 54.92-9.97-35.17-29.59-.05-8.93 36.06-14.55-55.76h-27.63l21.32 95.35h33.1l12.02-40.27 10.68 40.27h33.22l21.32-95.35z"/><path d="m183.34 1.44v95.35h62.57v-26.82h-34.87v-68.53z"/><path d="m257.83 1.44v95.35h61.98v-26.82h-34.28v-68.53z"/><path d="m146.84 1.44-6.11 30.05v65.3h27.71v-95.35z"/></g><path d="m380.33 39.17 13.39-8.67-26-18.26 8.09 25.31a2.88 2.88 0 0 0 4.52 1.62z" fill="url(#a)"/><path d="m369.72 46.05a5.53 5.53 0 0 0 2.13-5.95l-10.28-32.17-5.49-3.85c-3.23-2.27-5.88-.9-5.88 3.06v51.55z" fill="url(#b)"/><path d="m414.34 45-16.62-11.69-16 10.34a5.49 5.49 0 0 0 -2.12 5.94l7.3 22.89 27.4-19.24c3.28-2.24 3.28-5.98.04-8.24z" fill="url(#c)"/><path d="m375.69 52.15a2.88 2.88 0 0 0 -4.54-1.62l-20.95 13.57v27c0 4 2.65 5.33 5.88 3.06l27-18.94z" fill="url(#d)"/></svg>