<svg id="Layer_1" data-name="Layer 1" xmlns="http://www.w3.org/2000/svg" xmlns:xlink="http://www.w3.org/1999/xlink" viewBox="0 0 768 180"><defs><style>.cls-1{fill:#fff;}.cls-2{fill:url(#linear-gradient);}.cls-3{fill:url(#linear-gradient-2);}.cls-4{fill:url(#linear-gradient-3);}.cls-5{fill:url(#linear-gradient-4);}</style><linearGradient id="linear-gradient" x1="689.13" y1="1224" x2="725.65" y2="1108.98" gradientTransform="matrix(1, 0, 0, -1, 0, 1234)" gradientUnits="userSpaceOnUse"><stop offset="0" stop-color="#bfdd99"/><stop offset="1" stop-color="#4bbd98"/></linearGradient><linearGradient id="linear-gradient-2" x1="641.41" y1="1208.85" x2="677.92" y2="1093.83" xlink:href="#linear-gradient"/><linearGradient id="linear-gradient-3" x1="703.68" y1="1228.62" x2="740.2" y2="1113.6" xlink:href="#linear-gradient"/><linearGradient id="linear-gradient-4" x1="632.58" y1="1206.05" x2="669.1" y2="1091.03" xlink:href="#linear-gradient"/></defs><title>1</title><polygon class="cls-1" points="192.5 2.79 168.24 103.73 149.91 39.1 95.53 38.99 79.1 105.27 52.35 2.79 1.57 2.79 40.76 178.06 101.61 178.06 123.69 104.04 143.32 178.06 204.4 178.06 243.58 2.79 192.5 2.79"/><polygon class="cls-1" points="335.68 2.79 335.68 178.06 450.7 178.06 450.7 128.76 386.6 128.76 386.6 2.79 335.68 2.79"/><polygon class="cls-1" points="472.61 2.79 472.61 178.06 586.53 178.06 586.53 128.76 523.53 128.76 523.53 2.79 472.61 2.79"/><polygon class="cls-1" points="268.6 2.79 257.37 58.02 257.37 178.06 308.29 178.06 308.29 2.79 268.6 2.79"/><path class="cls-2" d="M697.78,72.15l24.6-15.94L674.57,22.64l14.86,46.53A5.3,5.3,0,0,0,697.78,72.15Z"/><path class="cls-3" d="M678.28,84.78a10.11,10.11,0,0,0,3.91-10.92L663.3,14.72,653.21,7.64C647.26,3.46,642.4,6,642.4,13.26V108Z"/><path class="cls-4" d="M760.3,82.83,729.75,61.37l-29.34,19A10.11,10.11,0,0,0,696.5,91.3l13.44,42.06L760.3,98C766.25,93.84,766.25,87,760.3,82.83Z"/><path class="cls-5" d="M689.26,96a5.3,5.3,0,0,0-8.35-3L642.4,118v49.62c0,7.26,4.86,9.79,10.81,5.62l49.59-34.82Z"/></svg>