<svg id="Layer_1" data-name="Layer 1" xmlns="http://www.w3.org/2000/svg" xmlns:xlink="http://www.w3.org/1999/xlink" viewBox="0 0 1061 250"><defs><style>.cls-1{fill:#696868;}.cls-2{fill:url(#linear-gradient);}.cls-3{fill:url(#linear-gradient-2);}.cls-4{fill:url(#linear-gradient-3);}.cls-5{fill:url(#linear-gradient-4);}</style><linearGradient id="linear-gradient" x1="953.1" y1="660.24" x2="1003.63" y2="501.06" gradientTransform="matrix(1, 0, 0, -1, 0, 674)" gradientUnits="userSpaceOnUse"><stop offset="0" stop-color="#bfdd99"/><stop offset="1" stop-color="#4bbd98"/></linearGradient><linearGradient id="linear-gradient-2" x1="887.05" y1="639.27" x2="937.58" y2="480.09" xlink:href="#linear-gradient"/><linearGradient id="linear-gradient-3" x1="973.24" y1="666.63" x2="1023.77" y2="507.45" xlink:href="#linear-gradient"/><linearGradient id="linear-gradient-4" x1="874.84" y1="635.39" x2="925.37" y2="476.21" xlink:href="#linear-gradient"/></defs><title>1</title><polygon class="cls-1" points="265.8 3.79 232.23 143.48 206.86 54.04 131.6 53.89 108.86 145.62 71.85 3.79 1.57 3.79 55.8 246.34 140.02 246.34 170.57 143.92 197.75 246.34 282.26 246.34 336.5 3.79 265.8 3.79"/><polygon class="cls-1" points="463.95 3.79 463.95 246.34 623.13 246.34 623.13 178.12 534.42 178.12 534.42 3.79 463.95 3.79"/><polygon class="cls-1" points="653.45 3.79 653.45 246.34 811.11 246.34 811.11 178.12 723.91 178.12 723.91 3.79 653.45 3.79"/><polygon class="cls-1" points="371.12 3.79 355.58 80.22 355.58 246.34 426.05 246.34 426.05 3.79 371.12 3.79"/><path class="cls-2" d="M965.06,99.78l34-22.06L932.95,31.26l20.56,64.39C955.2,100.94,960.4,102.79,965.06,99.78Z"/><path class="cls-3" d="M938.08,117.26a14,14,0,0,0,5.4-15.11L917.34,20.3l-14-9.8c-8.22-5.78-15-2.28-15,7.78V149.43Z"/><path class="cls-4" d="M1051.59,114.56l-42.28-29.69-40.61,26.3a14,14,0,0,0-5.4,15.11l18.59,58.21,69.7-48.94C1059.82,129.79,1059.82,120.33,1051.59,114.56Z"/><path class="cls-5" d="M953.27,132.79c-1.69-5.29-6.89-7.15-11.55-4.13l-53.29,34.53v68.67c0,10.05,6.73,13.55,15,7.78L972,191.44Z"/></svg>