<svg id="Layer_1" data-name="Layer 1" xmlns="http://www.w3.org/2000/svg" viewBox="0 0 1061 250"><defs><style>.cls-1{fill:#49bd98;}</style></defs><title>1</title><polygon class="cls-1" points="265.8 3.79 232.23 143.48 206.86 54.04 131.6 53.89 108.86 145.62 71.85 3.79 1.57 3.79 55.8 246.34 140.02 246.34 170.57 143.92 197.75 246.34 282.26 246.34 336.5 3.79 265.8 3.79"/><polygon class="cls-1" points="463.95 3.79 463.95 246.34 623.13 246.34 623.13 178.12 534.42 178.12 534.42 3.79 463.95 3.79"/><polygon class="cls-1" points="653.45 3.79 653.45 246.34 811.11 246.34 811.11 178.12 723.91 178.12 723.91 3.79 653.45 3.79"/><polygon class="cls-1" points="371.12 3.79 355.58 80.22 355.58 246.34 426.05 246.34 426.05 3.79 371.12 3.79"/><path class="cls-1" d="M965.06,99.78l34-22.06L932.95,31.26l20.56,64.39C955.2,100.94,960.4,102.79,965.06,99.78Z"/><path class="cls-1" d="M938.08,117.26a14,14,0,0,0,5.4-15.11L917.34,20.3l-14-9.8c-8.22-5.78-15-2.28-15,7.78V149.43Z"/><path class="cls-1" d="M1051.59,114.56l-42.28-29.69-40.61,26.3a14,14,0,0,0-5.4,15.11l18.59,58.21,69.7-48.94C1059.82,129.79,1059.82,120.33,1051.59,114.56Z"/><path class="cls-1" d="M953.27,132.79c-1.69-5.29-6.89-7.15-11.55-4.13l-53.29,34.53v68.67c0,10.05,6.73,13.55,15,7.78L972,191.44Z"/></svg>