<svg id="Layer_1" data-name="Layer 1" xmlns="http://www.w3.org/2000/svg" xmlns:xlink="http://www.w3.org/1999/xlink" viewBox="0 0 1276.96 300"><defs><style>.cls-1{fill:#696868;}.cls-2{fill:url(#linear-gradient);}.cls-3{fill:url(#linear-gradient-2);}.cls-4{fill:url(#linear-gradient-3);}.cls-5{fill:url(#linear-gradient-4);}</style><linearGradient id="linear-gradient" x1="1144.98" y1="-43.78" x2="1205.71" y2="-235.05" gradientTransform="matrix(1, 0, 0, -1, 0, -26)" gradientUnits="userSpaceOnUse"><stop offset="0" stop-color="#bfdd99"/><stop offset="1" stop-color="#4bbd98"/></linearGradient><linearGradient id="linear-gradient-2" x1="1065.61" y1="-68.97" x2="1126.33" y2="-260.25" xlink:href="#linear-gradient"/><linearGradient id="linear-gradient-3" x1="1169.18" y1="-36.09" x2="1229.9" y2="-227.37" xlink:href="#linear-gradient"/><linearGradient id="linear-gradient-4" x1="1050.94" y1="-73.63" x2="1111.66" y2="-264.91" xlink:href="#linear-gradient"/></defs><title>1</title><polygon class="cls-1" points="319.08 5.79 278.74 173.66 248.25 66.17 157.82 65.99 130.5 176.22 86.02 5.79 1.57 5.79 66.74 297.26 167.94 297.26 204.65 174.17 237.31 297.26 338.87 297.26 404.04 5.79 319.08 5.79"/><polygon class="cls-1" points="557.19 5.79 557.19 297.26 748.47 297.26 748.47 215.28 641.87 215.28 641.87 5.79 557.19 5.79"/><polygon class="cls-1" points="784.9 5.79 784.9 297.26 974.36 297.26 974.36 215.28 869.58 215.28 869.58 5.79 784.9 5.79"/><polygon class="cls-1" points="445.64 5.79 426.96 97.64 426.96 297.26 511.64 297.26 511.64 5.79 445.64 5.79"/><path class="cls-2" d="M1159.36,121.14l40.92-26.51L1120.77,38.8l24.71,77.38C1147.51,122.53,1153.76,124.76,1159.36,121.14Z"/><path class="cls-3" d="M1126.93,142.14c5.6-3.63,8.53-11.8,6.49-18.16L1102,25.63l-16.78-11.78c-9.88-6.94-18-2.74-18,9.35V180.8Z"/><path class="cls-4" d="M1263.33,138.9l-50.81-35.68-48.79,31.61c-5.6,3.63-8.53,11.8-6.49,18.16l22.34,70,83.75-58.8C1273.22,157.2,1273.22,145.84,1263.33,138.9Z"/><path class="cls-5" d="M1145.19,160.8c-2-6.36-8.28-8.59-13.88-5l-64,41.49v82.51c0,12.08,8.09,16.29,18,9.35l82.47-57.9Z"/></svg>