<svg id="Layer_1" data-name="Layer 1" xmlns="http://www.w3.org/2000/svg" viewBox="0 0 1276.96 300"><defs><style>.cls-1{fill:#696868;}</style></defs><title>1</title><polygon class="cls-1" points="319.08 5.79 278.74 173.66 248.25 66.17 157.82 65.99 130.5 176.22 86.02 5.79 1.57 5.79 66.74 297.26 167.94 297.26 204.65 174.17 237.31 297.26 338.87 297.26 404.04 5.79 319.08 5.79"/><polygon class="cls-1" points="557.19 5.79 557.19 297.26 748.47 297.26 748.47 215.28 641.87 215.28 641.87 5.79 557.19 5.79"/><polygon class="cls-1" points="784.9 5.79 784.9 297.26 974.36 297.26 974.36 215.28 869.58 215.28 869.58 5.79 784.9 5.79"/><polygon class="cls-1" points="445.64 5.79 426.96 97.64 426.96 297.26 511.64 297.26 511.64 5.79 445.64 5.79"/><path class="cls-1" d="M1159.36,121.14l40.92-26.51L1120.77,38.8l24.71,77.38C1147.51,122.53,1153.76,124.76,1159.36,121.14Z"/><path class="cls-1" d="M1126.93,142.14c5.6-3.63,8.53-11.8,6.49-18.16L1102,25.63l-16.78-11.78c-9.88-6.94-18-2.74-18,9.35V180.8Z"/><path class="cls-1" d="M1263.33,138.9l-50.81-35.68-48.79,31.61c-5.6,3.63-8.53,11.8-6.49,18.16l22.34,70,83.75-58.8C1273.22,157.2,1273.22,145.84,1263.33,138.9Z"/><path class="cls-1" d="M1145.19,160.8c-2-6.36-8.28-8.59-13.88-5l-64,41.49v82.51c0,12.08,8.09,16.29,18,9.35l82.47-57.9Z"/></svg>