<svg id="Layer_1" data-name="Layer 1" xmlns="http://www.w3.org/2000/svg" viewBox="0 0 1690.44 400"><defs><style>.cls-1{fill:#49bd98;}</style></defs><title>1</title><polygon class="cls-1" points="423.27 6.79 369.82 229.21 329.43 86.8 209.6 86.56 173.4 232.62 114.47 6.79 2.57 6.79 88.92 392.98 223 392.98 271.65 229.9 314.92 392.98 449.49 392.98 535.84 6.79 423.27 6.79"/><polygon class="cls-1" points="738.76 6.79 738.76 392.98 992.21 392.98 992.21 284.37 850.96 284.37 850.96 6.79 738.76 6.79"/><polygon class="cls-1" points="1040.48 6.79 1040.48 392.98 1291.51 392.98 1291.51 284.37 1152.68 284.37 1152.68 6.79 1040.48 6.79"/><polygon class="cls-1" points="590.97 6.79 566.22 128.49 566.22 392.98 678.42 392.98 678.42 6.79 590.97 6.79"/><path class="cls-1" d="M1536.64,159.62l54.21-35.12-105.35-74,32.74,102.52C1520.94,161.47,1529.21,164.43,1536.64,159.62Z"/><path class="cls-1" d="M1493.67,187.45c7.42-4.8,11.3-15.64,8.6-24.07L1460.65,33.08l-22.23-15.6c-13.09-9.2-23.81-3.63-23.81,12.38V238.67Z"/><path class="cls-1" d="M1674.4,183.16l-67.32-47.27-64.65,41.88c-7.42,4.8-11.3,15.64-8.6,24.07l29.6,92.69,111-77.92C1687.51,207.42,1687.51,192.35,1674.4,183.16Z"/><path class="cls-1" d="M1517.86,212.18c-2.69-8.42-11-11.38-18.39-6.58l-84.86,55V369.91c0,16,10.72,21.58,23.82,12.38l109.27-76.72Z"/></svg>