<svg id="Layer_1" data-name="Layer 1" xmlns="http://www.w3.org/2000/svg" viewBox="0 0 419 98"><defs><style>.cls-1{fill:#696868;}</style></defs><title>1</title><polygon class="cls-1" points="105.44 1.44 92.24 56.36 82.27 21.19 52.68 21.14 43.75 57.2 29.2 1.44 1.57 1.44 22.89 96.79 55.99 96.79 68.01 56.52 78.69 96.79 111.91 96.79 133.23 1.44 105.44 1.44"/><polygon class="cls-1" points="183.34 1.44 183.34 96.79 245.91 96.79 245.91 69.97 211.04 69.97 211.04 1.44 183.34 1.44"/><polygon class="cls-1" points="257.83 1.44 257.83 96.79 319.81 96.79 319.81 69.97 285.53 69.97 285.53 1.44 257.83 1.44"/><polygon class="cls-1" points="146.84 1.44 140.73 31.49 140.73 96.79 168.44 96.79 168.44 1.44 146.84 1.44"/><path class="cls-1" d="M380.33,39.17l13.39-8.67-26-18.26,8.08,25.31A2.89,2.89,0,0,0,380.33,39.17Z"/><path class="cls-1" d="M369.72,46a5.5,5.5,0,0,0,2.12-5.94L361.57,7.93l-5.49-3.85c-3.23-2.27-5.88-.9-5.88,3.06V58.69Z"/><path class="cls-1" d="M414.34,45,397.72,33.31l-16,10.34a5.5,5.5,0,0,0-2.12,5.94l7.31,22.88,27.4-19.24C417.58,51,417.58,47.26,414.34,45Z"/><path class="cls-1" d="M375.69,52.15a2.89,2.89,0,0,0-4.54-1.62l-21,13.57v27c0,4,2.65,5.33,5.88,3.06l27-18.94Z"/></svg>