<svg id="Layer_1" data-name="Layer 1" xmlns="http://www.w3.org/2000/svg" viewBox="0 0 1899.57 1049.33"><defs><style>.cls-1{fill:#ffffff;}</style></defs><circle class="cls-1" cx="24.5" cy="24.5" r="1.5"/><circle class="cls-1" cx="74.5" cy="24.5" r="1.5"/><circle class="cls-1" cx="124.5" cy="24.5" r="1.5"/><circle class="cls-1" cx="174.5" cy="24.5" r="1.5"/><circle class="cls-1" cx="24.5" cy="74.5" r="1.5"/><circle class="cls-1" cx="74.5" cy="74.5" r="1.5"/><circle class="cls-1" cx="124.5" cy="74.5" r="1.5"/><circle class="cls-1" cx="174.5" cy="74.5" r="1.5"/><circle class="cls-1" cx="24.5" cy="124.5" r="1.5"/><circle class="cls-1" cx="74.5" cy="124.5" r="1.5"/><circle class="cls-1" cx="124.5" cy="124.5" r="1.5"/><circle class="cls-1" cx="174.5" cy="124.5" r="1.5"/><circle class="cls-1" cx="24.5" cy="174.5" r="1.5"/><circle class="cls-1" cx="74.5" cy="174.5" r="1.5"/><circle class="cls-1" cx="124.5" cy="174.5" r="1.5"/><circle class="cls-1" cx="174.5" cy="174.5" r="1.5"/><circle class="cls-1" cx="24.5" cy="224.5" r="1.5"/><circle class="cls-1" cx="74.5" cy="224.5" r="1.5"/><circle class="cls-1" cx="124.5" cy="224.5" r="1.5"/><circle class="cls-1" cx="174.5" cy="224.5" r="1.5"/><circle class="cls-1" cx="24.5" cy="274.5" r="1.5"/><circle class="cls-1" cx="74.5" cy="274.5" r="1.5"/><circle class="cls-1" cx="124.5" cy="274.5" r="1.5"/><circle class="cls-1" cx="174.5" cy="274.5" r="1.5"/><circle class="cls-1" cx="24.5" cy="324.5" r="1.5"/><circle class="cls-1" cx="74.5" cy="324.5" r="1.5"/><circle class="cls-1" cx="124.5" cy="324.5" r="1.5"/><circle class="cls-1" cx="174.5" cy="324.5" r="1.5"/><circle class="cls-1" cx="24.5" cy="374.5" r="1.5"/><circle class="cls-1" cx="74.5" cy="374.5" r="1.5"/><circle class="cls-1" cx="124.5" cy="374.5" r="1.5"/><circle class="cls-1" cx="174.5" cy="374.5" r="1.5"/><circle class="cls-1" cx="24.5" cy="424.5" r="1.5"/><circle class="cls-1" cx="74.5" cy="424.5" r="1.5"/><circle class="cls-1" cx="124.5" cy="424.5" r="1.5"/><circle class="cls-1" cx="174.5" cy="424.5" r="1.5"/><circle class="cls-1" cx="24.5" cy="474.5" r="1.5"/><circle class="cls-1" cx="74.5" cy="474.5" r="1.5"/><circle class="cls-1" cx="124.5" cy="474.5" r="1.5"/><circle class="cls-1" cx="174.5" cy="474.5" r="1.5"/><circle class="cls-1" cx="24.5" cy="524.5" r="1.5"/><circle class="cls-1" cx="74.5" cy="524.5" r="1.5"/><circle class="cls-1" cx="124.5" cy="524.5" r="1.5"/><circle class="cls-1" cx="174.5" cy="524.5" r="1.5"/><circle class="cls-1" cx="24.5" cy="574.5" r="1.5"/><circle class="cls-1" cx="74.5" cy="574.5" r="1.5"/><circle class="cls-1" cx="124.5" cy="574.5" r="1.5"/><circle class="cls-1" cx="174.5" cy="574.5" r="1.5"/><circle class="cls-1" cx="24.5" cy="624.5" r="1.5"/><circle class="cls-1" cx="74.5" cy="624.5" r="1.5"/><circle class="cls-1" cx="124.5" cy="624.5" r="1.5"/><circle class="cls-1" cx="174.5" cy="624.5" r="1.5"/><circle class="cls-1" cx="24.5" cy="674.5" r="1.5"/><circle class="cls-1" cx="74.5" cy="674.5" r="1.5"/><circle class="cls-1" cx="124.5" cy="674.5" r="1.5"/><circle class="cls-1" cx="174.5" cy="674.5" r="1.5"/><circle class="cls-1" cx="24.5" cy="724.5" r="1.5"/><circle class="cls-1" cx="74.5" cy="724.5" r="1.5"/><circle class="cls-1" cx="124.5" cy="724.5" r="1.5"/><circle class="cls-1" cx="174.5" cy="724.5" r="1.5"/><circle class="cls-1" cx="24.5" cy="774.5" r="1.5"/><circle class="cls-1" cx="74.5" cy="774.5" r="1.5"/><circle class="cls-1" cx="124.5" cy="774.5" r="1.5"/><circle class="cls-1" cx="174.5" cy="774.5" r="1.5"/><circle class="cls-1" cx="24.5" cy="824.5" r="1.5"/><circle class="cls-1" cx="74.5" cy="824.5" r="1.5"/><circle class="cls-1" cx="124.5" cy="824.5" r="1.5"/><circle class="cls-1" cx="174.5" cy="824.5" r="1.5"/><circle class="cls-1" cx="24.5" cy="874.5" r="1.5"/><circle class="cls-1" cx="74.5" cy="874.5" r="1.5"/><circle class="cls-1" cx="124.5" cy="874.5" r="1.5"/><circle class="cls-1" cx="174.5" cy="874.5" r="1.5"/><circle class="cls-1" cx="24.5" cy="924.5" r="1.5"/><circle class="cls-1" cx="74.5" cy="924.5" r="1.5"/><circle class="cls-1" cx="124.5" cy="924.5" r="1.5"/><circle class="cls-1" cx="174.5" cy="924.5" r="1.5"/><circle class="cls-1" cx="24.5" cy="974.5" r="1.5"/><circle class="cls-1" cx="74.5" cy="974.5" r="1.5"/><circle class="cls-1" cx="124.5" cy="974.5" r="1.5"/><circle class="cls-1" cx="174.5" cy="974.5" r="1.5"/><circle class="cls-1" cx="24.5" cy="1024.5" r="1.5"/><circle class="cls-1" cx="74.5" cy="1024.5" r="1.5"/><circle class="cls-1" cx="124.5" cy="1024.5" r="1.5"/><circle class="cls-1" cx="174.5" cy="1024.5" r="1.5"/><circle class="cls-1" cx="224.5" cy="24.5" r="1.5"/><circle class="cls-1" cx="274.5" cy="24.5" r="1.5"/><circle class="cls-1" cx="324.5" cy="24.5" r="1.5"/><circle class="cls-1" cx="374.5" cy="24.5" r="1.5"/><circle class="cls-1" cx="424.5" cy="24.5" r="1.5"/><circle class="cls-1" cx="224.5" cy="74.5" r="1.5"/><circle class="cls-1" cx="274.5" cy="74.5" r="1.5"/><circle class="cls-1" cx="324.5" cy="74.5" r="1.5"/><circle class="cls-1" cx="374.5" cy="74.5" r="1.5"/><circle class="cls-1" cx="424.5" cy="74.5" r="1.5"/><circle class="cls-1" cx="224.5" cy="124.5" r="1.5"/><circle class="cls-1" cx="274.5" cy="124.5" r="1.5"/><circle class="cls-1" cx="324.5" cy="124.5" r="1.5"/><circle class="cls-1" cx="374.5" cy="124.5" r="1.5"/><circle class="cls-1" cx="424.5" cy="124.5" r="1.5"/><circle class="cls-1" cx="224.5" cy="174.5" r="1.5"/><circle class="cls-1" cx="274.5" cy="174.5" r="1.5"/><circle class="cls-1" cx="324.5" cy="174.5" r="1.5"/><circle class="cls-1" cx="374.5" cy="174.5" r="1.5"/><circle class="cls-1" cx="424.5" cy="174.5" r="1.5"/><circle class="cls-1" cx="224.5" cy="224.5" r="1.5"/><circle class="cls-1" cx="274.5" cy="224.5" r="1.5"/><circle class="cls-1" cx="324.5" cy="224.5" r="1.5"/><circle class="cls-1" cx="374.5" cy="224.5" r="1.5"/><circle class="cls-1" cx="424.5" cy="224.5" r="1.5"/><circle class="cls-1" cx="224.5" cy="274.5" r="1.5"/><circle class="cls-1" cx="274.5" cy="274.5" r="1.5"/><circle class="cls-1" cx="324.5" cy="274.5" r="1.5"/><circle class="cls-1" cx="374.5" cy="274.5" r="1.5"/><circle class="cls-1" cx="424.5" cy="274.5" r="1.5"/><circle class="cls-1" cx="224.5" cy="324.5" r="1.5"/><circle class="cls-1" cx="274.5" cy="324.5" r="1.5"/><circle class="cls-1" cx="324.5" cy="324.5" r="1.5"/><circle class="cls-1" cx="374.5" cy="324.5" r="1.5"/><circle class="cls-1" cx="424.5" cy="324.5" r="1.5"/><circle class="cls-1" cx="224.5" cy="374.5" r="1.5"/><circle class="cls-1" cx="274.5" cy="374.5" r="1.5"/><circle class="cls-1" cx="324.5" cy="374.5" r="1.5"/><circle class="cls-1" cx="374.5" cy="374.5" r="1.5"/><circle class="cls-1" cx="424.5" cy="374.5" r="1.5"/><circle class="cls-1" cx="224.5" cy="424.5" r="1.5"/><circle class="cls-1" cx="274.5" cy="424.5" r="1.5"/><circle class="cls-1" cx="324.5" cy="424.5" r="1.5"/><circle class="cls-1" cx="374.5" cy="424.5" r="1.5"/><circle class="cls-1" cx="424.5" cy="424.5" r="1.5"/><circle class="cls-1" cx="224.5" cy="474.5" r="1.5"/><circle class="cls-1" cx="274.5" cy="474.5" r="1.5"/><circle class="cls-1" cx="324.5" cy="474.5" r="1.5"/><circle class="cls-1" cx="374.5" cy="474.5" r="1.5"/><circle class="cls-1" cx="424.5" cy="474.5" r="1.5"/><circle class="cls-1" cx="224.5" cy="524.5" r="1.5"/><circle class="cls-1" cx="274.5" cy="524.5" r="1.5"/><circle class="cls-1" cx="324.5" cy="524.5" r="1.5"/><circle class="cls-1" cx="374.5" cy="524.5" r="1.5"/><circle class="cls-1" cx="424.5" cy="524.5" r="1.5"/><circle class="cls-1" cx="224.5" cy="574.5" r="1.5"/><circle class="cls-1" cx="274.5" cy="574.5" r="1.5"/><circle class="cls-1" cx="324.5" cy="574.5" r="1.5"/><circle class="cls-1" cx="374.5" cy="574.5" r="1.5"/><circle class="cls-1" cx="424.5" cy="574.5" r="1.5"/><circle class="cls-1" cx="224.5" cy="624.5" r="1.5"/><circle class="cls-1" cx="274.5" cy="624.5" r="1.5"/><circle class="cls-1" cx="324.5" cy="624.5" r="1.5"/><circle class="cls-1" cx="374.5" cy="624.5" r="1.5"/><circle class="cls-1" cx="424.5" cy="624.5" r="1.5"/><circle class="cls-1" cx="224.5" cy="674.5" r="1.5"/><circle class="cls-1" cx="274.5" cy="674.5" r="1.5"/><circle class="cls-1" cx="324.5" cy="674.5" r="1.5"/><circle class="cls-1" cx="374.5" cy="674.5" r="1.5"/><circle class="cls-1" cx="424.5" cy="674.5" r="1.5"/><circle class="cls-1" cx="224.5" cy="724.5" r="1.5"/><circle class="cls-1" cx="274.5" cy="724.5" r="1.5"/><circle class="cls-1" cx="324.5" cy="724.5" r="1.5"/><circle class="cls-1" cx="374.5" cy="724.5" r="1.5"/><circle class="cls-1" cx="424.5" cy="724.5" r="1.5"/><circle class="cls-1" cx="224.5" cy="774.5" r="1.5"/><circle class="cls-1" cx="274.5" cy="774.5" r="1.5"/><circle class="cls-1" cx="324.5" cy="774.5" r="1.5"/><circle class="cls-1" cx="374.5" cy="774.5" r="1.5"/><circle class="cls-1" cx="424.5" cy="774.5" r="1.5"/><circle class="cls-1" cx="224.5" cy="824.5" r="1.5"/><circle class="cls-1" cx="274.5" cy="824.5" r="1.5"/><circle class="cls-1" cx="324.5" cy="824.5" r="1.5"/><circle class="cls-1" cx="374.5" cy="824.5" r="1.5"/><circle class="cls-1" cx="424.5" cy="824.5" r="1.5"/><circle class="cls-1" cx="224.5" cy="874.5" r="1.5"/><circle class="cls-1" cx="274.5" cy="874.5" r="1.5"/><circle class="cls-1" cx="324.5" cy="874.5" r="1.5"/><circle class="cls-1" cx="374.5" cy="874.5" r="1.5"/><circle class="cls-1" cx="424.5" cy="874.5" r="1.5"/><circle class="cls-1" cx="224.5" cy="924.5" r="1.5"/><circle class="cls-1" cx="274.5" cy="924.5" r="1.5"/><circle class="cls-1" cx="324.5" cy="924.5" r="1.5"/><circle class="cls-1" cx="374.5" cy="924.5" r="1.5"/><circle class="cls-1" cx="424.5" cy="924.5" r="1.5"/><circle class="cls-1" cx="224.5" cy="974.5" r="1.5"/><circle class="cls-1" cx="274.5" cy="974.5" r="1.5"/><circle class="cls-1" cx="324.5" cy="974.5" r="1.5"/><circle class="cls-1" cx="374.5" cy="974.5" r="1.5"/><circle class="cls-1" cx="424.5" cy="974.5" r="1.5"/><circle class="cls-1" cx="224.5" cy="1024.5" r="1.5"/><circle class="cls-1" cx="274.5" cy="1024.5" r="1.5"/><circle class="cls-1" cx="324.5" cy="1024.5" r="1.5"/><circle class="cls-1" cx="374.5" cy="1024.5" r="1.5"/><circle class="cls-1" cx="424.5" cy="1024.5" r="1.5"/><circle class="cls-1" cx="474.5" cy="24.5" r="1.5"/><circle class="cls-1" cx="524.5" cy="24.5" r="1.5"/><circle class="cls-1" cx="574.5" cy="24.5" r="1.5"/><circle class="cls-1" cx="624.5" cy="24.5" r="1.5"/><circle class="cls-1" cx="674.5" cy="24.5" r="1.5"/><circle class="cls-1" cx="474.5" cy="74.5" r="1.5"/><circle class="cls-1" cx="524.5" cy="74.5" r="1.5"/><circle class="cls-1" cx="574.5" cy="74.5" r="1.5"/><circle class="cls-1" cx="624.5" cy="74.5" r="1.5"/><circle class="cls-1" cx="674.5" cy="74.5" r="1.5"/><circle class="cls-1" cx="474.5" cy="124.5" r="1.5"/><circle class="cls-1" cx="524.5" cy="124.5" r="1.5"/><circle class="cls-1" cx="574.5" cy="124.5" r="1.5"/><circle class="cls-1" cx="624.5" cy="124.5" r="1.5"/><circle class="cls-1" cx="674.5" cy="124.5" r="1.5"/><circle class="cls-1" cx="474.5" cy="174.5" r="1.5"/><circle class="cls-1" cx="524.5" cy="174.5" r="1.5"/><circle class="cls-1" cx="574.5" cy="174.5" r="1.5"/><circle class="cls-1" cx="624.5" cy="174.5" r="1.5"/><circle class="cls-1" cx="674.5" cy="174.5" r="1.5"/><circle class="cls-1" cx="474.5" cy="224.5" r="1.5"/><circle class="cls-1" cx="524.5" cy="224.5" r="1.5"/><circle class="cls-1" cx="574.5" cy="224.5" r="1.5"/><circle class="cls-1" cx="624.5" cy="224.5" r="1.5"/><circle class="cls-1" cx="674.5" cy="224.5" r="1.5"/><circle class="cls-1" cx="474.5" cy="274.5" r="1.5"/><circle class="cls-1" cx="524.5" cy="274.5" r="1.5"/><circle class="cls-1" cx="574.5" cy="274.5" r="1.5"/><circle class="cls-1" cx="624.5" cy="274.5" r="1.5"/><circle class="cls-1" cx="674.5" cy="274.5" r="1.5"/><circle class="cls-1" cx="474.5" cy="324.5" r="1.5"/><circle class="cls-1" cx="524.5" cy="324.5" r="1.5"/><circle class="cls-1" cx="574.5" cy="324.5" r="1.5"/><circle class="cls-1" cx="624.5" cy="324.5" r="1.5"/><circle class="cls-1" cx="674.5" cy="324.5" r="1.5"/><circle class="cls-1" cx="474.5" cy="374.5" r="1.5"/><circle class="cls-1" cx="524.5" cy="374.5" r="1.5"/><circle class="cls-1" cx="574.5" cy="374.5" r="1.5"/><circle class="cls-1" cx="624.5" cy="374.5" r="1.5"/><circle class="cls-1" cx="674.5" cy="374.5" r="1.5"/><circle class="cls-1" cx="474.5" cy="424.5" r="1.5"/><circle class="cls-1" cx="524.5" cy="424.5" r="1.5"/><circle class="cls-1" cx="574.5" cy="424.5" r="1.5"/><circle class="cls-1" cx="624.5" cy="424.5" r="1.5"/><circle class="cls-1" cx="674.5" cy="424.5" r="1.5"/><circle class="cls-1" cx="474.5" cy="474.5" r="1.5"/><circle class="cls-1" cx="524.5" cy="474.5" r="1.5"/><circle class="cls-1" cx="574.5" cy="474.5" r="1.5"/><circle class="cls-1" cx="624.5" cy="474.5" r="1.5"/><circle class="cls-1" cx="674.5" cy="474.5" r="1.5"/><circle class="cls-1" cx="474.5" cy="524.5" r="1.5"/><circle class="cls-1" cx="524.5" cy="524.5" r="1.5"/><circle class="cls-1" cx="574.5" cy="524.5" r="1.5"/><circle class="cls-1" cx="624.5" cy="524.5" r="1.5"/><circle class="cls-1" cx="674.5" cy="524.5" r="1.5"/><circle class="cls-1" cx="474.5" cy="574.5" r="1.5"/><circle class="cls-1" cx="524.5" cy="574.5" r="1.5"/><circle class="cls-1" cx="574.5" cy="574.5" r="1.5"/><circle class="cls-1" cx="624.5" cy="574.5" r="1.5"/><circle class="cls-1" cx="674.5" cy="574.5" r="1.5"/><circle class="cls-1" cx="474.5" cy="624.5" r="1.5"/><circle class="cls-1" cx="524.5" cy="624.5" r="1.5"/><circle class="cls-1" cx="574.5" cy="624.5" r="1.5"/><circle class="cls-1" cx="624.5" cy="624.5" r="1.5"/><circle class="cls-1" cx="674.5" cy="624.5" r="1.5"/><circle class="cls-1" cx="474.5" cy="674.5" r="1.5"/><circle class="cls-1" cx="524.5" cy="674.5" r="1.5"/><circle class="cls-1" cx="574.5" cy="674.5" r="1.5"/><circle class="cls-1" cx="624.5" cy="674.5" r="1.5"/><circle class="cls-1" cx="674.5" cy="674.5" r="1.5"/><circle class="cls-1" cx="474.5" cy="724.5" r="1.5"/><circle class="cls-1" cx="524.5" cy="724.5" r="1.5"/><circle class="cls-1" cx="574.5" cy="724.5" r="1.5"/><circle class="cls-1" cx="624.5" cy="724.5" r="1.5"/><circle class="cls-1" cx="674.5" cy="724.5" r="1.5"/><circle class="cls-1" cx="474.5" cy="774.5" r="1.5"/><circle class="cls-1" cx="524.5" cy="774.5" r="1.5"/><circle class="cls-1" cx="574.5" cy="774.5" r="1.5"/><circle class="cls-1" cx="624.5" cy="774.5" r="1.5"/><circle class="cls-1" cx="674.5" cy="774.5" r="1.5"/><circle class="cls-1" cx="474.5" cy="824.5" r="1.5"/><circle class="cls-1" cx="524.5" cy="824.5" r="1.5"/><circle class="cls-1" cx="574.5" cy="824.5" r="1.5"/><circle class="cls-1" cx="624.5" cy="824.5" r="1.5"/><circle class="cls-1" cx="674.5" cy="824.5" r="1.5"/><circle class="cls-1" cx="474.5" cy="874.5" r="1.5"/><circle class="cls-1" cx="524.5" cy="874.5" r="1.5"/><circle class="cls-1" cx="574.5" cy="874.5" r="1.5"/><circle class="cls-1" cx="624.5" cy="874.5" r="1.5"/><circle class="cls-1" cx="674.5" cy="874.5" r="1.5"/><circle class="cls-1" cx="474.5" cy="924.5" r="1.5"/><circle class="cls-1" cx="524.5" cy="924.5" r="1.5"/><circle class="cls-1" cx="574.5" cy="924.5" r="1.5"/><circle class="cls-1" cx="624.5" cy="924.5" r="1.5"/><circle class="cls-1" cx="674.5" cy="924.5" r="1.5"/><circle class="cls-1" cx="474.5" cy="974.5" r="1.5"/><circle class="cls-1" cx="524.5" cy="974.5" r="1.5"/><circle class="cls-1" cx="574.5" cy="974.5" r="1.5"/><circle class="cls-1" cx="624.5" cy="974.5" r="1.5"/><circle class="cls-1" cx="674.5" cy="974.5" r="1.5"/><circle class="cls-1" cx="474.5" cy="1024.5" r="1.5"/><circle class="cls-1" cx="524.5" cy="1024.5" r="1.5"/><circle class="cls-1" cx="574.5" cy="1024.5" r="1.5"/><circle class="cls-1" cx="624.5" cy="1024.5" r="1.5"/><circle class="cls-1" cx="674.5" cy="1024.5" r="1.5"/><circle class="cls-1" cx="724.5" cy="24.5" r="1.5"/><circle class="cls-1" cx="774.5" cy="24.5" r="1.5"/><circle class="cls-1" cx="824.5" cy="24.5" r="1.5"/><circle class="cls-1" cx="874.5" cy="24.5" r="1.5"/><circle class="cls-1" cx="924.5" cy="24.5" r="1.5"/><circle class="cls-1" cx="724.5" cy="74.5" r="1.5"/><circle class="cls-1" cx="774.5" cy="74.5" r="1.5"/><circle class="cls-1" cx="824.5" cy="74.5" r="1.5"/><circle class="cls-1" cx="874.5" cy="74.5" r="1.5"/><circle class="cls-1" cx="924.5" cy="74.5" r="1.5"/><circle class="cls-1" cx="724.5" cy="124.5" r="1.5"/><circle class="cls-1" cx="774.5" cy="124.5" r="1.5"/><circle class="cls-1" cx="824.5" cy="124.5" r="1.5"/><circle class="cls-1" cx="874.5" cy="124.5" r="1.5"/><circle class="cls-1" cx="924.5" cy="124.5" r="1.5"/><circle class="cls-1" cx="724.5" cy="174.5" r="1.5"/><circle class="cls-1" cx="774.5" cy="174.5" r="1.5"/><circle class="cls-1" cx="824.5" cy="174.5" r="1.5"/><circle class="cls-1" cx="874.5" cy="174.5" r="1.5"/><circle class="cls-1" cx="924.5" cy="174.5" r="1.5"/><circle class="cls-1" cx="724.5" cy="224.5" r="1.5"/><circle class="cls-1" cx="774.5" cy="224.5" r="1.5"/><circle class="cls-1" cx="824.5" cy="224.5" r="1.5"/><circle class="cls-1" cx="874.5" cy="224.5" r="1.5"/><circle class="cls-1" cx="924.5" cy="224.5" r="1.5"/><circle class="cls-1" cx="724.5" cy="274.5" r="1.5"/><circle class="cls-1" cx="774.5" cy="274.5" r="1.5"/><circle class="cls-1" cx="824.5" cy="274.5" r="1.5"/><circle class="cls-1" cx="874.5" cy="274.5" r="1.5"/><circle class="cls-1" cx="924.5" cy="274.5" r="1.5"/><circle class="cls-1" cx="724.5" cy="324.5" r="1.5"/><circle class="cls-1" cx="774.5" cy="324.5" r="1.5"/><circle class="cls-1" cx="824.5" cy="324.5" r="1.5"/><circle class="cls-1" cx="874.5" cy="324.5" r="1.5"/><circle class="cls-1" cx="924.5" cy="324.5" r="1.5"/><circle class="cls-1" cx="724.5" cy="374.5" r="1.5"/><circle class="cls-1" cx="774.5" cy="374.5" r="1.5"/><circle class="cls-1" cx="824.5" cy="374.5" r="1.5"/><circle class="cls-1" cx="874.5" cy="374.5" r="1.5"/><circle class="cls-1" cx="924.5" cy="374.5" r="1.5"/><circle class="cls-1" cx="724.5" cy="424.5" r="1.5"/><circle class="cls-1" cx="774.5" cy="424.5" r="1.5"/><circle class="cls-1" cx="824.5" cy="424.5" r="1.5"/><circle class="cls-1" cx="874.5" cy="424.5" r="1.5"/><circle class="cls-1" cx="924.5" cy="424.5" r="1.5"/><circle class="cls-1" cx="724.5" cy="474.5" r="1.5"/><circle class="cls-1" cx="774.5" cy="474.5" r="1.5"/><circle class="cls-1" cx="824.5" cy="474.5" r="1.5"/><circle class="cls-1" cx="874.5" cy="474.5" r="1.5"/><circle class="cls-1" cx="924.5" cy="474.5" r="1.5"/><circle class="cls-1" cx="724.5" cy="524.5" r="1.5"/><circle class="cls-1" cx="774.5" cy="524.5" r="1.5"/><circle class="cls-1" cx="824.5" cy="524.5" r="1.5"/><circle class="cls-1" cx="874.5" cy="524.5" r="1.5"/><circle class="cls-1" cx="924.5" cy="524.5" r="1.5"/><circle class="cls-1" cx="724.5" cy="574.5" r="1.5"/><circle class="cls-1" cx="774.5" cy="574.5" r="1.5"/><circle class="cls-1" cx="824.5" cy="574.5" r="1.5"/><circle class="cls-1" cx="874.5" cy="574.5" r="1.5"/><circle class="cls-1" cx="924.5" cy="574.5" r="1.5"/><circle class="cls-1" cx="724.5" cy="624.5" r="1.5"/><circle class="cls-1" cx="774.5" cy="624.5" r="1.5"/><circle class="cls-1" cx="824.5" cy="624.5" r="1.5"/><circle class="cls-1" cx="874.5" cy="624.5" r="1.5"/><circle class="cls-1" cx="924.5" cy="624.5" r="1.5"/><circle class="cls-1" cx="724.5" cy="674.5" r="1.5"/><circle class="cls-1" cx="774.5" cy="674.5" r="1.5"/><circle class="cls-1" cx="824.5" cy="674.5" r="1.5"/><circle class="cls-1" cx="874.5" cy="674.5" r="1.5"/><circle class="cls-1" cx="924.5" cy="674.5" r="1.5"/><circle class="cls-1" cx="724.5" cy="724.5" r="1.5"/><circle class="cls-1" cx="774.5" cy="724.5" r="1.5"/><circle class="cls-1" cx="824.5" cy="724.5" r="1.5"/><circle class="cls-1" cx="874.5" cy="724.5" r="1.5"/><circle class="cls-1" cx="924.5" cy="724.5" r="1.5"/><circle class="cls-1" cx="724.5" cy="774.5" r="1.5"/><circle class="cls-1" cx="774.5" cy="774.5" r="1.5"/><circle class="cls-1" cx="824.5" cy="774.5" r="1.5"/><circle class="cls-1" cx="874.5" cy="774.5" r="1.5"/><circle class="cls-1" cx="924.5" cy="774.5" r="1.5"/><circle class="cls-1" cx="724.5" cy="824.5" r="1.5"/><circle class="cls-1" cx="774.5" cy="824.5" r="1.5"/><circle class="cls-1" cx="824.5" cy="824.5" r="1.5"/><circle class="cls-1" cx="874.5" cy="824.5" r="1.5"/><circle class="cls-1" cx="924.5" cy="824.5" r="1.5"/><circle class="cls-1" cx="724.5" cy="874.5" r="1.5"/><circle class="cls-1" cx="774.5" cy="874.5" r="1.5"/><circle class="cls-1" cx="824.5" cy="874.5" r="1.5"/><circle class="cls-1" cx="874.5" cy="874.5" r="1.5"/><circle class="cls-1" cx="924.5" cy="874.5" r="1.5"/><circle class="cls-1" cx="724.5" cy="924.5" r="1.5"/><circle class="cls-1" cx="774.5" cy="924.5" r="1.5"/><circle class="cls-1" cx="824.5" cy="924.5" r="1.5"/><circle class="cls-1" cx="874.5" cy="924.5" r="1.5"/><circle class="cls-1" cx="924.5" cy="924.5" r="1.5"/><circle class="cls-1" cx="724.5" cy="974.5" r="1.5"/><circle class="cls-1" cx="774.5" cy="974.5" r="1.5"/><circle class="cls-1" cx="824.5" cy="974.5" r="1.5"/><circle class="cls-1" cx="874.5" cy="974.5" r="1.5"/><circle class="cls-1" cx="924.5" cy="974.5" r="1.5"/><circle class="cls-1" cx="724.5" cy="1024.5" r="1.5"/><circle class="cls-1" cx="774.5" cy="1024.5" r="1.5"/><circle class="cls-1" cx="824.5" cy="1024.5" r="1.5"/><circle class="cls-1" cx="874.5" cy="1024.5" r="1.5"/><circle class="cls-1" cx="924.5" cy="1024.5" r="1.5"/><circle class="cls-1" cx="974.5" cy="24.5" r="1.5"/><circle class="cls-1" cx="1024.5" cy="24.5" r="1.5"/><circle class="cls-1" cx="1074.5" cy="24.5" r="1.5"/><circle class="cls-1" cx="1124.5" cy="24.5" r="1.5"/><circle class="cls-1" cx="974.5" cy="74.5" r="1.5"/><circle class="cls-1" cx="1024.5" cy="74.5" r="1.5"/><circle class="cls-1" cx="1074.5" cy="74.5" r="1.5"/><circle class="cls-1" cx="1124.5" cy="74.5" r="1.5"/><circle class="cls-1" cx="974.5" cy="124.5" r="1.5"/><circle class="cls-1" cx="1024.5" cy="124.5" r="1.5"/><circle class="cls-1" cx="1074.5" cy="124.5" r="1.5"/><circle class="cls-1" cx="1124.5" cy="124.5" r="1.5"/><circle class="cls-1" cx="974.5" cy="174.5" r="1.5"/><circle class="cls-1" cx="1024.5" cy="174.5" r="1.5"/><circle class="cls-1" cx="1074.5" cy="174.5" r="1.5"/><circle class="cls-1" cx="1124.5" cy="174.5" r="1.5"/><circle class="cls-1" cx="974.5" cy="224.5" r="1.5"/><circle class="cls-1" cx="1024.5" cy="224.5" r="1.5"/><circle class="cls-1" cx="1074.5" cy="224.5" r="1.5"/><circle class="cls-1" cx="1124.5" cy="224.5" r="1.5"/><circle class="cls-1" cx="974.5" cy="274.5" r="1.5"/><circle class="cls-1" cx="1024.5" cy="274.5" r="1.5"/><circle class="cls-1" cx="1074.5" cy="274.5" r="1.5"/><circle class="cls-1" cx="1124.5" cy="274.5" r="1.5"/><circle class="cls-1" cx="974.5" cy="324.5" r="1.5"/><circle class="cls-1" cx="1024.5" cy="324.5" r="1.5"/><circle class="cls-1" cx="1074.5" cy="324.5" r="1.5"/><circle class="cls-1" cx="1124.5" cy="324.5" r="1.5"/><circle class="cls-1" cx="974.5" cy="374.5" r="1.5"/><circle class="cls-1" cx="1024.5" cy="374.5" r="1.5"/><circle class="cls-1" cx="1074.5" cy="374.5" r="1.5"/><circle class="cls-1" cx="1124.5" cy="374.5" r="1.5"/><circle class="cls-1" cx="974.5" cy="424.5" r="1.5"/><circle class="cls-1" cx="1024.5" cy="424.5" r="1.5"/><circle class="cls-1" cx="1074.5" cy="424.5" r="1.5"/><circle class="cls-1" cx="1124.5" cy="424.5" r="1.5"/><circle class="cls-1" cx="974.5" cy="474.5" r="1.5"/><circle class="cls-1" cx="1024.5" cy="474.5" r="1.5"/><circle class="cls-1" cx="1074.5" cy="474.5" r="1.5"/><circle class="cls-1" cx="1124.5" cy="474.5" r="1.5"/><circle class="cls-1" cx="974.5" cy="524.5" r="1.5"/><circle class="cls-1" cx="1024.5" cy="524.5" r="1.5"/><circle class="cls-1" cx="1074.5" cy="524.5" r="1.5"/><circle class="cls-1" cx="1124.5" cy="524.5" r="1.5"/><circle class="cls-1" cx="974.5" cy="574.5" r="1.5"/><circle class="cls-1" cx="1024.5" cy="574.5" r="1.5"/><circle class="cls-1" cx="1074.5" cy="574.5" r="1.5"/><circle class="cls-1" cx="1124.5" cy="574.5" r="1.5"/><circle class="cls-1" cx="974.5" cy="624.5" r="1.5"/><circle class="cls-1" cx="1024.5" cy="624.5" r="1.5"/><circle class="cls-1" cx="1074.5" cy="624.5" r="1.5"/><circle class="cls-1" cx="1124.5" cy="624.5" r="1.5"/><circle class="cls-1" cx="974.5" cy="674.5" r="1.5"/><circle class="cls-1" cx="1024.5" cy="674.5" r="1.5"/><circle class="cls-1" cx="1074.5" cy="674.5" r="1.5"/><circle class="cls-1" cx="1124.5" cy="674.5" r="1.5"/><circle class="cls-1" cx="974.5" cy="724.5" r="1.5"/><circle class="cls-1" cx="1024.5" cy="724.5" r="1.5"/><circle class="cls-1" cx="1074.5" cy="724.5" r="1.5"/><circle class="cls-1" cx="1124.5" cy="724.5" r="1.5"/><circle class="cls-1" cx="974.5" cy="774.5" r="1.5"/><circle class="cls-1" cx="1024.5" cy="774.5" r="1.5"/><circle class="cls-1" cx="1074.5" cy="774.5" r="1.5"/><circle class="cls-1" cx="1124.5" cy="774.5" r="1.5"/><circle class="cls-1" cx="974.5" cy="824.5" r="1.5"/><circle class="cls-1" cx="1024.5" cy="824.5" r="1.5"/><circle class="cls-1" cx="1074.5" cy="824.5" r="1.5"/><circle class="cls-1" cx="1124.5" cy="824.5" r="1.5"/><circle class="cls-1" cx="974.5" cy="874.5" r="1.5"/><circle class="cls-1" cx="1024.5" cy="874.5" r="1.5"/><circle class="cls-1" cx="1074.5" cy="874.5" r="1.5"/><circle class="cls-1" cx="1124.5" cy="874.5" r="1.5"/><circle class="cls-1" cx="974.5" cy="924.5" r="1.5"/><circle class="cls-1" cx="1024.5" cy="924.5" r="1.5"/><circle class="cls-1" cx="1074.5" cy="924.5" r="1.5"/><circle class="cls-1" cx="1124.5" cy="924.5" r="1.5"/><circle class="cls-1" cx="974.5" cy="974.5" r="1.5"/><circle class="cls-1" cx="1024.5" cy="974.5" r="1.5"/><circle class="cls-1" cx="1074.5" cy="974.5" r="1.5"/><circle class="cls-1" cx="1124.5" cy="974.5" r="1.5"/><circle class="cls-1" cx="974.5" cy="1024.5" r="1.5"/><circle class="cls-1" cx="1024.5" cy="1024.5" r="1.5"/><circle class="cls-1" cx="1074.5" cy="1024.5" r="1.5"/><circle class="cls-1" cx="1124.5" cy="1024.5" r="1.5"/><circle class="cls-1" cx="1174.5" cy="24.5" r="1.5"/><circle class="cls-1" cx="1224.5" cy="24.5" r="1.5"/><circle class="cls-1" cx="1274.5" cy="24.5" r="1.5"/><circle class="cls-1" cx="1324.5" cy="24.5" r="1.5"/><circle class="cls-1" cx="1374.5" cy="24.5" r="1.5"/><circle class="cls-1" cx="1174.5" cy="74.5" r="1.5"/><circle class="cls-1" cx="1224.5" cy="74.5" r="1.5"/><circle class="cls-1" cx="1274.5" cy="74.5" r="1.5"/><circle class="cls-1" cx="1324.5" cy="74.5" r="1.5"/><circle class="cls-1" cx="1374.5" cy="74.5" r="1.5"/><circle class="cls-1" cx="1174.5" cy="124.5" r="1.5"/><circle class="cls-1" cx="1224.5" cy="124.5" r="1.5"/><circle class="cls-1" cx="1274.5" cy="124.5" r="1.5"/><circle class="cls-1" cx="1324.5" cy="124.5" r="1.5"/><circle class="cls-1" cx="1374.5" cy="124.5" r="1.5"/><circle class="cls-1" cx="1174.5" cy="174.5" r="1.5"/><circle class="cls-1" cx="1224.5" cy="174.5" r="1.5"/><circle class="cls-1" cx="1274.5" cy="174.5" r="1.5"/><circle class="cls-1" cx="1324.5" cy="174.5" r="1.5"/><circle class="cls-1" cx="1374.5" cy="174.5" r="1.5"/><circle class="cls-1" cx="1174.5" cy="224.5" r="1.5"/><circle class="cls-1" cx="1224.5" cy="224.5" r="1.5"/><circle class="cls-1" cx="1274.5" cy="224.5" r="1.5"/><circle class="cls-1" cx="1324.5" cy="224.5" r="1.5"/><circle class="cls-1" cx="1374.5" cy="224.5" r="1.5"/><circle class="cls-1" cx="1174.5" cy="274.5" r="1.5"/><circle class="cls-1" cx="1224.5" cy="274.5" r="1.5"/><circle class="cls-1" cx="1274.5" cy="274.5" r="1.5"/><circle class="cls-1" cx="1324.5" cy="274.5" r="1.5"/><circle class="cls-1" cx="1374.5" cy="274.5" r="1.5"/><circle class="cls-1" cx="1174.5" cy="324.5" r="1.5"/><circle class="cls-1" cx="1224.5" cy="324.5" r="1.5"/><circle class="cls-1" cx="1274.5" cy="324.5" r="1.5"/><circle class="cls-1" cx="1324.5" cy="324.5" r="1.5"/><circle class="cls-1" cx="1374.5" cy="324.5" r="1.5"/><circle class="cls-1" cx="1174.5" cy="374.5" r="1.5"/><circle class="cls-1" cx="1224.5" cy="374.5" r="1.5"/><circle class="cls-1" cx="1274.5" cy="374.5" r="1.5"/><circle class="cls-1" cx="1324.5" cy="374.5" r="1.5"/><circle class="cls-1" cx="1374.5" cy="374.5" r="1.5"/><circle class="cls-1" cx="1174.5" cy="424.5" r="1.5"/><circle class="cls-1" cx="1224.5" cy="424.5" r="1.5"/><circle class="cls-1" cx="1274.5" cy="424.5" r="1.5"/><circle class="cls-1" cx="1324.5" cy="424.5" r="1.5"/><circle class="cls-1" cx="1374.5" cy="424.5" r="1.5"/><circle class="cls-1" cx="1174.5" cy="474.5" r="1.5"/><circle class="cls-1" cx="1224.5" cy="474.5" r="1.5"/><circle class="cls-1" cx="1274.5" cy="474.5" r="1.5"/><circle class="cls-1" cx="1324.5" cy="474.5" r="1.5"/><circle class="cls-1" cx="1374.5" cy="474.5" r="1.5"/><circle class="cls-1" cx="1174.5" cy="524.5" r="1.5"/><circle class="cls-1" cx="1224.5" cy="524.5" r="1.5"/><circle class="cls-1" cx="1274.5" cy="524.5" r="1.5"/><circle class="cls-1" cx="1324.5" cy="524.5" r="1.5"/><circle class="cls-1" cx="1374.5" cy="524.5" r="1.5"/><circle class="cls-1" cx="1174.5" cy="574.5" r="1.5"/><circle class="cls-1" cx="1224.5" cy="574.5" r="1.5"/><circle class="cls-1" cx="1274.5" cy="574.5" r="1.5"/><circle class="cls-1" cx="1324.5" cy="574.5" r="1.5"/><circle class="cls-1" cx="1374.5" cy="574.5" r="1.5"/><circle class="cls-1" cx="1174.5" cy="624.5" r="1.5"/><circle class="cls-1" cx="1224.5" cy="624.5" r="1.5"/><circle class="cls-1" cx="1274.5" cy="624.5" r="1.5"/><circle class="cls-1" cx="1324.5" cy="624.5" r="1.5"/><circle class="cls-1" cx="1374.5" cy="624.5" r="1.5"/><circle class="cls-1" cx="1174.5" cy="674.5" r="1.5"/><circle class="cls-1" cx="1224.5" cy="674.5" r="1.5"/><circle class="cls-1" cx="1274.5" cy="674.5" r="1.5"/><circle class="cls-1" cx="1324.5" cy="674.5" r="1.5"/><circle class="cls-1" cx="1374.5" cy="674.5" r="1.5"/><circle class="cls-1" cx="1174.5" cy="724.5" r="1.5"/><circle class="cls-1" cx="1224.5" cy="724.5" r="1.5"/><circle class="cls-1" cx="1274.5" cy="724.5" r="1.5"/><circle class="cls-1" cx="1324.5" cy="724.5" r="1.5"/><circle class="cls-1" cx="1374.5" cy="724.5" r="1.5"/><circle class="cls-1" cx="1174.5" cy="774.5" r="1.5"/><circle class="cls-1" cx="1224.5" cy="774.5" r="1.5"/><circle class="cls-1" cx="1274.5" cy="774.5" r="1.5"/><circle class="cls-1" cx="1324.5" cy="774.5" r="1.5"/><circle class="cls-1" cx="1374.5" cy="774.5" r="1.5"/><circle class="cls-1" cx="1174.5" cy="824.5" r="1.5"/><circle class="cls-1" cx="1224.5" cy="824.5" r="1.5"/><circle class="cls-1" cx="1274.5" cy="824.5" r="1.5"/><circle class="cls-1" cx="1324.5" cy="824.5" r="1.5"/><circle class="cls-1" cx="1374.5" cy="824.5" r="1.5"/><circle class="cls-1" cx="1174.5" cy="874.5" r="1.5"/><circle class="cls-1" cx="1224.5" cy="874.5" r="1.5"/><circle class="cls-1" cx="1274.5" cy="874.5" r="1.5"/><circle class="cls-1" cx="1324.5" cy="874.5" r="1.5"/><circle class="cls-1" cx="1374.5" cy="874.5" r="1.5"/><circle class="cls-1" cx="1174.5" cy="924.5" r="1.5"/><circle class="cls-1" cx="1224.5" cy="924.5" r="1.5"/><circle class="cls-1" cx="1274.5" cy="924.5" r="1.5"/><circle class="cls-1" cx="1324.5" cy="924.5" r="1.5"/><circle class="cls-1" cx="1374.5" cy="924.5" r="1.5"/><circle class="cls-1" cx="1174.5" cy="974.5" r="1.5"/><circle class="cls-1" cx="1224.5" cy="974.5" r="1.5"/><circle class="cls-1" cx="1274.5" cy="974.5" r="1.5"/><circle class="cls-1" cx="1324.5" cy="974.5" r="1.5"/><circle class="cls-1" cx="1374.5" cy="974.5" r="1.5"/><circle class="cls-1" cx="1174.5" cy="1024.5" r="1.5"/><circle class="cls-1" cx="1224.5" cy="1024.5" r="1.5"/><circle class="cls-1" cx="1274.5" cy="1024.5" r="1.5"/><circle class="cls-1" cx="1324.5" cy="1024.5" r="1.5"/><circle class="cls-1" cx="1374.5" cy="1024.5" r="1.5"/><circle class="cls-1" cx="1424.5" cy="24.5" r="1.5"/><circle class="cls-1" cx="1474.5" cy="24.5" r="1.5"/><circle class="cls-1" cx="1524.5" cy="24.5" r="1.5"/><circle class="cls-1" cx="1574.5" cy="24.5" r="1.5"/><circle class="cls-1" cx="1624.5" cy="24.5" r="1.5"/><circle class="cls-1" cx="1424.5" cy="74.5" r="1.5"/><circle class="cls-1" cx="1474.5" cy="74.5" r="1.5"/><circle class="cls-1" cx="1524.5" cy="74.5" r="1.5"/><circle class="cls-1" cx="1574.5" cy="74.5" r="1.5"/><circle class="cls-1" cx="1624.5" cy="74.5" r="1.5"/><circle class="cls-1" cx="1424.5" cy="124.5" r="1.5"/><circle class="cls-1" cx="1474.5" cy="124.5" r="1.5"/><circle class="cls-1" cx="1524.5" cy="124.5" r="1.5"/><circle class="cls-1" cx="1574.5" cy="124.5" r="1.5"/><circle class="cls-1" cx="1624.5" cy="124.5" r="1.5"/><circle class="cls-1" cx="1424.5" cy="174.5" r="1.5"/><circle class="cls-1" cx="1474.5" cy="174.5" r="1.5"/><circle class="cls-1" cx="1524.5" cy="174.5" r="1.5"/><circle class="cls-1" cx="1574.5" cy="174.5" r="1.5"/><circle class="cls-1" cx="1624.5" cy="174.5" r="1.5"/><circle class="cls-1" cx="1424.5" cy="224.5" r="1.5"/><circle class="cls-1" cx="1474.5" cy="224.5" r="1.5"/><circle class="cls-1" cx="1524.5" cy="224.5" r="1.5"/><circle class="cls-1" cx="1574.5" cy="224.5" r="1.5"/><circle class="cls-1" cx="1624.5" cy="224.5" r="1.5"/><circle class="cls-1" cx="1424.5" cy="274.5" r="1.5"/><circle class="cls-1" cx="1474.5" cy="274.5" r="1.5"/><circle class="cls-1" cx="1524.5" cy="274.5" r="1.5"/><circle class="cls-1" cx="1574.5" cy="274.5" r="1.5"/><circle class="cls-1" cx="1624.5" cy="274.5" r="1.5"/><circle class="cls-1" cx="1424.5" cy="324.5" r="1.5"/><circle class="cls-1" cx="1474.5" cy="324.5" r="1.5"/><circle class="cls-1" cx="1524.5" cy="324.5" r="1.5"/><circle class="cls-1" cx="1574.5" cy="324.5" r="1.5"/><circle class="cls-1" cx="1624.5" cy="324.5" r="1.5"/><circle class="cls-1" cx="1424.5" cy="374.5" r="1.5"/><circle class="cls-1" cx="1474.5" cy="374.5" r="1.5"/><circle class="cls-1" cx="1524.5" cy="374.5" r="1.5"/><circle class="cls-1" cx="1574.5" cy="374.5" r="1.5"/><circle class="cls-1" cx="1624.5" cy="374.5" r="1.5"/><circle class="cls-1" cx="1424.5" cy="424.5" r="1.5"/><circle class="cls-1" cx="1474.5" cy="424.5" r="1.5"/><circle class="cls-1" cx="1524.5" cy="424.5" r="1.5"/><circle class="cls-1" cx="1574.5" cy="424.5" r="1.5"/><circle class="cls-1" cx="1624.5" cy="424.5" r="1.5"/><circle class="cls-1" cx="1424.5" cy="474.5" r="1.5"/><circle class="cls-1" cx="1474.5" cy="474.5" r="1.5"/><circle class="cls-1" cx="1524.5" cy="474.5" r="1.5"/><circle class="cls-1" cx="1574.5" cy="474.5" r="1.5"/><circle class="cls-1" cx="1624.5" cy="474.5" r="1.5"/><circle class="cls-1" cx="1424.5" cy="524.5" r="1.5"/><circle class="cls-1" cx="1474.5" cy="524.5" r="1.5"/><circle class="cls-1" cx="1524.5" cy="524.5" r="1.5"/><circle class="cls-1" cx="1574.5" cy="524.5" r="1.5"/><circle class="cls-1" cx="1624.5" cy="524.5" r="1.5"/><circle class="cls-1" cx="1424.5" cy="574.5" r="1.5"/><circle class="cls-1" cx="1474.5" cy="574.5" r="1.5"/><circle class="cls-1" cx="1524.5" cy="574.5" r="1.5"/><circle class="cls-1" cx="1574.5" cy="574.5" r="1.5"/><circle class="cls-1" cx="1624.5" cy="574.5" r="1.5"/><circle class="cls-1" cx="1424.5" cy="624.5" r="1.5"/><circle class="cls-1" cx="1474.5" cy="624.5" r="1.5"/><circle class="cls-1" cx="1524.5" cy="624.5" r="1.5"/><circle class="cls-1" cx="1574.5" cy="624.5" r="1.5"/><circle class="cls-1" cx="1624.5" cy="624.5" r="1.5"/><circle class="cls-1" cx="1424.5" cy="674.5" r="1.5"/><circle class="cls-1" cx="1474.5" cy="674.5" r="1.5"/><circle class="cls-1" cx="1524.5" cy="674.5" r="1.5"/><circle class="cls-1" cx="1574.5" cy="674.5" r="1.5"/><circle class="cls-1" cx="1624.5" cy="674.5" r="1.5"/><circle class="cls-1" cx="1424.5" cy="724.5" r="1.5"/><circle class="cls-1" cx="1474.5" cy="724.5" r="1.5"/><circle class="cls-1" cx="1524.5" cy="724.5" r="1.5"/><circle class="cls-1" cx="1574.5" cy="724.5" r="1.5"/><circle class="cls-1" cx="1624.5" cy="724.5" r="1.5"/><circle class="cls-1" cx="1424.5" cy="774.5" r="1.5"/><circle class="cls-1" cx="1474.5" cy="774.5" r="1.5"/><circle class="cls-1" cx="1524.5" cy="774.5" r="1.5"/><circle class="cls-1" cx="1574.5" cy="774.5" r="1.5"/><circle class="cls-1" cx="1624.5" cy="774.5" r="1.5"/><circle class="cls-1" cx="1424.5" cy="824.5" r="1.5"/><circle class="cls-1" cx="1474.5" cy="824.5" r="1.5"/><circle class="cls-1" cx="1524.5" cy="824.5" r="1.5"/><circle class="cls-1" cx="1574.5" cy="824.5" r="1.5"/><circle class="cls-1" cx="1624.5" cy="824.5" r="1.5"/><circle class="cls-1" cx="1424.5" cy="874.5" r="1.5"/><circle class="cls-1" cx="1474.5" cy="874.5" r="1.5"/><circle class="cls-1" cx="1524.5" cy="874.5" r="1.5"/><circle class="cls-1" cx="1574.5" cy="874.5" r="1.5"/><circle class="cls-1" cx="1624.5" cy="874.5" r="1.5"/><circle class="cls-1" cx="1424.5" cy="924.5" r="1.5"/><circle class="cls-1" cx="1474.5" cy="924.5" r="1.5"/><circle class="cls-1" cx="1524.5" cy="924.5" r="1.5"/><circle class="cls-1" cx="1574.5" cy="924.5" r="1.5"/><circle class="cls-1" cx="1624.5" cy="924.5" r="1.5"/><circle class="cls-1" cx="1424.5" cy="974.5" r="1.5"/><circle class="cls-1" cx="1474.5" cy="974.5" r="1.5"/><circle class="cls-1" cx="1524.5" cy="974.5" r="1.5"/><circle class="cls-1" cx="1574.5" cy="974.5" r="1.5"/><circle class="cls-1" cx="1624.5" cy="974.5" r="1.5"/><circle class="cls-1" cx="1424.5" cy="1024.5" r="1.5"/><circle class="cls-1" cx="1474.5" cy="1024.5" r="1.5"/><circle class="cls-1" cx="1524.5" cy="1024.5" r="1.5"/><circle class="cls-1" cx="1574.5" cy="1024.5" r="1.5"/><circle class="cls-1" cx="1624.5" cy="1024.5" r="1.5"/><circle class="cls-1" cx="1674.5" cy="24.5" r="1.5"/><circle class="cls-1" cx="1724.5" cy="24.5" r="1.5"/><circle class="cls-1" cx="1774.5" cy="24.5" r="1.5"/><circle class="cls-1" cx="1824.5" cy="24.5" r="1.5"/><circle class="cls-1" cx="1874.5" cy="24.5" r="1.5"/><circle class="cls-1" cx="1674.5" cy="74.5" r="1.5"/><circle class="cls-1" cx="1724.5" cy="74.5" r="1.5"/><circle class="cls-1" cx="1774.5" cy="74.5" r="1.5"/><circle class="cls-1" cx="1824.5" cy="74.5" r="1.5"/><circle class="cls-1" cx="1874.5" cy="74.5" r="1.5"/><circle class="cls-1" cx="1674.5" cy="124.5" r="1.5"/><circle class="cls-1" cx="1724.5" cy="124.5" r="1.5"/><circle class="cls-1" cx="1774.5" cy="124.5" r="1.5"/><circle class="cls-1" cx="1824.5" cy="124.5" r="1.5"/><circle class="cls-1" cx="1874.5" cy="124.5" r="1.5"/><circle class="cls-1" cx="1674.5" cy="174.5" r="1.5"/><circle class="cls-1" cx="1724.5" cy="174.5" r="1.5"/><circle class="cls-1" cx="1774.5" cy="174.5" r="1.5"/><circle class="cls-1" cx="1824.5" cy="174.5" r="1.5"/><circle class="cls-1" cx="1874.5" cy="174.5" r="1.5"/><circle class="cls-1" cx="1674.5" cy="224.5" r="1.5"/><circle class="cls-1" cx="1724.5" cy="224.5" r="1.5"/><circle class="cls-1" cx="1774.5" cy="224.5" r="1.5"/><circle class="cls-1" cx="1824.5" cy="224.5" r="1.5"/><circle class="cls-1" cx="1874.5" cy="224.5" r="1.5"/><circle class="cls-1" cx="1674.5" cy="274.5" r="1.5"/><circle class="cls-1" cx="1724.5" cy="274.5" r="1.5"/><circle class="cls-1" cx="1774.5" cy="274.5" r="1.5"/><circle class="cls-1" cx="1824.5" cy="274.5" r="1.5"/><circle class="cls-1" cx="1874.5" cy="274.5" r="1.5"/><circle class="cls-1" cx="1674.5" cy="324.5" r="1.5"/><circle class="cls-1" cx="1724.5" cy="324.5" r="1.5"/><circle class="cls-1" cx="1774.5" cy="324.5" r="1.5"/><circle class="cls-1" cx="1824.5" cy="324.5" r="1.5"/><circle class="cls-1" cx="1874.5" cy="324.5" r="1.5"/><circle class="cls-1" cx="1674.5" cy="374.5" r="1.5"/><circle class="cls-1" cx="1724.5" cy="374.5" r="1.5"/><circle class="cls-1" cx="1774.5" cy="374.5" r="1.5"/><circle class="cls-1" cx="1824.5" cy="374.5" r="1.5"/><circle class="cls-1" cx="1874.5" cy="374.5" r="1.5"/><circle class="cls-1" cx="1674.5" cy="424.5" r="1.5"/><circle class="cls-1" cx="1724.5" cy="424.5" r="1.5"/><circle class="cls-1" cx="1774.5" cy="424.5" r="1.5"/><circle class="cls-1" cx="1824.5" cy="424.5" r="1.5"/><circle class="cls-1" cx="1874.5" cy="424.5" r="1.5"/><circle class="cls-1" cx="1674.5" cy="474.5" r="1.5"/><circle class="cls-1" cx="1724.5" cy="474.5" r="1.5"/><circle class="cls-1" cx="1774.5" cy="474.5" r="1.5"/><circle class="cls-1" cx="1824.5" cy="474.5" r="1.5"/><circle class="cls-1" cx="1874.5" cy="474.5" r="1.5"/><circle class="cls-1" cx="1674.5" cy="524.5" r="1.5"/><circle class="cls-1" cx="1724.5" cy="524.5" r="1.5"/><circle class="cls-1" cx="1774.5" cy="524.5" r="1.5"/><circle class="cls-1" cx="1824.5" cy="524.5" r="1.5"/><circle class="cls-1" cx="1874.5" cy="524.5" r="1.5"/><circle class="cls-1" cx="1674.5" cy="574.5" r="1.5"/><circle class="cls-1" cx="1724.5" cy="574.5" r="1.5"/><circle class="cls-1" cx="1774.5" cy="574.5" r="1.5"/><circle class="cls-1" cx="1824.5" cy="574.5" r="1.5"/><circle class="cls-1" cx="1874.5" cy="574.5" r="1.5"/><circle class="cls-1" cx="1674.5" cy="624.5" r="1.5"/><circle class="cls-1" cx="1724.5" cy="624.5" r="1.5"/><circle class="cls-1" cx="1774.5" cy="624.5" r="1.5"/><circle class="cls-1" cx="1824.5" cy="624.5" r="1.5"/><circle class="cls-1" cx="1874.5" cy="624.5" r="1.5"/><circle class="cls-1" cx="1674.5" cy="674.5" r="1.5"/><circle class="cls-1" cx="1724.5" cy="674.5" r="1.5"/><circle class="cls-1" cx="1774.5" cy="674.5" r="1.5"/><circle class="cls-1" cx="1824.5" cy="674.5" r="1.5"/><circle class="cls-1" cx="1874.5" cy="674.5" r="1.5"/><circle class="cls-1" cx="1674.5" cy="724.5" r="1.5"/><circle class="cls-1" cx="1724.5" cy="724.5" r="1.5"/><circle class="cls-1" cx="1774.5" cy="724.5" r="1.5"/><circle class="cls-1" cx="1824.5" cy="724.5" r="1.5"/><circle class="cls-1" cx="1874.5" cy="724.5" r="1.5"/><circle class="cls-1" cx="1674.5" cy="774.5" r="1.5"/><circle class="cls-1" cx="1724.5" cy="774.5" r="1.5"/><circle class="cls-1" cx="1774.5" cy="774.5" r="1.5"/><circle class="cls-1" cx="1824.5" cy="774.5" r="1.5"/><circle class="cls-1" cx="1874.5" cy="774.5" r="1.5"/><circle class="cls-1" cx="1674.5" cy="824.5" r="1.5"/><circle class="cls-1" cx="1724.5" cy="824.5" r="1.5"/><circle class="cls-1" cx="1774.5" cy="824.5" r="1.5"/><circle class="cls-1" cx="1824.5" cy="824.5" r="1.5"/><circle class="cls-1" cx="1874.5" cy="824.5" r="1.5"/><circle class="cls-1" cx="1674.5" cy="874.5" r="1.5"/><circle class="cls-1" cx="1724.5" cy="874.5" r="1.5"/><circle class="cls-1" cx="1774.5" cy="874.5" r="1.5"/><circle class="cls-1" cx="1824.5" cy="874.5" r="1.5"/><circle class="cls-1" cx="1874.5" cy="874.5" r="1.5"/><circle class="cls-1" cx="1674.5" cy="924.5" r="1.5"/><circle class="cls-1" cx="1724.5" cy="924.5" r="1.5"/><circle class="cls-1" cx="1774.5" cy="924.5" r="1.5"/><circle class="cls-1" cx="1824.5" cy="924.5" r="1.5"/><circle class="cls-1" cx="1874.5" cy="924.5" r="1.5"/><circle class="cls-1" cx="1674.5" cy="974.5" r="1.5"/><circle class="cls-1" cx="1724.5" cy="974.5" r="1.5"/><circle class="cls-1" cx="1774.5" cy="974.5" r="1.5"/><circle class="cls-1" cx="1824.5" cy="974.5" r="1.5"/><circle class="cls-1" cx="1874.5" cy="974.5" r="1.5"/><circle class="cls-1" cx="1674.5" cy="1024.5" r="1.5"/><circle class="cls-1" cx="1724.5" cy="1024.5" r="1.5"/><circle class="cls-1" cx="1774.5" cy="1024.5" r="1.5"/><circle class="cls-1" cx="1824.5" cy="1024.5" r="1.5"/><circle class="cls-1" cx="1874.5" cy="1024.5" r="1.5"/></svg>