<svg id="multicolor" xmlns="http://www.w3.org/2000/svg" viewBox="0 0 1909 1909" style="opacity:0.2"><defs><style>.cls-1{fill:#2d2f2e;}.cls-2{fill:#696868;}.cls-3{fill:#4f4e4e;}.cls-4{fill:#878686;}</style></defs><polygon class="cls-1" points="-0.5 1908.5 1908.5 1908.5 1908.5 -0.5 1718.08 -0.5 1717.95 -0.36 1717.81 -0.5 1527.16 -0.5 1527.03 -0.36 1526.89 -0.5 1336.24 -0.5 1336.11 -0.36 1335.97 -0.5 1145.33 -0.5 1145.19 -0.36 1145.05 -0.5 954.41 -0.5 954.27 -0.36 954.13 -0.5 763.49 -0.5 763.35 -0.36 763.22 -0.5 572.57 -0.5 572.43 -0.36 572.3 -0.5 381.65 -0.5 381.51 -0.36 381.38 -0.5 190.73 -0.5 190.59 -0.36 190.46 -0.5 -0.19 -0.5 -0.32 -0.36 -0.5 -0.19 -0.5 190.38 -0.32 190.55 -0.5 190.73 -0.5 381.3 -0.32 381.47 -0.5 381.65 -0.5 572.22 -0.32 572.39 -0.5 572.57 -0.5 763.13 -0.32 763.31 -0.5 763.49 -0.5 954.05 -0.32 954.23 -0.5 954.41 -0.5 1144.97 -0.32 1145.15 -0.5 1145.33 -0.5 1335.89 -0.32 1336.07 -0.5 1336.24 -0.5 1526.81 -0.32 1526.99 -0.5 1527.16 -0.5 1717.73 -0.32 1717.9 -0.5 1718.08 -0.5 1908.5"/><g id="regular"><rect class="cls-2" x="129.84" y="416.18" width="121.5" height="121.5" transform="translate(393.07 4.92) rotate(45)"/><rect class="cls-2" x="225.3" y="320.72" width="121.5" height="121.5" transform="translate(353.53 -90.54) rotate(45)"/><rect class="cls-2" x="320.76" y="225.26" width="121.5" height="121.5" transform="translate(313.99 -186) rotate(45)"/><rect class="cls-2" x="416.22" y="129.8" width="121.5" height="121.5" transform="translate(274.44 -281.46) rotate(45)"/><rect class="cls-2" x="511.68" y="34.34" width="121.5" height="121.5" transform="translate(234.9 -376.92) rotate(45)"/><rect class="cls-2" x="34.39" y="702.56" width="121.5" height="121.5" transform="translate(567.61 156.3) rotate(45)"/><rect class="cls-2" x="129.84" y="607.1" width="121.5" height="121.5" transform="translate(528.07 60.84) rotate(45)"/><rect class="cls-2" x="225.3" y="511.64" width="121.5" height="121.5" transform="translate(488.53 -34.62) rotate(45)"/><rect class="cls-2" x="320.76" y="416.18" width="121.5" height="121.5" transform="translate(448.99 -130.08) rotate(45)"/><rect class="cls-2" x="416.22" y="320.72" width="121.5" height="121.5" transform="translate(409.44 -225.54) rotate(45)"/><rect class="cls-2" x="511.68" y="225.26" width="121.5" height="121.5" transform="translate(369.9 -321) rotate(45)"/><rect class="cls-2" x="607.14" y="129.8" width="121.5" height="121.5" transform="translate(330.36 -416.46) rotate(45)"/><rect class="cls-2" x="702.6" y="34.34" width="121.5" height="121.5" transform="translate(290.82 -511.92) rotate(45)"/><polygon class="cls-2" points="858.81 85.55 944.72 -0.36 944.59 -0.5 773.03 -0.5 772.9 -0.36 858.81 85.55"/><rect class="cls-2" x="129.84" y="798.02" width="121.5" height="121.5" transform="translate(663.07 116.76) rotate(45)"/><rect class="cls-2" x="225.3" y="702.56" width="121.5" height="121.5" transform="translate(623.53 21.3) rotate(45)"/><rect class="cls-2" x="320.76" y="607.1" width="121.5" height="121.5" transform="translate(583.99 -74.16) rotate(45)"/><rect class="cls-2" x="416.22" y="511.64" width="121.5" height="121.5" transform="translate(544.44 -169.62) rotate(45)"/><rect class="cls-2" x="511.68" y="416.18" width="121.5" height="121.5" transform="translate(504.9 -265.08) rotate(45)"/><rect class="cls-2" x="607.14" y="320.72" width="121.5" height="121.5" transform="translate(465.36 -360.54) rotate(45)"/><rect class="cls-2" x="702.6" y="225.26" width="121.5" height="121.5" transform="translate(425.82 -456) rotate(45)"/><rect class="cls-2" x="798.06" y="129.8" width="121.5" height="121.5" transform="translate(386.28 -551.46) rotate(45)"/><rect class="cls-2" x="893.52" y="34.34" width="121.5" height="121.5" transform="translate(346.74 -646.92) rotate(45)"/><polygon class="cls-2" points="1049.73 85.55 1135.64 -0.36 1135.51 -0.5 963.95 -0.5 963.82 -0.36 1049.73 85.55"/><rect class="cls-2" x="225.3" y="893.48" width="121.5" height="121.5" transform="translate(758.53 77.22) rotate(45)"/><rect class="cls-2" x="320.76" y="798.02" width="121.5" height="121.5" transform="translate(718.99 -18.24) rotate(45)"/><rect class="cls-2" x="511.68" y="607.1" width="121.5" height="121.5" transform="translate(639.9 -209.16) rotate(45)"/><rect class="cls-2" x="607.14" y="511.64" width="121.5" height="121.5" transform="translate(600.36 -304.62) rotate(45)"/><rect class="cls-2" x="702.6" y="416.18" width="121.5" height="121.5" transform="translate(560.82 -400.08) rotate(45)"/><rect class="cls-2" x="893.52" y="225.26" width="121.5" height="121.5" transform="translate(481.74 -591) rotate(45)"/><rect class="cls-2" x="988.98" y="129.8" width="121.5" height="121.5" transform="translate(442.2 -686.46) rotate(45)"/><rect class="cls-2" x="1084.44" y="34.34" width="121.5" height="121.5" transform="translate(402.66 -781.92) rotate(45)"/><polygon class="cls-2" points="1240.65 85.55 1326.56 -0.36 1326.43 -0.5 1154.87 -0.5 1154.73 -0.36 1240.65 85.55"/><rect class="cls-2" x="320.76" y="988.94" width="121.5" height="121.5" transform="translate(853.99 37.68) rotate(45)"/><rect class="cls-2" x="416.22" y="893.48" width="121.5" height="121.5" transform="translate(814.44 -57.78) rotate(45)"/><rect class="cls-2" x="511.68" y="798.02" width="121.5" height="121.5" transform="translate(774.9 -153.24) rotate(45)"/><rect class="cls-2" x="607.14" y="702.56" width="121.5" height="121.5" transform="translate(735.36 -248.7) rotate(45)"/><rect class="cls-2" x="702.6" y="607.1" width="121.5" height="121.5" transform="translate(695.82 -344.16) rotate(45)"/><rect class="cls-2" x="798.06" y="511.64" width="121.5" height="121.5" transform="translate(656.28 -439.62) rotate(45)"/><rect class="cls-2" x="893.52" y="416.18" width="121.5" height="121.5" transform="translate(616.74 -535.08) rotate(45)"/><rect class="cls-2" x="988.98" y="320.72" width="121.5" height="121.5" transform="translate(577.2 -630.54) rotate(45)"/><rect class="cls-2" x="1084.44" y="225.26" width="121.5" height="121.5" transform="translate(537.66 -726) rotate(45)"/><rect class="cls-2" x="1179.9" y="129.8" width="121.5" height="121.5" transform="translate(498.12 -821.46) rotate(45)"/><rect class="cls-2" x="1275.36" y="34.34" width="121.5" height="121.5" transform="translate(458.58 -916.92) rotate(45)"/><polygon class="cls-2" points="1431.57 85.55 1517.48 -0.36 1517.35 -0.5 1345.79 -0.5 1345.65 -0.36 1431.57 85.55"/><rect class="cls-2" x="416.22" y="1084.4" width="121.5" height="121.5" transform="translate(949.44 -1.86) rotate(45)"/><rect class="cls-2" x="511.68" y="988.94" width="121.5" height="121.5" transform="translate(909.9 -97.32) rotate(45)"/><rect class="cls-2" x="607.14" y="893.48" width="121.5" height="121.5" transform="translate(870.36 -192.78) rotate(45)"/><rect class="cls-2" x="702.6" y="798.02" width="121.5" height="121.5" transform="translate(830.82 -288.24) rotate(45)"/><rect class="cls-2" x="798.06" y="702.56" width="121.5" height="121.5" transform="translate(791.28 -383.7) rotate(45)"/><rect class="cls-2" x="893.52" y="607.1" width="121.5" height="121.5" transform="translate(751.74 -479.16) rotate(45)"/><rect class="cls-2" x="988.98" y="511.64" width="121.5" height="121.5" transform="translate(712.2 -574.62) rotate(45)"/><rect class="cls-2" x="1084.44" y="416.18" width="121.5" height="121.5" transform="translate(672.66 -670.08) rotate(45)"/><rect class="cls-2" x="1179.9" y="320.72" width="121.5" height="121.5" transform="translate(633.12 -765.54) rotate(45)"/><rect class="cls-2" x="1275.36" y="225.26" width="121.5" height="121.5" transform="translate(593.58 -861) rotate(45)"/><rect class="cls-2" x="1370.82" y="129.8" width="121.5" height="121.5" transform="translate(554.04 -956.46) rotate(45)"/><rect class="cls-2" x="1466.28" y="34.34" width="121.5" height="121.5" transform="translate(514.5 -1051.92) rotate(45)"/><rect class="cls-2" x="511.68" y="1179.86" width="121.5" height="121.5" transform="translate(1044.9 -41.41) rotate(45)"/><rect class="cls-2" x="607.14" y="1084.4" width="121.5" height="121.5" transform="translate(1005.36 -136.86) rotate(45)"/><rect class="cls-2" x="702.6" y="988.94" width="121.5" height="121.5" transform="translate(965.82 -232.32) rotate(45)"/><rect class="cls-2" x="798.06" y="893.48" width="121.5" height="121.5" transform="translate(926.28 -327.78) rotate(45)"/><rect class="cls-2" x="893.52" y="798.02" width="121.5" height="121.5" transform="translate(886.74 -423.24) rotate(45)"/><rect class="cls-2" x="988.98" y="702.56" width="121.5" height="121.5" transform="translate(847.2 -518.7) rotate(45)"/><rect class="cls-2" x="1084.44" y="607.1" width="121.5" height="121.5" transform="translate(807.66 -614.16) rotate(45)"/><rect class="cls-2" x="1179.9" y="511.64" width="121.5" height="121.5" transform="translate(768.12 -709.62) rotate(45)"/><rect class="cls-2" x="1275.36" y="416.18" width="121.5" height="121.5" transform="translate(728.58 -805.08) rotate(45)"/><rect class="cls-2" x="1466.28" y="225.26" width="121.5" height="121.5" transform="translate(649.5 -996) rotate(45)"/><rect class="cls-2" x="1561.74" y="129.8" width="121.5" height="121.5" transform="translate(609.96 -1091.46) rotate(45)"/><rect class="cls-2" x="607.14" y="1275.32" width="121.5" height="121.5" transform="translate(1140.36 -80.95) rotate(45)"/><rect class="cls-2" x="702.6" y="1179.86" width="121.5" height="121.5" transform="translate(1100.82 -176.41) rotate(45)"/><rect class="cls-2" x="798.06" y="1084.4" width="121.5" height="121.5" transform="translate(1061.28 -271.86) rotate(45)"/><rect class="cls-2" x="893.52" y="988.94" width="121.5" height="121.5" transform="translate(1021.74 -367.32) rotate(45)"/><rect class="cls-2" x="988.98" y="893.48" width="121.5" height="121.5" transform="translate(982.2 -462.78) rotate(45)"/><rect class="cls-2" x="1084.44" y="798.02" width="121.5" height="121.5" transform="translate(942.66 -558.24) rotate(45)"/><rect class="cls-2" x="1179.9" y="702.56" width="121.5" height="121.5" transform="translate(903.12 -653.7) rotate(45)"/><rect class="cls-2" x="1275.36" y="607.1" width="121.5" height="121.5" transform="translate(863.58 -749.16) rotate(45)"/><rect class="cls-2" x="1370.82" y="511.64" width="121.5" height="121.5" transform="translate(824.04 -844.62) rotate(45)"/><rect class="cls-2" x="1466.28" y="416.18" width="121.5" height="121.5" transform="translate(784.5 -940.08) rotate(45)"/><rect class="cls-2" x="1561.74" y="320.72" width="121.5" height="121.5" transform="translate(744.96 -1035.54) rotate(45)"/><rect class="cls-2" x="1657.2" y="225.26" width="121.5" height="121.5" transform="translate(705.42 -1131) rotate(45)"/><rect class="cls-2" x="702.6" y="1370.78" width="121.5" height="121.5" transform="translate(1235.82 -120.49) rotate(45)"/><rect class="cls-2" x="798.06" y="1275.32" width="121.5" height="121.5" transform="translate(1196.28 -215.95) rotate(45)"/><rect class="cls-2" x="893.52" y="1179.86" width="121.5" height="121.5" transform="translate(1156.74 -311.41) rotate(45)"/><rect class="cls-2" x="988.98" y="1084.4" width="121.5" height="121.5" transform="translate(1117.2 -406.86) rotate(45)"/><rect class="cls-2" x="1084.44" y="988.94" width="121.5" height="121.5" transform="translate(1077.66 -502.32) rotate(45)"/><rect class="cls-2" x="1179.9" y="893.48" width="121.5" height="121.5" transform="translate(1038.12 -597.78) rotate(45)"/><rect class="cls-2" x="1275.36" y="798.02" width="121.5" height="121.5" transform="translate(998.58 -693.24) rotate(45)"/><rect class="cls-2" x="1370.82" y="702.56" width="121.5" height="121.5" transform="translate(959.04 -788.7) rotate(45)"/><rect class="cls-2" x="1466.28" y="607.1" width="121.5" height="121.5" transform="translate(919.5 -884.16) rotate(45)"/><rect class="cls-2" x="1561.74" y="511.64" width="121.5" height="121.5" transform="translate(879.96 -979.62) rotate(45)"/><rect class="cls-2" x="1657.2" y="416.18" width="121.5" height="121.5" transform="translate(840.42 -1075.08) rotate(45)"/><rect class="cls-2" x="1752.66" y="320.72" width="121.5" height="121.5" transform="translate(800.88 -1170.54) rotate(45)"/><rect class="cls-2" x="798.06" y="1466.24" width="121.5" height="121.5" transform="translate(1331.28 -160.03) rotate(45)"/><rect class="cls-2" x="893.52" y="1370.78" width="121.5" height="121.5" transform="translate(1291.74 -255.49) rotate(45)"/><rect class="cls-2" x="988.98" y="1275.32" width="121.5" height="121.5" transform="translate(1252.2 -350.95) rotate(45)"/><rect class="cls-2" x="1084.44" y="1179.86" width="121.5" height="121.5" transform="translate(1212.66 -446.41) rotate(45)"/><rect class="cls-2" x="1179.9" y="1084.4" width="121.5" height="121.5" transform="translate(1173.12 -541.86) rotate(45)"/><rect class="cls-2" x="1275.36" y="988.94" width="121.5" height="121.5" transform="translate(1133.58 -637.32) rotate(45)"/><rect class="cls-2" x="1466.28" y="798.02" width="121.5" height="121.5" transform="translate(1054.5 -828.24) rotate(45)"/><rect class="cls-2" x="1561.74" y="702.56" width="121.5" height="121.5" transform="translate(1014.96 -923.7) rotate(45)"/><rect class="cls-2" x="1657.2" y="607.1" width="121.5" height="121.5" transform="translate(975.42 -1019.16) rotate(45)"/><rect class="cls-2" x="1752.66" y="511.64" width="121.5" height="121.5" transform="translate(935.88 -1114.62) rotate(45)"/><rect class="cls-2" x="893.52" y="1561.7" width="121.5" height="121.5" transform="translate(1426.74 -199.57) rotate(45)"/><rect class="cls-2" x="988.98" y="1466.24" width="121.5" height="121.5" transform="translate(1387.2 -295.03) rotate(45)"/><rect class="cls-2" x="1179.9" y="1275.32" width="121.5" height="121.5" transform="translate(1308.12 -485.95) rotate(45)"/><rect class="cls-2" x="1275.36" y="1179.86" width="121.5" height="121.5" transform="translate(1268.58 -581.41) rotate(45)"/><rect class="cls-2" x="1370.82" y="1084.4" width="121.5" height="121.5" transform="translate(1229.04 -676.86) rotate(45)"/><rect class="cls-2" x="1466.28" y="988.94" width="121.5" height="121.5" transform="translate(1189.5 -772.32) rotate(45)"/><rect class="cls-2" x="1561.74" y="893.48" width="121.5" height="121.5" transform="translate(1149.96 -867.78) rotate(45)"/><rect class="cls-2" x="1657.2" y="798.02" width="121.5" height="121.5" transform="translate(1110.42 -963.24) rotate(45)"/><rect class="cls-2" x="1752.66" y="702.56" width="121.5" height="121.5" transform="translate(1070.88 -1058.7) rotate(45)"/><rect class="cls-2" x="1084.44" y="1561.7" width="121.5" height="121.5" transform="translate(1482.66 -334.57) rotate(45)"/><rect class="cls-2" x="1179.9" y="1466.24" width="121.5" height="121.5" transform="translate(1443.12 -430.03) rotate(45)"/><rect class="cls-2" x="1275.36" y="1370.78" width="121.5" height="121.5" transform="translate(1403.58 -525.49) rotate(45)"/><rect class="cls-2" x="1370.82" y="1275.32" width="121.5" height="121.5" transform="translate(1364.04 -620.95) rotate(45)"/><rect class="cls-2" x="1466.28" y="1179.86" width="121.5" height="121.5" transform="translate(1324.5 -716.41) rotate(45)"/><rect class="cls-2" x="1561.74" y="1084.4" width="121.5" height="121.5" transform="translate(1284.96 -811.86) rotate(45)"/><rect class="cls-2" x="1657.2" y="988.94" width="121.5" height="121.5" transform="translate(1245.42 -907.32) rotate(45)"/><rect class="cls-2" x="1752.66" y="893.48" width="121.5" height="121.5" transform="translate(1205.88 -1002.78) rotate(45)"/><rect class="cls-2" x="1275.36" y="1561.7" width="121.5" height="121.5" transform="translate(1538.58 -469.57) rotate(45)"/><rect class="cls-2" x="1370.82" y="1466.24" width="121.5" height="121.5" transform="translate(1499.04 -565.03) rotate(45)"/><rect class="cls-2" x="1466.28" y="1370.78" width="121.5" height="121.5" transform="translate(1459.5 -660.49) rotate(45)"/><rect class="cls-2" x="1561.74" y="1275.32" width="121.5" height="121.5" transform="translate(1419.96 -755.95) rotate(45)"/><rect class="cls-2" x="1657.2" y="1179.86" width="121.5" height="121.5" transform="translate(1380.42 -851.41) rotate(45)"/><rect class="cls-2" x="1752.66" y="1084.4" width="121.5" height="121.5" transform="translate(1340.88 -946.86) rotate(45)"/><rect class="cls-2" x="1370.82" y="1657.16" width="121.5" height="121.5" transform="translate(1634.04 -509.11) rotate(45)"/><rect class="cls-2" x="1466.28" y="1561.7" width="121.5" height="121.5" transform="translate(1594.5 -604.57) rotate(45)"/><rect class="cls-2" x="1561.74" y="1466.24" width="121.5" height="121.5" transform="translate(1554.96 -700.03) rotate(45)"/><rect class="cls-2" x="1657.2" y="1370.78" width="121.5" height="121.5" transform="translate(1515.42 -795.49) rotate(45)"/><rect class="cls-2" x="1752.66" y="1275.32" width="121.5" height="121.5" transform="translate(1475.88 -890.95) rotate(45)"/><rect class="cls-2" x="1466.28" y="1752.61" width="121.5" height="121.5" transform="translate(1729.5 -548.65) rotate(45)"/><rect class="cls-2" x="1657.2" y="1561.7" width="121.5" height="121.5" transform="translate(1650.42 -739.57) rotate(45)"/><rect class="cls-2" x="1752.66" y="1466.24" width="121.5" height="121.5" transform="translate(1610.88 -835.03) rotate(45)"/><rect class="cls-2" x="1657.2" y="1752.61" width="121.5" height="121.5" transform="translate(1785.42 -683.65) rotate(45)"/><rect class="cls-2" x="1752.66" y="1657.16" width="121.5" height="121.5" transform="translate(1745.88 -779.11) rotate(45)"/><rect class="cls-2" x="34.39" y="129.8" width="121.5" height="121.5" transform="translate(162.61 -11.46) rotate(45)"/><rect class="cls-2" x="129.84" y="34.34" width="121.5" height="121.5" transform="translate(123.07 -106.92) rotate(45)"/><rect class="cls-2" x="34.39" y="320.72" width="121.5" height="121.5" transform="translate(297.61 44.46) rotate(45)"/><rect class="cls-2" x="129.84" y="225.26" width="121.5" height="121.5" transform="translate(258.07 -51) rotate(45)"/><rect class="cls-2" x="225.3" y="129.8" width="121.5" height="121.5" transform="translate(218.53 -146.46) rotate(45)"/><rect class="cls-2" x="320.76" y="34.34" width="121.5" height="121.5" transform="translate(178.99 -241.92) rotate(45)"/><rect class="cls-2" x="34.39" y="893.48" width="121.5" height="121.5" transform="translate(702.61 212.22) rotate(45)"/><rect class="cls-2" x="34.39" y="1084.4" width="121.5" height="121.5" transform="translate(837.61 268.14) rotate(45)"/><rect class="cls-2" x="129.84" y="988.94" width="121.5" height="121.5" transform="translate(798.07 172.68) rotate(45)"/><rect class="cls-2" x="34.39" y="1275.32" width="121.5" height="121.5" transform="translate(972.61 324.05) rotate(45)"/><rect class="cls-2" x="129.84" y="1179.86" width="121.5" height="121.5" transform="translate(933.07 228.59) rotate(45)"/><rect class="cls-2" x="225.3" y="1084.4" width="121.5" height="121.5" transform="translate(893.53 133.14) rotate(45)"/><rect class="cls-2" x="129.84" y="1370.78" width="121.5" height="121.5" transform="translate(1068.07 284.51) rotate(45)"/><rect class="cls-2" x="225.3" y="1275.32" width="121.5" height="121.5" transform="translate(1028.53 189.05) rotate(45)"/><rect class="cls-2" x="320.76" y="1179.86" width="121.5" height="121.5" transform="translate(988.99 93.59) rotate(45)"/><rect class="cls-2" x="225.3" y="1466.24" width="121.5" height="121.5" transform="translate(1163.53 244.97) rotate(45)"/><rect class="cls-2" x="320.76" y="1370.78" width="121.5" height="121.5" transform="translate(1123.99 149.51) rotate(45)"/><rect class="cls-2" x="320.76" y="1561.7" width="121.5" height="121.5" transform="translate(1258.99 205.43) rotate(45)"/><rect class="cls-2" x="416.22" y="1466.24" width="121.5" height="121.5" transform="translate(1219.44 109.97) rotate(45)"/><rect class="cls-2" x="511.68" y="1370.78" width="121.5" height="121.5" transform="translate(1179.9 14.51) rotate(45)"/><rect class="cls-2" x="416.22" y="1657.16" width="121.5" height="121.5" transform="translate(1354.44 165.89) rotate(45)"/><rect class="cls-2" x="511.68" y="1561.7" width="121.5" height="121.5" transform="translate(1314.9 70.43) rotate(45)"/><rect class="cls-2" x="607.14" y="1466.24" width="121.5" height="121.5" transform="translate(1275.36 -25.03) rotate(45)"/><rect class="cls-2" x="511.68" y="1752.61" width="121.5" height="121.5" transform="translate(1449.9 126.35) rotate(45)"/><rect class="cls-2" x="607.14" y="1657.16" width="121.5" height="121.5" transform="translate(1410.36 30.89) rotate(45)"/><rect class="cls-2" x="702.6" y="1561.7" width="121.5" height="121.5" transform="translate(1370.82 -64.57) rotate(45)"/><rect class="cls-2" x="702.6" y="1752.61" width="121.5" height="121.5" transform="translate(1505.82 -8.65) rotate(45)"/><rect class="cls-2" x="798.06" y="1657.16" width="121.5" height="121.5" transform="translate(1466.28 -104.11) rotate(45)"/><rect class="cls-2" x="893.52" y="1752.61" width="121.5" height="121.5" transform="translate(1561.74 -143.65) rotate(45)"/><rect class="cls-2" x="988.98" y="1657.16" width="121.5" height="121.5" transform="translate(1522.2 -239.11) rotate(45)"/><rect class="cls-2" x="1084.44" y="1752.61" width="121.5" height="121.5" transform="translate(1617.66 -278.65) rotate(45)"/><rect class="cls-2" x="1179.9" y="1657.16" width="121.5" height="121.5" transform="translate(1578.12 -374.11) rotate(45)"/><rect class="cls-2" x="1275.36" y="1752.61" width="121.5" height="121.5" transform="translate(1673.58 -413.65) rotate(45)"/><rect class="cls-2" x="34.39" y="1466.24" width="121.5" height="121.5" transform="translate(1107.61 379.97) rotate(45)"/><rect class="cls-2" x="34.39" y="1657.16" width="121.5" height="121.5" transform="translate(1242.61 435.89) rotate(45)"/><rect class="cls-2" x="129.84" y="1561.7" width="121.5" height="121.5" transform="translate(1203.07 340.43) rotate(45)"/><rect class="cls-2" x="129.84" y="1752.61" width="121.5" height="121.5" transform="translate(1338.07 396.35) rotate(45)"/><rect class="cls-2" x="225.3" y="1657.16" width="121.5" height="121.5" transform="translate(1298.53 300.89) rotate(45)"/><rect class="cls-2" x="320.76" y="1752.61" width="121.5" height="121.5" transform="translate(1393.99 261.35) rotate(45)"/><polygon class="cls-2" points="1622.49 85.55 1708.4 -0.36 1708.26 -0.5 1536.71 -0.5 1536.57 -0.36 1622.49 85.55"/><rect class="cls-2" x="1657.2" y="34.34" width="121.5" height="121.5" transform="translate(570.42 -1186.92) rotate(45)"/><polygon class="cls-2" points="1813.4 85.55 1899.32 -0.36 1899.18 -0.5 1727.63 -0.5 1727.49 -0.36 1813.4 85.55"/><polygon class="cls-2" points="-0.32 371.93 85.59 286.01 -0.32 200.1 -0.5 200.28 -0.5 371.75 -0.32 371.93"/><polygon class="cls-2" points="-0.32 562.85 85.59 476.93 -0.32 391.02 -0.5 391.19 -0.5 562.67 -0.32 562.85"/><polygon class="cls-2" points="-0.32 753.76 85.59 667.85 -0.32 581.94 -0.5 582.11 -0.5 753.59 -0.32 753.76"/><polygon class="cls-2" points="-0.32 944.68 85.59 858.77 -0.32 772.86 -0.5 773.03 -0.5 944.51 -0.32 944.68"/><polygon class="cls-2" points="-0.32 1135.6 85.59 1049.69 -0.32 963.78 -0.5 963.95 -0.5 1135.43 -0.32 1135.6"/><polygon class="cls-2" points="-0.32 1517.44 85.59 1431.53 -0.32 1345.61 -0.5 1345.79 -0.5 1517.26 -0.32 1517.44"/><polygon class="cls-2" points="-0.32 1708.36 85.59 1622.45 -0.32 1536.53 -0.5 1536.71 -0.5 1708.18 -0.32 1708.36"/><polygon class="cls-2" points="-0.32 1899.28 85.59 1813.37 -0.32 1727.45 -0.5 1727.63 -0.5 1899.1 -0.32 1899.28"/><polygon class="cls-2" points="9.55 1908.5 180.72 1908.5 95.14 1822.91 9.55 1908.5"/><polygon class="cls-2" points="200.47 1908.5 371.64 1908.5 286.05 1822.91 200.47 1908.5"/><polygon class="cls-2" points="391.38 1908.5 562.56 1908.5 476.97 1822.91 391.38 1908.5"/><polygon class="cls-2" points="773.22 1908.5 944.4 1908.5 858.81 1822.91 773.22 1908.5"/><polygon class="cls-2" points="964.14 1908.5 1135.32 1908.5 1049.73 1822.91 964.14 1908.5"/><polygon class="cls-2" points="1155.06 1908.5 1326.24 1908.5 1240.65 1822.91 1155.06 1908.5"/><polygon class="cls-2" points="1345.98 1908.5 1517.16 1908.5 1431.57 1822.91 1345.98 1908.5"/><polygon class="cls-2" points="1536.9 1908.5 1708.08 1908.5 1622.49 1822.91 1536.9 1908.5"/><polygon class="cls-2" points="1727.82 1908.5 1898.99 1908.5 1813.4 1822.91 1727.82 1908.5"/><polygon class="cls-2" points="1908.5 1898.91 1908.5 1727.82 1822.95 1813.37 1908.5 1898.91"/><polygon class="cls-2" points="1908.5 1707.99 1908.5 1536.9 1822.95 1622.45 1908.5 1707.99"/><polygon class="cls-2" points="1908.5 1517.08 1908.5 1345.98 1822.95 1431.53 1908.5 1517.08"/><polygon class="cls-2" points="1908.5 1135.24 1908.5 964.14 1822.95 1049.69 1908.5 1135.24"/><polygon class="cls-2" points="1908.5 944.32 1908.5 773.22 1822.95 858.77 1908.5 944.32"/><polygon class="cls-2" points="1908.5 753.4 1908.5 582.3 1822.95 667.85 1908.5 753.4"/><polygon class="cls-2" points="1908.5 562.48 1908.5 391.38 1822.95 476.93 1908.5 562.48"/><rect class="cls-2" x="1752.66" y="129.8" width="121.5" height="121.5" transform="translate(665.88 -1226.46) rotate(45)"/><polygon class="cls-2" points="1908.5 371.56 1908.5 200.47 1822.95 286.01 1908.5 371.56"/><polygon class="cls-2" points="95.14 85.55 181.05 -0.36 180.91 -0.5 9.36 -0.5 9.22 -0.36 95.14 85.55"/><polygon class="cls-2" points="286.05 85.55 371.97 -0.36 371.83 -0.5 200.28 -0.5 200.14 -0.36 286.05 85.55"/><polygon class="cls-2" points="476.97 85.55 562.89 -0.36 562.75 -0.5 391.19 -0.5 391.06 -0.36 476.97 85.55"/></g><g id="dark"><polygon class="cls-3" points="667.89 85.55 753.81 -0.36 753.67 -0.5 582.11 -0.5 581.98 -0.36 667.89 85.55"/><rect class="cls-3" x="416.22" y="702.56" width="121.5" height="121.5" transform="translate(679.44 -113.7) rotate(45)"/><rect class="cls-3" x="1370.82" y="320.72" width="121.5" height="121.5" transform="translate(689.04 -900.54) rotate(45)"/><rect class="cls-3" x="1084.44" y="1370.78" width="121.5" height="121.5" transform="translate(1347.66 -390.49) rotate(45)"/><polygon class="cls-3" points="1908.5 1326.16 1908.5 1155.06 1822.95 1240.61 1908.5 1326.16"/><polygon class="cls-3" points="-0.32 1326.52 85.59 1240.61 -0.32 1154.69 -0.5 1154.87 -0.5 1326.35 -0.32 1326.52"/><polygon class="cls-3" points="582.3 1908.5 753.48 1908.5 667.89 1822.91 582.3 1908.5"/></g><g id="light"><rect class="cls-4" x="34.39" y="511.64" width="121.5" height="121.5" transform="translate(432.61 100.38) rotate(45)"/><rect class="cls-4" x="798.06" y="320.72" width="121.5" height="121.5" transform="translate(521.28 -495.54) rotate(45)"/><rect class="cls-4" x="1370.82" y="893.48" width="121.5" height="121.5" transform="translate(1094.04 -732.78) rotate(45)"/><rect class="cls-4" x="1561.74" y="1657.16" width="121.5" height="121.5" transform="translate(1697.16 -643.89) rotate(45.17)"/><polygon class="cls-4" points="-0.32 181.01 85.59 95.09 -0.32 9.18 -0.5 9.36 -0.5 180.83 -0.32 181.01"/><rect class="cls-4" x="416.22" y="1275.32" width="121.5" height="121.5" transform="translate(1084.44 54.05) rotate(45)"/><polygon class="cls-4" points="1908.5 180.64 1908.5 9.55 1822.95 95.09 1908.5 180.64"/></g></svg>