<svg xmlns="http://www.w3.org/2000/svg" viewBox="0 0 95.45 95.45" style="width: 95.45px; height: 95.45px;" preserveAspectRatio="xMidYMid"><defs><style>.cls-1{fill:#2d302e;}.cls-2{fill:#6a6969;}.cls-3{fill:#504f4f;}.cls-4{fill:#878686;}</style></defs><g id="Layer_2" data-name="Layer 2"><g id="Layer_1-2" data-name="Layer 1"><polygon class="cls-1" points="0 95.45 95.45 95.45 95.45 0 85.93 0 85.92 0.01 85.92 0 76.38 0 76.38 0.01 76.37 0 66.84 0 66.83 0.01 66.82 0 57.29 0 57.28 0.01 57.28 0 47.74 0 47.74 0.01 47.73 0 38.2 0 38.19 0.01 38.19 0 28.65 0 28.65 0.01 28.64 0 19.11 0 19.1 0.01 19.09 0 9.56 0 9.55 0.01 9.55 0 0.02 0 0.01 0.01 0 0.02 0 9.54 0.01 9.55 0 9.56 0 19.09 0.01 19.1 0 19.11 0 28.64 0.01 28.64 0 28.65 0 38.18 0.01 38.19 0 38.2 0 47.73 0.01 47.74 0 47.74 0 57.27 0.01 57.28 0 57.29 0 66.82 0.01 66.83 0 66.84 0 76.37 0.01 76.37 0 76.38 0 85.91 0.01 85.92 0 85.93 0 95.45"/><g id="regular"><rect class="cls-2" x="6.52" y="20.83" width="6.07" height="6.07" transform="translate(-14.08 13.75) rotate(-45)"/><rect class="cls-2" x="11.29" y="16.06" width="6.07" height="6.07" transform="translate(-9.31 15.73) rotate(-45)"/><rect class="cls-2" x="16.06" y="11.29" width="6.08" height="6.07" transform="translate(-4.54 17.7) rotate(-45)"/><rect class="cls-2" x="20.84" y="6.51" width="6.07" height="6.07" transform="translate(0.24 19.68) rotate(-45)"/><rect class="cls-2" x="25.61" y="1.74" width="6.07" height="6.07" transform="translate(5.01 21.66) rotate(-45)"/><rect class="cls-2" x="1.74" y="35.15" width="6.07" height="6.07" transform="translate(-25.6 14.57) rotate(-45)"/><rect class="cls-2" x="6.52" y="30.38" width="6.07" height="6.07" transform="translate(-20.83 16.54) rotate(-45)"/><rect class="cls-2" x="11.29" y="25.61" width="6.07" height="6.07" transform="translate(-16.06 18.52) rotate(-45)"/><rect class="cls-2" x="16.06" y="20.83" width="6.07" height="6.07" transform="translate(-11.29 20.5) rotate(-45)"/><rect class="cls-2" x="20.84" y="16.06" width="6.07" height="6.07" transform="translate(-6.51 22.47) rotate(-45)"/><rect class="cls-2" x="25.61" y="11.29" width="6.08" height="6.07" transform="translate(-1.74 24.45) rotate(-45)"/><rect class="cls-2" x="30.38" y="6.51" width="6.07" height="6.07" transform="translate(3.03 26.43) rotate(-45)"/><rect class="cls-2" x="35.16" y="1.74" width="6.07" height="6.07" transform="translate(7.81 28.41) rotate(-45)"/><polygon class="cls-2" points="42.97 4.3 47.26 0.01 47.26 0 38.68 0 38.67 0.01 42.97 4.3"/><rect class="cls-2" x="6.52" y="39.93" width="6.07" height="6.07" transform="translate(-27.58 19.34) rotate(-45)"/><rect class="cls-2" x="11.29" y="35.15" width="6.07" height="6.07" transform="translate(-22.81 21.32) rotate(-45)"/><rect class="cls-2" x="16.06" y="30.38" width="6.07" height="6.07" transform="translate(-18.04 23.29) rotate(-45)"/><rect class="cls-2" x="20.84" y="25.61" width="6.07" height="6.07" transform="translate(-13.26 25.27) rotate(-45)"/><rect class="cls-2" x="25.61" y="20.83" width="6.07" height="6.07" transform="translate(-8.49 27.25) rotate(-45)"/><rect class="cls-2" x="30.38" y="16.06" width="6.07" height="6.07" transform="translate(-3.72 29.22) rotate(-45)"/><rect class="cls-2" x="35.16" y="11.29" width="6.08" height="6.07" transform="translate(1.06 31.2) rotate(-45)"/><rect class="cls-2" x="39.93" y="6.51" width="6.07" height="6.07" transform="translate(5.83 33.18) rotate(-45)"/><rect class="cls-2" x="44.7" y="1.74" width="6.07" height="6.07" transform="translate(10.6 35.16) rotate(-45)"/><polygon class="cls-2" points="52.51 4.3 56.81 0.01 56.8 0 48.22 0 48.22 0.01 52.51 4.3"/><rect class="cls-2" x="11.29" y="44.7" width="6.07" height="6.07" transform="translate(-29.56 24.11) rotate(-45)"/><rect class="cls-2" x="16.06" y="39.93" width="6.07" height="6.07" transform="translate(-24.79 26.09) rotate(-45)"/><rect class="cls-2" x="25.61" y="30.38" width="6.07" height="6.07" transform="translate(-15.24 30.04) rotate(-45)"/><rect class="cls-2" x="30.38" y="25.61" width="6.07" height="6.07" transform="translate(-10.47 32.02) rotate(-45)"/><rect class="cls-2" x="35.15" y="20.83" width="6.07" height="6.07" transform="translate(-5.69 34) rotate(-45)"/><rect class="cls-2" x="44.7" y="11.29" width="6.08" height="6.07" transform="translate(3.85 37.95) rotate(-45)"/><rect class="cls-2" x="49.47" y="6.52" width="6.07" height="6.07" transform="translate(8.63 39.93) rotate(-45)"/><rect class="cls-2" x="54.25" y="1.74" width="6.07" height="6.07" transform="translate(13.4 41.91) rotate(-45)"/><polygon class="cls-2" points="62.06 4.3 66.35 0.01 66.35 0 57.77 0 57.76 0.01 62.06 4.3"/><rect class="cls-2" x="16.06" y="49.47" width="6.07" height="6.07" transform="translate(-31.54 28.89) rotate(-45)"/><rect class="cls-2" x="20.84" y="44.7" width="6.07" height="6.07" transform="translate(-26.76 30.86) rotate(-45)"/><rect class="cls-2" x="25.61" y="39.93" width="6.07" height="6.07" transform="translate(-21.99 32.84) rotate(-45)"/><rect class="cls-2" x="30.38" y="35.15" width="6.07" height="6.07" transform="translate(-17.22 34.82) rotate(-45)"/><rect class="cls-2" x="35.15" y="30.38" width="6.07" height="6.07" transform="translate(-12.44 36.79) rotate(-45)"/><rect class="cls-2" x="39.93" y="25.61" width="6.07" height="6.07" transform="translate(-7.67 38.77) rotate(-45)"/><rect class="cls-2" x="44.7" y="20.83" width="6.07" height="6.07" transform="translate(-2.9 40.75) rotate(-45)"/><rect class="cls-2" x="49.47" y="16.06" width="6.07" height="6.07" transform="translate(1.88 42.73) rotate(-45)"/><rect class="cls-2" x="54.25" y="11.29" width="6.08" height="6.07" transform="translate(6.65 44.7) rotate(-45)"/><rect class="cls-2" x="59.02" y="6.52" width="6.07" height="6.07" transform="translate(11.42 46.68) rotate(-45)"/><rect class="cls-2" x="63.79" y="1.74" width="6.07" height="6.07" transform="translate(16.19 48.66) rotate(-45)"/><polygon class="cls-2" points="71.6 4.3 75.9 0.01 75.89 0 67.31 0 67.31 0.01 71.6 4.3"/><rect class="cls-2" x="20.84" y="54.25" width="6.07" height="6.07" transform="translate(-33.51 33.66) rotate(-45)"/><rect class="cls-2" x="25.61" y="49.47" width="6.07" height="6.07" transform="translate(-28.74 35.64) rotate(-45)"/><rect class="cls-2" x="30.38" y="44.7" width="6.07" height="6.07" transform="translate(-23.97 37.61) rotate(-45)"/><rect class="cls-2" x="35.15" y="39.93" width="6.07" height="6.07" transform="translate(-19.19 39.59) rotate(-45)"/><rect class="cls-2" x="39.93" y="35.15" width="6.07" height="6.07" transform="translate(-14.42 41.57) rotate(-45)"/><rect class="cls-2" x="44.7" y="30.38" width="6.07" height="6.07" transform="translate(-9.65 43.54) rotate(-45)"/><rect class="cls-2" x="49.47" y="25.61" width="6.07" height="6.07" transform="translate(-4.87 45.52) rotate(-45)"/><rect class="cls-2" x="54.25" y="20.83" width="6.07" height="6.07" transform="translate(-0.1 47.5) rotate(-45)"/><rect class="cls-2" x="59.02" y="16.06" width="6.07" height="6.07" transform="translate(4.67 49.48) rotate(-45)"/><rect class="cls-2" x="63.79" y="11.29" width="6.08" height="6.07" transform="translate(9.44 51.45) rotate(-45)"/><rect class="cls-2" x="68.57" y="6.52" width="6.07" height="6.07" transform="translate(14.22 53.43) rotate(-45)"/><rect class="cls-2" x="73.34" y="1.74" width="6.07" height="6.07" transform="translate(18.99 55.41) rotate(-45)"/><rect class="cls-2" x="25.61" y="59.02" width="6.07" height="6.07" transform="translate(-35.49 38.43) rotate(-45)"/><rect class="cls-2" x="30.38" y="54.25" width="6.07" height="6.07" transform="translate(-30.72 40.41) rotate(-45)"/><rect class="cls-2" x="35.15" y="49.47" width="6.07" height="6.07" transform="translate(-25.94 42.39) rotate(-45)"/><rect class="cls-2" x="39.93" y="44.7" width="6.07" height="6.07" transform="translate(-21.17 44.36) rotate(-45)"/><rect class="cls-2" x="44.7" y="39.93" width="6.07" height="6.07" transform="translate(-16.4 46.34) rotate(-45)"/><rect class="cls-2" x="49.47" y="35.15" width="6.07" height="6.07" transform="translate(-11.62 48.32) rotate(-45)"/><rect class="cls-2" x="54.25" y="30.38" width="6.07" height="6.07" transform="translate(-6.85 50.29) rotate(-45)"/><rect class="cls-2" x="59.02" y="25.61" width="6.07" height="6.07" transform="translate(-2.08 52.27) rotate(-45)"/><rect class="cls-2" x="63.79" y="20.83" width="6.07" height="6.07" transform="translate(2.69 54.25) rotate(-45)"/><rect class="cls-2" x="73.34" y="11.29" width="6.08" height="6.07" transform="translate(12.24 58.2) rotate(-45)"/><rect class="cls-2" x="78.11" y="6.52" width="6.07" height="6.07" transform="translate(17.01 60.18) rotate(-45)"/><rect class="cls-2" x="30.38" y="63.79" width="6.07" height="6.07" transform="translate(-37.47 43.2) rotate(-45)"/><rect class="cls-2" x="35.15" y="59.02" width="6.07" height="6.07" transform="translate(-32.69 45.18) rotate(-45)"/><rect class="cls-2" x="39.93" y="54.25" width="6.07" height="6.07" transform="translate(-27.92 47.16) rotate(-45)"/><rect class="cls-2" x="44.7" y="49.47" width="6.07" height="6.07" transform="translate(-23.15 49.14) rotate(-45)"/><rect class="cls-2" x="49.47" y="44.7" width="6.07" height="6.07" transform="translate(-18.37 51.11) rotate(-45)"/><rect class="cls-2" x="54.25" y="39.93" width="6.07" height="6.07" transform="translate(-13.6 53.09) rotate(-45)"/><rect class="cls-2" x="59.02" y="35.15" width="6.07" height="6.07" transform="translate(-8.83 55.07) rotate(-45)"/><rect class="cls-2" x="63.79" y="30.38" width="6.07" height="6.07" transform="translate(-4.06 57.04) rotate(-45)"/><rect class="cls-2" x="68.57" y="25.61" width="6.07" height="6.07" transform="translate(0.72 59.02) rotate(-45)"/><rect class="cls-2" x="73.34" y="20.83" width="6.07" height="6.07" transform="translate(5.49 61) rotate(-45)"/><rect class="cls-2" x="78.11" y="16.06" width="6.07" height="6.07" transform="translate(10.26 62.98) rotate(-45)"/><rect class="cls-2" x="82.89" y="11.29" width="6.08" height="6.07" transform="translate(15.04 64.95) rotate(-45)"/><rect class="cls-2" x="35.15" y="68.56" width="6.07" height="6.07" transform="translate(-39.44 47.98) rotate(-45)"/><rect class="cls-2" x="39.93" y="63.79" width="6.07" height="6.07" transform="translate(-34.67 49.95) rotate(-45)"/><rect class="cls-2" x="44.7" y="59.02" width="6.07" height="6.07" transform="translate(-29.9 51.93) rotate(-45)"/><rect class="cls-2" x="49.47" y="54.25" width="6.07" height="6.07" transform="translate(-25.12 53.91) rotate(-45)"/><rect class="cls-2" x="54.25" y="49.47" width="6.07" height="6.07" transform="translate(-20.35 55.89) rotate(-45)"/><rect class="cls-2" x="59.02" y="44.7" width="6.07" height="6.07" transform="translate(-15.58 57.86) rotate(-45)"/><rect class="cls-2" x="63.79" y="39.93" width="6.07" height="6.07" transform="translate(-10.81 59.84) rotate(-45)"/><rect class="cls-2" x="68.57" y="35.15" width="6.07" height="6.07" transform="translate(-6.03 61.82) rotate(-45)"/><rect class="cls-2" x="73.34" y="30.38" width="6.07" height="6.07" transform="translate(-1.26 63.79) rotate(-45)"/><rect class="cls-2" x="78.11" y="25.61" width="6.07" height="6.07" transform="translate(3.51 65.77) rotate(-45)"/><rect class="cls-2" x="82.89" y="20.83" width="6.07" height="6.07" transform="translate(8.29 67.75) rotate(-45)"/><rect class="cls-2" x="87.66" y="16.06" width="6.07" height="6.07" transform="translate(13.06 69.73) rotate(-45)"/><rect class="cls-2" x="39.93" y="73.34" width="6.07" height="6.07" transform="translate(-41.42 52.75) rotate(-45)"/><rect class="cls-2" x="44.7" y="68.56" width="6.07" height="6.07" transform="translate(-36.65 54.73) rotate(-45)"/><rect class="cls-2" x="49.47" y="63.79" width="6.07" height="6.07" transform="translate(-31.87 56.7) rotate(-45)"/><rect class="cls-2" x="54.25" y="59.02" width="6.07" height="6.07" transform="translate(-27.1 58.68) rotate(-45)"/><rect class="cls-2" x="59.02" y="54.25" width="6.07" height="6.07" transform="translate(-22.33 60.66) rotate(-45)"/><rect class="cls-2" x="63.79" y="49.47" width="6.07" height="6.07" transform="translate(-17.56 62.64) rotate(-45)"/><rect class="cls-2" x="73.34" y="39.93" width="6.07" height="6.07" transform="translate(-8.01 66.59) rotate(-45)"/><rect class="cls-2" x="78.11" y="35.15" width="6.07" height="6.07" transform="translate(-3.24 68.57) rotate(-45)"/><rect class="cls-2" x="82.89" y="30.38" width="6.07" height="6.07" transform="translate(1.54 70.54) rotate(-45)"/><rect class="cls-2" x="87.66" y="25.61" width="6.07" height="6.07" transform="translate(6.31 72.52) rotate(-45)"/><rect class="cls-2" x="44.7" y="78.11" width="6.07" height="6.07" transform="translate(-43.4 57.52) rotate(-45)"/><rect class="cls-2" x="49.47" y="73.34" width="6.07" height="6.07" transform="translate(-38.62 59.5) rotate(-45)"/><rect class="cls-2" x="59.02" y="63.79" width="6.07" height="6.07" transform="translate(-29.08 63.45) rotate(-45)"/><rect class="cls-2" x="63.79" y="59.02" width="6.07" height="6.07" transform="translate(-24.31 65.43) rotate(-45)"/><rect class="cls-2" x="68.57" y="54.25" width="6.07" height="6.07" transform="translate(-19.53 67.41) rotate(-45)"/><rect class="cls-2" x="73.34" y="49.47" width="6.07" height="6.07" transform="translate(-14.76 69.39) rotate(-45)"/><rect class="cls-2" x="78.11" y="44.7" width="6.07" height="6.07" transform="translate(-9.99 71.36) rotate(-45)"/><rect class="cls-2" x="82.89" y="39.93" width="6.07" height="6.07" transform="translate(-5.21 73.34) rotate(-45)"/><rect class="cls-2" x="87.66" y="35.15" width="6.07" height="6.07" transform="translate(-0.44 75.32) rotate(-45)"/><rect class="cls-2" x="54.25" y="78.11" width="6.07" height="6.07" transform="translate(-40.6 64.27) rotate(-45)"/><rect class="cls-2" x="59.02" y="73.34" width="6.07" height="6.07" transform="translate(-35.83 66.25) rotate(-45)"/><rect class="cls-2" x="63.79" y="68.56" width="6.07" height="6.07" transform="translate(-31.06 68.23) rotate(-45)"/><rect class="cls-2" x="68.57" y="63.79" width="6.07" height="6.07" transform="translate(-26.28 70.2) rotate(-45)"/><rect class="cls-2" x="73.34" y="59.02" width="6.07" height="6.07" transform="translate(-21.51 72.18) rotate(-45)"/><rect class="cls-2" x="78.11" y="54.25" width="6.07" height="6.07" transform="translate(-16.74 74.16) rotate(-45)"/><rect class="cls-2" x="82.89" y="49.47" width="6.07" height="6.07" transform="translate(-11.96 76.14) rotate(-45)"/><rect class="cls-2" x="87.66" y="44.7" width="6.07" height="6.07" transform="translate(-7.19 78.11) rotate(-45)"/><rect class="cls-2" x="63.79" y="78.11" width="6.07" height="6.07" transform="translate(-37.81 71.02) rotate(-45)"/><rect class="cls-2" x="68.57" y="73.34" width="6.07" height="6.07" transform="translate(-33.03 73) rotate(-45)"/><rect class="cls-2" x="73.34" y="68.56" width="6.07" height="6.07" transform="translate(-28.26 74.98) rotate(-45)"/><rect class="cls-2" x="78.11" y="63.79" width="6.07" height="6.07" transform="translate(-23.49 76.95) rotate(-45)"/><rect class="cls-2" x="82.89" y="59.02" width="6.07" height="6.07" transform="translate(-18.71 78.93) rotate(-45)"/><rect class="cls-2" x="87.66" y="54.25" width="6.07" height="6.07" transform="translate(-13.94 80.91) rotate(-45)"/><rect class="cls-2" x="68.57" y="82.88" width="6.07" height="6.07" transform="translate(-39.78 75.8) rotate(-45)"/><rect class="cls-2" x="73.34" y="78.11" width="6.07" height="6.07" transform="translate(-35.01 77.77) rotate(-45)"/><rect class="cls-2" x="78.11" y="73.34" width="6.07" height="6.07" transform="translate(-30.24 79.75) rotate(-45)"/><rect class="cls-2" x="82.88" y="68.56" width="6.07" height="6.07" transform="translate(-25.46 81.73) rotate(-45)"/><rect class="cls-2" x="87.66" y="63.79" width="6.07" height="6.07" transform="translate(-20.69 83.71) rotate(-45)"/><rect class="cls-2" x="73.34" y="87.66" width="6.07" height="6.07" transform="translate(-41.76 80.57) rotate(-45)"/><rect class="cls-2" x="82.88" y="78.11" width="6.07" height="6.07" transform="translate(-32.21 84.52) rotate(-45)"/><rect class="cls-2" x="87.66" y="73.34" width="6.07" height="6.07" transform="translate(-27.44 86.5) rotate(-45)"/><rect class="cls-2" x="82.89" y="87.66" width="6.07" height="6.07" transform="translate(-38.96 87.32) rotate(-45)"/><rect class="cls-2" x="87.66" y="82.88" width="6.07" height="6.07" transform="translate(-34.19 89.3) rotate(-45)"/><rect class="cls-2" x="1.74" y="6.52" width="6.07" height="6.07" transform="translate(-5.35 6.18) rotate(-45)"/><rect class="cls-2" x="6.52" y="1.74" width="6.07" height="6.07" transform="translate(-0.58 8.16) rotate(-45)"/><rect class="cls-2" x="1.74" y="16.06" width="6.07" height="6.07" transform="translate(-12.1 8.98) rotate(-45)"/><rect class="cls-2" x="6.52" y="11.29" width="6.08" height="6.07" transform="translate(-7.33 10.95) rotate(-45)"/><rect class="cls-2" x="11.29" y="6.51" width="6.07" height="6.07" transform="translate(-2.56 12.93) rotate(-45)"/><rect class="cls-2" x="16.06" y="1.74" width="6.07" height="6.07" transform="translate(2.22 14.91) rotate(-45)"/><rect class="cls-2" x="1.74" y="44.7" width="6.07" height="6.07" transform="translate(-32.35 17.36) rotate(-45)"/><rect class="cls-2" x="1.74" y="54.25" width="6.07" height="6.07" transform="translate(-39.1 20.16) rotate(-45)"/><rect class="cls-2" x="6.52" y="49.47" width="6.07" height="6.07" transform="translate(-34.33 22.14) rotate(-45)"/><rect class="cls-2" x="1.74" y="63.79" width="6.07" height="6.07" transform="translate(-45.85 22.95) rotate(-45)"/><rect class="cls-2" x="6.52" y="59.02" width="6.07" height="6.07" transform="translate(-41.08 24.93) rotate(-45)"/><rect class="cls-2" x="11.29" y="54.25" width="6.07" height="6.07" transform="translate(-36.31 26.91) rotate(-45)"/><rect class="cls-2" x="6.52" y="68.56" width="6.07" height="6.07" transform="translate(-47.83 27.73) rotate(-45)"/><rect class="cls-2" x="11.29" y="63.79" width="6.07" height="6.07" transform="translate(-43.06 29.7) rotate(-45)"/><rect class="cls-2" x="16.06" y="59.02" width="6.07" height="6.07" transform="translate(-38.29 31.68) rotate(-45)"/><rect class="cls-2" x="11.29" y="73.34" width="6.07" height="6.07" transform="translate(-49.81 32.5) rotate(-45)"/><rect class="cls-2" x="16.06" y="68.56" width="6.07" height="6.07" transform="translate(-45.04 34.48) rotate(-45)"/><rect class="cls-2" x="16.06" y="78.11" width="6.07" height="6.07" transform="translate(-51.79 37.27) rotate(-45)"/><rect class="cls-2" x="20.84" y="73.34" width="6.07" height="6.07" transform="translate(-47.01 39.25) rotate(-45)"/><rect class="cls-2" x="25.61" y="68.56" width="6.07" height="6.07" transform="translate(-42.24 41.23) rotate(-45)"/><rect class="cls-2" x="20.84" y="82.88" width="6.07" height="6.07" transform="translate(-53.76 42.05) rotate(-45)"/><rect class="cls-2" x="25.61" y="78.11" width="6.07" height="6.07" transform="translate(-48.99 44.02) rotate(-45)"/><rect class="cls-2" x="30.38" y="73.34" width="6.07" height="6.07" transform="translate(-44.22 46) rotate(-45)"/><rect class="cls-2" x="25.61" y="87.66" width="6.07" height="6.07" transform="translate(-55.74 46.82) rotate(-45)"/><rect class="cls-2" x="30.38" y="82.88" width="6.07" height="6.07" transform="translate(-50.97 48.8) rotate(-45)"/><rect class="cls-2" x="35.15" y="78.11" width="6.07" height="6.07" transform="translate(-46.19 50.77) rotate(-45)"/><rect class="cls-2" x="35.16" y="87.66" width="6.07" height="6.07" transform="translate(-52.94 53.57) rotate(-45)"/><rect class="cls-2" x="39.93" y="82.88" width="6.07" height="6.07" transform="translate(-48.17 55.55) rotate(-45)"/><rect class="cls-2" x="44.7" y="87.66" width="6.07" height="6.07" transform="translate(-50.15 60.32) rotate(-45)"/><rect class="cls-2" x="49.47" y="82.88" width="6.07" height="6.07" transform="translate(-45.37 62.3) rotate(-45)"/><rect class="cls-2" x="54.25" y="87.66" width="6.07" height="6.07" transform="translate(-47.35 67.07) rotate(-45)"/><rect class="cls-2" x="59.02" y="82.88" width="6.07" height="6.07" transform="translate(-42.58 69.05) rotate(-45)"/><rect class="cls-2" x="63.79" y="87.66" width="6.07" height="6.07" transform="translate(-44.56 73.82) rotate(-45)"/><rect class="cls-2" x="1.74" y="73.34" width="6.07" height="6.07" transform="translate(-52.6 25.75) rotate(-45)"/><rect class="cls-2" x="1.74" y="82.88" width="6.07" height="6.07" transform="translate(-59.35 28.55) rotate(-45)"/><rect class="cls-2" x="6.52" y="78.11" width="6.07" height="6.07" transform="translate(-54.58 30.52) rotate(-45)"/><rect class="cls-2" x="6.52" y="87.66" width="6.07" height="6.07" transform="translate(-61.33 33.32) rotate(-45)"/><rect class="cls-2" x="11.29" y="82.88" width="6.07" height="6.07" transform="translate(-56.56 35.3) rotate(-45)"/><rect class="cls-2" x="16.06" y="87.66" width="6.07" height="6.07" transform="translate(-58.54 40.07) rotate(-45)"/><polygon class="cls-2" points="81.15 4.3 85.44 0.01 85.44 0 76.86 0 76.85 0.01 81.15 4.3"/><rect class="cls-2" x="82.89" y="1.74" width="6.07" height="6.07" transform="translate(21.79 62.16) rotate(-45)"/><polygon class="cls-2" points="90.69 4.3 94.99 0.01 94.98 0 86.41 0 86.4 0.01 90.69 4.3"/><polygon class="cls-2" points="0.01 18.62 4.3 14.33 0.01 10.03 0 10.04 0 18.61 0.01 18.62"/><polygon class="cls-2" points="0.01 28.17 4.3 23.87 0.01 19.58 0 19.59 0 28.16 0.01 28.17"/><polygon class="cls-2" points="0.01 37.71 4.3 33.42 0.01 29.12 0 29.13 0 37.7 0.01 37.71"/><polygon class="cls-2" points="0.01 47.26 4.3 42.96 0.01 38.67 0 38.68 0 47.25 0.01 47.26"/><polygon class="cls-2" points="0.01 56.8 4.3 52.51 0.01 48.21 0 48.22 0 56.8 0.01 56.8"/><polygon class="cls-2" points="0.01 75.9 4.3 71.6 0.01 67.31 0 67.31 0 75.89 0.01 75.9"/><polygon class="cls-2" points="0.01 85.44 4.3 81.15 0.01 76.85 0 76.86 0 85.43 0.01 85.44"/><polygon class="cls-2" points="0.01 94.99 4.3 90.69 0.01 86.4 0 86.41 0 94.98 0.01 94.99"/><polygon class="cls-2" points="0.5 95.45 9.06 95.45 4.78 91.17 0.5 95.45"/><polygon class="cls-2" points="10.05 95.45 18.61 95.45 14.33 91.17 10.05 95.45"/><polygon class="cls-2" points="19.59 95.45 28.15 95.45 23.87 91.17 19.59 95.45"/><polygon class="cls-2" points="38.69 95.45 47.24 95.45 42.97 91.17 38.69 95.45"/><polygon class="cls-2" points="48.23 95.45 56.79 95.45 52.51 91.17 48.23 95.45"/><polygon class="cls-2" points="57.78 95.45 66.34 95.45 62.06 91.17 57.78 95.45"/><polygon class="cls-2" points="67.32 95.45 75.88 95.45 71.6 91.17 67.32 95.45"/><polygon class="cls-2" points="76.87 95.45 85.43 95.45 81.15 91.17 76.87 95.45"/><polygon class="cls-2" points="86.42 95.45 94.97 95.45 90.69 91.17 86.42 95.45"/><polygon class="cls-2" points="95.45 94.97 95.45 86.42 91.17 90.69 95.45 94.97"/><polygon class="cls-2" points="95.45 85.42 95.45 76.87 91.17 81.15 95.45 85.42"/><polygon class="cls-2" points="95.45 75.88 95.45 67.32 91.17 71.6 95.45 75.88"/><polygon class="cls-2" points="95.45 56.79 95.45 48.23 91.17 52.51 95.45 56.79"/><polygon class="cls-2" points="95.45 47.24 95.45 38.69 91.17 42.96 95.45 47.24"/><polygon class="cls-2" points="95.45 37.7 95.45 29.14 91.17 33.42 95.45 37.7"/><polygon class="cls-2" points="95.45 28.15 95.45 19.59 91.17 23.87 95.45 28.15"/><rect class="cls-2" x="87.66" y="6.52" width="6.07" height="6.07" transform="translate(19.81 66.93) rotate(-45)"/><polygon class="cls-2" points="95.45 18.6 95.45 10.05 91.17 14.33 95.45 18.6"/><polygon class="cls-2" points="4.78 4.3 9.08 0.01 9.07 0 0.49 0 0.49 0.01 4.78 4.3"/><polygon class="cls-2" points="14.33 4.3 18.62 0.01 18.62 0 10.04 0 10.03 0.01 14.33 4.3"/><polygon class="cls-2" points="23.87 4.3 28.17 0.01 28.16 0 19.59 0 19.58 0.01 23.87 4.3"/></g><g id="dark"><polygon class="cls-3" points="33.42 4.3 37.72 0.01 37.71 0 29.13 0 29.12 0.01 33.42 4.3"/><rect class="cls-3" x="20.84" y="35.15" width="6.07" height="6.07" transform="translate(-20.01 28.07) rotate(-45)"/><rect class="cls-3" x="68.57" y="16.06" width="6.07" height="6.07" transform="translate(7.47 56.23) rotate(-45)"/><rect class="cls-3" x="54.25" y="68.56" width="6.07" height="6.07" transform="translate(-33.85 61.48) rotate(-45)"/><polygon class="cls-3" points="95.45 66.33 95.45 57.78 91.17 62.05 95.45 66.33"/><polygon class="cls-3" points="0.01 66.35 4.3 62.05 0.01 57.76 0 57.77 0 66.34 0.01 66.35"/><polygon class="cls-3" points="29.14 95.45 37.7 95.45 33.42 91.17 29.14 95.45"/></g><g id="light"><rect class="cls-4" x="1.74" y="25.61" width="6.07" height="6.07" transform="translate(-18.85 11.77) rotate(-45)"/><rect class="cls-4" x="39.93" y="16.06" width="6.07" height="6.07" transform="translate(-0.92 35.98) rotate(-45)"/><rect class="cls-4" x="68.57" y="44.7" width="6.07" height="6.07" transform="translate(-12.78 64.61) rotate(-45)"/><rect class="cls-4" x="78.12" y="82.88" width="6.08" height="6.08" transform="translate(-36.97 82.2) rotate(-44.83)"/><polygon class="cls-4" points="0.01 9.07 4.3 4.78 0.01 0.48 0 0.49 0 9.07 0.01 9.07"/><rect class="cls-4" x="20.84" y="63.79" width="6.07" height="6.07" transform="translate(-40.26 36.45) rotate(-45)"/><polygon class="cls-4" points="95.45 9.06 95.45 0.5 91.17 4.78 95.45 9.06"/></g></g></g></svg>