<svg xmlns="http://www.w3.org/2000/svg" viewBox="0 0 1909 1909"><defs><style>.cls-1{fill:#2d2f2e;}.cls-2{fill:#696868;}.cls-3{fill:#4f4e4e;}.cls-4{fill:#878686;}</style></defs><g id="Layer_2" data-name="Layer 2"><g id="multicolor"><polygon class="cls-1" points="0 1909 1909 1909 1909 0 1718.58 0 1718.45 0.14 1718.31 0 1527.66 0 1527.53 0.14 1527.39 0 1336.74 0 1336.61 0.14 1336.47 0 1145.83 0 1145.69 0.14 1145.55 0 954.91 0 954.77 0.14 954.63 0 763.99 0 763.85 0.14 763.72 0 573.07 0 572.93 0.14 572.8 0 382.15 0 382.01 0.14 381.88 0 191.23 0 191.09 0.14 190.96 0 0.31 0 0.18 0.14 0 0.31 0 190.88 0.18 191.05 0 191.23 0 381.8 0.18 381.97 0 382.15 0 572.72 0.18 572.89 0 573.07 0 763.63 0.18 763.81 0 763.99 0 954.55 0.18 954.73 0 954.91 0 1145.47 0.18 1145.65 0 1145.83 0 1336.39 0.18 1336.57 0 1336.74 0 1527.31 0.18 1527.49 0 1527.66 0 1718.23 0.18 1718.4 0 1718.58 0 1909"/><g id="regular"><rect class="cls-2" x="130.35" y="416.68" width="121.5" height="121.5" transform="translate(-281.62 274.96) rotate(-45)"/><rect class="cls-2" x="225.81" y="321.22" width="121.5" height="121.5" transform="translate(-186.16 314.5) rotate(-45)"/><rect class="cls-2" x="321.27" y="225.76" width="121.5" height="121.5" transform="translate(-90.7 354.04) rotate(-45)"/><rect class="cls-2" x="416.72" y="130.3" width="121.5" height="121.5" transform="translate(4.76 393.58) rotate(-45)"/><rect class="cls-2" x="512.18" y="34.84" width="121.5" height="121.5" transform="translate(100.22 433.12) rotate(-45)"/><rect class="cls-2" x="34.89" y="703.07" width="121.5" height="121.5" transform="translate(-512.09 291.35) rotate(-45)"/><rect class="cls-2" x="130.35" y="607.6" width="121.5" height="121.5" transform="translate(-416.62 330.88) rotate(-45)"/><rect class="cls-2" x="225.81" y="512.14" width="121.5" height="121.5" transform="translate(-321.16 370.42) rotate(-45)"/><rect class="cls-2" x="321.27" y="416.68" width="121.5" height="121.5" transform="translate(-225.7 409.96) rotate(-45)"/><rect class="cls-2" x="416.72" y="321.22" width="121.5" height="121.5" transform="translate(-130.25 449.5) rotate(-45)"/><rect class="cls-2" x="512.18" y="225.76" width="121.5" height="121.5" transform="translate(-34.79 489.04) rotate(-45)"/><rect class="cls-2" x="607.64" y="130.3" width="121.5" height="121.5" transform="translate(60.68 528.58) rotate(-45)"/><rect class="cls-2" x="703.1" y="34.84" width="121.5" height="121.5" transform="translate(156.14 568.12) rotate(-45)"/><polygon class="cls-2" points="859.31 86.05 945.22 0.14 945.09 0 773.53 0 773.4 0.14 859.31 86.05"/><rect class="cls-2" x="130.35" y="798.52" width="121.5" height="121.5" transform="translate(-551.62 386.8) rotate(-45)"/><rect class="cls-2" x="225.81" y="703.06" width="121.5" height="121.5" transform="translate(-456.16 426.34) rotate(-45)"/><rect class="cls-2" x="321.27" y="607.6" width="121.5" height="121.5" transform="translate(-360.7 465.88) rotate(-45)"/><rect class="cls-2" x="416.72" y="512.14" width="121.5" height="121.5" transform="translate(-265.25 505.42) rotate(-45)"/><rect class="cls-2" x="512.18" y="416.68" width="121.5" height="121.5" transform="translate(-169.79 544.96) rotate(-45)"/><rect class="cls-2" x="607.64" y="321.22" width="121.5" height="121.5" transform="translate(-74.33 584.5) rotate(-45)"/><rect class="cls-2" x="703.1" y="225.76" width="121.5" height="121.5" transform="translate(21.13 624.04) rotate(-45)"/><rect class="cls-2" x="798.56" y="130.3" width="121.5" height="121.5" transform="translate(116.59 663.58) rotate(-45)"/><rect class="cls-2" x="894.02" y="34.84" width="121.5" height="121.5" transform="translate(212.05 703.12) rotate(-45)"/><polygon class="cls-2" points="1050.23 86.05 1136.14 0.14 1136.01 0 964.45 0 964.32 0.14 1050.23 86.05"/><rect class="cls-2" x="225.81" y="893.98" width="121.5" height="121.5" transform="translate(-591.17 482.26) rotate(-45)"/><rect class="cls-2" x="321.27" y="798.52" width="121.5" height="121.5" transform="translate(-495.71 521.8) rotate(-45)"/><rect class="cls-2" x="512.18" y="607.6" width="121.5" height="121.5" transform="translate(-304.79 600.88) rotate(-45)"/><rect class="cls-2" x="607.64" y="512.14" width="121.5" height="121.5" transform="translate(-209.33 640.42) rotate(-45)"/><rect class="cls-2" x="703.1" y="416.68" width="121.5" height="121.5" transform="translate(-113.87 679.96) rotate(-45)"/><rect class="cls-2" x="894.02" y="225.76" width="121.5" height="121.5" transform="translate(77.05 759.04) rotate(-45)"/><rect class="cls-2" x="989.48" y="130.3" width="121.5" height="121.5" transform="translate(172.51 798.58) rotate(-45)"/><rect class="cls-2" x="1084.94" y="34.84" width="121.5" height="121.5" transform="translate(267.97 838.12) rotate(-45)"/><polygon class="cls-2" points="1241.15 86.05 1327.06 0.14 1326.93 0 1155.37 0 1155.23 0.14 1241.15 86.05"/><rect class="cls-2" x="321.27" y="989.44" width="121.5" height="121.5" transform="translate(-630.71 577.72) rotate(-45)"/><rect class="cls-2" x="416.72" y="893.98" width="121.5" height="121.5" transform="translate(-535.25 617.25) rotate(-45)"/><rect class="cls-2" x="512.18" y="798.52" width="121.5" height="121.5" transform="translate(-439.79 656.8) rotate(-45)"/><rect class="cls-2" x="607.64" y="703.06" width="121.5" height="121.5" transform="translate(-344.33 696.34) rotate(-45)"/><rect class="cls-2" x="703.1" y="607.6" width="121.5" height="121.5" transform="translate(-248.87 735.88) rotate(-45)"/><rect class="cls-2" x="798.56" y="512.14" width="121.5" height="121.5" transform="translate(-153.41 775.42) rotate(-45)"/><rect class="cls-2" x="894.02" y="416.68" width="121.5" height="121.5" transform="translate(-57.95 814.96) rotate(-45)"/><rect class="cls-2" x="989.48" y="321.22" width="121.5" height="121.5" transform="translate(37.51 854.5) rotate(-45)"/><rect class="cls-2" x="1084.94" y="225.76" width="121.5" height="121.5" transform="translate(132.97 894.04) rotate(-45)"/><rect class="cls-2" x="1180.4" y="130.3" width="121.5" height="121.5" transform="translate(228.43 933.59) rotate(-45)"/><rect class="cls-2" x="1275.86" y="34.84" width="121.5" height="121.5" transform="translate(323.89 973.13) rotate(-45)"/><polygon class="cls-2" points="1432.07 86.05 1517.98 0.14 1517.85 0 1346.29 0 1346.15 0.14 1432.07 86.05"/><rect class="cls-2" x="416.72" y="1084.9" width="121.5" height="121.5" transform="translate(-670.25 673.17) rotate(-45)"/><rect class="cls-2" x="512.18" y="989.44" width="121.5" height="121.5" transform="translate(-574.79 712.71) rotate(-45)"/><rect class="cls-2" x="607.64" y="893.98" width="121.5" height="121.5" transform="translate(-479.33 752.26) rotate(-45)"/><rect class="cls-2" x="703.1" y="798.52" width="121.5" height="121.5" transform="translate(-383.87 791.8) rotate(-45)"/><rect class="cls-2" x="798.56" y="703.06" width="121.5" height="121.5" transform="translate(-288.41 831.34) rotate(-45)"/><rect class="cls-2" x="894.02" y="607.6" width="121.5" height="121.5" transform="translate(-192.95 870.88) rotate(-45)"/><rect class="cls-2" x="989.48" y="512.14" width="121.5" height="121.5" transform="translate(-97.49 910.42) rotate(-45)"/><rect class="cls-2" x="1084.94" y="416.68" width="121.5" height="121.5" transform="translate(-2.03 949.96) rotate(-45)"/><rect class="cls-2" x="1180.4" y="321.22" width="121.5" height="121.5" transform="translate(93.43 989.5) rotate(-45)"/><rect class="cls-2" x="1275.86" y="225.76" width="121.5" height="121.5" transform="translate(188.89 1029.05) rotate(-45)"/><rect class="cls-2" x="1371.32" y="130.3" width="121.5" height="121.5" transform="translate(284.35 1068.59) rotate(-45)"/><rect class="cls-2" x="1466.78" y="34.84" width="121.5" height="121.5" transform="translate(379.81 1108.13) rotate(-45)"/><rect class="cls-2" x="512.18" y="1180.35" width="121.5" height="121.5" transform="translate(-709.79 768.63) rotate(-45)"/><rect class="cls-2" x="607.64" y="1084.9" width="121.5" height="121.5" transform="translate(-614.33 808.17) rotate(-45)"/><rect class="cls-2" x="703.1" y="989.44" width="121.5" height="121.5" transform="translate(-518.87 847.72) rotate(-45)"/><rect class="cls-2" x="798.56" y="893.98" width="121.5" height="121.5" transform="translate(-423.41 887.26) rotate(-45)"/><rect class="cls-2" x="894.02" y="798.52" width="121.5" height="121.5" transform="translate(-327.95 926.8) rotate(-45)"/><rect class="cls-2" x="989.48" y="703.06" width="121.5" height="121.5" transform="translate(-232.49 966.34) rotate(-45)"/><rect class="cls-2" x="1084.94" y="607.6" width="121.5" height="121.5" transform="translate(-137.03 1005.88) rotate(-45)"/><rect class="cls-2" x="1180.4" y="512.14" width="121.5" height="121.5" transform="translate(-41.57 1045.42) rotate(-45)"/><rect class="cls-2" x="1275.86" y="416.68" width="121.5" height="121.5" transform="translate(53.89 1084.96) rotate(-45)"/><rect class="cls-2" x="1466.78" y="225.76" width="121.5" height="121.5" transform="translate(244.81 1164.05) rotate(-45)"/><rect class="cls-2" x="1562.24" y="130.3" width="121.5" height="121.5" transform="translate(340.27 1203.59) rotate(-45)"/><rect class="cls-2" x="607.64" y="1275.81" width="121.5" height="121.5" transform="translate(-749.33 864.09) rotate(-45)"/><rect class="cls-2" x="703.1" y="1180.35" width="121.5" height="121.5" transform="translate(-653.87 903.63) rotate(-45)"/><rect class="cls-2" x="798.56" y="1084.9" width="121.5" height="121.5" transform="translate(-558.41 943.18) rotate(-45)"/><rect class="cls-2" x="894.02" y="989.44" width="121.5" height="121.5" transform="translate(-462.95 982.72) rotate(-45)"/><rect class="cls-2" x="989.48" y="893.98" width="121.5" height="121.5" transform="translate(-367.49 1022.26) rotate(-45)"/><rect class="cls-2" x="1084.94" y="798.52" width="121.5" height="121.5" transform="translate(-272.03 1061.8) rotate(-45)"/><rect class="cls-2" x="1180.4" y="703.06" width="121.5" height="121.5" transform="translate(-176.57 1101.34) rotate(-45)"/><rect class="cls-2" x="1275.86" y="607.6" width="121.5" height="121.5" transform="translate(-81.11 1140.88) rotate(-45)"/><rect class="cls-2" x="1371.32" y="512.14" width="121.5" height="121.5" transform="translate(14.35 1180.42) rotate(-45)"/><rect class="cls-2" x="1466.78" y="416.68" width="121.5" height="121.5" transform="translate(109.81 1219.97) rotate(-45)"/><rect class="cls-2" x="1562.24" y="321.22" width="121.5" height="121.5" transform="translate(205.27 1259.51) rotate(-45)"/><rect class="cls-2" x="1657.7" y="225.76" width="121.5" height="121.5" transform="translate(300.73 1299.05) rotate(-45)"/><rect class="cls-2" x="703.1" y="1371.27" width="121.5" height="121.5" transform="translate(-788.87 959.55) rotate(-45)"/><rect class="cls-2" x="798.56" y="1275.81" width="121.5" height="121.5" transform="translate(-693.41 999.09) rotate(-45)"/><rect class="cls-2" x="894.02" y="1180.35" width="121.5" height="121.5" transform="translate(-597.95 1038.63) rotate(-45)"/><rect class="cls-2" x="989.48" y="1084.9" width="121.5" height="121.5" transform="translate(-502.5 1078.18) rotate(-45)"/><rect class="cls-2" x="1084.94" y="989.44" width="121.5" height="121.5" transform="translate(-407.04 1117.72) rotate(-45)"/><rect class="cls-2" x="1180.4" y="893.98" width="121.5" height="121.5" transform="translate(-311.57 1157.26) rotate(-45)"/><rect class="cls-2" x="1275.86" y="798.52" width="121.5" height="121.5" transform="translate(-216.11 1196.8) rotate(-45)"/><rect class="cls-2" x="1371.32" y="703.06" width="121.5" height="121.5" transform="translate(-120.65 1236.34) rotate(-45)"/><rect class="cls-2" x="1466.78" y="607.6" width="121.5" height="121.5" transform="translate(-25.19 1275.88) rotate(-45)"/><rect class="cls-2" x="1562.24" y="512.14" width="121.5" height="121.5" transform="translate(70.27 1315.43) rotate(-45)"/><rect class="cls-2" x="1657.7" y="416.68" width="121.5" height="121.5" transform="translate(165.73 1354.97) rotate(-45)"/><rect class="cls-2" x="1753.16" y="321.22" width="121.5" height="121.5" transform="translate(261.19 1394.51) rotate(-45)"/><rect class="cls-2" x="798.56" y="1466.74" width="121.5" height="121.5" transform="translate(-828.41 1055.01) rotate(-45)"/><rect class="cls-2" x="894.02" y="1371.28" width="121.5" height="121.5" transform="translate(-732.95 1094.55) rotate(-45)"/><rect class="cls-2" x="989.48" y="1275.82" width="121.5" height="121.5" transform="translate(-637.49 1134.09) rotate(-45)"/><rect class="cls-2" x="1084.94" y="1180.36" width="121.5" height="121.5" transform="translate(-542.03 1173.63) rotate(-45)"/><rect class="cls-2" x="1180.4" y="1084.91" width="121.5" height="121.5" transform="translate(-446.58 1213.18) rotate(-45)"/><rect class="cls-2" x="1275.86" y="989.45" width="121.5" height="121.5" transform="translate(-351.12 1252.72) rotate(-45)"/><rect class="cls-2" x="1466.78" y="798.53" width="121.5" height="121.5" transform="translate(-160.2 1331.8) rotate(-45)"/><rect class="cls-2" x="1562.24" y="703.07" width="121.5" height="121.5" transform="translate(-64.74 1371.34) rotate(-45)"/><rect class="cls-2" x="1657.7" y="607.61" width="121.5" height="121.5" transform="translate(30.72 1410.89) rotate(-45)"/><rect class="cls-2" x="1753.16" y="512.15" width="121.5" height="121.5" transform="translate(126.18 1450.43) rotate(-45)"/><rect class="cls-2" x="894.02" y="1562.2" width="121.5" height="121.5" transform="translate(-867.95 1150.47) rotate(-45)"/><rect class="cls-2" x="989.48" y="1466.74" width="121.5" height="121.5" transform="translate(-772.49 1190.01) rotate(-45)"/><rect class="cls-2" x="1180.4" y="1275.82" width="121.5" height="121.5" transform="translate(-581.57 1269.1) rotate(-45)"/><rect class="cls-2" x="1275.86" y="1180.36" width="121.5" height="121.5" transform="translate(-486.11 1308.64) rotate(-45)"/><rect class="cls-2" x="1371.32" y="1084.91" width="121.5" height="121.5" transform="translate(-390.66 1348.18) rotate(-45)"/><rect class="cls-2" x="1466.78" y="989.45" width="121.5" height="121.5" transform="translate(-295.2 1387.72) rotate(-45)"/><rect class="cls-2" x="1562.24" y="893.99" width="121.5" height="121.5" transform="translate(-199.74 1427.26) rotate(-45)"/><rect class="cls-2" x="1657.7" y="798.53" width="121.5" height="121.5" transform="translate(-104.28 1466.81) rotate(-45)"/><rect class="cls-2" x="1753.16" y="703.07" width="121.5" height="121.5" transform="translate(-8.82 1506.35) rotate(-45)"/><rect class="cls-2" x="1084.94" y="1562.2" width="121.5" height="121.5" transform="translate(-812.03 1285.47) rotate(-45)"/><rect class="cls-2" x="1180.4" y="1466.74" width="121.5" height="121.5" transform="translate(-716.57 1325.01) rotate(-45)"/><rect class="cls-2" x="1275.86" y="1371.28" width="121.5" height="121.5" transform="translate(-621.11 1364.56) rotate(-45)"/><rect class="cls-2" x="1371.32" y="1275.82" width="121.5" height="121.5" transform="translate(-525.65 1404.1) rotate(-45)"/><rect class="cls-2" x="1466.78" y="1180.36" width="121.5" height="121.5" transform="translate(-430.19 1443.64) rotate(-45)"/><rect class="cls-2" x="1562.24" y="1084.91" width="121.5" height="121.5" transform="translate(-334.74 1483.18) rotate(-45)"/><rect class="cls-2" x="1657.7" y="989.45" width="121.5" height="121.5" transform="translate(-239.28 1522.72) rotate(-45)"/><rect class="cls-2" x="1753.16" y="893.99" width="121.5" height="121.5" transform="translate(-143.82 1562.27) rotate(-45)"/><rect class="cls-2" x="1275.86" y="1562.2" width="121.5" height="121.5" transform="translate(-756.11 1420.47) rotate(-45)"/><rect class="cls-2" x="1371.32" y="1466.74" width="121.5" height="121.5" transform="translate(-660.65 1460.02) rotate(-45)"/><rect class="cls-2" x="1466.78" y="1371.28" width="121.5" height="121.5" transform="translate(-565.19 1499.56) rotate(-45)"/><rect class="cls-2" x="1562.24" y="1275.82" width="121.5" height="121.5" transform="translate(-469.73 1539.1) rotate(-45)"/><rect class="cls-2" x="1657.7" y="1180.36" width="121.5" height="121.5" transform="translate(-374.27 1578.64) rotate(-45)"/><rect class="cls-2" x="1753.16" y="1084.91" width="121.5" height="121.5" transform="translate(-278.82 1618.18) rotate(-45)"/><rect class="cls-2" x="1371.32" y="1657.66" width="121.5" height="121.5" transform="translate(-795.66 1515.93) rotate(-45)"/><rect class="cls-2" x="1466.78" y="1562.2" width="121.5" height="121.5" transform="translate(-700.2 1555.48) rotate(-45)"/><rect class="cls-2" x="1562.24" y="1466.74" width="121.5" height="121.5" transform="translate(-604.74 1595.02) rotate(-45)"/><rect class="cls-2" x="1657.7" y="1371.28" width="121.5" height="121.5" transform="translate(-509.27 1634.56) rotate(-45)"/><rect class="cls-2" x="1753.16" y="1275.82" width="121.5" height="121.5" transform="translate(-413.81 1674.1) rotate(-45)"/><rect class="cls-2" x="1466.78" y="1753.11" width="121.5" height="121.5" transform="translate(-835.19 1611.4) rotate(-45)"/><rect class="cls-2" x="1657.7" y="1562.2" width="121.5" height="121.5" transform="translate(-644.28 1690.48) rotate(-45)"/><rect class="cls-2" x="1753.16" y="1466.74" width="121.5" height="121.5" transform="translate(-548.82 1730.02) rotate(-45)"/><rect class="cls-2" x="1657.7" y="1753.11" width="121.5" height="121.5" transform="translate(-779.27 1746.4) rotate(-45)"/><rect class="cls-2" x="1753.16" y="1657.66" width="121.5" height="121.5" transform="translate(-683.82 1785.94) rotate(-45)"/><rect class="cls-2" x="34.89" y="130.3" width="121.5" height="121.5" transform="translate(-107.08 123.59) rotate(-45)"/><rect class="cls-2" x="130.35" y="34.84" width="121.5" height="121.5" transform="translate(-11.62 163.12) rotate(-45)"/><rect class="cls-2" x="34.89" y="321.22" width="121.5" height="121.5" transform="translate(-242.08 179.51) rotate(-45)"/><rect class="cls-2" x="130.35" y="225.76" width="121.5" height="121.5" transform="translate(-146.62 219.04) rotate(-45)"/><rect class="cls-2" x="225.81" y="130.3" width="121.5" height="121.5" transform="translate(-51.16 258.58) rotate(-45)"/><rect class="cls-2" x="321.27" y="34.84" width="121.5" height="121.5" transform="translate(44.3 298.13) rotate(-45)"/><rect class="cls-2" x="34.89" y="893.99" width="121.5" height="121.5" transform="translate(-647.09 347.26) rotate(-45)"/><rect class="cls-2" x="34.89" y="1084.91" width="121.5" height="121.5" transform="translate(-782.09 403.18) rotate(-45)"/><rect class="cls-2" x="130.34" y="989.44" width="121.5" height="121.5" transform="translate(-686.63 442.72) rotate(-45)"/><rect class="cls-2" x="34.89" y="1275.82" width="121.5" height="121.5" transform="translate(-917.08 459.1) rotate(-45)"/><rect class="cls-2" x="130.34" y="1180.35" width="121.5" height="121.5" transform="translate(-821.62 498.63) rotate(-45)"/><rect class="cls-2" x="225.8" y="1084.9" width="121.5" height="121.5" transform="translate(-726.17 538.18) rotate(-45)"/><rect class="cls-2" x="130.34" y="1371.27" width="121.5" height="121.5" transform="translate(-956.62 554.55) rotate(-45)"/><rect class="cls-2" x="225.8" y="1275.81" width="121.5" height="121.5" transform="translate(-861.16 594.09) rotate(-45)"/><rect class="cls-2" x="321.26" y="1180.35" width="121.5" height="121.5" transform="translate(-765.7 633.64) rotate(-45)"/><rect class="cls-2" x="225.8" y="1466.73" width="121.5" height="121.5" transform="translate(-996.16 650.01) rotate(-45)"/><rect class="cls-2" x="321.26" y="1371.27" width="121.5" height="121.5" transform="translate(-900.7 689.55) rotate(-45)"/><rect class="cls-2" x="321.26" y="1562.19" width="121.5" height="121.5" transform="translate(-1035.71 745.47) rotate(-45)"/><rect class="cls-2" x="416.71" y="1466.73" width="121.5" height="121.5" transform="translate(-940.25 785.01) rotate(-45)"/><rect class="cls-2" x="512.17" y="1371.27" width="121.5" height="121.5" transform="translate(-844.79 824.55) rotate(-45)"/><rect class="cls-2" x="416.71" y="1657.65" width="121.5" height="121.5" transform="translate(-1075.25 840.93) rotate(-45)"/><rect class="cls-2" x="512.17" y="1562.19" width="121.5" height="121.5" transform="translate(-979.79 880.47) rotate(-45)"/><rect class="cls-2" x="607.63" y="1466.73" width="121.5" height="121.5" transform="translate(-884.33 920.01) rotate(-45)"/><rect class="cls-2" x="512.18" y="1753.11" width="121.5" height="121.5" transform="translate(-1114.78 936.39) rotate(-45)"/><rect class="cls-2" x="607.63" y="1657.66" width="121.5" height="121.5" transform="translate(-1019.33 975.93) rotate(-45)"/><rect class="cls-2" x="703.09" y="1562.2" width="121.5" height="121.5" transform="translate(-923.87 1015.47) rotate(-45)"/><rect class="cls-2" x="703.1" y="1753.11" width="121.5" height="121.5" transform="translate(-1058.87 1071.39) rotate(-45)"/><rect class="cls-2" x="798.55" y="1657.66" width="121.5" height="121.5" transform="translate(-963.41 1110.93) rotate(-45)"/><rect class="cls-2" x="894.02" y="1753.11" width="121.5" height="121.5" transform="translate(-1002.95 1206.39) rotate(-45)"/><rect class="cls-2" x="989.48" y="1657.66" width="121.5" height="121.5" transform="translate(-907.49 1245.93) rotate(-45)"/><rect class="cls-2" x="1084.94" y="1753.11" width="121.5" height="121.5" transform="translate(-947.03 1341.39) rotate(-45)"/><rect class="cls-2" x="1180.4" y="1657.66" width="121.5" height="121.5" transform="translate(-851.57 1380.93) rotate(-45)"/><rect class="cls-2" x="1275.86" y="1753.11" width="121.5" height="121.5" transform="translate(-891.11 1476.4) rotate(-45)"/><rect class="cls-2" x="34.89" y="1466.74" width="121.5" height="121.5" transform="translate(-1052.09 515.02) rotate(-45)"/><rect class="cls-2" x="34.89" y="1657.66" width="121.5" height="121.5" transform="translate(-1187.09 570.94) rotate(-45)"/><rect class="cls-2" x="130.34" y="1562.19" width="121.5" height="121.5" transform="translate(-1091.62 610.47) rotate(-45)"/><rect class="cls-2" x="130.35" y="1753.11" width="121.5" height="121.5" transform="translate(-1226.62 666.39) rotate(-45)"/><rect class="cls-2" x="225.8" y="1657.65" width="121.5" height="121.5" transform="translate(-1131.17 705.93) rotate(-45)"/><rect class="cls-2" x="321.27" y="1753.11" width="121.5" height="121.5" transform="translate(-1170.7 801.39) rotate(-45)"/><polygon class="cls-2" points="1622.99 86.05 1708.9 0.14 1708.76 0 1537.21 0 1537.07 0.14 1622.99 86.05"/><rect class="cls-2" x="1657.71" y="34.84" width="121.5" height="121.5" transform="translate(435.73 1243.13) rotate(-45)"/><polygon class="cls-2" points="1813.9 86.05 1899.82 0.14 1899.68 0 1728.13 0 1727.99 0.14 1813.9 86.05"/><polygon class="cls-2" points="0.18 372.43 86.09 286.51 0.18 200.6 0 200.78 0 372.25 0.18 372.43"/><polygon class="cls-2" points="0.18 563.35 86.09 477.43 0.18 391.52 0 391.69 0 563.17 0.18 563.35"/><polygon class="cls-2" points="0.18 754.26 86.09 668.35 0.18 582.44 0 582.61 0 754.09 0.18 754.26"/><polygon class="cls-2" points="0.18 945.18 86.09 859.27 0.18 773.36 0 773.53 0 945.01 0.18 945.18"/><polygon class="cls-2" points="0.18 1136.1 86.09 1050.19 0.18 964.28 0 964.45 0 1135.93 0.18 1136.1"/><polygon class="cls-2" points="0.18 1517.94 86.09 1432.03 0.18 1346.11 0 1346.29 0 1517.76 0.18 1517.94"/><polygon class="cls-2" points="0.18 1708.86 86.09 1622.95 0.18 1537.03 0 1537.21 0 1708.68 0.18 1708.86"/><polygon class="cls-2" points="0.18 1899.78 86.09 1813.87 0.18 1727.95 0 1728.13 0 1899.6 0.18 1899.78"/><polygon class="cls-2" points="10.05 1909 181.22 1909 95.64 1823.41 10.05 1909"/><polygon class="cls-2" points="200.97 1909 372.14 1909 286.55 1823.41 200.97 1909"/><polygon class="cls-2" points="391.88 1909 563.06 1909 477.47 1823.41 391.88 1909"/><polygon class="cls-2" points="773.72 1909 944.9 1909 859.31 1823.41 773.72 1909"/><polygon class="cls-2" points="964.64 1909 1135.82 1909 1050.23 1823.41 964.64 1909"/><polygon class="cls-2" points="1155.56 1909 1326.74 1909 1241.15 1823.41 1155.56 1909"/><polygon class="cls-2" points="1346.48 1909 1517.66 1909 1432.07 1823.41 1346.48 1909"/><polygon class="cls-2" points="1537.4 1909 1708.58 1909 1622.99 1823.41 1537.4 1909"/><polygon class="cls-2" points="1728.32 1909 1899.49 1909 1813.9 1823.41 1728.32 1909"/><polygon class="cls-2" points="1909 1899.41 1909 1728.32 1823.45 1813.87 1909 1899.41"/><polygon class="cls-2" points="1909 1708.49 1909 1537.4 1823.45 1622.95 1909 1708.49"/><polygon class="cls-2" points="1909 1517.58 1909 1346.48 1823.45 1432.03 1909 1517.58"/><polygon class="cls-2" points="1909 1135.74 1909 964.64 1823.45 1050.19 1909 1135.74"/><polygon class="cls-2" points="1909 944.82 1909 773.72 1823.45 859.27 1909 944.82"/><polygon class="cls-2" points="1909 753.9 1909 582.8 1823.45 668.35 1909 753.9"/><polygon class="cls-2" points="1909 562.98 1909 391.88 1823.45 477.43 1909 562.98"/><rect class="cls-2" x="1753.17" y="130.3" width="121.5" height="121.5" transform="translate(396.19 1338.59) rotate(-45)"/><polygon class="cls-2" points="1909 372.06 1909 200.97 1823.45 286.51 1909 372.06"/><polygon class="cls-2" points="95.64 86.05 181.55 0.14 181.41 0 9.86 0 9.72 0.14 95.64 86.05"/><polygon class="cls-2" points="286.55 86.05 372.47 0.14 372.33 0 200.78 0 200.64 0.14 286.55 86.05"/><polygon class="cls-2" points="477.47 86.05 563.39 0.14 563.25 0 391.69 0 391.56 0.14 477.47 86.05"/></g><g id="dark"><polygon class="cls-3" points="668.39 86.05 754.31 0.14 754.17 0 582.61 0 582.48 0.14 668.39 86.05"/><rect class="cls-3" x="416.72" y="703.06" width="121.5" height="121.5" transform="translate(-400.25 561.34) rotate(-45)"/><rect class="cls-3" x="1371.32" y="321.22" width="121.5" height="121.5" transform="translate(149.35 1124.51) rotate(-45)"/><rect class="cls-3" x="1084.94" y="1371.28" width="121.5" height="121.5" transform="translate(-677.03 1229.55) rotate(-45)"/><polygon class="cls-3" points="1909 1326.66 1909 1155.56 1823.45 1241.11 1909 1326.66"/><polygon class="cls-3" points="0.18 1327.02 86.09 1241.11 0.18 1155.19 0 1155.37 0 1326.85 0.18 1327.02"/><polygon class="cls-3" points="582.8 1909 753.98 1909 668.39 1823.41 582.8 1909"/></g><g id="light"><rect class="cls-4" x="34.89" y="512.14" width="121.5" height="121.5" transform="translate(-377.08 235.43) rotate(-45)"/><rect class="cls-4" x="798.56" y="321.22" width="121.5" height="121.5" transform="translate(-18.41 719.5) rotate(-45)"/><rect class="cls-4" x="1371.32" y="893.99" width="121.5" height="121.5" transform="translate(-255.66 1292.26) rotate(-45)"/><rect class="cls-4" x="1562.43" y="1657.67" width="121.5" height="121.5" transform="translate(-739.48 1644.06) rotate(-44.83)"/><polygon class="cls-4" points="0.18 181.51 86.09 95.59 0.18 9.68 0 9.86 0 181.33 0.18 181.51"/><rect class="cls-4" x="416.71" y="1275.81" width="121.5" height="121.5" transform="translate(-805.25 729.09) rotate(-45)"/><polygon class="cls-4" points="1909 181.14 1909 10.05 1823.45 95.59 1909 181.14"/></g></g></g></svg>