<svg xmlns="http://www.w3.org/2000/svg" viewBox="0 0 1920 1920" preserveAspectRatio="xMidYMid"><title>will-plays</title><g id="Layer_2" data-name="Layer 2"><g id="Layer_3" data-name="Layer 3"><path d="M0,0V1920H1920V0ZM1611.38,337.41l.36.25h0l1.39,1h0l1.22.86h0l3.9,2.74h0l1.89,1.32a.72.72,0,0,1,0,1.25l-4.12,2.89h0l-.58.41h0l-4.06,2.85c-.48.34-.88.14-.88-.46V337.87C1610.5,337.28,1610.9,337.07,1611.38,337.41ZM20.14,294.8,16,297.69h0l-.58.41h0l-4.06,2.85c-.48.34-.88.14-.88-.46V287.87c0-.59.4-.8.88-.46l.36.25h0l1.39,1h0l1.22.86h0l3.9,2.74h0l1.89,1.32A.72.72,0,0,1,20.14,294.8ZM43.45,933.11l-6.17,4.33h0l-.88.61h0l-6.07,4.27c-.73.52-1.33.2-1.33-.69V922.72c0-.89.6-1.2,1.32-.69l.54.37h0L33,923.87h0l1.83,1.29h0l5.86,4.12h0l2.82,2A1.07,1.07,0,0,1,43.45,933.11Zm28,966.47-2.82,2h0l-5.86,4.12h0L60.94,1907h0l-2.09,1.46h0l-.54.38c-.72.51-1.32.2-1.32-.69v-18.92c0-.89.6-1.2,1.33-.68l6.07,4.27h0l.88.61h0l6.17,4.33A1.07,1.07,0,0,1,71.45,1899.58Zm21.19-634.32-1.89,1.33h0l-3.9,2.74h0l-1.22.85h0l-1.39,1h0l-.36.25c-.48.33-.88.13-.88-.46v-12.61c0-.6.4-.8.88-.46l4.06,2.84h0l.58.4h0l4.12,2.89A.71.71,0,0,1,92.64,1265.26ZM170.14,74.8,166,77.69h0l-.58.41h0l-4.06,2.85c-.48.34-.88.14-.88-.46V67.87c0-.59.4-.8.88-.46l.36.25h0l1.39,1h0l1.22.86h0l3.9,2.74h0l1.89,1.32A.72.72,0,0,1,170.14,74.8Zm30,1588.46-1.89,1.33h0l-3.9,2.74h0l-1.22.85h0l-1.39,1h0l-.36.25c-.48.33-.88.13-.88-.46v-12.61c0-.6.4-.8.88-.46l4.06,2.84h0l.58.4h0l4.12,2.89A.71.71,0,0,1,200.14,1663.26Zm52.5-891.46-4.12,2.89h0l-.58.41h0l-4.06,2.85c-.48.34-.88.14-.88-.46V764.87c0-.59.4-.8.88-.46l.36.25h0l1.39,1h0l1.22.86h0l3.9,2.74h0l1.89,1.32A.72.72,0,0,1,252.64,771.8ZM466.45,427.11l-6.17,4.33h0l-.88.61h0l-6.07,4.27c-.73.52-1.33.2-1.33-.69V416.72c0-.89.6-1.2,1.32-.69l.54.37h0l2.09,1.47h0l1.83,1.29h0l5.86,4.12h0l2.82,2A1.07,1.07,0,0,1,466.45,427.11Zm22.19,725.15-1.89,1.33h0l-3.9,2.74h0l-1.22.85h0l-1.39,1h0l-.36.25c-.48.33-.88.13-.88-.46v-12.61c0-.6.4-.8.88-.46l4.06,2.84h0l.58.4h0l4.12,2.89A.71.71,0,0,1,488.64,1152.26Zm77.81,379.32-2.82,2h0l-5.86,4.12h0l-1.83,1.28h0l-2.09,1.46h0l-.54.38c-.72.51-1.32.2-1.32-.69v-18.92c0-.89.6-1.2,1.33-.68l6.07,4.27h0l.88.61h0l6.17,4.33A1.07,1.07,0,0,1,566.45,1531.58Zm106.19,287.68-1.89,1.33h0l-3.9,2.74h0l-1.22.85h0l-1.39,1h0l-.36.25c-.48.33-.88.13-.88-.46v-12.61c0-.6.4-.8.88-.46l4.06,2.84h0l.58.4h0l4.12,2.89A.71.71,0,0,1,672.64,1819.26Zm13-1202.46-4.12,2.89h0l-.58.41h0l-4.06,2.85c-.48.34-.88.14-.88-.46V609.87c0-.59.4-.8.88-.46l.36.25h0l1.39,1h0l1.22.86h0l3.9,2.74h0l1.89,1.32A.72.72,0,0,1,685.64,616.8Zm91.88-403.12-.58.41h0l-4.06,2.85c-.48.34-.88.14-.88-.46V203.87c0-.59.4-.8.88-.46l.36.25h0l1.39,1h0l1.22.86h0l3.9,2.74h0l1.89,1.32a.72.72,0,0,1,0,1.25l-4.12,2.89Zm14.93,761.9-2.82,2h0l-5.86,4.12h0L781.94,983h0l-2.09,1.46h0l-.54.38c-.72.51-1.32.2-1.32-.69V965.18c0-.89.6-1.2,1.33-.68l6.07,4.27h0l.88.61h0l6.17,4.33A1.07,1.07,0,0,1,792.45,975.58Zm106.19,309.68-1.89,1.33h0l-3.9,2.74h0l-1.22.85h0l-1.39,1h0l-.36.25c-.48.33-.88.13-.88-.46v-12.61c0-.6.4-.8.88-.46l4.06,2.84h0l.58.4h0l4.12,2.89A.71.71,0,0,1,898.64,1285.26Zm123.81-790.15-6.17,4.33h0l-.88.61h0l-6.07,4.27c-.73.52-1.33.2-1.33-.69V484.72c0-.89.6-1.2,1.32-.69l.54.37h0l2.09,1.47h0l1.83,1.29h0l5.86,4.12h0l2.82,2A1.07,1.07,0,0,1,1022.45,495.11Zm95.19,1302.15-1.89,1.33h0l-3.9,2.74h0l-1.22.85h0l-1.39,1h0l-.36.25c-.48.33-.88.13-.88-.46v-12.61c0-.6.4-.8.88-.46l4.06,2.84h0l.58.4h0l4.12,2.89A.71.71,0,0,1,1117.64,1797.26Zm4.81-333.68-2.82,2h0l-5.86,4.12h0l-1.83,1.28h0l-2.09,1.46h0l-.54.38c-.72.51-1.32.2-1.32-.69v-18.92c0-.89.6-1.2,1.33-.68l6.07,4.27h0l.88.61h0l6.17,4.33A1.07,1.07,0,0,1,1122.45,1463.58ZM1185.64,9.8l-4.12,2.89h0l-.58.41h0l-4.06,2.85c-.48.34-.88.14-.88-.46V2.87c0-.59.4-.8.88-.46l.36.25h0l1.39,1h0l1.22.86h0l3.9,2.74h0l1.89,1.32A.72.72,0,0,1,1185.64,9.8Zm74.5,1063.46-1.89,1.33h0l-3.9,2.74h0l-1.22.85h0l-1.39,1h0l-.36.25c-.48.33-.88.13-.88-.46v-12.61c0-.6.4-.8.88-.46l4.06,2.84h0l.58.4h0l4.12,2.89A.71.71,0,0,1,1260.14,1073.26Zm103.5-400.46-4.12,2.89h0l-.58.41h0l-4.06,2.85c-.48.34-.88.14-.88-.46V665.87c0-.59.4-.8.88-.46l.36.25h0l1.39,1h0l1.22.86h0l3.9,2.74h0l1.89,1.32A.72.72,0,0,1,1363.64,672.8Zm18.81-427.69-6.17,4.33h0l-.88.61h0l-6.07,4.27c-.73.52-1.33.2-1.33-.69V234.72c0-.89.6-1.2,1.32-.69l.54.37h0l2.09,1.47h0l1.83,1.29h0l5.86,4.12h0l2.82,2A1.07,1.07,0,0,1,1382.45,245.11Zm51,1076.47-2.82,2h0l-5.86,4.12h0l-1.83,1.28h0l-2.09,1.46h0l-.54.38c-.72.51-1.32.2-1.32-.69v-18.92c0-.89.6-1.2,1.33-.68l6.07,4.27h0l.88.61h0l6.17,4.33A1.07,1.07,0,0,1,1433.45,1321.58Zm68.19,363.68-1.89,1.33h0l-3.9,2.74h0l-1.22.85h0l-1.39,1h0l-.36.25c-.48.33-.88.13-.88-.46v-12.61c0-.6.4-.8.88-.46l4.06,2.84h0l.58.4h0l4.12,2.89A.71.71,0,0,1,1501.64,1685.26ZM1606,47.68l-.58.41h0l-4.06,2.85c-.48.34-.88.14-.88-.46V37.87c0-.59.4-.8.88-.46l.36.25h0l1.39,1h0l1.22.86h0l3.9,2.74h0l1.89,1.32a.72.72,0,0,1,0,1.25L1606,47.69Zm16.43,897.43-6.17,4.33h0l-.88.61h0l-6.07,4.27c-.73.52-1.33.2-1.33-.69V934.72c0-.89.6-1.2,1.32-.69l.54.37h0l2.09,1.47h0l1.83,1.29h0l5.86,4.12h0l2.82,2A1.07,1.07,0,0,1,1622.45,945.11Zm163.19,479.15-1.89,1.33h0l-3.9,2.74h0l-1.22.85h0l-1.39,1h0l-.36.25c-.48.33-.88.13-.88-.46v-12.61c0-.6.4-.8.88-.46l4.06,2.84h0l.58.4h0l4.12,2.89A.71.71,0,0,1,1785.64,1424.26Zm75.81,427.32-2.82,2h0l-5.86,4.12h0l-1.83,1.28h0l-2.09,1.46h0l-.54.38c-.72.51-1.32.2-1.32-.69v-18.92c0-.89.6-1.2,1.33-.68l6.07,4.27h0l.88.61h0l6.17,4.33A1.07,1.07,0,0,1,1861.45,1851.58ZM1876.64,773.8l-4.12,2.89h0l-.58.41h0l-4.06,2.85c-.48.34-.88.14-.88-.46V766.87c0-.59.4-.8.88-.46l.36.25h0l1.39,1h0l1.22.86h0l3.9,2.74h0l1.89,1.32A.72.72,0,0,1,1876.64,773.8Zm25.81-278.69-6.17,4.33h0l-.88.61h0l-6.07,4.27c-.73.52-1.33.2-1.33-.69V484.72c0-.89.6-1.2,1.32-.69l.54.37h0l2.09,1.47h0l1.83,1.29h0l5.86,4.12h0l2.82,2A1.07,1.07,0,0,1,1902.45,495.11Z" style="fill:#f5f5f5"/></g></g></svg>