<svg id="Group_1" data-name="Group 1" xmlns="http://www.w3.org/2000/svg" width="453" height="453" viewBox="0 0 453 453">
  <circle id="Ellipse_1" data-name="Ellipse 1" cx="1.5" cy="1.5" r="1.5" fill="#565555"/>
  <circle id="Ellipse_2" data-name="Ellipse 2" cx="1.5" cy="1.5" r="1.5" transform="translate(50)" fill="#565555"/>
  <circle id="Ellipse_3" data-name="Ellipse 3" cx="1.5" cy="1.5" r="1.5" transform="translate(100)" fill="#565555"/>
  <circle id="Ellipse_4" data-name="Ellipse 4" cx="1.5" cy="1.5" r="1.5" transform="translate(0 50)" fill="#565555"/>
  <circle id="Ellipse_5" data-name="Ellipse 5" cx="1.5" cy="1.5" r="1.5" transform="translate(50 50)" fill="#565555"/>
  <circle id="Ellipse_6" data-name="Ellipse 6" cx="1.5" cy="1.5" r="1.5" transform="translate(100 50)" fill="#565555"/>
  <circle id="Ellipse_7" data-name="Ellipse 7" cx="1.5" cy="1.5" r="1.5" transform="translate(0 100)" fill="#565555"/>
  <circle id="Ellipse_8" data-name="Ellipse 8" cx="1.5" cy="1.5" r="1.5" transform="translate(50 100)" fill="#565555"/>
  <circle id="Ellipse_9" data-name="Ellipse 9" cx="1.5" cy="1.5" r="1.5" transform="translate(100 100)" fill="#565555"/>
  <circle id="Ellipse_10" data-name="Ellipse 10" cx="1.5" cy="1.5" r="1.5" transform="translate(150)" fill="#565555"/>
  <circle id="Ellipse_11" data-name="Ellipse 11" cx="1.5" cy="1.5" r="1.5" transform="translate(200)" fill="#565555"/>
  <circle id="Ellipse_12" data-name="Ellipse 12" cx="1.5" cy="1.5" r="1.5" transform="translate(250)" fill="#565555"/>
  <circle id="Ellipse_13" data-name="Ellipse 13" cx="1.5" cy="1.5" r="1.5" transform="translate(150 50)" fill="#565555"/>
  <circle id="Ellipse_14" data-name="Ellipse 14" cx="1.5" cy="1.5" r="1.5" transform="translate(200 50)" fill="#565555"/>
  <circle id="Ellipse_15" data-name="Ellipse 15" cx="1.5" cy="1.5" r="1.5" transform="translate(250 50)" fill="#565555"/>
  <circle id="Ellipse_16" data-name="Ellipse 16" cx="1.5" cy="1.5" r="1.5" transform="translate(150 100)" fill="#565555"/>
  <circle id="Ellipse_17" data-name="Ellipse 17" cx="1.5" cy="1.5" r="1.5" transform="translate(200 100)" fill="#565555"/>
  <circle id="Ellipse_18" data-name="Ellipse 18" cx="1.5" cy="1.5" r="1.5" transform="translate(250 100)" fill="#565555"/>
  <circle id="Ellipse_19" data-name="Ellipse 19" cx="1.5" cy="1.5" r="1.5" transform="translate(300)" fill="#565555"/>
  <circle id="Ellipse_20" data-name="Ellipse 20" cx="1.5" cy="1.5" r="1.5" transform="translate(350)" fill="#565555"/>
  <circle id="Ellipse_21" data-name="Ellipse 21" cx="1.5" cy="1.5" r="1.5" transform="translate(400)" fill="#565555"/>
  <circle id="Ellipse_22" data-name="Ellipse 22" cx="1.5" cy="1.5" r="1.5" transform="translate(300 50)" fill="#565555"/>
  <circle id="Ellipse_23" data-name="Ellipse 23" cx="1.5" cy="1.5" r="1.5" transform="translate(350 50)" fill="#565555"/>
  <circle id="Ellipse_24" data-name="Ellipse 24" cx="1.5" cy="1.5" r="1.5" transform="translate(400 50)" fill="#565555"/>
  <circle id="Ellipse_25" data-name="Ellipse 25" cx="1.5" cy="1.5" r="1.5" transform="translate(300 100)" fill="#565555"/>
  <circle id="Ellipse_26" data-name="Ellipse 26" cx="1.5" cy="1.5" r="1.5" transform="translate(350 100)" fill="#565555"/>
  <circle id="Ellipse_27" data-name="Ellipse 27" cx="1.5" cy="1.5" r="1.5" transform="translate(400 100)" fill="#565555"/>
  <circle id="Ellipse_28" data-name="Ellipse 28" cx="1.5" cy="1.5" r="1.5" transform="translate(450)" fill="#565555"/>
  <circle id="Ellipse_29" data-name="Ellipse 29" cx="1.5" cy="1.5" r="1.5" transform="translate(450 50)" fill="#565555"/>
  <circle id="Ellipse_30" data-name="Ellipse 30" cx="1.5" cy="1.5" r="1.5" transform="translate(450 100)" fill="#565555"/>
  <circle id="Ellipse_31" data-name="Ellipse 31" cx="1.5" cy="1.5" r="1.5" transform="translate(0 150)" fill="#565555"/>
  <circle id="Ellipse_32" data-name="Ellipse 32" cx="1.5" cy="1.5" r="1.5" transform="translate(50 150)" fill="#565555"/>
  <circle id="Ellipse_33" data-name="Ellipse 33" cx="1.5" cy="1.5" r="1.5" transform="translate(100 150)" fill="#565555"/>
  <circle id="Ellipse_34" data-name="Ellipse 34" cx="1.5" cy="1.5" r="1.5" transform="translate(0 200)" fill="#565555"/>
  <circle id="Ellipse_35" data-name="Ellipse 35" cx="1.5" cy="1.5" r="1.5" transform="translate(50 200)" fill="#565555"/>
  <circle id="Ellipse_36" data-name="Ellipse 36" cx="1.5" cy="1.5" r="1.5" transform="translate(100 200)" fill="#565555"/>
  <circle id="Ellipse_37" data-name="Ellipse 37" cx="1.5" cy="1.5" r="1.5" transform="translate(0 250)" fill="#565555"/>
  <circle id="Ellipse_38" data-name="Ellipse 38" cx="1.5" cy="1.5" r="1.5" transform="translate(50 250)" fill="#565555"/>
  <circle id="Ellipse_39" data-name="Ellipse 39" cx="1.5" cy="1.5" r="1.5" transform="translate(100 250)" fill="#565555"/>
  <circle id="Ellipse_40" data-name="Ellipse 40" cx="1.5" cy="1.5" r="1.5" transform="translate(150 150)" fill="#565555"/>
  <circle id="Ellipse_41" data-name="Ellipse 41" cx="1.5" cy="1.5" r="1.5" transform="translate(200 150)" fill="#565555"/>
  <circle id="Ellipse_42" data-name="Ellipse 42" cx="1.5" cy="1.5" r="1.5" transform="translate(250 150)" fill="#565555"/>
  <circle id="Ellipse_43" data-name="Ellipse 43" cx="1.5" cy="1.5" r="1.5" transform="translate(150 200)" fill="#565555"/>
  <circle id="Ellipse_44" data-name="Ellipse 44" cx="1.5" cy="1.5" r="1.5" transform="translate(200 200)" fill="#565555"/>
  <circle id="Ellipse_45" data-name="Ellipse 45" cx="1.5" cy="1.5" r="1.5" transform="translate(250 200)" fill="#565555"/>
  <circle id="Ellipse_46" data-name="Ellipse 46" cx="1.5" cy="1.5" r="1.5" transform="translate(150 250)" fill="#565555"/>
  <circle id="Ellipse_47" data-name="Ellipse 47" cx="1.5" cy="1.5" r="1.5" transform="translate(200 250)" fill="#565555"/>
  <circle id="Ellipse_48" data-name="Ellipse 48" cx="1.5" cy="1.5" r="1.5" transform="translate(250 250)" fill="#565555"/>
  <circle id="Ellipse_49" data-name="Ellipse 49" cx="1.5" cy="1.5" r="1.5" transform="translate(300 150)" fill="#565555"/>
  <circle id="Ellipse_50" data-name="Ellipse 50" cx="1.5" cy="1.5" r="1.5" transform="translate(350 150)" fill="#565555"/>
  <circle id="Ellipse_51" data-name="Ellipse 51" cx="1.5" cy="1.5" r="1.5" transform="translate(400 150)" fill="#565555"/>
  <circle id="Ellipse_52" data-name="Ellipse 52" cx="1.5" cy="1.5" r="1.5" transform="translate(300 200)" fill="#565555"/>
  <circle id="Ellipse_53" data-name="Ellipse 53" cx="1.5" cy="1.5" r="1.5" transform="translate(350 200)" fill="#565555"/>
  <circle id="Ellipse_54" data-name="Ellipse 54" cx="1.5" cy="1.5" r="1.5" transform="translate(400 200)" fill="#565555"/>
  <circle id="Ellipse_55" data-name="Ellipse 55" cx="1.5" cy="1.5" r="1.5" transform="translate(300 250)" fill="#565555"/>
  <circle id="Ellipse_56" data-name="Ellipse 56" cx="1.5" cy="1.5" r="1.5" transform="translate(350 250)" fill="#565555"/>
  <circle id="Ellipse_57" data-name="Ellipse 57" cx="1.5" cy="1.5" r="1.5" transform="translate(400 250)" fill="#565555"/>
  <circle id="Ellipse_58" data-name="Ellipse 58" cx="1.5" cy="1.5" r="1.5" transform="translate(450 150)" fill="#565555"/>
  <circle id="Ellipse_59" data-name="Ellipse 59" cx="1.5" cy="1.5" r="1.5" transform="translate(450 200)" fill="#565555"/>
  <circle id="Ellipse_60" data-name="Ellipse 60" cx="1.5" cy="1.5" r="1.5" transform="translate(450 250)" fill="#565555"/>
  <circle id="Ellipse_61" data-name="Ellipse 61" cx="1.5" cy="1.5" r="1.5" transform="translate(0 300)" fill="#565555"/>
  <circle id="Ellipse_62" data-name="Ellipse 62" cx="1.5" cy="1.5" r="1.5" transform="translate(50 300)" fill="#565555"/>
  <circle id="Ellipse_63" data-name="Ellipse 63" cx="1.5" cy="1.5" r="1.5" transform="translate(100 300)" fill="#565555"/>
  <circle id="Ellipse_64" data-name="Ellipse 64" cx="1.5" cy="1.5" r="1.5" transform="translate(0 350)" fill="#565555"/>
  <circle id="Ellipse_65" data-name="Ellipse 65" cx="1.5" cy="1.5" r="1.5" transform="translate(50 350)" fill="#565555"/>
  <circle id="Ellipse_66" data-name="Ellipse 66" cx="1.5" cy="1.5" r="1.5" transform="translate(100 350)" fill="#565555"/>
  <circle id="Ellipse_67" data-name="Ellipse 67" cx="1.5" cy="1.5" r="1.5" transform="translate(0 400)" fill="#565555"/>
  <circle id="Ellipse_68" data-name="Ellipse 68" cx="1.5" cy="1.5" r="1.5" transform="translate(50 400)" fill="#565555"/>
  <circle id="Ellipse_69" data-name="Ellipse 69" cx="1.5" cy="1.5" r="1.5" transform="translate(100 400)" fill="#565555"/>
  <circle id="Ellipse_70" data-name="Ellipse 70" cx="1.5" cy="1.5" r="1.5" transform="translate(150 300)" fill="#565555"/>
  <circle id="Ellipse_71" data-name="Ellipse 71" cx="1.5" cy="1.5" r="1.5" transform="translate(200 300)" fill="#565555"/>
  <circle id="Ellipse_72" data-name="Ellipse 72" cx="1.5" cy="1.5" r="1.5" transform="translate(250 300)" fill="#565555"/>
  <circle id="Ellipse_73" data-name="Ellipse 73" cx="1.5" cy="1.5" r="1.5" transform="translate(150 350)" fill="#565555"/>
  <circle id="Ellipse_74" data-name="Ellipse 74" cx="1.5" cy="1.5" r="1.5" transform="translate(200 350)" fill="#565555"/>
  <circle id="Ellipse_75" data-name="Ellipse 75" cx="1.5" cy="1.5" r="1.5" transform="translate(250 350)" fill="#565555"/>
  <circle id="Ellipse_76" data-name="Ellipse 76" cx="1.5" cy="1.5" r="1.5" transform="translate(150 400)" fill="#565555"/>
  <circle id="Ellipse_77" data-name="Ellipse 77" cx="1.5" cy="1.5" r="1.5" transform="translate(200 400)" fill="#565555"/>
  <circle id="Ellipse_78" data-name="Ellipse 78" cx="1.5" cy="1.5" r="1.5" transform="translate(250 400)" fill="#565555"/>
  <circle id="Ellipse_79" data-name="Ellipse 79" cx="1.5" cy="1.5" r="1.5" transform="translate(300 300)" fill="#565555"/>
  <circle id="Ellipse_80" data-name="Ellipse 80" cx="1.5" cy="1.5" r="1.5" transform="translate(350 300)" fill="#565555"/>
  <circle id="Ellipse_81" data-name="Ellipse 81" cx="1.5" cy="1.5" r="1.5" transform="translate(400 300)" fill="#565555"/>
  <circle id="Ellipse_82" data-name="Ellipse 82" cx="1.5" cy="1.5" r="1.5" transform="translate(300 350)" fill="#565555"/>
  <circle id="Ellipse_83" data-name="Ellipse 83" cx="1.5" cy="1.5" r="1.5" transform="translate(350 350)" fill="#565555"/>
  <circle id="Ellipse_84" data-name="Ellipse 84" cx="1.5" cy="1.5" r="1.5" transform="translate(400 350)" fill="#565555"/>
  <circle id="Ellipse_85" data-name="Ellipse 85" cx="1.5" cy="1.5" r="1.5" transform="translate(300 400)" fill="#565555"/>
  <circle id="Ellipse_86" data-name="Ellipse 86" cx="1.5" cy="1.5" r="1.5" transform="translate(350 400)" fill="#565555"/>
  <circle id="Ellipse_87" data-name="Ellipse 87" cx="1.5" cy="1.5" r="1.5" transform="translate(400 400)" fill="#565555"/>
  <circle id="Ellipse_88" data-name="Ellipse 88" cx="1.5" cy="1.5" r="1.5" transform="translate(450 300)" fill="#565555"/>
  <circle id="Ellipse_89" data-name="Ellipse 89" cx="1.5" cy="1.5" r="1.5" transform="translate(450 350)" fill="#565555"/>
  <circle id="Ellipse_90" data-name="Ellipse 90" cx="1.5" cy="1.5" r="1.5" transform="translate(450 400)" fill="#565555"/>
  <circle id="Ellipse_91" data-name="Ellipse 91" cx="1.5" cy="1.5" r="1.5" transform="translate(0 450)" fill="#565555"/>
  <circle id="Ellipse_92" data-name="Ellipse 92" cx="1.5" cy="1.5" r="1.5" transform="translate(50 450)" fill="#565555"/>
  <circle id="Ellipse_93" data-name="Ellipse 93" cx="1.5" cy="1.5" r="1.5" transform="translate(100 450)" fill="#565555"/>
  <circle id="Ellipse_94" data-name="Ellipse 94" cx="1.5" cy="1.5" r="1.5" transform="translate(150 450)" fill="#565555"/>
  <circle id="Ellipse_95" data-name="Ellipse 95" cx="1.5" cy="1.5" r="1.5" transform="translate(200 450)" fill="#565555"/>
  <circle id="Ellipse_96" data-name="Ellipse 96" cx="1.5" cy="1.5" r="1.5" transform="translate(250 450)" fill="#565555"/>
  <circle id="Ellipse_97" data-name="Ellipse 97" cx="1.5" cy="1.5" r="1.5" transform="translate(300 450)" fill="#565555"/>
  <circle id="Ellipse_98" data-name="Ellipse 98" cx="1.5" cy="1.5" r="1.5" transform="translate(350 450)" fill="#565555"/>
  <circle id="Ellipse_99" data-name="Ellipse 99" cx="1.5" cy="1.5" r="1.5" transform="translate(400 450)" fill="#565555"/>
  <circle id="Ellipse_100" data-name="Ellipse 100" cx="1.5" cy="1.5" r="1.5" transform="translate(450 450)" fill="#565555"/>
</svg>
