<?xml version="1.0" encoding="UTF-8"?><svg id="Layer_1" xmlns="http://www.w3.org/2000/svg" viewBox="0 0 100 100"><defs><style>.cls-1{fill:#dfd9d1;stroke:#dfd9d1;stroke-width:.25px;}.cls-1,.cls-2{stroke-miterlimit:10;}.cls-2{fill:#d0c5b7;stroke:#d0c5b7;stroke-width:.75px;}</style></defs><line class="cls-2" y1="7" x2="100" y2="7"/><line class="cls-1" y1="17" x2="100" y2="17"/><line class="cls-1" y1="27" x2="100" y2="27"/><line class="cls-1" y1="37" x2="100" y2="37"/><line class="cls-1" y1="47" x2="100" y2="47"/><line class="cls-1" y1="57" x2="100" y2="57"/><line class="cls-1" y1="67" x2="100" y2="67"/><line class="cls-1" y1="77" x2="100" y2="77"/><line class="cls-1" y1="87" x2="100" y2="87"/><line class="cls-1" y1="97" x2="100" y2="97"/><line class="cls-1" x1="97" x2="97" y2="100"/><line class="cls-1" x1="87" x2="87" y2="100"/><line class="cls-1" x1="77" x2="77" y2="100"/><line class="cls-1" x1="67" x2="67" y2="100"/><line class="cls-1" x1="57" x2="57" y2="100"/><line class="cls-1" x1="47" y1="0" x2="47" y2="100"/><line class="cls-1" x1="37" x2="37" y2="100"/><line class="cls-1" x1="27" x2="27" y2="100"/><line class="cls-1" x1="17" x2="17" y2="100"/><line class="cls-2" x1="7" x2="7" y2="100"/></svg>